<svg width="80" height="48" viewBox="0 0 80 48" fill="none" xmlns="http://www.w3.org/2000/svg">
<path fill-rule="evenodd" clip-rule="evenodd" d="M23.4492 10.8786C23.0579 10.6212 22.6102 10.4764 22.1542 10.3672C20.4633 9.96069 18.7429 9.68333 17.0344 9.34963C16.4304 9.23175 16.4378 9.24389 16.4517 8.66663C16.4647 8.15178 16.4989 7.62826 16.3204 7.13075C15.7524 5.542 15.0235 4.02085 14.1115 2.57771C13.7979 2.08193 13.3613 1.75257 12.7499 1.65289C12.5289 1.61736 12.3032 1.61129 12.0802 1.59135C11.3911 1.53155 10.6891 1.57662 10.0203 1.3634C9.40428 1.07997 8.77252 0.83468 8.10375 0.683866C8.02791 0.648329 7.95113 0.611925 7.87529 0.576389C7.55339 0.429041 7.23982 0.270426 7.01228 0H6.79398C6.54794 0.180284 6.30189 0.359701 6.05585 0.539985C5.73026 0.656996 5.49254 0.840747 5.47311 1.19785C5.47034 1.24292 5.44814 1.28972 5.42501 1.33219C5.12624 1.87131 4.91442 2.45637 4.45748 2.91228C4.40013 2.97035 4.35851 3.04749 4.33076 3.1229C4.29284 3.22344 4.29284 3.33699 4.40198 3.39679C4.59715 3.50427 4.63323 3.68455 4.6619 3.86397C4.70353 4.1266 4.74515 4.36842 4.99582 4.55564C5.17619 4.68912 5.13272 4.85727 4.94125 4.99508C4.83302 5.07395 4.71833 5.14589 4.61288 5.2291C4.31041 5.46832 3.95707 5.64687 3.67865 5.9147C3.62222 5.90863 3.58338 5.9381 3.5436 5.96844C3.00156 6.39055 2.50115 6.85426 2.09508 7.39338C1.66774 7.95936 1.1701 8.45168 0.539264 8.81831C0.370917 8.91625 0.220145 9.05927 0 9.06014V9.18321C0.0906481 9.15461 0.181296 9.13208 0.277494 9.14161C0.351493 9.14854 0.45509 9.10434 0.48654 9.20055C0.517989 9.29936 0.397742 9.30109 0.346868 9.34876C0.282119 9.40857 0.104523 9.39557 0.158172 9.52211C0.210896 9.64779 0.363517 9.57759 0.472665 9.58018C0.511514 9.58105 0.554063 9.55332 0.590138 9.53165C0.789933 9.40857 0.984179 9.28029 1.16548 9.13294C1.51049 8.85298 1.85736 8.56956 2.31708 8.46294C2.58995 8.39881 2.69077 8.48461 2.63342 8.73857C2.58902 8.94052 2.64544 9.11561 2.75829 9.27942C2.80917 9.3531 2.87576 9.44844 2.97011 9.43544C3.06076 9.4233 3.05984 9.30629 3.07741 9.23262C3.20043 8.7247 3.32808 8.21592 3.42613 7.70281C3.47515 7.44798 3.58615 7.25903 3.82942 7.13942C4.26786 6.9522 4.71278 6.77798 5.14289 6.57516C5.49069 6.41222 5.84588 6.25707 6.1465 6.01784C6.44249 5.86443 6.45081 5.8653 6.70703 6.09065C6.82821 6.19726 6.95123 6.303 7.07148 6.41135C7.13993 6.47375 7.20097 6.51709 7.2278 6.38448C7.26017 6.21546 7.33787 6.28307 7.41002 6.35501C7.57374 6.52056 7.57744 6.71038 7.41094 6.95307C7.05483 7.46965 6.74866 8.01484 6.61454 8.61549C6.51741 9.05147 6.14002 9.44671 6.39162 9.94855C6.45821 10.0794 6.53961 10.1245 6.65246 10.1488C6.79676 10.18 6.78196 10.0474 6.80601 9.97542C6.84208 9.87315 6.85781 9.7648 6.88001 9.65819C6.91978 9.47271 6.94845 9.28289 7.05205 9.11474C7.24907 8.79231 7.37765 8.78711 7.57374 9.09481C7.58114 9.10607 7.58577 9.11994 7.59409 9.13034C7.63757 9.17888 7.64497 9.28202 7.73561 9.25862C7.81886 9.23695 7.79944 9.14681 7.79851 9.08094C7.79481 8.74811 7.76984 8.41701 7.71526 8.08764C7.67179 7.82502 7.68566 7.58319 7.97333 7.43325C8.03531 7.40031 8.08341 7.3457 8.10283 7.2755C8.24805 7.22609 8.46542 7.36131 8.51537 7.16715C8.73367 7.35264 8.96214 7.54852 9.19431 7.74268C9.22853 7.77128 9.28496 7.84582 9.30346 7.81375C9.45515 7.56499 9.50325 7.85535 9.6161 7.85449C9.65772 7.58666 9.83254 7.79035 9.96112 7.78688C10.0055 7.55286 9.90007 7.3249 9.94539 7.06054C10.1424 7.35697 10.32 7.6222 10.4985 7.89262C10.5503 7.84842 10.5503 7.82068 10.5365 7.79641C10.197 7.20182 10.0092 6.55003 9.73727 5.9303C9.6235 5.67201 9.6198 5.44492 9.83162 5.23344C9.91024 5.15456 9.98794 5.07309 10.0656 4.99335C10.1757 4.95781 10.2627 5.01588 10.3496 5.06182C10.9564 5.38338 11.5465 5.72922 12.1015 6.12272C12.6944 6.54483 12.9035 7.11775 12.7277 7.78515C12.5205 8.57562 12.2541 9.35136 12.2162 10.173C12.1838 10.8742 12.3004 11.5356 12.7934 12.0851C13.095 12.4223 13.1958 12.7854 13.1643 13.2153C13.1292 13.6972 13.008 14.167 12.9738 14.6481C12.9201 15.3926 12.9155 16.1406 12.8054 16.8817C12.6833 17.712 12.429 18.4947 11.9045 19.1907C11.5687 19.6362 11.3125 20.1233 11.1025 20.6321C10.6798 21.6609 10.4356 22.7383 10.1017 23.7914C10.0046 24.0956 9.94539 24.4137 9.74745 24.6816C9.5791 24.8272 9.383 24.9191 9.16008 24.9771C8.87796 25.0508 8.76419 25.1852 8.75587 25.4417C8.73922 26.0025 8.62175 26.5459 8.4608 27.0833C8.372 27.3789 8.29985 27.6753 8.35998 27.9856C8.44137 28.3973 8.55792 28.7934 8.89646 29.0968C9.02226 29.2095 9.14066 29.2233 9.23408 29.0725C9.47273 28.686 9.7345 28.308 9.87879 27.8764C10.1063 27.3919 10.2849 26.8883 10.5485 26.4185C12.0358 23.7758 13.5214 21.1322 15.0032 18.4869C15.1345 18.2503 15.314 18.0709 15.5443 17.9166C17.4174 16.6659 19.3959 15.566 21.3254 14.3958C22.1339 13.9053 22.9839 13.471 23.7008 12.8548C23.8932 12.6892 24.0504 12.5072 24.0856 12.2584C24.167 11.6803 23.9589 11.2149 23.4492 10.8786ZM19.2192 13.432C18.5116 13.9616 17.804 14.4921 17.0742 14.9939C16.7486 15.2175 16.3694 15.3051 15.992 15.3961C15.8394 15.4333 15.7876 15.3363 15.8181 15.2175C15.9911 14.5588 16.1576 13.8992 16.3546 13.2465C16.4582 12.905 16.768 12.7551 17.1242 12.7456C18.0445 12.723 18.9649 12.743 19.8834 12.7915C19.9019 12.7932 19.9204 12.808 19.9685 12.8296C19.7113 13.0377 19.4718 13.2422 19.2192 13.432Z" fill="white"/>
<path fill-rule="evenodd" clip-rule="evenodd" d="M27.7075 37.0577C27.6455 37.2909 27.5336 37.5032 27.4309 37.7208C27.4124 37.7607 27.4032 37.8222 27.3347 37.8144C27.2524 37.8057 27.2635 37.7399 27.257 37.6887C27.2163 37.3178 27.1793 36.9459 27.1349 36.575C27.0896 36.197 26.9879 35.8373 26.6762 35.5669C26.3126 35.2532 25.8723 35.2471 25.4256 35.332C24.6292 35.4837 24.015 35.9266 23.4896 36.477C22.1474 37.8829 21.3964 39.5626 21.0134 41.3897C20.858 42.1308 21.0365 42.8771 21.1929 43.6104C21.5138 45.1272 22.2279 46.4706 23.2389 47.6841C23.3157 47.776 23.4045 47.8678 23.4369 47.9926C23.3518 48.0204 23.3185 47.9632 23.2833 47.9302C22.0938 46.8399 20.9709 45.6932 20.0246 44.406C19.2597 43.3651 18.8619 42.1993 18.7259 40.946C18.676 40.4866 18.5881 40.0324 18.516 39.5756C18.5067 39.5184 18.5141 39.4318 18.4225 39.4456C18.3513 39.4569 18.3902 39.5375 18.3837 39.586C18.3134 40.0931 18.2977 40.6088 18.3485 41.1124C18.4373 42.0095 18.5197 42.9083 18.6658 43.8002C18.7528 44.3367 18.8027 44.8793 18.9627 45.4037C19.1561 46.0425 19.5038 46.618 19.7989 47.2152C19.8572 47.3313 19.9053 47.4527 19.9488 47.574C19.9626 47.613 20.0006 47.6702 19.9386 47.7023C19.8812 47.7326 19.8479 47.6797 19.8109 47.6511C19.3984 47.3304 19.0784 46.9352 18.7898 46.5183C18.4817 46.0737 18.2116 45.6082 18.0304 45.1029C17.8814 44.816 17.7723 44.5135 17.6789 44.2067C17.48 43.7421 17.3283 43.2637 17.2053 42.7757C17.0008 42.2028 16.8889 41.6099 16.7696 41.0188C16.7465 40.907 16.7298 40.7943 16.7002 40.6183C16.5532 40.933 16.5263 41.2129 16.5097 41.4886C16.4625 42.2704 16.6068 43.0366 16.7409 43.8036C16.863 44.5083 16.9999 45.2069 17.295 45.8682C17.3727 46.0433 17.4689 46.2115 17.5549 46.384C17.5753 46.4238 17.6271 46.4706 17.5799 46.5114C17.5225 46.5608 17.4707 46.5053 17.43 46.4732C17.1285 46.234 16.8908 45.9436 16.6938 45.6247C16.3617 45.0882 16.1147 44.517 15.9399 43.9198C15.7133 43.4179 15.6032 42.8858 15.4635 42.3614C15.2526 41.5709 15.1527 40.764 15.0297 39.9596C14.9751 39.5973 14.9002 39.2385 14.8281 38.8796C14.7689 38.5823 14.878 38.4411 15.1944 38.4567C15.4756 38.4714 15.7549 38.5147 16.0342 38.5459C16.4523 38.5971 16.8732 38.5745 17.2931 38.5737C17.4337 38.539 17.5753 38.5052 17.7159 38.4705C17.8204 38.422 17.924 38.3743 18.0276 38.3249C18.5104 37.9956 18.7972 37.5466 18.9664 37.0153C19.1625 36.399 19.5899 35.9986 20.254 35.7957C21.3501 35.462 22.4721 35.2003 23.5543 34.8406C25.4931 34.1949 26.7834 32.9225 27.3264 31.0338C27.3736 30.8709 27.3782 30.6984 27.4069 30.5311C27.418 30.4635 27.3865 30.3803 27.4827 30.3257C27.6381 30.512 27.615 30.7374 27.6418 30.9454C27.7852 32.0297 27.9582 33.1123 27.997 34.207C28.0275 35.1674 27.9536 36.1199 27.7075 37.0577Z" fill="white"/>
<path fill-rule="evenodd" clip-rule="evenodd" d="M79.9427 46.6038C79.9347 46.6619 79.9468 46.7269 79.892 46.7928C79.7429 46.4184 79.6808 46.0266 79.572 45.6522C79.2335 44.4907 79.1005 43.2963 79.0247 42.0846C78.9538 40.9466 78.7765 39.8207 78.5879 38.6974C78.1317 35.9914 77.4475 33.3547 76.4924 30.8013C75.2359 27.4435 73.566 24.3448 71.4398 21.5357C68.6866 17.8971 65.2718 15.2604 61.1686 13.6517C58.9248 12.7729 56.6246 12.1384 54.2655 11.7484C53.8811 11.6842 53.4958 11.6183 53.1106 11.5525C52.5166 11.4831 51.9218 11.4147 51.327 11.3462C50.8563 11.3176 50.3848 11.2864 49.9141 11.2612C49.3354 11.2309 48.7575 11.2049 48.1781 11.1772C47.4608 11.1806 46.7426 11.1798 46.0253 11.1893C45.5788 11.1954 45.1331 11.2162 44.6866 11.23C44.4747 11.3124 44.2498 11.2786 44.0338 11.2924C43.3536 11.3366 42.6757 11.3991 42.0003 11.4779C41.25 11.5655 40.5045 11.6972 39.7573 11.8116C39.5413 11.8446 39.3261 11.887 39.09 11.8836C39.3133 11.6911 39.5365 11.4996 39.759 11.3063C40.1128 10.9995 40.4738 10.7039 40.8156 10.3832C41.3306 9.89871 41.7086 9.29458 42.0406 8.66012C42.2308 8.29782 42.4783 8.14267 42.8692 8.16174C43.4744 8.19208 44.0821 8.17474 44.689 8.17821C45.3749 8.16347 46.0608 8.15047 46.7475 8.19641C47.1303 8.22241 47.5139 8.23281 47.8984 8.24842C47.9935 8.25188 48.0878 8.25622 48.1781 8.28915C48.7189 8.29522 49.2556 8.37669 49.794 8.42437C50.2446 8.46424 50.6943 8.52318 51.144 8.57518C51.2061 8.58298 51.2665 8.60118 51.3278 8.61505C51.9395 8.67486 52.5464 8.7728 53.1493 8.90368C54.1358 9.06403 55.1086 9.30238 56.0749 9.56328C58.4452 10.2029 60.7455 11.0576 62.9369 12.2311C65.3685 13.5347 67.5857 15.1651 69.5329 17.2141C70.6121 18.3504 71.5301 19.6288 72.4578 20.903C73.8795 22.8592 75.115 24.9386 76.1346 27.167C77.5684 30.3029 78.6105 33.5818 79.2649 37.0046C79.5865 38.6835 79.8162 40.3754 79.929 42.0829C79.9895 43.0051 79.979 43.9308 79.9887 44.8547C79.9951 45.4389 80.0258 46.0231 79.9427 46.6038Z" fill="white"/>
<path fill-rule="evenodd" clip-rule="evenodd" d="M29.6415 29.4406C29.5832 30.6627 29.4371 31.8762 29.093 33.061C29.0208 33.3098 28.932 33.5542 28.8127 33.7882C28.7748 33.8628 28.7572 33.9581 28.6416 33.9971C28.5917 33.9122 28.6157 33.8238 28.6148 33.7414C28.5972 32.6398 28.5417 31.5434 28.2235 30.4729C28.0727 29.9667 27.8396 29.4935 27.6028 29.0194C27.5316 28.9327 27.4687 28.8408 27.4345 28.7351C27.3475 28.6346 27.2708 28.5271 27.2181 28.4066C27.1024 28.3026 27.0331 28.1682 26.9572 28.0391C26.6362 27.7357 26.503 27.3951 26.6002 26.9548C26.7232 26.3931 26.787 25.8211 26.8786 25.2542C26.8869 25.2014 26.9082 25.1493 26.923 25.0973C27.0099 24.5808 27.0969 24.0642 27.1838 23.5476C27.2569 23.1125 27.33 22.6774 27.403 22.2423C27.4687 21.8375 27.5076 21.4293 27.6195 21.0262C27.7101 21.0566 27.7296 21.1129 27.7471 21.1718C28.6055 22.3723 29.0486 23.7218 29.3464 25.1199C29.6508 26.5465 29.71 27.9914 29.6415 29.4406Z" fill="white"/>
<path fill-rule="evenodd" clip-rule="evenodd" d="M43.8461 4.83414C43.7749 5.95658 43.318 6.96028 42.7361 7.92324C42.4559 8.44242 42.1053 8.91827 41.6965 9.35511C41.0693 10.0927 40.3238 10.7038 39.4691 11.2004C39.1639 11.3625 38.879 11.5558 38.5654 11.7066C38.0002 11.977 37.4064 12.1261 36.77 12.1244C36.6405 12.1235 36.5101 12.1244 36.3427 12.0576C37.3639 11.2793 38.373 10.5252 39.4192 9.81275C39.9853 9.39498 40.4958 8.92867 40.8927 8.35835C41.1665 7.96224 41.3625 7.53493 41.5374 7.09636C41.6965 6.57718 41.7557 6.03892 41.8815 5.51367C41.9 5.4348 41.9444 5.33772 41.8815 5.28139C41.8093 5.21551 41.7251 5.30392 41.6456 5.32299C41.5707 5.34032 41.5078 5.39666 41.4236 5.3854C40.9824 5.61595 40.506 5.7711 40.0454 5.96005C39.7383 6.0866 39.4256 6.20187 39.1148 6.32149C38.6755 6.53817 38.1926 6.59798 37.7107 6.65085C36.9347 6.73579 36.1956 6.95161 35.4575 7.17437C35.3206 7.21511 35.2262 7.30698 35.1365 7.40839C34.1329 8.5369 33.1829 9.70441 32.196 10.8451C31.0518 12.1694 29.7781 13.376 28.3499 14.436C28.2768 14.4897 28.2084 14.5513 28.0983 14.5686C28.0789 14.4759 28.139 14.4135 28.1834 14.3493C29.6958 12.1339 31.2072 9.91936 32.7223 7.70569C32.8435 7.52887 32.9896 7.36679 33.1163 7.19344C33.2144 7.05822 33.2986 6.91694 33.3309 6.75226C33.3975 6.41509 33.6177 6.22008 33.9664 6.1308C34.9793 5.86991 36.0023 5.64802 37.004 5.34899C37.6811 5.14791 38.3434 4.90782 39.0122 4.68593C39.7808 4.36003 40.5495 4.03413 41.3182 3.70823C41.7446 3.48981 42.1867 3.30433 42.6427 3.14658C42.8074 3.07897 42.9683 3.0027 43.1376 2.94376C43.3883 2.85709 43.4632 2.89349 43.5603 3.14051C43.773 3.68657 43.8822 4.25169 43.8461 4.83414Z" fill="white"/>
<path fill-rule="evenodd" clip-rule="evenodd" d="M10.6467 19.6955C10.57 20.3204 10.311 20.8994 10.1269 21.4966C10.0409 21.7748 9.93727 22.0495 9.842 22.326C9.72176 22.7767 9.61816 23.2318 9.45166 23.6704C9.38691 23.842 9.30274 24.0067 9.14827 24.128C9.05022 24.2693 8.90315 24.3586 8.7533 24.4409C8.16316 24.7642 7.98649 25.13 8.12524 25.7696C8.20849 26.1562 8.17056 26.5254 7.96429 26.8747C7.89862 26.9857 7.82184 27.0932 7.67292 27.0897C7.5129 27.0862 7.46943 26.9545 7.42318 26.8401C7.30201 26.541 7.14753 26.2238 7.16973 25.9213C7.19378 25.6006 7.25113 25.2678 7.33068 24.9445C7.5314 24.1306 7.92452 23.3869 8.25104 22.619C8.38978 22.2914 8.56275 21.9759 8.6423 21.6274C8.6682 21.5156 8.71445 21.3899 8.609 21.2998C8.50448 21.2105 8.37591 21.2617 8.25936 21.2981C7.68217 21.4784 7.19933 21.8233 6.67487 22.0981C6.50467 22.1874 6.3391 22.2862 6.17445 22.385C5.84608 22.5817 5.77671 22.7473 5.85348 23.1096C5.93951 23.5222 6.01628 23.9365 6.10693 24.349C6.14763 24.5354 6.16613 24.8049 6.04126 24.8587C5.89696 24.9211 5.71566 24.7191 5.58802 24.5805C5.095 24.0413 4.72593 23.4407 4.55851 22.7412C4.48174 22.4222 4.57239 22.1354 4.76756 21.8745C4.9137 21.6777 5.09593 21.5104 5.30682 21.3752C6.47045 20.6333 7.672 19.952 8.97622 19.4406C9.01599 19.425 9.05762 19.4129 9.09832 19.3999C9.31014 19.3106 9.52011 19.2179 9.75228 19.1815C9.8235 19.1234 9.91693 19.1347 10.0011 19.1217C10.4562 19.0471 10.7004 19.269 10.6467 19.6955Z" fill="white"/>
<path fill-rule="evenodd" clip-rule="evenodd" d="M80 32.7759V33.1425C79.8847 33.146 79.8887 33.0316 79.8604 32.9605C79.3194 31.5703 78.7855 30.1765 78.2429 28.7871C77.3593 26.5258 76.2851 24.3788 75.0401 22.3376C75.0063 22.2813 74.9773 22.2215 74.9468 22.1634C74.5014 21.4908 74.0717 20.8061 73.6013 20.1543C73.047 19.3863 72.4832 18.6271 71.8638 17.9207C71.834 17.8877 71.816 17.8427 71.7925 17.8037C71.3613 17.3287 70.9379 16.845 70.4965 16.3822C68.8562 14.6643 67.0623 13.1709 65.1194 11.8976C65.0778 11.8699 65.0402 11.8352 65.0002 11.8049C64.3604 11.4322 63.7363 11.0274 63.0855 10.6764C60.6111 9.34072 58.019 8.39856 55.3234 7.79357C53.5498 7.39573 51.7591 7.15044 49.9549 7.03256C48.9364 6.96669 47.9156 6.93028 46.8955 6.95195C45.9445 6.97102 44.9919 7.00656 44.0424 7.0889C43.8103 7.1097 43.8048 7.10103 43.8707 6.86441C43.9569 6.55325 44.0549 6.24555 44.1302 5.93092C44.1819 5.7125 44.3003 5.63276 44.4908 5.64143C45.2035 5.6735 45.9163 5.69516 46.6274 5.7359C47.2405 5.77144 47.8529 5.82604 48.466 5.87632C49.4163 5.95346 50.3603 6.0904 51.3059 6.21781C52.4514 6.37383 53.5953 6.54371 54.7314 6.77687C57.1055 7.26398 59.4154 7.99379 61.6546 8.99055C62.5383 9.38405 63.4125 9.80876 64.2428 10.3271C64.5266 10.5048 64.834 10.6356 65.099 10.8497C65.5937 11.1245 66.0571 11.4582 66.5205 11.791C68.4618 13.1874 70.2165 14.8316 71.8074 16.6925C71.8364 16.7263 71.8584 16.7679 71.8834 16.806C72.3915 17.3564 72.8423 17.9649 73.2932 18.5725C73.9134 19.4115 74.5022 20.2791 75.0573 21.1727C75.0746 21.2005 75.0871 21.2308 75.1028 21.2603C75.5756 21.9736 75.9982 22.7233 76.4067 23.4817C77.6494 25.7908 78.7 28.2012 79.4927 30.7442C79.6777 31.3354 79.7914 31.9482 79.9271 32.5549C79.9443 32.6294 79.9404 32.7161 80 32.7759Z" fill="white"/>
<path fill-rule="evenodd" clip-rule="evenodd" d="M26.1803 31.3415C26.0619 31.5261 25.9583 31.722 25.7964 31.8806C25.543 32.2525 25.2294 32.574 24.8705 32.8575C24.4848 33.2007 24.0528 33.4772 23.5644 33.6739C23.0982 33.9175 22.584 34.0336 22.0743 34.1628C21.0679 34.4168 20.1096 34.7773 19.205 35.2618C18.7518 35.5045 18.4604 35.8573 18.3337 36.3314C18.2846 36.516 18.2162 36.6946 18.1265 36.8662C17.885 37.3282 17.4901 37.5865 16.9508 37.6775C16.1109 37.8187 15.3034 37.6489 14.4931 37.4833C14.0843 37.3992 13.7421 37.2259 13.434 36.9572C12.9882 36.568 12.8929 36.1095 13.0382 35.5825C13.1649 35.1205 13.4636 34.7704 13.8743 34.5C14.0316 34.3968 14.1713 34.4375 14.3082 34.5459C14.6809 34.8406 15.1129 35.0053 15.6013 35.0122C16.2608 35.0217 16.8158 34.786 17.269 34.3422C17.5206 34.0961 17.7565 33.8378 17.9692 33.563C18.3124 33.1192 18.7814 32.8349 19.304 32.6113C19.9237 32.3469 20.536 32.0661 21.1558 31.8026C22.0595 31.4169 22.8568 30.9029 23.4738 30.1627C23.4988 30.122 23.521 30.0787 23.5496 30.0414C23.7522 29.7762 23.7448 29.5153 23.5367 29.2561C23.4978 29.2076 23.4636 29.1556 23.4275 29.1053C23.0002 28.652 22.5442 28.2281 22.0253 27.8641C20.8616 27.0485 19.5741 26.4478 18.2245 25.9573C17.9202 25.8472 17.6224 25.725 17.3643 25.5317C16.9129 25.1928 16.7593 24.6996 16.985 24.2004C17.1266 23.8892 17.3005 23.5902 17.4707 23.2911C17.5761 23.1057 17.7334 23.0155 17.9831 23.0216C18.921 23.0432 19.7766 23.3241 20.5878 23.7297C21.4055 24.1388 22.1918 24.5956 22.8966 25.1685C23.1195 25.3488 23.36 25.5109 23.5663 25.7094C24.0547 26.1133 24.495 26.5562 24.8751 27.052C25.2137 27.4307 25.505 27.839 25.7465 28.2784C26.0795 28.7881 26.3884 29.3125 26.5077 29.9044C26.6113 30.4158 26.4652 30.8969 26.1803 31.3415Z" fill="white"/>
<path fill-rule="evenodd" clip-rule="evenodd" d="M35.9785 0.797987C35.5493 0.921065 35.1099 1.00861 34.6937 1.17156C34.0379 1.34491 33.4043 1.57286 32.7901 1.84675C32.15 2.13278 31.9816 2.91806 32.4423 3.41557C32.6402 3.62966 32.6421 3.67473 32.4635 3.90615C31.9974 4.51028 31.5302 5.1144 31.0641 5.71766C30.67 6.22124 30.2741 6.72309 29.8819 7.22754C28.5685 8.9151 27.255 10.6027 25.9434 12.2911C25.8324 12.4341 25.7047 12.5528 25.5086 12.5641C25.3699 12.5719 25.2607 12.6274 25.1506 12.695C22.0307 14.6044 18.9116 16.513 15.7908 18.4207C15.6104 18.5308 15.4707 18.6721 15.3708 18.8515C14.1868 20.9595 13.001 23.0665 11.818 25.1753C11.7874 25.2299 11.7245 25.2854 11.7745 25.366C11.8004 25.3521 11.8272 25.3417 11.8485 25.3261C12.7096 24.6579 13.6004 24.0269 14.4819 23.3846C15.1007 22.9339 15.7695 22.5803 16.5243 22.3697C17.4798 22.1027 18.4436 22.1417 19.4102 22.2969C20.1789 22.4199 20.9337 22.5907 21.6006 22.9868C22.1759 23.3283 22.7503 23.675 23.2933 24.059C24.283 24.7593 25.047 25.6555 25.6973 26.6393C25.7436 26.7086 25.7695 26.797 25.8638 26.8456C25.8814 26.7884 25.9017 26.7441 25.9091 26.6973C26.1015 25.4891 26.293 24.2791 26.4835 23.0709C26.5862 22.4243 26.6981 21.7785 26.7842 21.1293C26.8249 20.819 26.897 20.5131 26.9294 20.2036C26.9719 19.8015 27.0644 19.4071 27.1088 19.0049C27.1514 18.6114 27.267 18.2249 27.3179 17.8314C27.3697 17.4231 27.4427 17.0175 27.5001 16.611C27.575 16.084 27.5177 15.5977 27.2124 15.1548C27.0681 14.9451 27.0654 14.7587 27.1939 14.5585C27.3586 14.3011 27.5334 14.0506 27.6962 13.7932C28.2947 12.8475 28.8913 11.9002 29.487 10.952C30.0697 10.0245 30.6487 9.09452 31.2296 8.16623C31.2675 8.11769 31.3082 8.07089 31.3425 8.01888C32.039 6.92331 32.7299 5.8234 33.432 4.73043C33.8529 4.0743 34.2552 3.40517 34.8084 2.83225C34.9813 2.69877 35.1395 2.54275 35.3301 2.43614C35.6057 2.281 35.7491 2.05217 35.8573 1.78695C35.9748 1.49919 36.0331 1.19929 36.0867 0.897663C36.1015 0.803187 36.0895 0.765917 35.9785 0.797987ZM24.9129 19.2121C24.8963 19.2615 24.8852 19.3178 24.7955 19.3412C24.8066 19.2346 24.8167 19.1384 24.8251 19.0405C24.8917 18.2119 24.8103 17.385 24.7871 16.5572C24.7825 16.4073 24.6919 16.3509 24.542 16.3752C24.3635 16.4047 24.1933 16.455 24.0314 16.539C22.1176 17.5384 20.2381 18.588 18.4501 19.7781C18.3687 19.8318 18.2891 19.8986 18.1846 19.9107C18.0357 19.9298 17.76 19.7893 17.7138 19.6663C17.6481 19.4912 17.7619 19.3733 17.8942 19.2884C19.6535 18.1729 21.423 17.0703 23.395 16.2989C23.7215 16.1707 24.0647 16.0788 24.4042 15.9843C24.9037 15.8448 25.1516 15.9973 25.2219 16.4775C25.356 17.4136 25.2098 18.3202 24.9129 19.2121Z" fill="white"/>
<path fill-rule="evenodd" clip-rule="evenodd" d="M18.4633 26.8144C18.4244 26.9002 18.3227 26.8837 18.2348 26.8681C17.9175 26.8144 17.5938 26.791 17.2821 26.7061C16.703 26.6532 16.1453 26.5041 15.5783 26.3914C14.9252 26.2631 14.4378 26.4616 14.1057 26.9982C13.855 27.4029 13.6173 27.8155 13.3694 28.222C13.3398 28.2714 13.3176 28.3563 13.2482 28.3494C13.1715 28.3425 13.1502 28.2549 13.1252 28.1943C12.9985 27.8935 12.9809 27.5711 12.9467 27.2556C12.9097 26.9141 12.7913 26.6393 12.4759 26.4287C11.993 26.1054 11.9995 25.7518 12.4601 25.4016C12.8681 25.0922 13.3352 24.8694 13.781 24.6155C14.6116 24.1431 15.4488 23.682 16.2849 23.22C16.5088 23.096 16.7354 22.9756 17.0268 22.9782C16.9602 23.2286 16.8196 23.4341 16.716 23.6534C16.6309 23.8336 16.5347 24.0087 16.4524 24.1899C16.2415 24.6545 16.3404 25.0679 16.7151 25.4207C16.9139 25.6079 17.1304 25.7786 17.3394 25.9563C17.6743 26.1773 18.011 26.3975 18.3458 26.6194C18.4189 26.6679 18.5012 26.7286 18.4633 26.8144Z" fill="white"/>
<path fill-rule="evenodd" clip-rule="evenodd" d="M28.4131 8.24766C28.2133 8.48601 28.0099 8.72264 27.8082 8.96013C27.7684 9.00693 27.737 9.06414 27.663 9.07107C27.6667 9.13954 27.6158 9.18375 27.576 9.22969C26.9692 9.93175 26.3606 10.6312 25.7538 11.3333C25.6151 11.4936 25.4449 11.6202 25.2738 11.745C25.1535 11.8325 25.012 11.8802 24.8677 11.8065C24.7354 11.7389 24.6873 11.6132 24.6975 11.4763C24.7354 10.9805 24.4589 10.6728 24.0158 10.4622C23.212 10.08 22.3443 9.89882 21.4647 9.7558C21.337 9.73413 21.2094 9.71073 21.0808 9.68646C21.0614 9.683 21.0447 9.66913 21.0096 9.65179C23.1713 8.89339 25.357 8.28493 27.6565 8.09944C27.9405 8.07084 28.2244 8.03097 28.513 8.05091C28.5269 8.14365 28.4594 8.19219 28.4131 8.24766Z" fill="white"/>
<path fill-rule="evenodd" clip-rule="evenodd" d="M12.8607 32.5335C12.7691 32.5327 12.6702 32.5509 12.5888 32.4876C12.463 32.472 12.3473 32.4269 12.241 32.3628C11.6832 32.1591 11.2198 31.8254 10.8156 31.4215C10.2883 30.8936 9.79254 30.3424 9.60107 29.6152C9.51967 29.304 9.55389 29.0223 9.83601 28.803C9.92851 28.7311 9.97846 28.7198 10.0321 28.8516C10.1033 29.0284 10.0932 29.2113 10.1237 29.3916C10.2356 30.0356 10.6167 30.527 11.1338 30.9378C11.3382 31.1008 11.5546 31.249 11.7692 31.3998C11.8367 31.4466 11.9181 31.503 12.0069 31.4492C12.0837 31.4024 12.0754 31.3175 12.0689 31.2438C12.0051 30.5478 11.92 29.8518 11.8765 29.1549C11.834 28.478 11.6314 27.8349 11.4853 27.1779C11.415 26.8633 11.4566 26.5417 11.5343 26.2279C11.5574 26.1343 11.6037 26.0216 11.7063 26.0199C11.8016 26.019 11.8848 26.1083 11.9154 26.2063C12.0763 26.7185 12.2909 27.2195 12.3529 27.7569C12.4371 28.1582 12.4315 28.5655 12.4167 28.9695C12.3899 29.6767 12.4324 30.3745 12.648 31.0566C12.7941 31.4666 12.981 31.8653 13.079 32.2891C13.1363 32.5327 13.1271 32.5379 12.8607 32.5335Z" fill="white"/>
<path fill-rule="evenodd" clip-rule="evenodd" d="M22.985 29.8141C22.9202 29.919 22.8453 30.0152 22.7435 30.0923C22.2829 30.5855 21.6937 30.9235 21.1072 31.259C20.0999 31.8353 19.0149 32.2488 17.8828 32.5547C17.7505 32.5903 17.6164 32.6224 17.4767 32.6154C17.3648 32.6102 17.2491 32.5929 17.2066 32.4819C17.1659 32.3736 17.2288 32.2843 17.3167 32.2141C17.4832 32.0824 17.6598 31.9636 17.8578 31.8761C19.1491 31.3058 20.1471 30.4121 21.012 29.3712C21.1193 29.2429 21.2192 29.1068 21.3413 28.9924C21.7594 28.5989 22.454 28.6743 22.7398 29.1371C23.0802 29.288 23.1653 29.5211 22.985 29.8141Z" fill="white"/>
<path fill-rule="evenodd" clip-rule="evenodd" d="M17.2475 33.7714C17.154 33.7896 17.117 33.7289 17.0717 33.6812C16.0496 33.1075 15.3466 32.2719 14.8462 31.2101C14.6991 31.5742 14.6686 31.8801 14.6594 32.1913C14.6399 32.8197 14.7722 33.436 14.8231 34.0574C14.8268 34.0982 14.8314 34.138 14.8351 34.1788C14.8388 34.2212 14.8407 34.2637 14.7879 34.2802C14.7352 34.2975 14.7102 34.2585 14.6853 34.2247C14.5447 34.0366 14.4882 33.8199 14.4383 33.5998C14.1876 32.4912 14.1367 31.3818 14.3671 30.2645C14.4226 29.9976 14.5595 29.7687 14.6936 29.5373C14.7454 29.448 14.8444 29.3648 14.9295 29.3839C15.0321 29.4073 15.0636 29.5321 15.0617 29.6361C15.0506 30.0253 15.0922 30.411 15.2106 30.7837C15.465 31.5811 15.9358 32.2416 16.6453 32.7512C16.8201 32.8769 17.0144 32.9956 17.0773 33.2167C17.2447 33.3727 17.2327 33.5729 17.2475 33.7714Z" fill="white"/>
<path fill-rule="evenodd" clip-rule="evenodd" d="M11.7366 25.412L11.734 25.3992L11.7437 25.4009L11.7366 25.412Z" fill="white"/>
<path d="M39.4411 26.2234C39.6558 26.2234 39.8127 26.2733 39.9117 26.3729C39.9861 26.4477 40.0149 26.5349 39.9984 26.6346C39.9902 26.7176 39.9695 26.7841 39.9365 26.8339C39.9117 26.8754 39.8828 26.9087 39.8498 26.9336C39.8085 26.9585 39.759 26.9876 39.7012 27.0208C39.6517 27.0457 39.5939 27.0623 39.5278 27.0706C39.3131 27.0872 39.1398 27.1039 39.0077 27.1205C38.8756 27.1288 38.7641 27.1371 38.6733 27.1454C38.5824 27.1454 38.4958 27.1495 38.4132 27.1578C38.3389 27.1578 38.2522 27.162 38.1531 27.1703C38.054 27.1703 37.9343 27.1786 37.794 27.1952C37.6536 27.2035 37.472 27.216 37.249 27.2326C37.2077 27.4984 37.1541 27.8472 37.088 28.2791C37.0302 28.7111 36.9642 29.2468 36.8899 29.8863C36.6587 31.7219 36.5101 33.2585 36.444 34.4961C36.4358 34.6622 36.4399 34.8616 36.4564 35.0941C36.4729 35.3184 36.5018 35.5759 36.5431 35.8666C36.5513 35.9247 36.5348 35.9746 36.4936 36.0161C36.4605 36.0493 36.4192 36.0659 36.3697 36.0659H36.3449C36.2046 36.041 36.0601 35.987 35.9115 35.904C35.895 35.8957 35.8826 35.8874 35.8743 35.8791C35.8743 35.8791 35.8661 35.8749 35.8496 35.8666C35.6349 35.6174 35.5275 35.2021 35.5275 34.6207C35.5275 33.7237 35.6019 32.4529 35.7505 30.8083C35.8991 29.1886 35.9734 28.1587 35.9734 27.7185C35.9734 27.652 35.9693 27.5897 35.961 27.5316C35.961 27.4652 35.961 27.4029 35.961 27.3447C35.7463 27.3447 35.5234 27.353 35.2922 27.3696C35.0611 27.378 34.8299 27.3987 34.5987 27.4319C34.3675 27.4652 34.1487 27.515 33.9423 27.5814C33.7359 27.6396 33.5584 27.7185 33.4098 27.8182C33.3272 27.8763 33.2859 27.922 33.2859 27.9552C33.2859 27.9718 33.2942 27.9967 33.3107 28.03C33.3272 28.0632 33.3891 28.1006 33.4965 28.1421C33.5873 28.1836 33.707 28.2168 33.8556 28.2418C34.0125 28.2667 34.1941 28.2708 34.4005 28.2542C34.4996 28.2459 34.6276 28.2293 34.7845 28.2044C34.9413 28.1795 35.09 28.1587 35.2303 28.1421C35.3707 28.1255 35.4904 28.1213 35.5895 28.1296C35.6968 28.1379 35.7505 28.1712 35.7505 28.2293C35.7505 28.2625 35.7422 28.2958 35.7257 28.329C35.6266 28.4951 35.5152 28.6238 35.3913 28.7152C35.2757 28.8066 35.1478 28.8772 35.0074 28.927C34.9166 28.9602 34.8216 28.9893 34.7225 29.0142C34.6235 29.0391 34.4542 29.0557 34.2148 29.0641C33.9175 29.0724 33.6616 29.0516 33.4469 29.0018C33.2405 28.9436 33.0671 28.8647 32.9268 28.765C32.7864 28.6488 32.6749 28.5076 32.5924 28.3414C32.5098 28.1753 32.4768 27.9718 32.4933 27.731C32.4933 27.6728 32.5057 27.5981 32.5304 27.5067C32.5552 27.407 32.5965 27.3074 32.6543 27.2077C32.7203 27.108 32.8112 27.0166 32.9268 26.9336C33.0423 26.8422 33.191 26.7716 33.3726 26.7218C33.5625 26.6719 33.835 26.6221 34.19 26.5723C34.545 26.5224 34.9579 26.4768 35.4285 26.4352C35.5853 26.4269 35.7009 26.4186 35.7752 26.4103C35.8578 26.402 35.928 26.3979 35.9858 26.3979C36.0436 26.3895 36.1014 26.3854 36.1592 26.3854C36.217 26.3854 36.2995 26.3854 36.4069 26.3854C36.5225 26.3771 36.6793 26.3688 36.8775 26.3605C37.0756 26.3522 37.3398 26.3397 37.6701 26.3231C38.0747 26.3065 38.3637 26.294 38.537 26.2857C38.7187 26.2691 38.8508 26.2567 38.9333 26.2483C39.0159 26.24 39.082 26.2359 39.1315 26.2359C39.181 26.2276 39.2842 26.2234 39.4411 26.2234Z" fill="white"/>
<path d="M41.8486 31.2568C41.9807 31.2568 42.0468 31.3773 42.0468 31.6181C42.0468 31.6347 42.0426 31.6597 42.0344 31.6929C42.0344 31.7261 42.0179 31.805 41.9848 31.9296C41.9601 32.0542 41.9146 32.2369 41.8486 32.4778C41.7908 32.7104 41.7041 33.0343 41.5885 33.4496C41.3904 34.1722 41.2624 34.6041 41.2046 34.7453C41.0229 35.2021 40.7753 35.4305 40.4615 35.4305C39.867 35.4305 39.5203 34.8782 39.4212 33.7735V33.761L39.4088 33.5742V32.6896C39.3345 32.9803 39.2437 33.3499 39.1363 33.7984C39.029 34.2469 38.8969 34.8159 38.74 35.5053L38.7276 35.58L38.6657 35.6174C38.5749 35.6756 38.48 35.7046 38.3809 35.7046C38.1414 35.7046 37.9639 35.5177 37.8483 35.144C37.7327 34.7619 37.6749 34.1639 37.6749 33.3499C37.6749 33.134 37.6997 32.7643 37.7493 32.2411C37.7988 31.7095 37.8772 31.0076 37.9846 30.1355C38.0836 29.28 38.158 28.5782 38.2075 28.03C38.2653 27.4735 38.2942 27.0748 38.2942 26.8339V26.4228L38.3066 26.3854C38.3396 26.3189 38.3974 26.2525 38.4799 26.1861C38.5625 26.1196 38.6864 26.0864 38.8515 26.0864H38.8886C39.1776 26.103 39.3221 26.24 39.3221 26.4975C39.3221 26.6553 39.2932 26.8256 39.2354 27.0083C39.1611 27.2243 39.1116 27.4236 39.0868 27.6064C38.8804 28.8938 38.7235 30.0151 38.6162 30.9703C38.5171 31.9254 38.4676 32.7228 38.4676 33.3624C38.4758 33.379 38.4799 33.3997 38.4799 33.4247C38.4799 33.4496 38.4799 33.4828 38.4799 33.5243C38.4882 33.5576 38.4965 33.5991 38.5047 33.6489V33.6738C38.546 33.5077 38.5914 33.325 38.641 33.1256C38.6987 32.9263 38.7607 32.7062 38.8267 32.4653C38.9671 31.9005 39.0785 31.4562 39.1611 31.1322C39.2437 30.8 39.2932 30.584 39.3097 30.4844C39.351 30.2767 39.4129 30.1438 39.4955 30.0857C39.5863 30.0192 39.673 29.986 39.7556 29.986C39.8134 29.986 39.8877 30.0068 39.9785 30.0483C40.0776 30.0898 40.2303 30.202 40.4367 30.3847L40.511 30.447L40.4987 30.5467C40.2592 31.8258 40.1395 32.8723 40.1395 33.6863C40.1395 33.9604 40.1601 34.1805 40.2014 34.3466C40.251 34.5044 40.3129 34.5833 40.3872 34.5833C40.3955 34.5833 40.4244 34.5626 40.4739 34.521C40.5234 34.4712 40.5895 34.3591 40.672 34.1847C40.7381 34.0434 40.8165 33.869 40.9074 33.6614C40.9982 33.4454 41.0807 33.1962 41.1551 32.9138C41.1963 32.7643 41.25 32.5899 41.3161 32.3906C41.3821 32.1829 41.4482 31.9504 41.5142 31.6929C41.5307 31.6264 41.5596 31.5392 41.6009 31.4312C41.6504 31.315 41.733 31.2568 41.8486 31.2568Z" fill="white"/>
<path d="M45.3646 31.1447C45.5628 31.1447 45.6618 31.2444 45.6618 31.4437C45.6618 31.6597 45.6329 31.8922 45.5751 32.1414C45.5173 32.3823 45.4265 32.6398 45.3027 32.9138C45.0632 33.4537 44.7412 33.7237 44.3367 33.7237C44.3119 33.7237 44.2789 33.7195 44.2376 33.7112C44.1963 33.6946 44.1179 33.6655 44.0023 33.624C43.9858 33.7071 43.9651 33.7943 43.9404 33.8856C43.9238 33.9687 43.9032 34.0601 43.8784 34.1597V34.1847C43.8041 34.4006 43.7381 34.5792 43.6803 34.7204C43.6225 34.8616 43.5688 34.9737 43.5193 35.0568C43.3046 35.4056 43.0363 35.58 42.7143 35.58C42.318 35.58 42.0249 35.3807 41.835 34.982C41.6616 34.6249 41.5749 34.0974 41.5749 33.3997C41.5749 32.5691 41.6409 31.9919 41.773 31.668V31.5932C41.7648 31.5434 41.7606 31.5018 41.7606 31.4686C41.7606 31.4271 41.7606 31.3897 41.7606 31.3565V31.344C41.7772 31.2194 41.8102 31.1322 41.8597 31.0824C41.868 31.0492 41.8804 30.9952 41.8969 30.9204C41.9134 30.8457 41.9423 30.7252 41.9836 30.5591C42.0083 30.4345 42.0455 30.3349 42.095 30.2601C42.1528 30.1854 42.2106 30.1272 42.2684 30.0857C42.3262 30.0441 42.384 30.0192 42.4418 30.0109C42.4996 29.9943 42.5533 29.986 42.6028 29.986C42.8588 29.986 43.1312 30.094 43.4202 30.3099C43.7092 30.5176 43.8991 30.7502 43.9899 31.0076C43.9982 31.0409 44.0064 31.0907 44.0147 31.1571C44.0312 31.2236 44.0436 31.3274 44.0518 31.4686C44.0601 31.6015 44.0683 31.7842 44.0766 32.0168C44.0848 32.2494 44.089 32.5442 44.089 32.9014C44.1303 32.9346 44.1798 32.9512 44.2376 32.9512C44.3119 32.9512 44.3945 32.9305 44.4853 32.8889C44.5844 32.8474 44.6793 32.7311 44.7701 32.5401C44.7866 32.4902 44.8155 32.3947 44.8568 32.2535C44.9064 32.104 44.9683 31.859 45.0426 31.5185C45.0921 31.2693 45.1995 31.1447 45.3646 31.1447ZM43.0115 34.384C43.1353 34.1099 43.2138 33.8981 43.2468 33.7486C43.2881 33.5908 43.3087 33.4786 43.3087 33.4122C43.3087 33.2959 43.3005 33.1589 43.284 33.0011C43.2675 32.8432 43.2427 32.6688 43.2097 32.4778C43.1601 32.212 43.1271 32.0293 43.1106 31.9296C43.1023 31.8299 43.0982 31.7593 43.0982 31.7178C43.0982 31.6763 43.0982 31.6306 43.0982 31.5807C43.0982 31.5309 43.1065 31.4728 43.123 31.4063C43.1312 31.3399 43.1354 31.2859 43.1354 31.2444C43.1354 31.1945 43.1354 31.1571 43.1354 31.1322C43.1354 31.0159 43.1147 30.9412 43.0734 30.908C43.0321 30.8664 42.9785 30.8457 42.9124 30.8457C42.9042 30.854 42.8877 30.8747 42.8629 30.908C42.8464 30.9412 42.8216 30.9993 42.7886 31.0824C42.7638 31.1571 42.7308 31.2651 42.6895 31.4063C42.6565 31.5475 42.6193 31.7303 42.578 31.9545C42.512 32.3034 42.4624 32.6107 42.4294 32.8765C42.3964 33.134 42.3799 33.3582 42.3799 33.5492C42.3799 33.6655 42.384 33.7943 42.3923 33.9355C42.4005 34.0767 42.417 34.2137 42.4418 34.3466C42.4748 34.4712 42.5161 34.5792 42.5657 34.6705C42.6152 34.7536 42.6812 34.7993 42.7638 34.8076C42.7803 34.791 42.8051 34.7578 42.8381 34.7079C42.8794 34.6498 42.9372 34.5418 43.0115 34.384Z" fill="white"/>
<path d="M51.0083 31.0575C51.0743 31.0575 51.1362 31.0824 51.194 31.1322C51.2518 31.1821 51.2807 31.2693 51.2807 31.3939C51.2807 31.4188 51.2766 31.4562 51.2683 31.506C51.2683 31.5558 51.2601 31.6264 51.2436 31.7178C51.2271 31.8092 51.2023 31.9254 51.1693 32.0666C51.1362 32.2078 51.0908 32.3823 51.033 32.5899C50.9422 32.8972 50.8514 33.1921 50.7606 33.4745C50.6698 33.7569 50.5748 34.0268 50.4757 34.2843C50.195 35.0485 49.8565 35.4305 49.4602 35.4305C48.9978 35.4305 48.7171 34.9986 48.618 34.1348C48.6098 34.1348 48.6056 34.1307 48.6056 34.1224V33.8233C48.5478 34.0061 48.4983 34.1597 48.457 34.2843C48.424 34.4006 48.3951 34.4878 48.3703 34.546C48.1474 35.1357 47.8832 35.4305 47.5777 35.4305C47.5034 35.4305 47.4291 35.4181 47.3548 35.3932C47.2805 35.3682 47.2103 35.3184 47.1442 35.2437C47.0864 35.1689 47.0369 35.0692 46.9956 34.9446C46.9543 34.8117 46.9337 34.6456 46.9337 34.4463C46.9337 34.3383 46.9585 33.9853 47.008 33.3873C47.0245 33.2212 47.0328 33.0634 47.0328 32.9138C47.041 32.7643 47.0493 32.6231 47.0575 32.4902C47.0328 32.565 47.008 32.673 46.9832 32.8142C46.8016 33.7278 46.6736 34.3092 46.5993 34.5584C46.3764 35.2644 46.0915 35.6174 45.7448 35.6174C45.6127 35.6174 45.5094 35.5717 45.4351 35.4804C45.3608 35.3807 45.303 35.2603 45.2617 35.1191C45.2205 34.9696 45.1916 34.8076 45.1751 34.6332C45.1668 34.4587 45.1627 34.2885 45.1627 34.1224C45.1627 34.031 45.1627 33.9147 45.1627 33.7735C45.1709 33.624 45.1792 33.4454 45.1874 33.2378C45.1957 33.0634 45.1998 32.918 45.1998 32.8017C45.1998 32.6771 45.1998 32.5733 45.1998 32.4902L45.1008 32.2161C45.0925 32.2078 45.0884 32.1912 45.0884 32.1663C45.0553 31.6763 45.1131 31.3482 45.2617 31.1821C45.3443 31.099 45.4434 31.0575 45.559 31.0575C45.6085 31.0575 45.6622 31.0658 45.72 31.0824C45.786 31.099 45.8438 31.1322 45.8934 31.1821C45.9429 31.2319 45.9842 31.3025 46.0172 31.3939C46.0585 31.4852 46.0791 31.6057 46.0791 31.7552C46.0791 32.104 46.0461 32.4321 45.9801 32.7394C45.9223 32.9969 45.8934 33.3167 45.8934 33.6988C45.8934 33.7901 45.8934 33.8815 45.8934 33.9729C45.8934 34.0559 45.8975 34.139 45.9058 34.222C45.9223 34.1639 45.9388 34.1099 45.9553 34.0601C45.9718 34.0019 45.9883 33.9438 46.0048 33.8856C46.1039 33.3374 46.1947 32.8848 46.2773 32.5276C46.3599 32.1622 46.4424 31.8756 46.525 31.668C46.5415 31.6264 46.5663 31.5683 46.5993 31.4935C46.6323 31.4105 46.6736 31.3316 46.7231 31.2568C46.7809 31.1738 46.847 31.1032 46.9213 31.045C47.0039 30.9869 47.0988 30.9578 47.2062 30.9578C47.2722 30.9578 47.3465 30.9786 47.4291 31.0201C47.5199 31.0616 47.5983 31.153 47.6644 31.2942C47.747 31.4603 47.7882 31.7095 47.7882 32.0417V32.0542C47.747 32.4363 47.7139 32.781 47.6892 33.0883C47.6644 33.3873 47.652 33.6489 47.652 33.8732C47.652 33.9645 47.652 34.0393 47.652 34.0974C47.6603 34.1473 47.6644 34.193 47.6644 34.2345C47.7139 34.168 47.7759 34.031 47.8502 33.8233C47.9327 33.6157 48.0318 33.2918 48.1474 32.8516C48.2382 32.511 48.3084 32.2369 48.3579 32.0293C48.4075 31.8133 48.4446 31.643 48.4694 31.5185C48.4942 31.3939 48.5066 31.3108 48.5066 31.2693C48.5066 31.2194 48.5066 31.1862 48.5066 31.1696V31.1073C48.5231 31.0492 48.5602 30.9869 48.618 30.9204C48.6758 30.8457 48.7914 30.8083 48.9648 30.8083C49.1134 30.8083 49.3157 30.8914 49.5716 31.0575C49.646 31.1073 49.6707 31.1696 49.6459 31.2444C49.4313 32.2826 49.3239 33.1381 49.3239 33.8109C49.3239 34.0019 49.3281 34.1556 49.3363 34.2719C49.3528 34.3798 49.3694 34.4629 49.3859 34.521C49.4106 34.5875 49.4354 34.6332 49.4602 34.6581C49.4684 34.6581 49.4849 34.6498 49.5097 34.6332C49.5427 34.6166 49.584 34.575 49.6336 34.5086C49.6914 34.4338 49.7574 34.3217 49.8317 34.1722C49.906 34.0144 49.9886 33.7984 50.0794 33.5243V33.5119C50.0877 33.5036 50.1001 33.4745 50.1166 33.4247C50.1331 33.3665 50.1578 33.271 50.1909 33.1381C50.2322 33.0052 50.2817 32.8225 50.3395 32.5899C50.4055 32.3573 50.4881 32.0583 50.5872 31.6929C50.6037 31.6513 50.6161 31.6057 50.6243 31.5558C50.6409 31.506 50.6574 31.4562 50.6739 31.4063L50.6987 31.2942V31.2817C50.7564 31.1322 50.8596 31.0575 51.0083 31.0575Z" fill="white"/>
<path d="M51.8575 31.1073C51.8575 31.2734 51.8823 31.4811 51.9318 31.7302C51.9896 31.9794 52.0722 32.2784 52.1795 32.6273C52.2951 32.9927 52.3777 33.3042 52.4272 33.5617C52.4767 33.8109 52.5015 34.0144 52.5015 34.1722C52.5015 34.6041 52.4107 34.9529 52.229 35.2187C52.0226 35.5261 51.7708 35.6797 51.4736 35.6797C51.1598 35.6797 50.8791 35.5427 50.6314 35.2686C50.458 35.0858 50.3713 34.9031 50.3713 34.7204C50.3713 34.4629 50.4539 34.3134 50.619 34.2719C50.6273 34.2719 50.6355 34.2719 50.6438 34.2719C50.6438 34.2636 50.6479 34.2594 50.6562 34.2594C50.6975 34.2594 50.7511 34.2802 50.8172 34.3217C50.8832 34.3549 50.9204 34.4546 50.9286 34.6207C51.0442 34.8616 51.1516 34.982 51.2506 34.982C51.2919 34.982 51.3373 34.9737 51.3869 34.9571C51.4447 34.9322 51.4983 34.874 51.5479 34.7827C51.6387 34.6166 51.6841 34.3965 51.6841 34.1224C51.6841 33.7984 51.6015 33.3499 51.4364 32.7768V32.7643C51.4199 32.7228 51.4034 32.6771 51.3869 32.6273C51.3786 32.5691 51.3662 32.5152 51.3497 32.4653C51.3167 32.565 51.2878 32.6688 51.263 32.7768C51.2383 32.8765 51.2094 32.9761 51.1763 33.0758V33.0883C51.1598 33.1215 51.1392 33.1713 51.1144 33.2378C51.0896 33.3042 51.0566 33.3707 51.0153 33.4371C50.974 33.4953 50.9245 33.5492 50.8667 33.5991C50.8089 33.6406 50.7387 33.6614 50.6562 33.6614C50.5901 33.6614 50.5282 33.6448 50.4704 33.6115C50.3796 33.57 50.3507 33.5036 50.3837 33.4122C50.4415 33.1796 50.4993 32.9471 50.5571 32.7145C50.6149 32.4819 50.6727 32.2535 50.7305 32.0293C50.7965 31.805 50.8419 31.5683 50.8667 31.3191C50.8915 31.0616 50.9039 30.7917 50.9039 30.5093C50.9039 30.3432 50.9493 30.2144 51.0401 30.1231C51.1309 30.0234 51.2589 29.9736 51.424 29.9736C51.5479 29.9736 51.6469 29.9902 51.7213 30.0234C51.8038 30.0566 51.8616 30.0981 51.8946 30.148C51.9359 30.1895 51.9607 30.2352 51.969 30.285C51.9855 30.3266 51.9937 30.3639 51.9937 30.3972C51.9937 30.4138 51.9896 30.4428 51.9813 30.4844C51.9731 30.5259 51.9524 30.609 51.9194 30.7335C51.8781 30.8997 51.8575 31.0243 51.8575 31.1073Z" fill="white"/>
<path d="M57.1016 31.1447C57.2997 31.1447 57.3988 31.2444 57.3988 31.4437C57.3988 31.6597 57.3699 31.8922 57.3121 32.1414C57.2543 32.3823 57.1635 32.6398 57.0396 32.9138C56.8002 33.4537 56.4782 33.7237 56.0736 33.7237C56.0489 33.7237 56.0158 33.7195 55.9745 33.7112C55.9333 33.6946 55.8548 33.6655 55.7392 33.624C55.7227 33.7071 55.7021 33.7943 55.6773 33.8856C55.6608 33.9687 55.6402 34.0601 55.6154 34.1597V34.1847C55.5411 34.4006 55.475 34.5792 55.4172 34.7204C55.3594 34.8616 55.3058 34.9737 55.2562 35.0568C55.0416 35.4056 54.7732 35.58 54.4512 35.58C54.0549 35.58 53.7618 35.3807 53.5719 34.982C53.3985 34.6249 53.3118 34.0974 53.3118 33.3997C53.3118 32.5691 53.3779 31.9919 53.51 31.668V31.5932C53.5017 31.5434 53.4976 31.5018 53.4976 31.4686C53.4976 31.4271 53.4976 31.3897 53.4976 31.3565V31.344C53.5141 31.2194 53.5471 31.1322 53.5967 31.0824C53.6049 31.0492 53.6173 30.9952 53.6338 30.9204C53.6503 30.8457 53.6792 30.7252 53.7205 30.5591C53.7453 30.4345 53.7825 30.3349 53.832 30.2601C53.8898 30.1854 53.9476 30.1272 54.0054 30.0857C54.0632 30.0441 54.121 30.0192 54.1788 30.0109C54.2366 29.9943 54.2902 29.986 54.3398 29.986C54.5957 29.986 54.8682 30.094 55.1572 30.3099C55.4461 30.5176 55.636 30.7502 55.7268 31.0076C55.7351 31.0409 55.7434 31.0907 55.7516 31.1571C55.7681 31.2236 55.7805 31.3274 55.7888 31.4686C55.797 31.6015 55.8053 31.7842 55.8135 32.0168C55.8218 32.2494 55.8259 32.5442 55.8259 32.9014C55.8672 32.9346 55.9167 32.9512 55.9745 32.9512C56.0489 32.9512 56.1314 32.9305 56.2222 32.8889C56.3213 32.8474 56.4163 32.7311 56.5071 32.5401C56.5236 32.4902 56.5525 32.3947 56.5938 32.2535C56.6433 32.104 56.7052 31.859 56.7795 31.5185C56.8291 31.2693 56.9364 31.1447 57.1016 31.1447ZM54.7485 34.384C54.8723 34.1099 54.9507 33.8981 54.9838 33.7486C55.025 33.5908 55.0457 33.4786 55.0457 33.4122C55.0457 33.2959 55.0374 33.1589 55.0209 33.0011C55.0044 32.8432 54.9796 32.6688 54.9466 32.4778C54.8971 32.212 54.864 32.0293 54.8475 31.9296C54.8393 31.8299 54.8352 31.7593 54.8352 31.7178C54.8352 31.6763 54.8352 31.6306 54.8352 31.5807C54.8352 31.5309 54.8434 31.4728 54.8599 31.4063C54.8682 31.3399 54.8723 31.2859 54.8723 31.2444C54.8723 31.1945 54.8723 31.1571 54.8723 31.1322C54.8723 31.0159 54.8517 30.9412 54.8104 30.908C54.7691 30.8664 54.7154 30.8457 54.6494 30.8457C54.6411 30.854 54.6246 30.8747 54.5998 30.908C54.5833 30.9412 54.5586 30.9993 54.5255 31.0824C54.5008 31.1571 54.4677 31.2651 54.4265 31.4063C54.3934 31.5475 54.3563 31.7303 54.315 31.9545C54.2489 32.3034 54.1994 32.6107 54.1664 32.8765C54.1333 33.134 54.1168 33.3582 54.1168 33.5492C54.1168 33.6655 54.121 33.7943 54.1292 33.9355C54.1375 34.0767 54.154 34.2137 54.1788 34.3466C54.2118 34.4712 54.2531 34.5792 54.3026 34.6705C54.3521 34.7536 54.4182 34.7993 54.5008 34.8076C54.5173 34.791 54.542 34.7578 54.5751 34.7079C54.6164 34.6498 54.6741 34.5418 54.7485 34.384Z" fill="white"/>
<path d="M58.6139 26.809C58.5396 27.0997 58.4447 27.4153 58.3291 27.7559C58.2135 28.0964 58.0855 28.437 57.9452 28.7775C57.8131 29.1097 57.681 29.4254 57.5489 29.7244H56.7438C56.8016 29.4918 56.8594 29.2426 56.9172 28.9768C56.9833 28.7111 57.0411 28.4453 57.0906 28.1795C57.1484 27.9054 57.198 27.6396 57.2392 27.3821C57.2888 27.1246 57.3301 26.8879 57.3631 26.6719H58.5272L58.6139 26.809Z" fill="white"/>
<path d="M65.7451 34.982C65.8194 34.9986 65.9061 35.0277 66.0052 35.0692C66.1043 35.1025 66.1538 35.1772 66.1538 35.2935C66.1538 35.4513 66.1167 35.5883 66.0424 35.7046C66.0093 35.7462 65.9598 35.7835 65.8937 35.8168C65.836 35.85 65.7616 35.8666 65.6708 35.8666C65.646 35.8583 65.6171 35.85 65.5841 35.8417C65.5511 35.8417 65.4892 35.8375 65.3984 35.8292C65.2828 35.8126 65.097 35.8002 64.841 35.7918C64.5933 35.7835 64.2713 35.7794 63.875 35.7794C63.2641 35.7794 62.6613 35.8541 62.0669 36.0036C61.4641 36.1615 61.0554 36.2404 60.8408 36.2404C60.5435 36.2404 60.3247 36.1739 60.1844 36.041C60.0193 35.8915 59.9367 35.688 59.9367 35.4305C59.9367 35.3392 59.9738 35.252 60.0482 35.1689C60.1225 35.0775 60.2546 34.9737 60.4445 34.8574C60.6344 34.7495 60.7747 34.6622 60.8655 34.5958C60.9564 34.5293 61.0183 34.4754 61.0513 34.4338C61.4807 33.9189 61.8893 33.3873 62.2774 32.8391C62.6655 32.2909 62.9916 31.7053 63.2558 31.0824C63.52 30.4594 63.7223 29.8863 63.8626 29.3631C64.0113 28.8315 64.0856 28.329 64.0856 27.8555C64.0856 27.6977 64.0443 27.5399 63.9617 27.3821C63.8874 27.216 63.7842 27.0748 63.6521 26.9585C63.52 26.8339 63.3714 26.7384 63.2063 26.6719C63.0494 26.6055 62.8843 26.5847 62.7109 26.6097C62.4714 26.6346 62.2568 26.7093 62.0669 26.8339C61.8852 26.9502 61.7283 27.0872 61.5962 27.2451C61.4724 27.4029 61.3692 27.569 61.2866 27.7434C61.2123 27.9095 61.171 28.0549 61.1628 28.1795C61.1463 28.3539 61.138 28.5117 61.138 28.6529C61.138 28.7858 61.1463 28.9145 61.1628 29.0391C61.1793 29.1554 61.1999 29.2759 61.2247 29.4004C61.2495 29.525 61.2825 29.6621 61.3238 29.8116C61.3485 29.9362 61.3733 30.0649 61.3981 30.1978C61.4229 30.3307 61.4352 30.4511 61.4352 30.5591C61.4352 30.6588 61.4146 30.7418 61.3733 30.8083C61.332 30.8747 61.2577 30.908 61.1504 30.908C60.9853 30.908 60.8243 30.8083 60.6674 30.609C60.5188 30.4096 60.3949 30.1438 60.2958 29.8116C60.205 29.471 60.1514 29.0807 60.1348 28.6405C60.1266 28.1919 60.1885 27.7185 60.3206 27.2201C60.3619 27.0872 60.4321 26.9377 60.5312 26.7716C60.6385 26.5972 60.7788 26.4352 60.9522 26.2857C61.1256 26.1279 61.3362 25.995 61.5839 25.887C61.8316 25.7708 62.1164 25.7043 62.4384 25.6877C62.7769 25.6711 63.1154 25.7168 63.4539 25.8247C63.8007 25.9244 64.1103 26.0822 64.3828 26.2982C64.6553 26.5058 64.8782 26.7675 65.0516 27.0831C65.225 27.3987 65.3117 27.7642 65.3117 28.1795C65.3117 28.3954 65.2869 28.628 65.2374 28.8772C65.1961 29.1263 65.13 29.3838 65.0392 29.6496C64.8658 30.2061 64.6057 30.8124 64.259 31.4686C63.9535 32.05 63.6108 32.619 63.231 33.1755C62.8595 33.732 62.4508 34.2719 62.0049 34.7951C62.3022 34.7785 62.5953 34.7702 62.8843 34.7702C63.1732 34.7702 63.4539 34.7702 63.7264 34.7702C63.875 34.7702 64.0525 34.7785 64.259 34.7951C64.4736 34.8117 64.7255 34.8367 65.0144 34.8699C65.1796 34.8948 65.3199 34.9156 65.4355 34.9322C65.5511 34.9488 65.6543 34.9654 65.7451 34.982Z" fill="white"/>
<path d="M72.3908 34.982C72.4651 34.9986 72.5518 35.0277 72.6509 35.0692C72.75 35.1025 72.7995 35.1772 72.7995 35.2935C72.7995 35.4513 72.7623 35.5883 72.688 35.7046C72.655 35.7462 72.6055 35.7835 72.5394 35.8168C72.4816 35.85 72.4073 35.8666 72.3165 35.8666C72.2917 35.8583 72.2628 35.85 72.2298 35.8417C72.1968 35.8417 72.1348 35.8375 72.044 35.8292C71.9284 35.8126 71.7427 35.8002 71.4867 35.7918C71.239 35.7835 70.917 35.7794 70.5207 35.7794C69.9097 35.7794 69.307 35.8541 68.7125 36.0036C68.1098 36.1615 67.7011 36.2404 67.4864 36.2404C67.1892 36.2404 66.9704 36.1739 66.83 36.041C66.6649 35.8915 66.5824 35.688 66.5824 35.4305C66.5824 35.3392 66.6195 35.252 66.6938 35.1689C66.7681 35.0775 66.9002 34.9737 67.0901 34.8574C67.28 34.7495 67.4204 34.6622 67.5112 34.5958C67.602 34.5293 67.664 34.4754 67.697 34.4338C68.1263 33.9189 68.535 33.3873 68.9231 32.8391C69.3111 32.2909 69.6373 31.7053 69.9015 31.0824C70.1657 30.4594 70.368 29.8863 70.5083 29.3631C70.6569 28.8315 70.7312 28.329 70.7312 27.8555C70.7312 27.6977 70.69 27.5399 70.6074 27.3821C70.5331 27.216 70.4299 27.0748 70.2978 26.9585C70.1657 26.8339 70.0171 26.7384 69.8519 26.6719C69.6951 26.6055 69.5299 26.5847 69.3565 26.6097C69.1171 26.6346 68.9024 26.7093 68.7125 26.8339C68.5309 26.9502 68.374 27.0872 68.2419 27.2451C68.1181 27.4029 68.0149 27.569 67.9323 27.7434C67.858 27.9095 67.8167 28.0549 67.8084 28.1795C67.7919 28.3539 67.7837 28.5117 67.7837 28.6529C67.7837 28.7858 67.7919 28.9145 67.8084 29.0391C67.825 29.1554 67.8456 29.2759 67.8704 29.4004C67.8951 29.525 67.9282 29.6621 67.9694 29.8116C67.9942 29.9362 68.019 30.0649 68.0438 30.1978C68.0685 30.3307 68.0809 30.4511 68.0809 30.5591C68.0809 30.6588 68.0603 30.7418 68.019 30.8083C67.9777 30.8747 67.9034 30.908 67.7961 30.908C67.6309 30.908 67.4699 30.8083 67.313 30.609C67.1644 30.4096 67.0406 30.1438 66.9415 29.8116C66.8507 29.471 66.797 29.0807 66.7805 28.6405C66.7723 28.1919 66.8342 27.7185 66.9663 27.2201C67.0076 27.0872 67.0778 26.9377 67.1768 26.7716C67.2842 26.5972 67.4245 26.4352 67.5979 26.2857C67.7713 26.1279 67.9818 25.995 68.2295 25.887C68.4772 25.7708 68.7621 25.7043 69.0841 25.6877C69.4226 25.6711 69.7611 25.7168 70.0996 25.8247C70.4464 25.9244 70.756 26.0822 71.0285 26.2982C71.3009 26.5058 71.5239 26.7675 71.6973 27.0831C71.8706 27.3987 71.9573 27.7642 71.9573 28.1795C71.9573 28.3954 71.9326 28.628 71.883 28.8772C71.8417 29.1263 71.7757 29.3838 71.6849 29.6496C71.5115 30.2061 71.2514 30.8124 70.9046 31.4686C70.5991 32.05 70.2565 32.619 69.8767 33.1755C69.5051 33.732 69.0965 34.2719 68.6506 34.7951C68.9478 34.7785 69.2409 34.7702 69.5299 34.7702C69.8189 34.7702 70.0996 34.7702 70.3721 34.7702C70.5207 34.7702 70.6982 34.7785 70.9046 34.7951C71.1193 34.8117 71.3711 34.8367 71.6601 34.8699C71.8252 34.8948 71.9656 34.9156 72.0812 34.9322C72.1968 34.9488 72.3 34.9654 72.3908 34.982Z" fill="white"/>
</svg>
