<svg width="65" height="74" viewBox="0 0 65 74" fill="none" xmlns="http://www.w3.org/2000/svg">
<path fill-rule="evenodd" clip-rule="evenodd" d="M22.5392 0.140403C20.6924 0.502863 18.8245 1.95126 18.0384 3.63045C17.5058 4.76784 17.3185 5.74235 17.3185 7.37428V8.65532H11.6993C8.48194 8.65532 5.74767 8.71833 5.30205 8.80288C2.60538 9.31405 0.538087 11.4629 0.0790264 14.232C-0.355166 16.8513 1.03286 19.594 3.42995 20.8531L4.42196 21.3741L4.51247 22.2046C4.56206 22.6615 5.44809 33.2457 6.48115 45.7251C7.51408 58.2045 8.41702 68.6618 8.48757 68.9636C9.01184 71.2061 11.0498 73.2299 13.3238 73.7659C14.648 74.078 50.352 74.078 51.6762 73.7659C53.9504 73.2299 55.9897 71.2045 56.512 68.9636C56.5824 68.6618 57.4853 58.2045 58.5187 45.7251C59.5521 33.2457 60.4381 22.6615 60.4877 22.2046L60.578 21.3741L61.57 20.8531C63.9671 19.594 65.3552 16.8513 64.921 14.232C64.4619 11.4629 62.3946 9.31405 59.6979 8.80288C59.2523 8.71833 56.5181 8.65532 53.3007 8.65532H47.6815V7.37428C47.6815 6.66989 47.6152 5.74336 47.5339 5.31557C47.0415 2.71997 44.9444 0.623828 42.3476 0.131587C41.3938 -0.0492092 23.4647 -0.0412605 22.5392 0.140403ZM42.191 4.6106C43.0542 5.05081 43.344 5.73902 43.344 7.34885V8.65532H32.5H21.656V7.34885C21.656 5.76475 21.9471 5.0563 22.7782 4.61768C23.2996 4.34266 23.6445 4.33225 32.4696 4.32604C41.3621 4.31982 41.6365 4.32791 42.191 4.6106ZM59.5414 13.2819C60.1829 13.6091 60.6943 14.4417 60.6943 15.1588C60.6943 15.8759 60.1829 16.7085 59.5414 17.0357C58.9756 17.3242 58.7444 17.3266 32.5 17.3266C6.2556 17.3266 6.02441 17.3242 5.45864 17.0357C4.81711 16.7085 4.30571 15.8759 4.30571 15.1588C4.30571 14.4638 4.8174 13.6111 5.42784 13.289C5.96021 13.008 6.36997 13.0037 32.4696 12.9973C58.7509 12.991 58.9754 12.9934 59.5414 13.2819ZM56.131 22.2765C56.0894 22.6144 55.2149 33.0579 54.1879 45.4846C52.1653 69.9547 52.3278 68.5712 51.3941 69.2669L50.9858 69.5711H32.5H14.0142L13.6059 69.2669C12.6722 68.5712 12.8347 69.9547 10.8121 45.4846C9.78509 33.0579 8.91063 22.6144 8.86899 22.2765L8.79337 21.6623H32.5H56.2066L56.131 22.2765ZM18.4342 26.2992C18.0742 26.4891 17.7855 26.7973 17.5893 27.201L17.2911 27.8144L18.3898 45.6579C19.6184 65.6068 19.4815 64.4259 20.6338 65.0135C21.3644 65.3861 21.9477 65.3861 22.6783 65.0135C23.076 64.8107 23.3483 64.5279 23.5547 64.1033L23.8542 63.4872L22.754 45.6457C21.5243 25.7005 21.661 26.8793 20.5095 26.2921C19.7891 25.9248 19.1398 25.9271 18.4342 26.2992ZM31.4533 26.2959C31.123 26.4703 30.7997 26.8027 30.622 27.1509C30.3353 27.7127 30.3312 27.9731 30.3312 45.6528C30.3312 63.3398 30.3353 63.5929 30.6223 64.1553C30.9496 64.7966 31.7826 65.3078 32.5 65.3078C33.2174 65.3078 34.0504 64.7966 34.3777 64.1553C34.6647 63.5929 34.6688 63.3398 34.6688 45.6528C34.6688 27.9659 34.6647 27.7128 34.3777 27.1503C33.8442 26.105 32.5382 25.7235 31.4533 26.2959ZM44.4597 26.2992C43.3434 26.8882 43.4715 25.7685 42.246 45.6457L41.1458 63.4872L41.4453 64.1033C41.6517 64.5279 41.924 64.8107 42.3217 65.0135C43.0523 65.3861 43.6356 65.3861 44.3662 65.0135C45.5185 64.4259 45.3816 65.6068 46.6102 45.6579L47.7089 27.8144L47.4104 27.2005C46.8791 26.107 45.5775 25.7096 44.4597 26.2992Z" fill="#CC1F1F"/>
</svg>
