<svg width="12" height="12" viewBox="0 0 12 12" fill="none" xmlns="http://www.w3.org/2000/svg">
<path d="M0.298585 0.0934969C0.332281 0.0934969 0.354499 0.0934969 0.376593 0.0934969C1.41549 0.0934969 2.45427 0.0938672 3.49318 0.0925095C3.54082 0.0925095 3.57081 0.105099 3.59834 0.145337C4.02972 0.776306 4.46246 1.40616 4.89508 2.03615C5.38571 2.7508 5.87659 3.46533 6.36747 4.17986C6.37401 4.18949 6.38228 4.19788 6.39339 4.21121C6.51274 4.07297 6.62926 3.93819 6.74541 3.80303C7.36305 3.08492 7.98056 2.36681 8.59808 1.64858C9.03082 1.14524 9.46369 0.641892 9.89532 0.137561C9.92148 0.106951 9.94642 0.0922626 9.98789 0.0925095C10.2697 0.0943609 10.5516 0.0934969 10.8334 0.0934969H10.9005C10.7962 0.215198 10.7009 0.326778 10.6053 0.438111C9.86742 1.29668 9.12944 2.15526 8.39146 3.0137C7.87972 3.609 7.36786 4.20418 6.85464 4.79824C6.82539 4.83206 6.82786 4.8528 6.85156 4.88711C7.2701 5.49438 7.68729 6.10264 8.10473 6.71065C8.49069 7.27299 8.87653 7.83546 9.26262 8.39768C9.83373 9.22922 10.4051 10.0605 10.9762 10.8919C11.0678 11.0252 11.159 11.1588 11.2555 11.2996C11.2272 11.301 11.2077 11.3027 11.1884 11.3027C10.1454 11.3028 9.10241 11.3023 8.05943 11.3042C8.01006 11.3042 7.98155 11.2876 7.95526 11.2491C7.61669 10.7539 7.27726 10.2592 6.93759 9.76466C6.31304 8.85523 5.68836 7.94593 5.06369 7.03663C5.04542 7.00997 5.02703 6.98343 5.00518 6.95183C4.88064 7.09637 4.76017 7.23621 4.63971 7.37618C4.13846 7.95876 3.63709 8.54135 3.1361 9.12418C2.67274 9.66332 2.20976 10.2028 1.74653 10.7422C1.59397 10.9198 1.44154 11.0977 1.28787 11.2744C1.27602 11.288 1.25516 11.3017 1.23837 11.3017C0.929925 11.3033 0.621476 11.303 0.298462 11.303C0.360423 11.2298 0.414609 11.1648 0.469781 11.1007C0.897093 10.6036 1.32465 10.1068 1.75221 9.60987C2.36726 8.89485 2.98243 8.17995 3.59735 7.4648C3.91086 7.10019 4.22375 6.73497 4.53813 6.3711C4.56651 6.33814 4.57145 6.31629 4.54467 6.27741C3.92098 5.37243 3.29865 4.46646 2.67645 3.56025C2.0788 2.6897 1.48165 1.81866 0.884133 0.947996C0.708863 0.692374 0.532607 0.437123 0.356844 0.181502C0.339564 0.156322 0.323024 0.130526 0.298585 0.0934969ZM1.61668 0.822222C1.62619 0.839255 1.62952 0.846537 1.63409 0.853079C1.94933 1.30446 2.26456 1.75572 2.57992 2.20697C3.19769 3.09097 3.81557 3.97485 4.43346 4.85884C5.00419 5.67545 5.57493 6.49206 6.14542 7.30866C6.90303 8.39311 7.66076 9.47744 8.41713 10.5627C8.44169 10.5979 8.467 10.6089 8.5076 10.6088C8.9601 10.6077 9.41259 10.6082 9.8652 10.608C9.88433 10.608 9.90346 10.6059 9.93012 10.6045C9.91321 10.5794 9.90211 10.5624 9.89038 10.5457C9.24559 9.62296 8.60042 8.70057 7.956 7.77757C7.33626 6.88999 6.71751 6.00167 6.09765 5.1141C5.58024 4.37315 5.06171 3.63282 4.54393 2.89213C4.07675 2.22376 3.60957 1.55527 3.14412 0.885788C3.11141 0.838761 3.07796 0.82037 3.01945 0.820864C2.63275 0.82395 2.24605 0.822469 1.85935 0.822469C1.78159 0.822469 1.70382 0.822469 1.61668 0.822469V0.822222Z" fill="#2C2C2C"/>
</svg>
