<svg width="14" height="14" viewBox="0 0 14 14" fill="none" xmlns="http://www.w3.org/2000/svg">
<path d="M7.7981 0.125084C8.27782 0.123243 8.75754 0.128065 9.23712 0.139547L9.36466 0.144148C9.51191 0.149407 9.65719 0.155981 9.83272 0.16387C10.5322 0.196739 11.0094 0.307181 11.4282 0.469556C11.8621 0.636533 12.2276 0.862674 12.5931 1.22818C12.9273 1.55662 13.1859 1.9539 13.3511 2.39242C13.5134 2.81117 13.6239 3.2891 13.6567 3.98856C13.6646 4.16342 13.6712 4.30936 13.6765 4.45662L13.6804 4.58415C13.6921 5.06352 13.6971 5.54302 13.6955 6.02252L13.6962 6.51293V7.37411C13.6978 7.85383 13.6928 8.33355 13.6811 8.81314L13.6771 8.94067C13.6719 9.08792 13.6653 9.23321 13.6574 9.40873C13.6245 10.1082 13.5128 10.5855 13.3511 11.0042C13.1865 11.4432 12.9278 11.8408 12.5931 12.1691C12.2644 12.5033 11.8669 12.7619 11.4282 12.9271C11.0094 13.0894 10.5322 13.1999 9.83272 13.2328C9.65719 13.2406 9.51191 13.2472 9.36466 13.2525L9.23712 13.2564C8.75754 13.2681 8.27782 13.2732 7.7981 13.2715L7.30769 13.2722H6.44716C5.96744 13.2738 5.48772 13.2688 5.00814 13.2571L4.88061 13.2531C4.72455 13.2475 4.56853 13.2409 4.41255 13.2334C3.71308 13.2005 3.23582 13.0888 2.81641 12.9271C2.37772 12.7623 1.98036 12.5036 1.65217 12.1691C1.31759 11.8406 1.0587 11.4431 0.893543 11.0042C0.731168 10.5855 0.620727 10.1082 0.587857 9.40873C0.580536 9.25274 0.573962 9.09672 0.568136 8.94067L0.564849 8.81314C0.552729 8.33356 0.54725 7.85384 0.548414 7.37411V6.02252C0.546579 5.54302 0.551401 5.06352 0.562877 4.58415L0.567478 4.45662C0.572737 4.30936 0.579311 4.16342 0.5872 3.98856C0.620069 3.28844 0.730511 2.81183 0.892886 2.39242C1.05814 1.95369 1.31754 1.55651 1.65283 1.22884C1.98079 0.894066 2.3779 0.634937 2.81641 0.469556C3.23582 0.307181 3.71243 0.196739 4.41255 0.16387L4.88061 0.144148L5.00814 0.140861C5.4875 0.128748 5.967 0.123269 6.44651 0.124427L7.7981 0.125084ZM7.1223 3.41203C6.68679 3.40587 6.25439 3.48633 5.85024 3.64873C5.44609 3.81114 5.07825 4.05225 4.76809 4.35805C4.45793 4.66385 4.21165 5.02824 4.04354 5.43006C3.87544 5.83187 3.78887 6.26308 3.78887 6.69864C3.78887 7.1342 3.87544 7.56542 4.04354 7.96723C4.21165 8.36904 4.45793 8.73344 4.76809 9.03924C5.07825 9.34504 5.44609 9.58615 5.85024 9.74856C6.25439 9.91096 6.68679 9.99142 7.1223 9.98526C7.99405 9.98526 8.8301 9.63896 9.44652 9.02254C10.0629 8.40611 10.4092 7.57007 10.4092 6.69832C10.4092 5.82656 10.0629 4.99052 9.44652 4.37409C8.8301 3.75767 7.99405 3.41203 7.1223 3.41203ZM7.1223 4.72681C7.38428 4.72198 7.64459 4.7694 7.88803 4.86631C8.13147 4.96321 8.35315 5.10766 8.54014 5.2912C8.72713 5.47475 8.87567 5.69371 8.97709 5.93531C9.0785 6.17691 9.13076 6.43629 9.1308 6.69831C9.13084 6.96033 9.07868 7.21973 8.97734 7.46136C8.87601 7.70299 8.72754 7.922 8.54061 8.10561C8.35369 8.28922 8.13204 8.43374 7.88864 8.53072C7.64523 8.62771 7.38494 8.67522 7.12296 8.67048C6.59991 8.67048 6.09828 8.4627 5.72843 8.09285C5.35857 7.72299 5.15079 7.22137 5.15079 6.69832C5.15079 6.17526 5.35857 5.67364 5.72843 5.30378C6.09828 4.93393 6.59991 4.72615 7.12296 4.72615L7.1223 4.72681ZM10.5736 2.42595C10.3615 2.43443 10.1609 2.52465 10.0139 2.67771C9.86685 2.83076 9.78472 3.03478 9.78472 3.24702C9.78472 3.45927 9.86685 3.66329 10.0139 3.81634C10.1609 3.96939 10.3615 4.05961 10.5736 4.0681C10.7915 4.0681 11.0005 3.98153 11.1546 3.82742C11.3088 3.67332 11.3953 3.4643 11.3953 3.24637C11.3953 3.02843 11.3088 2.81942 11.1546 2.66531C11.0005 2.51121 10.7915 2.42463 10.5736 2.42463V2.42595Z" fill="#2C2C2C"/>
</svg>
