<svg width="332" height="49" viewBox="0 0 332 49" fill="none" xmlns="http://www.w3.org/2000/svg">
<path d="M16.7487 21.669C16.0827 21.699 15.5657 21.3313 15.1975 20.5658C14.8761 19.913 14.5873 19.5193 14.331 19.3849C14.1073 19.2802 13.5636 19.2474 12.6999 19.2863C11.191 19.3543 9.56765 20.5849 7.82985 22.978C5.47211 26.1915 4.35582 29.1875 4.48101 31.966C4.54149 33.3084 5.02539 34.444 5.9327 35.3728C6.86223 36.332 7.95136 36.7834 9.20009 36.7271C10.2719 36.6788 11.3365 36.3546 12.3939 35.7543C12.9834 35.4149 13.8819 34.7592 15.0894 33.7872C15.6628 33.3234 16.1004 33.0847 16.4022 33.0711C16.8497 33.051 17.232 33.2058 17.5493 33.5356C17.8661 33.855 18.0338 34.2228 18.0526 34.6391C18.0737 35.1073 17.8945 35.5273 17.515 35.8989C14.8775 38.4577 12.1539 39.8004 9.34426 39.927C7.1902 40.0241 5.33185 39.2788 3.76923 37.6913C2.26099 36.1535 1.45763 34.2919 1.35917 32.1066C1.20023 28.579 2.51497 24.8963 5.3034 21.0585C7.6304 17.8568 10.0478 16.1994 12.5557 16.0864C13.0656 16.0635 13.5246 16.0688 13.9328 16.1026C14.3405 16.1259 14.7028 16.1826 15.0197 16.2726C15.36 15.7255 15.8215 15.4388 16.4043 15.4125C17.1223 15.3802 17.5963 15.8333 17.8263 16.7718C18.0307 17.6072 18.1606 18.6388 18.216 19.8667C18.2352 20.2934 18.1376 20.6732 17.9232 21.0061C17.6605 21.4246 17.269 21.6455 16.7487 21.669ZM35.8919 39.3878C35.6942 39.3967 35.3249 39.184 34.7839 38.7495C34.2964 38.344 33.9307 37.9799 33.6868 37.6572C32.7122 38.2433 31.8511 38.6888 31.1037 38.9936C30.3567 39.3087 29.7282 39.4778 29.2183 39.5008C26.7833 39.6105 24.9781 39.0037 23.8028 37.6802C22.6936 36.4372 22.079 34.4837 21.959 31.8198C21.8456 29.3015 22.6122 27.1085 24.259 25.2408C25.9162 23.3727 27.9467 22.3844 30.3505 22.2761C31.2558 22.2354 32.2809 22.4238 33.4259 22.8414C34.8674 23.3604 35.6066 24.0309 35.6437 24.853C35.6563 25.134 35.5635 25.3884 35.3653 25.6163C35.279 26.0164 35.2251 26.6706 35.2034 27.5787C35.1922 28.4864 35.2132 29.6481 35.2666 31.0638C35.3143 32.3546 35.4487 33.3704 35.6698 34.1112C35.7945 34.5644 36.1635 35.4654 36.777 36.8141C36.8582 36.9981 36.9903 37.2685 37.1732 37.6252L37.2788 37.8864C37.2976 38.3026 37.1674 38.6526 36.8882 38.9363C36.609 39.2199 36.2769 39.3705 35.8919 39.3878ZM32.1564 28.6857C32.1363 28.2383 32.1405 27.7532 32.1691 27.2306C32.2076 26.697 32.2707 26.1311 32.3585 25.5328C31.9645 25.3524 31.625 25.2218 31.3398 25.1408C31.065 25.0593 30.8444 25.0223 30.6779 25.0298C29.0649 25.1025 27.7003 25.8261 26.5839 27.2007C25.4775 28.5643 24.963 30.1047 25.0404 31.8217C25.1172 33.5283 25.4767 34.7947 26.1187 35.6208C26.7607 36.4469 27.6852 36.8327 28.8924 36.7783C29.8913 36.7333 30.7312 36.513 31.412 36.1174C31.7777 35.9028 32.2854 35.4837 32.9351 34.8601C32.4779 32.1174 32.2183 30.0593 32.1564 28.6857ZM61.8132 38.4858C60.9599 38.5243 60.44 38.0941 60.2535 37.1953C60.0146 36.0591 59.7547 34.4546 59.4736 32.3818L58.7249 27.5669C58.5884 26.8535 58.3799 26.1591 58.0992 25.4835C57.7032 24.5629 57.2971 24.112 56.8808 24.1308C56.4958 24.1481 55.7925 24.5083 54.7711 25.2112C53.7993 25.8598 53.1655 26.3732 52.8697 26.7515C52.9034 27.7301 52.9735 28.7071 53.08 29.6825L53.736 33.829C54.0078 35.4643 54.1679 36.8178 54.2162 37.8896C54.2368 38.3475 54.108 38.7287 53.8297 39.0332C53.5624 39.3476 53.205 39.5149 52.7575 39.5351C52.31 39.5553 51.9338 39.421 51.6288 39.1324C51.3348 38.8536 51.1774 38.4854 51.1568 38.0275C51.1 36.7684 50.8863 34.9167 50.5155 32.4726C50.1546 30.0176 49.9458 28.1605 49.8891 26.9014C49.8394 25.7984 49.6446 24.9469 49.3048 24.347C48.5913 24.7128 47.8769 25.2872 47.1614 26.0702L45.4123 28.2136C45.2571 28.4708 45.0065 28.8106 44.6606 29.2328C44.6887 29.8572 44.673 30.7807 44.6134 32.0034C44.5538 33.2261 44.5371 34.1288 44.5633 34.7115C44.5774 35.0237 44.6439 35.4587 44.7629 36.0164C44.8923 36.5736 44.9626 36.9771 44.9738 37.2268C44.9931 37.6535 44.8479 38.0198 44.5385 38.3257C44.2394 38.6311 43.8766 38.7934 43.4499 38.8127C42.274 38.8657 41.6258 37.555 41.5053 34.8806C41.4772 34.2562 41.4925 33.3223 41.5512 32.0788C41.6098 30.8353 41.6251 29.9014 41.597 29.277C41.5721 28.7255 41.4828 27.9006 41.3291 26.8022C41.1857 25.7034 41.1014 24.873 41.076 24.3111C40.9696 21.9489 41.4471 20.7439 42.5085 20.6961C42.9144 20.6778 43.2918 20.838 43.6407 21.1768C44 21.5152 44.1891 21.8925 44.2078 22.3087C44.2168 22.5064 44.2046 22.8146 44.1713 23.2332C44.138 23.6518 44.1263 23.9703 44.1361 24.1888L44.2412 25.8264C44.7322 24.6886 45.483 23.6485 46.4937 22.7062C47.5039 21.7535 48.3784 21.2605 49.1173 21.2273C50.751 21.1537 51.9115 21.9147 52.5986 23.5104C53.1367 22.7249 53.7927 22.1271 54.5667 21.7169C55.3402 21.2962 56.2369 21.0629 57.2567 21.0169C58.9945 20.9386 60.223 21.8217 60.9422 23.6662C61.0839 24.0352 61.3631 25.4877 61.7798 28.0236C62.1518 29.8003 62.6607 32.7648 63.3066 36.917C63.3566 37.3318 63.232 37.692 62.933 37.9974C62.6339 38.3029 62.2607 38.4656 61.8132 38.4858ZM75.3575 37.1248C74.3169 37.1717 73.1648 37.0568 71.901 36.78L72.206 44.2426C72.2266 44.7005 72.0978 45.0817 71.8195 45.3862C71.5517 45.6902 71.1941 45.8523 70.7466 45.8725C70.2991 45.8926 69.9232 45.7636 69.6187 45.4853C69.3246 45.2066 69.1672 44.8383 69.1466 44.3805L68.9121 38.1347L68.6315 31.9066C68.4976 29.6291 68.326 27.5566 68.1167 25.6891L67.7398 22.531C67.7065 21.7922 67.8137 21.1617 68.0613 20.6396C68.3458 20.0116 68.7846 19.6842 69.3778 19.6575C69.7836 19.6392 70.1284 19.7697 70.4121 20.0488C70.7057 20.3171 70.8619 20.6594 70.8806 21.0757C70.8849 21.1693 70.877 21.3417 70.857 21.5929C70.8195 21.9178 70.7965 22.216 70.7878 22.4875C71.6551 21.8332 72.4982 21.3365 73.3171 20.9972C74.1355 20.6475 74.9245 20.4555 75.6842 20.4213C77.8174 20.3252 79.421 21.2018 80.4949 23.0512C81.3429 24.5145 81.8224 26.4793 81.9336 28.9455C82.0348 31.1932 81.5147 33.0727 80.3733 34.584C79.1627 36.1817 77.4908 37.0287 75.3575 37.1248ZM75.8248 23.5431C74.8675 23.5863 74.0134 23.8385 73.2625 24.2998C72.7246 24.6265 72.0523 25.2094 71.2455 26.0487C71.4872 28.4048 71.6666 30.8836 71.7838 33.4851C72.9378 33.871 74.0819 34.0385 75.2162 33.9874C76.5169 33.9288 77.4889 33.4001 78.1321 32.4014C78.6873 31.5318 78.9346 30.4258 78.8742 29.0834C78.7888 27.1895 78.4909 25.7848 77.9805 24.8693C77.4799 23.943 76.7614 23.5009 75.8248 23.5431ZM100.051 26.3305C100.085 27.0798 100.141 28.2034 100.219 29.7014C100.297 31.1994 100.352 32.323 100.386 33.0723C100.396 33.3012 100.428 33.6491 100.48 34.116C100.543 34.5824 100.579 34.9301 100.59 35.159C100.61 35.6065 100.475 35.9775 100.186 36.272C99.8975 36.577 99.5347 36.7393 99.0976 36.759C98.2964 36.7951 97.7642 36.3238 97.5011 35.3451C96.2308 36.0801 94.7476 36.4858 93.0514 36.5622C91.6882 36.6236 90.5455 36.3727 89.6234 35.8095C88.6048 35.188 87.973 34.2416 87.7281 32.97C87.198 30.2307 86.8844 27.784 86.7874 25.6299C86.7231 24.2043 86.8061 22.5739 87.0362 20.7388C87.1411 19.8269 87.615 19.352 88.4579 19.314C88.9054 19.2938 89.2865 19.4226 89.6015 19.7004C89.9159 19.9678 90.0832 20.3252 90.1033 20.7726C90.1249 21.2513 90.0813 22.0197 89.9726 23.0777C89.8743 24.1353 89.8375 24.9399 89.8624 25.4914C89.9407 27.2292 90.0649 28.7147 90.2352 29.9479C90.4055 31.1811 90.6219 32.1671 90.8846 32.906C91.2365 33.0779 91.5812 33.2083 91.9189 33.2974C92.2561 33.376 92.586 33.4081 92.9086 33.3935C94.303 33.3307 95.7654 33.0406 97.2958 32.5233L97.1374 29.3554L96.9698 26.3286C96.8685 24.0809 96.8794 22.1253 97.0026 20.4618C97.0739 19.4993 97.5571 18.9979 98.452 18.9575C98.8994 18.9374 99.2806 19.0662 99.5955 19.344C99.9104 19.6217 100.067 19.9796 100.066 20.4176L100.051 26.3305ZM116.277 22.6903C115.704 22.7161 115.295 22.5416 115.049 22.1669C114.881 21.9034 114.72 21.3475 114.567 20.4994C113.796 20.7323 112.61 21.1506 111.011 21.7545C109.365 22.496 108.559 23.356 108.593 24.3347C108.91 24.4351 109.221 24.5045 109.525 24.5429C111.938 24.8617 113.744 25.3695 114.943 26.0662C116.688 27.0825 117.608 28.626 117.701 30.6968C117.778 32.393 117.102 33.706 115.673 34.6358C114.488 35.3983 112.963 35.8215 111.101 35.9054C109.738 35.9668 108.426 35.7965 107.168 35.3944C105.539 34.8839 104.701 34.1083 104.654 33.0677C104.635 32.6514 104.78 32.28 105.089 31.9532C105.408 31.6261 105.775 31.4531 106.191 31.4343C106.514 31.4198 106.941 31.6508 107.474 32.1273C107.734 32.3554 108.305 32.5278 109.186 32.6445C109.889 32.738 110.48 32.7739 110.959 32.7523C111.833 32.713 112.598 32.5742 113.255 32.3361C114.209 31.9907 114.671 31.4902 114.642 30.8346C114.578 29.4194 113.546 28.5066 111.547 28.0962L109.907 27.8103C108.509 27.5709 107.51 27.2614 106.909 26.8818C106.04 26.337 105.579 25.4767 105.526 24.3008C105.428 22.1259 106.383 20.5292 108.391 19.5107C109.003 19.2016 109.987 18.8236 111.343 18.3767C112.699 17.9194 113.667 17.5421 114.248 17.2448C114.667 17.0383 115.125 16.9238 115.625 16.9012C116.072 16.8811 116.443 17.0104 116.737 17.2891C117.042 17.5673 117.205 17.9406 117.226 18.4089C117.239 18.7106 117.322 19.1501 117.473 19.7272C117.634 20.3038 117.722 20.7431 117.735 21.0448C117.757 21.5131 117.628 21.8995 117.35 22.204C117.082 22.508 116.724 22.6701 116.277 22.6903ZM152.612 33.5659C151.655 33.609 150.767 32.4186 149.948 29.9946C149.636 29.0703 149.224 27.4465 148.712 25.1234C147.657 25.317 146.28 25.6397 144.58 26.0917L140.466 27.1373C140.008 28.5239 139.208 30.5568 138.067 33.2358C137.76 33.8336 137.32 34.1453 136.748 34.1711C136.332 34.1899 135.95 34.0559 135.604 33.7691C135.268 33.4819 135.089 33.1145 135.069 32.667C135.047 32.1675 135.747 30.233 137.17 26.8635C136.98 26.6009 136.878 26.2927 136.862 25.9389C136.824 25.096 137.31 24.5319 138.319 24.2466C139.405 21.9663 140.788 19.3389 142.468 16.3644C144.757 12.3093 146.203 10.2682 146.806 10.241C147.628 10.204 148.216 10.751 148.569 11.8821L149.789 17.0825L152.604 27.826L153.604 30.2522C153.944 31.0815 154.12 31.6366 154.133 31.9176C154.153 32.3651 154.009 32.747 153.7 33.0633C153.391 33.3796 153.028 33.5471 152.612 33.5659ZM146.298 15.9728L142.158 23.3698C143.403 22.9905 145.295 22.5142 147.834 21.941L146.298 15.9728ZM180.432 33.1414C179.578 33.1798 179.058 32.7497 178.872 31.8509C178.633 30.7147 178.373 29.1102 178.092 27.0374L177.343 22.2225C177.207 21.5091 176.998 20.8147 176.718 20.1391C176.322 19.2185 175.915 18.7676 175.499 18.7864C175.114 18.8037 174.411 19.1638 173.389 19.8668C172.418 20.5153 171.784 21.0288 171.488 21.407C171.522 22.3857 171.592 23.3627 171.698 24.3381L172.354 28.4846C172.626 30.1199 172.786 31.4734 172.835 32.5452C172.855 33.0031 172.726 33.3843 172.448 33.6888C172.181 34.0032 171.823 34.1705 171.376 34.1907C170.928 34.2108 170.552 34.0766 170.247 33.7879C169.953 33.5092 169.796 33.1409 169.775 32.6831C169.718 31.4239 169.505 29.5723 169.134 27.1282C168.773 24.6732 168.564 22.8161 168.507 21.557C168.458 20.4539 168.263 19.6025 167.923 19.0026C167.21 19.3684 166.495 19.9428 165.78 20.7258L164.031 22.8692C163.876 23.1264 163.625 23.4662 163.279 23.8884C163.307 24.5128 163.291 25.4363 163.232 26.659C163.172 27.8817 163.155 28.7844 163.182 29.3671C163.196 29.6793 163.262 30.1142 163.381 30.6719C163.511 31.2292 163.581 31.6327 163.592 31.8824C163.611 32.3091 163.466 32.6754 163.157 32.9813C162.858 33.2867 162.495 33.449 162.068 33.4683C160.892 33.5212 160.244 32.2105 160.124 29.5362C160.096 28.9118 160.111 27.9779 160.17 26.7344C160.228 25.4909 160.244 24.557 160.215 23.9326C160.191 23.3811 160.101 22.5562 159.947 21.4578C159.804 20.359 159.72 19.5286 159.694 18.9667C159.588 16.6045 160.066 15.3995 161.127 15.3516C161.533 15.3334 161.91 15.4936 162.259 15.8324C162.618 16.1708 162.808 16.548 162.826 16.9643C162.835 17.162 162.823 17.4702 162.79 17.8887C162.756 18.3073 162.745 18.6259 162.755 18.8444L162.86 20.482C163.351 19.3441 164.101 18.3041 165.112 17.3618C166.122 16.4091 166.997 15.9161 167.736 15.8828C169.369 15.8092 170.53 16.5703 171.217 18.166C171.755 17.3805 172.411 16.7827 173.185 16.3724C173.959 15.9518 174.855 15.7185 175.875 15.6725C177.613 15.5942 178.841 16.4773 179.561 18.3218C179.702 18.6908 179.982 20.1433 180.398 22.6792C180.77 24.4559 181.279 27.4204 181.925 31.5726C181.975 31.9874 181.85 32.3476 181.551 32.653C181.252 32.9584 180.879 33.1212 180.432 33.1414ZM194.636 31.8601C193.044 31.9318 191.584 31.6848 190.255 31.1191C189.944 31.6336 189.55 31.9016 189.071 31.9232C188.676 31.941 188.331 31.8157 188.038 31.5474C187.755 31.2891 187.604 30.9518 187.585 30.5355C187.573 30.265 187.565 29.8639 187.562 29.3322C187.57 28.8001 187.567 28.3987 187.555 28.1282C187.505 27.0251 187.4 25.3772 187.238 23.1843C187.087 20.9806 186.986 19.3272 186.937 18.2241C186.903 17.4645 186.843 16.0282 186.758 13.9153C186.673 11.792 186.613 10.3453 186.578 9.57522C186.55 8.95085 186.655 8.38306 186.893 7.87185C187.207 7.2216 187.667 6.88289 188.27 6.85569C189.051 6.82053 189.461 7.25561 189.502 8.16094C189.509 8.30663 189.492 8.52113 189.453 8.80444C189.413 9.08775 189.397 9.30224 189.404 9.44793L189.511 12.8684L189.659 16.8502C190.537 16.1954 191.374 15.6989 192.173 15.3605C192.981 15.0113 193.744 14.8205 194.462 14.7882C196.699 14.6874 198.553 15.4641 200.025 17.1182C201.409 18.6721 202.154 20.6249 202.26 22.9767C202.367 25.3493 201.693 27.3974 200.238 29.1209C198.782 30.8443 196.915 31.7574 194.636 31.8601ZM194.595 17.7383C193.741 17.7768 192.878 18.0555 192.005 18.5745C191.578 18.8335 190.852 19.3824 189.826 20.2211L189.917 22.9229L190.042 25.3572L190.173 27.9164C190.683 28.1228 191.399 28.3825 192.32 28.6956C192.974 28.8642 193.702 28.9305 194.503 28.8944C196.012 28.8264 197.226 28.2399 198.146 27.1349C199.066 26.0298 199.49 24.6865 199.419 23.1047C199.349 21.5542 198.901 20.2762 198.073 19.2708C197.18 18.1849 196.02 17.6741 194.595 17.7383ZM220.453 31.0723C220.256 31.0812 219.886 30.8684 219.345 30.434C218.858 30.0285 218.492 29.6644 218.248 29.3417C217.274 29.9278 216.413 30.3733 215.665 30.678C214.918 30.9932 214.29 31.1623 213.78 31.1853C211.345 31.295 209.54 30.6881 208.364 29.3647C207.255 28.1217 206.641 26.1682 206.521 23.5042C206.407 20.986 207.174 18.793 208.82 16.9253C210.478 15.0572 212.508 14.0689 214.912 13.9606C215.817 13.9198 216.842 14.1083 217.987 14.5259C219.429 15.0449 220.168 15.7154 220.205 16.5375C220.218 16.8185 220.125 17.0729 219.927 17.3008C219.841 17.7009 219.787 18.355 219.765 19.2632C219.754 20.1709 219.775 21.3326 219.828 22.7483C219.876 24.0391 220.01 25.0549 220.231 25.7957C220.356 26.2489 220.725 27.1498 221.338 28.4986C221.42 28.6826 221.552 28.953 221.735 29.3097L221.84 29.5708C221.859 29.9871 221.729 30.3371 221.45 30.6207C221.171 30.9044 220.838 31.0549 220.453 31.0723ZM216.718 20.3702C216.698 19.9227 216.702 19.4377 216.731 18.915C216.769 18.3815 216.832 17.8156 216.92 17.2173C216.526 17.0369 216.186 16.9062 215.901 16.8252C215.627 16.7438 215.406 16.7068 215.239 16.7143C213.626 16.787 212.262 17.5106 211.145 18.8851C210.039 20.2488 209.525 21.7892 209.602 23.5062C209.679 25.2128 210.038 26.4791 210.68 27.3052C211.322 28.1314 212.247 28.5172 213.454 28.4628C214.453 28.4178 215.293 28.1975 215.974 27.8019C216.339 27.5873 216.847 27.1682 217.497 26.5445C217.039 23.8019 216.78 21.7438 216.718 20.3702ZM236.487 17.2741C235.915 17.2999 235.506 17.1255 235.259 16.7507C235.091 16.4872 234.931 15.9314 234.778 15.0832C234.006 15.3161 232.821 15.7345 231.221 16.3383C229.576 17.0798 228.77 17.9399 228.804 18.9185C229.121 19.0189 229.432 19.0883 229.736 19.1268C232.148 19.4456 233.954 19.9534 235.154 20.6501C236.899 21.6663 237.818 23.2098 237.912 25.2806C237.988 26.9768 237.312 28.2898 235.884 29.2197C234.698 29.9821 233.174 30.4053 231.311 30.4892C229.948 30.5507 228.637 30.3803 227.378 29.9783C225.749 29.4677 224.911 28.6921 224.865 27.6515C224.846 27.2353 224.991 26.8638 225.299 26.5371C225.618 26.2099 225.986 26.0369 226.402 26.0182C226.725 26.0036 227.152 26.2346 227.684 26.7112C227.945 26.9392 228.516 27.1116 229.397 27.2284C230.1 27.3218 230.691 27.3578 231.169 27.3362C232.043 27.2968 232.809 27.1581 233.465 26.9199C234.419 26.5745 234.882 26.0741 234.852 25.4185C234.789 24.0032 233.757 23.0904 231.757 22.68L230.118 22.3941C228.72 22.1547 227.721 21.8452 227.12 21.4656C226.25 20.9209 225.789 20.0605 225.736 18.8847C225.638 16.7098 226.594 15.1131 228.602 14.0946C229.214 13.7855 230.198 13.4075 231.554 12.9606C232.91 12.5032 233.878 12.1259 234.459 11.8287C234.877 11.6221 235.336 11.5076 235.836 11.4851C236.283 11.4649 236.654 11.5942 236.948 11.8729C237.252 12.1512 237.415 12.5244 237.436 12.9927C237.45 13.2945 237.532 13.7339 237.683 14.311C237.845 14.8877 237.932 15.3269 237.946 15.6287C237.967 16.097 237.839 16.4833 237.56 16.7878C237.292 17.0919 236.935 17.254 236.487 17.2741ZM253.983 16.4858C253.411 16.5116 253.002 16.3372 252.755 15.9624C252.587 15.6989 252.427 15.1431 252.274 14.2949C251.502 14.5278 250.317 14.9462 248.717 15.55C247.072 16.2915 246.266 17.1516 246.3 18.1302C246.617 18.2306 246.928 18.3 247.232 18.3385C249.644 18.6573 251.45 19.1651 252.65 19.8618C254.395 20.878 255.314 22.4215 255.408 24.4923C255.484 26.1885 254.808 27.5015 253.38 28.4314C252.194 29.1938 250.67 29.617 248.807 29.701C247.444 29.7624 246.133 29.592 244.874 29.19C243.245 28.6794 242.407 27.9039 242.361 26.8632C242.342 26.447 242.487 26.0755 242.795 25.7488C243.114 25.4216 243.482 25.2486 243.898 25.2299C244.221 25.2154 244.648 25.4463 245.18 25.9229C245.441 26.151 246.012 26.3234 246.893 26.4401C247.596 26.5335 248.187 26.5695 248.665 26.5479C249.539 26.5085 250.305 26.3698 250.961 26.1316C251.915 25.7863 252.378 25.2858 252.348 24.6302C252.285 23.215 251.253 22.3021 249.253 21.8917L247.614 21.6059C246.216 21.3664 245.217 21.0569 244.616 20.6773C243.746 20.1326 243.285 19.2723 243.232 18.0964C243.134 15.9215 244.09 14.3248 246.098 13.3063C246.71 12.9972 247.694 12.6192 249.05 12.1723C250.406 11.715 251.374 11.3376 251.955 11.0404C252.373 10.8338 252.832 10.7193 253.332 10.6968C253.779 10.6766 254.15 10.8059 254.444 11.0846C254.748 11.3629 254.911 11.7361 254.932 12.2044C254.946 12.5062 255.028 12.9456 255.179 13.5228C255.341 14.0994 255.428 14.5386 255.442 14.8404C255.463 15.3087 255.335 15.6951 255.056 15.9996C254.788 16.3036 254.431 16.4657 253.983 16.4858ZM273.722 28.6723C273.524 28.6812 273.155 28.4684 272.614 28.034C272.126 27.6284 271.761 27.2643 271.517 26.9416C270.542 27.5278 269.681 27.9732 268.934 28.278C268.187 28.5932 267.558 28.7623 267.048 28.7852C264.613 28.895 262.808 28.2881 261.633 26.9647C260.524 25.7217 259.909 23.7682 259.789 21.1042C259.676 18.5859 260.442 16.3929 262.089 14.5253C263.746 12.6571 265.777 11.6689 268.18 11.5606C269.086 11.5198 270.111 11.7082 271.256 12.1259C272.697 12.6448 273.437 13.3154 273.474 14.1375C273.486 14.4184 273.394 14.6729 273.195 14.9008C273.109 15.3009 273.055 15.955 273.033 16.8632C273.022 17.7708 273.043 18.9325 273.097 20.3482C273.144 21.639 273.279 22.6549 273.5 23.3957C273.624 23.8488 273.994 24.7498 274.607 26.0986C274.688 26.2826 274.82 26.553 275.003 26.9097L275.109 27.1708C275.128 27.5871 274.997 27.937 274.718 28.2207C274.439 28.5044 274.107 28.6549 273.722 28.6723ZM269.986 17.9702C269.966 17.5227 269.97 17.0377 269.999 16.515C270.038 15.9815 270.101 15.4156 270.188 14.8173C269.794 14.6369 269.455 14.5062 269.17 14.4252C268.895 14.3437 268.674 14.3068 268.508 14.3143C266.895 14.3869 265.53 15.1106 264.414 16.4851C263.307 17.8488 262.793 19.3891 262.87 21.1061C262.947 22.8127 263.307 24.0791 263.949 24.9052C264.591 25.7313 265.515 26.1172 266.722 26.0628C267.721 26.0178 268.561 25.7975 269.242 25.4018C269.608 25.1872 270.115 24.7681 270.765 24.1445C270.308 21.4019 270.048 19.3438 269.986 17.9702ZM293.516 12.9372C293.46 14.4726 293.467 16.0051 293.536 17.5348C293.692 21 293.971 23.6099 294.373 25.3644C294.401 25.5091 294.416 25.6283 294.421 25.722C294.439 26.1382 294.309 26.4882 294.03 26.7719C293.751 27.0556 293.419 27.2061 293.034 27.2234C292.389 27.2525 291.894 26.8056 291.55 25.8826C290.826 26.4679 290.064 26.9193 289.265 27.2368C288.476 27.5539 287.645 27.7321 286.771 27.7715C284.617 27.8686 282.8 27.231 281.32 25.8587C279.797 24.4571 278.984 22.6064 278.88 20.3066C278.755 17.5282 279.388 15.2682 280.78 13.5267C282.182 11.7848 284.059 10.8608 286.411 10.7548C287.618 10.7005 288.558 10.8458 289.23 11.1909L290.746 12.2018C290.694 7.81428 290.733 4.85641 290.862 3.32821C290.956 2.39597 291.408 1.91157 292.22 1.875C293.167 1.83233 293.663 2.3157 293.709 3.32509C293.774 4.77154 293.71 7.97559 293.516 12.9372ZM286.604 13.6553C284.856 13.7341 283.568 14.3135 282.741 15.3935C281.913 16.4631 281.546 18.0385 281.64 20.1197C281.7 21.4621 282.226 22.5958 283.217 23.5209C284.217 24.4456 285.358 24.8791 286.638 24.8214C287.512 24.782 288.244 24.5874 288.833 24.2376C289.178 24.0344 289.736 23.5765 290.507 22.864C290.657 22.7217 290.8 22.5536 290.938 22.3597L290.769 19.6615L290.703 17.8501L290.651 16.0068C290.218 15.1817 289.664 14.5758 288.99 14.1891C288.315 13.792 287.52 13.6141 286.604 13.6553ZM306.368 27.0919C304.619 27.1707 303.087 26.5932 301.769 25.3596C300.3 23.9869 299.474 22.0898 299.292 19.6685C299.123 17.3195 299.623 15.222 300.791 13.3759C302.153 11.1978 304.135 10.0501 306.736 9.93292C308.817 9.83915 310.437 10.7203 311.595 12.5763C312.517 14.078 313.012 15.9117 313.078 18.0776C313.151 20.3892 312.636 22.3883 311.534 24.0751C310.285 25.9874 308.563 26.993 306.368 27.0919ZM306.676 13.1107C305.146 13.1692 303.987 13.9513 303.2 15.4571C302.577 16.6634 302.299 18.021 302.367 19.5299C302.435 21.0388 302.899 22.1962 303.759 23.002C304.477 23.6683 305.299 23.9806 306.226 23.9389C307.308 23.8901 308.221 23.4527 308.966 22.6267C309.811 21.7127 310.226 20.5105 310.211 19.0201C310.176 14.9864 308.997 13.0166 306.676 13.1107ZM330.842 13.5078C330.827 14.8119 330.336 15.4857 329.369 15.5293C328.474 15.5696 328.003 15.0747 327.957 14.0445C327.948 13.8467 327.916 13.4832 327.861 12.9539L327.755 11.6449C326.119 11.9167 324.824 12.439 323.868 13.212C322.972 13.9301 322.248 14.9846 321.696 16.3755L322.112 24.9279C322.16 25.9789 321.668 26.5276 320.638 26.5741C319.722 26.6153 319.241 26.1104 319.193 25.0594L318.7 14.1018C318.684 13.7584 318.671 13.2428 318.661 12.5551C318.662 11.8669 318.654 11.3511 318.639 11.0077C318.591 9.95664 319.025 9.41051 319.941 9.36925C320.961 9.3233 321.515 10.1638 321.603 11.8907C323.514 9.87559 325.688 8.81316 328.123 8.70345C328.965 8.66547 329.609 8.9545 330.054 9.57051C330.499 10.1865 330.75 11.1345 330.808 12.4145C330.832 12.9556 330.844 13.32 330.842 13.5078Z" fill="black"/>
</svg>
