<svg width="84" height="74" viewBox="0 0 84 74" fill="none" xmlns="http://www.w3.org/2000/svg">
<path fill-rule="evenodd" clip-rule="evenodd" d="M40.3698 0.184959C39.196 0.511767 38.1642 1.12292 37.3629 1.96533C36.7248 2.63642 1.20686 63.5142 0.407332 65.3077C-0.13807 66.5308 -0.13544 68.7017 0.41325 70.0803C0.951091 71.4321 2.58746 73.0606 3.95639 73.6066L4.94265 74H42.0096H79.0766L80.0629 73.6066C80.7782 73.3214 81.3468 72.9175 82.1325 72.1367C83.5715 70.7071 83.9944 69.6865 83.9999 67.6304C84.0033 66.3237 83.9476 66.0426 83.4983 65.099C82.8228 63.6803 47.5195 2.96356 46.9644 2.26568C46.41 1.56862 45.0975 0.669863 44.1465 0.336032C43.0592 -0.0456515 41.4315 -0.110817 40.3698 0.184959ZM59.7119 36.807C69.4027 53.4903 77.3809 67.2692 77.4411 67.4263C77.5448 67.6979 75.7899 67.7121 42.0096 67.7121C8.22937 67.7121 6.47448 67.6979 6.5782 67.4263C6.75277 66.9696 41.9187 6.47351 42.0096 6.47351C42.0548 6.47351 50.0209 20.1235 59.7119 36.807ZM40.6752 23.8306C38.706 24.5631 37.5715 26.095 37.5715 28.0221C37.5715 28.959 39.3406 49.3093 39.4794 49.9675C39.6198 50.6337 40.7166 51.6652 41.4251 51.7973C42.7598 52.0461 44.1413 51.2773 44.4771 50.099C44.6531 49.4808 46.4478 29.3847 46.4478 28.0306C46.4478 25.6826 44.6712 23.826 42.2785 23.6736C41.6741 23.6352 41.0316 23.6981 40.6752 23.8306ZM40.9846 53.3295C38.5748 54.1015 37.5894 56.9208 39.0114 58.9744C39.5982 59.8217 40.9589 60.5259 42.0096 60.5259C43.0587 60.5259 44.4202 59.822 45.0103 58.9744C46.2167 57.2419 45.6853 54.779 43.8781 53.7267C43.1106 53.2798 41.731 53.0904 40.9846 53.3295Z" fill="#CC1F1F"/>
</svg>
