<svg width="26" height="24" viewBox="0 0 26 24" fill="none" xmlns="http://www.w3.org/2000/svg">
<path d="M12.9969 11.8249V22.6313M12.9969 11.8249L9.99509 14.2263M12.9969 11.8249L15.9987 14.2263M4.63268 8.36319C3.49705 8.64895 2.50486 9.33957 1.84251 10.3053C1.18016 11.271 0.893255 12.4453 1.03569 13.6077C1.17812 14.77 1.7401 15.8403 2.61603 16.6175C3.49196 17.3948 4.62155 17.8254 5.79257 17.8285H6.99329" stroke="white" stroke-width="2" stroke-linecap="round" stroke-linejoin="round"/>
<path d="M17.5948 5.987C17.1844 4.36191 16.1715 2.95367 14.7613 2.04775C13.3511 1.14182 11.6492 0.806004 10.0006 1.10836C8.35195 1.41072 6.87999 2.32863 5.88306 3.67602C4.88613 5.02341 4.43883 6.69947 4.63184 8.36443C4.63184 8.36443 4.81555 9.42346 5.19137 10.0238" stroke="white" stroke-width="2" stroke-linecap="round" stroke-linejoin="round"/>
<path d="M19.0018 17.8282C19.8496 17.8277 20.6876 17.6476 21.4607 17.2998C22.2338 16.952 22.9245 16.4444 23.4874 15.8104C24.0502 15.1764 24.4723 14.4304 24.7261 13.6216C24.9798 12.8127 25.0594 11.9592 24.9595 11.1174C24.8596 10.2755 24.5826 9.46435 24.1466 8.73728C23.7107 8.01021 23.1257 7.38372 22.4301 6.89903C21.7346 6.41435 20.9443 6.08246 20.1113 5.92522C19.2782 5.76798 18.4213 5.78895 17.597 5.98674L16 6.4214" stroke="white" stroke-width="2" stroke-linecap="round" stroke-linejoin="round"/>
</svg>
