<svg width="2165" height="653" viewBox="0 0 2165 653" fill="none" xmlns="http://www.w3.org/2000/svg">
<path fill-rule="evenodd" clip-rule="evenodd" d="M506.853 652.133L27.8872 653.335V623.304H276.193L353.567 128.535L27.8872 144.346V623.304V653.335H-0.336426V117.434L503.547 92.9115L531.192 91.5295L1926.5 0.478516H2162.5L2165 559.5L2128.5 562.066C2128.5 562.066 2128.5 533.116 2128.5 514.566C2128.3 325.136 2128 29.4999 2128 29.4999H1926.5L1848 34.5732L1817 36.5766L1379 64.8832L1349 66.822L1097.5 83.0757L1034 600.977L1425 570.108L1461.5 567.226L1745 544.844L1770 542.87C1770 542.87 1988.5 525.619 2128.5 514.566C2128.5 533.116 2128.5 562.066 2128.5 562.066L751.204 652.133H506.853ZM751.204 623.304L675.175 110.369L1064.5 85.2084L996.5 603.938L751.204 623.304ZM647.253 113.397L723.282 623.304H303.442L379.471 125.844L647.253 113.397Z" fill="#191E29"/>
<path d="M1425 570.108L1349 66.822L1379 64.8832L1461.5 567.226L1425 570.108Z" fill="#191E29"/>
<path d="M1745 544.844L1817 36.5766L1848 34.5732L1770 542.87L1745 544.844Z" fill="#191E29"/>
<path fill-rule="evenodd" clip-rule="evenodd" d="M772 644.498H19.5117L19.5889 627.915H281.239L359.623 121.063L21.8667 137.548L19.5117 644.498H5.38257L7.0647 123.083L524.849 95.8334L1904.5 7H2153V523.916L2140 524.901L2136.5 19.5L1924 21.5835L1842.5 26.8384L1825 27.9668L1370.5 57.2718L1353.5 58.3679L1090 75.3577L1073 76.4539L668.111 102.56L745.959 627.915L1003 609.099L1025 607.489L1433.5 577.586L1455 576.012L1749.5 554.455L1761.5 553.576L2153 523.916V546.5L772 644.498ZM652.48 103.389L730.347 627.915H296.377L374.037 120.51L652.48 103.389Z" fill="white"/>
<path d="M1003 609.099L1073 76.4539L1090 75.3577L1025 607.489L1003 609.099Z" fill="white"/>
<path d="M1433.5 577.586L1353.5 58.3679L1370.5 57.2718L1455 576.012L1433.5 577.586Z" fill="white"/>
<path d="M1749.5 554.455L1825 27.9668L1842.5 26.8384L1761.5 553.576L1749.5 554.455Z" fill="white"/>
</svg>
