<svg width="403" height="562" viewBox="0 0 403 562" fill="none" xmlns="http://www.w3.org/2000/svg">
<path d="M0 560.762L67.5 20.5L319 0.5L402.926 547.017L0 560.762Z" fill="url(#paint0_radial_236_78492)"/>
<g opacity="0.7">
<path d="M329.088 268.058C330.472 267.923 331.855 268.865 332.107 270.345C332.359 271.825 331.226 273.575 329.843 273.709C328.333 273.979 326.95 272.767 326.698 271.287C326.446 269.672 327.453 268.192 329.088 268.058Z" fill="white"/>
<path d="M326.824 258.503C326.95 259.983 325.944 261.329 324.56 261.463C323.176 261.598 321.919 260.387 321.793 258.907C321.667 257.426 322.673 256.081 324.183 255.946C325.566 255.946 326.699 256.888 326.824 258.503Z" fill="white"/>
<path d="M335.504 312.062C335.629 313.542 334.497 314.888 333.239 315.157C331.73 315.426 330.346 314.215 330.095 312.734C329.843 311.12 330.975 309.639 332.485 309.505C333.994 309.236 335.378 310.447 335.504 312.062Z" fill="white"/>
<path d="M335.504 385.939C333.869 386.208 332.359 384.997 332.233 383.382C331.982 381.767 333.114 380.153 334.623 379.883C336.259 379.614 337.642 380.691 337.894 382.44C338.145 384.19 337.139 385.67 335.504 385.939Z" fill="white"/>
<path d="M339.151 353.239C339.403 354.72 338.271 356.334 336.887 356.603C335.252 356.873 333.868 355.796 333.617 354.047C333.365 352.297 334.371 350.952 335.881 350.682C337.39 350.413 338.9 351.49 339.151 353.239Z" fill="white"/>
<path d="M318.522 204.812C318.774 206.292 317.642 208.042 316.258 208.176C314.749 208.445 313.365 207.234 313.239 205.62C313.113 204.005 314.12 202.525 315.629 202.39C316.887 202.255 318.271 203.332 318.522 204.812Z" fill="white"/>
<path d="M307.705 155.021C306.195 155.29 304.56 153.945 304.308 152.33C303.931 150.58 305.189 148.831 306.95 148.562C308.585 148.293 310.095 149.369 310.346 151.119C310.598 153.003 309.466 154.752 307.705 155.021Z" fill="white"/>
<path d="M311.981 122.052C312.233 124.07 310.975 125.954 309.088 126.224C307.201 126.493 305.44 124.878 305.189 122.859C305.063 120.975 306.195 119.226 308.082 118.957C309.969 118.553 311.604 119.899 311.981 122.052Z" fill="white"/>
<path d="M311.729 464.661C311.478 462.912 312.61 461.431 314.245 461.297C315.88 461.028 317.264 462.239 317.516 463.988C317.641 465.738 316.509 467.218 315 467.487C313.365 467.621 311.981 466.41 311.729 464.661Z" fill="white"/>
<path d="M311.982 160.673C313.743 160.404 315.252 161.884 315.378 163.634C315.504 165.383 314.372 166.863 312.736 167.132C311.101 167.402 309.592 166.191 309.34 164.441C308.963 162.692 310.346 160.808 311.982 160.673Z" fill="white"/>
<path d="M320.534 214.365C321.918 214.23 323.427 215.576 323.553 217.056C323.679 218.671 322.547 220.016 321.037 220.286C319.528 220.42 318.27 219.344 318.019 217.594C318.019 215.979 319.151 214.499 320.534 214.365Z" fill="white"/>
<path d="M307.327 109.807C307.578 111.826 306.32 113.709 304.434 114.113C302.421 114.517 300.786 113.171 300.408 111.018C300.157 109 301.415 107.116 303.302 106.712C305.188 106.308 306.949 107.789 307.327 109.807Z" fill="white"/>
<path d="M336.259 486.999C334.246 487.268 332.359 485.923 331.982 483.769C331.73 481.751 333.114 479.598 335.001 479.194C337.013 478.79 338.9 480.405 339.152 482.558C339.655 484.846 338.397 486.73 336.259 486.999Z" fill="white"/>
<path d="M322.799 459.278C322.547 457.394 323.805 455.779 325.44 455.51C327.201 455.241 328.962 456.721 329.088 458.605C329.214 460.489 327.956 461.969 326.195 462.238C324.434 462.507 323.05 461.296 322.799 459.278Z" fill="white"/>
<path d="M327.579 471.659C327.327 469.64 328.711 467.756 330.598 467.487C332.359 467.218 333.994 468.564 334.371 470.448C334.749 472.601 333.617 474.35 331.604 474.754C329.591 475.023 327.83 473.677 327.579 471.659Z" fill="white"/>
<path d="M348.208 406.662C348.46 408.68 347.076 410.564 345.063 410.699C343.177 410.833 341.667 409.488 341.541 407.469C341.416 405.585 342.673 403.701 344.435 403.567C346.07 403.298 347.957 404.778 348.208 406.662Z" fill="white"/>
<path d="M318.019 447.437C317.767 445.822 318.774 444.073 320.409 443.803C322.044 443.534 323.428 444.611 323.805 446.36C324.057 448.11 323.05 449.59 321.541 449.994C319.78 450.128 318.27 449.052 318.019 447.437Z" fill="white"/>
<path d="M320.283 479.733C318.522 480.137 316.761 478.791 316.51 476.907C316.258 475.023 317.39 473.408 319.151 473.139C320.912 472.87 322.422 473.946 322.799 475.83C323.051 477.714 321.918 479.464 320.283 479.733Z" fill="white"/>
<path d="M338.397 466.275C338.019 463.987 339.277 462.103 341.416 461.834C343.428 461.43 345.315 462.911 345.692 465.064C345.944 467.082 344.56 469.235 342.673 469.639C340.661 470.043 338.648 468.428 338.397 466.275Z" fill="white"/>
<path d="M352.233 447.839C352.611 449.993 351.101 452.28 348.963 452.415C346.95 452.684 345.189 451.204 344.938 448.916C344.686 446.628 345.944 444.879 348.082 444.475C350.095 444.341 351.982 445.686 352.233 447.839Z" fill="white"/>
<path d="M343.931 440.17C342.045 440.439 340.284 438.958 340.032 436.94C339.78 434.921 341.164 433.037 343.051 432.768C345.064 432.499 346.699 433.845 346.95 435.998C347.202 438.016 345.944 439.9 343.931 440.17Z" fill="white"/>
<path d="M350.85 477.309C351.101 479.597 349.592 481.616 347.579 482.019C345.441 482.423 343.303 480.539 343.051 478.386C342.799 476.098 344.435 473.945 346.699 473.676C348.837 473.407 350.598 475.022 350.85 477.309Z" fill="white"/>
<path d="M343.177 394.552C343.428 396.301 342.296 398.05 340.535 398.319C338.774 398.589 337.265 397.512 337.013 395.628C336.761 393.744 337.768 392.129 339.403 391.726C341.164 391.322 342.925 392.668 343.177 394.552Z" fill="white"/>
<path d="M316.384 437.882C315 438.017 313.742 436.806 313.617 435.326C313.491 433.845 314.497 432.5 315.881 432.365C317.264 432.231 318.522 433.172 318.774 434.653C318.9 436.268 317.893 437.748 316.384 437.882Z" fill="white"/>
<path d="M300.031 430.077C299.025 430.212 298.144 429.404 298.018 428.328C297.893 427.251 298.522 426.309 299.528 426.04C300.66 425.771 301.666 426.713 301.792 427.789C301.792 428.866 300.912 429.943 300.031 430.077Z" fill="white"/>
<path d="M296.383 357.546C296.761 357.007 297.012 356.469 297.39 356.469C297.767 356.469 298.27 356.738 298.522 357.007C298.773 357.411 298.27 358.353 297.767 358.218C297.264 358.218 297.012 357.949 296.383 357.546Z" fill="white"/>
<path d="M292.861 345.703C292.735 345.703 292.484 345.434 292.106 345.299C292.358 345.03 292.484 344.627 292.735 344.627C292.861 344.627 293.113 344.896 293.364 345.03C293.239 345.299 293.113 345.703 292.861 345.703Z" fill="white"/>
<path d="M295.377 287.436C295.125 287.166 294.748 286.897 294.748 286.628C294.748 286.359 295 286.09 295.377 285.552C295.754 286.09 296.132 286.359 296.006 286.628C296.006 287.032 295.629 287.301 295.377 287.436Z" fill="white"/>
<path d="M295.755 257.561C295.629 256.889 296.132 256.081 296.761 255.947C297.39 255.812 298.145 256.485 298.145 257.158C298.145 257.831 297.893 258.369 297.138 258.503C296.509 258.907 295.881 258.369 295.755 257.561Z" fill="white"/>
<path d="M310.346 394.013C310.22 392.937 310.975 391.726 311.981 391.456C313.113 391.187 314.371 392.129 314.497 393.34C314.623 394.551 313.994 395.628 312.862 395.897C311.604 396.166 310.472 395.224 310.346 394.013Z" fill="white"/>
<path d="M311.352 425.367C310.094 425.502 308.962 424.56 308.836 423.079C308.711 421.734 309.717 420.523 310.975 420.388C312.233 420.254 313.239 421.196 313.365 422.541C313.616 424.021 312.736 425.233 311.352 425.367Z" fill="white"/>
<path d="M306.447 412.986C305.441 413.121 304.308 412.314 304.183 411.102C304.057 409.891 304.812 408.949 305.944 408.815C306.95 408.68 307.83 409.353 307.956 410.43C308.208 411.641 307.453 412.852 306.447 412.986Z" fill="white"/>
<path d="M305.189 442.592C304.057 442.726 302.799 441.919 302.547 440.708C302.296 439.362 303.176 438.017 304.56 437.882C305.818 437.747 306.824 438.555 306.95 439.9C307.201 441.112 306.321 442.323 305.189 442.592Z" fill="white"/>
<path d="M305.943 381.902C305.818 380.96 306.447 380.018 307.201 379.749C308.208 379.48 309.214 380.152 309.465 381.094C309.717 382.171 309.088 383.248 308.082 383.382C307.075 383.651 306.069 382.844 305.943 381.902Z" fill="white"/>
<path d="M287.578 174.803C287.452 173.592 288.207 172.65 289.339 172.38C290.597 172.246 291.729 173.188 291.729 174.399C291.855 175.476 290.974 176.687 289.842 176.821C288.836 177.09 287.704 176.148 287.578 174.803Z" fill="white"/>
<path d="M283.553 133.356C283.301 131.741 284.433 130.261 285.943 130.126C287.326 129.992 288.584 131.068 288.836 132.549C289.087 134.029 288.081 135.509 286.697 135.778C285.188 136.047 283.804 134.971 283.553 133.356Z" fill="white"/>
<path d="M281.666 124.071C280.157 124.34 278.773 123.398 278.522 121.649C278.27 120.034 279.276 118.554 280.66 118.284C282.044 118.015 283.553 119.226 283.805 120.707C284.182 122.187 283.176 123.802 281.666 124.071Z" fill="white"/>
<path d="M287.075 234.012C286.698 234.012 286.32 233.608 285.691 233.339C286.195 232.801 286.572 232.262 286.823 232.397C287.201 232.397 287.452 232.935 287.704 233.339C287.704 233.473 287.327 234.012 287.075 234.012Z" fill="white"/>
<path d="M290.597 103.482C290.723 105.366 289.465 106.846 287.704 107.115C285.943 107.384 284.433 106.039 284.308 104.155C284.056 102.271 285.314 100.656 286.949 100.387C288.836 99.983 290.471 101.463 290.597 103.482Z" fill="white"/>
<path d="M293.113 82.6235C295 82.2198 297.013 83.8346 297.264 85.9877C297.516 88.1407 296.258 90.0247 294.12 90.2938C292.107 90.563 290.22 88.9482 290.094 86.9297C289.969 85.0457 291.352 83.0272 293.113 82.6235Z" fill="white"/>
<path d="M290.849 374.904C290.849 374.635 291.1 374.501 291.226 374.231C291.478 374.366 291.729 374.501 291.729 374.77C291.729 374.904 291.478 375.173 291.352 375.577C291.1 375.308 290.849 375.039 290.849 374.904Z" fill="white"/>
<path d="M289.968 274.652C290.22 274.382 290.346 273.979 290.597 273.979C290.849 273.979 290.975 274.248 291.226 274.382C291.1 274.652 290.975 274.921 290.723 274.921C290.597 275.19 290.346 274.921 289.968 274.652Z" fill="white"/>
<path d="M290.472 245.72C290.975 245.047 291.352 244.509 291.73 244.239C291.981 244.105 292.61 244.643 292.736 244.912C292.862 245.181 292.484 245.989 292.233 246.123C291.855 246.258 291.352 245.989 290.472 245.72Z" fill="white"/>
<path d="M288.71 205.484C287.955 205.619 287.201 205.081 286.949 204.273C286.697 203.466 287.326 202.389 288.207 202.255C288.962 202.12 289.716 202.658 289.968 203.466C290.094 204.408 289.591 205.35 288.71 205.484Z" fill="white"/>
<path d="M302.295 98.2334C302.547 100.252 301.163 102.136 299.276 102.405C297.389 102.674 295.377 101.194 295.125 99.0408C294.874 96.8877 296.383 95.0037 298.396 94.8692C300.408 94.6 302.169 96.0803 302.295 98.2334Z" fill="white"/>
<path d="M301.667 400.472C300.912 400.607 299.905 399.934 299.78 398.992C299.654 398.05 300.283 397.242 301.163 397.108C302.044 396.973 302.673 397.512 302.799 398.319C303.05 399.261 302.547 400.203 301.667 400.472Z" fill="white"/>
<path d="M314.119 138.201C312.232 138.605 310.471 137.259 310.094 135.24C309.843 133.222 311.226 131.338 312.987 131.069C314.748 130.8 316.384 132.145 316.761 134.029C317.264 136.048 316.132 137.797 314.119 138.201Z" fill="white"/>
<path d="M321.918 146.274C322.17 148.293 320.786 150.176 318.899 150.311C317.138 150.446 315.503 149.1 315.126 147.216C314.748 145.198 316.132 143.314 318.019 143.044C320.157 142.91 321.667 144.121 321.918 146.274Z" fill="white"/>
<path d="M317.516 179.244C315.88 179.513 314.245 178.168 314.119 176.284C313.994 174.534 315 173.054 316.761 172.785C318.522 172.516 320.157 173.861 320.283 175.745C320.283 177.36 319.025 179.109 317.516 179.244Z" fill="white"/>
<path d="M318.648 104.828C318.9 107.116 317.39 109.134 315.377 109.403C313.239 109.672 311.352 108.058 311.101 105.905C310.849 103.617 312.359 101.598 314.371 101.329C316.51 101.06 318.396 102.54 318.648 104.828Z" fill="white"/>
<path d="M325.189 187.586C325.44 189.336 324.183 191.085 322.422 191.22C320.661 191.489 319.277 190.143 319.025 188.259C318.899 186.375 320.157 184.76 321.793 184.626C323.428 184.76 324.937 185.971 325.189 187.586Z" fill="white"/>
<path d="M313.868 92.5823C314.12 94.8699 312.736 96.8884 310.723 97.2921C308.585 97.6958 306.698 96.2156 306.195 93.9279C305.818 91.7749 307.453 89.3527 309.591 88.949C311.604 88.8144 313.617 90.4292 313.868 92.5823Z" fill="white"/>
<path d="M294.622 52.6157C296.886 52.212 298.899 53.8268 299.276 56.1144C299.654 58.4021 298.144 60.6897 296.006 61.0934C293.742 61.4972 291.729 59.8823 291.352 57.4601C290.974 55.1725 292.358 53.0194 294.622 52.6157Z" fill="white"/>
<path d="M292.735 73.8776C292.987 76.0307 291.477 78.0492 289.465 78.3183C287.452 78.5874 285.691 76.9727 285.44 74.8196C285.188 72.5319 286.572 70.7826 288.584 70.5134C290.597 70.2443 292.484 71.8591 292.735 73.8776Z" fill="white"/>
<path d="M308.962 80.4709C309.34 82.8931 307.704 85.0462 305.566 85.3153C303.553 85.5845 301.541 83.8351 301.163 81.8166C300.786 79.5289 302.421 77.3758 304.56 76.9721C306.698 76.703 308.585 78.1832 308.962 80.4709Z" fill="white"/>
<path d="M303.93 68.2256C304.308 70.6478 302.924 72.8009 300.66 73.2046C298.396 73.6083 296.383 71.9935 296.006 69.7059C295.628 67.4182 297.263 65.1306 299.402 64.8614C301.54 64.4577 303.553 66.0725 303.93 68.2256Z" fill="white"/>
<path d="M330.22 199.563C330.472 201.447 329.214 202.927 327.453 203.196C325.692 203.465 324.308 202.254 324.056 200.236C323.805 198.352 325.063 196.737 326.824 196.468C328.459 196.333 330.094 197.679 330.22 199.563Z" fill="white"/>
<path d="M326.07 232.532C324.561 232.801 322.925 231.59 322.674 229.975C322.422 228.226 323.68 226.745 325.315 226.611C326.825 226.476 328.083 227.553 328.334 229.168C328.46 230.782 327.579 232.263 326.07 232.532Z" fill="white"/>
<path d="M341.793 368.984C340.158 369.253 338.523 367.908 338.271 366.158C338.02 364.543 339.152 362.929 340.787 362.525C342.548 362.121 344.058 363.332 344.309 365.216C344.561 367.1 343.429 368.715 341.793 368.984Z" fill="white"/>
<path d="M349.592 376.923C349.969 378.807 348.586 380.691 346.825 380.96C344.938 381.229 343.303 379.883 343.051 377.999C342.8 376.115 344.183 374.231 345.944 374.097C347.705 373.828 349.215 375.173 349.592 376.923Z" fill="white"/>
<path d="M345.566 335.745C345.818 337.36 344.56 339.109 343.051 339.513C341.415 339.917 339.78 338.571 339.529 336.687C339.277 334.938 340.283 333.323 341.919 333.054C343.68 332.65 345.315 333.861 345.566 335.745Z" fill="white"/>
<path d="M287.704 61.7664C287.956 63.9195 286.572 65.8034 284.559 66.2071C282.421 66.4762 280.786 65.1306 280.408 62.9775C280.031 60.8244 281.415 58.8059 283.427 58.4022C285.44 57.9985 287.452 59.6133 287.704 61.7664Z" fill="white"/>
<path d="M354.498 389.303C354.749 391.322 353.366 393.206 351.353 393.34C349.592 393.475 347.957 392.129 347.579 390.245C347.328 388.227 348.586 386.343 350.598 386.074C352.611 385.805 354.246 387.15 354.498 389.303Z" fill="white"/>
<path d="M350.221 422.676C348.334 422.946 346.573 421.465 346.195 419.447C345.818 417.428 347.327 415.275 349.34 415.006C351.227 414.737 352.988 416.083 353.239 418.101C353.617 420.389 352.233 422.407 350.221 422.676Z" fill="white"/>
<path d="M336.887 282.725C337.013 284.34 336.007 285.686 334.497 285.955C332.988 286.224 331.604 285.147 331.352 283.533C331.101 281.918 332.233 280.168 333.742 280.034C335.252 279.765 336.761 280.976 336.887 282.725Z" fill="white"/>
<path d="M338.271 327.402C336.636 327.672 335.252 326.595 335.126 324.711C335.001 323.096 336.007 321.616 337.391 321.347C338.9 321.078 340.535 322.289 340.787 323.904C341.038 325.519 339.906 327.133 338.271 327.402Z" fill="white"/>
<path d="M358.523 430.481C358.774 432.769 357.391 434.788 355.126 434.922C353.114 435.057 351.353 433.577 351.101 431.423C350.85 429.136 352.359 427.117 354.497 426.848C356.51 426.848 358.271 428.328 358.523 430.481Z" fill="white"/>
<path d="M338.648 291.607C340.284 291.338 341.793 292.549 342.045 294.164C342.296 295.913 341.164 297.528 339.655 297.797C338.019 298.067 336.51 296.855 336.258 295.241C335.881 293.626 337.013 291.876 338.648 291.607Z" fill="white"/>
<path d="M282.672 162.961C282.421 161.75 283.301 160.404 284.433 160.269C285.565 160.135 286.823 161.211 286.823 162.423C286.949 163.634 286.068 164.71 284.936 164.845C283.804 164.979 282.798 164.172 282.672 162.961Z" fill="white"/>
<path d="M293.742 447.436C292.735 447.571 291.729 446.764 291.603 445.687C291.478 444.745 292.358 443.534 293.239 443.399C294.245 443.265 295.125 444.072 295.251 445.149C295.503 446.36 294.748 447.302 293.742 447.436Z" fill="white"/>
<path d="M292.484 477.041C291.226 477.176 290.094 476.368 289.968 475.023C289.842 473.811 290.597 472.466 291.729 472.197C292.987 471.928 294.245 472.87 294.37 474.35C294.622 475.83 293.867 476.907 292.484 477.041Z" fill="white"/>
<path d="M289.716 403.164C290.094 403.029 290.597 403.433 290.849 403.702C291.226 404.106 290.723 405.048 290.22 405.048C289.842 405.048 289.465 404.644 288.836 404.375C289.213 403.837 289.465 403.298 289.716 403.164Z" fill="white"/>
<path d="M287.452 464.662C286.446 464.796 285.565 464.123 285.439 462.912C285.314 461.836 286.068 460.759 287.075 460.625C287.955 460.49 289.087 461.432 289.213 462.374C289.213 463.451 288.458 464.527 287.452 464.662Z" fill="white"/>
<path d="M295 417.831C294.245 417.966 293.49 417.293 293.364 416.486C293.239 415.678 293.742 414.871 294.497 414.736C295.251 414.602 296.006 415.14 296.258 415.947C296.509 416.755 295.88 417.697 295 417.831Z" fill="white"/>
<path d="M288.71 434.921C287.956 435.056 287.201 434.383 287.201 433.576C287.075 432.768 287.83 432.095 288.585 432.095C289.339 432.095 289.842 432.634 289.842 433.441C289.842 434.114 289.465 434.652 288.71 434.921Z" fill="white"/>
<path d="M308.711 484.577C307.076 484.846 305.692 483.635 305.44 481.885C305.189 480.136 306.321 478.656 307.956 478.387C309.591 478.118 310.975 479.194 311.227 481.078C311.352 482.827 310.346 484.442 308.711 484.577Z" fill="white"/>
<path d="M303.553 472.466C302.044 472.6 300.912 471.658 300.786 470.044C300.66 468.563 301.541 467.218 302.924 466.949C304.434 466.814 305.817 468.025 305.817 469.505C305.943 471.12 304.937 472.331 303.553 472.466Z" fill="white"/>
<path d="M298.773 459.951C297.515 460.086 296.509 459.278 296.383 457.933C296.258 456.587 297.012 455.511 298.144 455.241C299.402 455.107 300.66 456.183 300.786 457.529C300.912 458.606 300.031 459.817 298.773 459.951Z" fill="white"/>
<path d="M295.251 386.881C295.126 386.208 295.503 385.401 296.258 385.401C296.887 385.266 297.39 385.67 297.516 386.343C297.641 387.016 297.39 387.554 296.761 387.823C296.006 388.092 295.377 387.689 295.251 386.881Z" fill="white"/>
<path d="M266.823 88.0065C265.188 88.2756 263.678 87.0645 263.553 85.3152C263.301 83.5658 264.433 81.951 266.068 81.6818C267.704 81.4127 269.213 82.6238 269.465 84.3732C269.59 86.1225 268.458 87.7374 266.823 88.0065Z" fill="white"/>
<path d="M268.584 97.2911C268.458 95.6763 269.464 94.196 270.848 93.9269C272.483 93.6577 273.867 94.7343 274.119 96.4837C274.37 98.233 273.364 99.5787 271.854 99.8478C270.219 100.252 268.835 99.0404 268.584 97.2911Z" fill="white"/>
<path d="M278.521 46.1564C280.66 45.8872 282.547 47.5021 282.798 49.6551C283.05 51.9428 281.666 53.9613 279.528 54.2304C277.389 54.4996 275.502 52.8847 275.251 50.7317C274.873 48.444 276.383 46.4255 278.521 46.1564Z" fill="white"/>
<path d="M307.327 452.551C307.202 450.936 308.082 449.725 309.466 449.59C310.975 449.321 312.359 450.532 312.485 452.147C312.61 453.627 311.478 454.973 310.095 455.107C308.711 455.107 307.579 454.031 307.327 452.551Z" fill="white"/>
<path d="M276.131 67.2829C276.257 69.1669 274.873 71.0508 273.238 71.3199C271.351 71.5891 269.59 70.1088 269.465 68.0903C269.213 66.0718 270.471 64.457 272.358 64.1878C274.119 63.7841 275.88 65.2644 276.131 67.2829Z" fill="white"/>
<path d="M267.075 51.9422C268.961 51.5385 270.848 53.0187 271.1 55.0372C271.477 57.0558 270.219 58.9397 268.207 59.3434C266.194 59.7471 264.559 58.4014 264.181 56.3829C263.93 54.0953 265.188 52.2113 267.075 51.9422Z" fill="white"/>
<path d="M261.666 76.2992C260.031 76.4338 258.647 75.3573 258.395 73.6079C258.144 71.7239 259.402 69.9746 261.037 69.84C262.546 69.7055 264.182 71.0511 264.433 72.6659C264.685 74.4153 263.427 76.0301 261.666 76.2992Z" fill="white"/>
<path d="M283.553 193.373C282.798 193.508 282.043 192.835 281.918 192.028C281.792 191.22 282.295 190.413 283.05 190.278C283.805 190.144 284.559 190.682 284.811 191.355C285.062 192.297 284.433 193.239 283.553 193.373Z" fill="white"/>
<path d="M273.49 109.537C273.238 107.788 274.244 106.442 275.754 106.173C277.389 105.904 278.899 107.115 279.024 108.865C279.15 110.345 277.892 111.96 276.509 112.094C274.999 112.229 273.615 111.152 273.49 109.537Z" fill="white"/>
<path d="M281.54 221.095C281.54 220.96 281.792 220.691 282.043 220.153C282.295 220.556 282.672 220.691 282.672 220.96C282.672 221.095 282.421 221.364 282.295 221.633C282.043 221.498 281.666 221.364 281.54 221.095Z" fill="white"/>
<path d="M280.408 152.733C279.402 153.002 278.018 152.195 277.767 150.984C277.515 149.773 278.396 148.427 279.528 148.293C280.66 148.023 281.666 148.696 281.918 149.907C282.295 151.118 281.541 152.33 280.408 152.733Z" fill="white"/>
<path d="M330.346 238.453C331.856 238.318 333.114 239.395 333.365 241.01C333.617 242.759 332.611 244.239 330.975 244.508C329.34 244.778 327.831 243.566 327.705 241.817C327.579 240.337 328.711 238.722 330.346 238.453Z" fill="white"/>
<path d="M233.615 29.6048C233.867 31.4888 232.735 33.1036 230.974 33.3727C229.213 33.6419 227.703 32.4307 227.451 30.6814C227.2 28.7974 228.458 26.9135 230.219 26.7789C231.854 26.3752 233.364 27.7209 233.615 29.6048Z" fill="white"/>
<path d="M343.68 532.079C346.07 531.675 348.334 533.559 348.586 536.116C348.963 538.673 347.202 541.095 344.812 541.364C342.422 541.633 340.158 539.884 339.906 537.327C339.529 534.771 341.164 532.348 343.68 532.079Z" fill="white"/>
<path d="M316.51 531.002C318.648 530.733 320.535 532.483 320.661 534.636C320.786 536.923 319.277 538.807 317.139 539.076C315.126 539.211 313.365 537.731 313.113 535.578C312.862 533.156 314.245 531.272 316.51 531.002Z" fill="white"/>
<path d="M245.565 69.0327C244.181 69.1673 242.671 67.8216 242.546 66.3413C242.42 64.7265 243.552 63.3809 245.061 63.1117C246.571 62.9772 247.829 64.0537 248.08 65.8031C248.206 67.4179 246.948 68.8981 245.565 69.0327Z" fill="white"/>
<path d="M250.093 75.3575C251.477 75.2229 252.735 76.2994 252.986 77.7797C253.238 79.3945 251.98 80.8747 250.47 81.0093C249.087 81.1439 247.829 79.9328 247.703 78.4525C247.577 76.8377 248.583 75.4921 250.093 75.3575Z" fill="white"/>
<path d="M226.194 89.3524C225.942 88.545 226.571 87.4684 227.451 87.3339C228.206 87.1993 228.961 87.7376 229.213 88.545C229.464 89.4869 228.961 90.4289 227.955 90.5635C227.2 90.5635 226.445 90.1598 226.194 89.3524Z" fill="white"/>
<path d="M228.206 549.035C227.703 549.035 227.325 548.497 226.696 548.093C227.199 547.42 227.325 546.882 227.828 546.613C228.457 546.209 229.212 546.747 229.338 547.555C229.464 548.227 228.835 549.169 228.206 549.035Z" fill="white"/>
<path d="M224.055 44.6766C225.439 44.542 226.696 45.6186 226.948 47.0988C227.2 48.7136 225.942 50.1939 224.432 50.1939C223.049 50.3284 221.791 49.1173 221.665 47.6371C221.539 46.1569 222.545 44.9457 224.055 44.6766Z" fill="white"/>
<path d="M224.935 14.3989C226.696 13.9951 228.709 15.61 228.835 17.4939C229.086 19.3779 227.703 21.1272 225.942 21.3964C224.055 21.6655 222.545 20.4544 222.294 18.4359C221.916 16.5519 223.174 14.668 224.935 14.3989Z" fill="white"/>
<path d="M226.445 59.613C226.319 58.2674 227.326 57.0562 228.584 56.7871C229.967 56.518 231.099 57.4599 231.351 58.8056C231.603 60.2859 230.722 61.7661 229.338 61.9007C227.955 62.1698 226.571 60.9587 226.445 59.613Z" fill="white"/>
<path d="M224.307 76.568C224.433 77.51 223.804 78.4519 223.049 78.5865C222.043 78.8556 221.162 78.0482 220.911 76.9717C220.785 76.0297 221.288 75.2223 222.294 74.9532C223.301 74.8186 224.181 75.4915 224.307 76.568Z" fill="white"/>
<path d="M252.483 90.5645C252.357 89.0842 253.49 87.7386 254.747 87.604C256.131 87.4694 257.389 88.6805 257.389 90.1608C257.515 91.641 256.634 92.7176 255.251 92.9867C253.993 93.1213 252.609 92.0447 252.483 90.5645Z" fill="white"/>
<path d="M257.767 160.807C257.641 161.077 257.515 161.346 257.264 161.346C257.138 161.346 256.886 161.077 256.509 160.942C256.76 160.673 256.886 160.269 257.138 160.269C257.389 160.269 257.641 160.673 257.767 160.807Z" fill="white"/>
<path d="M325.315 361.582C323.931 361.717 322.925 360.909 322.673 359.429C322.421 357.949 323.428 356.469 324.811 356.334C325.943 356.199 327.327 357.276 327.579 358.487C327.704 359.967 326.698 361.448 325.315 361.582Z" fill="white"/>
<path d="M294.622 315.964C294.622 316.099 294.37 316.368 294.245 316.771C293.993 316.502 293.616 316.233 293.616 316.099C293.616 315.964 293.867 315.56 293.993 315.56C294.245 315.426 294.622 315.695 294.622 315.964Z" fill="white"/>
<path d="M301.541 198.218C301.792 199.563 301.037 200.64 299.779 200.909C298.522 201.044 297.389 200.102 297.389 198.891C297.264 197.679 298.396 196.334 299.402 196.334C300.408 196.199 301.415 197.007 301.541 198.218Z" fill="white"/>
<path d="M293.364 157.578C293.113 155.963 294.119 154.752 295.503 154.483C296.886 154.214 298.27 155.156 298.522 156.636C298.773 158.251 297.767 159.731 296.257 160C294.874 160.135 293.616 159.058 293.364 157.578Z" fill="white"/>
<path d="M324.183 329.825C323.931 328.344 324.937 326.864 326.321 326.73C327.453 326.595 328.837 327.672 329.088 329.017C329.34 330.497 328.334 331.843 326.824 331.978C325.441 332.112 324.308 331.305 324.183 329.825Z" fill="white"/>
<path d="M278.269 83.2967C276.383 83.5658 274.873 82.3547 274.496 80.4707C274.244 78.5868 275.376 76.7028 277.137 76.2991C278.898 75.8954 280.911 77.3757 281.163 79.3942C281.288 81.1436 280.031 82.893 278.269 83.2967Z" fill="white"/>
<path d="M275.251 140.623C274.119 140.892 272.861 140.085 272.61 138.874C272.358 137.797 273.239 136.317 274.371 136.048C275.503 135.779 276.635 136.586 276.886 137.932C277.264 139.143 276.509 140.354 275.251 140.623Z" fill="white"/>
<path d="M277.641 208.983C277.515 209.252 277.389 209.521 277.138 209.521C277.012 209.521 276.76 209.252 276.383 209.118C276.634 208.849 276.76 208.445 277.012 208.445C277.263 208.445 277.515 208.849 277.641 208.983Z" fill="white"/>
<path d="M285.565 90.9668C285.817 92.8507 284.685 94.7347 282.798 95.0038C281.037 95.2729 279.276 93.9272 279.15 92.0433C278.899 90.1594 280.031 88.5446 281.792 88.2754C283.679 87.8717 285.314 89.0828 285.565 90.9668Z" fill="white"/>
<path d="M207.954 69.7056C208.079 70.513 207.576 71.3204 206.822 71.455C206.193 71.5895 205.564 71.0512 205.438 70.2438C205.312 69.4364 205.689 68.8982 206.444 68.7636C207.073 68.6291 207.702 69.0327 207.954 69.7056Z" fill="white"/>
<path d="M362.296 358.084C362.045 358.218 361.667 358.084 361.542 357.815C360.284 356.469 359.906 355.123 360.661 353.374C360.787 352.97 361.164 352.836 361.416 352.432C361.667 352.836 361.919 353.105 362.045 353.509C362.171 354.047 362.171 354.585 362.296 354.989C362.422 355.662 362.548 356.469 362.548 357.142C362.548 357.546 362.422 357.949 362.296 358.084Z" fill="white"/>
<path d="M347.579 251.909C346.07 252.179 344.435 251.237 343.931 249.622C343.428 248.007 343.931 246.123 345.315 245.316C347.076 244.239 348.46 244.777 348.711 246.93C348.711 247.2 348.837 247.603 348.837 247.872C348.963 248.545 348.963 249.084 349.089 249.756C349.089 250.968 348.586 251.64 347.579 251.909Z" fill="white"/>
<path d="M330.472 145.197C328.459 145.466 326.572 144.121 326.321 141.968C325.943 139.815 327.453 137.662 329.465 137.258C331.604 136.989 333.491 138.469 333.616 140.891C333.868 143.179 332.484 144.928 330.472 145.197Z" fill="white"/>
<path d="M343.051 210.598C341.541 210.598 340.032 209.387 339.78 207.772C339.529 206.291 340.158 204.542 341.416 203.869C342.422 203.331 343.051 203.466 343.302 204.811C343.428 205.484 343.428 206.291 343.554 206.964C343.554 206.964 343.554 206.964 343.428 206.964C343.554 208.041 343.68 208.983 343.805 210.059C343.805 210.194 343.302 210.598 343.051 210.598Z" fill="white"/>
<path d="M368.46 408.277C368.586 408.277 368.712 408.143 368.837 408.143C368.963 408.815 368.963 409.488 369.089 410.161C368.963 410.161 368.963 410.161 368.837 410.161C368.712 409.488 368.586 408.815 368.46 408.277Z" fill="white"/>
<path d="M366.322 430.211C364.057 430.48 362.171 428.865 361.919 426.309C361.667 424.021 363.177 422.002 365.315 421.733C367.454 421.464 369.592 423.214 369.844 425.501C370.221 427.789 368.586 429.942 366.322 430.211Z" fill="white"/>
<path d="M332.736 121.918C332.988 123.667 333.491 124.744 332.862 125.955C332.107 124.879 331.856 123.802 332.736 121.918Z" fill="white"/>
<path d="M309.968 548.362C311.729 548.093 313.491 549.17 314.119 550.785L306.824 551.054C307.327 549.708 308.459 548.631 309.968 548.362Z" fill="white"/>
<path d="M319.025 22.3374C316.761 22.472 314.623 20.4534 314.371 17.7621C314.119 15.609 315 13.7251 316.635 12.6485L319.025 12.7831C319.025 12.7831 319.025 12.7831 319.025 12.9177C319.403 15.609 319.78 18.4349 320.032 21.2608C320.157 22.0682 319.654 22.3374 319.025 22.3374Z" fill="white"/>
<path d="M377.014 483.096C375.504 484.172 373.366 484.307 371.856 483.23C370.221 482.154 369.466 479.866 369.97 477.848C370.473 475.964 372.234 474.483 373.995 474.349C376.133 474.214 377.391 475.291 377.768 477.444C377.768 477.848 377.894 478.251 377.894 478.655C378.02 479.328 378.02 479.866 378.146 480.539C378.397 481.616 377.768 482.423 377.014 483.096Z" fill="white"/>
<path d="M221.916 35.2562C222.042 36.871 220.91 38.3513 219.401 38.4859C218.017 38.6204 216.507 37.4093 216.382 35.7945C216.256 34.0452 217.388 32.5649 219.023 32.4303C220.658 32.2958 221.791 33.5069 221.916 35.2562Z" fill="white"/>
<path d="M210.848 52.8851C210.596 51.5394 211.351 50.4628 212.609 50.1937C213.741 50.0591 214.999 51.0011 214.999 52.2122C215.124 53.2888 214.244 54.4999 213.237 54.769C212.231 55.1727 210.973 54.2307 210.848 52.8851Z" fill="white"/>
<path d="M217.136 23.0106C217.262 24.76 216.13 26.2402 214.495 26.5093C212.86 26.6439 211.476 25.4328 211.224 23.6835C211.099 21.9341 212.231 20.4538 213.866 20.1847C215.501 19.9156 217.011 21.2612 217.136 23.0106Z" fill="white"/>
<path d="M216.507 93.3895C216.633 93.3895 216.885 93.6586 217.011 93.9277C216.759 94.1969 216.633 94.466 216.382 94.6006C216.256 94.6006 216.004 94.3315 215.627 94.0623C215.879 93.6586 216.13 93.3895 216.507 93.3895Z" fill="white"/>
<path d="M296.006 14.6673C296.383 17.3586 294.874 19.9154 292.358 20.3191C289.968 20.7228 287.452 18.9735 287.075 16.2821C286.698 14.129 287.704 12.1105 289.465 11.1685L294.245 11.4377C295.125 12.2451 295.754 13.3216 296.006 14.6673Z" fill="white"/>
<path d="M216.004 64.9958C215.878 64.0539 216.507 62.9773 217.514 62.7082C218.646 62.4391 219.652 63.1119 219.778 64.323C219.904 65.3995 219.401 66.3415 218.394 66.6107C217.388 67.0144 216.13 66.0724 216.004 64.9958Z" fill="white"/>
<path d="M216.634 552.669C216.885 552.803 217.137 553.072 217.388 553.207C217.263 553.476 217.137 553.88 216.885 553.88C216.634 553.88 216.256 553.611 215.879 553.476C216.256 552.938 216.508 552.534 216.634 552.669Z" fill="white"/>
<path d="M207.451 38.3512C208.709 38.082 209.967 38.8895 210.218 40.3697C210.47 41.7154 209.589 43.061 208.331 43.3302C207.073 43.5993 205.816 42.6573 205.69 41.1771C205.438 39.8314 206.193 38.6203 207.451 38.3512Z" fill="white"/>
<path d="M303.05 269C303.176 269.807 302.673 270.614 301.792 270.749C301.037 270.749 300.534 270.48 300.283 269.673C300.031 268.865 300.534 268.058 301.289 267.789C302.044 267.519 302.799 268.058 303.05 269Z" fill="white"/>
<path d="M208.96 7.80442C210.596 7.53529 212.231 8.7464 212.482 10.6303C212.734 12.5143 211.602 14.1291 209.841 14.3982C208.08 14.6674 206.57 13.4563 206.319 11.5723C206.067 9.82296 207.325 8.07356 208.96 7.80442Z" fill="white"/>
<path d="M211.35 83.1628C210.973 83.0283 210.596 82.6246 210.47 82.2209C210.47 81.9518 210.847 81.4135 211.099 80.8752C211.602 81.2789 211.979 81.548 212.105 81.9517C212.482 82.49 211.853 83.2974 211.35 83.1628Z" fill="white"/>
<path d="M319.654 417.832C319.528 416.217 320.66 414.871 322.17 414.737C323.679 414.602 324.937 415.813 325.063 417.562C325.063 419.043 324.057 420.388 322.673 420.523C321.289 420.657 319.78 419.312 319.654 417.832Z" fill="white"/>
<path d="M305.314 139.682C305.566 141.566 304.182 143.18 302.547 143.315C301.037 143.449 299.402 142.104 299.15 140.489C298.899 138.74 300.157 136.99 301.792 136.721C303.679 136.587 305.062 137.798 305.314 139.682Z" fill="white"/>
<path d="M305.566 178.705C306.949 178.436 308.333 179.378 308.585 180.858C308.962 182.473 307.83 183.953 306.446 184.222C305.063 184.491 303.805 183.415 303.553 181.935C303.302 180.32 304.182 178.974 305.566 178.705Z" fill="white"/>
<path d="M301.415 171.977C299.906 172.246 298.773 171.17 298.522 169.69C298.27 168.209 299.151 166.729 300.534 166.46C302.044 166.191 303.428 167.267 303.679 168.882C303.805 170.497 302.799 171.843 301.415 171.977Z" fill="white"/>
<path d="M310.472 190.412C311.856 190.278 313.114 191.22 313.491 192.7C313.743 194.18 312.862 195.66 311.478 195.93C309.969 196.333 308.459 195.257 308.208 193.642C307.831 192.162 308.963 190.547 310.472 190.412Z" fill="white"/>
<path d="M319.151 243.97C320.409 243.97 321.541 244.912 321.667 246.392C321.793 248.007 320.786 249.218 319.403 249.218C318.145 249.353 316.887 248.276 316.761 246.93C316.635 245.585 317.893 244.105 319.151 243.97Z" fill="white"/>
<path d="M316.887 234.147C317.139 235.493 316.258 236.838 315 237.107C313.742 237.377 312.485 236.435 312.233 234.954C311.981 233.609 312.862 232.263 314.12 231.994C315.378 231.859 316.636 232.667 316.887 234.147Z" fill="white"/>
<path d="M296.635 228.092C296.509 227.015 297.012 226.208 297.893 226.073C298.773 225.939 299.654 226.477 299.905 227.419C300.157 228.361 299.402 229.572 298.396 229.707C297.515 229.841 296.761 229.168 296.635 228.092Z" fill="white"/>
<path d="M300.66 127.301C300.912 129.05 299.78 130.799 298.019 131.068C296.257 131.338 294.748 130.261 294.496 128.377C294.245 126.493 295.377 124.878 297.012 124.609C298.647 124.34 300.408 125.686 300.66 127.301Z" fill="white"/>
<path d="M294.999 188.663C293.867 188.798 292.735 187.856 292.609 186.51C292.484 185.299 293.238 184.357 294.37 184.088C295.628 183.953 296.76 184.895 296.76 186.106C296.886 187.452 296.006 188.528 294.999 188.663Z" fill="white"/>
<path d="M288.459 145.602C288.207 144.122 289.088 142.641 290.471 142.372C291.981 141.969 293.365 143.18 293.616 144.795C293.742 146.275 292.861 147.62 291.478 147.89C289.968 148.024 288.71 147.082 288.459 145.602Z" fill="white"/>
<path d="M292.232 112.499C293.993 112.23 295.503 113.576 295.755 115.46C295.88 117.209 294.622 118.958 292.987 119.227C291.226 119.497 289.842 118.151 289.591 116.267C289.213 114.248 290.346 112.768 292.232 112.499Z" fill="white"/>
<path d="M329.088 442.054C328.962 440.304 330.22 438.555 331.856 438.286C333.617 438.017 335.252 439.362 335.503 441.381C335.629 443.265 334.497 444.745 332.736 445.014C330.849 445.418 329.214 444.072 329.088 442.054Z" fill="white"/>
<path d="M337.642 457.26C335.881 457.529 334.245 456.183 333.868 454.299C333.491 452.146 334.623 450.397 336.635 449.993C338.522 449.589 340.409 450.935 340.661 453.088C340.912 454.972 339.528 456.991 337.642 457.26Z" fill="white"/>
<path d="M299.276 329.017C299.025 329.152 298.522 328.748 298.019 328.479C298.396 327.941 298.647 327.402 298.899 327.268C299.402 326.999 300.157 327.537 300.031 328.075C300.031 328.344 299.654 328.883 299.276 329.017Z" fill="white"/>
<path d="M341.667 423.887C341.919 425.905 340.535 427.52 338.774 427.789C337.013 427.924 335.252 426.444 335.126 424.56C335.001 422.81 336.258 421.061 337.894 420.792C339.781 420.523 341.542 422.003 341.667 423.887Z" fill="white"/>
<path d="M317.641 408.142C316.384 408.277 315.126 407.2 315 405.854C314.748 404.509 315.629 403.163 317.012 403.028C318.396 402.759 319.78 403.836 319.906 405.316C319.906 406.527 318.899 407.873 317.641 408.142Z" fill="white"/>
<path d="M324.183 429.942C324.057 428.193 325.315 426.713 326.824 426.578C328.459 426.444 329.843 427.655 330.095 429.269C330.346 431.019 329.214 432.634 327.579 432.903C325.944 433.172 324.308 431.692 324.183 429.942Z" fill="white"/>
<path d="M325.44 287.705C325.566 289.051 324.56 290.397 323.302 290.531C322.044 290.666 320.786 289.724 320.661 288.244C320.535 286.898 321.541 285.552 322.799 285.418C324.057 285.283 325.315 286.36 325.44 287.705Z" fill="white"/>
<path d="M334.12 341.127C334.372 342.742 333.239 344.222 331.73 344.357C330.221 344.492 328.837 343.28 328.837 341.666C328.837 340.185 329.843 338.84 331.227 338.705C332.736 338.571 333.994 339.647 334.12 341.127Z" fill="white"/>
<path d="M327.453 297.528C328.837 297.393 329.843 298.201 330.095 299.681C330.346 301.161 329.466 302.641 328.082 302.91C326.698 303.18 325.315 301.968 325.189 300.623C325.063 299.008 326.069 297.662 327.453 297.528Z" fill="white"/>
<path d="M336.51 411.91C336.636 413.794 335.378 415.274 333.617 415.409C331.981 415.543 330.598 414.332 330.472 412.448C330.346 410.699 331.478 409.084 333.113 408.95C334.623 408.68 336.384 410.161 336.51 411.91Z" fill="white"/>
<path d="M330.346 373.693C328.962 373.962 327.453 372.616 327.201 371.136C327.076 369.521 328.208 368.041 329.591 367.907C331.101 367.772 332.485 368.983 332.485 370.598C332.736 372.078 331.73 373.424 330.346 373.693Z" fill="white"/>
<path d="M316.258 303.449C317.39 303.314 318.396 304.122 318.522 305.333C318.648 306.544 317.767 307.62 316.761 307.755C315.629 307.889 314.748 307.082 314.623 305.871C314.371 304.525 315.126 303.583 316.258 303.449Z" fill="white"/>
<path d="M317.767 273.575C318.899 273.441 320.031 274.383 320.157 275.594C320.409 276.939 319.654 278.016 318.396 278.285C317.264 278.554 316.006 277.747 315.755 276.536C315.503 275.19 316.509 273.71 317.767 273.575Z" fill="white"/>
<path d="M323.679 317.175C323.931 318.655 323.05 320.001 321.793 320.136C320.66 320.27 319.528 319.328 319.277 318.117C319.151 316.906 319.906 315.695 321.164 315.426C322.422 315.022 323.428 315.829 323.679 317.175Z" fill="white"/>
<path d="M324.057 391.053C322.673 391.188 321.415 390.111 321.164 388.765C320.912 387.285 321.918 385.94 323.302 385.67C324.812 385.401 325.944 386.343 326.195 387.958C326.447 389.438 325.44 390.784 324.057 391.053Z" fill="white"/>
<path d="M318.145 347.319C317.894 345.973 318.648 344.762 319.78 344.493C320.912 344.224 322.296 345.3 322.422 346.646C322.548 347.857 321.667 349.068 320.535 349.203C319.277 349.337 318.271 348.665 318.145 347.319Z" fill="white"/>
<path d="M302.925 238.05C303.931 237.915 304.811 238.588 305.063 239.665C305.189 240.607 304.686 241.548 303.805 241.818C302.925 242.087 301.792 241.414 301.541 240.337C301.289 239.261 301.918 238.184 302.925 238.05Z" fill="white"/>
<path d="M331.605 400.068C331.73 401.548 330.598 403.163 329.215 403.432C327.705 403.702 326.322 402.625 326.07 401.01C325.818 399.261 326.699 397.915 328.208 397.646C329.844 397.242 331.353 398.319 331.605 400.068Z" fill="white"/>
<path d="M307.705 250.025C308.711 249.891 309.843 250.833 309.969 251.909C310.095 253.121 309.214 254.062 307.956 254.062C306.95 254.062 306.195 253.255 306.069 252.179C306.069 251.102 306.698 250.16 307.705 250.025Z" fill="white"/>
<path d="M315.126 264.021C315.126 265.232 314.371 266.174 313.239 266.309C312.107 266.443 311.1 265.636 310.975 264.425C310.849 263.214 311.604 262.137 312.736 262.002C313.868 261.733 315 262.675 315.126 264.021Z" fill="white"/>
<path d="M304.182 208.444C305.44 208.31 306.446 208.983 306.572 210.463C306.698 211.808 305.943 213.02 304.685 213.154C303.553 213.289 302.295 212.347 302.169 211.136C302.169 209.79 302.924 208.579 304.182 208.444Z" fill="white"/>
<path d="M309.214 220.286C310.472 220.152 311.604 221.228 311.73 222.574C311.855 223.919 310.975 224.861 309.591 224.996C308.333 225.131 307.327 224.189 307.201 222.843C307.201 221.766 308.082 220.555 309.214 220.286Z" fill="white"/>
<path d="M309.968 293.894C309.717 292.952 310.346 291.741 311.226 291.472C312.107 291.203 313.239 291.876 313.491 292.818C313.742 293.894 313.239 294.971 312.233 295.24C311.226 295.509 310.22 294.971 309.968 293.894Z" fill="white"/>
<path d="M305.943 311.927C305.189 312.196 304.434 311.792 304.182 310.985C303.931 310.177 304.434 309.235 305.063 309.101C305.818 308.832 306.572 309.37 306.824 310.177C306.95 310.985 306.698 311.658 305.943 311.927Z" fill="white"/>
<path d="M305.188 281.649C305.062 280.707 305.566 279.765 306.32 279.496C307.075 279.361 308.081 279.9 308.333 280.842C308.584 281.784 307.956 282.726 307.075 282.86C306.195 283.264 305.314 282.726 305.188 281.649Z" fill="white"/>
<path d="M308.962 353.778C308.082 353.778 307.327 353.105 307.201 352.164C307.075 351.087 307.83 350.28 308.962 350.145C309.843 350.145 310.597 350.818 310.597 351.894C310.597 352.971 309.843 353.778 308.962 353.778Z" fill="white"/>
<path d="M302.924 371.002C302.17 371.136 301.415 370.598 301.289 369.791C301.163 368.983 301.792 368.176 302.547 368.176C303.302 368.041 303.805 368.445 303.931 369.252C304.056 370.06 303.679 370.867 302.924 371.002Z" fill="white"/>
<path d="M318.899 378.673C317.642 378.807 316.635 377.865 316.384 376.654C316.132 375.309 316.887 374.232 318.145 373.963C319.528 373.694 320.66 374.77 320.786 376.116C321.038 377.327 320.157 378.538 318.899 378.673Z" fill="white"/>
<path d="M303.931 341.532C303.176 341.532 302.673 341.129 302.547 340.321C302.421 339.514 303.05 338.706 303.805 338.706C304.559 338.706 305.063 339.11 305.188 339.917C305.44 340.725 304.811 341.532 303.931 341.532Z" fill="white"/>
<path d="M313.239 335.073C313.113 333.996 313.994 332.785 315 332.651C316.132 332.516 317.013 333.458 317.139 334.669C317.264 335.746 316.635 336.688 315.503 336.822C314.371 336.957 313.365 336.149 313.239 335.073Z" fill="white"/>
<path d="M314.245 366.157C313.239 366.426 312.107 365.484 311.981 364.407C311.73 363.196 312.484 362.12 313.616 361.985C314.748 361.851 315.755 362.523 315.881 363.734C316.132 364.811 315.377 366.022 314.245 366.157Z" fill="white"/>
<path d="M310.22 324.441C309.34 324.441 308.585 323.769 308.585 322.827C308.585 321.75 309.088 320.943 309.969 320.943C310.975 320.808 311.855 321.75 311.855 322.692C311.855 323.634 311.101 324.441 310.22 324.441Z" fill="white"/>
<path d="M299.402 298.874C299.276 298.201 299.78 297.663 300.409 297.798C300.786 297.798 301.289 298.336 301.415 298.605C301.415 299.143 301.037 299.547 300.66 300.354C300.031 299.682 299.528 299.413 299.402 298.874Z" fill="white"/>
<path d="M291.729 216.384C291.477 215.442 292.106 214.5 292.987 214.366C293.867 214.231 294.748 214.904 294.873 215.846C294.999 216.653 294.245 217.73 293.364 217.73C292.609 217.864 291.855 217.192 291.729 216.384Z" fill="white"/>
<path d="M249.967 36.3324C250.093 38.351 248.71 40.1003 246.823 40.2349C244.936 40.3695 243.552 39.0238 243.301 37.0053C243.175 35.1213 244.433 33.372 246.194 33.1028C247.955 32.8337 249.842 34.4485 249.967 36.3324Z" fill="white"/>
<path d="M303.428 15.6094C301.038 15.8785 298.773 14.1291 298.145 11.7069L307.327 12.1106C306.698 13.9946 305.314 15.4748 303.428 15.6094Z" fill="white"/>
<path d="M252.358 15.6092C254.496 15.3401 256.383 16.8203 256.634 19.108C256.886 21.3956 255.376 23.4141 253.238 23.6833C251.225 23.9524 249.464 22.4722 249.087 20.3191C248.835 17.8969 250.219 15.8784 252.358 15.6092Z" fill="white"/>
<path d="M268.207 13.7257C268.458 16.148 266.823 18.1665 264.559 18.4356C262.295 18.7047 260.408 17.0899 260.03 14.6677C259.779 12.3801 261.037 10.4961 263.049 9.95787L265.565 10.0924C267.075 10.6307 268.081 11.9764 268.207 13.7257Z" fill="white"/>
<path d="M239.778 544.459C239.024 544.594 238.017 543.921 237.892 542.979C237.766 542.172 238.395 541.364 239.149 541.23C239.904 541.095 240.659 541.499 240.911 542.306C241.162 543.114 240.659 544.19 239.778 544.459Z" fill="white"/>
<path d="M245.314 24.2221C245.439 26.2406 244.056 28.1245 242.169 28.2591C240.282 28.3937 238.521 26.9134 238.395 24.8949C238.269 22.8764 239.653 20.9924 241.54 20.8579C243.427 20.7233 245.062 22.2036 245.314 24.2221Z" fill="white"/>
<path d="M236.131 112.767C236.634 112.229 236.886 111.825 237.263 111.691C237.892 111.556 238.395 111.825 238.521 112.633C238.521 113.306 238.143 113.979 237.515 113.844C237.137 113.844 236.76 113.306 236.131 112.767Z" fill="white"/>
<path d="M234.244 73.8773C232.986 74.0119 231.854 72.9354 231.854 71.4551C231.854 70.1094 232.735 69.1674 233.992 69.0329C235.25 68.8983 236.257 69.8403 236.382 71.0514C236.508 72.3971 235.502 73.7427 234.244 73.8773Z" fill="white"/>
<path d="M232.734 102.137C232.105 102.137 231.476 101.598 231.476 100.791C231.351 99.9836 231.854 99.4454 232.608 99.3108C233.237 99.1762 233.992 99.7145 234.118 100.387C234.118 101.195 233.489 102.002 232.734 102.137Z" fill="white"/>
<path d="M236.382 8.88158C238.143 8.61244 240.03 10.2272 240.407 12.1112C240.785 14.1297 239.275 16.2828 237.388 16.5519C235.25 16.821 233.615 15.4754 233.237 13.1877C232.986 11.1692 234.495 9.15071 236.382 8.88158Z" fill="white"/>
<path d="M233.867 530.734C233.741 530.464 234.118 530.061 234.37 529.657C234.747 530.061 235.25 530.33 235.25 530.599C235.25 530.868 234.873 531.137 234.622 531.541C234.244 531.272 233.867 531.003 233.867 530.734Z" fill="white"/>
<path d="M276.131 13.457C273.993 13.7262 272.106 12.515 271.477 10.362L279.528 10.7657C278.773 12.2459 277.641 13.1879 276.131 13.457Z" fill="white"/>
<path d="M317.516 33.9108C317.767 36.6021 316.006 39.0244 313.491 39.4281C310.849 39.8318 308.459 37.8133 308.207 34.9873C307.956 32.296 309.717 29.8738 312.233 29.6046C315 29.0664 317.264 31.0849 317.516 33.9108Z" fill="white"/>
<path d="M338.019 163.365C338.271 165.115 338.522 166.998 338.774 169.286C335.881 167.537 335.378 165.384 336.761 163.231C336.887 162.961 337.39 162.827 337.642 162.692C337.768 162.692 338.019 163.096 338.019 163.365Z" fill="white"/>
<path d="M345.189 235.762C345.441 237.646 344.057 239.53 342.296 239.665C340.409 239.934 338.9 238.453 338.648 236.57C338.522 234.82 339.655 233.071 341.416 232.802C343.177 232.398 344.938 233.878 345.189 235.762Z" fill="white"/>
<path d="M341.919 194.45C342.044 196.334 340.787 198.083 339.026 198.352C337.013 198.756 335.378 197.41 335.126 195.257C334.875 193.239 336.132 191.355 338.145 191.086C339.906 190.951 341.667 192.431 341.919 194.45Z" fill="white"/>
<path d="M331.101 108.73C331.227 109.807 331.352 111.018 331.478 112.094C331.604 113.171 331.73 114.113 331.856 115.189C331.981 116.131 331.478 116.535 330.598 116.401C328.711 116.266 327.076 114.517 326.95 112.364C326.824 110.345 328.208 108.461 329.969 108.057C330.723 107.788 330.975 108.057 331.101 108.73Z" fill="white"/>
<path d="M336.51 151.388C336.636 152.464 336.887 153.675 336.887 154.752C337.013 156.636 336.384 157.443 334.749 157.443C332.736 157.443 331.101 155.829 330.975 153.675C330.85 151.522 332.108 149.908 334.12 149.638C335.755 149.369 336.259 149.773 336.51 151.388Z" fill="white"/>
<path d="M329.969 99.3101C330.346 102.136 329.088 104.02 326.698 104.424C324.56 104.693 322.547 103.213 322.17 100.79C321.793 98.3681 323.302 95.9459 325.692 95.6768C327.705 95.2731 329.969 96.7533 329.969 99.3101Z" fill="white"/>
<path d="M322.17 45.7523C322.547 48.5782 321.038 50.8658 318.396 51.4041C315.88 51.8078 313.49 50.0584 313.113 47.3671C312.736 44.6757 314.497 42.119 316.887 41.7153C319.402 41.177 321.792 42.9264 322.17 45.7523Z" fill="white"/>
<path d="M324.434 55.5757C324.685 57.4596 324.937 59.209 325.189 61.0929C325.314 62.5732 324.811 63.1115 323.553 63.3806C321.163 63.9189 318.648 62.0349 318.27 59.3436C317.893 56.6522 319.654 54.23 322.17 53.8263C323.679 53.5572 324.182 53.9609 324.434 55.5757Z" fill="white"/>
<path d="M325.944 67.822C326.195 69.706 326.447 71.7245 326.699 73.6084C326.699 74.0121 326.573 74.5504 326.447 74.9541C326.07 74.8195 325.441 74.8195 325.189 74.4158C324.434 73.4739 323.806 72.5319 323.302 71.8591C323.177 69.8406 323.428 68.4949 324.434 67.4184C324.686 67.1492 325.063 66.8801 325.441 66.8801C325.692 66.8801 325.944 67.4183 325.944 67.822Z" fill="white"/>
<path d="M267.2 546.881C265.817 547.016 264.433 545.939 264.307 544.594C264.056 543.113 265.062 541.768 266.446 541.364C267.829 541.095 269.213 542.037 269.465 543.517C269.716 545.132 268.71 546.747 267.2 546.881Z" fill="white"/>
<path d="M357.265 460.221C357.516 462.374 355.881 464.527 353.868 464.931C351.73 465.2 349.717 463.585 349.466 461.163C349.214 458.875 350.598 456.857 352.862 456.588C355.001 456.184 357.013 457.799 357.265 460.221Z" fill="white"/>
<path d="M257.137 131.742C257.012 130.8 257.766 129.992 258.647 129.858C259.527 129.723 260.282 130.396 260.408 131.472C260.408 132.414 259.779 133.356 258.898 133.356C258.018 133.356 257.263 132.684 257.137 131.742Z" fill="white"/>
<path d="M256.257 551.995C254.999 552.264 253.741 551.322 253.49 549.976C253.238 548.631 254.119 547.285 255.502 547.016C256.76 546.747 258.018 547.689 258.27 549.035C258.395 550.38 257.515 551.726 256.257 551.995Z" fill="white"/>
<path d="M279.654 512.029C278.396 512.163 277.138 511.087 277.012 509.741C276.886 508.395 277.893 507.05 279.151 506.915C280.408 506.781 281.666 507.857 281.792 509.203C281.918 510.548 280.912 511.894 279.654 512.029Z" fill="white"/>
<path d="M257.263 521.987C256.383 522.121 255.502 521.448 255.377 520.507C255.251 519.565 255.754 518.757 256.634 518.488C257.515 518.219 258.395 518.757 258.647 519.699C258.899 520.776 258.27 521.852 257.263 521.987Z" fill="white"/>
<path d="M262.42 534.367C261.288 534.502 260.03 533.56 259.905 532.349C259.779 531.137 260.659 529.926 261.791 529.792C263.049 529.657 264.056 530.465 264.181 531.81C264.307 533.021 263.552 534.232 262.42 534.367Z" fill="white"/>
<path d="M239.401 85.7189C238.143 85.9881 237.137 85.1807 236.885 83.835C236.759 82.6239 237.514 81.2782 238.646 81.1437C239.653 81.0091 240.785 81.8165 241.036 82.8931C241.414 84.1042 240.659 85.4498 239.401 85.7189Z" fill="white"/>
<path d="M273.49 529.657C272.106 529.791 270.848 528.715 270.722 527.234C270.597 525.62 271.477 524.543 272.987 524.408C274.244 524.274 275.377 525.35 275.628 526.696C275.88 527.907 274.748 529.522 273.49 529.657Z" fill="white"/>
<path d="M350.095 258.773C350.221 259.177 350.221 259.715 350.347 260.253C350.473 261.061 350.473 261.868 350.473 262.675C350.473 262.81 350.347 263.079 350.221 263.079C350.095 263.079 349.844 263.079 349.718 263.079C348.208 262.003 347.831 260.388 348.711 258.504C348.837 258.235 349.215 257.966 349.466 257.696C349.718 257.966 349.969 258.369 350.095 258.773Z" fill="white"/>
<path d="M268.71 517.008C267.452 517.142 266.446 516.2 266.32 514.855C266.32 513.644 267.2 512.702 268.207 512.567C269.339 512.432 270.219 513.374 270.345 514.586C270.597 515.797 269.716 516.873 268.71 517.008Z" fill="white"/>
<path d="M268.332 485.922C268.081 485.115 268.584 484.307 269.464 484.173C270.219 484.038 270.974 484.577 271.1 485.384C271.225 486.191 270.597 486.999 269.842 486.999C268.961 487.133 268.584 486.595 268.332 485.922Z" fill="white"/>
<path d="M278.521 541.633C276.886 541.903 275.377 540.691 275.251 538.942C275.125 537.327 276.257 535.847 277.641 535.578C279.276 535.309 280.66 536.52 280.911 538.269C281.037 540.153 280.157 541.499 278.521 541.633Z" fill="white"/>
<path d="M241.665 125.148C241.665 124.744 241.917 124.206 242.294 123.937C242.671 123.668 243.552 124.206 243.426 124.744C243.426 125.148 243.049 125.552 242.671 126.09C242.168 125.686 241.665 125.417 241.665 125.148Z" fill="white"/>
<path d="M245.942 526.562C245.313 526.696 244.559 526.024 244.559 525.351C244.559 524.678 245.062 524.005 245.816 524.005C246.445 524.005 246.949 524.409 247.074 525.082C247.074 525.754 246.571 526.562 245.942 526.562Z" fill="white"/>
<path d="M241.917 96.081C241.665 94.8699 242.294 93.7934 243.426 93.5242C244.433 93.2551 245.565 94.1971 245.816 95.2736C246.068 96.3501 245.187 97.5613 244.055 97.6958C243.049 97.8304 242.168 97.1575 241.917 96.081Z" fill="white"/>
<path d="M237.389 54.6345C237.137 53.0197 238.143 51.5394 239.653 51.2703C241.288 50.8666 242.798 51.9431 243.049 53.6925C243.301 55.4419 242.294 57.0567 240.659 57.3258C239.15 57.595 237.64 56.3839 237.389 54.6345Z" fill="white"/>
<path d="M235.753 45.3494C234.118 45.6185 232.483 44.2729 232.231 42.5235C231.98 40.7742 233.112 39.2939 234.747 39.0248C236.382 38.7556 238.143 39.9667 238.269 41.7161C238.521 43.3309 237.263 45.0803 235.753 45.3494Z" fill="white"/>
<path d="M252.232 509.068C251.854 509.068 251.1 508.665 251.1 508.396C251.1 507.857 251.477 507.454 251.854 506.646C252.357 507.184 252.861 507.319 252.986 507.723C253.238 508.396 252.735 509.068 252.232 509.068Z" fill="white"/>
<path d="M250.973 539.346C249.967 539.48 248.961 538.673 248.835 537.596C248.709 536.654 249.464 535.443 250.345 535.309C251.351 535.04 252.483 535.981 252.483 537.193C252.734 538.404 251.98 539.211 250.973 539.346Z" fill="white"/>
<path d="M247.577 137.662C247.326 137.662 246.948 137.393 246.445 137.124C246.823 136.72 247.074 136.182 247.326 136.182C247.577 136.182 247.955 136.586 248.081 136.855C248.206 137.124 247.829 137.528 247.577 137.662Z" fill="white"/>
<path d="M252.861 149.101C252.861 149.235 252.609 149.504 252.483 149.773C252.232 149.639 251.854 149.37 251.728 149.101C251.603 148.966 251.98 148.697 252.106 148.159C252.483 148.562 252.735 148.831 252.861 149.101Z" fill="white"/>
<path d="M247.075 108.192C246.823 107.115 247.452 106.039 248.458 105.904C249.464 105.635 250.471 106.308 250.722 107.384C250.974 108.326 250.219 109.537 249.339 109.807C248.332 109.941 247.2 109.134 247.075 108.192Z" fill="white"/>
<path d="M252.106 119.899C251.855 118.823 252.484 117.881 253.49 117.612C254.37 117.477 255.251 118.016 255.377 118.957C255.628 120.034 254.999 121.111 253.993 121.245C253.238 121.38 252.358 120.841 252.106 119.899Z" fill="white"/>
<path d="M170.721 12.7832C171.727 12.7832 172.859 13.7252 172.985 14.8018C173.111 16.0129 172.23 17.224 171.098 17.3585C169.841 17.4931 168.834 16.6857 168.708 15.2054C168.583 14.1289 169.589 12.9178 170.721 12.7832Z" fill="white"/>
<path d="M173.74 27.317C173.614 26.2404 174.243 25.2985 175.249 25.1639C176.255 25.0293 177.262 25.8367 177.387 26.7787C177.513 27.7207 176.759 28.9318 175.752 29.0664C174.872 29.2009 173.865 28.3935 173.74 27.317Z" fill="white"/>
<path d="M163.173 32.8338C162.922 32.1609 163.299 31.3535 164.054 31.2189C164.683 31.0844 165.438 31.6227 165.438 32.2955C165.438 32.9683 165.186 33.5066 164.557 33.6412C163.802 33.7757 163.299 33.5066 163.173 32.8338Z" fill="white"/>
<path d="M169.715 44.2721C169.715 44.5412 169.463 44.8104 169.337 45.3486C168.96 44.9449 168.583 44.8104 168.583 44.6758C168.708 44.4067 168.96 44.1376 169.086 43.8684C169.337 44.003 169.715 44.1375 169.715 44.2721Z" fill="white"/>
<path d="M157.891 20.7228C157.639 19.9154 158.268 18.8388 159.149 18.7043C160.029 18.4351 160.91 19.108 161.036 20.0499C161.161 20.8573 160.658 21.6647 159.903 21.9339C159.149 22.203 158.142 21.5302 157.891 20.7228Z" fill="white"/>
<path d="M180.533 37.5439C181.287 37.5439 181.916 38.2168 182.042 39.1588C182.042 39.9662 181.413 40.7736 180.784 40.9081C180.029 41.0427 179.023 40.2353 179.023 39.2933C178.897 38.2168 179.652 37.4094 180.533 37.5439Z" fill="white"/>
<path d="M190.218 62.5735C190.47 62.4389 190.721 62.8426 191.224 63.2463C190.847 63.65 190.595 64.0537 190.344 64.0537C190.092 64.0537 189.841 63.65 189.463 63.5154C189.715 63.1117 189.967 62.708 190.218 62.5735Z" fill="white"/>
<path d="M353.742 289.32C353.868 291.204 352.485 293.088 350.849 293.222C349.088 293.357 347.453 292.011 347.201 289.993C346.95 287.974 348.208 286.359 350.095 286.09C351.856 285.956 353.617 287.436 353.742 289.32Z" fill="white"/>
<path d="M181.539 7.13134C183.048 6.99677 184.18 7.93877 184.306 9.55358C184.432 11.0338 183.425 12.3795 182.042 12.514C180.658 12.6486 179.4 11.5721 179.274 10.0918C179.023 8.6116 180.029 7.40047 181.539 7.13134Z" fill="white"/>
<path d="M186.57 19.5122C187.954 19.3777 189.086 20.3196 189.086 21.7999C189.212 23.1455 188.205 24.3566 186.822 24.4912C185.564 24.4912 184.557 23.5493 184.432 22.3382C184.432 20.8579 185.312 19.6468 186.57 19.5122Z" fill="white"/>
<path d="M185.69 49.9245C185.941 50.1936 186.444 50.4627 186.696 50.8664C187.073 51.5393 186.444 52.3467 185.815 52.3467C185.186 52.3467 184.683 52.2121 184.557 51.4047C184.306 50.8664 184.683 50.0591 185.69 49.9245Z" fill="white"/>
<path d="M191.224 31.6228C192.356 31.3537 193.614 32.161 193.866 33.3722C194.117 34.5833 193.111 35.9289 191.979 36.0635C190.973 36.1981 189.84 35.3907 189.715 34.1796C189.589 32.9685 190.218 31.8919 191.224 31.6228Z" fill="white"/>
<path d="M193.363 7.5352C192.23 7.66977 191.224 7.1315 190.595 6.18953L195.249 6.45864C194.872 7.13147 194.243 7.5352 193.363 7.5352Z" fill="white"/>
<path d="M221.036 9.68895C219.401 9.95809 218.017 9.15068 217.388 7.67044L223.426 7.93959C223.049 8.88157 222.168 9.55439 221.036 9.68895Z" fill="white"/>
<path d="M152.482 8.47706C152.356 7.26595 152.985 6.18943 154.243 6.05486C155.249 5.9203 156.129 6.59311 156.381 7.66965C156.633 8.74619 155.878 9.95733 154.746 10.2265C153.739 10.4956 152.733 9.68817 152.482 8.47706Z" fill="white"/>
<path d="M320.661 26.779C320.787 27.721 321.038 28.5284 321.164 29.4703C321.164 29.4703 321.164 29.4703 321.038 29.4703C321.164 30.5469 321.29 31.4888 321.415 32.5654C321.415 32.8345 321.29 33.1036 321.164 33.2382C321.164 33.3728 320.787 33.2382 320.661 33.1037C318.9 31.4889 318.522 28.7975 319.78 26.6444C319.906 26.5098 320.032 26.3753 320.283 26.3753C320.409 26.3753 320.661 26.6444 320.661 26.779Z" fill="white"/>
<path d="M165.941 5.65137C165.186 5.65137 164.557 5.38227 164.054 4.844L167.324 4.97853C166.947 5.38223 166.444 5.65137 165.941 5.65137Z" fill="white"/>
<path d="M248.71 11.7071C246.949 11.9763 245.188 10.8997 244.559 9.01577L251.603 9.4195C250.974 10.496 249.967 11.438 248.71 11.7071Z" fill="white"/>
<path d="M126.821 5.65135C127.45 5.38222 128.204 6.05508 128.204 6.72791C128.204 7.53532 127.701 8.20816 127.072 8.07359C126.569 7.93902 126.192 7.40073 125.688 6.99702C126.066 6.32419 126.443 5.78592 126.821 5.65135Z" fill="white"/>
<path d="M146.947 25.8369C147.45 25.2987 147.828 24.895 148.079 24.7604C148.583 24.6258 148.96 25.0296 148.96 25.7024C148.96 25.9715 148.583 26.5098 148.331 26.5098C147.954 26.5098 147.576 26.1061 146.947 25.8369Z" fill="white"/>
<path d="M141.789 13.7264C141.664 12.919 142.293 12.2461 143.173 12.1116C143.928 12.1116 144.431 12.6498 144.431 13.3227C144.557 14.1301 143.928 14.9375 143.173 14.9375C142.293 14.9375 141.915 14.5338 141.789 13.7264Z" fill="white"/>
<path d="M131.097 18.9739C131.349 18.7048 131.475 18.3011 131.726 18.3011C131.978 18.3011 132.229 18.5702 132.229 18.7047C132.229 18.8393 131.978 19.243 131.852 19.243C131.6 19.5121 131.349 19.243 131.097 18.9739Z" fill="white"/>
<path d="M201.413 56.3837C202.294 56.2491 203.049 57.0565 203.049 57.9985C203.049 58.8059 202.42 59.6133 201.665 59.6133C200.784 59.6133 199.904 58.8059 200.03 57.9985C200.03 57.0565 200.659 56.3837 201.413 56.3837Z" fill="white"/>
<path d="M372.36 434.653C372.486 435.595 372.611 436.537 372.737 437.344C372.863 438.286 372.989 439.228 373.115 440.035C373.24 441.381 372.737 441.919 371.605 442.188C369.341 442.592 367.077 440.708 366.825 438.42C366.448 435.864 368.335 433.576 370.725 433.307C371.605 433.307 372.108 433.576 372.36 434.653Z" fill="white"/>
<path d="M367.076 393.475C367.454 395.762 367.705 397.916 367.957 400.203C365.441 400.338 364.057 399.396 363.68 397.377C363.303 395.493 364.057 393.609 365.693 392.667C366.447 392.264 366.951 392.533 367.076 393.475Z" fill="white"/>
<path d="M373.869 446.897C374.121 449.185 374.498 451.473 374.749 454.164C372.737 453.357 371.982 452.146 371.605 450.665C371.353 449.185 371.731 447.839 372.737 446.763C372.863 446.628 373.24 446.494 373.492 446.494C373.617 446.494 373.869 446.763 373.869 446.897Z" fill="white"/>
<path d="M380.788 501.936C381.039 503.416 381.291 505.031 381.291 507.05C379.656 505.3 379.278 503.686 379.907 501.802C380.033 501.533 380.285 501.398 380.41 501.263C380.536 501.533 380.788 501.667 380.788 501.936Z" fill="white"/>
<path d="M378.901 487.403C379.278 490.094 379.655 492.651 379.907 495.342C380.033 496.15 379.53 496.419 378.901 496.284C376.637 496.015 375.001 494.266 374.75 491.844C374.498 489.556 375.756 487.403 377.643 486.73C378.272 486.461 378.775 486.595 378.901 487.403Z" fill="white"/>
<path d="M202.545 25.9712C204.055 25.8366 205.187 26.7786 205.313 28.3934C205.438 29.8737 204.432 31.2193 203.048 31.3539C201.665 31.4884 200.407 30.4119 200.281 28.9317C200.155 27.4514 201.162 26.2403 202.545 25.9712Z" fill="white"/>
<path d="M365.945 383.652C366.448 386.208 365.19 388.092 363.052 388.496C361.039 388.9 359.152 387.419 358.775 385.266C358.397 383.113 359.655 381.095 361.668 380.691C363.806 380.287 365.567 381.499 365.945 383.652Z" fill="white"/>
<path d="M357.265 330.632C357.517 332.516 356.259 334.4 354.498 334.669C352.611 335.072 350.85 333.592 350.598 331.574C350.347 329.555 351.479 327.94 353.24 327.537C355.253 327.268 357.014 328.613 357.265 330.632Z" fill="white"/>
<path d="M355.252 299.411C355.378 299.95 355.378 300.622 355.504 301.161C355.63 301.834 355.755 302.641 355.755 303.314C355.755 303.852 355.755 304.794 355.378 304.929C355.001 305.198 354.246 304.929 353.743 304.659C351.479 303.448 351.353 300.219 353.366 298.604C354.372 297.796 355.001 298.2 355.252 299.411Z" fill="white"/>
<path d="M360.535 341.262C360.661 341.666 360.661 342.07 360.661 342.473C360.787 343.012 360.787 343.55 360.912 343.954C361.038 345.972 360.284 346.779 358.522 346.51C357.013 346.241 355.755 345.03 355.504 343.281C355.252 341.531 356.133 340.051 357.642 339.378C359.403 338.705 360.284 339.244 360.535 341.262Z" fill="white"/>
<path d="M382.926 519.565C383.429 522.39 381.542 525.216 378.901 525.62C376.259 526.158 373.744 524.14 373.366 521.179C372.989 518.219 374.75 515.662 377.517 515.258C380.159 514.989 382.549 516.873 382.926 519.565Z" fill="white"/>
<path d="M317.893 547.824C317.516 545.401 319.025 543.248 321.29 542.845C323.554 542.441 325.566 543.921 325.944 546.478C326.195 548.093 325.566 549.438 324.56 550.38L319.528 550.649C318.648 549.977 318.019 548.9 317.893 547.824Z" fill="white"/>
<path d="M280.031 551.592C279.653 549.708 280.785 547.824 282.546 547.42C284.307 547.151 286.068 548.497 286.32 550.381C286.446 550.919 286.32 551.592 286.068 552.13L280.282 552.265C280.282 552.13 280.156 551.861 280.031 551.592Z" fill="white"/>
<path d="M244.055 552.668C244.936 552.399 245.942 552.937 246.32 553.879L242.546 554.014C242.797 553.341 243.426 552.803 244.055 552.668Z" fill="white"/>
<path d="M198.394 45.4836C198.646 46.4256 197.891 47.6367 197.01 47.9058C196.13 48.175 194.998 47.3676 194.872 46.291C194.62 45.2145 195.249 44.1379 196.256 44.0034C197.136 43.7342 198.142 44.4071 198.394 45.4836Z" fill="white"/>
<path d="M197.765 13.726C199.4 13.4569 200.658 14.5334 200.784 16.2828C201.035 17.8976 199.903 19.3779 198.52 19.647C197.136 19.7816 195.627 18.5704 195.375 17.0902C195.123 15.3408 196.255 13.8606 197.765 13.726Z" fill="white"/>
<path d="M376.007 544.594C378.272 544.325 380.41 545.671 381.291 547.824L371.856 548.228C372.485 546.344 373.995 544.863 376.007 544.594Z" fill="white"/>
<path d="M385.693 540.96C385.945 543.113 386.322 545.266 386.574 547.689L383.555 547.823C382.171 545.67 382.423 542.575 384.31 540.691C384.561 540.422 384.939 540.287 385.316 540.287C385.442 540.287 385.693 540.691 385.693 540.96Z" fill="white"/>
<path d="M337.265 549.035C338.271 548.9 339.277 549.169 340.158 549.707L335.378 549.977C335.881 549.438 336.51 549.169 337.265 549.035Z" fill="white"/>
<path d="M384.184 528.85C384.561 531.137 384.813 533.56 385.064 535.847C385.19 537.193 384.813 537.731 383.555 538C380.913 538.404 378.272 536.52 377.769 533.56C377.265 530.465 379.026 527.773 381.92 527.235C383.555 527.1 384.058 527.37 384.184 528.85Z" fill="white"/>
<path d="M344.686 549.034C344.434 546.343 346.069 543.92 348.585 543.517C351.101 543.113 353.365 544.997 353.742 547.688C353.868 548.227 353.742 548.63 353.742 549.169L344.686 549.572C344.686 549.303 344.686 549.169 344.686 549.034Z" fill="white"/>
<path d="M258.27 491.305C258.018 491.305 257.641 490.901 257.641 490.632C257.641 490.363 258.018 490.094 258.27 489.555C258.521 490.094 258.899 490.363 258.899 490.632C258.899 490.901 258.521 491.305 258.27 491.305Z" fill="white"/>
<path d="M268.71 157.443C267.955 157.443 267.2 156.771 267.2 155.963C267.2 155.156 267.703 154.348 268.458 154.214C269.339 154.079 270.093 154.887 270.093 155.829C270.093 156.636 269.464 157.443 268.71 157.443Z" fill="white"/>
<path d="M263.804 473.543C264.182 473.139 264.307 472.87 264.559 472.736C264.685 472.736 264.936 473.005 265.188 473.139C265.062 473.408 264.811 473.812 264.559 473.947C264.559 474.081 264.182 473.812 263.804 473.543Z" fill="white"/>
<path d="M262.924 114.785C262.672 113.44 263.427 112.363 264.685 112.094C265.943 111.825 267.201 112.632 267.452 114.112C267.704 115.458 266.697 116.804 265.439 116.938C264.182 117.073 263.175 116.131 262.924 114.785Z" fill="white"/>
<path d="M265.188 143.583C265.188 144.39 264.685 145.198 263.93 145.332C263.049 145.467 262.295 144.794 262.169 143.852C262.169 143.045 262.672 142.237 263.427 142.103C264.182 141.968 265.062 142.776 265.188 143.583Z" fill="white"/>
<path d="M267.578 126.359C267.578 125.148 268.459 124.072 269.591 123.937C270.849 123.802 271.855 124.61 271.981 125.955C272.107 127.301 271.352 128.378 270.094 128.647C268.962 128.781 267.704 127.705 267.578 126.359Z" fill="white"/>
<path d="M267.452 185.568C267.326 185.568 267.075 185.299 266.697 185.165C266.949 184.896 267.075 184.492 267.326 184.492C267.578 184.492 267.829 184.761 267.829 184.896C267.829 185.165 267.578 185.568 267.452 185.568Z" fill="white"/>
<path d="M274.999 499.379C273.993 499.648 272.861 498.706 272.735 497.63C272.609 496.419 273.238 495.611 274.245 495.342C275.377 495.073 276.383 495.881 276.509 497.092C276.76 498.034 276.006 499.11 274.999 499.379Z" fill="white"/>
<path d="M276.005 469.371C275.377 469.371 274.622 468.833 274.622 468.295C274.496 467.487 275.251 466.68 275.88 466.68C276.634 466.68 277.012 467.218 277.138 468.025C277.263 468.698 276.76 469.371 276.005 469.371Z" fill="white"/>
<path d="M277.767 439.362C277.515 439.228 277.138 439.093 276.886 438.824C276.886 438.689 277.138 438.42 277.264 437.882C277.641 438.151 277.893 438.42 278.018 438.689C278.144 438.824 277.767 439.362 277.767 439.362Z" fill="white"/>
<path d="M270.345 456.049C270.471 455.78 270.722 455.511 270.974 455.376C271.1 455.376 271.477 455.78 271.477 455.914C271.477 456.184 271.226 456.453 270.974 456.856C270.597 456.453 270.219 456.184 270.345 456.049Z" fill="white"/>
<path d="M272.232 197.814C272.106 197.814 271.854 197.545 271.477 197.411C271.729 197.142 271.854 196.738 272.106 196.738C272.358 196.738 272.483 197.007 272.735 197.142C272.483 197.411 272.358 197.68 272.232 197.814Z" fill="white"/>
<path d="M272.106 167.67C272.106 166.863 272.609 166.055 273.49 166.055C274.37 165.921 275.125 166.728 275.125 167.67C275.125 168.478 274.37 169.15 273.615 169.15C272.861 169.15 272.232 168.478 272.106 167.67Z" fill="white"/>
<path d="M266.572 43.0618C266.823 45.0803 265.439 46.9642 263.553 47.2334C261.54 47.6371 259.653 46.1568 259.402 44.0037C259.15 41.8506 260.534 39.8321 262.421 39.563C264.307 39.2939 266.32 41.0432 266.572 43.0618Z" fill="white"/>
<path d="M263.679 504.224C262.924 504.358 262.169 503.954 261.918 503.147C261.666 502.205 262.295 501.263 263.05 500.994C263.805 500.859 264.811 501.667 264.937 502.474C264.937 503.282 264.433 504.089 263.679 504.224Z" fill="white"/>
<path d="M279.905 16.2821C282.295 15.8784 284.56 17.7623 284.811 20.3191C285.063 22.8759 283.427 25.1635 280.912 25.4326C278.522 25.7018 276.635 23.9524 276.257 21.5302C276.006 18.9734 277.641 16.6858 279.905 16.2821Z" fill="white"/>
<path d="M277.766 37.5431C278.269 39.8307 277.012 41.9838 274.873 42.5221C272.609 43.0604 270.471 41.5801 270.093 39.2925C269.716 37.1394 271.225 34.8518 273.238 34.4481C275.125 33.7752 277.263 35.2554 277.766 37.5431Z" fill="white"/>
<path d="M257.263 27.7206C259.276 27.3169 261.289 29.0663 261.54 31.2194C261.792 33.3724 260.408 35.2564 258.27 35.5255C256.131 35.7947 254.496 34.449 254.244 32.1613C253.993 30.0083 255.376 28.1243 257.263 27.7206Z" fill="white"/>
<path d="M268.71 22.0686C270.974 21.7995 272.987 23.4143 273.238 25.7019C273.49 27.855 271.98 30.0081 269.968 30.4118C267.829 30.8155 265.691 29.2007 265.314 26.7785C264.936 24.4908 266.32 22.4723 268.71 22.0686Z" fill="white"/>
<path d="M262.169 172.246C262.421 172.515 262.798 172.65 262.798 172.919C262.798 173.188 262.547 173.323 262.421 173.592C262.169 173.457 261.918 173.323 261.792 173.054C261.792 172.919 262.044 172.65 262.169 172.246Z" fill="white"/>
<path d="M251.226 45.3489C252.861 45.2144 254.496 46.4255 254.873 48.1749C255.125 50.0588 253.867 51.9428 252.106 52.2119C250.345 52.481 248.584 51.1354 248.332 49.1169C248.207 47.3675 249.464 45.6181 251.226 45.3489Z" fill="white"/>
<path d="M260.408 104.962C259.276 105.097 257.892 104.02 257.641 102.809C257.389 101.329 258.521 99.9832 259.905 99.8486C261.163 99.7141 262.295 100.791 262.421 102.136C262.672 103.482 261.666 104.828 260.408 104.962Z" fill="white"/>
<path d="M253.489 61.2286C253.364 59.3446 254.496 57.8644 256.257 57.5952C258.018 57.3261 259.402 58.5372 259.653 60.4212C259.905 62.3051 258.773 63.9199 257.137 64.189C255.376 64.5927 253.615 63.1125 253.489 61.2286Z" fill="white"/>
<path d="M346.447 511.491C344.309 511.894 341.919 510.145 341.542 507.857C341.164 505.435 342.799 503.147 345.064 502.744C347.202 502.475 349.34 503.955 349.718 506.243C350.221 508.665 348.712 510.952 346.447 511.491Z" fill="white"/>
<path d="M335.001 516.604C332.736 517.008 330.724 515.258 330.472 512.971C330.221 510.818 331.73 508.664 333.743 508.261C335.881 507.857 338.02 509.606 338.271 511.894C338.523 514.182 337.139 516.2 335.001 516.604Z" fill="white"/>
<path d="M336.887 495.342C336.636 493.054 338.145 491.17 340.284 490.767C342.548 490.498 344.56 492.247 344.686 494.535C344.812 496.688 343.302 498.841 341.29 499.11C339.026 499.514 337.013 497.764 336.887 495.342Z" fill="white"/>
<path d="M325.818 500.994C325.44 498.841 326.698 496.822 328.711 496.419C330.723 496.015 332.862 497.63 333.113 499.783C333.365 501.936 331.981 503.82 329.969 504.224C327.83 504.493 326.195 503.147 325.818 500.994Z" fill="white"/>
<path d="M318.9 509.338C317.013 509.607 315.252 508.261 315 506.243C314.749 504.224 316.007 502.34 317.893 502.071C319.906 501.802 321.541 503.013 321.793 505.166C322.044 507.185 320.786 509.069 318.9 509.338Z" fill="white"/>
<path d="M321.289 488.614C321.038 486.596 322.421 484.712 324.434 484.577C326.195 484.443 327.83 485.788 328.208 487.672C328.459 489.691 327.201 491.575 325.189 491.844C323.05 492.113 321.541 490.767 321.289 488.614Z" fill="white"/>
<path d="M289.465 32.5649C289.717 34.9871 288.081 37.4093 285.817 37.6785C283.553 37.9476 281.415 36.0637 281.037 33.6414C280.786 31.2192 282.421 28.9316 284.811 28.6624C287.075 28.2587 289.088 30.0081 289.465 32.5649Z" fill="white"/>
<path d="M362.422 472.063C362.548 474.35 361.039 476.503 358.774 476.772C356.51 477.042 354.372 475.292 354.12 472.87C353.869 470.448 355.63 468.16 357.894 467.891C360.158 467.756 362.296 469.64 362.422 472.063Z" fill="white"/>
<path d="M367.58 483.77C367.957 486.326 366.322 488.749 363.932 489.018C361.542 489.421 359.278 487.537 359.026 484.981C358.774 482.424 360.41 480.136 362.925 479.867C365.315 479.598 367.202 481.213 367.58 483.77Z" fill="white"/>
<path d="M347.957 490.363C347.705 487.941 349.34 485.788 351.73 485.519C353.869 485.25 355.881 486.999 356.259 489.287C356.51 491.709 354.875 493.996 352.611 494.4C350.221 494.669 348.208 492.785 347.957 490.363Z" fill="white"/>
<path d="M366.322 512.97C366.699 515.527 364.938 518.219 362.422 518.622C359.906 519.026 357.642 517.142 357.265 514.451C356.887 511.625 358.648 509.337 361.164 509.068C363.68 508.664 365.944 510.414 366.322 512.97Z" fill="white"/>
<path d="M352.862 502.744C352.485 500.187 353.994 497.765 356.384 497.361C358.774 496.957 361.039 498.707 361.416 501.263C361.793 503.82 360.158 506.108 357.642 506.512C355.252 506.915 353.24 505.3 352.862 502.744Z" fill="white"/>
<path d="M307.453 514.585C305.692 514.855 304.057 513.374 303.805 511.49C303.679 509.606 304.937 507.857 306.824 507.723C308.459 507.588 309.969 508.934 310.22 510.683C310.598 512.567 309.214 514.316 307.453 514.585Z" fill="white"/>
<path d="M286.32 494.669C285.062 494.804 284.056 493.996 283.805 492.651C283.553 491.305 284.308 490.228 285.566 489.825C286.823 489.555 288.081 490.363 288.333 491.709C288.459 493.189 287.578 494.534 286.32 494.669Z" fill="white"/>
<path d="M310.22 494.132C309.968 492.248 311.1 490.633 312.735 490.364C314.622 489.96 316.257 491.306 316.509 493.19C316.761 495.074 315.503 496.958 313.616 497.092C311.981 497.227 310.471 495.881 310.22 494.132Z" fill="white"/>
<path d="M282.798 421.599C283.176 421.061 283.302 420.657 283.553 420.523C283.805 420.523 284.182 420.792 284.434 421.061C284.308 421.33 284.182 421.734 283.93 421.869C283.679 422.003 283.301 421.734 282.798 421.599Z" fill="white"/>
<path d="M281.289 482.155C280.408 482.29 279.276 481.482 279.15 480.54C278.899 479.598 279.653 478.522 280.534 478.253C281.54 477.984 282.546 478.522 282.798 479.598C283.05 480.81 282.295 482.021 281.289 482.155Z" fill="white"/>
<path d="M282.421 452.146C281.666 452.281 281.163 451.877 281.037 451.07C280.911 450.262 281.163 449.724 281.918 449.455C282.547 449.186 283.427 449.859 283.553 450.666C283.679 451.339 283.176 452.012 282.421 452.146Z" fill="white"/>
<path d="M291.1 506.915C289.716 507.184 288.333 506.107 288.081 504.627C287.829 503.012 288.836 501.532 290.345 501.263C291.729 501.128 293.113 502.07 293.364 503.551C293.616 505.165 292.609 506.646 291.1 506.915Z" fill="white"/>
<path d="M296.132 519.43C294.497 519.699 292.861 518.219 292.736 516.47C292.61 514.72 293.742 513.24 295.377 513.105C297.012 512.836 298.522 514.047 298.773 515.662C299.025 517.277 297.767 519.161 296.132 519.43Z" fill="white"/>
<path d="M299.151 499.38C299.025 497.63 300.157 496.15 301.792 495.881C303.427 495.746 304.811 496.957 305.063 498.707C305.188 500.456 304.056 501.936 302.421 502.206C300.786 502.34 299.276 501.129 299.151 499.38Z" fill="white"/>
<path d="M277.012 179.782C277.012 178.975 277.263 178.436 278.018 178.302C278.773 178.167 279.527 178.705 279.653 179.513C279.779 180.32 279.15 181.128 278.395 181.262C277.766 181.397 277.138 180.724 277.012 179.782Z" fill="white"/>
<path d="M297.39 489.69C296.006 489.959 294.623 488.883 294.371 487.402C294.119 485.788 295.252 484.307 296.761 484.173C298.145 484.038 299.403 485.115 299.528 486.595C299.78 488.075 298.774 489.421 297.39 489.69Z" fill="white"/>
<path d="M294.371 44.6756C294.622 47.0979 292.861 49.3855 290.597 49.5201C288.333 49.6546 286.446 47.9053 286.195 45.6176C285.943 43.33 287.578 41.0423 289.717 40.7732C292.107 40.3695 294.119 42.2534 294.371 44.6756Z" fill="white"/>
<path d="M377.894 507.858C378.272 510.549 376.385 513.375 373.869 513.779C371.353 514.182 368.837 512.164 368.46 509.338C368.083 506.647 369.844 504.224 372.36 503.686C374.875 503.282 377.391 505.166 377.894 507.858Z" fill="white"/>
<path d="M376.636 537.193C377.14 540.153 375.378 542.71 372.611 543.248C369.844 543.652 367.328 541.768 366.951 538.942C366.573 536.116 368.334 533.29 371.102 532.887C373.743 532.348 376.259 534.232 376.636 537.193Z" fill="white"/>
<path d="M360.913 371.944C361.164 373.962 359.906 375.846 358.02 376.115C356.007 376.519 354.12 375.039 353.868 372.886C353.617 370.867 355.001 368.983 356.762 368.579C358.774 368.31 360.661 369.791 360.913 371.944Z" fill="white"/>
<path d="M372.485 496.016C372.863 498.707 370.976 501.264 368.586 501.533C366.196 501.802 363.932 499.918 363.554 497.496C363.177 494.805 364.938 492.382 367.454 491.979C370.095 491.44 372.234 493.19 372.485 496.016Z" fill="white"/>
<path d="M362.045 526.562C361.793 523.736 363.68 521.313 366.196 520.91C368.838 520.506 371.102 522.525 371.479 525.35C371.856 528.176 369.97 530.733 367.328 531.002C364.812 531.271 362.297 529.253 362.045 526.562Z" fill="white"/>
<path d="M368.837 454.838C369.089 457.125 367.454 459.278 365.315 459.682C362.925 460.086 360.913 458.337 360.535 455.914C360.284 453.492 361.919 451.07 364.183 450.801C366.447 450.532 368.586 452.416 368.837 454.838Z" fill="white"/>
<path d="M364.938 413.122C365.315 415.409 363.806 417.428 361.793 417.831C359.655 418.235 357.768 416.62 357.391 414.467C357.013 412.18 358.523 410.161 360.535 409.757C362.674 409.488 364.561 410.968 364.938 413.122Z" fill="white"/>
<path d="M359.781 401.28C360.032 403.164 358.649 405.182 356.762 405.586C354.875 405.99 352.862 404.509 352.485 402.356C352.108 400.069 353.491 398.185 355.504 397.916C357.642 397.646 359.529 399.127 359.781 401.28Z" fill="white"/>
<path d="M350.976 531.81C350.724 529.119 352.485 526.696 355.001 526.293C357.517 526.024 359.781 527.908 360.032 530.599C360.41 533.425 358.649 535.713 356.007 535.982C353.491 536.385 351.227 534.501 350.976 531.81Z" fill="white"/>
<path d="M373.995 466.68C374.372 469.237 372.611 471.659 370.221 471.928C367.831 472.332 365.693 470.448 365.315 467.756C365.064 465.2 366.573 463.046 368.963 462.643C371.479 462.374 373.617 464.123 373.995 466.68Z" fill="white"/>
<path d="M363.429 442.726C363.68 445.014 362.171 446.898 360.032 447.302C357.768 447.571 355.756 445.956 355.504 443.668C355.253 441.381 356.888 439.093 359.026 438.959C361.29 438.689 363.303 440.439 363.429 442.726Z" fill="white"/>
<path d="M361.165 548.362C358.523 548.765 356.259 546.747 355.881 543.921C355.63 541.095 357.517 538.538 360.032 538.269C362.548 538 365.064 540.153 365.441 542.844C365.693 545.536 363.806 548.093 361.165 548.362Z" fill="white"/>
<path d="M297.39 528.58C297.264 526.696 298.648 524.947 300.409 524.812C302.296 524.543 303.805 525.889 304.057 527.907C304.308 529.791 303.05 531.675 301.289 531.944C299.528 532.079 297.516 530.464 297.39 528.58Z" fill="white"/>
<path d="M306.069 544.191C304.182 544.594 302.17 542.98 301.792 540.961C301.541 538.943 302.924 536.924 304.937 536.655C306.95 536.386 308.711 537.866 308.962 540.019C309.339 542.038 307.956 543.922 306.069 544.191Z" fill="white"/>
<path d="M286.32 534.232C286.069 532.483 287.327 530.734 288.836 530.33C290.471 530.061 292.107 531.272 292.358 533.021C292.61 534.905 291.603 536.52 289.842 536.789C288.207 537.193 286.698 535.982 286.32 534.232Z" fill="white"/>
<path d="M308.334 523.602C307.956 521.449 309.34 519.431 311.353 519.161C313.239 518.892 315 520.373 315.252 522.391C315.504 524.41 314.246 526.294 312.359 526.697C310.472 526.966 308.711 525.621 308.334 523.602Z" fill="white"/>
<path d="M294.874 549.304C292.987 549.573 291.477 548.227 291.226 546.343C290.974 544.325 292.232 542.306 294.119 542.172C295.88 542.037 297.641 543.383 297.893 545.267C298.144 547.151 296.886 549.034 294.874 549.304Z" fill="white"/>
<path d="M324.183 530.06C323.931 527.638 325.566 525.485 327.705 525.35C329.718 525.216 331.73 526.831 331.982 528.984C332.359 531.271 330.724 533.424 328.46 533.828C326.321 534.097 324.434 532.483 324.183 530.06Z" fill="white"/>
<path d="M333.617 546.209C331.353 546.478 329.089 544.729 328.837 542.307C328.585 539.884 330.346 537.462 332.611 537.193C334.875 536.924 337.013 538.673 337.265 541.23C337.642 543.787 336.007 545.805 333.617 546.209Z" fill="white"/>
<path d="M335.378 525.216C335 522.794 336.635 520.372 338.9 520.102C341.164 519.833 343.428 521.717 343.68 524.14C343.931 526.427 342.296 528.715 340.157 528.984C337.767 529.388 335.629 527.638 335.378 525.216Z" fill="white"/>
<path d="M319.402 518.218C319.151 516.065 320.535 514.181 322.673 513.912C324.811 513.643 326.447 514.989 326.824 517.276C327.076 519.429 325.818 521.448 323.805 521.852C321.667 522.121 319.654 520.506 319.402 518.218Z" fill="white"/>
<path d="M346.195 519.834C345.818 517.277 347.453 514.855 349.843 514.586C352.233 514.317 354.497 516.066 354.749 518.623C355 521.045 353.491 523.333 351.101 523.736C348.711 524.14 346.573 522.525 346.195 519.834Z" fill="white"/>
<path d="M281.792 522.122C281.541 520.507 282.547 518.892 283.93 518.623C285.314 518.354 286.949 519.565 287.201 521.045C287.453 522.526 286.446 524.14 284.937 524.409C283.427 524.679 282.044 523.737 281.792 522.122Z" fill="white"/>
<path d="M323.805 162.154C321.918 162.423 320.157 160.943 320.031 158.924C319.78 156.771 321.038 155.156 323.05 154.887C324.811 154.753 326.447 155.964 326.698 157.982C327.076 160.001 325.692 161.885 323.805 162.154Z" fill="white"/>
<path d="M325.44 86.9306C325.943 89.3529 324.434 91.7751 322.17 92.3133C320.031 92.8516 317.641 91.1022 317.138 88.68C316.761 86.3924 318.144 84.1047 320.283 83.5665C322.799 82.8936 325.063 84.3739 325.44 86.9306Z" fill="white"/>
<path d="M315.503 63.2465C315.881 65.8033 314.371 67.9563 312.107 68.36C309.591 68.7637 307.453 67.0144 307.075 64.4576C306.824 62.0354 308.459 59.6132 310.723 59.344C312.987 59.0749 315.126 60.6897 315.503 63.2465Z" fill="white"/>
<path d="M323.554 116.535C323.805 118.688 322.547 120.707 320.535 121.11C318.396 121.514 316.384 120.169 316.006 117.881C315.629 115.593 317.013 113.575 319.151 113.171C321.289 112.767 323.302 114.248 323.554 116.535Z" fill="white"/>
<path d="M328.585 128.781C328.837 130.934 327.453 132.952 325.441 133.222C323.302 133.491 321.415 131.876 321.164 129.723C320.912 127.57 322.296 125.686 324.308 125.282C326.573 124.878 328.334 126.493 328.585 128.781Z" fill="white"/>
<path d="M320.535 75.0881C320.912 77.6449 319.403 79.798 317.013 80.2017C314.623 80.6054 312.484 78.856 312.107 76.4338C311.73 74.0116 313.365 71.5894 315.629 71.1857C318.019 70.782 320.157 72.5313 320.535 75.0881Z" fill="white"/>
<path d="M305.944 39.2934C306.195 41.8502 304.434 44.1379 302.044 44.407C299.654 44.6761 297.516 42.7922 297.264 40.2354C297.013 37.6786 298.774 35.391 301.164 35.1219C303.554 34.8527 305.692 36.6021 305.944 39.2934Z" fill="white"/>
<path d="M296.132 22.8752C298.522 22.606 300.66 24.49 301.037 27.0468C301.415 29.7381 299.654 32.1603 297.012 32.4295C294.622 32.6986 292.358 30.8147 292.106 28.2579C291.729 25.7011 293.742 23.0097 296.132 22.8752Z" fill="white"/>
<path d="M307.201 17.4934C309.717 17.0897 312.233 19.1082 312.61 21.9341C312.987 24.76 311.101 27.3168 308.459 27.5859C305.817 27.9896 303.427 25.8365 303.176 23.1452C302.924 20.4538 304.811 17.8971 307.201 17.4934Z" fill="white"/>
<path d="M310.597 51.1355C310.975 53.6923 309.465 56.1145 307.075 56.5182C304.685 56.9219 302.421 55.1726 302.044 52.6158C301.666 50.059 303.302 47.7713 305.817 47.3676C308.207 46.9639 310.22 48.5788 310.597 51.1355Z" fill="white"/>
<path d="M348.586 277.209C348.837 279.093 347.705 280.707 345.944 280.976C344.183 281.246 342.422 279.9 342.171 278.016C341.919 276.132 343.177 274.383 345.064 274.248C346.825 274.114 348.334 275.325 348.586 277.209Z" fill="white"/>
<path d="M344.434 310.044C342.673 310.313 341.29 309.102 341.038 307.218C340.786 305.468 342.044 303.719 343.68 303.584C345.315 303.45 346.95 304.796 347.076 306.545C347.453 308.294 346.195 309.909 344.434 310.044Z" fill="white"/>
<path d="M331.73 169.958C332.107 171.977 330.849 173.861 328.837 174.13C326.824 174.399 325.189 173.188 324.937 171.035C324.686 169.016 325.944 167.132 327.83 166.863C329.717 166.729 331.478 168.074 331.73 169.958Z" fill="white"/>
<path d="M356.007 360.102C356.133 362.12 354.875 363.601 352.988 363.87C351.101 364.004 349.466 362.659 349.215 360.775C348.963 358.756 350.472 356.738 352.233 356.603C354.246 356.468 355.881 358.083 356.007 360.102Z" fill="white"/>
<path d="M347.956 351.624C346.195 351.893 344.686 350.682 344.434 348.798C344.183 346.779 345.441 345.03 347.202 344.895C348.837 344.761 350.472 345.972 350.724 347.721C351.101 349.605 349.843 351.355 347.956 351.624Z" fill="white"/>
<path d="M352.107 318.52C352.359 320.404 351.101 322.288 349.34 322.423C347.579 322.692 345.944 321.346 345.692 319.328C345.441 317.444 346.824 315.694 348.585 315.56C350.346 315.425 351.856 316.636 352.107 318.52Z" fill="white"/>
<path d="M343.428 265.098C343.68 266.982 342.548 268.462 340.787 268.731C339.151 269 337.516 267.655 337.265 265.905C337.139 264.156 338.397 262.407 340.032 262.137C341.667 262.003 343.177 263.214 343.428 265.098Z" fill="white"/>
<path d="M336.887 182.07C337.264 184.088 335.881 186.107 333.994 186.376C332.107 186.645 330.346 185.3 330.094 183.146C329.843 180.993 331.101 179.244 333.113 179.109C334.874 178.84 336.51 180.186 336.887 182.07Z" fill="white"/>
<path d="M332.233 215.442C330.472 215.711 328.711 214.231 328.585 212.347C328.459 210.463 329.717 208.983 331.478 208.848C333.239 208.579 334.623 209.79 334.874 211.809C335.126 213.558 333.994 215.173 332.233 215.442Z" fill="white"/>
<path d="M336.007 256.62C334.497 256.889 332.988 255.678 332.61 253.928C332.359 252.179 333.239 250.564 334.875 250.161C336.51 249.757 338.271 250.968 338.522 252.717C338.9 254.467 337.642 256.351 336.007 256.62Z" fill="white"/>
<path d="M340.032 223.786C340.284 225.67 339.152 227.284 337.391 227.554C335.504 227.823 333.869 226.477 333.743 224.593C333.617 222.844 334.749 221.094 336.384 220.825C338.146 220.422 339.781 221.767 340.032 223.786Z" fill="white"/>
</g>
<path opacity="0.2" d="M156.758 305.737L354.246 232.802L351.856 217.73L156.758 305.737ZM156.758 305.737L70.2158 195.123V178.706L156.758 305.737L70.2158 158.924V134.433L156.758 305.737L70.2158 103.079V60.9591L156.758 305.737ZM156.758 305.603L110.72 2.15314L130.091 3.09509L156.758 305.603ZM156.758 305.737C156.758 305.603 156.758 305.603 156.758 305.737V305.737ZM156.758 305.737L70.2158 311.927V305.737H156.758ZM70.2158 266.174L156.758 305.737L70.2158 273.306V266.174ZM70.2158 293.088L156.758 305.603L70.2158 299.413V293.088ZM167.953 5.11359L156.758 305.737L186.696 6.0556L205.564 6.9975L156.758 305.603L265.062 9.95801L286.446 11.0345L156.758 305.737L308.962 12.3802L320.283 12.9185L322.925 30.4123L156.758 305.603L149.085 4.03705L167.953 5.11359ZM327.579 60.2862L331.604 86.5269L156.758 305.737L327.579 60.2862ZM70.2158 6.10352e-05L90.7193 1.07654L156.758 305.603L70.2158 0.672913V6.10352e-05ZM156.758 305.737L70.2158 221.229V209.118L156.758 305.737C156.758 305.603 156.758 305.603 156.758 305.737ZM244.559 9.01605L156.758 305.603L224.936 8.0741L244.559 9.01605ZM156.758 305.737L70.2158 352.836V345.3L156.758 305.737ZM156.758 305.737L70.2158 369.791V361.044L156.758 305.737ZM156.758 305.737L70.2158 324.577V318.117L156.758 305.737ZM367.957 320.674L156.884 305.737H365.693L367.957 320.674ZM156.758 305.737C156.884 305.737 156.884 305.737 156.758 305.737L370.221 336.284L372.737 352.432L156.758 305.737ZM156.758 305.737L363.303 290.935L361.039 276.401L156.758 305.737L358.774 262.137L356.51 247.604L156.758 305.737C156.758 305.603 156.758 305.603 156.758 305.737L349.592 202.255L347.076 186.107L156.758 305.737L344.435 168.882L341.667 150.716L156.758 305.737C156.758 305.603 156.758 305.603 156.758 305.737L338.523 131.338L335.252 110.076L156.758 305.737C156.758 305.603 156.758 305.603 156.758 305.737L70.2158 231.994V241.683L156.758 305.737L70.2158 250.43V258.504L156.758 305.737L70.2158 280.169V286.763L156.758 305.737L70.2158 331.17V338.033L156.758 305.737L70.2158 402.357V416.352L156.758 305.737L70.2158 432.769V452.55L156.758 305.737L70.2158 476.907V508.261L156.758 305.737L70.2158 550.381V561.55L84.3041 560.877L156.758 305.737L101.663 560.204L118.267 559.531L156.758 305.737L134.494 558.724L150.343 558.051L156.758 305.737L166.067 557.378L181.79 556.705L156.758 305.737L351.101 549.304L377.894 548.093L156.758 305.737L392.108 477.176L388.083 451.205L156.758 305.737L384.435 427.924L381.165 406.797L156.758 305.737L378.146 387.42L375.379 369.388L156.758 305.737ZM197.765 555.898L156.758 305.603L213.866 555.091L197.765 555.898ZM247.703 553.745L230.47 554.552L156.758 305.737L247.703 553.745ZM70.2158 379.346L156.758 305.603L70.2158 390.111V379.346ZM156.758 305.737L284.685 552.13L265.691 552.937L156.758 305.737ZM156.758 305.737L396.637 506.781L401.92 540.961L156.758 305.737ZM156.758 305.737L327.076 550.246L305.063 551.188L156.758 305.737Z" fill="url(#paint1_radial_236_78492)"/>
<defs>
<radialGradient id="paint0_radial_236_78492" cx="0" cy="0" r="1" gradientUnits="userSpaceOnUse" gradientTransform="translate(337.307 471.675) scale(678.6 725.961)">
<stop stop-color="#46D37E"/>
<stop offset="1" stop-color="#048146"/>
</radialGradient>
<radialGradient id="paint1_radial_236_78492" cx="0" cy="0" r="1" gradientUnits="userSpaceOnUse" gradientTransform="translate(153.657 304.813) scale(287.958 308.055)">
<stop offset="0.3414" stop-color="white" stop-opacity="0"/>
<stop offset="0.5722" stop-color="#A8A5A6" stop-opacity="0.2283"/>
<stop offset="0.8681" stop-color="#3E383A" stop-opacity="0.5208"/>
<stop offset="1" stop-color="#130C0E" stop-opacity="0.6512"/>
</radialGradient>
</defs>
</svg>
