<svg width="348" height="515" viewBox="0 0 348 515" fill="none" xmlns="http://www.w3.org/2000/svg">
<path d="M268.872 513.653L2.88733 499.972V15.5899L347.673 0.526367L268.872 513.653Z" fill="url(#paint0_radial_236_78862)"/>
<path opacity="0.4" d="M290.058 196.766C291.349 196.905 292.383 195.937 292.641 194.555C292.77 193.173 291.995 191.929 290.704 191.653C289.412 191.377 288.12 192.344 287.862 193.726C287.732 195.246 288.766 196.628 290.058 196.766ZM289.024 205.335C289.283 203.953 290.574 202.985 291.866 203.4C293.029 203.676 293.933 205.058 293.675 206.302C293.546 207.684 292.125 208.651 290.833 208.513C289.67 208.237 288.766 206.855 289.024 205.335ZM256.341 337.866C256.6 336.484 257.762 335.655 258.925 335.931C259.958 336.207 260.863 337.451 260.604 338.557C260.475 339.801 259.183 340.768 258.021 340.492C256.858 340.077 256.083 339.11 256.341 337.866ZM285.407 242.371C285.149 243.753 283.986 244.444 282.694 244.03C281.661 243.753 280.886 242.51 281.144 241.266C281.403 240.022 282.824 239.193 283.857 239.469C285.02 239.884 285.666 241.128 285.407 242.371ZM293.675 97.1261C295.225 97.4025 296.388 98.9226 296.129 100.719C295.871 102.378 294.321 103.621 292.771 103.207C291.22 102.93 290.187 101.272 290.445 99.6136C290.833 97.9553 292.254 96.8497 293.675 97.1261ZM291.866 220.122C290.445 219.845 289.799 218.463 290.058 216.943C290.316 215.561 291.737 214.594 293.029 215.008C294.321 215.285 295.225 216.943 294.837 218.187C294.579 219.569 293.158 220.398 291.866 220.122ZM286.57 254.118C286.311 255.362 285.02 256.191 283.857 255.915C282.694 255.638 281.919 254.256 282.178 253.013C282.436 251.769 283.599 250.94 284.89 251.216C286.182 251.493 286.828 252.736 286.57 254.118ZM298.196 124.213C297.809 125.733 296.258 126.839 294.837 126.424C293.287 126.148 292.383 124.489 292.771 122.831C293.158 121.172 294.45 120.205 296 120.62C297.55 121.034 298.454 122.554 298.196 124.213ZM288.766 168.712C290.058 168.851 290.962 170.232 290.704 171.753C290.445 173.135 289.283 173.964 287.991 173.687C286.699 173.411 285.924 172.305 286.182 170.923C286.441 169.403 287.474 168.436 288.766 168.712ZM298.842 155.445C300.263 155.722 301.167 157.104 301.038 158.624C300.78 160.282 299.359 161.388 297.938 161.111C296.646 160.835 295.612 159.315 295.742 157.795C295.742 156.413 297.292 155.169 298.842 155.445ZM294.579 146.463C294.837 144.942 296.258 143.837 297.809 144.113C299.359 144.39 300.263 145.91 300.005 147.568C299.746 149.226 298.196 150.194 296.775 149.779C295.354 149.365 294.321 147.845 294.579 146.463ZM296 138.032C294.45 137.756 293.546 136.374 293.804 134.716C294.062 133.057 295.483 131.952 296.904 132.366C298.325 132.643 299.359 134.301 299.1 135.821C298.971 137.342 297.55 138.309 296 138.032ZM297.163 112.604C296.775 114.124 295.354 115.092 293.804 114.815C292.254 114.401 291.349 113.019 291.737 111.36C291.995 109.702 293.416 108.735 294.967 109.011C296.517 109.149 297.55 110.946 297.163 112.604ZM316.927 75.4291C316.669 77.5021 314.731 79.0222 312.794 78.6076C310.856 78.3312 309.564 76.3965 309.822 74.1853C310.21 71.9742 311.889 70.5922 313.956 71.0068C315.894 71.4214 317.186 73.3561 316.927 75.4291ZM317.573 86.8995C317.315 89.1106 315.506 90.4926 313.569 90.078C311.631 89.6634 310.21 87.7287 310.598 85.6557C310.985 83.5827 312.923 82.2008 314.731 82.6154C316.669 83.03 317.832 84.9647 317.573 86.8995ZM308.531 160.697C306.98 160.282 305.947 158.624 306.205 156.966C306.464 155.169 308.014 154.063 309.822 154.34C311.631 154.754 312.535 156.275 312.277 158.209C311.76 159.868 310.21 161.111 308.531 160.697ZM305.172 145.219C305.43 143.422 307.11 142.178 308.789 142.593C310.339 142.869 311.373 144.528 311.114 146.186C310.856 148.121 309.435 149.226 307.626 148.95C305.947 148.674 304.914 147.015 305.172 145.219ZM302.072 60.642C303.88 61.0566 305.043 62.9913 304.784 64.9261C304.397 66.8609 302.717 68.1046 300.78 67.8282C298.971 67.4137 297.679 65.4789 298.067 63.5441C298.325 61.4712 300.134 60.2274 302.072 60.642ZM312.923 59.5364C314.99 59.951 316.282 62.1622 315.765 64.2351C315.248 66.4463 313.31 67.69 311.243 67.1373C309.306 66.5845 308.143 64.5115 308.66 62.4385C309.047 60.5038 310.985 59.1218 312.923 59.5364ZM305.689 76.6729C305.301 78.6076 303.622 79.7132 301.813 79.4368C300.005 79.0222 298.842 77.3639 299.23 75.4291C299.488 73.4943 301.167 72.2506 302.976 72.527C304.784 72.6652 306.076 74.5999 305.689 76.6729ZM306.722 88.2814C306.335 90.078 304.526 91.3218 302.847 91.0454C301.038 90.6308 300.005 88.8342 300.392 86.8995C300.78 84.9647 302.33 83.8591 304.268 84.2737C305.947 84.6883 307.11 86.4849 306.722 88.2814ZM308.401 111.637C308.014 113.433 306.464 114.539 304.784 114.263C303.105 113.986 301.813 112.051 302.201 110.255C302.588 108.458 304.397 107.214 306.076 107.629C307.626 108.182 308.66 109.84 308.401 111.637ZM307.368 99.89C306.98 101.825 305.43 103.069 303.622 102.654C301.813 102.239 300.651 100.305 301.038 98.5081C301.426 96.8497 303.105 95.6059 304.784 95.8823C306.464 96.1587 307.626 97.9553 307.368 99.89ZM309.435 122.969C309.177 124.766 307.626 126.009 305.818 125.733C304.138 125.457 302.976 123.798 303.234 122.002C303.493 120.205 305.043 118.961 306.851 119.238C308.531 119.376 309.693 121.172 309.435 122.969ZM259.829 219.984C260.088 220.122 260.217 220.674 260.346 220.951C260.346 221.089 259.829 221.504 259.571 221.365C259.312 221.227 259.054 220.813 258.667 220.398C259.183 220.122 259.571 219.845 259.829 219.984ZM266.288 278.994C266.288 279.961 265.513 280.652 264.609 280.652C263.705 280.652 263.059 279.823 263.059 278.856C263.059 278.026 263.963 277.197 264.867 277.197C265.513 277.197 266.288 278.026 266.288 278.994ZM265.126 267.247C265.126 268.076 264.351 268.629 263.575 268.629C262.671 268.491 262.154 267.8 262.284 266.971C262.413 266.141 263.059 265.45 263.834 265.589C264.48 265.727 265.126 266.556 265.126 267.247ZM268.872 194.97C269.518 195.108 270.035 195.799 270.035 196.49C270.035 197.319 269.259 198.01 268.484 197.872C267.838 197.734 267.322 197.043 267.322 196.352C267.322 195.661 268.097 194.97 268.872 194.97ZM268.355 302.487C268.226 303.731 267.063 304.56 265.901 304.284C264.867 304.008 264.221 302.902 264.351 301.796C264.48 300.691 265.513 299.862 266.676 300.138C267.838 300.414 268.614 301.382 268.355 302.487ZM263.705 255.638C263.575 256.329 262.93 256.882 262.284 256.744C261.638 256.606 261.25 256.191 261.25 255.362C261.25 254.671 261.896 254.118 262.671 254.118C263.317 254.256 263.834 254.947 263.705 255.638ZM267.193 291.017C266.934 291.984 266.03 292.675 264.996 292.399C264.092 292.123 263.446 291.155 263.705 290.188C263.963 289.082 264.867 288.529 265.772 288.806C266.805 288.944 267.451 290.05 267.193 291.017ZM262.8 244.444C262.671 244.997 262.284 245.274 261.638 245.274C260.992 245.274 260.604 244.583 260.733 243.892C260.863 243.201 261.509 242.786 262.025 242.924C262.542 243.062 262.93 243.753 262.8 244.444ZM304.138 133.334C304.526 131.675 305.947 130.57 307.626 130.846C309.435 131.123 310.468 132.781 310.081 134.578C309.822 136.374 308.143 137.618 306.464 137.203C304.914 136.927 303.751 135.13 304.138 133.334ZM255.695 326.119C255.825 325.013 256.858 324.184 257.891 324.323C258.925 324.461 259.829 325.704 259.571 326.948C259.312 328.054 258.279 328.745 257.246 328.607C256.212 328.33 255.566 327.363 255.695 326.119ZM284.632 230.487C284.503 231.73 283.34 232.559 282.178 232.421C281.015 232.283 280.24 231.039 280.369 229.796C280.498 228.552 281.661 227.723 282.824 227.861C283.986 228.137 284.761 229.243 284.632 230.487ZM258.279 208.928C258.279 208.79 258.537 208.651 258.925 208.375C259.054 208.79 259.312 209.066 259.312 209.342C259.312 209.481 258.925 209.619 258.796 209.757C258.667 209.342 258.408 209.204 258.279 208.928ZM261.509 232.421C261.509 232.698 260.992 233.25 260.863 233.25C260.475 233.25 260.088 232.836 259.442 232.421C260.088 232.007 260.475 231.592 260.863 231.592C260.992 231.454 261.509 232.007 261.509 232.421ZM277.785 170.232C278.819 170.509 279.594 171.614 279.206 172.72C278.948 173.687 277.915 174.378 277.01 174.24C275.977 173.964 275.331 172.858 275.589 171.753C275.977 170.647 276.881 170.094 277.785 170.232ZM281.273 195.661C281.144 196.905 280.111 197.596 279.077 197.319C278.044 197.043 277.269 195.937 277.527 194.832C277.785 193.864 278.948 193.035 279.852 193.311C280.757 193.588 281.403 194.693 281.273 195.661ZM280.369 184.19C280.111 185.158 279.077 185.849 278.173 185.711C277.139 185.434 276.494 184.329 276.752 183.223C277.01 182.256 277.915 181.565 278.948 181.703C279.982 181.979 280.627 183.085 280.369 184.19ZM282.307 207.408C282.048 208.513 281.144 209.342 280.111 209.066C279.077 208.928 278.431 207.684 278.561 206.578C278.69 205.473 279.723 204.782 280.886 204.92C281.919 205.196 282.436 206.164 282.307 207.408ZM283.34 219.293C283.082 220.398 282.048 221.089 280.886 220.674C279.852 220.398 279.206 219.293 279.465 218.187C279.723 217.081 280.757 216.39 281.79 216.529C282.953 216.805 283.728 218.049 283.34 219.293ZM276.364 266.418C276.106 267.662 275.331 268.353 274.168 268.076C273.135 267.938 272.36 266.832 272.489 265.727C272.618 264.621 273.781 263.654 274.943 263.93C275.977 264.207 276.623 265.312 276.364 266.418ZM272.101 219.707C271.972 220.675 271.068 221.365 270.293 221.089C269.518 220.951 269.001 220.122 269.13 219.293C269.259 218.325 269.905 217.911 270.81 218.049C271.585 218.187 272.101 218.878 272.101 219.707ZM270.939 208.513C270.81 209.204 269.905 209.895 269.13 209.757C268.484 209.619 267.968 208.79 268.097 208.099C268.226 207.131 268.872 206.717 269.647 206.855C270.422 206.855 271.068 207.684 270.939 208.513ZM273.135 231.592C273.006 232.421 272.231 232.974 271.456 232.974C270.551 232.974 269.905 232.007 269.905 231.039C270.035 230.072 270.81 229.381 271.714 229.519C272.747 229.796 273.264 230.625 273.135 231.592ZM274.039 243.339C273.781 244.306 272.747 244.859 271.843 244.583C270.939 244.306 270.551 243.477 270.81 242.371C271.068 241.404 271.972 240.851 272.747 240.99C273.652 241.266 274.298 242.51 274.039 243.339ZM275.202 255.086C274.943 256.053 274.039 256.744 273.006 256.468C272.101 256.191 271.456 255.224 271.585 254.118C271.714 253.151 272.747 252.322 273.652 252.598C274.814 252.874 275.46 253.98 275.202 255.086ZM287.216 182.394C287.474 181.012 288.507 180.183 289.799 180.321C291.091 180.459 291.995 181.703 291.866 183.085C291.737 184.467 290.445 185.572 289.153 185.296C287.862 185.02 286.957 183.776 287.216 182.394ZM241.356 432.531C241.615 430.596 243.294 429.352 245.102 429.629C246.911 429.905 248.074 431.702 247.815 433.637C247.557 435.433 245.748 436.815 244.069 436.539C242.261 436.262 241.098 434.466 241.356 432.531ZM242.131 444.001C242.519 441.928 244.457 440.685 246.394 441.237C248.203 441.652 249.365 443.587 248.978 445.522C248.59 447.456 246.782 448.838 244.973 448.424C243.165 448.147 241.744 445.936 242.131 444.001ZM240.71 421.061C240.969 419.126 242.39 418.02 244.198 418.297C245.878 418.573 247.04 420.231 246.782 422.028C246.523 423.825 244.844 425.068 243.165 424.654C241.615 424.377 240.452 422.719 240.71 421.061ZM239.806 409.314C240.194 407.794 241.615 406.688 243.165 406.965C244.715 407.241 245.748 408.899 245.361 410.696C244.973 412.354 243.682 413.322 242.131 412.907C240.452 412.631 239.548 410.972 239.806 409.314ZM243.94 292.123C244.069 292.123 244.327 292.537 244.327 292.675C244.327 292.814 244.069 292.952 243.811 293.228C243.681 292.952 243.423 292.675 243.552 292.537C243.423 292.261 243.811 292.123 243.94 292.123ZM245.878 460.447C243.94 460.032 242.648 457.821 243.036 455.748C243.423 453.537 245.49 452.293 247.428 452.846C249.365 453.261 250.528 455.334 250.27 457.407C249.882 459.341 247.815 460.862 245.878 460.447ZM251.82 362.88C251.562 364.262 250.399 365.091 249.236 364.814C248.074 364.538 247.169 363.294 247.428 361.912C247.686 360.668 248.849 359.701 250.011 359.977C251.303 360.254 252.078 361.498 251.82 362.88ZM253.241 268.491C253.112 268.767 252.724 268.767 252.466 268.905C252.337 268.629 252.078 268.353 252.078 268.076C252.078 267.8 252.466 267.662 252.853 267.385C253.112 267.938 253.37 268.353 253.241 268.491ZM255.954 301.52C256.858 301.796 257.375 302.764 257.116 303.593C256.858 304.422 256.083 304.837 255.308 304.56C254.533 304.284 254.145 303.593 254.274 302.626C254.404 301.796 255.049 301.244 255.954 301.52ZM254.145 386.097C253.758 387.617 252.208 388.584 250.787 388.17C249.366 387.755 248.59 386.373 248.978 384.715C249.365 383.195 250.657 382.227 252.078 382.504C253.499 382.918 254.533 384.715 254.145 386.097ZM253.112 374.626C252.853 376.008 251.432 376.976 250.27 376.699C248.978 376.423 248.074 375.179 248.332 373.659C248.59 372.139 249.624 371.171 251.045 371.448C252.466 371.724 253.37 373.106 253.112 374.626ZM248.074 327.777C247.815 328.607 247.04 329.159 246.265 328.883C245.49 328.607 244.973 327.777 245.232 326.948C245.361 325.981 246.265 325.566 247.169 325.843C247.944 326.119 248.332 326.948 248.074 327.777ZM301.684 207.684C300.134 207.269 299.23 205.887 299.617 204.229C299.875 202.571 301.426 201.603 302.847 201.88C304.268 202.294 305.301 203.953 305.043 205.473C304.784 206.993 303.234 207.96 301.684 207.684ZM253.241 139.553C253.241 139.691 252.853 139.829 252.724 139.967C252.595 139.691 252.337 139.553 252.207 139.276C252.207 139.138 252.466 139 252.853 138.585C252.983 139 253.241 139.276 253.241 139.553ZM253.37 281.343C253.112 280.652 252.724 280.099 252.724 279.685C252.724 278.994 253.37 278.856 253.887 278.994C254.145 279.132 254.533 279.685 254.404 279.961C254.404 280.514 253.887 280.79 253.37 281.343ZM252.466 127.806C252.466 127.944 252.078 128.359 251.82 128.359C251.562 128.359 251.432 127.944 251.045 127.668C251.562 127.391 251.82 127.115 252.078 127.115C252.208 127.115 252.466 127.53 252.466 127.806ZM254.92 161.941C255.049 162.217 255.308 162.493 255.179 162.632C255.179 162.77 254.791 162.908 254.662 163.046C254.533 162.908 254.274 162.632 254.274 162.493C254.404 162.355 254.662 162.217 254.92 161.941ZM254.274 150.885C254.145 151.023 253.887 151.299 253.758 151.299C253.628 151.299 253.499 151.023 253.241 150.747C253.499 150.608 253.758 150.332 253.887 150.47C254.016 150.332 254.145 150.747 254.274 150.885ZM252.337 256.744C252.207 256.882 251.949 257.159 251.82 257.159C251.691 257.159 251.562 256.882 251.303 256.606C251.562 256.468 251.82 256.191 251.949 256.329C252.078 256.329 252.207 256.606 252.337 256.744ZM246.911 316.169C246.911 316.86 246.136 317.274 245.361 317.136C244.715 316.998 244.457 316.445 244.586 315.754C244.715 315.063 245.49 314.51 246.007 314.787C246.653 314.925 246.911 315.478 246.911 316.169ZM250.916 115.23C251.303 115.092 251.82 115.783 251.691 116.336C251.562 116.612 251.174 116.888 250.657 117.303C250.399 116.75 250.011 116.336 250.141 116.059C250.27 115.645 250.657 115.23 250.916 115.23ZM250.528 351.271C250.27 352.377 249.107 353.068 248.203 352.929C247.169 352.653 246.524 351.547 246.653 350.442C246.911 349.198 247.815 348.507 248.849 348.783C250.011 348.783 250.786 350.027 250.528 351.271ZM249.624 339.386C249.495 340.353 248.59 341.183 247.557 341.044C246.653 340.906 246.007 339.939 246.136 338.833C246.265 337.728 247.169 337.037 248.203 337.313C249.107 337.451 249.753 338.28 249.624 339.386ZM245.619 304.422C245.49 304.698 244.973 304.975 244.715 304.975C244.457 304.975 244.198 304.56 243.811 304.008C244.327 303.593 244.586 303.316 244.844 303.178C245.361 303.316 245.878 304.007 245.619 304.422ZM283.728 276.506C283.857 275.124 285.407 274.019 286.699 274.295C288.12 274.571 288.895 276.092 288.637 277.612C288.378 279.132 287.086 279.823 285.795 279.547C284.374 279.132 283.469 277.888 283.728 276.506ZM284.761 287.838C285.02 286.318 286.311 285.351 287.732 285.489C289.153 285.765 290.058 287.147 289.929 288.668C289.67 290.188 288.378 291.293 286.957 291.017C285.407 290.879 284.503 289.359 284.761 287.838ZM283.082 264.759C283.34 263.378 284.632 262.41 285.924 262.686C287.086 262.963 287.991 264.207 287.862 265.589C287.732 266.832 286.311 267.938 285.02 267.8C283.728 267.523 282.824 266.141 283.082 264.759ZM287.732 302.902C286.182 302.487 285.278 301.105 285.666 299.447C285.924 297.927 287.474 296.821 288.895 297.098C290.316 297.374 291.349 299.171 290.962 300.691C290.704 302.211 289.283 303.178 287.732 302.902ZM279.723 338.833C278.173 338.419 277.269 337.037 277.527 335.378C277.785 333.582 279.336 332.614 280.886 332.891C282.307 333.167 283.34 334.826 283.082 336.346C282.824 338.142 281.273 339.248 279.723 338.833ZM296.646 169.541C296.904 168.021 298.454 166.778 299.875 167.054C301.426 167.33 302.33 168.989 301.942 170.647C301.555 172.167 300.263 173.135 298.842 172.72C297.421 172.444 296.517 171.062 296.646 169.541ZM249.753 396.462C250.141 394.941 251.691 393.836 253.112 394.112C254.662 394.389 255.695 396.185 255.437 397.843C255.049 399.502 253.499 400.607 251.949 400.193C250.27 399.778 249.236 398.12 249.753 396.462ZM290.704 228.828C290.962 227.308 292.383 226.479 293.804 226.755C295.225 227.032 295.871 228.414 295.612 229.796C295.354 231.178 294.192 232.145 292.771 232.007C291.479 231.73 290.445 230.21 290.704 228.828ZM297.55 181.012C297.938 179.492 299.23 178.524 300.651 178.939C302.201 179.215 303.105 180.874 302.847 182.394C302.459 183.776 301.038 184.881 299.617 184.605C298.196 184.19 297.163 182.67 297.55 181.012ZM276.623 323.77C276.881 322.25 278.173 321.282 279.594 321.42C281.144 321.697 282.178 323.217 281.919 324.737C281.661 326.119 280.24 327.225 278.819 327.086C277.398 326.948 276.364 325.29 276.623 323.77ZM293.804 243.615C292.383 243.339 291.479 241.957 291.737 240.437C291.995 238.917 293.416 237.949 294.837 238.364C296.129 238.64 296.904 240.022 296.775 241.404C296.517 242.924 295.225 243.892 293.804 243.615ZM298.584 192.62C298.971 190.962 300.521 189.995 301.942 190.409C303.234 190.824 304.138 192.344 303.88 193.864C303.622 195.384 302.072 196.49 300.651 196.075C299.1 195.799 298.196 194.417 298.584 192.62ZM252.078 431.425C252.466 429.353 254.145 428.247 256.083 428.523C258.021 428.938 259.312 431.011 258.925 432.946C258.537 434.88 256.6 436.124 254.791 435.848C252.853 435.571 251.562 433.498 252.078 431.425ZM252.853 442.896C253.241 440.823 255.437 439.303 257.375 439.855C259.312 440.408 260.604 442.481 260.088 444.692C259.571 446.765 257.762 448.009 255.825 447.595C253.758 447.18 252.466 444.969 252.853 442.896ZM256.858 459.48C254.791 459.065 253.37 456.854 253.758 454.643C254.145 452.431 256.212 451.049 258.408 451.464C260.475 451.879 261.767 453.952 261.379 456.163C260.863 458.374 258.925 459.894 256.858 459.48ZM251.432 419.955C251.82 418.02 253.37 416.777 255.179 417.191C256.987 417.606 258.15 419.264 257.891 421.199C257.633 423.134 255.695 424.516 253.887 424.101C252.207 423.686 251.045 421.89 251.432 419.955ZM250.528 408.208C250.916 406.412 252.466 405.306 254.145 405.583C255.825 405.997 256.858 407.655 256.6 409.452C256.212 411.249 254.662 412.354 252.983 412.078C251.303 411.801 250.141 410.005 250.528 408.208ZM272.877 387.064C271.197 386.788 269.905 384.991 270.164 383.056C270.422 381.122 272.101 379.878 273.91 380.292C275.718 380.707 276.881 382.504 276.494 384.3C276.235 385.959 274.556 387.202 272.877 387.064ZM271.197 443.587C270.81 445.798 268.743 447.318 266.676 446.904C264.48 446.489 263.188 444.278 263.705 441.928C264.092 439.717 266.03 438.335 268.097 438.75C270.164 439.164 271.585 441.376 271.197 443.587ZM275.977 312.299C276.235 310.917 277.527 309.95 278.819 310.226C280.24 310.503 281.144 311.885 281.015 313.405C280.757 314.925 279.465 315.892 278.044 315.616C276.494 315.201 275.719 313.82 275.977 312.299ZM262.8 430.32C263.188 428.109 265.255 426.727 267.193 427.141C269.13 427.556 270.551 429.905 270.035 431.978C269.518 434.051 267.709 435.295 265.772 435.019C263.705 434.604 262.284 432.531 262.8 430.32ZM261.896 418.711C262.284 416.777 264.351 415.256 266.159 415.809C268.097 416.224 269.259 418.297 268.743 420.37C268.355 422.443 266.676 423.548 264.738 423.134C262.671 422.719 261.379 420.646 261.896 418.711ZM261.25 407.103C261.638 405.168 263.446 403.924 265.384 404.339C267.193 404.753 268.226 406.55 267.838 408.485C267.451 410.558 265.772 411.663 263.834 411.249C261.896 410.696 260.863 408.899 261.25 407.103ZM186.454 486.704C186.196 488.501 184.516 489.607 182.837 489.33C181.158 488.916 180.253 487.395 180.512 485.599C180.77 483.802 182.449 482.558 184.129 482.973C185.55 483.249 186.712 485.046 186.454 486.704ZM207.381 401.022C207.511 400.193 208.544 399.502 209.319 399.64C210.094 399.778 210.74 400.746 210.611 401.713C210.482 402.68 209.578 403.233 208.673 403.095C207.898 402.957 207.252 401.989 207.381 401.022ZM282.048 394.527C281.919 394.527 281.919 394.527 281.79 394.527C281.79 393.974 281.919 393.421 281.919 392.868C282.048 392.868 282.178 392.868 282.307 392.868C282.307 393.283 282.178 393.836 282.048 394.527ZM206.606 491.818C208.673 492.232 209.836 494.029 209.578 496.24C209.19 498.313 207.381 499.695 205.444 499.419C203.506 499.004 202.214 497.069 202.473 494.996C202.86 492.785 204.669 491.403 206.606 491.818ZM210.999 26.2309C210.869 26.5072 210.611 26.6454 210.353 27.06C210.094 26.6454 209.836 26.369 209.965 26.2309C210.094 25.9545 210.353 25.8163 210.611 25.6781C210.74 25.8163 210.999 26.0927 210.999 26.2309ZM209.578 13.3785C210.223 13.5167 210.611 14.0695 210.482 14.7605C210.353 15.3133 209.965 15.5897 209.319 15.5897C208.802 15.5897 208.415 15.1751 208.415 14.4841C208.415 13.7931 208.932 13.2403 209.578 13.3785ZM207.252 378.634C206.994 378.634 206.865 378.358 206.348 378.081C206.865 377.805 207.123 377.39 207.252 377.39C207.511 377.39 207.64 377.805 207.898 378.081C207.64 378.358 207.511 378.634 207.252 378.634ZM203.248 437.783C202.989 439.164 201.827 439.994 200.535 439.717C199.243 439.441 198.468 438.197 198.597 436.953C198.855 435.571 200.147 434.604 201.439 434.88C202.86 435.157 203.506 436.539 203.248 437.783ZM201.698 483.111C202.085 481.038 203.894 479.933 205.702 480.347C207.511 480.762 208.673 482.697 208.286 484.77C207.769 486.704 205.96 487.948 204.152 487.395C202.473 486.843 201.439 485.046 201.698 483.111ZM204.669 449.667C204.41 451.188 202.989 452.155 201.568 451.879C200.147 451.602 199.243 450.082 199.631 448.562C199.889 447.042 201.31 446.074 202.731 446.489C204.023 446.627 204.927 448.147 204.669 449.667ZM207.123 472.746C206.865 474.543 205.185 475.787 203.506 475.51C201.827 475.234 200.664 473.576 200.922 471.779C201.181 469.844 202.86 468.601 204.669 468.877C206.219 469.153 207.381 470.95 207.123 472.746ZM205.96 461.276C205.702 462.934 204.152 464.04 202.473 463.764C200.922 463.349 199.889 461.691 200.276 460.032C200.664 458.374 202.214 457.268 203.764 457.821C205.315 458.098 206.219 459.756 205.96 461.276ZM272.618 417.606C273.006 415.395 275.202 413.874 277.269 414.565C278.173 414.842 278.431 415.256 278.302 416.086C278.173 416.915 278.044 417.744 277.915 418.573C277.785 419.402 277.656 420.231 277.527 421.061C277.269 422.166 276.752 422.581 275.719 422.443C273.652 421.89 272.231 419.679 272.618 417.606ZM202.214 426.174C201.956 427.418 201.052 427.971 199.889 427.694C198.855 427.418 198.08 426.45 198.339 425.207C198.468 424.101 199.631 423.272 200.535 423.41C201.697 423.686 202.473 424.93 202.214 426.174ZM275.46 426.45C275.589 426.312 275.977 426.45 276.106 426.45C276.235 426.45 276.235 426.727 276.235 426.865C275.848 428.938 275.46 430.873 275.073 433.36C273.522 432.116 273.264 430.873 273.393 429.491C273.652 428.109 274.298 427.003 275.46 426.45ZM271.714 405.997C272.101 404.062 273.91 402.819 275.848 403.095C277.785 403.51 279.077 405.583 278.69 407.656C278.302 409.728 276.364 410.972 274.427 410.558C272.36 410.143 271.326 408.208 271.714 405.997ZM262.025 497.069C263.317 497.346 263.705 497.622 263.446 499.004C263.059 501.077 262.8 503.15 262.284 505.223C262.025 506.467 261.638 506.743 260.475 506.605C258.15 506.19 256.47 503.703 256.858 501.215C257.246 498.451 259.442 496.655 262.025 497.069ZM280.886 382.089C281.015 380.292 282.178 379.049 283.857 378.772C284.632 378.634 285.02 379.049 284.89 379.878C284.503 381.813 284.244 383.747 283.857 385.82C281.532 385.129 280.757 384.024 280.886 382.089ZM213.195 425.483C212.807 426.727 211.644 427.418 210.482 427.141C209.19 426.865 208.544 425.621 208.803 424.239C209.061 422.857 210.223 422.028 211.515 422.304C212.678 422.581 213.453 424.101 213.195 425.483ZM214.486 436.677C214.228 438.197 212.936 439.165 211.515 438.888C210.094 438.612 209.19 437.092 209.448 435.71C209.707 434.189 210.999 433.222 212.42 433.498C213.97 433.775 214.745 435.157 214.486 436.677ZM212.032 413.736C211.774 414.842 210.74 415.395 209.707 415.256C208.673 414.98 208.027 414.013 208.286 412.769C208.544 411.663 209.448 410.834 210.482 411.11C211.515 411.249 212.42 412.631 212.032 413.736ZM217.07 460.171C216.812 461.967 215.262 463.211 213.582 462.796C211.903 462.52 210.74 460.723 211.128 458.927C211.386 457.13 212.936 456.025 214.745 456.301C216.295 456.716 217.328 458.374 217.07 460.171ZM215.908 448.424C215.649 450.082 214.099 451.188 212.42 450.911C210.999 450.497 209.965 448.977 210.223 447.456C210.482 445.798 211.774 444.831 213.324 444.969C215.003 445.245 216.166 446.765 215.908 448.424ZM257.116 349.06C257.375 347.678 258.667 346.711 260.088 347.125C261.379 347.401 262.154 348.783 261.896 350.304C261.638 351.547 260.346 352.515 259.183 352.238C257.891 351.962 256.858 350.442 257.116 349.06ZM208.415 388.584C209.061 388.861 209.319 389.413 209.061 390.104C208.802 390.795 208.415 391.072 207.769 391.072C207.123 390.934 206.606 390.104 206.865 389.413C206.994 388.722 207.769 388.308 208.415 388.584ZM183.741 463.073C183.612 464.455 182.32 465.422 180.899 465.284C179.478 465.007 178.574 463.764 178.832 462.382C179.091 461 180.253 459.894 181.545 460.171C182.837 460.309 183.87 461.691 183.741 463.073ZM200.922 414.289C200.793 415.118 199.889 415.809 198.985 415.671C198.08 415.533 197.564 414.565 197.693 413.598C197.822 412.631 198.726 411.94 199.631 412.216C200.406 412.354 201.052 413.46 200.922 414.289ZM182.32 451.464C182.062 452.708 180.899 453.399 179.737 453.122C178.574 452.846 177.928 451.602 178.057 450.358C178.316 449.115 179.478 448.424 180.641 448.7C181.803 449.115 182.579 450.22 182.32 451.464ZM256.083 291.57C255.954 292.261 255.566 292.675 254.92 292.675C254.145 292.675 253.628 292.123 253.628 291.432C253.628 290.602 254.274 290.05 254.92 290.05C255.566 290.188 256.083 290.879 256.083 291.57ZM185.033 474.819C184.775 476.478 183.483 477.445 181.933 477.169C180.383 476.892 179.349 475.372 179.607 473.852C179.866 472.332 181.287 471.226 182.837 471.365C184.258 471.641 185.291 473.299 185.033 474.819ZM181.158 439.717C181.028 440.546 179.995 441.237 179.22 441.237C178.316 441.099 177.67 440.132 177.799 439.026C177.928 438.059 178.703 437.506 179.607 437.644C180.641 437.783 181.416 438.75 181.158 439.717ZM181.933 508.125C182.32 506.467 183.87 505.361 185.421 505.499C187.1 505.637 188.521 506.881 188.779 508.678C188.779 509.092 188.779 509.369 188.779 509.507L182.837 509.231C182.708 509.231 182.579 509.231 182.449 509.092C182.191 509.092 181.933 508.401 181.933 508.125ZM176.636 416.086C177.024 415.947 177.282 415.671 177.541 415.671C177.67 415.671 177.799 416.086 177.928 416.224C177.67 416.362 177.541 416.638 177.282 416.777C177.153 416.777 176.895 416.362 176.636 416.086ZM325.453 130.984C325.841 129.741 326.874 128.635 328.037 128.359L327.004 135.269C325.712 134.439 325.066 132.643 325.453 130.984ZM179.607 428.247C179.478 428.938 178.703 429.491 178.057 429.214C177.411 429.076 177.153 428.523 177.153 427.832C177.153 427.003 177.799 426.589 178.574 426.727C179.349 426.865 179.737 427.556 179.607 428.247ZM342.635 18.2154C340.826 18.9064 338.759 18.2154 337.596 16.6952C336.434 15.1751 336.305 12.9639 337.08 11.3055C337.467 10.6145 337.984 10.3382 338.759 10.4764C339.663 10.6146 340.568 10.8909 341.472 11.0291C342.247 11.1673 343.151 11.3055 343.926 11.5819C345.218 11.8583 345.606 12.4111 345.606 13.5167L345.347 15.3133C344.96 16.557 343.926 17.6626 342.635 18.2154ZM187.488 498.037C187.229 499.833 185.421 501.215 183.741 500.939C182.062 500.662 180.77 498.728 181.158 496.931C181.416 494.996 183.095 493.752 184.904 494.167C186.583 494.443 187.746 496.24 187.488 498.037ZM196.143 473.852C195.884 475.51 194.334 476.616 192.784 476.34C191.234 476.063 190.071 474.128 190.459 472.47C190.846 470.812 192.396 469.844 193.947 470.121C195.497 470.674 196.53 472.194 196.143 473.852ZM195.755 493.061C197.564 493.338 198.855 495.273 198.597 497.207C198.339 499.142 196.272 500.662 194.463 500.248C192.655 499.833 191.492 497.898 191.751 495.964C192.138 494.029 193.817 492.647 195.755 493.061ZM187.746 403.51C187.617 403.786 187.358 403.924 187.1 404.201C186.971 403.786 186.712 403.371 186.712 403.371C186.971 403.095 187.229 402.957 187.488 402.957C187.488 402.819 187.875 403.371 187.746 403.51ZM199.243 402.819C199.114 403.371 198.468 403.786 197.951 403.786C197.305 403.648 196.918 403.095 197.047 402.542C197.176 401.851 197.564 401.437 198.21 401.437C198.856 401.298 199.372 402.128 199.243 402.819ZM196.789 390.795C196.789 390.657 197.047 390.519 197.434 390.104C197.693 390.519 197.822 390.795 197.822 390.934C197.822 391.072 197.435 391.348 197.305 391.348C197.176 391.21 196.918 391.072 196.789 390.795ZM197.176 485.737C196.789 487.534 195.238 488.639 193.559 488.363C191.88 488.086 190.588 486.152 190.846 484.355C191.105 482.558 192.913 481.315 194.722 481.591C196.53 482.006 197.564 483.802 197.176 485.737ZM194.98 461.967C194.722 463.487 193.172 464.731 191.751 464.316C190.33 464.04 189.296 462.382 189.684 460.723C190.071 459.203 191.363 458.374 192.784 458.65C194.205 459.065 195.109 460.585 194.98 461.967ZM190.975 426.865C190.846 427.971 189.942 428.8 189.038 428.523C188.263 428.385 187.488 427.418 187.617 426.45C187.746 425.621 188.521 424.792 189.425 424.93C190.459 425.207 190.975 425.898 190.975 426.865ZM188.65 413.874C189.296 414.151 189.554 414.704 189.296 415.395C189.167 416.086 188.65 416.362 188.004 416.224C187.488 416.086 186.971 415.395 187.1 414.842C187.229 414.151 188.004 413.598 188.65 413.874ZM193.559 450.22C193.43 451.602 192.138 452.57 190.717 452.293C189.554 452.017 188.65 450.773 188.779 449.391C188.909 448.009 190.2 447.042 191.621 447.318C192.913 447.595 193.688 448.977 193.559 450.22ZM192.396 438.888C192.267 440.132 191.105 440.961 189.942 440.685C188.909 440.408 188.263 439.441 188.392 438.197C188.521 436.953 189.425 436.262 190.588 436.401C191.751 436.539 192.526 437.644 192.396 438.888ZM256.212 489.33C256.729 486.704 258.796 485.046 261.25 485.599C263.575 486.152 265.126 488.363 264.738 490.85C264.351 493.338 262.025 495.134 259.7 494.72C257.375 494.443 255.825 491.956 256.212 489.33ZM243.036 387.34C242.648 388.584 241.356 389.413 240.194 389.137C238.902 388.861 237.997 387.34 238.385 385.958C238.643 384.577 240.064 383.747 241.356 384.162C242.777 384.577 243.423 385.958 243.036 387.34ZM312.794 109.287C313.052 107.353 315.119 105.694 316.927 106.109C318.736 106.524 319.899 108.458 319.64 110.393C319.253 112.328 317.573 113.71 315.765 113.295C313.827 113.157 312.535 111.36 312.794 109.287ZM311.631 97.5407C311.889 95.4677 313.827 94.0857 315.765 94.5003C317.703 94.9149 318.736 96.7115 318.478 98.7845C318.09 100.857 316.282 102.239 314.344 101.825C312.664 101.41 311.373 99.4754 311.631 97.5407ZM278.561 289.773C278.431 291.155 277.269 292.123 275.977 291.846C274.814 291.57 273.91 290.326 274.168 288.944C274.427 287.7 275.589 286.871 276.881 287.147C278.044 287.424 278.69 288.391 278.561 289.773ZM317.703 136.512C315.765 136.236 314.473 134.439 314.731 132.505C314.99 130.57 316.798 129.188 318.607 129.464C320.415 129.741 321.707 131.675 321.32 133.61C321.061 135.545 319.511 136.789 317.703 136.512ZM321.32 84.8265C321.707 82.7536 323.774 81.2334 325.712 81.648C327.779 82.0626 329.071 84.1355 328.683 86.3467C328.295 88.5579 326.487 90.078 324.42 89.6634C322.224 89.2488 320.803 87.0377 321.32 84.8265ZM279.852 370.48C280.111 368.546 281.661 367.302 283.469 367.44C285.407 367.716 286.57 369.237 286.311 371.171C286.053 373.383 284.503 374.765 282.565 374.35C280.886 374.212 279.723 372.415 279.852 370.48ZM275.073 279.961C273.91 279.685 273.264 278.441 273.522 277.335C273.781 276.092 274.943 275.401 276.106 275.539C277.269 275.815 277.915 277.059 277.656 278.303C277.398 279.408 276.235 280.238 275.073 279.961ZM326.745 92.9802C328.683 93.2566 330.104 95.4677 329.716 97.6789C329.329 99.89 327.52 101.272 325.453 100.857C323.387 100.443 321.965 98.3699 322.353 96.2969C322.741 94.2239 324.808 92.7038 326.745 92.9802ZM322.353 66.3081C320.157 65.7553 318.865 63.6823 319.382 61.333C319.899 59.1218 321.966 57.6016 324.032 58.1544C326.099 58.7072 327.391 60.9184 327.004 63.1295C326.487 65.3407 324.42 66.8609 322.353 66.3081ZM327.779 74.4617C327.391 76.8111 325.453 78.3313 323.387 77.9167C321.32 77.5021 319.899 75.2909 320.157 73.0798C320.545 70.8686 322.482 69.3484 324.678 69.763C326.745 70.3158 328.037 72.2506 327.779 74.4617ZM313.698 120.758C314.085 118.823 315.894 117.579 317.703 117.856C319.511 118.27 320.803 120.205 320.415 122.14C320.028 124.075 318.219 125.457 316.411 125.042C314.473 124.627 313.31 122.693 313.698 120.758ZM259.571 383.886C259.958 382.227 261.509 381.122 263.059 381.398C264.609 381.674 265.642 383.471 265.384 385.129C265.126 386.926 263.446 388.031 261.767 387.617C260.088 387.34 259.183 385.682 259.571 383.886ZM262.8 399.364C261.25 399.087 260.088 397.291 260.217 395.494C260.475 393.698 262.284 392.316 263.963 392.73C265.642 393.145 266.676 394.803 266.417 396.6C266.288 398.534 264.609 399.778 262.8 399.364ZM267.063 315.892C265.901 315.616 265.255 314.511 265.384 313.267C265.642 311.885 266.805 311.056 267.968 311.332C269.001 311.608 269.776 312.99 269.647 314.096C269.518 315.34 268.355 316.169 267.063 315.892ZM258.021 360.807C258.279 359.286 259.571 358.319 260.992 358.595C262.413 358.872 263.317 360.254 263.059 361.774C262.8 363.294 261.509 364.262 260.088 363.985C258.667 363.709 257.762 362.327 258.021 360.807ZM258.925 372.553C259.183 370.895 260.475 369.789 262.025 370.066C263.575 370.342 264.738 372.001 264.48 373.659C264.221 375.317 262.8 376.285 261.25 376.008C259.571 375.594 258.667 374.212 258.925 372.553ZM271.585 375.041C270.035 374.626 269.001 372.968 269.259 371.31C269.518 369.513 271.197 368.407 272.877 368.684C274.685 369.098 275.589 370.619 275.202 372.553C274.814 374.35 273.264 375.456 271.585 375.041ZM279.723 301.796C279.465 303.04 278.173 303.869 277.01 303.731C275.719 303.455 274.814 302.073 275.073 300.691C275.331 299.309 276.623 298.341 277.915 298.618C279.206 298.894 280.111 300.414 279.723 301.796ZM268.614 359.563C268.872 357.904 270.551 356.799 272.101 357.075C273.522 357.49 274.556 359.01 274.297 360.668C274.039 362.327 272.489 363.571 270.939 363.294C269.389 362.88 268.355 361.359 268.614 359.563ZM266.288 324.599C266.676 323.355 267.968 322.526 269.13 322.802C270.293 323.079 271.068 324.461 270.939 325.704C270.68 327.086 269.389 328.054 268.097 327.639C266.676 327.501 265.901 325.981 266.288 324.599ZM267.709 348.231C267.968 346.71 269.389 345.743 270.81 346.019C272.36 346.296 273.393 347.678 273.135 349.336C272.877 350.995 271.456 352.1 270.035 351.824C268.484 351.409 267.451 349.751 267.709 348.231ZM266.934 336.484C267.193 334.964 268.355 334.135 269.776 334.273C271.197 334.549 272.231 335.931 271.972 337.451C271.714 338.833 270.422 339.801 269.13 339.662C267.58 339.524 266.676 338.142 266.934 336.484ZM244.198 398.811C243.94 400.331 242.519 401.298 241.098 401.022C239.677 400.746 238.643 399.087 239.031 397.567C239.418 396.047 240.839 395.218 242.26 395.494C243.552 395.909 244.457 397.291 244.198 398.811ZM303.234 251.769C303.234 250.249 304.138 248.867 305.559 248.59C307.368 248.176 308.272 249.143 308.014 251.078C308.014 251.354 307.885 251.631 307.885 251.907C307.756 252.46 307.756 253.013 307.626 253.565C307.368 254.671 306.851 255.086 305.818 254.947C304.397 254.533 303.363 253.151 303.234 251.769ZM305.43 264.759C305.43 264.898 305.172 265.036 305.043 265.036C304.914 265.036 304.655 264.898 304.655 264.759C303.751 263.378 303.88 261.857 305.043 260.614C305.301 260.337 305.559 260.337 305.947 260.199C306.076 260.614 306.205 260.89 306.205 261.305C306.205 261.719 306.076 262.134 305.947 262.686C305.818 263.378 305.559 264.068 305.43 264.759ZM302.33 239.193C302.717 237.673 304.138 236.567 305.559 236.844C307.11 237.12 308.272 238.917 308.014 240.575C307.756 242.233 306.076 243.339 304.526 243.062C302.976 242.51 301.942 240.851 302.33 239.193ZM310.21 203.4C310.598 201.603 312.148 200.359 313.827 200.774C315.506 201.189 316.54 202.985 316.152 204.782C315.765 206.44 314.344 207.546 312.664 207.269C310.985 206.855 309.952 205.196 310.21 203.4ZM313.31 212.383C314.344 212.244 314.861 212.521 314.602 213.765C314.473 214.456 314.344 215.008 314.215 215.699C314.085 216.529 313.956 217.496 313.698 218.325C313.698 218.463 313.052 218.74 312.923 218.602C311.631 218.187 310.727 216.667 310.856 215.147C311.114 213.903 312.019 212.659 313.31 212.383ZM299.1 300.553C298.971 300.967 298.713 301.796 298.454 301.796C298.067 301.796 297.55 301.52 297.163 301.105C295.612 299.309 296.388 296.545 298.454 295.854C299.359 295.577 299.875 295.992 299.746 297.098C299.617 297.65 299.617 298.203 299.488 298.756C299.359 299.309 299.23 299.862 299.1 300.553ZM290.833 343.67C290.962 344.085 291.091 344.499 291.091 344.776C291.091 345.19 290.962 345.605 290.833 346.158C290.704 346.849 290.574 347.401 290.445 348.092C290.445 348.369 290.187 348.645 290.058 348.645C289.928 348.645 289.541 348.507 289.541 348.231C288.766 346.71 288.895 345.467 290.058 344.223C290.187 343.947 290.574 343.808 290.833 343.67ZM288.249 334.134C288.508 332.614 289.67 331.509 291.091 331.509C292.77 331.371 293.416 332.2 293.158 333.996C293.158 334.411 293.029 334.687 293.029 335.102C292.9 335.517 292.9 335.931 292.771 336.484C292.383 338.28 291.479 338.695 290.058 337.866C288.637 337.175 287.991 335.655 288.249 334.134ZM339.405 39.7742C338.242 38.254 338.242 36.0429 339.147 34.3845C339.922 33.0025 341.343 32.1733 342.893 32.0351L341.472 41.2944C340.697 41.018 339.922 40.4652 339.405 39.7742ZM295.354 286.871C295.742 285.213 297.163 284.107 298.842 284.522C300.392 284.936 301.426 286.595 301.167 288.253C300.78 289.911 299.1 291.017 297.679 290.741C296 290.188 294.967 288.529 295.354 286.871ZM287.216 322.802C287.474 321.006 288.895 320.038 290.574 320.315C292.254 320.591 293.416 322.25 293.158 324.046C292.9 325.704 291.22 326.81 289.799 326.672C288.12 326.395 286.957 324.599 287.216 322.802ZM228.567 377.943C227.663 377.805 227.017 376.699 227.146 375.732C227.275 374.765 228.309 374.074 229.213 374.35C230.117 374.626 230.634 375.317 230.505 376.423C230.376 377.39 229.472 378.081 228.567 377.943ZM337.467 24.1579C337.984 21.5321 340.438 19.8738 342.893 20.4266C343.539 20.5648 344.185 20.8412 344.572 21.2558L343.28 29.824C342.635 30.1004 341.859 30.1004 341.084 29.9622C338.501 29.4094 336.951 26.7836 337.467 24.1579ZM240.064 372.692C241.356 372.968 242.131 374.212 241.873 375.456C241.615 376.561 240.323 377.39 239.289 377.114C238.256 376.837 237.481 375.594 237.61 374.488C237.868 373.244 238.902 372.553 240.064 372.692ZM234.251 411.249C233.993 412.769 232.83 413.874 231.409 413.598C229.988 413.322 228.955 411.94 229.213 410.419C229.472 408.899 230.763 407.932 232.184 408.07C233.476 408.346 234.51 409.728 234.251 411.249ZM236.835 434.604C236.576 436.539 235.156 437.644 233.347 437.368C231.668 437.092 230.505 435.433 230.763 433.637C231.022 431.84 232.701 430.596 234.38 431.011C236.06 431.287 237.093 432.946 236.835 434.604ZM237.868 446.489C237.61 448.424 235.931 449.668 234.122 449.253C232.314 448.977 231.151 447.18 231.409 445.245C231.668 443.449 233.476 442.067 235.155 442.343C236.964 442.758 238.127 444.554 237.868 446.489ZM233.218 399.916C232.959 401.298 231.668 402.266 230.376 401.851C229.213 401.575 228.438 400.193 228.696 398.811C228.955 397.567 230.117 396.738 231.409 397.014C232.701 397.291 233.347 398.534 233.218 399.916ZM236.577 328.468C236.706 328.883 236.06 329.574 235.543 329.298C235.285 329.159 235.026 328.745 234.639 328.33C235.156 328.054 235.543 327.639 235.801 327.639C236.189 327.639 236.577 328.192 236.577 328.468ZM333.333 65.4789C331.008 64.9261 329.587 62.5768 330.104 60.0892C330.621 57.7398 332.688 56.2197 334.884 56.7725C337.209 57.3253 338.63 59.6746 338.113 62.1622C337.726 64.5115 335.53 65.8935 333.333 65.4789ZM235.543 423.272C235.155 424.792 233.735 425.759 232.184 425.345C230.634 424.93 229.73 423.548 230.117 421.752C230.505 420.093 231.926 419.126 233.347 419.402C234.897 419.955 235.931 421.613 235.543 423.272ZM234.38 316.583C234.639 316.445 234.897 316.169 235.026 316.307C235.156 316.307 235.285 316.722 235.414 316.86C235.285 316.998 235.026 317.274 234.897 317.274C234.768 317.274 234.639 316.86 234.38 316.583ZM231.926 388.17C231.668 389.413 230.634 390.243 229.472 389.966C228.309 389.69 227.663 388.446 227.921 387.202C228.18 385.959 229.342 385.268 230.505 385.682C231.538 385.959 232.055 387.064 231.926 388.17ZM108.558 492.37C108.687 492.647 108.687 493.2 108.558 493.614C108.558 493.752 108.041 493.891 107.653 493.891C107.395 493.891 107.137 493.752 106.878 493.752C106.749 493.752 106.491 493.752 106.361 493.614C105.586 493.338 105.328 492.647 105.974 491.956C106.878 491.127 108.041 491.265 108.558 492.37ZM270.293 56.2197C270.035 57.7398 268.743 58.8454 267.322 58.569C265.901 58.2926 264.996 56.7725 265.255 55.3905C265.513 54.0085 266.676 53.0411 268.097 53.1793C269.518 53.4557 270.422 54.6995 270.293 56.2197ZM271.197 67.9664C270.939 69.3484 269.518 70.3158 268.226 69.9012C267.063 69.6248 266.159 67.9665 266.417 66.7227C266.676 65.3407 268.097 64.5115 269.389 64.7879C270.81 65.2025 271.456 66.4463 271.197 67.9664ZM272.231 79.575C271.972 80.957 270.551 81.9244 269.259 81.5098C268.097 81.0952 267.322 79.8514 267.709 78.4695C267.968 77.0875 269.13 76.3965 270.422 76.6729C271.585 76.9493 272.36 78.1931 272.231 79.575ZM258.925 57.0489C258.796 58.4308 257.633 59.3982 256.341 59.1218C255.179 58.8454 254.274 57.4634 254.533 56.2197C254.791 55.1141 255.954 54.2849 257.116 54.5613C258.408 54.6995 259.183 55.8051 258.925 57.0489ZM278.948 20.5648C278.69 22.3613 276.881 23.7433 275.202 23.4669C273.393 23.0523 272.231 21.3939 272.618 19.4592C273.006 17.5244 274.685 16.2806 276.494 16.6952C278.044 16.9716 279.206 18.7682 278.948 20.5648ZM269.389 44.7493C269.13 46.1313 267.58 47.2368 266.288 47.0986C264.867 46.8223 263.834 45.3021 264.092 43.6437C264.351 42.1235 265.642 41.1562 267.063 41.4326C268.614 41.709 269.647 43.2291 269.389 44.7493ZM260.863 80.4042C260.733 81.5098 259.7 82.339 258.667 82.2008C257.504 82.0626 256.858 81.0952 256.987 79.8514C257.116 78.7458 258.15 77.9167 259.183 78.1931C260.217 78.3313 260.992 79.4368 260.863 80.4042ZM259.958 68.7956C259.7 70.0394 258.537 70.8686 257.504 70.454C256.341 70.1776 255.695 68.9338 256.083 67.6901C256.341 66.5845 257.375 66.0317 258.537 66.3081C259.442 66.7227 260.088 67.6901 259.958 68.7956ZM267.838 21.5321C267.451 23.1905 265.901 24.2961 264.351 23.8815C262.671 23.6051 261.767 21.9467 262.025 20.2884C262.284 18.63 263.834 17.3862 265.384 17.6626C266.934 17.939 268.097 19.8738 267.838 21.5321ZM264.48 6.19224C266.159 6.60683 267.193 8.4034 266.805 10.2C266.417 11.8583 264.996 12.9639 263.317 12.6875C261.509 12.4111 260.475 10.7528 260.863 8.95618C261.121 7.02142 262.8 5.77765 264.48 6.19224ZM268.614 33.1407C268.355 34.7991 266.934 35.7665 265.384 35.4901C263.834 35.2137 262.8 33.6935 263.059 32.1733C263.317 30.515 264.867 29.2712 266.417 29.6858C267.968 29.9622 268.872 31.4824 268.614 33.1407ZM275.202 4.81026C277.139 5.08666 278.431 6.88322 278.044 8.95618C277.785 10.8909 275.977 12.2729 274.039 11.8583C272.231 11.4437 271.068 9.64717 271.456 7.71241C271.714 5.77764 273.264 4.53387 275.202 4.81026ZM292.771 54.4231C292.383 56.2197 290.833 57.3253 289.153 57.0489C287.345 56.7725 286.182 54.9759 286.57 53.0411C286.828 51.1064 288.637 49.8626 290.316 50.2772C291.866 50.5536 293.158 52.6265 292.771 54.4231ZM290.833 31.206C290.445 33.1407 288.637 34.3845 286.828 33.9699C285.02 33.5553 283.986 31.7587 284.244 29.824C284.503 27.751 286.311 26.5072 288.12 26.9218C289.928 27.3364 291.22 29.2712 290.833 31.206ZM291.737 42.9527C291.349 44.8875 289.67 45.9931 287.862 45.5785C286.053 45.1639 285.02 43.5055 285.278 41.5708C285.665 39.636 287.216 38.3922 289.024 38.6686C290.833 39.0832 292.125 41.018 291.737 42.9527ZM294.45 77.7785C294.062 79.4368 292.512 80.5424 290.962 80.266C289.283 79.9896 288.249 78.1931 288.637 76.3965C289.024 74.5999 290.445 73.6325 292.125 73.9089C293.675 74.1853 294.837 75.9819 294.45 77.7785ZM293.546 65.7553C293.287 67.5519 291.737 68.7956 290.058 68.5192C288.378 68.2428 287.216 66.5845 287.474 64.7879C287.732 62.9913 289.283 61.7476 290.962 62.024C292.512 62.3004 293.804 63.9587 293.546 65.7553ZM298.067 13.6549C300.005 14.0695 301.426 16.1425 301.038 18.3536C300.651 20.5648 298.842 21.9467 296.775 21.5321C294.708 21.1175 293.287 19.0446 293.675 16.9716C294.062 14.8987 296.129 13.3785 298.067 13.6549ZM279.852 32.1733C279.465 33.9699 277.785 35.0755 276.106 34.6609C274.427 34.2463 273.393 32.4497 273.781 30.6532C274.168 28.8566 275.848 27.751 277.527 28.1656C279.206 28.5802 280.24 30.3768 279.852 32.1733ZM280.627 43.7819C280.24 45.5785 278.56 46.5459 276.881 46.1313C275.331 45.7167 274.427 44.1965 274.814 42.3999C275.202 40.7416 276.752 39.636 278.302 39.9124C279.852 40.1888 281.015 42.1235 280.627 43.7819ZM290.187 19.5974C289.799 21.5321 287.862 22.9141 286.182 22.4995C284.244 22.0849 282.953 20.1502 283.34 17.939C283.728 15.8661 285.407 14.6223 287.345 15.0369C289.283 15.5897 290.574 17.6626 290.187 19.5974ZM286.311 3.42829C288.249 3.84288 289.541 5.91584 289.153 7.8506C288.766 9.92356 286.957 11.3055 285.02 10.891C282.953 10.4764 281.79 8.67979 282.178 6.46863C282.565 4.39567 284.374 3.0137 286.311 3.42829ZM282.436 66.9991C282.178 68.6574 280.757 69.6248 279.206 69.4866C277.656 69.2102 276.623 67.5518 276.881 65.8935C277.269 64.3733 278.69 63.4059 280.24 63.6823C281.79 63.9587 282.694 65.3407 282.436 66.9991ZM281.532 55.2523C281.273 56.9107 279.723 58.1544 278.173 57.878C276.623 57.6017 275.589 55.9433 275.848 54.1467C276.235 52.4883 277.656 51.3828 279.336 51.7974C280.757 52.0738 281.79 53.7321 281.532 55.2523ZM229.472 364.538C229.342 365.367 228.696 366.058 227.921 365.92C227.275 365.782 226.63 364.953 226.63 364.123C226.759 363.294 227.534 362.741 228.309 362.88C229.084 363.156 229.472 363.709 229.472 364.538ZM237.998 340.215C237.868 341.044 237.352 341.597 236.577 341.459C235.931 341.321 235.414 340.63 235.543 339.939C235.672 339.248 236.318 338.695 237.093 338.971C237.739 339.11 238.127 339.524 237.998 340.215ZM242.648 8.81799C244.069 9.09438 244.844 10.3382 244.586 11.8583C244.327 13.2403 243.036 14.2077 241.744 13.9313C240.452 13.6549 239.548 12.1347 239.806 10.891C239.935 9.50898 241.356 8.54159 242.648 8.81799ZM240.452 363.847C240.323 364.953 239.418 365.644 238.385 365.505C237.352 365.367 236.577 364.262 236.706 363.156C236.835 362.189 237.868 361.359 238.773 361.498C239.935 361.636 240.71 362.741 240.452 363.847ZM239.418 351.962C239.289 352.929 238.514 353.62 237.61 353.482C236.706 353.344 236.06 352.515 236.189 351.547C236.318 350.718 237.093 350.165 237.868 350.165C238.902 350.165 239.548 351.133 239.418 351.962ZM235.801 71.4214C235.543 71.2832 235.285 70.7304 235.285 70.454C235.285 70.1776 235.801 69.9012 236.189 69.4866C236.447 70.0394 236.706 70.3158 236.835 70.7304C236.835 71.2832 236.189 71.6978 235.801 71.4214ZM234.251 24.1579C234.122 25.2635 232.959 26.0927 232.055 25.8163C231.151 25.6781 230.505 24.5725 230.634 23.6051C230.763 22.4995 231.538 21.8085 232.572 21.8085C233.476 22.0849 234.38 23.0523 234.251 24.1579ZM236.447 59.1218C236.447 59.8128 235.672 60.3656 235.026 60.2274C234.51 60.0892 234.122 59.3982 234.122 58.8454C234.251 58.1544 234.768 57.7398 235.285 57.878C235.931 57.878 236.447 58.4308 236.447 59.1218ZM231.668 10.3382C232.83 10.6146 233.476 11.8583 233.218 12.9639C232.959 14.2077 231.797 14.8987 230.634 14.4841C229.601 14.2077 228.955 13.1021 229.213 11.9965C229.472 10.8909 230.505 10.0618 231.668 10.3382ZM235.414 47.7896C235.156 48.4806 234.38 48.8952 233.864 48.757C233.089 48.4806 232.701 47.5132 232.83 46.8223C233.089 46.1313 233.734 45.7167 234.51 45.8549C235.285 46.1313 235.672 46.9604 235.414 47.7896ZM234.768 35.7665C234.639 36.5957 233.734 37.4248 232.959 37.2866C232.184 37.1484 231.409 36.1811 231.538 35.3519C231.668 34.3845 232.443 33.6935 233.347 33.8317C234.251 33.9699 234.897 34.9373 234.768 35.7665ZM237.61 82.2008C237.352 82.339 237.093 82.6154 236.835 82.6154C236.706 82.6154 236.577 82.2008 236.318 81.9244C236.706 81.7862 236.964 81.648 237.222 81.648C237.481 81.648 237.481 82.0626 237.61 82.2008ZM250.787 104.589C250.657 105.142 250.141 105.556 249.624 105.28C249.236 105.142 249.107 104.451 248.72 103.898C249.236 103.621 249.624 103.345 250.011 103.345C250.657 103.483 250.916 103.898 250.787 104.589ZM250.27 92.842C250.141 93.533 249.365 94.0857 248.72 93.8093C248.203 93.6711 247.815 92.9802 247.945 92.2892C248.074 91.5982 248.59 91.3218 249.236 91.46C249.882 91.5982 250.399 92.2892 250.27 92.842ZM253.628 7.29782C255.049 7.57422 256.083 9.09439 255.825 10.7528C255.566 12.4111 254.274 13.3785 252.595 13.1021C251.045 12.8257 250.011 11.3055 250.399 9.64717C250.657 8.127 252.207 7.02143 253.628 7.29782ZM257.375 34.3845C256.987 35.7665 255.695 36.5957 254.404 36.3193C253.112 36.0429 252.207 34.5227 252.466 33.1407C252.724 31.6205 254.145 30.7914 255.566 31.206C256.987 31.4823 257.633 32.8643 257.375 34.3845ZM256.47 22.4995C256.212 24.0197 254.791 24.9871 253.37 24.5725C251.949 24.2961 251.045 22.7759 251.432 21.2558C251.691 19.7356 253.112 18.7682 254.533 19.1828C255.954 19.5974 256.858 21.1176 256.47 22.4995ZM247.04 46.6841C246.782 47.6514 245.748 48.3424 244.973 48.3424C243.94 48.2042 243.165 47.0987 243.294 45.9931C243.423 44.7493 244.457 44.0583 245.49 44.3347C246.523 44.4729 247.299 45.5785 247.04 46.6841ZM246.136 35.0755C246.007 36.3193 244.844 37.1484 243.682 37.0103C242.519 36.8721 241.744 35.6283 242.002 34.3845C242.26 33.2789 243.165 32.4497 244.198 32.5879C245.49 32.7261 246.265 33.8317 246.136 35.0755ZM245.102 23.6051C244.844 24.9871 243.552 25.8163 242.39 25.5399C241.227 25.2635 240.452 23.8815 240.71 22.6377C240.969 21.3939 242.131 20.5648 243.423 20.8412C244.715 20.9794 245.49 22.2231 245.102 23.6051ZM249.365 81.3716C249.365 82.2008 248.59 82.8918 247.815 82.7536C247.169 82.6154 246.653 81.9244 246.653 81.2334C246.653 80.4042 247.557 79.7132 248.203 79.8514C248.849 79.8514 249.365 80.6806 249.365 81.3716ZM247.815 58.1544C247.686 59.1218 246.911 59.8128 246.007 59.6746C245.103 59.5364 244.327 58.569 244.457 57.6016C244.586 56.7725 245.49 56.0815 246.265 56.0815C247.299 56.2197 247.944 57.0489 247.815 58.1544ZM248.461 69.9012C248.332 70.7304 247.557 71.2832 246.782 71.2832C245.878 71.145 245.232 70.3158 245.49 69.3484C245.619 68.5192 246.265 67.9665 247.169 68.1047C248.074 68.1047 248.59 68.9338 248.461 69.9012ZM258.279 45.8549C258.021 47.2368 256.6 48.2042 255.308 47.7896C254.145 47.375 253.37 46.1313 253.758 44.7493C254.016 43.3673 255.179 42.6763 256.47 42.9527C257.762 43.2291 258.537 44.4729 258.279 45.8549ZM154.417 501.077C154.159 502.597 153.254 503.15 151.317 502.873C149.25 502.459 148.733 501.768 148.991 500.11C149.25 498.451 150.671 497.346 152.092 497.622C153.642 497.898 154.675 499.557 154.417 501.077ZM152.996 489.745C152.738 491.127 151.446 492.094 150.154 491.818C148.862 491.541 147.958 490.159 148.087 488.777C148.346 487.257 149.637 486.29 151.058 486.566C152.479 486.981 153.254 488.225 152.996 489.745ZM151.963 477.86C151.833 479.104 150.671 479.933 149.508 479.795C148.346 479.656 147.57 478.413 147.7 477.169C147.829 475.925 148.991 475.096 150.154 475.234C151.317 475.51 152.092 476.616 151.963 477.86ZM140.724 478.965C140.595 480.071 139.69 480.762 138.657 480.624C137.623 480.485 136.848 479.38 136.978 478.274C137.107 477.307 138.14 476.478 139.044 476.616C140.207 476.754 140.853 477.86 140.724 478.965ZM136.202 455.195C136.202 454.919 136.59 454.781 136.848 454.366C137.107 454.919 137.365 455.195 137.365 455.472C137.236 455.748 136.848 455.886 136.59 456.025C136.59 455.61 136.202 455.472 136.202 455.195ZM139.174 466.942C139.174 467.771 138.399 468.462 137.623 468.324C136.978 468.186 136.332 467.219 136.461 466.528C136.59 465.837 137.365 465.284 138.011 465.422C138.657 465.56 139.174 466.251 139.174 466.942ZM164.106 488.777C163.718 490.298 162.426 491.127 161.005 490.85C159.584 490.574 158.68 489.054 158.938 487.534C159.197 486.152 160.747 485.046 162.039 485.322C163.46 485.461 164.493 487.119 164.106 488.777ZM162.814 476.616C162.685 478.136 161.393 479.104 160.101 478.827C158.938 478.551 158.034 477.307 158.292 475.925C158.551 474.543 159.713 473.714 160.876 473.852C162.168 474.128 162.943 475.234 162.814 476.616ZM165.527 500.386C165.139 502.044 163.589 503.15 162.039 502.735C160.359 502.459 159.455 500.939 159.714 499.142C159.972 497.484 161.522 496.24 163.072 496.516C164.622 496.793 165.914 498.728 165.527 500.386ZM147.57 455.334C147.054 455.195 146.537 454.504 146.666 453.813C146.795 453.122 147.441 452.846 148.087 452.984C148.604 453.122 148.862 453.675 148.862 454.228C148.733 454.919 148.087 455.472 147.57 455.334ZM150.412 466.251C150.154 467.219 149.379 467.771 148.475 467.495C147.57 467.219 147.054 466.389 147.183 465.422C147.312 464.593 148.346 463.902 149.121 463.902C149.896 464.178 150.671 465.284 150.412 466.251ZM128.322 477.722C129.097 477.86 129.743 478.827 129.614 479.795C129.485 480.762 128.581 481.315 127.676 481.177C126.772 481.038 126.126 480.071 126.385 479.104C126.514 478.274 127.547 477.583 128.322 477.722ZM119.926 492.647C119.796 493.752 118.892 494.443 117.859 494.305C116.825 494.167 116.05 493.061 116.179 491.956C116.309 490.988 117.342 490.159 118.246 490.297C119.409 490.436 120.055 491.541 119.926 492.647ZM115.275 468.739C115.663 468.462 115.921 468.186 116.05 468.324C116.308 468.462 116.438 468.739 116.567 469.015C116.438 469.153 116.179 469.43 116.05 469.43C115.792 469.43 115.533 469.153 115.275 468.739ZM105.716 482.697C105.328 482.42 105.199 481.867 104.811 481.315C105.328 481.038 105.716 480.624 106.232 480.624C106.878 480.624 107.266 481.315 107.137 482.006C107.007 482.558 106.232 483.111 105.716 482.697ZM96.1562 482.697C96.1562 483.249 95.7686 483.526 95.3811 483.388C95.1227 483.249 94.8643 482.835 94.3476 482.42C94.9935 482.144 95.2519 481.867 95.6394 482.006C95.8978 481.867 96.1562 482.42 96.1562 482.697ZM300.392 6.88322C300.005 8.95618 297.938 10.4764 296 10.0618C293.933 9.64718 292.512 7.43602 292.9 5.22486C293.029 4.25748 293.546 3.42829 294.191 2.8755L298.713 2.7373C300.005 3.56649 300.78 5.22486 300.392 6.88322ZM161.651 465.146C161.393 466.251 160.359 467.08 159.455 466.804C158.422 466.528 157.776 465.422 157.905 464.316C158.034 463.211 159.197 462.52 160.23 462.658C161.264 462.934 161.78 463.902 161.651 465.146ZM141.886 490.574C141.628 491.956 140.465 492.785 139.303 492.509C138.14 492.232 137.236 490.85 137.494 489.607C137.753 488.363 138.915 487.534 140.207 487.81C141.499 487.948 142.145 489.054 141.886 490.574ZM142.92 500.524C142.791 501.353 142.145 500.801 141.757 500.801C141.499 500.801 141.241 500.662 140.982 500.662C140.465 500.524 139.949 500.524 139.432 500.386C139.303 500.386 139.174 500.109 139.174 499.971C139.174 499.833 139.303 499.557 139.303 499.557C140.078 498.866 141.111 498.866 141.886 499.419C142.403 499.557 142.92 500.248 142.92 500.524ZM117.342 479.242C118.117 479.38 118.634 480.209 118.375 481.038C118.117 481.729 117.471 482.144 116.825 482.006C116.05 481.867 115.533 480.9 115.792 480.071C115.921 479.518 116.696 479.104 117.342 479.242ZM126.772 468.877C126.385 468.739 126.126 468.186 125.739 467.633C126.255 467.219 126.643 466.804 127.031 466.804C127.676 466.666 128.064 467.357 128.064 468.048C127.935 468.601 127.289 469.153 126.772 468.877ZM131.035 491.541C130.906 492.785 129.743 493.614 128.581 493.338C127.547 493.061 126.772 492.094 126.901 490.988C127.031 489.745 128.064 488.916 129.227 489.054C130.518 489.192 131.294 490.298 131.035 491.541ZM175.344 487.534C175.086 489.192 173.665 490.159 172.115 489.883C170.565 489.607 169.531 488.225 169.79 486.566C170.048 484.77 171.469 483.664 173.019 483.94C174.569 484.217 175.603 485.875 175.344 487.534ZM267.58 469.983C265.772 469.015 264.867 467.08 265.255 465.007C265.642 463.073 267.193 461.552 269.001 461.552C269.518 461.552 270.035 461.829 269.905 462.52C269.518 464.869 269.13 467.219 268.614 469.43C268.614 470.259 268.097 470.259 267.58 469.983ZM267.451 474.681C267.451 474.958 267.709 475.096 267.58 475.372C267.322 476.754 267.193 478.136 266.676 479.795C265.772 477.722 265.901 476.34 266.805 474.958C266.934 474.819 267.322 474.819 267.451 474.681ZM260.346 509.092C260.604 508.954 260.992 508.954 261.25 509.092C261.379 509.092 261.509 509.507 261.379 509.783C261.121 510.889 260.992 512.133 260.733 513.376L257.633 513.238C257.891 511.442 258.796 509.783 260.346 509.092ZM252.337 509.783C253.887 510.198 255.179 511.442 255.695 512.962L247.299 512.547C248.203 510.613 250.27 509.369 252.337 509.783ZM320.157 176.866C320.286 176.728 320.545 176.728 320.674 176.728L319.899 182.117C318.348 179.906 318.478 178.11 320.157 176.866ZM334.238 77.0875C331.912 76.6729 330.491 74.4617 330.879 72.1124C331.267 69.763 333.333 68.1046 335.53 68.5192C336.175 68.6574 336.692 68.9338 337.08 69.2102L335.917 77.0875C335.4 77.0875 334.884 77.0875 334.238 77.0875ZM256.341 174.24C256.341 174.378 255.954 174.655 255.825 174.655C255.695 174.655 255.566 174.378 255.308 174.102C255.566 173.964 255.825 173.687 255.954 173.826C256.083 173.826 256.341 174.102 256.341 174.24ZM241.356 510.889C242.39 511.027 243.294 511.58 243.94 512.409L237.739 512.133C238.643 511.165 240.064 510.613 241.356 510.889ZM327.262 124.213C325.324 123.798 324.032 121.863 324.291 119.79C324.549 117.579 326.487 116.059 328.554 116.474C328.941 116.612 329.458 116.75 329.846 117.026L328.683 124.213C328.295 124.351 327.779 124.351 327.262 124.213ZM320.028 171.476C318.348 170.923 317.315 168.989 317.832 167.054C318.219 165.257 319.769 164.29 321.578 164.566C321.966 164.705 322.224 164.705 322.482 164.843L321.449 171.476C321.061 171.614 320.545 171.614 320.028 171.476ZM332.946 95.8823C333.075 95.6059 333.075 95.3295 333.204 95.0531L333.075 96.1587C332.946 96.1587 332.946 96.0205 332.946 95.8823ZM331.913 83.8591C332.171 81.9244 333.721 80.5424 335.4 80.4042L334.109 88.5579C332.688 87.5905 331.654 85.6557 331.913 83.8591ZM339.663 47.6514C339.793 46.6841 340.18 45.9931 340.826 45.3021L340.051 50.5536C339.663 49.7244 339.534 48.757 339.663 47.6514ZM176.378 499.142C176.12 500.939 174.569 502.182 172.761 501.906C171.081 501.63 169.919 499.971 170.177 498.175C170.436 496.378 171.986 495.134 173.794 495.411C175.474 495.549 176.636 497.346 176.378 499.142ZM160.101 453.399C159.972 454.366 159.197 455.057 158.422 454.919C157.647 454.781 157.13 453.952 157.259 453.122C157.388 452.293 158.034 451.74 158.809 451.74C159.584 451.879 160.101 452.431 160.101 453.399ZM173.148 507.296C174.699 506.605 175.603 506.743 176.507 507.987C175.344 507.71 174.44 507.572 173.148 507.296ZM173.923 475.787C173.665 477.307 172.502 478.136 171.081 477.86C169.66 477.583 168.756 476.063 169.015 474.681C169.273 473.299 170.694 472.332 171.986 472.608C173.278 472.746 174.182 474.267 173.923 475.787ZM169.919 440.823C169.79 441.514 169.015 442.067 168.369 441.928C167.594 441.79 167.206 441.237 167.206 440.408C167.206 439.579 167.981 438.888 168.756 439.026C169.402 439.026 170.048 439.994 169.919 440.823ZM172.632 464.316C172.373 465.56 171.081 466.528 169.919 466.251C168.756 465.975 167.981 464.731 168.239 463.349C168.498 461.967 169.66 461.276 170.952 461.691C172.115 461.829 172.761 463.073 172.632 464.316ZM203.506 506.19C204.023 503.979 205.96 502.735 208.027 503.288C210.094 503.841 211.386 505.914 210.999 507.987C210.74 509.092 210.223 509.922 209.319 510.613L204.798 510.336C203.635 509.369 203.118 507.849 203.506 506.19ZM192.655 507.296C193.042 505.223 194.851 503.841 196.789 504.117C198.855 504.394 200.147 506.605 199.76 508.678C199.631 509.092 199.501 509.507 199.243 509.922L192.784 509.645C192.526 509.092 192.396 508.263 192.655 507.296ZM167.335 429.353C167.077 429.214 166.948 428.8 166.948 428.662C166.948 428.385 167.335 428.247 167.852 427.971C167.981 428.523 168.24 428.8 168.11 429.076C167.981 429.076 167.464 429.353 167.335 429.353ZM171.34 452.57C171.081 453.537 170.177 454.228 169.273 454.09C168.239 453.813 167.594 452.708 167.852 451.602C168.11 450.635 169.144 450.082 170.048 450.358C170.952 450.497 171.598 451.602 171.34 452.57ZM157.388 442.481C157.13 442.343 156.613 441.79 156.613 441.652C156.742 441.237 157.13 440.961 157.647 440.408C157.905 440.961 158.292 441.376 158.292 441.652C158.551 442.205 157.905 442.619 157.388 442.481ZM303.751 53.1793C303.493 55.2523 301.942 56.6343 300.005 56.4961C297.938 56.2197 296.517 54.4231 296.775 52.3502C297.033 50.4154 298.842 48.8952 300.651 49.1716C302.459 49.1716 303.88 51.1064 303.751 53.1793ZM304.526 3.2901C305.43 3.42829 306.335 3.70469 307.239 3.84289C308.143 3.98108 309.047 4.11927 309.952 4.39567C311.114 4.67206 311.243 5.22485 310.985 6.33043C310.468 8.54159 308.272 9.92356 306.205 9.23258C304.138 8.67979 302.717 6.33043 303.234 4.25747C303.363 3.56649 303.88 3.2901 304.526 3.2901ZM313.181 28.9948C312.794 31.3442 310.727 32.8643 308.66 32.4497C306.464 32.0351 305.172 29.824 305.559 27.4746C305.947 25.1253 308.014 23.7433 310.21 24.2961C312.277 24.7107 313.569 26.7836 313.181 28.9948ZM302.976 41.8472C302.588 43.7819 300.78 45.1639 298.971 44.8875C297.033 44.6111 295.742 42.5381 296 40.4652C296.388 38.254 298.067 37.0102 300.134 37.4248C302.072 37.8394 303.363 39.7742 302.976 41.8472ZM314.215 40.8798C313.827 43.0909 311.76 44.4729 309.564 43.9201C307.497 43.3673 306.335 41.4326 306.722 39.2214C307.11 37.0102 309.047 35.6283 311.114 36.0429C313.181 36.3193 314.602 38.6686 314.215 40.8798ZM312.148 17.6626C311.76 20.012 309.822 21.3939 307.626 20.9793C305.43 20.5648 303.88 18.2154 304.268 16.0042C304.655 13.7931 306.851 12.2729 308.918 12.5493C311.114 12.9639 312.535 15.3133 312.148 17.6626ZM299.1 25.5399C301.167 25.9545 302.459 28.0274 301.942 30.2386C301.555 32.3115 299.617 33.5553 297.679 33.1407C295.742 32.7261 294.45 30.6532 294.837 28.5802C295.225 26.5072 297.163 25.2635 299.1 25.5399ZM287.862 136.512C287.603 137.894 286.441 138.723 285.278 138.585C283.986 138.447 282.953 137.065 283.211 135.683C283.469 134.301 284.761 133.334 286.053 133.61C287.345 133.887 288.12 135.269 287.862 136.512ZM288.637 148.121C288.378 149.503 287.216 150.332 285.924 150.056C284.632 149.779 283.857 148.674 283.986 147.292C284.115 145.91 285.278 145.081 286.57 145.219C287.991 145.357 288.895 146.739 288.637 148.121ZM292.9 85.5175C294.45 85.6557 295.742 87.5905 295.483 89.2488C295.225 90.9072 293.675 92.0128 291.995 91.7364C290.316 91.46 289.283 89.9398 289.541 88.1433C289.799 86.4849 291.349 85.3793 292.9 85.5175ZM289.67 159.729C289.541 161.111 288.249 162.079 286.828 161.802C285.536 161.526 284.761 160.282 285.02 158.9C285.278 157.518 286.311 156.689 287.603 156.966C289.024 157.242 289.928 158.486 289.67 159.729ZM316.152 5.63945C316.669 5.63945 317.186 5.77765 317.703 5.91585C318.219 6.05404 318.865 6.05404 319.382 6.33043C319.899 6.46863 320.932 6.33044 320.932 7.29782C320.932 7.71241 320.028 8.2652 319.382 8.40339C317.961 8.81799 316.54 8.5416 315.377 7.29782C314.99 6.88323 314.344 6.46863 314.731 5.77764C314.861 5.50125 315.636 5.63945 316.152 5.63945ZM336.175 38.6686C335.788 41.2944 333.463 42.9527 331.137 42.3999C328.941 41.8471 327.391 39.3596 327.779 37.0103C328.166 34.5227 330.491 33.0025 332.817 33.4171C335.142 33.9699 336.563 36.1811 336.175 38.6686ZM335.142 27.1982C334.625 29.824 332.558 31.3442 329.975 30.7914C327.52 30.2386 326.099 27.751 326.616 25.2635C327.133 22.9141 329.329 21.2557 331.654 21.6703C334.109 22.0849 335.659 24.5725 335.142 27.1982ZM319.511 159.729C317.703 159.315 316.54 157.657 316.798 155.722C317.057 153.787 318.865 152.405 320.674 152.681C322.482 153.096 323.645 154.893 323.257 156.966C322.999 159.038 321.32 160.144 319.511 159.729ZM330.879 109.149C330.621 111.36 328.812 113.019 326.745 112.742C324.808 112.466 323.257 110.393 323.516 108.182C323.774 106.109 325.583 104.589 327.52 104.865C329.587 105.003 331.008 106.938 330.879 109.149ZM330.879 10.0618C333.333 10.4764 334.884 12.9639 334.496 15.4515C334.109 18.0772 331.783 19.7356 329.458 19.321C327.004 18.9064 325.453 16.4188 325.841 13.9313C326.228 11.3055 328.425 9.50898 330.879 10.0618ZM314.861 52.4883C314.473 54.6995 312.406 56.0815 310.468 55.6669C308.531 55.2523 307.11 52.9029 307.497 50.83C307.885 48.757 309.952 47.375 311.889 47.7896C314.085 48.2042 315.248 50.2772 314.861 52.4883ZM286.957 125.042C286.828 126.424 285.536 127.391 284.115 127.115C282.694 126.839 281.919 125.595 282.048 124.213C282.307 122.831 283.469 121.725 284.761 122.002C286.053 122.14 287.087 123.66 286.957 125.042ZM323.257 16.6952C322.741 19.0446 320.545 20.5648 318.348 20.1502C316.152 19.7356 314.473 17.1098 314.99 14.7605C315.377 12.2729 317.703 10.7527 320.028 11.3055C322.482 11.8583 323.903 14.3459 323.257 16.6952ZM325.97 51.3828C325.583 53.7321 323.516 55.2523 321.19 54.6995C319.124 54.1467 317.703 51.9356 318.09 49.7244C318.478 47.5132 320.803 45.8549 322.87 46.4077C325.066 46.8223 326.487 49.0334 325.97 51.3828ZM324.291 28.3038C323.903 30.6532 321.707 32.1733 319.511 31.7587C317.315 31.3442 315.894 29.133 316.282 26.6454C316.669 24.1579 318.607 22.6377 320.932 23.0523C323.257 23.6051 324.807 25.8163 324.291 28.3038ZM325.066 39.4978C324.678 41.8471 322.741 43.5055 320.545 43.2291C318.348 42.8145 316.798 40.6034 317.186 38.254C317.444 35.9047 319.64 34.2463 321.836 34.6609C324.032 34.9373 325.453 37.0102 325.066 39.4978ZM337.209 50.5536C336.821 53.0411 334.625 54.5613 332.3 54.1467C329.975 53.5939 328.425 51.1064 328.941 48.757C329.458 46.4077 331.654 44.8875 333.85 45.3021C336.046 45.5785 337.596 48.066 337.209 50.5536ZM264.996 138.723C264.867 139.414 264.092 139.829 263.446 139.829C262.671 139.691 262.154 138.862 262.413 138.032C262.542 137.342 263.317 136.789 263.963 136.927C264.609 136.927 265.255 137.894 264.996 138.723ZM267.838 173.273C267.709 173.964 267.063 174.517 266.288 174.378C265.642 174.24 265.255 173.549 265.384 172.72C265.513 172.029 266.03 171.614 266.676 171.753C267.451 171.891 267.968 172.582 267.838 173.273ZM267.063 161.941C266.805 162.632 266.03 163.046 265.384 162.77C264.738 162.493 264.351 161.802 264.48 161.111C264.609 160.42 265.384 160.006 266.03 160.144C266.805 160.282 267.322 161.111 267.063 161.941ZM266.03 150.47C265.772 151.161 264.996 151.576 264.351 151.299C263.705 151.023 263.317 150.332 263.446 149.641C263.575 148.95 264.351 148.397 264.996 148.535C265.772 148.812 266.159 149.641 266.03 150.47ZM263.317 114.954C263.317 115.921 262.542 116.612 261.638 116.474C260.863 116.336 260.217 115.645 260.346 114.815C260.346 113.848 261.25 113.157 262.154 113.295C262.8 113.433 263.446 114.124 263.317 114.954ZM264.221 126.977C263.963 127.806 263.188 128.359 262.542 128.082C261.767 127.806 261.25 126.977 261.509 126.148C261.638 125.318 262.542 124.904 263.317 125.042C264.092 125.318 264.48 126.148 264.221 126.977ZM257.246 185.987C257.116 186.125 256.858 186.402 256.729 186.402C256.6 186.402 256.47 186.125 256.212 185.849C256.47 185.711 256.729 185.434 256.858 185.572C256.987 185.572 257.116 185.849 257.246 185.987ZM262.413 103.76C262.284 104.589 261.379 105.418 260.604 105.28C259.829 105.142 259.054 104.174 259.183 103.345C259.312 102.378 260.088 101.687 260.992 101.825C261.896 101.963 262.542 102.792 262.413 103.76ZM258.279 315.202C258.021 316.169 257.246 316.722 256.341 316.583C255.308 316.445 254.662 315.478 254.92 314.372C255.049 313.405 256.083 312.714 256.987 312.852C257.891 313.129 258.537 314.234 258.279 315.202ZM259.958 89.9398C260.863 90.078 261.638 91.0454 261.509 92.151C261.379 93.1184 260.475 93.8094 259.442 93.6712C258.537 93.533 258.021 92.7038 258.021 91.7364C258.15 90.4926 258.925 89.8016 259.958 89.9398ZM258.279 197.457C258.15 197.596 257.891 197.872 257.762 197.872C257.633 197.872 257.504 197.596 257.246 197.319C257.504 197.181 257.762 196.905 257.891 197.043C258.021 196.905 258.15 197.319 258.279 197.457ZM285.924 113.572C285.665 114.954 284.244 115.783 282.953 115.506C281.661 115.23 280.886 113.848 281.015 112.466C281.273 110.946 282.436 110.117 283.857 110.393C285.278 110.669 286.182 112.051 285.924 113.572ZM277.527 148.95C277.398 150.056 276.494 151.023 275.46 150.885C274.427 150.885 273.652 149.641 273.652 148.535C273.781 147.43 274.814 146.601 275.848 146.739C277.01 147.015 277.656 147.845 277.527 148.95ZM278.302 160.973C278.044 161.941 277.01 162.632 276.106 162.355C275.073 162.217 274.427 161.25 274.556 160.144C274.685 159.038 275.719 158.209 276.752 158.348C277.785 158.762 278.561 160.006 278.302 160.973ZM281.144 75.2909C282.436 75.5673 283.469 77.2257 283.211 78.6076C282.953 80.1278 281.403 81.2334 279.982 80.8188C278.561 80.4042 277.656 79.0222 277.915 77.5021C278.173 75.9819 279.723 74.8763 281.144 75.2909ZM285.149 101.825C284.89 103.345 283.728 104.174 282.307 104.036C280.886 103.76 279.852 102.378 280.111 100.857C280.369 99.4754 281.661 98.508 282.953 98.6462C284.374 98.7844 285.407 100.166 285.149 101.825ZM284.244 90.078C283.986 91.5982 282.565 92.5656 281.144 92.2892C279.723 92.0128 278.819 90.4926 279.077 88.9724C279.336 87.4523 280.757 86.4849 282.178 86.7613C283.469 87.0377 284.503 88.5578 284.244 90.078ZM276.494 137.48C276.364 138.723 275.46 139.414 274.297 139.276C273.264 139.138 272.489 138.033 272.618 136.927C272.747 135.96 273.781 134.992 274.814 135.13C275.848 135.13 276.623 136.236 276.494 137.48ZM271.197 88.2814C272.36 88.5578 273.135 89.9398 272.747 91.3218C272.489 92.5656 271.456 93.2566 270.164 92.9802C268.872 92.7038 268.097 91.46 268.355 90.078C268.743 88.8342 270.035 88.0051 271.197 88.2814ZM273.781 102.93C273.522 104.174 272.36 105.003 271.326 104.727C270.293 104.451 269.389 103.207 269.518 102.101C269.647 100.857 270.939 99.89 272.231 100.305C273.393 100.443 274.039 101.687 273.781 102.93ZM274.814 114.401C274.685 115.645 273.393 116.474 272.36 116.197C271.326 115.921 270.68 114.815 270.81 113.71C270.939 112.466 271.843 111.775 273.006 111.913C274.168 112.051 274.943 113.295 274.814 114.401ZM269.001 184.881C269.001 185.711 268.226 186.263 267.451 186.125C266.805 185.987 266.288 185.296 266.417 184.467C266.547 183.776 267.193 183.223 267.838 183.361C268.484 183.499 269.001 184.19 269.001 184.881ZM275.46 125.871C275.202 126.977 274.298 127.806 273.264 127.53C272.231 127.391 271.326 126.009 271.714 124.904C271.972 123.798 273.006 123.245 274.039 123.384C275.073 123.66 275.719 124.766 275.46 125.871ZM279.077 358.595C279.336 356.937 281.015 355.555 282.694 355.832C284.374 356.108 285.665 358.043 285.278 359.839C285.02 361.636 283.34 362.741 281.661 362.465C279.852 362.327 278.69 360.53 279.077 358.595ZM213.324 493.614C213.711 491.541 215.908 490.021 217.845 490.436C219.783 490.85 221.075 493.061 220.687 495.273C220.3 497.484 218.362 498.866 216.295 498.313C214.228 497.898 212.807 495.687 213.324 493.614ZM216.941 510.198C214.874 509.783 213.453 507.434 213.841 505.223C214.228 503.012 216.424 501.492 218.491 501.768C220.687 502.182 222.108 504.532 221.591 506.881C221.204 509.231 219.137 510.613 216.941 510.198ZM212.549 481.867C212.936 479.795 214.874 478.413 216.812 478.965C218.62 479.38 219.783 481.453 219.525 483.388C219.137 485.461 217.328 486.843 215.391 486.428C213.195 486.013 212.161 484.079 212.549 481.867ZM221.979 400.746C221.721 401.851 220.816 402.68 219.654 402.404C218.62 402.266 217.845 401.022 217.974 399.916C218.104 398.673 219.266 397.844 220.429 398.12C221.591 398.534 222.108 399.502 221.979 400.746ZM223.4 449.944C221.591 449.529 220.687 448.009 221.075 446.074C221.462 444.278 223.142 443.172 224.692 443.587C226.242 444.001 227.275 445.66 227.017 447.318C226.759 449.253 225.079 450.358 223.4 449.944ZM221.591 457.959C221.85 456.025 223.4 454.781 225.209 454.919C227.017 455.195 228.309 457.13 228.051 459.065C227.663 461 225.984 462.105 224.304 461.829C222.367 461.552 221.333 459.894 221.591 457.959ZM227.921 509.231C225.725 508.678 224.304 506.605 224.821 504.117C225.338 501.768 227.405 500.248 229.601 500.662C231.797 501.077 233.218 503.426 232.83 505.776C232.443 508.125 230.247 509.783 227.921 509.231ZM223.788 492.785C224.175 490.574 226.242 489.054 228.309 489.468C230.505 489.883 231.797 492.094 231.409 494.305C231.022 496.655 228.955 498.037 226.888 497.622C224.821 497.207 223.4 494.996 223.788 492.785ZM223.271 481.177C223.658 478.965 225.596 477.445 227.663 477.998C229.601 478.413 231.022 480.762 230.634 482.835C230.247 484.908 228.309 486.29 226.371 485.875C224.175 485.461 222.883 483.388 223.271 481.177ZM222.367 469.43C222.754 467.495 224.563 466.113 226.371 466.528C228.309 466.804 229.601 468.877 229.213 470.95C228.826 473.023 227.146 474.267 225.209 473.852C223.271 473.437 221.979 471.503 222.367 469.43ZM218.62 390.381C217.845 390.243 217.199 389.275 217.328 388.308C217.458 387.34 218.233 386.788 219.137 386.926C220.17 387.064 220.816 388.17 220.558 389.137C220.429 389.966 219.395 390.519 218.62 390.381ZM220.687 11.7201C221.591 11.8583 222.237 12.8257 221.979 13.7931C221.85 14.6223 220.816 15.3133 220.041 15.1751C219.266 15.0369 218.62 14.0695 218.749 13.1021C219.008 12.1347 219.783 11.4437 220.687 11.7201ZM224.433 424.239C224.175 425.759 222.754 426.727 221.333 426.45C219.912 426.174 219.008 424.654 219.395 423.134C219.654 421.613 220.946 420.646 222.367 421.061C223.788 421.337 224.692 422.719 224.433 424.239ZM223.271 412.631C222.883 413.874 221.721 414.704 220.558 414.427C219.395 414.151 218.62 412.907 218.879 411.525C219.137 410.143 220.17 409.314 221.462 409.59C222.883 409.867 223.658 411.249 223.271 412.631ZM224.046 48.6188C223.658 48.757 223.271 49.0334 223.142 49.0334C222.883 48.8952 222.754 48.6188 222.625 48.3424C222.883 48.2042 223.142 47.7896 223.4 47.7896C223.529 47.7896 223.788 48.2042 224.046 48.6188ZM225.984 340.768C226.113 340.906 226.371 341.183 226.371 341.321C226.371 341.459 226.113 341.597 225.854 341.874C225.725 341.597 225.467 341.321 225.467 341.183C225.467 341.044 225.854 340.906 225.984 340.768ZM225.596 435.848C225.338 437.506 224.046 438.612 222.496 438.474C220.946 438.335 219.783 436.539 220.041 434.88C220.3 433.222 221.721 432.255 223.271 432.531C224.95 432.669 225.854 434.189 225.596 435.848ZM223.4 36.872C223.529 37.563 222.883 38.1158 222.237 37.8394C221.721 37.7012 221.333 37.4248 221.333 36.7338C221.333 36.0429 221.979 35.6283 222.754 35.7665C223.012 36.0429 223.4 36.3193 223.4 36.872ZM217.845 365.505C217.974 365.92 217.458 366.611 216.941 366.335C216.683 366.196 216.424 365.782 216.037 365.367C216.553 365.091 216.812 364.538 217.07 364.676C217.458 364.676 217.845 365.091 217.845 365.505ZM211.644 470.535C212.032 468.601 213.711 467.495 215.52 467.91C217.328 468.324 218.491 469.983 218.104 471.917C217.716 473.852 216.166 475.096 214.357 474.819C212.549 474.543 211.257 472.47 211.644 470.535ZM315.894 143.837C316.282 141.902 317.961 140.796 319.769 141.073C321.707 141.487 322.87 143.284 322.482 145.357C322.095 147.292 320.415 148.535 318.607 148.121C316.669 147.845 315.506 145.91 315.894 143.837ZM219.266 377.252C219.266 378.081 218.491 378.634 217.716 378.496C217.07 378.358 216.553 377.667 216.683 376.838C216.812 376.147 217.458 375.594 218.104 375.732C218.749 375.87 219.266 376.561 219.266 377.252ZM222.754 25.5399C222.625 26.2309 221.85 26.7836 221.204 26.6454C220.558 26.5073 219.912 25.5399 220.17 24.7107C220.429 23.8815 221.333 23.4669 221.979 23.7433C222.625 24.0197 222.883 24.7107 222.754 25.5399ZM232.313 456.577C232.701 454.643 234.51 453.399 236.318 453.813C238.256 454.228 239.548 456.301 239.031 458.236C238.643 460.171 236.706 461.414 234.897 461.138C233.089 460.585 231.926 458.65 232.313 456.577ZM233.089 468.462C233.347 466.389 235.414 464.869 237.481 465.284C239.418 465.698 240.71 467.633 240.452 469.706C240.194 471.917 238.256 473.437 236.318 473.161C234.251 472.746 232.701 470.535 233.089 468.462ZM293.416 263.378C293.675 261.857 295.225 260.752 296.646 261.028C298.067 261.305 299.1 262.963 298.713 264.483C298.454 266.141 297.033 267.109 295.483 266.694C294.062 266.556 293.029 265.036 293.416 263.378ZM294.321 275.124C294.579 273.466 296.129 272.36 297.809 272.775C299.359 273.189 300.263 274.71 299.875 276.368C299.617 278.026 298.196 278.994 296.646 278.717C295.096 278.441 294.062 276.921 294.321 275.124ZM278.302 346.987C278.561 345.19 280.369 343.947 281.919 344.361C283.599 344.776 284.503 346.572 284.115 348.369C283.728 350.165 282.178 350.995 280.627 350.58C279.077 350.304 278.044 348.645 278.302 346.987ZM286.311 311.056C286.699 309.397 288.249 308.292 289.799 308.706C291.22 309.121 292.254 310.641 291.995 312.299C291.737 313.958 290.187 315.063 288.637 314.787C286.957 314.372 285.924 312.714 286.311 311.056ZM227.146 351.686C227.663 351.824 227.921 352.238 227.921 352.791C227.921 353.344 227.534 353.759 227.017 353.759C226.371 353.759 225.854 353.206 225.984 352.515C225.984 351.962 226.63 351.547 227.146 351.686ZM309.177 191.653C309.564 189.718 310.985 188.751 312.794 189.166C314.344 189.58 315.377 191.1 315.119 192.759C314.861 194.555 313.181 195.799 311.502 195.523C309.952 195.246 308.918 193.45 309.177 191.653ZM308.143 179.906C308.401 178.11 310.081 176.866 311.76 177.281C313.31 177.695 314.344 179.354 314.215 181.012C313.956 182.808 312.406 184.052 310.727 183.776C308.789 183.361 307.885 181.841 308.143 179.906ZM300.392 215.699C300.78 214.179 302.201 213.212 303.751 213.626C305.301 214.041 306.205 215.423 305.818 217.081C305.559 218.74 304.138 219.707 302.588 219.431C301.038 219.154 300.005 217.358 300.392 215.699ZM301.296 227.446C301.555 225.926 303.105 224.82 304.526 225.097C306.076 225.373 307.11 227.032 306.851 228.69C306.593 230.348 305.172 231.316 303.622 231.039C302.072 230.763 301.038 229.243 301.296 227.446ZM307.11 168.16C307.497 166.363 309.047 165.257 310.727 165.672C312.277 166.087 313.31 167.607 313.052 169.403C312.794 171.2 311.114 172.444 309.435 172.029C307.885 171.753 306.722 169.956 307.11 168.16ZM292.641 252.045C292.9 250.525 294.062 249.42 295.483 249.558C297.033 249.696 298.067 251.216 297.938 252.736C297.809 254.256 296.129 255.5 294.708 255.224C293.416 254.947 292.512 253.565 292.641 252.045ZM238.773 508.54C236.447 507.987 235.026 505.776 235.543 503.15C236.06 500.662 238.256 499.004 240.581 499.557C242.777 500.11 244.327 502.597 243.94 504.946C243.294 507.434 241.098 509.092 238.773 508.54ZM243.811 467.633C244.198 465.284 246.136 463.764 248.203 464.178C250.27 464.593 251.82 466.804 251.432 469.015C251.045 471.226 248.978 472.746 246.911 472.332C244.844 471.779 243.552 469.844 243.811 467.633ZM233.735 479.933C234.122 477.583 236.189 476.201 238.256 476.616C240.323 477.031 241.744 479.242 241.356 481.591C240.969 483.802 239.031 485.184 236.964 484.77C234.768 484.355 233.347 482.282 233.735 479.933ZM234.639 491.541C235.156 489.192 237.352 487.672 239.418 488.086C241.615 488.501 243.036 490.85 242.519 493.2C242.002 495.687 240.064 497.069 237.739 496.516C235.543 496.102 234.122 493.891 234.639 491.541ZM244.586 478.827C244.973 476.34 247.04 474.958 249.365 475.51C251.432 475.925 252.853 478.136 252.595 480.347C252.207 482.697 250.011 484.355 247.815 483.94C245.619 483.526 244.198 481.176 244.586 478.827ZM255.308 477.86C255.695 475.51 257.762 473.852 260.088 474.267C262.413 474.681 263.963 477.031 263.705 479.518C263.317 481.867 260.992 483.664 258.796 483.249C256.341 482.835 254.791 480.347 255.308 477.86ZM271.068 394.665C271.326 392.73 273.135 391.348 274.943 391.625C276.752 391.901 278.044 393.836 277.785 395.771C277.527 397.705 275.718 399.087 273.91 398.811C271.972 398.534 270.68 396.6 271.068 394.665ZM271.326 454.919C271.197 455.472 271.068 456.025 271.068 456.577C270.939 457.683 270.293 458.098 269.389 458.374C267.838 458.927 266.03 458.236 264.996 456.854C263.963 455.472 263.834 453.261 264.867 451.74C265.772 450.358 267.58 449.529 269.13 449.944C270.939 450.497 271.714 451.74 271.456 453.675C271.456 454.228 271.456 454.504 271.326 454.919ZM245.361 490.436C245.878 488.086 248.074 486.428 250.399 486.981C252.724 487.534 254.145 489.745 253.628 492.232C253.112 494.72 250.916 496.24 248.59 495.825C246.394 495.273 244.844 492.785 245.361 490.436ZM254.274 466.389C254.662 464.04 256.729 462.52 259.054 462.934C261.379 463.349 262.671 465.56 262.284 467.91C261.896 470.259 259.7 471.779 257.504 471.365C255.437 470.812 254.016 468.601 254.274 466.389ZM249.882 507.572C247.428 507.158 245.878 504.808 246.265 502.182C246.653 499.695 248.978 497.898 251.303 498.313C253.758 498.728 255.308 501.077 254.92 503.703C254.404 506.328 252.337 507.987 249.882 507.572Z" fill="white"/>
<path opacity="0.2" d="M111.658 261.995H307.497L309.693 247.761L111.658 261.995ZM294.708 345.605L111.658 261.995L296.904 331.232L294.708 345.605ZM2.88727 311.055V302.211L111.529 262.133L2.88727 311.055ZM111.658 261.995L275.46 471.226L271.585 496.516L111.658 261.995L259.829 513.238L238.127 512.132L111.658 261.995L218.104 511.027L199.502 510.059L111.658 261.995ZM303.234 289.773L111.658 261.995L305.43 275.953L303.234 289.773ZM102.615 505.084L111.658 261.995L87.372 504.255L72.1285 503.426L111.658 261.995L24.0731 501.077L6.76273 500.247L111.658 262.133L2.88727 471.641V442.205L111.658 262.133L117.859 505.914L102.615 505.084ZM40.6083 501.906L111.658 261.995L56.6268 502.735L40.6083 501.906ZM111.658 261.995L282.049 428.247L278.948 448.7L111.658 261.995ZM111.658 261.995L148.862 507.434L133.231 506.605L111.658 261.995ZM165.01 508.401L111.658 262.133L181.804 509.23L165.01 508.401ZM2.88727 418.296V398.396L111.658 262.133L2.88727 418.296ZM337.08 70.0391L111.658 261.995L342.118 37.1482L337.08 70.0391ZM111.658 261.995L325.454 145.633L322.353 165.81L111.658 261.995ZM111.658 261.995L332.688 98.5078L328.812 123.383L111.658 261.995ZM111.658 261.995L2.88727 269.734V277.612L111.658 261.995L2.88727 285.489V293.642L111.658 261.995L2.88727 320.314V330.403L111.658 261.995L2.88727 341.32V353.205L111.658 261.995L2.88727 366.334V381.26L111.658 261.995L284.891 409.59L287.603 392.177L111.658 261.995L290.058 375.87L292.383 360.392L111.658 261.995L299.101 317.274L301.167 303.454L111.658 261.995L316.798 201.465L319.382 184.328L111.658 261.995L345.864 0.664062L315.248 2.04604L111.658 261.995L287.991 3.15162L263.576 4.25719L111.658 261.995L241.486 5.22458L220.946 6.05376L111.658 261.995L201.827 6.88294L183.741 7.71212L111.658 261.995L166.56 8.54131L150.025 9.23229L111.658 261.995L133.877 9.92328L117.988 10.6143L111.658 261.995L102.357 11.3053L86.7261 11.9962L111.658 261.995L2.88727 125.733V142.869L111.658 261.995L2.88727 182.808V193.726L111.658 261.995L2.88727 203.676V213.073L111.658 261.995L2.88727 221.918V230.348L111.658 261.995ZM2.88727 254.256L111.529 261.995H2.88727V254.256ZM111.658 261.995C111.529 261.995 111.529 261.995 111.658 261.995L2.88727 246.379V238.363L111.658 261.995ZM111.529 261.995C111.658 261.995 111.658 261.995 111.529 261.995V261.995ZM111.658 261.995L314.344 217.634L312.019 232.974L111.658 261.995ZM21.1018 14.8984L38.2831 14.2074L111.658 262.133L21.1018 14.8984ZM70.8367 12.6872L111.658 261.995L54.8183 13.3782L70.8367 12.6872ZM111.658 261.995L2.88727 52.4881V15.5894H3.14566L111.658 261.995ZM111.658 261.995L2.88727 105.694V81.7859L111.658 261.995ZM111.658 261.995L2.88727 170.923V157.794L111.658 261.995Z" fill="url(#paint1_radial_236_78862)"/>
<defs>
<radialGradient id="paint0_radial_236_78862" cx="0" cy="0" r="1" gradientUnits="userSpaceOnUse" gradientTransform="translate(316.801 243.276) rotate(180) scale(618.273 661.424)">
<stop stop-color="#49C2FE"/>
<stop offset="1" stop-color="#3E5BE3"/>
</radialGradient>
<radialGradient id="paint1_radial_236_78862" cx="0" cy="0" r="1" gradientUnits="userSpaceOnUse" gradientTransform="translate(102.866 259.674) rotate(180) scale(265.726 284.271)">
<stop offset="0.4153" stop-color="white" stop-opacity="0"/>
<stop offset="0.6202" stop-color="#A8A5A6" stop-opacity="0.2283"/>
<stop offset="0.8829" stop-color="#3E383A" stop-opacity="0.5208"/>
<stop offset="1" stop-color="#130C0E" stop-opacity="0.6512"/>
</radialGradient>
</defs>
</svg>
