<svg width="364" height="539" viewBox="0 0 364 539" fill="none" xmlns="http://www.w3.org/2000/svg">
<path d="M82.6312 0.93042L361.545 15.277V523.204L0 539L82.6312 0.93042Z" fill="url(#paint0_radial_236_78872)"/>
<path opacity="0.4" d="M60.4152 333.221C59.0606 333.076 57.9769 334.09 57.706 335.54C57.5705 336.989 58.3833 338.293 59.7379 338.583C61.0925 338.873 62.4471 337.858 62.7181 336.409C62.8535 334.815 61.7698 333.366 60.4152 333.221ZM61.4989 324.236C61.228 325.685 59.8733 326.7 58.5187 326.265C57.2996 325.975 56.3514 324.526 56.6223 323.222C56.7578 321.773 58.2478 320.758 59.6024 320.903C60.8215 321.193 61.7698 322.642 61.4989 324.236ZM95.7705 185.263C95.4996 186.712 94.2804 187.581 93.0613 187.292C91.9776 187.002 91.0294 185.697 91.3003 184.538C91.4358 183.234 92.7904 182.22 94.0095 182.509C95.2287 182.944 96.0414 183.958 95.7705 185.263ZM65.2918 285.399C65.5627 283.95 66.7819 283.225 68.1365 283.66C69.2202 283.95 70.0329 285.254 69.762 286.558C69.4911 287.863 68.001 288.732 66.9173 288.442C65.6982 288.007 65.0209 286.703 65.2918 285.399ZM56.6223 437.705C54.9968 437.415 53.7776 435.821 54.0485 433.937C54.3195 432.198 55.945 430.894 57.5705 431.328C59.196 431.618 60.2798 433.357 60.0089 435.096C59.6025 436.835 58.1124 437.995 56.6223 437.705ZM58.5187 308.73C60.0088 309.02 60.6861 310.469 60.4152 312.063C60.1443 313.513 58.6542 314.527 57.2996 314.092C55.945 313.802 54.9968 312.063 55.4031 310.759C55.6741 309.31 57.1641 308.44 58.5187 308.73ZM64.0727 273.081C64.3436 271.777 65.6982 270.907 66.9173 271.197C68.1365 271.487 68.9492 272.936 68.6783 274.241C68.4074 275.545 67.1883 276.414 65.8337 276.124C64.479 275.835 63.8018 274.53 64.0727 273.081ZM51.8812 409.301C52.2876 407.707 53.9131 406.548 55.4031 406.983C57.0287 407.273 57.9769 409.012 57.5705 410.75C57.1641 412.489 55.8095 413.504 54.184 413.069C52.5584 412.634 51.6103 411.04 51.8812 409.301ZM61.7698 362.639C60.4152 362.494 59.467 361.045 59.7379 359.451C60.0088 358.001 61.2279 357.132 62.5826 357.422C63.9372 357.712 64.75 358.871 64.479 360.32C64.2081 361.914 63.1244 362.929 61.7698 362.639ZM51.2039 376.551C49.7138 376.261 48.7656 374.812 48.901 373.217C49.172 371.479 50.662 370.319 52.152 370.609C53.5067 370.899 54.5904 372.493 54.4549 374.087C54.4549 375.536 52.8294 376.84 51.2039 376.551ZM55.6741 385.97C55.4032 387.564 53.9131 388.723 52.2876 388.434C50.662 388.144 49.7138 386.55 49.9847 384.811C50.2556 383.072 51.8812 382.057 53.3712 382.492C54.8613 382.927 55.945 384.521 55.6741 385.97ZM54.184 394.81C55.8095 395.1 56.7577 396.549 56.4868 398.288C56.2159 400.027 54.7259 401.186 53.2358 400.751C51.7457 400.462 50.662 398.723 50.9329 397.128C51.0684 395.534 52.5584 394.52 54.184 394.81ZM52.9649 421.474C53.3712 419.88 54.8613 418.866 56.4868 419.156C58.1123 419.59 59.0606 421.039 58.6542 422.778C58.3833 424.517 56.8932 425.532 55.2677 425.242C53.6422 425.097 52.5585 423.213 52.9649 421.474ZM32.2393 460.456C32.5102 458.283 34.5422 456.689 36.5741 457.123C38.606 457.413 39.9606 459.442 39.6897 461.761C39.2833 464.079 37.5223 465.528 35.3549 465.094C33.323 464.659 31.9684 462.63 32.2393 460.456ZM31.562 448.428C31.8329 446.11 33.7294 444.661 35.7613 445.095C37.7932 445.53 39.2833 447.559 38.8769 449.733C38.4705 451.906 36.4386 453.355 34.5422 452.921C32.5102 452.486 31.2911 450.457 31.562 448.428ZM41.0443 371.044C42.6698 371.479 43.7535 373.217 43.4826 374.956C43.2117 376.84 41.5862 378 39.6897 377.71C37.7932 377.275 36.845 375.681 37.1159 373.652C37.6578 371.913 39.2833 370.609 41.0443 371.044ZM44.5663 387.274C44.2953 389.158 42.5344 390.462 40.7734 390.028C39.1478 389.738 38.0641 387.999 38.335 386.26C38.606 384.231 40.096 383.072 41.9925 383.362C43.7535 383.651 44.8372 385.39 44.5663 387.274ZM47.8174 475.962C45.9209 475.528 44.7017 473.499 44.9726 471.47C45.379 469.441 47.1401 468.137 49.172 468.427C51.0684 468.861 52.423 470.89 52.0166 472.919C51.7457 475.093 49.8493 476.397 47.8174 475.962ZM36.4386 477.122C34.2712 476.687 32.9166 474.368 33.4584 472.194C34.0003 469.876 36.0322 468.572 38.1996 469.151C40.2315 469.731 41.4506 471.905 40.9088 474.078C40.5024 476.107 38.4705 477.556 36.4386 477.122ZM44.0244 459.152C44.4308 457.123 46.1918 455.964 48.0882 456.254C49.9847 456.689 51.2038 458.428 50.7974 460.456C50.5265 462.485 48.7656 463.789 46.8691 463.5C44.9727 463.355 43.618 461.326 44.0244 459.152ZM42.9407 446.979C43.3471 445.095 45.2436 443.791 47.0045 444.081C48.901 444.516 49.9847 446.4 49.5783 448.428C49.172 450.457 47.5464 451.617 45.5145 451.182C43.7535 450.747 42.5343 448.863 42.9407 446.979ZM41.1797 422.489C41.5861 420.605 43.2116 419.445 44.9726 419.735C46.7336 420.025 48.0882 422.054 47.6819 423.938C47.2755 425.822 45.379 427.126 43.618 426.691C41.9925 426.111 40.9088 424.372 41.1797 422.489ZM42.2634 434.806C42.6698 432.778 44.2954 431.473 46.1918 431.908C48.0883 432.343 49.3074 434.372 48.901 436.256C48.4946 437.995 46.7336 439.299 44.9726 439.009C43.2116 438.719 41.9925 436.835 42.2634 434.806ZM40.0961 410.606C40.367 408.722 41.9925 407.417 43.889 407.707C45.65 407.997 46.8691 409.736 46.5982 411.62C46.3273 413.504 44.7017 414.808 42.8053 414.518C41.0443 414.373 39.8251 412.489 40.0961 410.606ZM92.113 308.875C91.8421 308.73 91.7067 308.151 91.5712 307.861C91.5712 307.716 92.1131 307.281 92.384 307.426C92.6549 307.571 92.9258 308.006 93.3322 308.44C92.7904 308.73 92.384 309.02 92.113 308.875ZM85.34 246.997C85.34 245.982 86.1528 245.258 87.101 245.258C88.0493 245.258 88.7265 246.127 88.7265 247.141C88.7265 248.011 87.7783 248.88 86.8301 248.88C86.1528 248.88 85.34 248.011 85.34 246.997ZM86.5592 259.314C86.5592 258.445 87.3719 257.865 88.1847 257.865C89.1329 258.01 89.6748 258.735 89.5393 259.604C89.4039 260.474 88.7265 261.198 87.9138 261.053C87.2365 260.908 86.5592 260.039 86.5592 259.314ZM82.6308 335.105C81.9535 334.96 81.4117 334.235 81.4117 333.511C81.4117 332.641 82.2244 331.917 83.0372 332.062C83.7145 332.207 84.2563 332.931 84.2563 333.656C84.2563 334.38 83.4435 335.105 82.6308 335.105ZM83.1726 222.361C83.3081 221.057 84.5273 220.187 85.7464 220.477C86.8301 220.767 87.5074 221.926 87.3719 223.086C87.2364 224.245 86.1528 225.114 84.9336 224.824C83.7145 224.535 82.9017 223.52 83.1726 222.361ZM88.0492 271.487C88.1847 270.763 88.862 270.183 89.5393 270.328C90.2166 270.473 90.623 270.908 90.623 271.777C90.623 272.502 89.9457 273.081 89.133 273.081C88.4557 272.936 87.9137 272.212 88.0492 271.487ZM84.3918 234.389C84.6628 233.374 85.6109 232.65 86.6946 232.94C87.6428 233.23 88.3201 234.244 88.0492 235.258C87.7783 236.418 86.8301 236.997 85.8819 236.708C84.7982 236.563 84.1209 235.403 84.3918 234.389ZM88.9975 283.225C89.1329 282.646 89.5393 282.356 90.2166 282.356C90.8939 282.356 91.3003 283.08 91.1649 283.805C91.0294 284.53 90.3521 284.964 89.8103 284.819C89.2684 284.674 88.862 283.95 88.9975 283.225ZM45.6499 399.737C45.2436 401.476 43.7535 402.635 41.9925 402.345C40.096 402.056 39.0124 400.317 39.4188 398.433C39.6897 396.549 41.4507 395.245 43.2117 395.679C44.8372 395.969 46.0563 397.853 45.6499 399.737ZM96.4478 197.581C96.3123 198.74 95.2286 199.609 94.145 199.464C93.0613 199.319 92.1131 198.015 92.384 196.711C92.6549 195.552 93.7386 194.827 94.8223 194.972C95.9059 195.262 96.5833 196.276 96.4478 197.581ZM66.1046 297.862C66.2401 296.557 67.4592 295.688 68.6783 295.833C69.8975 295.978 70.7103 297.282 70.5748 298.586C70.4393 299.89 69.2201 300.76 68.001 300.615C66.7818 300.325 65.9691 299.166 66.1046 297.862ZM93.7386 320.468C93.7386 320.613 93.4677 320.758 93.0613 321.048C92.9258 320.613 92.6549 320.324 92.6549 320.034C92.6549 319.889 93.0613 319.744 93.1968 319.599C93.3323 320.034 93.6031 320.179 93.7386 320.468ZM90.3521 295.833C90.3521 295.543 90.8939 294.963 91.0294 294.963C91.4357 294.963 91.8422 295.398 92.5195 295.833C91.8422 296.268 91.4357 296.702 91.0294 296.702C90.8939 296.847 90.3521 296.268 90.3521 295.833ZM73.284 361.045C72.2003 360.755 71.3875 359.595 71.7939 358.436C72.0648 357.422 73.1485 356.697 74.0967 356.842C75.1804 357.132 75.8578 358.291 75.5869 359.451C75.1805 360.61 74.2322 361.19 73.284 361.045ZM69.6265 334.38C69.762 333.076 70.8457 332.351 71.9294 332.641C73.0131 332.931 73.8259 334.09 73.5549 335.25C73.284 336.264 72.0648 337.134 71.1166 336.844C70.1684 336.554 69.4911 335.395 69.6265 334.38ZM70.5748 346.408C70.8457 345.394 71.9294 344.669 72.8776 344.814C73.9613 345.104 74.6386 346.263 74.3677 347.423C74.0968 348.437 73.1485 349.162 72.0648 349.017C70.9811 348.727 70.3039 347.568 70.5748 346.408ZM68.5429 322.062C68.8138 320.903 69.762 320.034 70.8457 320.324C71.9294 320.468 72.6067 321.773 72.4712 322.932C72.3357 324.091 71.2521 324.816 70.0329 324.671C68.9492 324.381 68.4074 323.367 68.5429 322.062ZM67.4592 309.6C67.7301 308.44 68.8138 307.716 70.0329 308.151C71.1166 308.44 71.794 309.6 71.523 310.759C71.2521 311.918 70.1684 312.643 69.0847 312.498C67.8655 312.208 67.0528 310.904 67.4592 309.6ZM74.774 260.184C75.045 258.88 75.8577 258.155 77.0769 258.445C78.1606 258.59 78.9733 259.749 78.8379 260.908C78.7024 262.068 77.4833 263.082 76.2642 262.792C75.1805 262.502 74.5031 261.343 74.774 260.184ZM79.2442 309.165C79.3797 308.151 80.328 307.426 81.1407 307.716C81.9535 307.861 82.4954 308.73 82.3599 309.6C82.2244 310.614 81.5471 311.049 80.5989 310.904C79.7861 310.759 79.2442 310.035 79.2442 309.165ZM80.4634 320.903C80.5989 320.179 81.5471 319.454 82.3599 319.599C83.0372 319.744 83.579 320.613 83.4436 321.338C83.3081 322.352 82.6308 322.787 81.818 322.642C81.0053 322.642 80.328 321.773 80.4634 320.903ZM78.1606 296.702C78.296 295.833 79.1088 295.253 79.9215 295.253C80.8698 295.253 81.5471 296.268 81.5471 297.282C81.4116 298.296 80.5989 299.021 79.6507 298.876C78.567 298.586 78.0251 297.717 78.1606 296.702ZM77.2123 284.385C77.4833 283.37 78.567 282.791 79.5152 283.08C80.4634 283.37 80.8698 284.24 80.5989 285.399C80.3279 286.413 79.3797 286.993 78.5669 286.848C77.6187 286.558 76.9414 285.254 77.2123 284.385ZM75.9932 272.067C76.2642 271.052 77.2124 270.328 78.2961 270.618C79.2443 270.907 79.9216 271.922 79.7861 273.081C79.6507 274.096 78.567 274.965 77.6188 274.675C76.3996 274.385 75.7223 273.226 75.9932 272.067ZM63.3954 348.292C63.1245 349.741 62.0408 350.611 60.6862 350.466C59.3315 350.321 58.3833 349.017 58.5187 347.568C58.6542 346.118 60.0089 344.959 61.3635 345.249C62.7181 345.539 63.6663 346.843 63.3954 348.292ZM111.484 85.9959C111.213 88.0247 109.452 89.329 107.556 89.0392C105.659 88.7493 104.44 86.8654 104.711 84.8366C104.982 82.9527 106.878 81.5036 108.639 81.7934C110.536 82.0832 111.755 83.9671 111.484 85.9959ZM110.671 73.968C110.265 76.1417 108.233 77.446 106.201 76.8663C104.305 76.4315 103.085 74.4027 103.492 72.3739C103.898 70.3451 105.795 68.896 107.691 69.3307C109.588 69.6205 111.078 71.9392 110.671 73.968ZM112.161 98.0239C111.89 100.053 110.4 101.212 108.504 100.922C106.743 100.632 105.524 98.8934 105.795 97.0095C106.066 95.1256 107.827 93.8214 109.588 94.2561C111.213 94.5459 112.432 96.2849 112.161 98.0239ZM113.109 110.342C112.703 111.936 111.213 113.095 109.588 112.805C107.962 112.515 106.878 110.776 107.285 108.892C107.691 107.154 109.046 106.139 110.671 106.574C112.432 106.864 113.38 108.603 113.109 110.342ZM108.775 233.23C108.639 233.23 108.368 232.795 108.368 232.65C108.368 232.505 108.639 232.36 108.91 232.07C109.046 232.36 109.317 232.65 109.181 232.795C109.317 233.085 108.91 233.23 108.775 233.23ZM106.743 56.7231C108.775 57.1578 110.129 59.4765 109.723 61.6502C109.317 63.9689 107.149 65.2731 105.117 64.6934C103.085 64.2587 101.866 62.085 102.137 59.9112C102.544 57.8824 104.711 56.2883 106.743 56.7231ZM100.512 159.033C100.783 157.584 102.002 156.714 103.221 157.004C104.44 157.294 105.388 158.598 105.117 160.048C104.846 161.352 103.627 162.366 102.408 162.076C101.054 161.786 100.241 160.482 100.512 159.033ZM99.0216 258.01C99.1571 257.72 99.5634 257.72 99.8343 257.575C99.9698 257.865 100.241 258.155 100.241 258.445C100.241 258.735 99.8343 258.88 99.428 259.169C99.157 258.59 98.8861 258.155 99.0216 258.01ZM96.1769 223.375C95.2286 223.086 94.6868 222.071 94.9578 221.202C95.2287 220.332 96.0414 219.897 96.8542 220.187C97.6669 220.477 98.0734 221.202 97.9379 222.216C97.8025 223.086 97.1251 223.665 96.1769 223.375ZM98.0734 134.687C98.4797 133.093 100.105 132.079 101.595 132.514C103.085 132.948 103.898 134.398 103.492 136.137C103.085 137.731 101.731 138.745 100.241 138.455C98.7506 138.02 97.667 136.137 98.0734 134.687ZM99.157 146.715C99.4279 145.266 100.918 144.252 102.137 144.542C103.492 144.831 104.44 146.136 104.169 147.73C103.898 149.324 102.815 150.338 101.324 150.048C99.8344 149.759 98.8861 148.309 99.157 146.715ZM104.44 195.841C104.711 194.972 105.524 194.392 106.336 194.682C107.149 194.972 107.691 195.841 107.42 196.711C107.285 197.725 106.337 198.16 105.388 197.87C104.576 197.581 104.169 196.711 104.44 195.841ZM48.2237 321.773C49.8493 322.207 50.7975 323.657 50.3911 325.396C50.1201 327.135 48.4946 328.149 47.0045 327.859C45.5145 327.424 44.4308 325.685 44.7017 324.091C44.9726 322.497 46.5982 321.483 48.2237 321.773ZM99.0216 393.216C99.0216 393.071 99.4279 392.926 99.5634 392.781C99.6989 393.071 99.9698 393.216 100.105 393.506C100.105 393.651 99.8343 393.795 99.428 394.23C99.2925 393.795 99.0216 393.506 99.0216 393.216ZM98.8861 244.533C99.157 245.258 99.5634 245.837 99.5634 246.272C99.5634 246.997 98.8861 247.141 98.3443 246.997C98.0734 246.852 97.667 246.272 97.8024 245.982C97.8024 245.402 98.3442 245.113 98.8861 244.533ZM99.8343 405.534C99.8343 405.389 100.241 404.954 100.512 404.954C100.783 404.954 100.918 405.389 101.324 405.678C100.783 405.968 100.512 406.258 100.241 406.258C100.105 406.258 99.8343 405.823 99.8343 405.534ZM97.2606 369.74C97.1252 369.45 96.8542 369.16 96.9897 369.015C96.9897 368.87 97.396 368.725 97.5315 368.58C97.6669 368.725 97.9379 369.015 97.9379 369.16C97.8025 369.305 97.5315 369.45 97.2606 369.74ZM97.9379 381.333C98.0734 381.188 98.3443 380.898 98.4797 380.898C98.6152 380.898 98.7507 381.188 99.0216 381.478C98.7507 381.623 98.4798 381.912 98.3443 381.767C98.2088 381.912 98.0734 381.478 97.9379 381.333ZM99.9698 270.328C100.105 270.183 100.376 269.893 100.512 269.893C100.647 269.893 100.783 270.183 101.054 270.473C100.783 270.618 100.512 270.908 100.376 270.763C100.241 270.763 100.105 270.473 99.9698 270.328ZM105.659 208.014C105.659 207.29 106.472 206.855 107.285 207C107.962 207.145 108.233 207.725 108.097 208.449C107.962 209.174 107.149 209.753 106.607 209.464C105.93 209.319 105.659 208.739 105.659 208.014ZM101.46 418.721C101.053 418.866 100.512 418.141 100.647 417.562C100.783 417.272 101.189 416.982 101.731 416.547C102.002 417.127 102.408 417.561 102.273 417.851C102.137 418.286 101.731 418.721 101.46 418.721ZM101.866 171.206C102.137 170.047 103.356 169.322 104.305 169.467C105.388 169.757 106.066 170.916 105.93 172.075C105.659 173.38 104.711 174.104 103.627 173.814C102.408 173.814 101.595 172.51 101.866 171.206ZM102.814 183.669C102.95 182.654 103.898 181.785 104.982 181.93C105.93 182.075 106.607 183.089 106.472 184.248C106.336 185.408 105.388 186.132 104.305 185.842C103.356 185.697 102.679 184.828 102.814 183.669ZM107.014 220.332C107.149 220.042 107.691 219.752 107.962 219.752C108.233 219.752 108.504 220.187 108.91 220.767C108.368 221.202 108.097 221.491 107.827 221.636C107.285 221.491 106.743 220.767 107.014 220.332ZM67.0528 249.605C66.9173 251.054 65.2918 252.213 63.9372 251.924C62.4471 251.634 61.6343 250.04 61.9053 248.446C62.1762 246.852 63.5308 246.127 64.8854 246.417C66.3755 246.852 67.3237 248.156 67.0528 249.605ZM65.9691 237.722C65.6982 239.316 64.3436 240.33 62.8535 240.185C61.3634 239.896 60.4152 238.447 60.5506 236.852C60.8216 235.258 62.1762 234.099 63.6662 234.389C65.2918 234.534 66.24 236.128 65.9691 237.722ZM67.7301 261.923C67.4591 263.372 66.1046 264.386 64.75 264.096C63.5308 263.807 62.5826 262.502 62.7181 261.053C62.8535 259.749 64.3435 258.59 65.6981 258.735C67.0528 259.024 68.001 260.474 67.7301 261.923ZM62.8535 221.926C64.479 222.361 65.4272 223.81 65.0208 225.549C64.7499 227.143 63.1244 228.302 61.6343 228.013C60.1442 227.723 59.0606 225.839 59.467 224.245C59.7379 222.651 61.228 221.636 62.8535 221.926ZM71.2521 184.248C72.8776 184.683 73.8259 186.132 73.5549 187.871C73.284 189.755 71.6584 190.77 70.0329 190.48C68.5428 190.19 67.4591 188.451 67.7301 186.857C68.001 184.973 69.6266 183.814 71.2521 184.248ZM53.5067 361.769C53.2357 363.363 51.6102 364.668 50.1201 364.378C48.4946 364.088 47.5464 362.349 47.9528 360.61C48.3592 359.016 49.7138 358.001 51.2039 358.436C52.694 358.726 53.6421 360.175 53.5067 361.769ZM102.679 123.819C102.273 125.413 100.647 126.572 99.157 126.282C97.5315 125.992 96.4478 124.109 96.7187 122.37C97.1251 120.631 98.7507 119.471 100.376 119.906C102.137 120.341 103.221 122.08 102.679 123.819ZM59.7379 299.601C59.467 301.195 57.9769 302.064 56.4868 301.774C54.9967 301.485 54.3195 300.035 54.5904 298.586C54.8613 297.137 56.0804 296.123 57.5705 296.268C58.9251 296.557 60.0088 298.152 59.7379 299.601ZM52.5585 349.741C52.1521 351.335 50.7975 352.35 49.3074 351.915C47.6819 351.625 46.7336 349.886 47.0045 348.292C47.4109 346.843 48.901 345.684 50.3911 345.973C51.8811 346.408 52.9649 348.002 52.5585 349.741ZM74.5031 200.044C74.2322 201.638 72.8776 202.652 71.3875 202.508C69.762 202.218 68.6783 200.624 68.9492 199.03C69.2202 197.581 70.7103 196.421 72.2003 196.566C73.6904 196.711 74.774 198.45 74.5031 200.044ZM56.4868 284.095C57.9769 284.385 58.9252 285.834 58.6542 287.428C58.3833 289.022 56.8932 290.036 55.4031 289.602C54.0485 289.312 53.2358 287.863 53.3712 286.413C53.6422 284.819 54.9967 283.805 56.4868 284.095ZM51.4747 337.568C51.0684 339.307 49.4429 340.322 47.9528 339.887C46.5982 339.452 45.65 337.858 45.9209 336.264C46.1918 334.67 47.8173 333.511 49.3074 333.946C50.9329 334.235 51.8811 335.685 51.4747 337.568ZM100.241 87.1552C99.8343 89.3289 98.0734 90.4883 96.0414 90.1985C94.0095 89.7637 92.6549 87.59 93.0613 85.5612C93.4677 83.5324 95.4996 82.2281 97.396 82.518C99.428 82.8078 100.783 84.9815 100.241 87.1552ZM99.428 75.1273C99.0216 77.301 96.7187 78.8951 94.6868 78.3155C92.6549 77.7358 91.3003 75.5621 91.8422 73.2434C92.384 71.0697 94.2805 69.7654 96.3124 70.2002C98.4798 70.6349 99.8343 72.9536 99.428 75.1273ZM95.2287 57.7375C97.3961 58.1722 98.8861 60.4909 98.4797 62.8095C98.0733 65.1282 95.906 66.5773 93.6032 66.1425C91.4358 65.7078 90.0812 63.5341 90.4876 61.2155C91.0294 58.8968 93.0613 57.3028 95.2287 57.7375ZM100.918 99.1832C100.512 101.212 98.8861 102.516 96.9897 102.082C95.0932 101.647 93.874 99.9078 94.145 97.879C94.4159 95.8502 96.4478 94.401 98.3443 94.8358C100.105 95.2705 101.324 97.1544 100.918 99.1832ZM101.866 111.501C101.46 113.385 99.8343 114.544 98.0734 114.254C96.3124 113.82 95.2286 112.081 95.4996 110.197C95.9059 108.313 97.5315 107.154 99.2925 107.443C101.054 107.733 102.273 109.617 101.866 111.501ZM78.4315 133.673C80.1925 133.963 81.5471 135.847 81.2762 137.875C81.0052 139.904 79.2443 141.209 77.3478 140.774C75.4514 140.339 74.2322 138.455 74.6386 136.571C74.9095 134.832 76.6705 133.528 78.4315 133.673ZM80.1925 74.4027C80.5989 72.0841 82.7662 70.49 84.9336 70.9248C87.2365 71.3595 88.591 73.6782 88.0492 76.1417C87.6428 78.4604 85.611 79.9095 83.4436 79.4748C81.2762 79.04 79.7861 76.7214 80.1925 74.4027ZM75.1804 212.072C74.9095 213.521 73.5549 214.536 72.2003 214.246C70.7103 213.956 69.762 212.507 69.8975 210.913C70.1684 209.319 71.523 208.304 73.0131 208.594C74.6386 209.029 75.4513 210.478 75.1804 212.072ZM88.9975 88.3146C88.5911 90.6332 86.4237 92.0823 84.3918 91.6476C82.3599 91.2129 80.8698 88.7493 81.4117 86.5756C81.9535 84.4019 83.85 83.0977 85.8819 83.3875C88.0492 83.8222 89.5393 85.9959 88.9975 88.3146ZM89.9457 100.487C89.5393 102.516 87.3719 104.11 85.4755 103.531C83.4436 103.096 82.2244 100.922 82.7663 98.7484C83.1727 96.5747 84.9336 95.4154 86.9655 95.8501C89.1329 96.2849 90.4875 98.4586 89.9457 100.487ZM90.623 112.66C90.2166 114.689 88.3201 115.993 86.2882 115.559C84.3918 115.124 83.3081 113.24 83.7145 111.211C84.1209 109.037 85.8819 107.878 87.9138 108.313C89.9457 108.892 91.0294 110.776 90.623 112.66ZM169.055 29.1892C169.326 27.3053 171.087 26.146 172.848 26.4359C174.609 26.8706 175.557 28.4647 175.286 30.3486C175.015 32.2325 173.254 33.5367 171.493 33.102C170.003 32.8121 168.784 30.9282 169.055 29.1892ZM147.11 119.037C146.975 119.906 145.891 120.631 145.078 120.486C144.266 120.341 143.588 119.326 143.724 118.312C143.859 117.298 144.807 116.718 145.756 116.863C146.568 117.008 147.246 118.022 147.11 119.037ZM68.8138 125.848C68.9493 125.848 68.9492 125.848 69.0847 125.848C69.0847 126.427 68.9492 127.007 68.9492 127.587C68.8138 127.587 68.6783 127.587 68.5429 127.587C68.5429 127.152 68.6784 126.572 68.8138 125.848ZM147.923 23.8274C145.756 23.3926 144.536 21.5087 144.807 19.1901C145.214 17.0164 147.11 15.5673 149.142 15.8571C151.174 16.2918 152.529 18.3206 152.258 20.4943C151.851 22.813 149.955 24.2621 147.923 23.8274ZM143.317 512.046C143.453 511.756 143.724 511.611 143.995 511.177C144.266 511.611 144.536 511.901 144.401 512.046C144.266 512.336 143.995 512.481 143.724 512.626C143.588 512.481 143.317 512.191 143.317 512.046ZM144.807 525.523C144.13 525.378 143.724 524.799 143.859 524.074C143.995 523.494 144.401 523.205 145.078 523.205C145.62 523.205 146.027 523.639 146.027 524.364C146.027 525.088 145.485 525.668 144.807 525.523ZM147.246 142.513C147.517 142.513 147.652 142.803 148.194 143.092C147.652 143.382 147.381 143.817 147.246 143.817C146.975 143.817 146.839 143.382 146.568 143.092C146.839 142.803 146.975 142.513 147.246 142.513ZM151.445 80.4892C151.716 79.04 152.935 78.1705 154.29 78.4603C155.644 78.7502 156.457 80.0544 156.322 81.3586C156.051 82.8078 154.696 83.8222 153.341 83.5323C151.851 83.2425 151.174 81.7934 151.445 80.4892ZM153.07 32.957C152.664 35.1307 150.768 36.2901 148.871 35.8553C146.975 35.4206 145.756 33.3918 146.162 31.2181C146.704 29.1893 148.6 27.885 150.497 28.4647C152.258 29.0443 153.341 30.9282 153.07 32.957ZM149.955 68.0265C150.226 66.4324 151.716 65.418 153.206 65.7078C154.696 65.9977 155.644 67.5917 155.238 69.1858C154.967 70.7798 153.477 71.7943 151.987 71.3595C150.632 71.2146 149.684 69.6205 149.955 68.0265ZM147.381 43.8257C147.652 41.9417 149.413 40.6375 151.174 40.9273C152.935 41.2172 154.154 42.9562 153.883 44.8401C153.612 46.8689 151.851 48.1731 149.955 47.8833C148.329 47.5935 147.11 45.7095 147.381 43.8257ZM148.6 55.8536C148.871 54.1147 150.497 52.9553 152.258 53.2451C153.883 53.6799 154.967 55.4189 154.561 57.1578C154.154 58.8968 152.529 60.0562 150.903 59.4765C149.278 59.1867 148.329 57.4477 148.6 55.8536ZM78.7024 101.647C78.2961 103.965 75.9932 105.559 73.8258 104.835C72.8776 104.545 72.6067 104.11 72.7421 103.241C72.8776 102.371 73.013 101.502 73.1485 100.632C73.284 99.7628 73.4195 98.8933 73.5549 98.0239C73.8259 96.8645 74.3677 96.4298 75.4514 96.5747C77.6187 97.1544 79.1088 99.473 78.7024 101.647ZM152.529 92.662C152.8 91.3578 153.748 90.7781 154.967 91.068C156.051 91.3578 156.863 92.3722 156.593 93.6764C156.457 94.8357 155.238 95.7052 154.29 95.5603C153.071 95.2705 152.258 93.9662 152.529 92.662ZM75.7223 92.3722C75.5868 92.5171 75.1804 92.3722 75.045 92.3722C74.9095 92.3722 74.9096 92.0824 74.9096 91.9374C75.3159 89.7637 75.7223 87.7349 76.1287 85.1264C77.7542 86.4307 78.0251 87.7349 77.8896 89.1841C77.6187 90.6332 76.9414 91.7925 75.7223 92.3722ZM79.6507 113.82C79.2443 115.848 77.3478 117.153 75.3159 116.863C73.284 116.428 71.9294 114.254 72.3358 112.081C72.7421 109.907 74.774 108.603 76.806 109.037C78.9733 109.472 80.0571 111.501 79.6507 113.82ZM89.8103 18.3206C88.4557 18.0308 88.0492 17.741 88.3201 16.2918C88.7265 14.118 88.9975 11.9443 89.5393 9.77063C89.8102 8.46637 90.2166 8.17657 91.4357 8.32147C93.874 8.75623 95.6351 11.3647 95.2287 13.9731C94.8223 16.8715 92.5195 18.7553 89.8103 18.3206ZM70.0329 138.89C69.8975 140.774 68.6783 142.078 66.9173 142.368C66.1046 142.513 65.6982 142.078 65.8337 141.209C66.24 139.18 66.5109 137.151 66.9173 134.977C69.3556 135.702 70.1684 136.861 70.0329 138.89ZM141.014 93.3866C141.421 92.0824 142.64 91.3578 143.859 91.6476C145.214 91.9374 145.891 93.2417 145.62 94.6908C145.349 96.14 144.13 97.0095 142.775 96.7196C141.556 96.4298 140.744 94.8358 141.014 93.3866ZM139.66 81.6485C139.931 80.0544 141.285 79.04 142.775 79.3298C144.266 79.6197 145.214 81.2137 144.943 82.6629C144.672 84.257 143.317 85.2713 141.827 84.9815C140.202 84.6917 139.389 83.2426 139.66 81.6485ZM142.234 105.704C142.505 104.545 143.588 103.965 144.672 104.11C145.756 104.4 146.433 105.415 146.162 106.719C145.891 107.878 144.943 108.748 143.859 108.458C142.775 108.313 141.827 106.864 142.234 105.704ZM136.951 57.0129C137.222 55.129 138.847 53.8248 140.608 54.2596C142.369 54.5494 143.588 56.4333 143.182 58.3171C142.911 60.201 141.285 61.3604 139.389 61.0705C137.763 60.6358 136.68 58.8968 136.951 57.0129ZM138.17 69.3307C138.441 67.5917 140.066 66.4324 141.827 66.7223C143.317 67.157 144.401 68.7511 144.13 70.3451C143.859 72.0841 142.505 73.0985 140.879 72.9536C139.118 72.6638 137.899 71.0697 138.17 69.3307ZM94.9578 173.525C94.6868 174.974 93.3323 175.988 91.8422 175.553C90.4876 175.264 89.6748 173.814 89.9457 172.22C90.2166 170.916 91.5712 169.902 92.7903 170.192C94.145 170.481 95.2287 172.075 94.9578 173.525ZM146.027 132.079C145.349 131.789 145.078 131.209 145.349 130.485C145.62 129.76 146.027 129.47 146.704 129.47C147.381 129.615 147.923 130.485 147.652 131.209C147.517 131.934 146.704 132.369 146.027 132.079ZM171.9 53.9697C172.035 52.5205 173.39 51.5061 174.88 51.6511C176.37 51.9409 177.318 53.2451 177.047 54.6943C176.776 56.1434 175.557 57.3028 174.202 57.0129C172.848 56.868 171.764 55.4189 171.9 53.9697ZM153.883 105.125C154.019 104.255 154.967 103.531 155.915 103.676C156.863 103.82 157.405 104.835 157.27 105.849C157.134 106.864 156.186 107.588 155.238 107.298C154.425 107.154 153.748 105.994 153.883 105.125ZM173.39 66.1425C173.661 64.8383 174.88 64.1138 176.099 64.4036C177.318 64.6934 177.995 65.9977 177.86 67.3019C177.589 68.6061 176.37 69.3307 175.151 69.0409C173.932 68.6061 173.119 67.4468 173.39 66.1425ZM96.0414 233.809C96.1769 233.085 96.5833 232.65 97.2606 232.65C98.0734 232.65 98.6152 233.23 98.6152 233.954C98.6152 234.824 97.9379 235.403 97.2606 235.403C96.5833 235.258 96.0414 234.534 96.0414 233.809ZM170.545 41.6519C170.816 39.9129 172.171 38.8986 173.796 39.1884C175.422 39.4782 176.505 41.0723 176.234 42.6664C175.963 44.2604 174.473 45.4197 172.848 45.2748C171.358 44.985 170.274 43.246 170.545 41.6519ZM174.609 78.4603C174.744 77.5909 175.828 76.8663 176.641 76.8663C177.589 77.0112 178.266 78.0256 178.131 79.1849C177.995 80.1993 177.183 80.779 176.234 80.6341C175.151 80.4891 174.338 79.4747 174.609 78.4603ZM173.796 6.72742C173.39 8.46637 171.764 9.62573 170.139 9.48083C168.378 9.33588 166.887 8.03162 166.617 6.14777C166.617 5.71301 166.617 5.42316 166.617 5.27826L172.848 5.56812C172.983 5.56812 173.119 5.56812 173.254 5.71301C173.525 5.71301 173.796 6.43756 173.796 6.72742ZM179.35 103.241C178.944 103.386 178.673 103.676 178.402 103.676C178.266 103.676 178.131 103.241 177.995 103.096C178.266 102.951 178.402 102.661 178.673 102.516C178.808 102.516 179.079 102.951 179.35 103.241ZM23.2989 402.201C22.8925 403.505 21.8088 404.664 20.5897 404.954L21.6734 397.708C23.028 398.578 23.7053 400.462 23.2989 402.201ZM176.234 90.4883C176.37 89.7637 177.183 89.1841 177.86 89.4739C178.537 89.6188 178.808 90.1985 178.808 90.923C178.808 91.7925 178.131 92.2273 177.318 92.0824C176.505 91.9375 176.099 91.2129 176.234 90.4883ZM5.28258 520.451C7.17903 519.727 9.3464 520.451 10.5655 522.045C11.7847 523.639 11.9201 525.958 11.1074 527.697C10.701 528.421 10.1592 528.711 9.34641 528.566C8.39818 528.421 7.44995 528.132 6.50172 527.987C5.68895 527.842 4.74073 527.697 3.92797 527.407C2.57336 527.117 2.16699 526.538 2.16699 525.378L2.43789 523.494C2.84427 522.19 3.92797 521.031 5.28258 520.451ZM167.971 17.3062C168.242 15.4223 170.139 13.9731 171.9 14.263C173.661 14.5528 175.015 16.5816 174.609 18.4655C174.338 20.4943 172.577 21.7986 170.68 21.3638C168.919 21.074 167.7 19.1901 167.971 17.3062ZM158.895 42.6664C159.166 40.9274 160.792 39.768 162.417 40.0579C164.043 40.3477 165.262 42.3765 164.856 44.1155C164.449 45.8545 162.824 46.8689 161.198 46.579C159.573 45.9994 158.489 44.4053 158.895 42.6664ZM159.302 22.5232C157.405 22.2333 156.051 20.2045 156.322 18.1757C156.592 16.1469 158.76 14.5528 160.656 14.9875C162.553 15.4223 163.772 17.4511 163.501 19.4799C163.095 21.5087 161.334 22.9579 159.302 22.5232ZM167.7 116.428C167.836 116.138 168.107 115.993 168.378 115.703C168.513 116.138 168.784 116.573 168.784 116.573C168.513 116.863 168.242 117.008 167.971 117.008C167.971 117.153 167.565 116.573 167.7 116.428ZM155.644 117.153C155.78 116.573 156.457 116.138 156.999 116.138C157.676 116.283 158.083 116.863 157.947 117.443C157.812 118.167 157.405 118.602 156.728 118.602C156.051 118.747 155.509 117.877 155.644 117.153ZM158.218 129.76C158.218 129.905 157.947 130.05 157.541 130.485C157.27 130.05 157.134 129.76 157.134 129.615C157.134 129.47 157.541 129.181 157.676 129.181C157.812 129.326 158.083 129.47 158.218 129.76ZM157.812 30.2036C158.218 28.3198 159.844 27.1604 161.605 27.4503C163.366 27.7401 164.72 29.7689 164.449 31.6528C164.178 33.5367 162.282 34.8409 160.385 34.5511C158.489 34.1164 157.405 32.2325 157.812 30.2036ZM160.114 55.1291C160.385 53.535 162.011 52.2307 163.501 52.6655C164.991 52.9553 166.075 54.6943 165.668 56.4333C165.262 58.0273 163.907 58.8968 162.417 58.607C160.927 58.1722 159.979 56.5782 160.114 55.1291ZM164.314 91.9374C164.449 90.7781 165.397 89.9086 166.346 90.1985C167.158 90.3434 167.971 91.3578 167.836 92.3722C167.7 93.2417 166.887 94.1112 165.939 93.9662C164.856 93.6764 164.314 92.9518 164.314 91.9374ZM166.752 105.559C166.075 105.27 165.804 104.69 166.075 103.965C166.21 103.241 166.752 102.951 167.429 103.096C167.971 103.241 168.513 103.965 168.378 104.545C168.242 105.27 167.429 105.849 166.752 105.559ZM161.605 67.4468C161.74 65.9977 163.095 64.9833 164.585 65.2731C165.804 65.5629 166.752 66.8671 166.617 68.3163C166.481 69.7654 165.127 70.7798 163.637 70.49C162.282 70.2002 161.469 68.7511 161.605 67.4468ZM162.824 79.3298C162.959 78.0256 164.178 77.1561 165.397 77.446C166.481 77.7358 167.158 78.7502 167.023 80.0544C166.888 81.3586 165.939 82.0833 164.72 81.9383C163.501 81.7934 162.688 80.6341 162.824 79.3298ZM95.906 26.4359C95.3642 29.1892 93.1968 30.9282 90.623 30.3486C88.1847 29.7689 86.5592 27.4502 86.9655 24.8418C87.3719 22.2333 89.8102 20.3494 92.2486 20.7842C94.6868 21.074 96.3124 23.6824 95.906 26.4359ZM109.723 133.383C110.129 132.079 111.484 131.209 112.703 131.499C114.058 131.789 115.006 133.383 114.6 134.832C114.329 136.281 112.839 137.151 111.484 136.716C109.994 136.281 109.317 134.832 109.723 133.383ZM36.5741 424.952C36.3032 426.981 34.1358 428.72 32.2393 428.285C30.3429 427.85 29.1237 425.822 29.3946 423.793C29.801 421.764 31.562 420.315 33.4584 420.75C35.4904 420.895 36.845 422.778 36.5741 424.952ZM37.7932 437.27C37.5223 439.444 35.4904 440.893 33.4584 440.458C31.4265 440.023 30.3429 438.139 30.6138 435.966C31.0202 433.792 32.9166 432.343 34.9485 432.778C36.7095 433.212 38.0641 435.241 37.7932 437.27ZM72.4712 235.693C72.6067 234.244 73.8258 233.23 75.1804 233.519C76.3996 233.809 77.3478 235.113 77.0769 236.563C76.806 237.867 75.5869 238.736 74.2323 238.447C73.0131 238.157 72.3357 237.142 72.4712 235.693ZM31.4265 396.404C33.4584 396.694 34.8131 398.578 34.5422 400.606C34.2712 402.635 32.3748 404.084 30.4783 403.795C28.5819 403.505 27.2273 401.476 27.6336 399.447C27.9046 397.418 29.5301 396.114 31.4265 396.404ZM27.6336 450.602C27.2273 452.776 25.0599 454.37 23.028 453.935C20.8606 453.5 19.506 451.327 19.9123 449.008C20.3187 446.689 22.2152 445.095 24.3826 445.53C26.6854 445.965 28.1755 448.283 27.6336 450.602ZM71.1166 151.063C70.8457 153.092 69.2201 154.396 67.3237 154.251C65.2918 153.961 64.0726 152.367 64.3435 150.338C64.6145 148.02 66.24 146.57 68.2719 147.005C70.0329 147.15 71.252 149.034 71.1166 151.063ZM76.1287 245.982C77.3478 246.272 78.0251 247.576 77.7542 248.735C77.4833 250.04 76.2641 250.764 75.045 250.619C73.8258 250.33 73.1485 249.025 73.4194 247.721C73.6904 246.562 74.9095 245.692 76.1287 245.982ZM21.9443 442.052C19.9123 441.762 18.4223 439.444 18.8287 437.125C19.2351 434.806 21.1315 433.357 23.2989 433.792C25.4662 434.227 26.9564 436.4 26.55 438.574C26.1436 440.748 23.9762 442.342 21.9443 442.052ZM26.55 470.021C28.8528 470.6 30.2074 472.774 29.6656 475.238C29.1237 477.556 26.9563 479.15 24.789 478.571C22.6216 477.991 21.267 475.672 21.6734 473.354C22.2152 471.035 24.3826 469.441 26.55 470.021ZM20.8606 461.471C21.267 459.007 23.2989 457.413 25.4663 457.848C27.6336 458.283 29.1237 460.601 28.8528 462.92C28.4464 465.239 26.4145 466.833 24.1116 466.398C21.9443 465.818 20.5897 463.789 20.8606 461.471ZM35.6258 412.924C35.2194 414.953 33.323 416.257 31.4265 415.967C29.5301 415.533 28.1755 413.504 28.5819 411.475C28.9883 409.446 30.8847 407.997 32.7811 408.432C34.8131 408.867 36.0322 410.895 35.6258 412.924ZM92.384 137.006C91.9776 138.745 90.352 139.904 88.7265 139.614C87.101 139.325 86.0173 137.441 86.2882 135.702C86.5592 133.818 88.3201 132.659 90.0811 133.093C91.8421 133.383 92.7904 135.122 92.384 137.006ZM88.9975 120.776C90.623 121.065 91.8421 122.949 91.7067 124.833C91.4357 126.717 89.5393 128.166 87.7784 127.731C86.0174 127.297 84.9336 125.558 85.2046 123.674C85.34 121.645 87.101 120.341 88.9975 120.776ZM84.5273 208.304C85.7464 208.594 86.4237 209.753 86.2882 211.058C86.0173 212.507 84.7982 213.376 83.579 213.086C82.4953 212.797 81.6826 211.347 81.818 210.188C81.9535 208.884 83.1726 208.014 84.5273 208.304ZM94.0095 161.207C93.7386 162.801 92.384 163.815 90.8939 163.525C89.4039 163.236 88.4556 161.786 88.7265 160.192C88.9974 158.598 90.3521 157.584 91.8422 157.874C93.3323 158.164 94.2804 159.613 94.0095 161.207ZM93.0613 148.889C92.7904 150.628 91.4358 151.787 89.8103 151.498C88.1847 151.208 86.9656 149.469 87.2365 147.73C87.5074 145.991 88.9975 144.976 90.623 145.266C92.384 145.701 93.3322 147.15 93.0613 148.889ZM79.7861 146.281C81.4117 146.715 82.4953 148.454 82.2244 150.193C81.9535 152.077 80.1925 153.237 78.4315 152.947C76.5351 152.512 75.5868 150.918 75.9932 148.889C76.3996 147.005 78.0251 145.846 79.7861 146.281ZM71.2521 223.086C71.523 221.781 72.8776 220.912 74.0967 221.057C75.4514 221.347 76.3996 222.796 76.1287 224.245C75.8577 225.694 74.5031 226.708 73.1485 226.419C71.7939 226.129 70.8457 224.535 71.2521 223.086ZM82.9017 162.511C82.6308 164.25 80.8698 165.409 79.2442 165.12C77.7542 164.685 76.6705 163.091 76.9415 161.352C77.2124 159.613 78.8379 158.309 80.4634 158.598C82.089 159.033 83.1726 160.627 82.9017 162.511ZM85.34 199.175C84.9336 200.479 83.5791 201.348 82.3599 201.058C81.1408 200.769 80.328 199.319 80.4634 198.015C80.7343 196.566 82.089 195.552 83.4436 195.986C84.9337 196.131 85.7464 197.725 85.34 199.175ZM83.85 174.394C83.579 175.988 82.0889 177.003 80.5989 176.713C78.9733 176.423 77.8896 174.974 78.1606 173.235C78.4315 171.496 79.9216 170.336 81.4117 170.626C83.0372 171.061 84.1209 172.8 83.85 174.394ZM84.6627 186.712C84.3918 188.306 83.1727 189.175 81.6826 189.031C80.1925 188.741 79.1088 187.292 79.3798 185.697C79.6507 184.248 81.0053 183.234 82.3599 183.379C83.9854 183.524 84.9336 184.973 84.6627 186.712ZM108.504 121.355C108.775 119.761 110.265 118.747 111.755 119.037C113.245 119.326 114.329 121.065 113.922 122.659C113.516 124.253 112.026 125.123 110.536 124.833C109.181 124.398 108.233 122.949 108.504 121.355ZM46.5982 275.545C46.5982 277.139 45.65 278.588 44.1599 278.878C42.2634 279.313 41.3152 278.298 41.5861 276.269C41.5861 275.98 41.7216 275.69 41.7216 275.4C41.8571 274.82 41.857 274.241 41.9925 273.661C42.2634 272.502 42.8053 272.067 43.889 272.212C45.379 272.646 46.4627 274.096 46.5982 275.545ZM44.2953 261.923C44.2953 261.778 44.5662 261.633 44.7017 261.633C44.8372 261.633 45.1081 261.778 45.1081 261.923C46.0564 263.372 45.9208 264.966 44.7017 266.27C44.4308 266.56 44.1599 266.56 43.7535 266.705C43.6181 266.27 43.4826 265.98 43.4826 265.546C43.4826 265.111 43.6181 264.676 43.7535 264.096C43.889 263.372 44.1599 262.647 44.2953 261.923ZM47.5464 288.732C47.14 290.326 45.65 291.485 44.1599 291.196C42.5344 290.906 41.3152 289.022 41.5861 287.283C41.857 285.544 43.618 284.385 45.2436 284.674C46.8691 285.254 47.9528 286.993 47.5464 288.732ZM39.2833 326.265C38.8769 328.149 37.2514 329.453 35.4904 329.018C33.7294 328.584 32.6457 326.7 33.0521 324.816C33.4585 323.077 34.9486 321.918 36.7095 322.207C38.4705 322.642 39.5542 324.381 39.2833 326.265ZM36.0322 316.846C34.9486 316.99 34.4067 316.701 34.6776 315.396C34.8131 314.672 34.9485 314.092 35.084 313.368C35.2195 312.498 35.3549 311.484 35.6258 310.614C35.6258 310.469 36.3031 310.179 36.4386 310.324C37.7932 310.759 38.7415 312.353 38.606 313.947C38.3351 315.251 37.3868 316.556 36.0322 316.846ZM50.9329 224.39C51.0684 223.955 51.3393 223.086 51.6103 223.086C52.0166 223.086 52.5585 223.375 52.9649 223.81C54.5904 225.694 53.7776 228.592 51.6103 229.317C50.662 229.607 50.1202 229.172 50.2556 228.013C50.3911 227.433 50.3911 226.853 50.5266 226.274C50.662 225.694 50.7975 225.114 50.9329 224.39ZM59.6024 179.176C59.4669 178.742 59.3315 178.307 59.3315 178.017C59.3315 177.582 59.4669 177.147 59.6024 176.568C59.7379 175.843 59.8734 175.264 60.0089 174.539C60.0089 174.249 60.2798 173.959 60.4152 173.959C60.5507 173.959 60.957 174.104 60.957 174.394C61.7698 175.988 61.6344 177.292 60.4152 178.597C60.2798 178.886 59.8733 179.031 59.6024 179.176ZM62.3116 189.175C62.0407 190.77 60.8216 191.929 59.3315 191.929C57.5706 192.074 56.8932 191.204 57.1641 189.32C57.1641 188.886 57.2996 188.596 57.2996 188.161C57.4351 187.726 57.435 187.292 57.5705 186.712C57.9769 184.828 58.9251 184.393 60.4152 185.263C61.9053 185.987 62.5825 187.581 62.3116 189.175ZM8.6691 497.844C9.88825 499.438 9.88827 501.757 8.94004 503.496C8.12728 504.945 6.63717 505.815 5.01164 505.96L6.50172 496.25C7.31449 496.54 8.12726 497.12 8.6691 497.844ZM54.8613 238.736C54.4549 240.475 52.9649 241.635 51.2039 241.2C49.5784 240.765 48.4946 239.026 48.7655 237.287C49.1719 235.548 50.9329 234.389 52.423 234.679C54.184 235.258 55.2676 236.997 54.8613 238.736ZM63.3954 201.058C63.1245 202.942 61.6343 203.957 59.8733 203.667C58.1123 203.377 56.8932 201.638 57.1641 199.754C57.435 198.015 59.1961 196.856 60.6862 197.001C62.4471 197.291 63.6663 199.175 63.3954 201.058ZM124.895 143.237C125.843 143.382 126.52 144.542 126.385 145.556C126.249 146.57 125.166 147.295 124.217 147.005C123.269 146.715 122.727 145.991 122.863 144.831C122.998 143.817 123.946 143.092 124.895 143.237ZM10.701 514.22C10.1592 516.973 7.5854 518.712 5.01164 518.133C4.33433 517.988 3.65705 517.698 3.25066 517.263L4.60527 508.278C5.28258 507.988 6.09536 507.988 6.90813 508.133C9.61735 508.713 11.2429 511.466 10.701 514.22ZM112.839 148.744C111.484 148.454 110.671 147.15 110.942 145.846C111.213 144.686 112.568 143.817 113.651 144.107C114.735 144.397 115.548 145.701 115.412 146.86C115.141 148.164 114.058 148.889 112.839 148.744ZM118.934 108.313C119.205 106.719 120.424 105.559 121.914 105.849C123.405 106.139 124.488 107.588 124.217 109.182C123.946 110.776 122.592 111.791 121.102 111.646C119.747 111.356 118.663 109.907 118.934 108.313ZM116.225 83.8222C116.496 81.7934 117.986 80.6341 119.883 80.9239C121.644 81.2137 122.863 82.9527 122.592 84.8366C122.321 86.7205 120.56 88.0247 118.799 87.59C117.038 87.3002 115.954 85.5612 116.225 83.8222ZM115.141 71.3595C115.412 69.3307 117.173 68.0265 119.07 68.4612C120.966 68.751 122.185 70.6349 121.914 72.6637C121.644 74.5476 119.747 75.9968 117.986 75.7069C116.09 75.2722 114.87 73.3883 115.141 71.3595ZM120.018 120.196C120.289 118.747 121.644 117.732 122.998 118.167C124.217 118.457 125.03 119.906 124.759 121.355C124.488 122.659 123.269 123.529 121.914 123.239C120.56 122.949 119.883 121.645 120.018 120.196ZM116.496 195.117C116.361 194.682 117.038 193.958 117.58 194.247C117.851 194.392 118.122 194.827 118.528 195.262C117.986 195.552 117.58 195.986 117.309 195.986C116.902 195.986 116.496 195.407 116.496 195.117ZM15.0358 470.89C17.4741 471.47 18.9642 473.933 18.4223 476.542C17.8805 479.005 15.7131 480.6 13.4102 480.02C10.9719 479.44 9.48187 476.977 10.0237 474.368C10.4301 471.905 12.7329 470.455 15.0358 470.89ZM117.58 95.7053C117.986 94.1112 119.476 93.0968 121.102 93.5315C122.727 93.9663 123.675 95.4154 123.269 97.2993C122.863 99.0383 121.373 100.053 119.883 99.7628C118.257 99.1832 117.173 97.4442 117.58 95.7053ZM118.799 207.58C118.528 207.725 118.257 208.014 118.122 207.869C117.986 207.869 117.851 207.435 117.715 207.29C117.851 207.145 118.122 206.855 118.257 206.855C118.393 206.855 118.528 207.29 118.799 207.58ZM121.373 132.514C121.644 131.209 122.727 130.34 123.946 130.63C125.166 130.92 125.843 132.224 125.572 133.528C125.301 134.832 124.082 135.557 122.863 135.122C121.779 134.832 121.237 133.673 121.373 132.514ZM250.738 23.2477C250.602 22.9579 250.602 22.3782 250.738 21.9435C250.738 21.7986 251.28 21.6537 251.686 21.6537C251.957 21.6537 252.228 21.7986 252.499 21.7986C252.634 21.7986 252.905 21.7986 253.041 21.9435C253.854 22.2333 254.124 22.9579 253.447 23.6825C252.499 24.5519 251.28 24.407 250.738 23.2477ZM81.1407 480.6C81.4117 479.005 82.7662 477.846 84.2563 478.136C85.7464 478.426 86.6947 480.02 86.4237 481.469C86.1528 482.918 84.9337 483.933 83.4436 483.788C81.9535 483.498 81.0053 482.194 81.1407 480.6ZM80.1925 468.282C80.4634 466.833 81.9535 465.818 83.3081 466.253C84.5272 466.543 85.4755 468.282 85.2046 469.586C84.9336 471.035 83.4436 471.905 82.089 471.615C80.5989 471.18 79.9216 469.876 80.1925 468.282ZM79.1088 456.109C79.3797 454.66 80.8698 453.645 82.2244 454.08C83.4436 454.515 84.2563 455.819 83.85 457.268C83.579 458.717 82.3599 459.442 81.0053 459.152C79.7862 458.862 78.9734 457.558 79.1088 456.109ZM93.0613 479.73C93.1967 478.281 94.4159 477.266 95.7705 477.556C96.9896 477.846 97.9379 479.295 97.667 480.6C97.3961 481.759 96.1769 482.628 94.9578 482.339C93.6032 482.194 92.7904 481.034 93.0613 479.73ZM72.0648 517.988C72.3357 516.104 74.2322 514.655 75.9932 514.944C77.8897 515.379 79.1088 517.118 78.7024 519.147C78.2961 521.176 76.5351 522.48 74.6386 522.045C73.0131 521.755 71.7939 519.871 72.0648 517.988ZM82.089 492.627C82.3599 491.178 83.9854 490.019 85.34 490.164C86.8301 490.454 87.9138 492.048 87.6428 493.787C87.3719 495.381 86.0173 496.395 84.5273 496.105C82.9017 495.816 81.8181 494.222 82.089 492.627ZM91.0294 455.239C91.1648 454.08 92.2485 453.211 93.3322 453.356C94.5514 453.5 95.2287 454.515 95.0932 455.819C94.9577 456.978 93.874 457.848 92.7903 457.558C91.7066 457.413 90.8939 456.254 91.0294 455.239ZM91.9776 467.412C92.2485 466.108 93.4677 465.239 94.5514 465.673C95.7705 465.963 96.4478 467.267 96.0414 468.572C95.7705 469.731 94.6868 470.311 93.4676 470.021C92.5194 469.586 91.8421 468.572 91.9776 467.412ZM83.7145 516.973C84.1209 515.234 85.7464 514.075 87.3719 514.51C89.1329 514.799 90.0812 516.538 89.8103 518.277C89.5393 520.016 87.9138 521.321 86.2882 521.031C84.6627 520.741 83.4436 518.712 83.7145 516.973ZM87.2365 533.059C85.4755 532.624 84.3918 530.74 84.7982 528.856C85.2046 527.117 86.6947 525.958 88.4557 526.248C90.3521 526.538 91.4357 528.277 91.0294 530.16C90.7584 532.189 88.9975 533.494 87.2365 533.059ZM82.9017 504.8C83.1726 503.061 84.6627 502.047 86.2882 502.337C87.9138 502.627 88.9974 504.221 88.7265 505.815C88.4556 507.554 86.8301 508.858 85.2046 508.423C83.579 508.133 82.6308 506.539 82.9017 504.8ZM75.9932 534.508C73.9613 534.218 72.6067 532.334 73.0131 530.16C73.284 528.132 75.1804 526.683 77.2123 527.117C79.1088 527.552 80.3279 529.436 79.9215 531.465C79.6506 533.494 78.0251 534.798 75.9932 534.508ZM57.5705 482.483C57.9769 480.6 59.6025 479.44 61.3635 479.73C63.2599 480.02 64.4791 481.904 64.0727 483.933C63.8018 485.961 61.9053 487.266 60.1443 486.831C58.5187 486.541 57.1641 484.367 57.5705 482.483ZM59.6024 506.829C60.0088 504.8 61.9053 503.496 63.8017 503.931C65.6982 504.366 66.7819 506.249 66.511 508.278C66.24 510.452 64.3436 511.756 62.4471 511.322C60.5507 510.887 59.196 508.858 59.6024 506.829ZM58.6542 494.511C59.0606 492.483 60.8216 491.323 62.7181 491.758C64.6145 492.193 65.6982 493.932 65.4273 495.961C65.0209 497.989 63.3953 499.294 61.4989 499.004C59.6024 498.569 58.2479 496.54 58.6542 494.511ZM55.8095 457.993C56.2159 456.254 57.8414 455.094 59.467 455.384C61.228 455.674 62.3116 457.558 61.9053 459.442C61.4989 461.326 60.0088 462.34 58.2478 462.05C56.6223 461.761 55.4031 459.877 55.8095 457.993ZM56.7578 470.6C57.0287 468.716 58.6542 467.412 60.4152 467.702C62.1762 467.992 63.3954 469.731 63.1244 471.615C62.8535 473.499 61.228 474.803 59.467 474.513C57.8414 474.223 56.4868 472.484 56.7578 470.6ZM52.0166 525.233C49.9847 524.799 48.4946 522.625 48.901 520.306C49.3074 517.988 51.2039 516.538 53.3712 516.973C55.5386 517.408 57.0287 519.582 56.6223 521.755C56.2159 523.929 54.0485 525.523 52.0166 525.233ZM71.1166 505.815C71.523 503.931 73.284 502.772 75.045 503.206C76.806 503.641 77.8896 505.525 77.4833 507.409C77.0769 509.293 75.3159 510.452 73.5549 510.017C71.794 509.583 70.7102 507.699 71.1166 505.815ZM70.3038 493.642C70.7102 491.758 72.4713 490.744 74.2323 491.178C75.8578 491.613 76.806 493.207 76.3996 495.091C75.9932 496.83 74.3677 497.989 72.7421 497.699C71.1166 497.41 69.8975 495.381 70.3038 493.642ZM60.2797 519.002C60.6861 516.973 62.7181 515.524 64.479 515.959C66.511 516.394 67.8656 518.422 67.4592 520.741C67.0528 522.915 65.2918 524.219 63.2599 523.784C61.2279 523.205 59.8733 521.031 60.2797 519.002ZM64.3435 535.957C62.3116 535.522 60.9571 533.349 61.3635 531.32C61.7698 529.146 63.6662 527.697 65.6981 528.132C67.8655 528.566 69.0847 530.45 68.6783 532.769C68.2719 534.943 66.3755 536.392 64.3435 535.957ZM68.4074 469.296C68.6783 467.557 70.1684 466.543 71.7939 466.688C73.4194 466.978 74.5032 468.716 74.2323 470.455C73.8259 472.05 72.3357 473.064 70.7102 472.774C69.0847 472.484 68.1364 471.035 68.4074 469.296ZM69.3556 481.614C69.6265 479.875 71.2521 478.571 72.8776 478.861C74.5032 479.15 75.5868 480.889 75.3159 482.773C74.9095 484.512 73.4195 485.672 71.6585 485.237C70.1684 484.947 69.0847 483.208 69.3556 481.614ZM123.946 157.294C124.082 156.425 124.759 155.7 125.572 155.845C126.249 155.99 126.927 156.859 126.927 157.729C126.791 158.598 125.978 159.178 125.166 159.033C124.353 158.743 123.946 158.164 123.946 157.294ZM115.006 182.799C115.141 181.93 115.683 181.35 116.496 181.495C117.173 181.64 117.715 182.364 117.58 183.089C117.444 183.814 116.767 184.393 115.954 184.103C115.277 183.958 114.871 183.524 115.006 182.799ZM110.129 530.305C108.639 530.016 107.827 528.711 108.097 527.117C108.368 525.668 109.723 524.654 111.078 524.944C112.432 525.233 113.38 526.827 113.109 528.132C112.974 529.581 111.484 530.595 110.129 530.305ZM112.432 158.019C112.568 156.859 113.516 156.135 114.6 156.28C115.683 156.425 116.496 157.584 116.361 158.743C116.225 159.758 115.141 160.627 114.193 160.482C112.974 160.337 112.161 159.178 112.432 158.019ZM113.516 170.481C113.651 169.467 114.464 168.742 115.412 168.887C116.361 169.032 117.038 169.902 116.902 170.916C116.767 171.786 115.954 172.365 115.141 172.365C114.058 172.365 113.38 171.351 113.516 170.481ZM117.309 464.659C117.58 464.804 117.851 465.383 117.851 465.673C117.851 465.963 117.309 466.253 116.902 466.688C116.632 466.108 116.361 465.818 116.225 465.383C116.225 464.804 116.902 464.369 117.309 464.659ZM118.934 514.22C119.07 513.06 120.289 512.191 121.237 512.481C122.185 512.626 122.863 513.785 122.727 514.799C122.592 515.959 121.779 516.683 120.695 516.683C119.747 516.394 118.799 515.379 118.934 514.22ZM116.632 477.556C116.632 476.832 117.444 476.252 118.122 476.397C118.663 476.542 119.07 477.266 119.07 477.846C118.934 478.571 118.392 479.005 117.851 478.861C117.173 478.861 116.632 478.281 116.632 477.556ZM121.644 528.711C120.424 528.421 119.747 527.117 120.018 525.958C120.289 524.654 121.508 523.929 122.727 524.364C123.811 524.654 124.488 525.813 124.217 526.972C123.946 528.132 122.863 529.001 121.644 528.711ZM117.715 489.439C117.986 488.715 118.799 488.28 119.341 488.425C120.154 488.715 120.56 489.729 120.424 490.454C120.153 491.178 119.476 491.613 118.663 491.468C117.851 491.178 117.444 490.309 117.715 489.439ZM118.393 502.047C118.528 501.177 119.476 500.308 120.289 500.453C121.102 500.598 121.914 501.612 121.779 502.482C121.644 503.496 120.831 504.221 119.883 504.076C118.934 503.931 118.257 502.916 118.393 502.047ZM115.412 453.356C115.683 453.211 115.954 452.921 116.225 452.921C116.361 452.921 116.496 453.355 116.767 453.645C116.361 453.79 116.09 453.935 115.819 453.935C115.548 453.935 115.548 453.5 115.412 453.356ZM101.595 429.879C101.731 429.3 102.273 428.865 102.814 429.155C103.221 429.3 103.356 430.024 103.763 430.604C103.221 430.894 102.815 431.184 102.408 431.184C101.731 431.039 101.46 430.604 101.595 429.879ZM102.137 442.197C102.273 441.472 103.085 440.893 103.763 441.183C104.305 441.328 104.711 442.052 104.575 442.777C104.44 443.501 103.898 443.791 103.221 443.646C102.544 443.501 102.002 442.777 102.137 442.197ZM98.6152 531.899C97.1252 531.61 96.0415 530.016 96.3124 528.277C96.5833 526.538 97.9379 525.523 99.6989 525.813C101.324 526.103 102.408 527.697 102.002 529.436C101.731 531.03 100.105 532.189 98.6152 531.899ZM94.6868 503.496C95.0932 502.047 96.4478 501.177 97.8024 501.467C99.157 501.757 100.105 503.351 99.8343 504.8C99.5634 506.394 98.0734 507.264 96.5833 506.829C95.0932 506.539 94.4159 505.09 94.6868 503.496ZM95.6351 515.959C95.906 514.365 97.396 513.35 98.8861 513.785C100.376 514.075 101.324 515.669 100.918 517.263C100.647 518.857 99.1571 519.871 97.667 519.437C96.1769 519.002 95.2287 517.408 95.6351 515.959ZM105.524 490.599C105.795 489.584 106.878 488.86 107.691 488.86C108.775 489.005 109.588 490.164 109.452 491.323C109.317 492.627 108.233 493.352 107.149 493.062C106.066 492.917 105.253 491.758 105.524 490.599ZM106.472 502.772C106.607 501.467 107.827 500.598 109.046 500.743C110.265 500.888 111.078 502.192 110.807 503.496C110.536 504.655 109.588 505.525 108.504 505.38C107.149 505.235 106.336 504.076 106.472 502.772ZM107.556 514.799C107.827 513.35 109.181 512.481 110.4 512.771C111.619 513.06 112.432 514.51 112.161 515.814C111.89 517.118 110.671 517.988 109.317 517.698C107.962 517.553 107.149 516.249 107.556 514.799ZM103.085 454.225C103.085 453.356 103.898 452.631 104.711 452.776C105.388 452.921 105.93 453.645 105.93 454.37C105.93 455.239 104.982 455.964 104.305 455.819C103.627 455.819 103.085 454.95 103.085 454.225ZM104.711 478.571C104.846 477.556 105.659 476.832 106.607 476.977C107.556 477.122 108.368 478.136 108.233 479.15C108.097 480.02 107.149 480.744 106.336 480.744C105.253 480.6 104.576 479.73 104.711 478.571ZM104.034 466.253C104.169 465.383 104.982 464.804 105.795 464.804C106.743 464.949 107.42 465.818 107.149 466.833C107.014 467.702 106.337 468.282 105.388 468.137C104.44 468.137 103.898 467.267 104.034 466.253ZM93.7386 491.468C94.0095 490.019 95.4996 489.005 96.8542 489.439C98.0733 489.874 98.8861 491.178 98.4797 492.627C98.2088 494.077 96.9897 494.801 95.6351 494.511C94.2805 494.222 93.4677 492.917 93.7386 491.468ZM202.649 14.118C202.92 12.524 203.868 11.9443 205.9 12.2342C208.068 12.6689 208.61 13.3935 208.339 15.1325C208.068 16.8715 206.578 18.0308 205.088 17.741C203.462 17.4511 202.378 15.7122 202.649 14.118ZM204.139 26.0011C204.41 24.5519 205.765 23.5375 207.119 23.8274C208.474 24.1172 209.422 25.5663 209.287 27.0155C209.016 28.6096 207.661 29.624 206.171 29.3341C204.681 28.8994 203.868 27.5952 204.139 26.0011ZM205.223 38.4638C205.358 37.1596 206.578 36.2901 207.797 36.435C209.016 36.5799 209.829 37.8842 209.693 39.1884C209.558 40.4926 208.339 41.3621 207.119 41.2172C205.9 40.9274 205.087 39.7681 205.223 38.4638ZM217.008 37.3045C217.144 36.1451 218.092 35.4206 219.176 35.5655C220.259 35.7104 221.072 36.8697 220.936 38.0291C220.801 39.0435 219.717 39.913 218.769 39.768C217.55 39.6231 216.873 38.4638 217.008 37.3045ZM221.749 62.2299C221.749 62.5197 221.343 62.6646 221.072 63.0994C220.801 62.5197 220.53 62.2299 220.53 61.94C220.666 61.6502 221.072 61.5053 221.343 61.3604C221.343 61.7951 221.749 61.94 221.749 62.2299ZM218.634 49.9121C218.634 49.0426 219.446 48.318 220.259 48.463C220.936 48.6078 221.614 49.6223 221.478 50.3468C221.343 51.0714 220.53 51.6511 219.853 51.5062C219.176 51.3613 218.634 50.6367 218.634 49.9121ZM192.49 27.0155C192.896 25.4214 194.251 24.5519 195.741 24.8418C197.231 25.1316 198.179 26.7257 197.908 28.3198C197.637 29.7689 196.012 30.9282 194.657 30.6384C193.167 30.4935 192.083 28.7545 192.49 27.0155ZM193.844 39.768C193.98 38.174 195.334 37.1596 196.689 37.4494C197.908 37.7392 198.856 39.0435 198.585 40.4926C198.314 41.9418 197.095 42.8112 195.876 42.6664C194.522 42.3765 193.709 41.2172 193.844 39.768ZM191 14.8427C191.406 13.1036 193.031 11.9444 194.657 12.3791C196.418 12.6689 197.366 14.263 197.095 16.1469C196.824 17.8859 195.199 19.1901 193.573 18.9003C191.948 18.6105 190.593 16.5816 191 14.8427ZM209.829 62.085C210.371 62.2299 210.912 62.9544 210.777 63.679C210.641 64.4036 209.964 64.6935 209.287 64.5485C208.745 64.4036 208.474 63.8239 208.474 63.2443C208.61 62.5197 209.287 61.94 209.829 62.085ZM206.849 50.6367C207.119 49.6223 207.932 49.0426 208.88 49.3325C209.829 49.6223 210.37 50.4918 210.235 51.5062C210.1 52.3757 209.016 53.1002 208.203 53.1002C207.39 52.8104 206.578 51.6511 206.849 50.6367ZM230.012 38.6087C229.2 38.4638 228.522 37.4494 228.658 36.435C228.793 35.4206 229.741 34.8409 230.69 34.9858C231.638 35.1307 232.315 36.1451 232.044 37.1595C231.909 38.0291 230.825 38.7536 230.012 38.6087ZM238.817 22.9579C238.953 21.7986 239.901 21.074 240.985 21.2189C242.068 21.3638 242.881 22.5231 242.746 23.6825C242.61 24.6969 241.527 25.5664 240.578 25.4215C239.359 25.2766 238.682 24.1172 238.817 22.9579ZM243.694 48.0282C243.288 48.318 243.017 48.6078 242.881 48.463C242.61 48.318 242.475 48.0282 242.339 47.7384C242.475 47.5934 242.746 47.3036 242.881 47.3036C243.152 47.3036 243.423 47.5934 243.694 48.0282ZM253.718 33.3918C254.124 33.6816 254.26 34.2613 254.666 34.8409C254.124 35.1308 253.718 35.5655 253.176 35.5655C252.499 35.5655 252.092 34.8409 252.228 34.1164C252.363 33.5367 253.176 32.9571 253.718 33.3918ZM263.742 33.3918C263.742 32.8121 264.149 32.5223 264.555 32.6672C264.826 32.8121 265.097 33.2469 265.639 33.6816C264.961 33.9714 264.69 34.2613 264.284 34.1164C264.013 34.2613 263.742 33.6816 263.742 33.3918ZM49.5783 532.334C49.9847 530.16 52.152 528.566 54.184 529.001C56.3513 529.436 57.8414 531.755 57.4351 534.073C57.2996 535.088 56.7578 535.957 56.0804 536.537L51.3393 536.682C49.9847 535.812 49.172 534.073 49.5783 532.334ZM195.063 51.796C195.334 50.6367 196.418 49.7672 197.366 50.057C198.45 50.3469 199.127 51.5062 198.992 52.6655C198.856 53.8248 197.637 54.5494 196.554 54.4045C195.47 54.1147 194.928 53.1002 195.063 51.796ZM215.789 25.1316C216.06 23.6825 217.279 22.813 218.498 23.1028C219.717 23.3926 220.666 24.8418 220.395 26.146C220.124 27.4503 218.905 28.3198 217.55 28.0299C216.195 27.885 215.518 26.7257 215.789 25.1316ZM214.705 14.6977C214.841 13.8282 215.518 14.4079 215.924 14.4079C216.195 14.4079 216.466 14.5529 216.737 14.5529C217.279 14.6978 217.821 14.6978 218.363 14.8427C218.498 14.8427 218.634 15.1325 218.634 15.2774C218.634 15.4223 218.498 15.7122 218.498 15.7122C217.685 16.4367 216.602 16.4367 215.789 15.8571C215.247 15.7122 214.705 14.9875 214.705 14.6977ZM241.527 37.0147C240.714 36.8698 240.172 36.0002 240.443 35.1307C240.714 34.4062 241.391 33.9715 242.068 34.1164C242.881 34.2613 243.423 35.2757 243.152 36.1452C243.017 36.7248 242.204 37.1596 241.527 37.0147ZM231.638 47.8833C232.044 48.0282 232.315 48.6078 232.722 49.1875C232.18 49.6223 231.773 50.057 231.367 50.057C230.69 50.2019 230.283 49.4773 230.283 48.7527C230.419 48.1731 231.096 47.5935 231.638 47.8833ZM227.168 24.1172C227.303 22.813 228.522 21.9435 229.741 22.2333C230.825 22.5231 231.638 23.5376 231.502 24.6969C231.367 26.0011 230.283 26.8706 229.064 26.7257C227.71 26.5808 226.897 25.4214 227.168 24.1172ZM180.705 28.3198C180.975 26.5808 182.466 25.5664 184.091 25.8562C185.717 26.146 186.8 27.5952 186.529 29.3341C186.258 31.218 184.768 32.3773 183.143 32.0875C181.517 31.7977 180.434 30.0587 180.705 28.3198ZM83.9854 46.7239C85.8818 47.7383 86.8301 49.7672 86.4237 51.9409C86.0174 53.9697 84.3918 55.5638 82.4953 55.5638C81.9535 55.5638 81.4116 55.2739 81.5471 54.5493C81.9535 52.0858 82.3599 49.6223 82.9017 47.3036C82.9017 46.4341 83.4435 46.4341 83.9854 46.7239ZM84.1209 41.7968C84.1209 41.507 83.8499 41.3621 83.9854 41.0723C84.2563 39.6231 84.3918 38.174 84.9336 36.435C85.8819 38.6087 85.7464 40.0579 84.7982 41.507C84.6627 41.6519 84.2563 41.6519 84.1209 41.7968ZM91.5712 5.71301C91.3003 5.85791 90.8939 5.85791 90.623 5.71301C90.4875 5.71301 90.3521 5.27826 90.4876 4.98846C90.7585 3.8291 90.894 2.5249 91.1649 1.22064L94.4159 1.36554C94.145 3.24945 93.1968 4.98846 91.5712 5.71301ZM99.9698 4.98846C98.3443 4.55371 96.9896 3.24945 96.4478 1.6554L105.253 2.09015C104.305 4.11896 102.137 5.42316 99.9698 4.98846ZM28.8528 354.089C28.7173 354.234 28.4464 354.234 28.3109 354.234L29.1237 348.582C30.7493 350.901 30.6138 352.784 28.8528 354.089ZM14.0875 458.717C16.5258 459.152 18.0159 461.471 17.6095 463.934C17.2032 466.398 15.0358 468.137 12.7329 467.702C12.0556 467.557 11.5138 467.267 11.1074 466.978L12.3266 458.717C12.8684 458.717 13.4102 458.717 14.0875 458.717ZM95.7705 356.842C95.7705 356.697 96.1769 356.407 96.3124 356.407C96.4478 356.407 96.5833 356.697 96.8542 356.987C96.5833 357.132 96.3123 357.422 96.1769 357.277C96.0414 357.277 95.7705 356.987 95.7705 356.842ZM111.484 3.8291C110.4 3.6842 109.452 3.10455 108.775 2.23505L115.277 2.52484C114.329 3.53925 112.839 4.1189 111.484 3.8291ZM21.4024 409.301C23.4343 409.736 24.789 411.765 24.5181 413.939C24.2471 416.257 22.2152 417.851 20.0478 417.417C19.6414 417.272 19.0996 417.127 18.6932 416.837L19.9123 409.301C20.3187 409.156 20.8606 409.156 21.4024 409.301ZM28.9883 359.74C30.7492 360.32 31.8329 362.349 31.2911 364.378C30.8847 366.262 29.2592 367.276 27.3627 366.986C26.9563 366.841 26.6854 366.841 26.4145 366.696L27.4982 359.74C27.9046 359.595 28.4464 359.595 28.9883 359.74ZM15.4422 439.009C15.3067 439.299 15.3067 439.589 15.1712 439.878L15.3067 438.719C15.4421 438.719 15.4422 438.864 15.4422 439.009ZM16.5258 451.617C16.2549 453.645 14.6294 455.094 12.8684 455.239L14.223 446.689C15.7131 447.704 16.7967 449.733 16.5258 451.617ZM8.39816 489.584C8.2627 490.599 7.85633 491.323 7.17902 492.048L7.9918 486.541C8.39818 487.411 8.53363 488.425 8.39816 489.584ZM179.621 16.1469C179.892 14.263 181.517 12.9587 183.414 13.2486C185.175 13.5384 186.394 15.2774 186.123 17.1613C185.852 19.0452 184.227 20.3494 182.33 20.0596C180.569 19.9147 179.35 18.0308 179.621 16.1469ZM196.689 64.1137C196.824 63.0993 197.637 62.3748 198.45 62.5197C199.263 62.6646 199.805 63.5341 199.669 64.4036C199.534 65.2731 198.856 65.8528 198.044 65.8528C197.231 65.7078 196.689 65.1281 196.689 64.1137ZM183.007 7.59686C181.382 8.32147 180.434 8.17657 179.485 6.87231C180.705 7.16217 181.653 7.30707 183.007 7.59686ZM182.195 40.6375C182.466 39.0435 183.685 38.174 185.175 38.4638C186.665 38.7537 187.613 40.3477 187.342 41.7968C187.071 43.246 185.581 44.2604 184.227 43.9706C182.872 43.8257 181.924 42.2316 182.195 40.6375ZM186.394 77.301C186.529 76.5764 187.342 75.9968 188.019 76.1417C188.832 76.2867 189.239 76.8663 189.239 77.7357C189.239 78.6053 188.426 79.3298 187.613 79.1849C186.936 79.1849 186.258 78.1705 186.394 77.301ZM183.549 52.6655C183.82 51.3612 185.175 50.3468 186.394 50.6367C187.613 50.9265 188.426 52.2307 188.155 53.6799C187.884 55.1291 186.665 55.8536 185.31 55.4189C184.091 55.2739 183.414 53.9697 183.549 52.6655ZM151.174 8.75623C150.632 11.0749 148.6 12.3791 146.433 11.7994C144.266 11.2198 142.911 9.04602 143.317 6.87231C143.588 5.71301 144.13 4.84351 145.078 4.11896L149.819 4.40881C151.039 5.42322 151.58 7.01727 151.174 8.75623ZM162.553 7.59686C162.146 9.77063 160.25 11.2198 158.218 10.93C156.051 10.6401 154.696 8.32147 155.102 6.14777C155.238 5.71301 155.373 5.27826 155.644 4.84351L162.417 5.13336C162.688 5.71301 162.824 6.58246 162.553 7.59686ZM189.103 89.3289C189.374 89.4739 189.51 89.9086 189.51 90.0535C189.51 90.3434 189.103 90.4883 188.561 90.7781C188.426 90.1985 188.155 89.9086 188.29 89.6188C188.426 89.6188 188.968 89.3289 189.103 89.3289ZM184.904 64.9832C185.175 63.9688 186.123 63.2443 187.071 63.3892C188.155 63.679 188.832 64.8383 188.561 65.9977C188.29 67.0121 187.207 67.5917 186.258 67.3019C185.31 67.157 184.633 65.9977 184.904 64.9832ZM199.534 75.562C199.805 75.7069 200.346 76.2866 200.346 76.4315C200.211 76.8663 199.805 77.1561 199.263 77.7357C198.992 77.1561 198.585 76.7213 198.585 76.4315C198.314 75.8519 198.992 75.4171 199.534 75.562ZM46.0563 483.788C46.3272 481.614 47.9528 480.165 49.9847 480.31C52.1521 480.6 53.6422 482.483 53.3712 484.657C53.1003 486.686 51.2039 488.28 49.3074 487.99C47.4109 487.99 45.9208 485.961 46.0563 483.788ZM45.2436 536.102C44.2953 535.957 43.3471 535.667 42.3989 535.522C41.4507 535.377 40.5024 535.232 39.5542 534.943C38.335 534.653 38.1996 534.073 38.4705 532.914C39.0124 530.595 41.3152 529.146 43.4826 529.871C45.65 530.45 47.14 532.914 46.5982 535.088C46.4627 535.812 45.9209 536.102 45.2436 536.102ZM36.1677 509.148C36.5741 506.684 38.7414 505.09 40.9088 505.525C43.2116 505.96 44.5663 508.278 44.1599 510.742C43.7535 513.205 41.5861 514.655 39.2833 514.075C37.1159 513.64 35.7613 511.466 36.1677 509.148ZM46.8691 495.671C47.2755 493.642 49.1719 492.193 51.0684 492.483C53.1003 492.772 54.4549 494.946 54.184 497.12C53.7776 499.438 52.0167 500.743 49.8493 500.308C47.8174 499.873 46.4627 497.844 46.8691 495.671ZM35.084 496.685C35.4904 494.366 37.6577 492.917 39.9606 493.497C42.1279 494.077 43.3471 496.105 42.9407 498.424C42.5343 500.743 40.5024 502.192 38.335 501.757C36.1677 501.467 34.6776 499.004 35.084 496.685ZM37.2514 521.031C37.6578 518.567 39.6896 517.118 41.9925 517.553C44.2953 517.988 45.9209 520.451 45.5145 522.77C45.1081 525.088 42.8052 526.683 40.6379 526.393C38.335 525.958 36.845 523.494 37.2514 521.031ZM50.9329 512.771C48.7656 512.336 47.4109 510.162 47.9528 507.844C48.3592 505.67 50.3911 504.366 52.423 504.8C54.4549 505.235 55.8095 507.409 55.4031 509.583C54.9968 511.756 52.9649 513.06 50.9329 512.771ZM62.7181 396.404C62.989 394.955 64.2081 394.085 65.4273 394.23C66.7819 394.375 67.8656 395.824 67.5946 397.273C67.3237 398.723 65.9691 399.737 64.6145 399.447C63.2599 399.157 62.4471 397.708 62.7181 396.404ZM61.9053 384.231C62.1762 382.782 63.3954 381.912 64.75 382.202C66.1046 382.492 66.9174 383.651 66.7819 385.101C66.6464 386.55 65.4273 387.419 64.0727 387.274C62.5826 387.129 61.6343 385.68 61.9053 384.231ZM57.4351 449.878C55.8095 449.733 54.4549 447.704 54.7258 445.965C54.9968 444.226 56.6223 443.067 58.3833 443.356C60.1443 443.646 61.2279 445.24 60.957 447.124C60.6861 448.863 59.0606 450.022 57.4351 449.878ZM60.8216 372.058C60.957 370.609 62.3117 369.595 63.8017 369.884C65.1563 370.174 65.9691 371.479 65.6981 372.928C65.4272 374.377 64.3435 375.246 62.9889 374.956C61.4989 374.667 60.5507 373.362 60.8216 372.058ZM33.0521 533.638C32.5102 533.638 31.9684 533.494 31.4265 533.349C30.8847 533.204 30.2074 533.204 29.6656 532.914C29.1237 532.769 28.04 532.914 28.04 531.899C28.04 531.465 28.9883 530.885 29.6656 530.74C31.1556 530.305 32.6457 530.595 33.8649 531.899C34.2712 532.334 34.9485 532.769 34.5422 533.494C34.4067 533.783 33.5939 533.638 33.0521 533.638ZM12.0556 499.004C12.462 496.25 14.9003 494.511 17.3386 495.091C19.6414 495.671 21.267 498.279 20.8606 500.743C20.4542 503.351 18.0159 504.945 15.5776 504.511C13.1393 503.931 11.6492 501.612 12.0556 499.004ZM13.1393 511.032C13.6811 508.278 15.8485 506.684 18.5577 507.264C21.1315 507.844 22.6216 510.452 22.0797 513.06C21.5379 515.524 19.2351 517.263 16.7968 516.828C14.223 516.394 12.5975 513.785 13.1393 511.032ZM29.5301 372.058C31.4265 372.493 32.6457 374.232 32.3748 376.261C32.1039 378.29 30.2074 379.739 28.3109 379.449C26.4145 379.014 25.1953 377.13 25.6017 374.956C25.8726 372.783 27.6336 371.623 29.5301 372.058ZM17.6095 425.097C17.8805 422.778 19.7769 421.039 21.9443 421.329C23.9762 421.619 25.6017 423.793 25.3308 426.111C25.0599 428.285 23.1634 429.879 21.1315 429.589C18.9642 429.445 17.4741 427.416 17.6095 425.097ZM17.6095 529.001C15.0358 528.566 13.4102 525.958 13.8166 523.349C14.223 520.596 16.6613 518.857 19.0996 519.292C21.6734 519.727 23.2989 522.335 22.8925 524.944C22.4861 527.697 20.1833 529.581 17.6095 529.001ZM34.4067 484.512C34.8131 482.194 36.9804 480.744 39.0124 481.179C41.0443 481.614 42.5344 484.077 42.128 486.251C41.7216 488.425 39.5542 489.874 37.5223 489.439C35.2194 489.005 34.0003 486.831 34.4067 484.512ZM63.6662 408.432C63.8017 406.983 65.1563 405.968 66.6464 406.258C68.1365 406.548 68.9493 407.852 68.8138 409.301C68.5429 410.75 67.3237 411.91 65.9691 411.62C64.6145 411.475 63.5308 409.881 63.6662 408.432ZM25.6017 522.045C26.1436 519.582 28.4464 517.988 30.7492 518.422C33.0521 518.857 34.8131 521.61 34.2712 524.074C33.8648 526.683 31.4265 528.277 28.9883 527.697C26.4145 527.117 24.9244 524.509 25.6017 522.045ZM22.757 485.672C23.1634 483.208 25.3308 481.614 27.7691 482.194C29.9365 482.773 31.4265 485.092 31.0202 487.411C30.6138 489.729 28.1755 491.468 26.0081 490.888C23.7053 490.454 22.2152 488.135 22.757 485.672ZM24.5181 509.872C24.9244 507.409 27.2272 505.815 29.5301 506.249C31.8329 506.684 33.323 509.003 32.9166 511.611C32.5102 514.22 30.4783 515.814 28.04 515.379C25.6017 514.799 23.9762 512.481 24.5181 509.872ZM23.7053 498.134C24.1117 495.671 26.1436 493.932 28.4464 494.222C30.7493 494.656 32.3748 496.975 31.9684 499.438C31.6975 501.902 29.3946 503.641 27.0918 503.206C24.789 502.916 23.2989 500.743 23.7053 498.134ZM10.972 486.541C11.3783 483.933 13.6812 482.339 16.1195 482.773C18.5578 483.353 20.1833 485.961 19.6415 488.425C19.0996 490.888 16.7967 492.483 14.4939 492.048C12.1911 491.758 10.5656 489.15 10.972 486.541ZM86.6946 394.085C86.8301 393.361 87.6428 392.926 88.3201 392.926C89.1329 393.071 89.6747 393.94 89.4038 394.81C89.2684 395.534 88.4557 396.114 87.7784 395.969C87.101 395.969 86.4237 394.955 86.6946 394.085ZM83.7145 357.857C83.85 357.132 84.5272 356.552 85.34 356.697C86.0173 356.842 86.4237 357.567 86.2882 358.436C86.1528 359.161 85.6109 359.595 84.9336 359.451C84.1209 359.306 83.5791 358.581 83.7145 357.857ZM84.5273 369.74C84.7982 369.015 85.6109 368.58 86.2882 368.87C86.9655 369.16 87.3719 369.884 87.2365 370.609C87.101 371.334 86.2882 371.768 85.6109 371.623C84.7982 371.479 84.2563 370.609 84.5273 369.74ZM85.6109 381.767C85.8819 381.043 86.6946 380.608 87.3719 380.898C88.0492 381.188 88.4556 381.912 88.3201 382.637C88.1847 383.362 87.3719 383.941 86.6946 383.796C85.8818 383.506 85.4755 382.637 85.6109 381.767ZM88.4557 419.011C88.4557 417.996 89.2684 417.272 90.2166 417.417C91.0294 417.561 91.7067 418.286 91.5712 419.156C91.5712 420.17 90.623 420.895 89.6748 420.75C88.9975 420.605 88.3202 419.88 88.4557 419.011ZM87.5074 406.403C87.7783 405.534 88.5911 404.954 89.2684 405.244C90.0812 405.534 90.623 406.403 90.3521 407.273C90.2166 408.142 89.2684 408.577 88.4557 408.432C87.6429 408.142 87.2365 407.273 87.5074 406.403ZM94.8223 344.524C94.9577 344.379 95.2287 344.09 95.3641 344.09C95.4996 344.09 95.6351 344.379 95.906 344.669C95.6351 344.814 95.3642 345.104 95.2287 344.959C95.0932 344.959 94.9577 344.669 94.8223 344.524ZM89.4038 430.749C89.5393 429.879 90.4875 429.01 91.3003 429.155C92.1131 429.3 92.9258 430.314 92.7903 431.184C92.6549 432.198 91.8422 432.922 90.8939 432.778C89.9457 432.633 89.2684 431.763 89.4038 430.749ZM93.7386 209.029C94.0095 208.014 94.8223 207.435 95.7705 207.58C96.8542 207.725 97.5315 208.739 97.2606 209.898C97.1252 210.913 96.0414 211.637 95.0932 211.492C94.145 211.203 93.4677 210.043 93.7386 209.029ZM91.9776 445.24C91.0294 445.095 90.2166 444.081 90.3521 442.922C90.4875 441.907 91.4358 441.183 92.5195 441.328C93.4677 441.472 94.0095 442.342 94.0095 443.356C93.8741 444.661 93.0613 445.385 91.9776 445.24ZM93.7386 332.496C93.874 332.351 94.145 332.062 94.2805 332.062C94.4159 332.062 94.5513 332.351 94.8223 332.641C94.5513 332.786 94.2804 333.076 94.145 332.931C94.0095 333.076 93.874 332.641 93.7386 332.496ZM64.75 420.46C65.0209 419.011 66.511 418.141 67.8656 418.431C69.2202 418.721 70.0329 420.17 69.8975 421.619C69.6266 423.213 68.4074 424.083 66.9173 423.793C65.4273 423.503 64.4791 422.054 64.75 420.46ZM73.5549 383.362C73.6904 382.202 74.6386 381.188 75.7223 381.333C76.806 381.333 77.6188 382.637 77.6188 383.796C77.4833 384.956 76.3996 385.825 75.3159 385.68C74.0968 385.39 73.4195 384.521 73.5549 383.362ZM72.7421 370.754C73.0131 369.74 74.0968 369.015 75.045 369.305C76.1287 369.45 76.806 370.464 76.6705 371.623C76.5351 372.783 75.4514 373.652 74.3677 373.507C73.284 373.073 72.4712 371.768 72.7421 370.754ZM69.762 460.601C68.4074 460.311 67.3237 458.572 67.5946 457.123C67.8656 455.529 69.4911 454.37 70.9812 454.805C72.4712 455.239 73.4194 456.689 73.1485 458.283C72.8776 459.877 71.252 461.036 69.762 460.601ZM65.5627 432.778C65.8336 431.184 67.0528 430.314 68.5429 430.459C70.0329 430.749 71.1167 432.198 70.8457 433.792C70.5748 435.241 69.2202 436.256 67.8656 436.111C66.3755 435.966 65.2918 434.517 65.5627 432.778ZM66.511 445.095C66.7819 443.501 68.2719 442.487 69.762 442.777C71.252 443.067 72.2003 444.661 71.9294 446.255C71.6585 447.849 70.1684 448.863 68.6783 448.573C67.3237 448.283 66.24 446.689 66.511 445.095ZM74.6386 395.389C74.7741 394.085 75.7223 393.361 76.9415 393.506C78.0252 393.651 78.8379 394.81 78.7024 395.969C78.567 396.984 77.4833 397.998 76.3996 397.853C75.3159 397.853 74.5032 396.694 74.6386 395.389ZM80.1925 446.979C78.9733 446.689 78.1606 445.24 78.5669 443.791C78.8379 442.487 79.9215 441.762 81.2762 442.052C82.6308 442.342 83.4436 443.646 83.1726 445.095C82.7663 446.4 81.4116 447.269 80.1925 446.979ZM77.4833 431.618C77.7542 430.314 78.9734 429.445 80.0571 429.734C81.1407 430.024 82.0889 431.328 81.9535 432.488C81.818 433.792 80.4634 434.806 79.1088 434.372C77.8897 434.227 77.2123 432.922 77.4833 431.618ZM76.3996 419.59C76.5351 418.286 77.8897 417.417 78.9734 417.706C80.0571 417.996 80.7343 419.156 80.5989 420.315C80.4634 421.619 79.5152 422.344 78.2961 422.199C77.0769 422.054 76.2641 420.75 76.3996 419.59ZM82.4953 345.684C82.4953 344.814 83.3081 344.234 84.1209 344.379C84.7982 344.524 85.34 345.249 85.2046 346.118C85.0691 346.843 84.3918 347.423 83.7145 347.278C83.0372 347.133 82.4953 346.408 82.4953 345.684ZM75.7223 407.562C75.9932 406.403 76.9415 405.534 78.0251 405.823C79.1088 405.968 80.0571 407.417 79.6507 408.577C79.3798 409.736 78.296 410.316 77.2123 410.171C76.1286 409.881 75.4514 408.722 75.7223 407.562ZM71.9294 163.525C71.6585 165.264 69.8975 166.714 68.1365 166.424C66.3755 166.134 65.0209 164.105 65.4273 162.221C65.6982 160.337 67.4592 159.178 69.2202 159.468C71.1166 159.613 72.3358 161.497 71.9294 163.525ZM140.879 21.9435C140.473 24.1172 138.17 25.7113 136.138 25.2766C134.106 24.8418 132.751 22.5231 133.158 20.2045C133.564 17.8859 135.596 16.4367 137.763 17.0164C139.931 17.4511 141.421 19.7698 140.879 21.9435ZM137.086 4.55365C139.253 4.9884 140.744 7.45197 140.337 9.77063C139.931 12.0892 137.628 13.6833 135.461 13.3935C133.158 12.9587 131.668 10.4952 132.21 8.03168C132.616 5.56812 134.783 4.1189 137.086 4.55365ZM141.692 34.2613C141.285 36.435 139.254 37.8841 137.222 37.3045C135.325 36.8697 134.106 34.696 134.377 32.6672C134.783 30.4935 136.68 29.0443 138.712 29.4791C141.014 29.9138 142.098 31.9426 141.692 34.2613ZM131.803 119.326C132.074 118.167 133.022 117.298 134.241 117.587C135.325 117.732 136.138 119.037 136.002 120.196C135.867 121.5 134.648 122.37 133.429 122.08C132.209 121.645 131.668 120.631 131.803 119.326ZM130.313 67.7366C132.21 68.1714 133.158 69.7655 132.751 71.7943C132.345 73.6782 130.584 74.8375 128.958 74.4027C127.333 73.968 126.249 72.229 126.52 70.49C126.791 68.4612 128.552 67.3019 130.313 67.7366ZM132.21 59.3316C131.939 61.3604 130.313 62.6646 128.417 62.5197C126.52 62.2299 125.166 60.201 125.436 58.1722C125.843 56.1434 127.604 54.9841 129.365 55.2739C131.397 55.5638 132.48 57.3028 132.21 59.3316ZM125.572 5.56812C127.875 6.14777 129.365 8.32147 128.823 10.93C128.281 13.3935 126.114 14.9876 123.811 14.5529C121.508 14.1181 120.018 11.6545 120.424 9.19098C120.831 6.72742 123.134 4.9884 125.572 5.56812ZM129.907 22.813C129.5 25.1316 127.333 26.7257 125.166 26.2909C122.863 25.8562 121.508 23.5375 121.914 21.2189C122.321 18.7553 124.488 17.3062 126.656 17.741C128.823 18.1757 130.313 20.4943 129.907 22.813ZM130.449 34.9858C130.042 37.3045 128.01 38.8986 125.843 38.3189C123.811 37.8842 122.321 35.4206 122.727 33.2469C123.134 31.0732 125.166 29.624 127.197 30.0587C129.5 30.4935 130.855 32.6672 130.449 34.9858ZM131.397 47.3036C130.99 49.3324 129.094 50.7816 127.197 50.3468C125.166 50.057 123.811 47.8833 124.217 45.7096C124.624 43.5359 126.385 42.2316 128.417 42.6664C130.449 43.1011 131.803 45.1299 131.397 47.3036ZM135.325 130.195C136.138 130.34 136.815 131.354 136.68 132.369C136.544 133.383 135.731 133.963 134.783 133.818C133.7 133.673 133.022 132.514 133.293 131.499C133.429 130.63 134.512 130.05 135.325 130.195ZM133.158 527.262C132.21 527.117 131.532 526.103 131.803 525.088C131.939 524.219 133.022 523.494 133.835 523.639C134.648 523.784 135.325 524.799 135.19 525.813C134.919 526.827 134.106 527.552 133.158 527.262ZM129.229 94.6908C129.5 93.0968 130.99 92.0823 132.48 92.3722C133.971 92.662 134.919 94.2561 134.512 95.8501C134.241 97.4442 132.887 98.4586 131.397 98.0239C129.907 97.734 128.958 96.2849 129.229 94.6908ZM130.449 106.864C130.855 105.559 132.074 104.69 133.293 104.98C134.512 105.27 135.325 106.574 135.054 108.023C134.783 109.472 133.7 110.342 132.345 110.052C130.855 109.762 130.042 108.313 130.449 106.864ZM129.636 488.57C130.042 488.425 130.449 488.135 130.584 488.135C130.855 488.28 130.99 488.57 131.126 488.86C130.855 489.005 130.584 489.439 130.313 489.439C130.178 489.439 129.907 489.005 129.636 488.57ZM127.604 182.219C127.468 182.075 127.197 181.785 127.197 181.64C127.197 181.495 127.468 181.35 127.739 181.06C127.875 181.35 128.146 181.64 128.146 181.785C128.146 181.93 127.739 182.075 127.604 182.219ZM128.01 82.518C128.281 80.779 129.636 79.6197 131.261 79.7646C132.887 79.9095 134.106 81.7934 133.835 83.5323C133.564 85.2713 132.074 86.2858 130.449 85.9959C128.688 85.851 127.739 84.257 128.01 82.518ZM130.313 500.888C130.178 500.163 130.855 499.583 131.532 499.873C132.074 500.018 132.48 500.308 132.48 501.033C132.48 501.757 131.803 502.192 130.99 502.047C130.719 501.757 130.313 501.467 130.313 500.888ZM136.138 156.28C136.002 155.845 136.544 155.12 137.086 155.41C137.357 155.555 137.628 155.99 138.034 156.425C137.492 156.714 137.222 157.294 136.951 157.149C136.544 157.149 136.138 156.714 136.138 156.28ZM142.64 46.1443C142.234 48.1731 140.473 49.3324 138.576 48.8977C136.68 48.4629 135.461 46.724 135.867 44.6952C136.273 42.6663 137.899 41.3621 139.795 41.6519C141.692 41.9417 143.046 44.1155 142.64 46.1443ZM33.323 388.723C32.9166 390.752 31.1556 391.912 29.2592 391.622C27.2273 391.187 26.0081 389.303 26.4145 387.129C26.8209 385.101 28.5819 383.796 30.4783 384.231C32.5102 384.521 33.7294 386.55 33.323 388.723ZM134.648 143.962C134.648 143.092 135.461 142.513 136.273 142.658C136.951 142.803 137.492 143.527 137.357 144.397C137.222 145.121 136.544 145.701 135.867 145.556C135.19 145.411 134.648 144.687 134.648 143.962ZM130.99 512.771C131.126 512.046 131.939 511.466 132.616 511.611C133.293 511.756 133.971 512.771 133.7 513.64C133.429 514.51 132.48 514.944 131.803 514.655C131.126 514.365 130.855 513.64 130.99 512.771ZM120.966 60.7807C120.56 62.8095 118.663 64.1138 116.767 63.679C114.735 63.2443 113.38 61.0705 113.922 59.0417C114.329 57.0129 116.361 55.7087 118.257 55.9985C120.154 56.5782 121.373 58.607 120.966 60.7807ZM120.153 48.318C119.883 50.4918 117.715 52.0858 115.548 51.6511C113.516 51.2163 112.161 49.1875 112.432 47.0138C112.703 44.6952 114.735 43.1011 116.767 43.3909C118.934 43.8257 120.56 46.1443 120.153 48.318ZM56.8932 263.372C56.6223 264.966 54.9967 266.125 53.5067 265.835C52.0166 265.546 50.9329 263.807 51.3393 262.213C51.6102 260.474 53.1003 259.459 54.7258 259.894C56.2159 260.039 57.2996 261.633 56.8932 263.372ZM55.945 251.054C55.6741 252.793 54.0485 253.952 52.2876 253.518C50.662 253.083 49.7137 251.489 50.1201 249.75C50.3911 248.011 51.8811 246.996 53.5067 247.286C55.1322 247.576 56.2159 249.17 55.945 251.054ZM72.7421 175.698C72.4712 177.582 70.5748 178.886 68.9492 178.452C67.1882 178.017 66.24 176.133 66.6464 174.249C67.0528 172.365 68.6783 171.496 70.3038 171.931C71.9294 172.22 73.0131 173.959 72.7421 175.698ZM64.3435 213.376C63.9372 215.115 62.3117 216.275 60.6862 215.84C59.1961 215.405 58.1124 213.811 58.3833 212.072C58.6542 210.333 60.2797 209.174 61.9053 209.464C63.6662 209.898 64.7499 211.637 64.3435 213.376ZM126.385 170.771C125.843 170.626 125.572 170.192 125.572 169.612C125.572 169.032 125.978 168.598 126.52 168.598C127.197 168.598 127.739 169.177 127.604 169.902C127.604 170.481 126.927 170.916 126.385 170.771ZM40.367 338.583C39.9606 340.612 38.4705 341.626 36.5741 341.191C34.9485 340.757 33.8648 339.162 34.1358 337.423C34.4067 335.54 36.1677 334.235 37.9287 334.525C39.5542 334.815 40.6379 336.699 40.367 338.583ZM41.4507 350.901C41.1798 352.784 39.4187 354.089 37.6577 353.654C36.0322 353.219 34.9485 351.48 35.084 349.741C35.3549 347.857 36.9805 346.553 38.7415 346.843C40.7734 347.278 41.7216 348.872 41.4507 350.901ZM49.5783 313.368C49.172 314.962 47.6818 315.976 46.0563 315.541C44.4308 315.107 43.4826 313.657 43.889 311.918C44.1599 310.179 45.65 309.165 47.2755 309.455C48.901 309.745 49.9847 311.629 49.5783 313.368ZM48.6301 301.05C48.3592 302.644 46.7336 303.803 45.2436 303.513C43.618 303.224 42.5344 301.485 42.8053 299.746C43.0762 298.007 44.5663 296.992 46.1918 297.282C47.8173 297.572 48.901 299.166 48.6301 301.05ZM42.5343 363.218C42.128 365.102 40.5024 366.262 38.7415 365.827C37.1159 365.392 36.0322 363.798 36.3031 361.914C36.5741 360.03 38.3351 358.726 40.0961 359.161C41.7216 359.451 42.9407 361.334 42.5343 363.218ZM57.706 275.255C57.4351 276.849 56.2159 278.008 54.7258 277.863C53.1003 277.718 52.0166 276.124 52.152 274.53C52.2875 272.936 54.0485 271.632 55.5386 271.922C56.8932 272.212 57.8415 273.661 57.706 275.255ZM114.193 6.29266C116.632 6.87231 118.122 9.19098 117.58 11.9443C117.038 14.5528 114.735 16.2918 112.297 15.7122C109.994 15.1325 108.368 12.524 108.775 10.0605C109.452 7.45197 111.755 5.71301 114.193 6.29266ZM108.91 49.1875C108.504 51.6511 106.472 53.2451 104.305 52.8104C102.137 52.3756 100.512 50.057 100.918 47.7384C101.324 45.4197 103.492 43.8257 105.659 44.2604C107.827 44.8401 109.181 46.8689 108.91 49.1875ZM119.476 36.2901C119.07 38.7537 116.902 40.2028 114.735 39.768C112.568 39.3333 111.078 37.0146 111.484 34.5511C111.89 32.2325 113.922 30.7833 116.09 31.2181C118.392 31.6528 119.883 33.8265 119.476 36.2901ZM118.528 24.1172C117.986 26.5807 115.683 28.1748 113.516 27.7401C111.213 27.3053 109.723 24.8418 110.265 22.3782C110.807 19.7698 112.839 18.3206 115.277 18.9003C117.58 19.335 119.07 21.6536 118.528 24.1172ZM108.097 37.4494C107.691 40.0579 105.524 41.507 103.085 40.9273C100.918 40.4926 99.428 38.174 99.6989 35.8553C100.105 33.3918 102.408 31.6528 104.711 32.0875C107.014 32.5223 108.504 34.9858 108.097 37.4494ZM96.8542 38.4638C96.4478 40.9274 94.2805 42.6663 91.8422 42.2316C89.4039 41.7968 87.7783 39.3333 88.0492 36.7248C88.4556 34.2613 90.894 32.3773 93.1968 32.8121C95.7705 33.2469 97.396 35.8553 96.8542 38.4638ZM80.328 125.703C80.0571 127.731 78.1606 129.181 76.2642 128.891C74.3677 128.601 73.0131 126.572 73.284 124.543C73.5549 122.515 75.4514 121.065 77.3478 121.355C79.3798 121.645 80.7344 123.674 80.328 125.703ZM80.0571 62.5197C80.1925 61.94 80.328 61.3604 80.328 60.7807C80.4635 59.6214 81.1407 59.1866 82.089 58.8968C83.7145 58.3171 85.6109 59.0417 86.6946 60.4909C87.7783 61.94 87.9138 64.2587 86.8301 65.8528C85.8819 67.3019 83.9854 68.1714 82.3599 67.7366C80.4635 67.157 79.6506 65.8528 79.9215 63.8239C79.9215 63.2443 79.9216 62.9544 80.0571 62.5197ZM107.285 25.2766C106.743 27.7401 104.44 29.4791 102.002 28.8994C99.5635 28.3198 98.0734 26.0011 98.6152 23.3926C99.1571 20.7842 101.46 19.1901 103.898 19.6249C106.201 20.2045 107.827 22.813 107.285 25.2766ZM97.9379 50.4918C97.5315 52.9553 95.3642 54.5494 92.9258 54.1146C90.4876 53.6799 89.1329 51.3612 89.5393 48.8977C89.9457 46.4341 92.2486 44.8401 94.5514 45.2748C96.7188 45.8545 98.2088 48.1731 97.9379 50.4918ZM102.544 7.30707C105.117 7.74182 106.743 10.2054 106.336 12.9587C105.93 15.5673 103.492 17.4511 101.054 17.0164C98.4798 16.5816 96.8542 14.1181 97.2606 11.3647C97.8025 8.61133 99.9698 6.87231 102.544 7.30707Z" fill="white"/>
<path opacity="0.2" d="M247.487 264.822H42.1284L39.8256 279.748L247.487 264.822ZM55.539 177.149L247.487 264.822L53.2362 192.22L55.539 177.149ZM361.545 213.377V222.652L247.623 264.677L361.545 213.377ZM247.487 264.822L75.7227 45.4208L79.7865 18.9014L247.487 264.822L92.1135 1.36664L114.871 2.52594L247.487 264.822L135.867 3.6853L155.374 4.69965L247.487 264.822ZM46.5986 235.694L247.487 264.822L44.2958 250.186L46.5986 235.694ZM256.969 9.91663L247.487 264.822L272.954 10.7861L288.938 11.6556L247.487 264.822L339.33 14.1191L357.482 14.9886L247.487 264.677L361.545 44.9861V75.853L247.487 264.677L240.985 9.04712L256.969 9.91663ZM321.991 13.2496L247.487 264.822L305.194 12.3802L321.991 13.2496ZM247.487 264.822L68.8142 90.4894L72.0653 69.0419L247.487 264.822ZM247.487 264.822L208.474 7.45306L224.865 8.32257L247.487 264.822ZM191.542 6.43866L247.487 264.677L173.932 5.56915L191.542 6.43866ZM361.545 100.923V121.791L247.487 264.677L361.545 100.923ZM11.1078 466.109L247.487 264.822L5.82484 500.599L11.1078 466.109ZM247.487 264.822L23.2993 386.841L26.5504 365.683L247.487 264.822ZM247.487 264.822L15.7135 436.257L19.7773 410.172L247.487 264.822ZM247.487 264.822L361.545 256.707V248.447L247.487 264.822L361.545 240.187V231.637L247.487 264.822L361.545 203.668V193.089L247.487 264.822L361.545 181.641V169.178L247.487 264.822L361.545 155.411V139.76L247.487 264.822L65.8341 110.053L62.9893 128.312L247.487 264.822L60.4156 145.412L57.9774 161.643L247.487 264.822L50.9334 206.856L48.7659 221.348L247.487 264.822L32.3752 328.295L29.666 346.264L247.487 264.822L1.89648 538.856L34.0008 537.407L247.487 264.822L62.583 536.248L88.1851 535.089L247.487 264.822L111.349 534.074L132.887 533.205L247.487 264.822L152.935 532.335L171.9 531.466L247.487 264.822L189.916 530.596L207.255 529.872L247.487 264.822L224.188 529.147L240.85 528.423L247.487 264.822L257.24 527.698L273.631 526.973L247.487 264.822L361.545 407.708V389.739L247.487 264.822L361.545 347.858V336.41L247.487 264.822L361.545 325.976V316.122L247.487 264.822L361.545 306.847V298.008L247.487 264.822ZM361.545 272.937L247.623 264.822H361.545V272.937ZM247.487 264.822C247.623 264.822 247.623 264.822 247.487 264.822L361.545 281.198V289.603L247.487 264.822ZM247.623 264.822C247.487 264.822 247.487 264.822 247.623 264.822V264.822ZM247.487 264.822L34.949 311.34L37.3873 295.254L247.487 264.822ZM342.445 523.93L324.429 524.655L247.487 264.677L342.445 523.93ZM290.293 526.249L247.487 264.822L307.09 525.524L290.293 526.249ZM247.487 264.822L361.545 484.513V523.206H361.274L247.487 264.822ZM247.487 264.822L361.545 428.721V453.791L247.487 264.822ZM247.487 264.822L361.545 360.321V374.088L247.487 264.822Z" fill="url(#paint1_radial_236_78872)"/>
<defs>
<radialGradient id="paint0_radial_236_78872" cx="0" cy="0" r="1" gradientUnits="userSpaceOnUse" gradientTransform="translate(32.373 284.451) scale(648.327 693.575)">
<stop stop-color="#49C2FE"/>
<stop offset="1" stop-color="#3E5BE3"/>
</radialGradient>
<radialGradient id="paint1_radial_236_78872" cx="0" cy="0" r="1" gradientUnits="userSpaceOnUse" gradientTransform="translate(256.707 267.256) scale(278.643 298.089)">
<stop offset="0.4153" stop-color="white" stop-opacity="0"/>
<stop offset="0.6202" stop-color="#A8A5A6" stop-opacity="0.2283"/>
<stop offset="0.8829" stop-color="#3E383A" stop-opacity="0.5208"/>
<stop offset="1" stop-color="#130C0E" stop-opacity="0.6512"/>
</radialGradient>
</defs>
</svg>
