<svg width="403" height="562" viewBox="0 0 403 562" fill="none" xmlns="http://www.w3.org/2000/svg">
<path d="M403 1L332.784 561.762L82.7168 548.843L0.0737915 14.7452L403 1Z" fill="url(#paint0_radial_236_78122)"/>
<g opacity="0.7">
<path d="M73.912 293.704C72.5283 293.839 71.1446 292.897 70.893 291.416C70.6415 289.936 71.7736 288.187 73.1572 288.052C74.6667 287.783 76.0504 288.994 76.3019 290.475C76.5535 292.089 75.5472 293.57 73.912 293.704Z" fill="white"/>
<path d="M76.1756 303.259C76.0499 301.779 77.0562 300.433 78.4398 300.298C79.8235 300.164 81.0814 301.375 81.2072 302.855C81.333 304.335 80.3267 305.681 78.8172 305.816C77.4335 305.816 76.3014 304.874 76.1756 303.259Z" fill="white"/>
<path d="M67.4967 249.7C67.3709 248.22 68.503 246.874 69.7609 246.605C71.2703 246.336 72.654 247.547 72.9056 249.027C73.1571 250.642 72.0251 252.122 70.5156 252.257C69.0061 252.526 67.6225 251.315 67.4967 249.7Z" fill="white"/>
<path d="M67.4964 175.823C69.1317 175.554 70.6411 176.765 70.7669 178.379C71.0185 179.994 69.8864 181.609 68.3769 181.878C66.7417 182.147 65.358 181.071 65.1064 179.321C64.8548 177.572 65.8612 176.092 67.4964 175.823Z" fill="white"/>
<path d="M63.8484 208.522C63.5968 207.042 64.7289 205.427 66.1126 205.158C67.7478 204.889 69.1315 205.966 69.3831 207.715C69.6347 209.464 68.6284 210.81 67.1189 211.079C65.6094 211.348 64.1 210.272 63.8484 208.522Z" fill="white"/>
<path d="M84.478 356.95C84.2264 355.469 85.3585 353.72 86.7422 353.585C88.2517 353.316 89.6353 354.527 89.7611 356.142C89.8869 357.757 88.8806 359.237 87.3711 359.372C86.1133 359.506 84.7296 358.43 84.478 356.95Z" fill="white"/>
<path d="M95.2956 406.741C96.805 406.471 98.4403 407.817 98.6919 409.432C99.0692 411.181 97.8114 412.931 96.0503 413.2C94.4151 413.469 92.9056 412.392 92.654 410.643C92.4025 408.759 93.5345 407.01 95.2956 406.741Z" fill="white"/>
<path d="M91.0187 439.71C90.7672 437.691 92.025 435.807 93.9119 435.538C95.7987 435.269 97.5597 436.884 97.8113 438.902C97.9371 440.786 96.805 442.536 94.9182 442.805C93.0313 443.209 91.3961 441.863 91.0187 439.71Z" fill="white"/>
<path d="M91.2704 97.1008C91.522 98.8501 90.3899 100.33 88.7547 100.465C87.1194 100.734 85.7357 99.523 85.4841 97.7736C85.3584 96.0242 86.4905 94.544 87.9999 94.2748C89.6352 94.1403 91.0188 95.3514 91.2704 97.1008Z" fill="white"/>
<path d="M91.0187 401.088C89.2577 401.358 87.7482 399.877 87.6224 398.128C87.4966 396.379 88.6287 394.898 90.264 394.629C91.8992 394.36 93.4087 395.571 93.6603 397.321C94.0376 399.07 92.654 400.954 91.0187 401.088Z" fill="white"/>
<path d="M82.4654 347.397C81.0818 347.532 79.5723 346.186 79.4465 344.706C79.3207 343.091 80.4528 341.745 81.9623 341.476C83.4717 341.342 84.7296 342.418 84.9812 344.167C84.9812 345.782 83.8491 347.263 82.4654 347.397Z" fill="white"/>
<path d="M95.6732 451.955C95.4216 449.936 96.6795 448.052 98.5663 447.649C100.579 447.245 102.214 448.59 102.592 450.744C102.843 452.762 101.585 454.646 99.6984 455.05C97.8116 455.453 96.0506 453.973 95.6732 451.955Z" fill="white"/>
<path d="M66.7417 74.7626C68.7543 74.4935 70.6412 75.8392 71.0185 77.9923C71.2701 80.0108 69.8864 82.1639 67.9996 82.5676C65.987 82.9713 64.1002 81.3564 63.8486 79.2034C63.3454 76.9157 64.6033 75.0318 66.7417 74.7626Z" fill="white"/>
<path d="M80.201 102.484C80.4526 104.368 79.1947 105.983 77.5595 106.252C75.7984 106.521 74.0374 105.041 73.9116 103.157C73.7858 101.273 75.0437 99.7927 76.8047 99.5236C78.5658 99.2544 79.9494 100.466 80.201 102.484Z" fill="white"/>
<path d="M75.4211 90.1029C75.6727 92.1214 74.289 94.0053 72.4022 94.2745C70.6412 94.5436 69.0059 93.1979 68.6286 91.314C68.2512 89.1609 69.3833 87.4115 71.3959 87.0078C73.4085 86.7387 75.1695 88.0844 75.4211 90.1029Z" fill="white"/>
<path d="M54.7918 155.1C54.5403 153.081 55.9239 151.198 57.9365 151.063C59.8234 150.928 61.3328 152.274 61.4586 154.293C61.5844 156.177 60.3265 158.06 58.5655 158.195C56.9302 158.464 55.0434 156.984 54.7918 155.1Z" fill="white"/>
<path d="M84.9811 114.325C85.2327 115.94 84.2264 117.689 82.5912 117.958C80.9559 118.227 79.5722 117.151 79.1949 115.401C78.9433 113.652 79.9496 112.172 81.4591 111.768C83.2201 111.634 84.7296 112.71 84.9811 114.325Z" fill="white"/>
<path d="M82.7166 82.0289C84.4776 81.6252 86.2387 82.9709 86.4903 84.8548C86.7418 86.7387 85.6097 88.3536 83.8487 88.6227C82.0877 88.8918 80.5782 87.8153 80.2008 85.9313C79.9493 84.0474 81.0813 82.298 82.7166 82.0289Z" fill="white"/>
<path d="M64.6034 95.4869C64.9808 97.7745 63.7229 99.6584 61.5845 99.9276C59.5719 100.331 57.685 98.851 57.3077 96.698C57.0561 94.6795 58.4398 92.5264 60.3266 92.1227C62.3392 91.719 64.3518 93.3338 64.6034 95.4869Z" fill="white"/>
<path d="M50.7667 113.922C50.3893 111.769 51.8988 109.481 54.0372 109.347C56.0498 109.078 57.8108 110.558 58.0624 112.846C58.314 115.133 57.0561 116.883 54.9177 117.286C52.9051 117.421 51.0183 116.075 50.7667 113.922Z" fill="white"/>
<path d="M59.0685 121.592C60.9554 121.323 62.7164 122.803 62.968 124.822C63.2196 126.84 61.8359 128.724 59.9491 128.993C57.9365 129.263 56.3012 127.917 56.0496 125.764C55.7981 123.745 57.0559 121.861 59.0685 121.592Z" fill="white"/>
<path d="M52.1502 84.4523C51.8986 82.1646 53.4081 80.1461 55.4207 79.7424C57.5591 79.3387 59.6975 81.2227 59.9491 83.3757C60.2006 85.6634 58.5654 87.8165 56.3012 88.0856C54.1628 88.3547 52.4017 86.7399 52.1502 84.4523Z" fill="white"/>
<path d="M59.8231 167.21C59.5716 165.461 60.7037 163.711 62.4647 163.442C64.2257 163.173 65.7352 164.25 65.9868 166.134C66.2383 168.018 65.232 169.632 63.5968 170.036C61.8357 170.44 60.0747 169.094 59.8231 167.21Z" fill="white"/>
<path d="M86.6163 123.879C88 123.745 89.2579 124.956 89.3837 126.436C89.5095 127.916 88.5031 129.262 87.1195 129.397C85.7358 129.531 84.4779 128.589 84.2263 127.109C84.1006 125.494 85.1069 124.014 86.6163 123.879Z" fill="white"/>
<path d="M102.969 131.685C103.975 131.55 104.856 132.357 104.982 133.434C105.107 134.511 104.478 135.452 103.472 135.722C102.34 135.991 101.334 135.049 101.208 133.972C101.208 132.896 102.088 131.819 102.969 131.685Z" fill="white"/>
<path d="M106.617 204.216C106.239 204.754 105.988 205.293 105.61 205.293C105.233 205.293 104.73 205.024 104.478 204.754C104.227 204.351 104.73 203.409 105.233 203.543C105.736 203.543 105.988 203.812 106.617 204.216Z" fill="white"/>
<path d="M110.139 216.059C110.264 216.059 110.516 216.328 110.893 216.462C110.642 216.731 110.516 217.135 110.264 217.135C110.139 217.135 109.887 216.866 109.635 216.731C109.761 216.462 109.887 216.059 110.139 216.059Z" fill="white"/>
<path d="M107.623 274.326C107.875 274.595 108.252 274.864 108.252 275.134C108.252 275.403 108 275.672 107.623 276.21C107.246 275.672 106.868 275.403 106.994 275.134C106.994 274.73 107.371 274.461 107.623 274.326Z" fill="white"/>
<path d="M107.245 304.2C107.371 304.873 106.868 305.681 106.239 305.815C105.61 305.95 104.856 305.277 104.856 304.604C104.856 303.931 105.107 303.393 105.862 303.258C106.491 302.855 107.12 303.393 107.245 304.2Z" fill="white"/>
<path d="M92.6543 167.749C92.78 168.825 92.0253 170.036 91.019 170.305C89.8869 170.574 88.629 169.632 88.5032 168.421C88.3774 167.21 89.0064 166.134 90.1385 165.865C91.3964 165.595 92.5285 166.537 92.6543 167.749Z" fill="white"/>
<path d="M91.6479 136.395C92.9058 136.26 94.0379 137.202 94.1637 138.682C94.2895 140.028 93.2832 141.239 92.0253 141.374C90.7674 141.508 89.7611 140.566 89.6353 139.22C89.3837 137.74 90.2642 136.529 91.6479 136.395Z" fill="white"/>
<path d="M96.5534 148.775C97.5597 148.641 98.6918 149.448 98.8176 150.659C98.9434 151.87 98.1887 152.812 97.0566 152.947C96.0503 153.082 95.1698 152.409 95.044 151.332C94.7924 150.121 95.5471 148.91 96.5534 148.775Z" fill="white"/>
<path d="M97.8112 119.17C98.9433 119.035 100.201 119.843 100.453 121.054C100.704 122.4 99.8238 123.745 98.4401 123.88C97.1823 124.014 96.176 123.207 96.0502 121.861C95.7986 120.65 96.6791 119.439 97.8112 119.17Z" fill="white"/>
<path d="M97.0569 179.86C97.1827 180.802 96.5537 181.744 95.799 182.013C94.7927 182.282 93.7864 181.609 93.5348 180.667C93.2832 179.591 93.9122 178.514 94.9185 178.38C95.9248 178.11 96.9311 178.918 97.0569 179.86Z" fill="white"/>
<path d="M115.422 386.959C115.548 388.17 114.793 389.112 113.661 389.381C112.403 389.516 111.271 388.574 111.271 387.363C111.145 386.286 112.026 385.075 113.158 384.941C114.164 384.671 115.296 385.613 115.422 386.959Z" fill="white"/>
<path d="M119.447 428.406C119.699 430.021 118.567 431.501 117.057 431.635C115.673 431.77 114.416 430.693 114.164 429.213C113.912 427.733 114.919 426.253 116.302 425.984C117.812 425.714 119.195 426.791 119.447 428.406Z" fill="white"/>
<path d="M121.334 437.691C122.843 437.422 124.227 438.364 124.478 440.113C124.73 441.728 123.724 443.208 122.34 443.477C120.956 443.746 119.447 442.535 119.195 441.055C118.818 439.575 119.824 437.96 121.334 437.691Z" fill="white"/>
<path d="M115.925 327.75C116.302 327.75 116.68 328.154 117.309 328.423C116.805 328.961 116.428 329.499 116.177 329.365C115.799 329.365 115.548 328.827 115.296 328.423C115.296 328.288 115.673 327.75 115.925 327.75Z" fill="white"/>
<path d="M112.403 458.28C112.277 456.396 113.535 454.916 115.296 454.647C117.057 454.377 118.566 455.723 118.692 457.607C118.944 459.491 117.686 461.106 116.051 461.375C114.164 461.779 112.529 460.298 112.403 458.28Z" fill="white"/>
<path d="M109.887 479.138C108 479.542 105.987 477.927 105.736 475.774C105.484 473.621 106.742 471.737 108.88 471.468C110.893 471.199 112.78 472.814 112.906 474.832C113.031 476.716 111.648 478.735 109.887 479.138Z" fill="white"/>
<path d="M112.151 186.857C112.151 187.127 111.9 187.261 111.774 187.53C111.522 187.396 111.271 187.261 111.271 186.992C111.271 186.857 111.522 186.588 111.648 186.185C111.9 186.454 112.151 186.723 112.151 186.857Z" fill="white"/>
<path d="M113.032 287.11C112.78 287.379 112.655 287.783 112.403 287.783C112.151 287.783 112.026 287.514 111.774 287.379C111.9 287.11 112.026 286.841 112.277 286.841C112.403 286.572 112.655 286.841 113.032 287.11Z" fill="white"/>
<path d="M112.529 316.042C112.025 316.715 111.648 317.253 111.271 317.522C111.019 317.657 110.39 317.119 110.264 316.849C110.139 316.58 110.516 315.773 110.768 315.638C111.145 315.504 111.648 315.773 112.529 316.042Z" fill="white"/>
<path d="M114.29 356.277C115.044 356.143 115.799 356.681 116.051 357.489C116.302 358.296 115.673 359.372 114.793 359.507C114.038 359.642 113.283 359.103 113.032 358.296C112.906 357.354 113.409 356.412 114.29 356.277Z" fill="white"/>
<path d="M100.705 463.528C100.453 461.51 101.837 459.626 103.724 459.357C105.61 459.088 107.623 460.568 107.875 462.721C108.126 464.874 106.617 466.758 104.604 466.893C102.592 467.162 100.831 465.681 100.705 463.528Z" fill="white"/>
<path d="M101.333 161.29C102.088 161.155 103.095 161.828 103.22 162.77C103.346 163.712 102.717 164.519 101.837 164.654C100.956 164.788 100.327 164.25 100.201 163.443C99.9498 162.501 100.453 161.559 101.333 161.29Z" fill="white"/>
<path d="M88.8804 423.561C90.7673 423.157 92.5283 424.503 92.9057 426.521C93.1573 428.54 91.7736 430.424 90.0125 430.693C88.2515 430.962 86.6163 429.616 86.2389 427.732C85.7357 425.714 86.8678 423.965 88.8804 423.561Z" fill="white"/>
<path d="M81.0814 415.488C80.8298 413.469 82.2135 411.585 84.1003 411.451C85.8614 411.316 87.4966 412.662 87.874 414.546C88.2514 416.564 86.8677 418.448 84.9809 418.717C82.8424 418.852 81.333 417.641 81.0814 415.488Z" fill="white"/>
<path d="M85.4843 382.518C87.1195 382.249 88.7548 383.594 88.8806 385.478C89.0064 387.228 88 388.708 86.239 388.977C84.478 389.246 82.8427 387.9 82.7169 386.016C82.7169 384.402 83.9748 382.652 85.4843 382.518Z" fill="white"/>
<path d="M84.352 456.934C84.1004 454.646 85.6099 452.628 87.6225 452.358C89.7609 452.089 91.6477 453.704 91.8993 455.857C92.1509 458.145 90.6414 460.163 88.6288 460.432C86.4904 460.702 84.6036 459.221 84.352 456.934Z" fill="white"/>
<path d="M77.8111 374.175C77.5595 372.426 78.8174 370.677 80.5784 370.542C82.3395 370.273 83.7231 371.619 83.9747 373.503C84.1005 375.387 82.8426 377.001 81.2074 377.136C79.5721 377.001 78.0627 375.79 77.8111 374.175Z" fill="white"/>
<path d="M89.1322 469.179C88.8806 466.892 90.2643 464.873 92.2769 464.47C94.4153 464.066 96.3021 465.546 96.8052 467.834C97.1826 469.987 95.5474 472.409 93.409 472.813C91.3963 472.947 89.3837 471.333 89.1322 469.179Z" fill="white"/>
<path d="M108.378 509.146C106.114 509.55 104.101 507.935 103.724 505.647C103.346 503.36 104.856 501.072 106.994 500.668C109.258 500.265 111.271 501.879 111.648 504.302C112.026 506.589 110.642 508.742 108.378 509.146Z" fill="white"/>
<path d="M110.265 487.884C110.013 485.731 111.523 483.713 113.535 483.443C115.548 483.174 117.309 484.789 117.56 486.942C117.812 489.23 116.428 490.979 114.416 491.248C112.403 491.517 110.516 489.903 110.265 487.884Z" fill="white"/>
<path d="M94.0379 481.291C93.6605 478.869 95.2957 476.716 97.4341 476.446C99.4468 476.177 101.459 477.927 101.837 479.945C102.214 482.233 100.579 484.386 98.4404 484.79C96.302 485.059 94.4152 483.578 94.0379 481.291Z" fill="white"/>
<path d="M99.0695 493.536C98.6922 491.114 100.076 488.961 102.34 488.557C104.604 488.153 106.617 489.768 106.994 492.056C107.372 494.343 105.736 496.631 103.598 496.9C101.46 497.304 99.4469 495.689 99.0695 493.536Z" fill="white"/>
<path d="M72.7797 362.199C72.5281 360.315 73.786 358.835 75.547 358.566C77.308 358.296 78.6917 359.508 78.9433 361.526C79.1949 363.41 77.937 365.025 76.1759 365.294C74.5407 365.428 72.9054 364.083 72.7797 362.199Z" fill="white"/>
<path d="M76.9302 329.23C78.4397 328.961 80.0749 330.172 80.3265 331.787C80.5781 333.536 79.3202 335.016 77.6849 335.151C76.1755 335.285 74.9176 334.209 74.666 332.594C74.5402 330.979 75.4208 329.499 76.9302 329.23Z" fill="white"/>
<path d="M61.2069 192.778C62.8421 192.508 64.4773 193.854 64.7289 195.603C64.9805 197.218 63.8484 198.833 62.2131 199.237C60.4521 199.64 58.9427 198.429 58.6911 196.545C58.4395 194.661 59.5716 193.047 61.2069 192.778Z" fill="white"/>
<path d="M53.4079 184.839C53.0305 182.955 54.4142 181.071 56.1752 180.802C58.0621 180.533 59.6973 181.878 59.9489 183.762C60.2005 185.646 58.8168 187.53 57.0558 187.665C55.2947 187.934 53.7852 186.588 53.4079 184.839Z" fill="white"/>
<path d="M57.4335 226.016C57.182 224.402 58.4399 222.652 59.9493 222.249C61.5846 221.845 63.2198 223.191 63.4714 225.075C63.723 226.824 62.7167 228.439 61.0814 228.708C59.3204 229.112 57.6851 227.9 57.4335 226.016Z" fill="white"/>
<path d="M115.296 499.995C115.044 497.842 116.428 495.958 118.441 495.555C120.579 495.285 122.214 496.631 122.592 498.784C122.969 500.937 121.585 502.956 119.573 503.36C117.56 503.763 115.548 502.148 115.296 499.995Z" fill="white"/>
<path d="M48.5024 172.458C48.2508 170.44 49.6345 168.556 51.6471 168.421C53.4081 168.287 55.0434 169.632 55.4207 171.516C55.6723 173.535 54.4144 175.419 52.4018 175.688C50.3892 175.957 48.754 174.611 48.5024 172.458Z" fill="white"/>
<path d="M52.7792 139.085C54.6661 138.816 56.4271 140.296 56.8045 142.315C57.1818 144.333 55.6724 146.487 53.6598 146.756C51.7729 147.025 50.0119 145.679 49.7603 143.661C49.383 141.373 50.7666 139.354 52.7792 139.085Z" fill="white"/>
<path d="M66.1128 279.036C65.987 277.422 66.9933 276.076 68.5028 275.807C70.0123 275.538 71.3959 276.614 71.6475 278.229C71.8991 279.844 70.767 281.593 69.2575 281.728C67.7481 281.997 66.2386 280.786 66.1128 279.036Z" fill="white"/>
<path d="M64.729 234.359C66.3642 234.09 67.7479 235.167 67.8737 237.051C67.9995 238.665 66.9932 240.146 65.6095 240.415C64.1 240.684 62.4648 239.473 62.2132 237.858C61.9616 236.243 63.0937 234.628 64.729 234.359Z" fill="white"/>
<path d="M44.4774 131.28C44.2258 128.993 45.6095 126.974 47.8737 126.84C49.8863 126.705 51.6473 128.185 51.8989 130.338C52.1505 132.626 50.641 134.644 48.5026 134.914C46.49 134.914 44.729 133.433 44.4774 131.28Z" fill="white"/>
<path d="M64.3519 270.154C62.7166 270.424 61.2071 269.212 60.9556 267.598C60.704 265.848 61.8361 264.233 63.3456 263.964C64.9808 263.695 66.4903 264.906 66.7418 266.521C67.1192 268.136 65.9871 269.885 64.3519 270.154Z" fill="white"/>
<path d="M120.328 398.801C120.579 400.012 119.699 401.358 118.567 401.492C117.434 401.627 116.177 400.55 116.177 399.339C116.051 398.128 116.931 397.052 118.063 396.917C119.196 396.782 120.202 397.59 120.328 398.801Z" fill="white"/>
<path d="M109.258 114.325C110.265 114.191 111.271 114.998 111.397 116.075C111.522 117.017 110.642 118.228 109.761 118.362C108.755 118.497 107.875 117.689 107.749 116.613C107.497 115.402 108.252 114.46 109.258 114.325Z" fill="white"/>
<path d="M110.516 84.7206C111.774 84.5861 112.906 85.3935 113.032 86.7391C113.158 87.9502 112.403 89.2959 111.271 89.565C110.013 89.8342 108.755 88.8922 108.629 87.412C108.378 85.9317 109.133 84.8552 110.516 84.7206Z" fill="white"/>
<path d="M113.284 158.598C112.906 158.732 112.403 158.329 112.151 158.06C111.774 157.656 112.277 156.714 112.78 156.714C113.158 156.714 113.535 157.118 114.164 157.387C113.787 157.925 113.535 158.463 113.284 158.598Z" fill="white"/>
<path d="M115.548 97.1C116.554 96.9654 117.435 97.6383 117.561 98.8494C117.686 99.9259 116.932 101.002 115.925 101.137C115.045 101.272 113.913 100.33 113.787 99.3876C113.787 98.3111 114.542 97.2346 115.548 97.1Z" fill="white"/>
<path d="M108 143.93C108.755 143.796 109.51 144.469 109.636 145.276C109.761 146.083 109.258 146.891 108.503 147.025C107.749 147.16 106.994 146.622 106.742 145.814C106.491 145.007 107.12 144.065 108 143.93Z" fill="white"/>
<path d="M114.29 126.84C115.044 126.706 115.799 127.379 115.799 128.186C115.925 128.994 115.17 129.666 114.415 129.666C113.661 129.666 113.158 129.128 113.158 128.321C113.158 127.648 113.535 127.11 114.29 126.84Z" fill="white"/>
<path d="M94.2895 77.1849C95.9247 76.9158 97.3084 78.1269 97.56 79.8762C97.8115 81.6256 96.6795 83.1059 95.0442 83.375C93.409 83.6441 92.0253 82.5676 91.7737 80.6837C91.6479 78.9343 92.6542 77.3195 94.2895 77.1849Z" fill="white"/>
<path d="M99.4468 89.2959C100.956 89.1614 102.088 90.1033 102.214 91.7181C102.34 93.1984 101.459 94.544 100.076 94.8132C98.5663 94.9477 97.1826 93.7366 97.1826 92.2564C97.0568 90.6416 98.0631 89.4305 99.4468 89.2959Z" fill="white"/>
<path d="M104.227 101.81C105.485 101.676 106.491 102.483 106.617 103.829C106.742 105.175 105.988 106.251 104.856 106.52C103.598 106.655 102.34 105.578 102.214 104.233C102.088 103.156 102.969 101.945 104.227 101.81Z" fill="white"/>
<path d="M107.749 174.88C107.874 175.553 107.497 176.361 106.742 176.361C106.113 176.495 105.61 176.092 105.484 175.419C105.359 174.746 105.61 174.208 106.239 173.939C106.994 173.669 107.623 174.073 107.749 174.88Z" fill="white"/>
<path d="M136.177 473.755C137.812 473.486 139.322 474.697 139.447 476.447C139.699 478.196 138.567 479.811 136.932 480.08C135.296 480.349 133.787 479.138 133.535 477.389C133.41 475.639 134.542 474.024 136.177 473.755Z" fill="white"/>
<path d="M134.416 464.471C134.542 466.085 133.535 467.566 132.152 467.835C130.516 468.104 129.133 467.027 128.881 465.278C128.63 463.529 129.636 462.183 131.145 461.914C132.781 461.51 134.164 462.721 134.416 464.471Z" fill="white"/>
<path d="M124.478 515.605C122.34 515.874 120.453 514.26 120.202 512.107C119.95 509.819 121.334 507.8 123.472 507.531C125.611 507.262 127.497 508.877 127.749 511.03C128.126 513.318 126.617 515.336 124.478 515.605Z" fill="white"/>
<path d="M95.6729 109.211C95.7987 110.826 94.9182 112.037 93.5345 112.172C92.025 112.441 90.6414 111.23 90.5156 109.615C90.3898 108.135 91.5219 106.789 92.9056 106.654C94.2892 106.654 95.4213 107.731 95.6729 109.211Z" fill="white"/>
<path d="M126.869 494.479C126.743 492.595 128.127 490.711 129.762 490.442C131.649 490.173 133.41 491.653 133.535 493.671C133.787 495.69 132.529 497.305 130.642 497.574C128.881 497.978 127.12 496.497 126.869 494.479Z" fill="white"/>
<path d="M135.925 509.82C134.038 510.223 132.152 508.743 131.9 506.724C131.523 504.706 132.781 502.822 134.793 502.418C136.806 502.015 138.441 503.36 138.818 505.379C139.07 507.666 137.812 509.55 135.925 509.82Z" fill="white"/>
<path d="M141.334 485.462C142.97 485.328 144.353 486.404 144.605 488.154C144.856 490.038 143.599 491.787 141.963 491.922C140.454 492.056 138.819 490.711 138.567 489.096C138.315 487.346 139.573 485.732 141.334 485.462Z" fill="white"/>
<path d="M119.447 368.388C120.202 368.254 120.957 368.927 121.082 369.734C121.208 370.541 120.705 371.349 119.95 371.483C119.195 371.618 118.441 371.08 118.189 370.407C117.938 369.465 118.567 368.523 119.447 368.388Z" fill="white"/>
<path d="M129.51 452.224C129.762 453.974 128.756 455.319 127.246 455.589C125.611 455.858 124.101 454.647 123.976 452.897C123.85 451.417 125.108 449.802 126.491 449.668C128.001 449.533 129.385 450.61 129.51 452.224Z" fill="white"/>
<path d="M121.46 340.667C121.46 340.802 121.208 341.071 120.957 341.609C120.705 341.205 120.328 341.071 120.328 340.802C120.328 340.667 120.579 340.398 120.705 340.129C120.957 340.263 121.334 340.398 121.46 340.667Z" fill="white"/>
<path d="M122.592 409.028C123.598 408.759 124.982 409.567 125.233 410.778C125.485 411.989 124.604 413.335 123.472 413.469C122.34 413.738 121.334 413.065 121.082 411.854C120.705 410.643 121.46 409.432 122.592 409.028Z" fill="white"/>
<path d="M72.6536 323.309C71.1441 323.443 69.8863 322.367 69.6347 320.752C69.3831 319.003 70.3894 317.522 72.0247 317.253C73.6599 316.984 75.1694 318.195 75.2952 319.945C75.4209 321.425 74.2888 323.04 72.6536 323.309Z" fill="white"/>
<path d="M169.385 532.157C169.133 530.273 170.265 528.658 172.026 528.389C173.787 528.12 175.297 529.331 175.549 531.08C175.8 532.964 174.542 534.848 172.781 534.983C171.146 535.386 169.636 534.041 169.385 532.157Z" fill="white"/>
<path d="M59.3203 29.6826C56.9303 30.0863 54.6661 28.2023 54.4145 25.6455C54.0371 23.0888 55.7982 20.6665 58.1882 20.3974C60.5781 20.1283 62.8423 21.8776 63.0939 24.4344C63.4713 26.9912 61.836 29.4134 59.3203 29.6826Z" fill="white"/>
<path d="M86.4906 30.7593C84.3522 31.0284 82.4654 29.279 82.3396 27.126C82.2138 24.8383 83.7232 22.9544 85.8617 22.6852C87.8743 22.5507 89.6353 24.0309 89.8869 26.184C90.1385 28.6062 88.7548 30.4901 86.4906 30.7593Z" fill="white"/>
<path d="M157.435 492.729C158.819 492.594 160.328 493.94 160.454 495.42C160.58 497.035 159.448 498.381 157.938 498.65C156.429 498.785 155.171 497.708 154.919 495.959C154.794 494.344 156.051 492.864 157.435 492.729Z" fill="white"/>
<path d="M152.907 486.404C151.523 486.539 150.265 485.462 150.014 483.982C149.762 482.367 151.02 480.887 152.53 480.752C153.913 480.618 155.171 481.829 155.297 483.309C155.423 484.924 154.417 486.27 152.907 486.404Z" fill="white"/>
<path d="M176.807 472.409C177.058 473.217 176.429 474.293 175.549 474.428C174.794 474.562 174.039 474.024 173.788 473.217C173.536 472.275 174.039 471.333 175.046 471.198C175.8 471.198 176.555 471.602 176.807 472.409Z" fill="white"/>
<path d="M174.794 12.7268C175.297 12.7268 175.675 13.2651 176.303 13.6688C175.8 14.3416 175.675 14.8799 175.171 15.149C174.542 15.5527 173.788 15.0145 173.662 14.2071C173.536 13.5342 174.165 12.5923 174.794 12.7268Z" fill="white"/>
<path d="M178.945 517.085C177.561 517.22 176.303 516.143 176.052 514.663C175.8 513.048 177.058 511.568 178.568 511.568C179.951 511.433 181.209 512.644 181.335 514.125C181.461 515.605 180.454 516.816 178.945 517.085Z" fill="white"/>
<path d="M178.064 547.363C176.303 547.767 174.291 546.152 174.165 544.268C173.913 542.384 175.297 540.634 177.058 540.365C178.945 540.096 180.454 541.307 180.706 543.326C181.083 545.21 179.826 547.094 178.064 547.363Z" fill="white"/>
<path d="M176.555 502.149C176.681 503.494 175.675 504.705 174.417 504.975C173.033 505.244 171.901 504.302 171.649 502.956C171.398 501.476 172.278 499.996 173.662 499.861C175.046 499.592 176.429 500.803 176.555 502.149Z" fill="white"/>
<path d="M178.693 485.194C178.568 484.252 179.197 483.31 179.951 483.175C180.958 482.906 181.838 483.713 182.09 484.79C182.215 485.732 181.712 486.539 180.706 486.809C179.7 486.943 178.819 486.27 178.693 485.194Z" fill="white"/>
<path d="M150.517 471.197C150.643 472.678 149.51 474.023 148.253 474.158C146.869 474.292 145.611 473.081 145.611 471.601C145.485 470.121 146.366 469.044 147.749 468.775C149.007 468.64 150.391 469.717 150.517 471.197Z" fill="white"/>
<path d="M145.233 400.954C145.359 400.685 145.485 400.416 145.736 400.416C145.862 400.416 146.114 400.685 146.491 400.82C146.24 401.089 146.114 401.493 145.862 401.493C145.611 401.493 145.359 401.089 145.233 400.954Z" fill="white"/>
<path d="M77.6855 200.18C79.0692 200.045 80.0755 200.852 80.3271 202.333C80.5786 203.813 79.5723 205.293 78.1887 205.428C77.0566 205.562 75.6729 204.486 75.4213 203.275C75.2955 201.794 76.3018 200.314 77.6855 200.18Z" fill="white"/>
<path d="M108.378 245.798C108.378 245.663 108.629 245.394 108.755 244.99C109.007 245.259 109.384 245.529 109.384 245.663C109.384 245.798 109.132 246.201 109.007 246.201C108.755 246.336 108.378 246.067 108.378 245.798Z" fill="white"/>
<path d="M101.459 363.544C101.208 362.198 101.962 361.122 103.22 360.853C104.478 360.718 105.61 361.66 105.61 362.871C105.736 364.082 104.604 365.428 103.598 365.428C102.591 365.563 101.585 364.755 101.459 363.544Z" fill="white"/>
<path d="M109.635 404.184C109.887 405.798 108.881 407.009 107.497 407.279C106.113 407.548 104.73 406.606 104.478 405.126C104.226 403.511 105.233 402.03 106.742 401.761C108.126 401.627 109.384 402.703 109.635 404.184Z" fill="white"/>
<path d="M78.8173 231.937C79.0689 233.417 78.0625 234.898 76.6789 235.032C75.5468 235.167 74.1631 234.09 73.9115 232.745C73.66 231.264 74.6663 229.919 76.1757 229.784C77.5594 229.649 78.6915 230.457 78.8173 231.937Z" fill="white"/>
<path d="M124.731 478.465C126.617 478.196 128.127 479.407 128.504 481.291C128.756 483.175 127.624 485.059 125.863 485.463C124.102 485.866 122.089 484.386 121.837 482.368C121.712 480.618 122.969 478.869 124.731 478.465Z" fill="white"/>
<path d="M127.749 421.139C128.881 420.87 130.139 421.677 130.391 422.888C130.642 423.965 129.762 425.445 128.63 425.714C127.497 425.983 126.365 425.176 126.114 423.83C125.736 422.619 126.491 421.408 127.749 421.139Z" fill="white"/>
<path d="M125.359 352.778C125.485 352.509 125.611 352.24 125.862 352.24C125.988 352.24 126.24 352.509 126.617 352.644C126.365 352.913 126.24 353.317 125.988 353.317C125.736 353.317 125.485 352.913 125.359 352.778Z" fill="white"/>
<path d="M117.435 470.795C117.183 468.911 118.315 467.027 120.202 466.758C121.963 466.489 123.724 467.834 123.85 469.718C124.101 471.602 122.969 473.217 121.208 473.486C119.321 473.89 117.686 472.679 117.435 470.795Z" fill="white"/>
<path d="M195.046 492.056C194.92 491.249 195.423 490.441 196.178 490.307C196.807 490.172 197.436 490.71 197.562 491.518C197.688 492.325 197.31 492.864 196.556 492.998C195.927 493.133 195.298 492.729 195.046 492.056Z" fill="white"/>
<path d="M40.7036 203.678C40.9552 203.543 41.3325 203.678 41.4583 203.947C42.7162 205.293 43.0936 206.638 42.3388 208.388C42.213 208.791 41.8357 208.926 41.5841 209.33C41.3325 208.926 41.0809 208.657 40.9552 208.253C40.8294 207.715 40.8294 207.177 40.7036 206.773C40.5778 206.1 40.452 205.293 40.452 204.62C40.452 204.216 40.5778 203.812 40.7036 203.678Z" fill="white"/>
<path d="M55.4207 309.852C56.9302 309.583 58.5654 310.525 59.0686 312.14C59.5717 313.755 59.0686 315.639 57.6849 316.446C55.9239 317.523 54.5402 316.984 54.2886 314.831C54.2886 314.562 54.1628 314.158 54.1628 313.889C54.0371 313.216 54.0371 312.678 53.9113 312.005C53.9113 310.794 54.4144 310.121 55.4207 309.852Z" fill="white"/>
<path d="M72.528 416.564C74.5406 416.295 76.4274 417.641 76.679 419.794C77.0564 421.947 75.5469 424.1 73.5343 424.504C71.3959 424.773 69.5091 423.293 69.3833 420.871C69.1317 418.583 70.5154 416.834 72.528 416.564Z" fill="white"/>
<path d="M59.949 351.164C61.4585 351.164 62.9679 352.375 63.2195 353.99C63.4711 355.47 62.8421 357.22 61.5843 357.892C60.5779 358.431 59.949 358.296 59.6974 356.95C59.5716 356.278 59.5716 355.47 59.4459 354.797C59.4459 354.797 59.4459 354.797 59.5716 354.797C59.4459 353.721 59.3201 352.779 59.1943 351.702C59.1943 351.568 59.6974 351.164 59.949 351.164Z" fill="white"/>
<path d="M34.5398 153.485C34.414 153.485 34.2882 153.619 34.1624 153.619C34.0367 152.946 34.0366 152.273 33.9109 151.601C34.0366 151.601 34.0367 151.601 34.1624 151.601C34.2882 152.273 34.414 152.946 34.5398 153.485Z" fill="white"/>
<path d="M36.6782 131.551C38.9424 131.282 40.8292 132.896 41.0808 135.453C41.3323 137.741 39.8229 139.759 37.6845 140.028C35.5461 140.298 33.4077 138.548 33.1561 136.261C32.7787 133.973 34.414 131.82 36.6782 131.551Z" fill="white"/>
<path d="M70.2639 439.844C70.0123 438.094 69.5092 437.018 70.1381 435.807C70.8928 436.883 71.1444 437.96 70.2639 439.844Z" fill="white"/>
<path d="M93.0316 13.3994C91.2705 13.6685 89.5095 12.5919 88.8806 10.9771L96.1763 10.708C95.6731 12.0537 94.541 13.1302 93.0316 13.3994Z" fill="white"/>
<path d="M83.9748 539.424C86.2389 539.29 88.3773 541.308 88.6289 544C88.8805 546.153 88 548.037 86.3647 549.113L83.9748 548.979C83.9748 548.979 83.9748 548.979 83.9748 548.844C83.5974 546.153 83.22 543.327 82.9684 540.501C82.8427 539.693 83.3458 539.424 83.9748 539.424Z" fill="white"/>
<path d="M25.9863 78.6659C27.4958 77.5894 29.6342 77.4548 31.1436 78.5314C32.7789 79.6079 33.5336 81.8955 33.0305 83.914C32.5273 85.798 30.7663 87.2782 29.0052 87.4128C26.8668 87.5474 25.6089 86.4708 25.2316 84.3177C25.2316 83.914 25.1058 83.5103 25.1058 83.1066C24.98 82.4338 24.98 81.8955 24.8542 81.2227C24.6026 80.1462 25.2316 79.3388 25.9863 78.6659Z" fill="white"/>
<path d="M181.083 526.505C180.958 524.891 182.09 523.41 183.599 523.276C184.983 523.141 186.492 524.352 186.618 525.967C186.744 527.717 185.612 529.197 183.977 529.331C182.341 529.466 181.209 528.255 181.083 526.505Z" fill="white"/>
<path d="M192.152 508.877C192.404 510.222 191.649 511.299 190.391 511.568C189.259 511.703 188.001 510.761 188.001 509.55C187.876 508.473 188.756 507.262 189.763 506.993C190.769 506.589 192.027 507.531 192.152 508.877Z" fill="white"/>
<path d="M185.863 538.751C185.738 537.002 186.87 535.522 188.505 535.252C190.14 535.118 191.524 536.329 191.775 538.078C191.901 539.828 190.769 541.308 189.134 541.577C187.499 541.846 185.989 540.5 185.863 538.751Z" fill="white"/>
<path d="M186.493 468.372C186.367 468.372 186.115 468.103 185.989 467.834C186.241 467.565 186.367 467.296 186.618 467.161C186.744 467.161 186.996 467.43 187.373 467.699C187.121 468.103 186.87 468.372 186.493 468.372Z" fill="white"/>
<path d="M106.994 547.094C106.616 544.403 108.126 541.846 110.642 541.443C113.032 541.039 115.547 542.788 115.925 545.48C116.302 547.633 115.296 549.651 113.535 550.593L108.755 550.324C107.874 549.517 107.245 548.44 106.994 547.094Z" fill="white"/>
<path d="M186.996 496.766C187.121 497.708 186.492 498.784 185.486 499.054C184.354 499.323 183.348 498.65 183.222 497.439C183.096 496.362 183.599 495.42 184.606 495.151C185.612 494.747 186.87 495.689 186.996 496.766Z" fill="white"/>
<path d="M186.366 9.09294C186.115 8.95838 185.863 8.68924 185.612 8.55467C185.737 8.28554 185.863 7.88184 186.115 7.88184C186.366 7.88184 186.744 8.15097 187.121 8.28554C186.744 8.82381 186.492 9.22751 186.366 9.09294Z" fill="white"/>
<path d="M195.549 523.411C194.291 523.68 193.033 522.872 192.782 521.392C192.53 520.046 193.411 518.701 194.668 518.432C195.926 518.162 197.184 519.104 197.31 520.585C197.562 521.93 196.807 523.141 195.549 523.411Z" fill="white"/>
<path d="M99.9499 292.762C99.8241 291.955 100.327 291.147 101.208 291.013C101.963 291.013 102.466 291.282 102.717 292.089C102.969 292.897 102.466 293.704 101.711 293.973C100.956 294.242 100.201 293.704 99.9499 292.762Z" fill="white"/>
<path d="M194.04 553.957C192.404 554.226 190.769 553.015 190.518 551.131C190.266 549.247 191.398 547.633 193.159 547.364C194.92 547.094 196.43 548.305 196.681 550.189C196.933 551.939 195.675 553.688 194.04 553.957Z" fill="white"/>
<path d="M191.65 478.599C192.027 478.733 192.404 479.137 192.53 479.541C192.53 479.81 192.153 480.348 191.901 480.886C191.398 480.483 191.021 480.214 190.895 479.81C190.517 479.272 191.146 478.464 191.65 478.599Z" fill="white"/>
<path d="M83.3459 143.93C83.4717 145.545 82.3396 146.891 80.8302 147.025C79.3207 147.16 78.0628 145.949 77.937 144.199C77.937 142.719 78.9433 141.373 80.327 141.239C81.7107 141.104 83.2201 142.45 83.3459 143.93Z" fill="white"/>
<path d="M97.6858 422.08C97.4343 420.196 98.8179 418.581 100.453 418.447C101.963 418.312 103.598 419.658 103.849 421.273C104.101 423.022 102.843 424.771 101.208 425.041C99.3211 425.175 97.9374 423.964 97.6858 422.08Z" fill="white"/>
<path d="M97.4343 383.057C96.0506 383.326 94.667 382.384 94.4154 380.904C94.038 379.289 95.1701 377.809 96.5538 377.539C97.9374 377.27 99.1953 378.347 99.4469 379.827C99.6985 381.442 98.818 382.788 97.4343 383.057Z" fill="white"/>
<path d="M101.585 389.785C103.095 389.515 104.227 390.592 104.478 392.072C104.73 393.552 103.849 395.033 102.466 395.302C100.956 395.571 99.5726 394.494 99.3211 392.88C99.1953 391.265 100.202 389.919 101.585 389.785Z" fill="white"/>
<path d="M92.5281 371.349C91.1445 371.484 89.8866 370.542 89.5092 369.062C89.2577 367.582 90.1382 366.101 91.5218 365.832C93.0313 365.429 94.5408 366.505 94.7923 368.12C95.1697 369.6 94.0376 371.215 92.5281 371.349Z" fill="white"/>
<path d="M83.8489 317.792C82.591 317.792 81.4589 316.85 81.3331 315.369C81.2073 313.755 82.2136 312.544 83.5973 312.544C84.8552 312.409 86.1131 313.486 86.2388 314.831C86.3646 316.177 85.1068 317.657 83.8489 317.792Z" fill="white"/>
<path d="M86.1128 327.615C85.8613 326.269 86.7418 324.923 87.9997 324.654C89.2576 324.385 90.5155 325.327 90.767 326.807C91.0186 328.153 90.1381 329.499 88.8802 329.768C87.6223 329.902 86.3644 329.095 86.1128 327.615Z" fill="white"/>
<path d="M106.365 333.67C106.491 334.746 105.988 335.554 105.107 335.688C104.227 335.823 103.346 335.285 103.095 334.343C102.843 333.401 103.598 332.19 104.604 332.055C105.485 331.921 106.239 332.593 106.365 333.67Z" fill="white"/>
<path d="M102.34 434.461C102.088 432.712 103.22 430.962 104.981 430.693C106.743 430.424 108.252 431.501 108.504 433.385C108.755 435.269 107.623 436.883 105.988 437.152C104.353 437.422 102.592 436.076 102.34 434.461Z" fill="white"/>
<path d="M108 373.099C109.133 372.964 110.265 373.906 110.39 375.252C110.516 376.463 109.761 377.405 108.629 377.674C107.371 377.809 106.239 376.867 106.239 375.655C106.114 374.31 106.994 373.233 108 373.099Z" fill="white"/>
<path d="M114.541 416.16C114.793 417.64 113.912 419.12 112.529 419.389C111.019 419.793 109.635 418.582 109.384 416.967C109.258 415.487 110.139 414.141 111.522 413.872C113.032 413.738 114.29 414.68 114.541 416.16Z" fill="white"/>
<path d="M110.768 449.263C109.007 449.532 107.497 448.186 107.246 446.302C107.12 444.553 108.378 442.803 110.013 442.534C111.774 442.265 113.158 443.611 113.409 445.495C113.787 447.513 112.655 448.994 110.768 449.263Z" fill="white"/>
<path d="M73.9117 119.708C74.0375 121.457 72.7796 123.207 71.1444 123.476C69.3834 123.745 67.7481 122.399 67.4965 120.381C67.3708 118.497 68.5028 117.017 70.2639 116.747C72.1507 116.344 73.7859 117.689 73.9117 119.708Z" fill="white"/>
<path d="M65.3582 104.502C67.1192 104.233 68.7545 105.579 69.1318 107.463C69.5092 109.616 68.3771 111.365 66.3645 111.769C64.4777 112.172 62.5908 110.827 62.3393 108.674C62.0877 106.79 63.4713 104.771 65.3582 104.502Z" fill="white"/>
<path d="M103.724 232.745C103.975 232.61 104.478 233.014 104.981 233.283C104.604 233.821 104.353 234.359 104.101 234.494C103.598 234.763 102.843 234.225 102.969 233.686C102.969 233.417 103.346 232.879 103.724 232.745Z" fill="white"/>
<path d="M61.3327 137.875C61.0811 135.856 62.4648 134.242 64.2258 133.972C65.9868 133.838 67.7479 135.318 67.8737 137.202C67.9994 138.951 66.7416 140.701 65.1063 140.97C63.2195 141.239 61.4584 139.759 61.3327 137.875Z" fill="white"/>
<path d="M85.3586 153.62C86.6165 153.485 87.8743 154.562 88.0001 155.907C88.2517 157.253 87.3712 158.599 85.9875 158.733C84.6039 159.002 83.2202 157.926 83.0944 156.446C83.0944 155.235 84.1007 153.889 85.3586 153.62Z" fill="white"/>
<path d="M78.8172 131.819C78.943 133.569 77.6851 135.049 76.1757 135.184C74.5404 135.318 73.1567 134.107 72.9052 132.492C72.6536 130.743 73.7857 129.128 75.4209 128.859C77.0562 128.59 78.6915 130.07 78.8172 131.819Z" fill="white"/>
<path d="M77.5593 274.056C77.4335 272.711 78.4398 271.365 79.6977 271.231C80.9556 271.096 82.2134 272.038 82.3392 273.518C82.465 274.864 81.4587 276.21 80.2008 276.344C78.9429 276.479 77.6851 275.402 77.5593 274.056Z" fill="white"/>
<path d="M68.88 220.634C68.6284 219.02 69.7605 217.539 71.27 217.405C72.7794 217.27 74.1631 218.481 74.1631 220.096C74.1631 221.576 73.1568 222.922 71.7731 223.057C70.2637 223.191 69.0058 222.115 68.88 220.634Z" fill="white"/>
<path d="M75.547 264.234C74.1633 264.369 73.157 263.561 72.9054 262.081C72.6538 260.601 73.5344 259.12 74.918 258.851C76.3017 258.582 77.6854 259.793 77.8112 261.139C77.937 262.754 76.9306 264.099 75.547 264.234Z" fill="white"/>
<path d="M66.49 149.852C66.3642 147.968 67.6221 146.488 69.3831 146.353C71.0184 146.218 72.402 147.429 72.5278 149.313C72.6536 151.063 71.5215 152.678 69.8863 152.812C68.3768 153.081 66.6158 151.601 66.49 149.852Z" fill="white"/>
<path d="M72.6538 188.069C74.0375 187.8 75.547 189.145 75.7985 190.626C75.9243 192.24 74.7922 193.721 73.4086 193.855C71.8991 193.99 70.5154 192.779 70.5154 191.164C70.2639 189.684 71.2702 188.338 72.6538 188.069Z" fill="white"/>
<path d="M86.7421 258.313C85.61 258.448 84.6037 257.64 84.4779 256.429C84.3521 255.218 85.2326 254.141 86.2389 254.007C87.371 253.872 88.2515 254.68 88.3773 255.891C88.6289 257.236 87.8741 258.178 86.7421 258.313Z" fill="white"/>
<path d="M85.2327 288.187C84.1007 288.321 82.9686 287.379 82.8428 286.168C82.5912 284.822 83.3459 283.746 84.6038 283.477C85.7359 283.208 86.9938 284.015 87.2454 285.226C87.4969 286.572 86.4906 288.052 85.2327 288.187Z" fill="white"/>
<path d="M79.3206 244.587C79.069 243.106 79.9495 241.761 81.2074 241.626C82.3395 241.492 83.4716 242.434 83.7232 243.645C83.849 244.856 83.0943 246.067 81.8364 246.336C80.5785 246.74 79.5722 245.932 79.3206 244.587Z" fill="white"/>
<path d="M78.9432 170.709C80.3269 170.574 81.5848 171.651 81.8363 172.996C82.0879 174.477 81.0816 175.822 79.6979 176.091C78.1885 176.36 77.0564 175.419 76.8048 173.804C76.5532 172.323 77.5595 170.978 78.9432 170.709Z" fill="white"/>
<path d="M84.8551 214.443C85.1067 215.789 84.3519 217 83.2199 217.269C82.0878 217.538 80.7041 216.461 80.5783 215.116C80.4525 213.905 81.333 212.693 82.4651 212.559C83.723 212.424 84.7293 213.097 84.8551 214.443Z" fill="white"/>
<path d="M100.076 323.712C99.0694 323.847 98.1889 323.174 97.9373 322.097C97.8116 321.155 98.3147 320.213 99.1952 319.944C100.076 319.675 101.208 320.348 101.459 321.424C101.711 322.501 101.082 323.577 100.076 323.712Z" fill="white"/>
<path d="M71.3956 161.693C71.2698 160.213 72.4019 158.598 73.7855 158.329C75.295 158.06 76.6787 159.137 76.9303 160.751C77.1818 162.501 76.3013 163.847 74.7918 164.116C73.1566 164.519 71.6471 163.443 71.3956 161.693Z" fill="white"/>
<path d="M95.2957 311.736C94.2893 311.871 93.1572 310.929 93.0315 309.852C92.9057 308.641 93.7862 307.699 95.0441 307.699C96.0504 307.699 96.8051 308.507 96.9309 309.583C96.9309 310.66 96.302 311.602 95.2957 311.736Z" fill="white"/>
<path d="M87.8744 297.741C87.8744 296.53 88.6291 295.588 89.7612 295.453C90.8933 295.319 91.8996 296.126 92.0254 297.337C92.1512 298.548 91.3964 299.625 90.2643 299.759C89.1323 300.028 88.0002 299.086 87.8744 297.741Z" fill="white"/>
<path d="M98.8177 353.317C97.5598 353.452 96.5535 352.779 96.4277 351.299C96.3019 349.953 97.0567 348.742 98.3146 348.608C99.4466 348.473 100.705 349.415 100.83 350.626C100.83 351.972 100.076 353.183 98.8177 353.317Z" fill="white"/>
<path d="M93.7862 341.476C92.5283 341.61 91.3962 340.534 91.2704 339.188C91.1446 337.842 92.0252 336.9 93.4088 336.766C94.6667 336.631 95.673 337.573 95.7988 338.919C95.7988 339.995 94.9183 341.206 93.7862 341.476Z" fill="white"/>
<path d="M93.0315 267.867C93.2831 268.809 92.6541 270.02 91.7736 270.29C90.8931 270.559 89.761 269.886 89.5094 268.944C89.2579 267.867 89.761 266.791 90.7673 266.522C91.7736 266.253 92.7799 266.791 93.0315 267.867Z" fill="white"/>
<path d="M97.0564 249.835C97.8111 249.566 98.5658 249.97 98.8174 250.777C99.069 251.584 98.5658 252.526 97.9369 252.661C97.1821 252.93 96.4274 252.392 96.1758 251.584C96.05 250.777 96.3016 250.104 97.0564 249.835Z" fill="white"/>
<path d="M97.8115 280.113C97.9373 281.055 97.4342 281.997 96.6795 282.266C95.9247 282.4 94.9184 281.862 94.6668 280.92C94.4153 279.978 95.0442 279.036 95.9247 278.902C96.8052 278.498 97.6858 279.036 97.8115 280.113Z" fill="white"/>
<path d="M94.0378 207.983C94.9183 207.983 95.673 208.656 95.7988 209.598C95.9246 210.675 95.1699 211.482 94.0378 211.617C93.1573 211.617 92.4025 210.944 92.4025 209.867C92.4025 208.791 93.1573 207.983 94.0378 207.983Z" fill="white"/>
<path d="M100.076 190.76C100.83 190.625 101.585 191.164 101.711 191.971C101.837 192.778 101.208 193.586 100.453 193.586C99.6983 193.72 99.1952 193.317 99.0694 192.509C98.9436 191.702 99.321 190.894 100.076 190.76Z" fill="white"/>
<path d="M84.1003 183.089C85.3582 182.954 86.3645 183.896 86.6161 185.108C86.8677 186.453 86.1129 187.53 84.8551 187.799C83.4714 188.068 82.3393 186.991 82.2135 185.646C81.9619 184.435 82.8425 183.224 84.1003 183.089Z" fill="white"/>
<path d="M99.0694 220.229C99.8242 220.229 100.327 220.633 100.453 221.441C100.579 222.248 99.95 223.055 99.1952 223.055C98.4405 223.055 97.9374 222.652 97.8116 221.844C97.56 221.037 98.1889 220.229 99.0694 220.229Z" fill="white"/>
<path d="M89.7609 226.689C89.8867 227.765 89.0062 228.976 87.9999 229.111C86.8678 229.246 85.9873 228.304 85.8615 227.093C85.7357 226.016 86.3646 225.074 87.4967 224.939C88.6288 224.805 89.6351 225.612 89.7609 226.689Z" fill="white"/>
<path d="M88.7547 195.605C89.761 195.336 90.8931 196.278 91.0189 197.354C91.2705 198.566 90.5157 199.642 89.3837 199.777C88.2516 199.911 87.2452 199.238 87.1195 198.027C86.8679 196.951 87.6226 195.74 88.7547 195.605Z" fill="white"/>
<path d="M92.78 237.32C93.6605 237.32 94.4153 237.993 94.4153 238.935C94.4153 240.012 93.9121 240.819 93.0316 240.819C92.0253 240.954 91.1448 240.012 91.1448 239.07C91.1448 238.128 91.8995 237.32 92.78 237.32Z" fill="white"/>
<path d="M103.598 262.887C103.723 263.56 103.22 264.099 102.591 263.964C102.214 263.964 101.711 263.426 101.585 263.157C101.585 262.618 101.962 262.215 102.34 261.407C102.969 262.08 103.472 262.349 103.598 262.887Z" fill="white"/>
<path d="M111.271 345.378C111.523 346.32 110.894 347.261 110.013 347.396C109.133 347.531 108.252 346.858 108.126 345.916C108.001 345.108 108.755 344.032 109.636 344.032C110.391 343.897 111.145 344.57 111.271 345.378Z" fill="white"/>
<path d="M153.033 525.429C152.907 523.411 154.29 521.661 156.177 521.527C158.064 521.392 159.448 522.738 159.699 524.756C159.825 526.64 158.567 528.39 156.806 528.659C155.045 528.928 153.158 527.313 153.033 525.429Z" fill="white"/>
<path d="M99.5724 546.152C101.962 545.883 104.227 547.633 104.855 550.055L95.6729 549.651C96.3019 547.767 97.6855 546.287 99.5724 546.152Z" fill="white"/>
<path d="M150.642 546.152C148.504 546.422 146.617 544.941 146.366 542.654C146.114 540.366 147.624 538.348 149.762 538.078C151.775 537.809 153.536 539.29 153.913 541.443C154.165 543.865 152.781 545.883 150.642 546.152Z" fill="white"/>
<path d="M134.793 548.036C134.542 545.614 136.177 543.595 138.441 543.326C140.705 543.057 142.592 544.672 142.97 547.094C143.221 549.382 141.963 551.266 139.951 551.804L137.435 551.669C135.925 551.131 134.919 549.785 134.793 548.036Z" fill="white"/>
<path d="M163.222 17.3023C163.976 17.1677 164.983 17.8406 165.108 18.7825C165.234 19.5899 164.605 20.3973 163.851 20.5319C163.096 20.6665 162.341 20.2628 162.089 19.4554C161.838 18.648 162.341 17.5714 163.222 17.3023Z" fill="white"/>
<path d="M157.687 537.54C157.561 535.521 158.945 533.637 160.831 533.503C162.718 533.368 164.479 534.848 164.605 536.867C164.731 538.885 163.347 540.769 161.46 540.904C159.574 541.038 157.938 539.558 157.687 537.54Z" fill="white"/>
<path d="M166.869 448.994C166.366 449.533 166.114 449.936 165.737 450.071C165.108 450.205 164.605 449.936 164.479 449.129C164.479 448.456 164.857 447.783 165.485 447.918C165.863 447.918 166.24 448.456 166.869 448.994Z" fill="white"/>
<path d="M168.756 487.884C170.014 487.75 171.146 488.826 171.146 490.307C171.146 491.652 170.266 492.594 169.008 492.729C167.75 492.863 166.744 491.921 166.618 490.71C166.492 489.365 167.498 488.019 168.756 487.884Z" fill="white"/>
<path d="M170.266 459.625C170.895 459.625 171.524 460.163 171.524 460.971C171.649 461.778 171.146 462.316 170.392 462.451C169.763 462.585 169.008 462.047 168.882 461.374C168.882 460.567 169.511 459.76 170.266 459.625Z" fill="white"/>
<path d="M166.618 552.88C164.857 553.149 162.97 551.534 162.592 549.651C162.215 547.632 163.724 545.479 165.611 545.21C167.75 544.941 169.385 546.286 169.762 548.574C170.014 550.593 168.504 552.611 166.618 552.88Z" fill="white"/>
<path d="M169.133 31.0281C169.259 31.2972 168.882 31.7009 168.63 32.1046C168.253 31.7009 167.75 31.4318 167.75 31.1627C167.75 30.8935 168.127 30.6244 168.378 30.2207C168.756 30.4898 169.133 30.759 169.133 31.0281Z" fill="white"/>
<path d="M126.869 548.305C129.007 548.036 130.894 549.247 131.523 551.4L123.472 550.996C124.227 549.516 125.359 548.574 126.869 548.305Z" fill="white"/>
<path d="M85.4841 527.851C85.2326 525.16 86.9936 522.737 89.5094 522.334C92.151 521.93 94.5409 523.948 94.7925 526.774C95.0441 529.466 93.283 531.888 90.7673 532.157C87.9999 532.695 85.7357 530.677 85.4841 527.851Z" fill="white"/>
<path d="M64.9806 398.397C64.729 396.647 64.4774 394.763 64.2258 392.476C67.119 394.225 67.6221 396.378 66.2384 398.531C66.1127 398.8 65.6095 398.935 65.3579 399.069C65.2321 399.069 64.9806 398.666 64.9806 398.397Z" fill="white"/>
<path d="M57.8108 326C57.5592 324.116 58.9429 322.232 60.7039 322.097C62.5908 321.828 64.1002 323.308 64.3518 325.192C64.4776 326.942 63.3455 328.691 61.5845 328.96C59.8234 329.364 58.0624 327.884 57.8108 326Z" fill="white"/>
<path d="M61.0813 367.312C60.9555 365.428 62.2134 363.678 63.9744 363.409C65.987 363.006 67.6223 364.351 67.8739 366.504C68.1254 368.523 66.8676 370.407 64.8549 370.676C63.0939 370.81 61.3329 369.33 61.0813 367.312Z" fill="white"/>
<path d="M71.8989 453.032C71.7731 451.955 71.6473 450.744 71.5215 449.667C71.3958 448.591 71.27 447.649 71.1442 446.572C71.0184 445.63 71.5215 445.227 72.4021 445.361C74.2889 445.496 75.9241 447.245 76.0499 449.398C76.1757 451.417 74.792 453.301 73.031 453.704C72.2763 453.973 72.0247 453.704 71.8989 453.032Z" fill="white"/>
<path d="M66.4899 410.374C66.3641 409.297 66.1125 408.086 66.1125 407.01C65.9867 405.126 66.6157 404.318 68.2509 404.318C70.2635 404.318 71.8988 405.933 72.0246 408.086C72.1504 410.239 70.8925 411.854 68.8799 412.123C67.2446 412.392 66.7415 411.989 66.4899 410.374Z" fill="white"/>
<path d="M73.0312 462.452C72.6538 459.626 73.9117 457.742 76.3017 457.338C78.4401 457.069 80.4527 458.549 80.83 460.971C81.2074 463.394 79.6979 465.816 77.308 466.085C75.2953 466.489 73.0312 465.008 73.0312 462.452Z" fill="white"/>
<path d="M80.8302 516.009C80.4528 513.184 81.9623 510.896 84.6038 510.358C87.1196 509.954 89.5096 511.703 89.887 514.395C90.2643 517.086 88.5033 519.643 86.1133 520.046C83.5975 520.585 81.2076 518.835 80.8302 516.009Z" fill="white"/>
<path d="M78.5662 506.186C78.3146 504.302 78.063 502.553 77.8115 500.669C77.6857 499.189 78.1888 498.65 79.4467 498.381C81.8367 497.843 84.3525 499.727 84.7298 502.418C85.1072 505.109 83.3461 507.532 80.8304 507.935C79.3209 508.205 78.8178 507.801 78.5662 506.186Z" fill="white"/>
<path d="M77.0561 493.94C76.8045 492.056 76.5529 490.037 76.3014 488.153C76.3014 487.75 76.4272 487.211 76.5529 486.808C76.9303 486.942 77.5592 486.942 77.8108 487.346C78.5656 488.288 79.1945 489.23 79.6977 489.903C79.8234 491.921 79.5719 493.267 78.5655 494.343C78.314 494.612 77.9366 494.882 77.5593 494.882C77.3077 494.882 77.0561 494.343 77.0561 493.94Z" fill="white"/>
<path d="M135.8 14.8805C137.183 14.746 138.567 15.8225 138.693 17.1682C138.944 18.6484 137.938 19.9941 136.554 20.3978C135.171 20.6669 133.787 19.7249 133.535 18.2447C133.284 16.6299 134.29 15.0151 135.8 14.8805Z" fill="white"/>
<path d="M45.7352 101.541C45.4836 99.3878 47.1189 97.2347 49.1315 96.831C51.2699 96.5619 53.2825 98.1767 53.5341 100.599C53.7857 102.887 52.402 104.905 50.1378 105.174C47.9994 105.578 45.9868 103.963 45.7352 101.541Z" fill="white"/>
<path d="M145.862 430.02C145.988 430.962 145.234 431.769 144.353 431.904C143.472 432.039 142.718 431.366 142.592 430.289C142.592 429.347 143.221 428.405 144.101 428.405C144.982 428.405 145.737 429.078 145.862 430.02Z" fill="white"/>
<path d="M146.743 9.76673C148.001 9.4976 149.259 10.4396 149.51 11.7852C149.762 13.1309 148.881 14.4766 147.498 14.7457C146.24 15.0149 144.982 14.0729 144.73 12.7272C144.605 11.3815 145.485 10.0359 146.743 9.76673Z" fill="white"/>
<path d="M123.346 49.7331C124.604 49.5985 125.862 50.675 125.988 52.0207C126.114 53.3664 125.107 54.712 123.849 54.8466C122.592 54.9812 121.334 53.9046 121.208 52.559C121.082 51.2133 122.088 49.8676 123.346 49.7331Z" fill="white"/>
<path d="M145.737 39.775C146.617 39.6404 147.498 40.3132 147.624 41.2552C147.749 42.1972 147.246 43.0046 146.366 43.2737C145.485 43.5428 144.605 43.0046 144.353 42.0626C144.102 40.9861 144.731 39.9095 145.737 39.775Z" fill="white"/>
<path d="M140.579 27.3947C141.712 27.2601 142.969 28.2021 143.095 29.4132C143.221 30.6243 142.34 31.8354 141.208 31.9699C139.95 32.1045 138.944 31.2971 138.818 29.9514C138.693 28.7403 139.447 27.5292 140.579 27.3947Z" fill="white"/>
<path d="M163.599 476.043C164.857 475.774 165.863 476.581 166.115 477.927C166.24 479.138 165.486 480.483 164.353 480.618C163.347 480.753 162.215 479.945 161.963 478.869C161.586 477.658 162.341 476.312 163.599 476.043Z" fill="white"/>
<path d="M129.51 32.1051C130.894 31.9705 132.152 33.0471 132.278 34.5273C132.403 36.1421 131.523 37.2187 130.013 37.3532C128.756 37.4878 127.623 36.4113 127.372 35.0656C127.12 33.8545 128.252 32.2397 129.51 32.1051Z" fill="white"/>
<path d="M52.9049 302.989C52.7791 302.585 52.7791 302.047 52.6533 301.509C52.5275 300.701 52.5275 299.894 52.5275 299.086C52.5275 298.952 52.6533 298.683 52.7791 298.683C52.9048 298.683 53.1564 298.683 53.2822 298.683C54.7917 299.759 55.1691 301.374 54.2885 303.258C54.1627 303.527 53.7854 303.796 53.5338 304.065C53.2822 303.796 53.0306 303.392 52.9049 302.989Z" fill="white"/>
<path d="M134.29 44.754C135.548 44.6194 136.554 45.5614 136.68 46.9071C136.68 48.1182 135.8 49.0602 134.793 49.1947C133.661 49.3293 132.781 48.3873 132.655 47.1762C132.403 45.9651 133.284 44.8886 134.29 44.754Z" fill="white"/>
<path d="M134.668 75.8395C134.919 76.6469 134.416 77.4543 133.536 77.5889C132.781 77.7234 132.026 77.1852 131.9 76.3778C131.775 75.5703 132.403 74.7629 133.158 74.7629C134.039 74.6284 134.416 75.1667 134.668 75.8395Z" fill="white"/>
<path d="M124.479 20.1283C126.114 19.8591 127.623 21.0702 127.749 22.8196C127.875 24.4344 126.743 25.9147 125.359 26.1838C123.724 26.4529 122.34 25.2418 122.089 23.4924C121.963 21.6085 122.843 20.2628 124.479 20.1283Z" fill="white"/>
<path d="M161.335 436.614C161.335 437.018 161.083 437.556 160.706 437.825C160.328 438.094 159.448 437.556 159.574 437.018C159.574 436.614 159.951 436.21 160.328 435.672C160.832 436.076 161.335 436.345 161.335 436.614Z" fill="white"/>
<path d="M157.058 35.1999C157.687 35.0654 158.441 35.7382 158.441 36.411C158.441 37.0839 157.938 37.7567 157.184 37.7567C156.555 37.7567 156.051 37.353 155.926 36.6802C155.926 36.0073 156.429 35.1999 157.058 35.1999Z" fill="white"/>
<path d="M161.083 465.681C161.335 466.892 160.706 467.968 159.574 468.237C158.567 468.507 157.435 467.565 157.184 466.488C156.932 465.412 157.813 464.2 158.945 464.066C159.951 463.931 160.832 464.604 161.083 465.681Z" fill="white"/>
<path d="M165.611 507.127C165.863 508.742 164.857 510.222 163.347 510.491C161.712 510.895 160.202 509.819 159.951 508.069C159.699 506.32 160.706 504.705 162.341 504.436C163.85 504.167 165.36 505.378 165.611 507.127Z" fill="white"/>
<path d="M167.246 516.412C168.882 516.143 170.517 517.489 170.768 519.238C171.02 520.988 169.888 522.468 168.253 522.737C166.617 523.006 164.856 521.795 164.731 520.046C164.479 518.431 165.737 516.681 167.246 516.412Z" fill="white"/>
<path d="M150.769 52.6934C151.146 52.6934 151.901 53.0971 151.901 53.3662C151.901 53.9045 151.523 54.3082 151.146 55.1156C150.643 54.5773 150.14 54.4427 150.014 54.039C149.762 53.3662 150.265 52.6934 150.769 52.6934Z" fill="white"/>
<path d="M152.026 22.416C153.033 22.2815 154.039 23.0889 154.165 24.1654C154.29 25.1074 153.536 26.3185 152.655 26.4531C151.649 26.7222 150.517 25.7802 150.517 24.5691C150.265 23.358 151.02 22.5506 152.026 22.416Z" fill="white"/>
<path d="M155.423 424.1C155.674 424.1 156.052 424.369 156.555 424.638C156.177 425.042 155.926 425.58 155.674 425.58C155.423 425.58 155.045 425.176 154.919 424.907C154.794 424.638 155.171 424.234 155.423 424.1Z" fill="white"/>
<path d="M150.139 412.661C150.139 412.527 150.391 412.257 150.517 411.988C150.768 412.123 151.146 412.392 151.272 412.661C151.397 412.796 151.02 413.065 150.894 413.603C150.517 413.199 150.265 412.93 150.139 412.661Z" fill="white"/>
<path d="M155.926 453.57C156.177 454.647 155.548 455.723 154.542 455.858C153.536 456.127 152.529 455.454 152.278 454.377C152.026 453.435 152.781 452.224 153.662 451.955C154.668 451.821 155.8 452.628 155.926 453.57Z" fill="white"/>
<path d="M150.894 441.862C151.146 442.939 150.517 443.881 149.51 444.15C148.63 444.284 147.749 443.746 147.624 442.804C147.372 441.728 148.001 440.651 149.007 440.517C149.762 440.382 150.642 440.92 150.894 441.862Z" fill="white"/>
<path d="M232.279 548.978C231.273 548.978 230.141 548.037 230.015 546.96C229.889 545.749 230.77 544.538 231.902 544.403C233.159 544.269 234.166 545.076 234.292 546.556C234.417 547.633 233.411 548.844 232.279 548.978Z" fill="white"/>
<path d="M229.26 534.445C229.386 535.521 228.757 536.463 227.751 536.598C226.744 536.732 225.738 535.925 225.612 534.983C225.487 534.041 226.241 532.83 227.248 532.695C228.128 532.561 229.134 533.368 229.26 534.445Z" fill="white"/>
<path d="M239.826 528.928C240.078 529.601 239.701 530.408 238.946 530.543C238.317 530.677 237.562 530.139 237.562 529.466C237.562 528.793 237.814 528.255 238.443 528.121C239.197 527.986 239.701 528.255 239.826 528.928Z" fill="white"/>
<path d="M233.285 517.49C233.285 517.22 233.537 516.951 233.663 516.413C234.04 516.817 234.417 516.951 234.417 517.086C234.292 517.355 234.04 517.624 233.914 517.893C233.663 517.759 233.285 517.624 233.285 517.49Z" fill="white"/>
<path d="M245.109 541.039C245.361 541.846 244.732 542.923 243.851 543.057C242.971 543.327 242.09 542.654 241.965 541.712C241.839 540.904 242.342 540.097 243.097 539.828C243.851 539.559 244.858 540.232 245.109 541.039Z" fill="white"/>
<path d="M222.467 524.218C221.713 524.218 221.084 523.545 220.958 522.603C220.958 521.796 221.587 520.988 222.216 520.854C222.971 520.719 223.977 521.526 223.977 522.468C224.103 523.545 223.348 524.352 222.467 524.218Z" fill="white"/>
<path d="M212.782 499.188C212.53 499.323 212.279 498.919 211.776 498.515C212.153 498.112 212.405 497.708 212.656 497.708C212.908 497.708 213.159 498.112 213.537 498.246C213.285 498.65 213.033 499.054 212.782 499.188Z" fill="white"/>
<path d="M49.2574 272.442C49.1316 270.558 50.5152 268.674 52.1505 268.54C53.9115 268.405 55.5468 269.751 55.7983 271.769C56.0499 273.788 54.792 275.402 52.9052 275.672C51.1442 275.806 49.3831 274.326 49.2574 272.442Z" fill="white"/>
<path d="M221.461 554.63C219.952 554.765 218.82 553.823 218.694 552.208C218.568 550.728 219.575 549.382 220.958 549.248C222.342 549.113 223.6 550.19 223.726 551.67C223.977 553.15 222.971 554.361 221.461 554.63Z" fill="white"/>
<path d="M216.43 542.249C215.046 542.384 213.914 541.442 213.914 539.962C213.788 538.616 214.794 537.405 216.178 537.271C217.436 537.271 218.442 538.212 218.568 539.424C218.568 540.904 217.688 542.115 216.43 542.249Z" fill="white"/>
<path d="M217.31 511.837C217.059 511.568 216.556 511.299 216.304 510.895C215.927 510.222 216.556 509.415 217.184 509.415C217.813 509.415 218.317 509.55 218.442 510.357C218.694 510.895 218.317 511.703 217.31 511.837Z" fill="white"/>
<path d="M211.776 530.139C210.644 530.408 209.386 529.601 209.134 528.39C208.883 527.178 209.889 525.833 211.021 525.698C212.027 525.564 213.16 526.371 213.285 527.582C213.411 528.793 212.782 529.87 211.776 530.139Z" fill="white"/>
<path d="M209.637 554.227C210.77 554.092 211.776 554.63 212.405 555.572L207.751 555.303C208.128 554.63 208.757 554.227 209.637 554.227Z" fill="white"/>
<path d="M181.964 552.073C183.599 551.804 184.983 552.611 185.612 554.091L179.574 553.822C179.951 552.88 180.832 552.207 181.964 552.073Z" fill="white"/>
<path d="M250.519 553.285C250.644 554.496 250.015 555.572 248.758 555.707C247.751 555.841 246.871 555.169 246.619 554.092C246.368 553.016 247.122 551.804 248.254 551.535C249.261 551.266 250.267 552.074 250.519 553.285Z" fill="white"/>
<path d="M82.3395 534.983C82.2137 534.041 81.9621 533.233 81.8363 532.291C81.8363 532.291 81.8363 532.291 81.9621 532.291C81.8363 531.215 81.7105 530.273 81.5848 529.196C81.5848 528.927 81.7105 528.658 81.8363 528.524C81.8363 528.389 82.2137 528.523 82.3395 528.658C84.1005 530.273 84.4779 532.964 83.22 535.117C83.0942 535.252 82.9684 535.386 82.7168 535.386C82.5911 535.386 82.3395 535.117 82.3395 534.983Z" fill="white"/>
<path d="M237.059 556.11C237.814 556.11 238.443 556.379 238.946 556.918L235.676 556.783C236.053 556.379 236.556 556.11 237.059 556.11Z" fill="white"/>
<path d="M154.29 550.055C156.051 549.785 157.812 550.862 158.441 552.746L151.397 552.342C152.026 551.266 153.033 550.324 154.29 550.055Z" fill="white"/>
<path d="M276.179 556.11C275.55 556.38 274.796 555.707 274.796 555.034C274.796 554.226 275.299 553.554 275.928 553.688C276.431 553.823 276.808 554.361 277.312 554.765C276.934 555.438 276.557 555.976 276.179 556.11Z" fill="white"/>
<path d="M256.053 535.925C255.55 536.463 255.172 536.867 254.921 537.001C254.418 537.136 254.04 536.732 254.04 536.059C254.04 535.79 254.418 535.252 254.669 535.252C255.047 535.252 255.424 535.656 256.053 535.925Z" fill="white"/>
<path d="M261.211 548.035C261.336 548.843 260.707 549.516 259.827 549.65C259.072 549.65 258.569 549.112 258.569 548.439C258.443 547.632 259.072 546.824 259.827 546.824C260.707 546.824 261.085 547.228 261.211 548.035Z" fill="white"/>
<path d="M271.903 542.788C271.651 543.057 271.525 543.461 271.274 543.461C271.022 543.461 270.771 543.192 270.771 543.057C270.771 542.922 271.022 542.519 271.148 542.519C271.4 542.25 271.651 542.519 271.903 542.788Z" fill="white"/>
<path d="M201.587 505.378C200.706 505.513 199.952 504.705 199.952 503.763C199.952 502.956 200.581 502.148 201.335 502.148C202.216 502.148 203.096 502.956 202.971 503.763C202.971 504.705 202.342 505.378 201.587 505.378Z" fill="white"/>
<path d="M30.6405 127.109C30.5147 126.167 30.3889 125.225 30.2631 124.418C30.1373 123.476 30.0115 122.534 29.8857 121.726C29.7599 120.381 30.2631 119.842 31.3952 119.573C33.6594 119.17 35.9236 121.054 36.1751 123.341C36.5525 125.898 34.6657 128.186 32.2757 128.455C31.3952 128.455 30.892 128.186 30.6405 127.109Z" fill="white"/>
<path d="M35.9235 168.287C35.5461 165.999 35.2945 163.846 35.0429 161.559C37.5587 161.424 38.9424 162.366 39.3197 164.384C39.6971 166.268 38.9424 168.152 37.3071 169.094C36.5524 169.498 36.0492 169.229 35.9235 168.287Z" fill="white"/>
<path d="M29.1313 114.864C28.8797 112.577 28.5023 110.289 28.2508 107.598C30.2634 108.405 31.0181 109.616 31.3955 111.096C31.6471 112.577 31.2697 113.922 30.2634 114.999C30.1376 115.133 29.7602 115.268 29.5086 115.268C29.3829 115.268 29.1313 114.999 29.1313 114.864Z" fill="white"/>
<path d="M22.2125 59.8255C21.961 58.3452 21.7094 56.7304 21.7094 54.7119C23.3446 56.4613 23.722 58.0761 23.0931 59.96C22.9673 60.2292 22.7157 60.3637 22.5899 60.4983C22.4641 60.2292 22.2125 60.0946 22.2125 59.8255Z" fill="white"/>
<path d="M24.0992 74.3588C23.7219 71.6675 23.3445 69.1107 23.0929 66.4194C22.9671 65.612 23.4703 65.3428 24.0992 65.4774C26.3634 65.7465 27.9987 67.4959 28.2503 69.9181C28.5018 72.2058 27.244 74.3588 25.3571 75.0317C24.7282 75.3008 24.225 75.1662 24.0992 74.3588Z" fill="white"/>
<path d="M200.455 535.791C198.945 535.925 197.813 534.983 197.687 533.368C197.562 531.888 198.568 530.542 199.952 530.408C201.335 530.273 202.593 531.35 202.719 532.83C202.845 534.31 201.838 535.521 200.455 535.791Z" fill="white"/>
<path d="M37.0555 178.11C36.5524 175.553 37.8103 173.669 39.9487 173.266C41.9613 172.862 43.8481 174.342 44.2255 176.495C44.6029 178.648 43.345 180.667 41.3324 181.071C39.194 181.474 37.4329 180.263 37.0555 178.11Z" fill="white"/>
<path d="M45.7351 231.13C45.4835 229.246 46.7414 227.362 48.5024 227.093C50.3893 226.689 52.1503 228.17 52.4019 230.188C52.6534 232.207 51.5213 233.821 49.7603 234.225C47.7477 234.494 45.9867 233.149 45.7351 231.13Z" fill="white"/>
<path d="M47.7477 262.35C47.6219 261.812 47.6219 261.139 47.4961 260.601C47.3703 259.928 47.2445 259.121 47.2445 258.448C47.2445 257.91 47.2445 256.968 47.6219 256.833C47.9993 256.564 48.754 256.833 49.2571 257.102C51.5213 258.313 51.6471 261.543 49.6345 263.158C48.6282 263.965 47.9992 263.562 47.7477 262.35Z" fill="white"/>
<path d="M42.4646 220.5C42.3388 220.096 42.3389 219.692 42.3389 219.288C42.2131 218.75 42.2131 218.212 42.0873 217.808C41.9615 215.79 42.7162 214.982 44.4773 215.251C45.9867 215.521 47.2446 216.732 47.4962 218.481C47.7477 220.23 46.8672 221.711 45.3578 222.383C43.5967 223.056 42.7162 222.518 42.4646 220.5Z" fill="white"/>
<path d="M20.0741 42.1972C19.571 39.3713 21.4578 36.5454 24.0994 36.1417C26.7409 35.6034 29.2567 37.6219 29.6341 40.5824C30.0114 43.5429 28.2504 46.0996 25.483 46.5033C22.8415 46.7725 20.4515 44.8885 20.0741 42.1972Z" fill="white"/>
<path d="M85.107 13.9382C85.4844 16.3604 83.9749 18.5135 81.7107 18.9172C79.4465 19.3209 77.4339 17.8407 77.0565 15.2839C76.805 13.6691 77.4339 12.3234 78.4402 11.3814L83.4718 11.1123C84.3523 11.7851 84.9812 12.8617 85.107 13.9382Z" fill="white"/>
<path d="M122.969 10.1699C123.347 12.0539 122.214 13.9378 120.453 14.3415C118.692 14.6106 116.931 13.265 116.68 11.381C116.554 10.8427 116.68 10.1699 116.931 9.63164L122.718 9.49707C122.718 9.63164 122.843 9.90077 122.969 10.1699Z" fill="white"/>
<path d="M158.944 9.09372C158.064 9.36286 157.058 8.82458 156.68 7.88261L160.454 7.74805C160.202 8.42088 159.573 8.95915 158.944 9.09372Z" fill="white"/>
<path d="M204.606 516.278C204.354 515.336 205.109 514.125 205.99 513.856C206.87 513.587 208.002 514.394 208.128 515.471C208.38 516.547 207.751 517.624 206.744 517.758C205.864 518.027 204.858 517.355 204.606 516.278Z" fill="white"/>
<path d="M205.235 548.036C203.6 548.305 202.342 547.228 202.216 545.479C201.964 543.864 203.096 542.384 204.48 542.115C205.864 541.98 207.373 543.191 207.625 544.672C207.876 546.421 206.744 547.901 205.235 548.036Z" fill="white"/>
<path d="M26.9925 17.1675C24.7283 17.4366 22.5899 16.091 21.7094 13.9379L31.1436 13.5342C30.5146 15.4181 29.0051 16.8984 26.9925 17.1675Z" fill="white"/>
<path d="M17.3067 20.8014C17.0552 18.6483 16.6778 16.4953 16.4262 14.073L19.4451 13.9385C20.8288 16.0916 20.5772 19.1866 18.6904 21.0705C18.4388 21.3397 18.0615 21.4743 17.6841 21.4743C17.5583 21.4743 17.3067 21.0706 17.3067 20.8014Z" fill="white"/>
<path d="M65.7352 12.7271C64.7289 12.8617 63.7226 12.5926 62.8421 12.0543L67.6221 11.7852C67.1189 12.3234 66.49 12.5926 65.7352 12.7271Z" fill="white"/>
<path d="M18.8162 32.9119C18.4388 30.6243 18.1873 28.202 17.9357 25.9144C17.8099 24.5687 18.1873 24.0305 19.4451 23.7613C22.0867 23.3576 24.7283 25.2416 25.2314 28.2021C25.7346 31.2971 23.9735 33.9884 21.0804 34.5267C19.4451 34.6613 18.942 34.3922 18.8162 32.9119Z" fill="white"/>
<path d="M58.3141 12.7277C58.5657 15.4191 56.9305 17.8413 54.4147 18.245C51.8989 18.6487 49.6347 16.7647 49.2574 14.0734C49.1316 13.5351 49.2574 13.1314 49.2574 12.5932L58.3141 12.1895C58.3141 12.4586 58.3141 12.5932 58.3141 12.7277Z" fill="white"/>
<path d="M144.73 70.457C144.982 70.457 145.359 70.8607 145.359 71.1299C145.359 71.399 144.982 71.6681 144.73 72.2064C144.479 71.6681 144.101 71.399 144.101 71.1299C144.101 70.8607 144.479 70.457 144.73 70.457Z" fill="white"/>
<path d="M134.29 404.318C135.045 404.318 135.8 404.991 135.8 405.799C135.8 406.606 135.296 407.413 134.542 407.548C133.661 407.683 132.906 406.875 132.906 405.933C132.906 405.126 133.535 404.318 134.29 404.318Z" fill="white"/>
<path d="M139.196 88.2188C138.818 88.6225 138.693 88.8916 138.441 89.0262C138.315 89.0262 138.064 88.7571 137.812 88.6225C137.938 88.3534 138.189 87.9497 138.441 87.8151C138.441 87.6805 138.818 87.9497 139.196 88.2188Z" fill="white"/>
<path d="M140.076 446.976C140.328 448.322 139.573 449.399 138.315 449.668C137.057 449.937 135.799 449.129 135.548 447.649C135.296 446.304 136.303 444.958 137.561 444.823C138.818 444.689 139.825 445.631 140.076 446.976Z" fill="white"/>
<path d="M137.812 418.179C137.812 417.371 138.315 416.564 139.07 416.429C139.951 416.295 140.705 416.968 140.831 417.91C140.831 418.717 140.328 419.524 139.573 419.659C138.818 419.793 137.938 418.986 137.812 418.179Z" fill="white"/>
<path d="M135.422 435.403C135.422 436.614 134.541 437.69 133.409 437.825C132.151 437.959 131.145 437.152 131.019 435.806C130.893 434.461 131.648 433.384 132.906 433.115C134.038 432.98 135.296 434.057 135.422 435.403Z" fill="white"/>
<path d="M135.548 376.193C135.674 376.193 135.925 376.462 136.303 376.597C136.051 376.866 135.925 377.27 135.674 377.27C135.422 377.27 135.171 377.001 135.171 376.866C135.171 376.597 135.422 376.193 135.548 376.193Z" fill="white"/>
<path d="M128.001 62.3824C129.007 62.1133 130.139 63.0552 130.265 64.1318C130.391 65.3429 129.762 66.1503 128.755 66.4194C127.623 66.6885 126.617 65.8811 126.491 64.67C126.24 63.7281 126.994 62.6515 128.001 62.3824Z" fill="white"/>
<path d="M126.995 92.3906C127.623 92.3906 128.378 92.9289 128.378 93.4672C128.504 94.2746 127.749 95.082 127.12 95.082C126.366 95.082 125.988 94.5437 125.862 93.7363C125.737 93.0635 126.24 92.3906 126.995 92.3906Z" fill="white"/>
<path d="M125.233 122.399C125.485 122.534 125.862 122.669 126.114 122.938C126.114 123.072 125.862 123.341 125.736 123.88C125.359 123.611 125.107 123.341 124.982 123.072C124.856 122.938 125.233 122.399 125.233 122.399Z" fill="white"/>
<path d="M132.655 105.713C132.529 105.982 132.278 106.251 132.026 106.386C131.9 106.386 131.523 105.982 131.523 105.847C131.523 105.578 131.774 105.309 132.026 104.905C132.403 105.309 132.781 105.578 132.655 105.713Z" fill="white"/>
<path d="M130.768 363.947C130.894 363.947 131.146 364.216 131.523 364.351C131.271 364.62 131.146 365.024 130.894 365.024C130.642 365.024 130.517 364.755 130.265 364.62C130.517 364.351 130.642 364.082 130.768 363.947Z" fill="white"/>
<path d="M130.894 394.092C130.894 394.899 130.391 395.706 129.51 395.706C128.63 395.841 127.875 395.034 127.875 394.092C127.875 393.284 128.63 392.611 129.384 392.611C130.139 392.611 130.768 393.284 130.894 394.092Z" fill="white"/>
<path d="M136.428 518.7C136.177 516.681 137.561 514.798 139.447 514.528C141.46 514.125 143.347 515.605 143.598 517.758C143.85 519.911 142.466 521.93 140.579 522.199C138.693 522.468 136.68 520.718 136.428 518.7Z" fill="white"/>
<path d="M139.322 57.5382C140.076 57.4036 140.831 57.8073 141.083 58.6147C141.334 59.5567 140.705 60.4987 139.95 60.7678C139.196 60.9024 138.189 60.095 138.064 59.2876C138.064 58.4802 138.567 57.6728 139.322 57.5382Z" fill="white"/>
<path d="M123.095 545.48C120.705 545.883 118.441 543.999 118.189 541.443C117.938 538.886 119.573 536.598 122.089 536.329C124.479 536.06 126.365 537.809 126.743 540.232C126.994 542.788 125.359 545.076 123.095 545.48Z" fill="white"/>
<path d="M125.233 524.219C124.73 521.931 125.988 519.778 128.127 519.24C130.391 518.701 132.529 520.182 132.907 522.469C133.284 524.622 131.774 526.91 129.762 527.314C127.875 527.986 125.737 526.506 125.233 524.219Z" fill="white"/>
<path d="M145.737 534.041C143.724 534.445 141.712 532.695 141.46 530.542C141.209 528.389 142.592 526.505 144.731 526.236C146.869 525.967 148.504 527.313 148.756 529.6C149.007 531.753 147.624 533.637 145.737 534.041Z" fill="white"/>
<path d="M134.29 539.693C132.026 539.962 130.013 538.347 129.762 536.06C129.51 533.907 131.019 531.754 133.032 531.35C135.17 530.946 137.309 532.561 137.686 534.983C138.064 537.271 136.68 539.289 134.29 539.693Z" fill="white"/>
<path d="M140.831 389.516C140.579 389.246 140.202 389.112 140.202 388.843C140.202 388.574 140.454 388.439 140.579 388.17C140.831 388.304 141.082 388.439 141.208 388.708C141.208 388.843 140.957 389.112 140.831 389.516Z" fill="white"/>
<path d="M151.774 516.413C150.139 516.547 148.504 515.336 148.127 513.587C147.875 511.703 149.133 509.819 150.894 509.55C152.655 509.281 154.416 510.626 154.668 512.645C154.793 514.394 153.536 516.144 151.774 516.413Z" fill="white"/>
<path d="M142.592 456.799C143.724 456.665 145.108 457.741 145.359 458.953C145.611 460.433 144.479 461.779 143.095 461.913C141.837 462.048 140.705 460.971 140.579 459.625C140.328 458.28 141.334 456.934 142.592 456.799Z" fill="white"/>
<path d="M149.511 500.533C149.636 502.417 148.504 503.897 146.743 504.166C144.982 504.436 143.598 503.225 143.347 501.341C143.095 499.457 144.227 497.842 145.863 497.573C147.624 497.169 149.385 498.649 149.511 500.533Z" fill="white"/>
<path d="M56.5529 50.2711C58.6913 49.8674 61.0813 51.6167 61.4587 53.9044C61.836 56.3266 60.2008 58.6142 57.9366 59.0179C55.7982 59.2871 53.6598 57.8068 53.2824 55.5192C52.7793 53.097 54.2887 50.8093 56.5529 50.2711Z" fill="white"/>
<path d="M67.9994 45.1578C70.2635 44.7541 72.2762 46.5035 72.5277 48.7911C72.7793 50.9442 71.2699 53.0973 69.2572 53.501C67.1188 53.9047 64.9804 52.1553 64.7288 49.8676C64.4773 47.58 65.8609 45.5615 67.9994 45.1578Z" fill="white"/>
<path d="M66.1128 66.4197C66.3643 68.7073 64.8549 70.5913 62.7165 70.995C60.4523 71.2641 58.4397 69.5147 58.3139 67.2271C58.1881 65.074 59.6975 62.9209 61.7102 62.6518C63.9744 62.2481 65.987 63.9975 66.1128 66.4197Z" fill="white"/>
<path d="M77.1823 60.7677C77.5597 62.9207 76.3018 64.9392 74.2892 65.3429C72.2765 65.7466 70.1381 64.1318 69.8866 61.9788C69.635 59.8257 71.0187 57.9417 73.0313 57.538C75.1697 57.2689 76.8049 58.6146 77.1823 60.7677Z" fill="white"/>
<path d="M84.1003 52.4239C85.9872 52.1547 87.7482 53.5004 87.9998 55.5189C88.2513 57.5374 86.9935 59.4214 85.1066 59.6905C83.094 59.9596 81.4588 58.7485 81.2072 56.5954C80.9556 54.5769 82.2135 52.693 84.1003 52.4239Z" fill="white"/>
<path d="M81.7105 73.1475C81.9621 75.166 80.5784 77.05 78.5658 77.1846C76.8047 77.3191 75.1695 75.9734 74.7921 74.0895C74.5405 72.071 75.7984 70.187 77.8111 69.9179C79.9495 69.6488 81.4589 70.9945 81.7105 73.1475Z" fill="white"/>
<path d="M113.535 529.197C113.283 526.775 114.919 524.352 117.183 524.083C119.447 523.814 121.585 525.698 121.963 528.12C122.214 530.542 120.579 532.83 118.189 533.099C115.925 533.503 113.912 531.754 113.535 529.197Z" fill="white"/>
<path d="M40.5778 89.6991C40.452 87.4115 41.9615 85.2584 44.2257 84.9892C46.4899 84.7201 48.6283 86.4695 48.8798 88.8917C49.1314 91.3139 47.3704 93.6016 45.1062 93.8707C42.842 94.0053 40.7036 92.1213 40.5778 89.6991Z" fill="white"/>
<path d="M35.4205 77.9922C35.0431 75.4354 36.6783 73.0132 39.0683 72.744C41.4583 72.3403 43.7225 74.2243 43.974 76.7811C44.2256 79.3379 42.5904 81.6255 40.0746 81.8946C37.6846 82.1638 35.7978 80.549 35.4205 77.9922Z" fill="white"/>
<path d="M55.0433 71.3986C55.2949 73.8208 53.6597 75.9739 51.2697 76.243C49.1313 76.5122 47.1187 74.7628 46.7413 72.4751C46.4897 70.0529 48.125 67.7653 50.3892 67.3616C52.7792 67.0924 54.7918 68.9764 55.0433 71.3986Z" fill="white"/>
<path d="M36.6784 48.7913C36.3011 46.2345 38.0621 43.5432 40.5779 43.1395C43.0936 42.7358 45.3578 44.6197 45.7352 47.311C46.1126 50.137 44.3515 52.4246 41.8357 52.6937C39.32 53.0974 37.0558 51.3481 36.6784 48.7913Z" fill="white"/>
<path d="M50.1374 59.018C50.5148 61.5748 49.0053 63.997 46.6153 64.4007C44.2254 64.8044 41.9612 63.0551 41.5838 60.4983C41.2064 57.9415 42.8417 55.6539 45.3575 55.2502C47.7474 54.8465 49.76 56.4613 50.1374 59.018Z" fill="white"/>
<path d="M95.5471 47.1762C97.3081 46.9071 98.9434 48.3873 99.195 50.2713C99.3208 52.1552 98.0629 53.9046 96.176 54.0392C94.5408 54.1737 93.0313 52.8281 92.7797 51.0787C92.4024 49.1947 93.7861 47.4454 95.5471 47.1762Z" fill="white"/>
<path d="M116.68 67.0927C117.938 66.9581 118.944 67.7655 119.195 69.1112C119.447 70.4569 118.692 71.5334 117.434 71.9371C116.177 72.2063 114.919 71.3988 114.667 70.0532C114.541 68.5729 115.422 67.2273 116.68 67.0927Z" fill="white"/>
<path d="M92.7802 67.6299C93.0318 69.5139 91.8997 71.1287 90.2644 71.3978C88.3776 71.8015 86.7423 70.4558 86.4908 68.5719C86.2392 66.6879 87.4971 64.804 89.3839 64.6694C91.0192 64.5349 92.5286 65.8805 92.7802 67.6299Z" fill="white"/>
<path d="M120.202 140.162C119.824 140.701 119.698 141.104 119.447 141.239C119.195 141.239 118.818 140.97 118.566 140.701C118.692 140.431 118.818 140.028 119.07 139.893C119.321 139.759 119.699 140.028 120.202 140.162Z" fill="white"/>
<path d="M121.711 79.6065C122.592 79.472 123.724 80.2794 123.85 81.2213C124.101 82.1633 123.347 83.2398 122.466 83.509C121.46 83.7781 120.454 83.2398 120.202 82.1633C119.95 80.9522 120.705 79.7411 121.711 79.6065Z" fill="white"/>
<path d="M120.579 109.615C121.334 109.481 121.837 109.884 121.963 110.692C122.089 111.499 121.837 112.038 121.082 112.307C120.453 112.576 119.573 111.903 119.447 111.096C119.321 110.423 119.824 109.75 120.579 109.615Z" fill="white"/>
<path d="M111.9 54.847C113.283 54.5779 114.667 55.6544 114.919 57.1347C115.17 58.7495 114.164 60.2297 112.655 60.4989C111.271 60.6334 109.887 59.6915 109.636 58.2112C109.384 56.5964 110.39 55.1162 111.9 54.847Z" fill="white"/>
<path d="M106.868 42.3316C108.503 42.0624 110.139 43.5427 110.264 45.292C110.39 47.0414 109.258 48.5217 107.623 48.6562C105.988 48.9254 104.478 47.7143 104.227 46.0994C103.975 44.4846 105.233 42.6007 106.868 42.3316Z" fill="white"/>
<path d="M103.849 62.382C103.975 64.1314 102.843 65.6116 101.208 65.8808C99.5725 66.0153 98.1889 64.8042 97.9373 63.0549C97.8115 61.3055 98.9436 59.8252 100.579 59.5561C102.214 59.4215 103.724 60.6326 103.849 62.382Z" fill="white"/>
<path d="M125.988 381.98C125.988 382.787 125.736 383.325 124.982 383.46C124.227 383.595 123.472 383.056 123.346 382.249C123.221 381.442 123.85 380.634 124.604 380.5C125.233 380.365 125.862 381.038 125.988 381.98Z" fill="white"/>
<path d="M105.61 72.0716C106.994 71.8025 108.378 72.879 108.629 74.3593C108.881 75.9741 107.749 77.4543 106.239 77.5889C104.856 77.7235 103.598 76.6469 103.472 75.1667C103.22 73.6865 104.227 72.3408 105.61 72.0716Z" fill="white"/>
<path d="M108.629 517.086C108.378 514.664 110.139 512.376 112.403 512.242C114.667 512.107 116.554 513.856 116.805 516.144C117.057 518.432 115.422 520.719 113.283 520.989C110.893 521.392 108.881 519.508 108.629 517.086Z" fill="white"/>
<path d="M25.1055 53.904C24.7281 51.2127 26.615 48.3868 29.1308 47.9831C31.6465 47.5794 34.1623 49.5979 34.5396 52.4238C34.917 55.1152 33.156 57.5374 30.6402 58.0756C28.1244 58.4793 25.6087 56.5954 25.1055 53.904Z" fill="white"/>
<path d="M26.3636 24.5689C25.8605 21.6084 27.6215 19.0516 30.3889 18.5134C33.1562 18.1097 35.672 19.9936 36.0493 22.8195C36.4267 25.6455 34.6657 28.4714 31.8983 28.8751C29.2568 29.4133 26.741 27.5294 26.3636 24.5689Z" fill="white"/>
<path d="M42.0871 189.818C41.8355 187.8 43.0934 185.916 44.9802 185.647C46.9929 185.243 48.8797 186.723 49.1313 188.876C49.3828 190.895 47.9992 192.779 46.2381 193.182C44.2255 193.451 42.3387 191.971 42.0871 189.818Z" fill="white"/>
<path d="M30.5149 65.746C30.1375 63.0547 32.0244 60.4979 34.4144 60.2288C36.8043 59.9596 39.0685 61.8436 39.4459 64.2658C39.8233 66.9571 38.0622 69.3794 35.5464 69.7831C32.9049 70.3213 30.7665 68.572 30.5149 65.746Z" fill="white"/>
<path d="M40.9553 35.2002C41.2068 38.0261 39.32 40.4483 36.8042 40.852C34.1627 41.2557 31.8985 39.2372 31.5211 36.4113C31.1438 33.5853 33.0306 31.0286 35.6722 30.7594C38.1879 30.4903 40.7037 32.5088 40.9553 35.2002Z" fill="white"/>
<path d="M34.1627 106.924C33.9111 104.636 35.5463 102.483 37.6847 102.08C40.0747 101.676 42.0873 103.425 42.4647 105.847C42.7163 108.27 41.081 110.692 38.8168 110.961C36.5526 111.23 34.4142 109.346 34.1627 106.924Z" fill="white"/>
<path d="M38.0621 148.64C37.6847 146.353 39.1942 144.334 41.2068 143.93C43.3452 143.527 45.232 145.141 45.6094 147.294C45.9868 149.582 44.4773 151.601 42.4647 152.004C40.3263 152.273 38.4395 150.793 38.0621 148.64Z" fill="white"/>
<path d="M43.2193 160.482C42.9677 158.598 44.3514 156.58 46.2382 156.176C48.125 155.772 50.1377 157.252 50.515 159.405C50.8924 161.693 49.5087 163.577 47.4961 163.846C45.3577 164.115 43.4709 162.635 43.2193 160.482Z" fill="white"/>
<path d="M52.0244 29.9517C52.276 32.643 50.515 35.0652 47.9992 35.4689C45.4834 35.7381 43.2193 33.8541 42.9677 31.1628C42.5903 28.3369 44.3513 26.0492 46.9929 25.7801C49.5087 25.3764 51.7729 27.2603 52.0244 29.9517Z" fill="white"/>
<path d="M29.0052 95.0819C28.6279 92.5251 30.3889 90.1029 32.7789 89.8338C35.1689 89.4301 37.3073 91.314 37.6846 94.0054C37.9362 96.5622 36.4268 98.7152 34.0368 99.1189C31.521 99.3881 29.3826 97.6387 29.0052 95.0819Z" fill="white"/>
<path d="M39.5712 119.035C39.3196 116.748 40.8291 114.864 42.9675 114.46C45.2317 114.191 47.2443 115.806 47.4959 118.093C47.7475 120.381 46.1122 122.669 43.9738 122.803C41.7096 123.072 39.697 121.323 39.5712 119.035Z" fill="white"/>
<path d="M41.8355 13.4001C44.477 12.9964 46.7412 15.0149 47.1186 17.8408C47.3702 20.6667 45.4834 23.2235 42.9676 23.4926C40.4518 23.7618 37.9361 21.6087 37.5587 18.9173C37.3071 16.226 39.1939 13.6692 41.8355 13.4001Z" fill="white"/>
<path d="M105.61 33.1816C105.736 35.0655 104.353 36.8149 102.592 36.9495C100.705 37.2186 99.1953 35.873 98.9437 33.8544C98.6921 31.9705 99.95 30.0866 101.711 29.8174C103.472 29.6829 105.485 31.2977 105.61 33.1816Z" fill="white"/>
<path d="M96.931 17.5711C98.8178 17.1674 100.83 18.7822 101.208 20.8007C101.459 22.8192 100.076 24.8377 98.0631 25.1068C96.0505 25.376 94.2894 23.8957 94.0379 21.7427C93.6605 19.7241 95.0442 17.8402 96.931 17.5711Z" fill="white"/>
<path d="M116.68 27.5293C116.931 29.2786 115.673 31.028 114.164 31.4317C112.529 31.7008 110.893 30.4897 110.642 28.7404C110.39 26.8564 111.397 25.2416 113.158 24.9725C114.793 24.5688 116.302 25.7799 116.68 27.5293Z" fill="white"/>
<path d="M94.6666 38.1595C95.044 40.3126 93.6603 42.3311 91.6477 42.6003C89.7609 42.8694 87.9999 41.3891 87.7483 39.3706C87.4967 37.3521 88.7546 35.4682 90.6414 35.0645C92.5282 34.7953 94.2893 36.141 94.6666 38.1595Z" fill="white"/>
<path d="M108.126 12.4581C110.013 12.189 111.523 13.5347 111.774 15.4186C112.026 17.4371 110.768 19.4556 108.881 19.5902C107.12 19.7248 105.359 18.3791 105.107 16.4951C104.856 14.6112 106.114 12.7273 108.126 12.4581Z" fill="white"/>
<path d="M78.8174 31.7014C79.069 34.1236 77.4338 36.2767 75.2954 36.4113C73.2827 36.5459 71.2701 34.9311 71.0185 32.778C70.6412 30.4903 72.2764 28.3372 74.5406 27.9335C76.679 27.6644 78.5659 29.2792 78.8174 31.7014Z" fill="white"/>
<path d="M69.3831 15.5527C71.6473 15.2836 73.9115 17.033 74.163 19.4552C74.4146 21.8774 72.6536 24.2996 70.3894 24.5687C68.1252 24.8379 65.9868 23.0885 65.7352 20.5317C65.3579 17.9749 66.9931 15.9564 69.3831 15.5527Z" fill="white"/>
<path d="M67.6225 36.5457C67.9999 38.9679 66.3646 41.3901 64.1004 41.6592C61.8362 41.9284 59.572 40.0444 59.3205 37.6222C59.0689 35.3346 60.7041 33.0469 62.8425 32.7778C65.2325 32.3741 67.3709 34.1234 67.6225 36.5457Z" fill="white"/>
<path d="M83.5973 43.5435C83.8488 45.6966 82.4652 47.5805 80.3268 47.8496C78.1884 48.1188 76.5531 46.7731 76.1758 44.4854C75.9242 42.3324 77.1821 40.3139 79.1947 39.9102C81.3331 39.641 83.3457 41.2558 83.5973 43.5435Z" fill="white"/>
<path d="M56.8045 41.9279C57.1819 44.4846 55.5466 46.9069 53.1566 47.176C50.7666 47.4451 48.5025 45.6957 48.2509 43.139C47.9993 40.7168 49.5088 38.4291 51.8987 38.0254C54.2887 37.6217 56.4271 39.2365 56.8045 41.9279Z" fill="white"/>
<path d="M121.208 39.6399C121.46 41.2547 120.453 42.8695 119.07 43.1387C117.686 43.4078 116.051 42.1967 115.799 40.7164C115.548 39.2362 116.554 37.6214 118.063 37.3523C119.573 37.0831 120.957 38.0251 121.208 39.6399Z" fill="white"/>
<path d="M79.1949 399.608C81.0818 399.339 82.8428 400.819 82.9686 402.837C83.2202 404.99 81.9623 406.605 79.9497 406.874C78.1886 407.009 76.5534 405.798 76.3018 403.779C75.9245 401.761 77.3081 399.877 79.1949 399.608Z" fill="white"/>
<path d="M77.5596 474.831C77.0565 472.409 78.5659 469.987 80.8301 469.448C82.9685 468.91 85.3585 470.66 85.8616 473.082C86.239 475.369 84.8553 477.657 82.7169 478.195C80.2012 478.868 77.937 477.388 77.5596 474.831Z" fill="white"/>
<path d="M87.4966 498.515C87.1192 495.958 88.6287 493.805 90.8929 493.402C93.4086 492.998 95.547 494.747 95.9244 497.304C96.176 499.726 94.5407 502.149 92.2766 502.418C90.0124 502.687 87.874 501.072 87.4966 498.515Z" fill="white"/>
<path d="M79.4464 445.227C79.1948 443.073 80.4527 441.055 82.4653 440.651C84.6037 440.248 86.6164 441.593 86.9937 443.881C87.3711 446.168 85.9874 448.187 83.849 448.591C81.7106 448.994 79.698 447.514 79.4464 445.227Z" fill="white"/>
<path d="M74.4147 432.981C74.1631 430.828 75.5468 428.809 77.5594 428.54C79.6978 428.271 81.5846 429.886 81.8362 432.039C82.0878 434.192 80.7041 436.076 78.6915 436.48C76.4273 436.883 74.6663 435.268 74.4147 432.981Z" fill="white"/>
<path d="M82.4654 486.674C82.0881 484.117 83.5975 481.964 85.9875 481.56C88.3775 481.156 90.5159 482.906 90.8932 485.328C91.2706 487.75 89.6354 490.172 87.3712 490.576C84.9812 490.98 82.8428 489.23 82.4654 486.674Z" fill="white"/>
<path d="M97.0567 522.468C96.8051 519.912 98.5661 517.624 100.956 517.355C103.346 517.086 105.484 518.97 105.736 521.526C105.988 524.083 104.227 526.371 101.837 526.64C99.4466 526.909 97.3083 525.16 97.0567 522.468Z" fill="white"/>
<path d="M106.868 538.887C104.478 539.156 102.34 537.272 101.962 534.715C101.585 532.024 103.346 529.601 105.988 529.332C108.378 529.063 110.642 530.947 110.893 533.504C111.271 536.061 109.258 538.752 106.868 538.887Z" fill="white"/>
<path d="M95.7989 544.268C93.2831 544.672 90.7674 542.654 90.39 539.828C90.0126 537.002 91.8995 534.445 94.541 534.176C97.1826 533.772 99.5726 535.925 99.8241 538.617C100.076 541.308 98.1889 543.865 95.7989 544.268Z" fill="white"/>
<path d="M92.4026 510.626C92.0252 508.069 93.5347 505.647 95.9247 505.243C98.3147 504.84 100.579 506.589 100.956 509.146C101.334 511.703 99.6983 513.99 97.1826 514.394C94.7926 514.798 92.78 513.183 92.4026 510.626Z" fill="white"/>
<path d="M54.4144 284.553C54.1628 282.669 55.2949 281.054 57.0559 280.785C58.817 280.516 60.578 281.862 60.8296 283.746C61.0812 285.63 59.8233 287.379 57.9365 287.514C56.1754 287.648 54.666 286.437 54.4144 284.553Z" fill="white"/>
<path d="M58.5655 251.718C60.3265 251.449 61.7102 252.66 61.9618 254.544C62.2133 256.293 60.9555 258.043 59.3202 258.177C57.685 258.312 56.0497 256.966 55.9239 255.217C55.5465 253.467 56.8044 251.853 58.5655 251.718Z" fill="white"/>
<path d="M71.2699 391.803C70.8926 389.785 72.1504 387.901 74.1631 387.632C76.1757 387.363 77.8109 388.574 78.0625 390.727C78.3141 392.745 77.0562 394.629 75.1694 394.898C73.2825 395.033 71.5215 393.687 71.2699 391.803Z" fill="white"/>
<path d="M46.9929 201.66C46.8671 199.641 48.125 198.161 50.0118 197.892C51.8986 197.758 53.5339 199.103 53.7855 200.987C54.037 203.006 52.5276 205.024 50.7665 205.159C48.7539 205.293 47.1187 203.678 46.9929 201.66Z" fill="white"/>
<path d="M55.0435 210.138C56.8046 209.869 58.314 211.08 58.5656 212.964C58.8172 214.982 57.5593 216.732 55.7983 216.866C54.163 217.001 52.5278 215.79 52.2762 214.04C51.8988 212.156 53.1567 210.407 55.0435 210.138Z" fill="white"/>
<path d="M50.8926 243.241C50.641 241.357 51.8989 239.473 53.6599 239.339C55.421 239.07 57.0562 240.415 57.3078 242.434C57.5594 244.318 56.1757 246.067 54.4146 246.202C52.6536 246.336 51.1441 245.125 50.8926 243.241Z" fill="white"/>
<path d="M59.5716 296.664C59.32 294.78 60.4521 293.3 62.2131 293.03C63.8484 292.761 65.4836 294.107 65.7352 295.856C65.861 297.606 64.6031 299.355 62.9679 299.624C61.3326 299.759 59.8232 298.548 59.5716 296.664Z" fill="white"/>
<path d="M66.1128 379.692C65.7354 377.673 67.1191 375.655 69.0059 375.386C70.8928 375.117 72.6538 376.462 72.9054 378.615C73.1569 380.768 71.8991 382.518 69.8864 382.652C68.1254 382.921 66.4902 381.576 66.1128 379.692Z" fill="white"/>
<path d="M70.767 346.32C72.5281 346.051 74.2891 347.531 74.4149 349.415C74.5407 351.299 73.2828 352.779 71.5218 352.914C69.7607 353.183 68.3771 351.972 68.1255 349.953C67.8739 348.204 69.006 346.589 70.767 346.32Z" fill="white"/>
<path d="M66.9931 305.142C68.5026 304.873 70.0121 306.084 70.3894 307.833C70.641 309.583 69.7605 311.197 68.1252 311.601C66.49 312.005 64.7289 310.794 64.4774 309.044C64.1 307.295 65.3579 305.411 66.9931 305.142Z" fill="white"/>
<path d="M62.9679 337.976C62.7163 336.092 63.8484 334.477 65.6095 334.208C67.4963 333.939 69.1315 335.285 69.2573 337.169C69.3831 338.918 68.251 340.667 66.6158 340.936C64.8547 341.34 63.2195 339.995 62.9679 337.976Z" fill="white"/>
</g>
<path opacity="0.2" d="M246.242 256.025L48.7539 328.96L51.1439 344.032L246.242 256.025ZM246.242 256.025L332.784 366.639V383.056L246.242 256.025L332.784 402.838V427.329L246.242 256.025L332.784 458.683V500.803L246.242 256.025ZM246.242 256.159L292.28 559.609L272.909 558.667L246.242 256.159ZM246.242 256.025C246.242 256.159 246.242 256.159 246.242 256.025V256.025ZM246.242 256.025L332.784 249.834V256.025H246.242ZM332.784 295.587L246.242 256.025L332.784 288.455V295.587ZM332.784 268.674L246.242 256.159L332.784 262.349V268.674ZM235.047 556.648L246.242 256.025L216.304 555.706L197.436 554.764L246.242 256.159L137.938 551.804L116.554 550.727L246.242 256.025L94.0377 549.381L82.7168 548.843L80.0752 531.349L246.242 256.159L253.915 557.725L235.047 556.648ZM75.4211 501.475L71.3958 475.235L246.242 256.025L75.4211 501.475ZM332.784 561.762L312.281 560.685L246.242 256.159L332.784 561.089V561.762ZM246.242 256.025L332.784 340.533V352.644L246.242 256.025C246.242 256.159 246.242 256.159 246.242 256.025ZM158.441 552.746L246.242 256.159L178.064 553.688L158.441 552.746ZM246.242 256.025L332.784 208.926V216.462L246.242 256.025ZM246.242 256.025L332.784 191.97V200.717L246.242 256.025ZM246.242 256.025L332.784 237.185V243.644L246.242 256.025ZM35.043 241.088L246.116 256.025H37.3072L35.043 241.088ZM246.242 256.025C246.116 256.025 246.116 256.025 246.242 256.025L32.7788 225.478L30.263 209.33L246.242 256.025ZM246.242 256.025L39.6971 270.827L41.9613 285.36L246.242 256.025L44.2255 299.624L46.4897 314.158L246.242 256.025C246.242 256.159 246.242 256.159 246.242 256.025L53.4081 359.507L55.9239 375.655L246.242 256.025L58.5654 392.88L61.3328 411.046L246.242 256.025C246.242 256.159 246.242 256.159 246.242 256.025L64.4774 430.424L67.748 451.686L246.242 256.025C246.242 256.159 246.242 256.159 246.242 256.025L332.784 329.767V320.079L246.242 256.025L332.784 311.332V303.258L246.242 256.025L332.784 281.592V274.999L246.242 256.025L332.784 230.591V223.728L246.242 256.025L332.784 159.405V145.41L246.242 256.025L332.784 128.993V109.212L246.242 256.025L332.784 84.8548V53.5006L246.242 256.025L332.784 11.381V0.211914L318.696 0.884751L246.242 256.025L301.337 1.55759L284.733 2.23043L246.242 256.025L268.506 3.03783L252.657 3.71067L246.242 256.025L236.933 4.38351L221.21 5.05634L246.242 256.025L51.8986 12.4576L25.1057 13.6687L246.242 256.025L10.8916 84.5857L14.9168 110.557L246.242 256.025L18.5647 133.837L21.8352 154.964L246.242 256.025L24.8541 174.342L27.6215 192.374L246.242 256.025ZM205.235 5.86375L246.242 256.159L189.134 6.67115L205.235 5.86375ZM155.297 8.01683L172.53 7.20942L246.242 256.025L155.297 8.01683ZM332.784 182.416L246.242 256.159L332.784 171.651V182.416ZM246.242 256.025L118.315 9.63163L137.309 8.82423L246.242 256.025ZM246.242 256.025L6.36322 54.9809L1.08008 20.8007L246.242 256.025ZM246.242 256.025L75.9242 11.5156L97.9372 10.5736L246.242 256.025Z" fill="url(#paint1_radial_236_78122)"/>
<defs>
<radialGradient id="paint0_radial_236_78122" cx="0" cy="0" r="1" gradientUnits="userSpaceOnUse" gradientTransform="translate(65.6932 90.0869) rotate(180) scale(678.6 725.961)">
<stop stop-color="#FF213D"/>
<stop offset="1" stop-color="#C4052A"/>
</radialGradient>
<radialGradient id="paint1_radial_236_78122" cx="0" cy="0" r="1" gradientUnits="userSpaceOnUse" gradientTransform="translate(249.343 256.949) rotate(180) scale(287.958 308.055)">
<stop offset="0.3414" stop-color="white" stop-opacity="0"/>
<stop offset="0.5722" stop-color="#A8A5A6" stop-opacity="0.2283"/>
<stop offset="0.8681" stop-color="#3E383A" stop-opacity="0.5208"/>
<stop offset="1" stop-color="#130C0E" stop-opacity="0.6512"/>
</radialGradient>
</defs>
</svg>
