<svg width="118" height="75" viewBox="0 0 118 75" fill="none" xmlns="http://www.w3.org/2000/svg">
<path d="M58.5943 41.5737C58.8346 41.5737 59.0101 41.6291 59.121 41.74C59.2042 41.8232 59.2365 41.9202 59.218 42.0311C59.2088 42.1235 59.1857 42.1974 59.1487 42.2528C59.121 42.299 59.0887 42.336 59.0517 42.3637C59.0055 42.3914 58.9501 42.4238 58.8854 42.4607C58.8299 42.4884 58.7653 42.5069 58.6913 42.5162C58.4511 42.5346 58.2571 42.5531 58.1092 42.5716C57.9614 42.5808 57.8366 42.5901 57.735 42.5993C57.6334 42.5993 57.5363 42.6039 57.4439 42.6132C57.3608 42.6132 57.2638 42.6178 57.1529 42.627C57.042 42.627 56.908 42.6363 56.7509 42.6548C56.5938 42.664 56.3906 42.6779 56.1411 42.6963C56.0949 42.992 56.0348 43.3801 55.9609 43.8606C55.8962 44.3411 55.8223 44.9371 55.7391 45.6485C55.4804 47.6906 55.3141 49.4 55.2402 50.7768C55.2309 50.9616 55.2356 51.1833 55.254 51.4421C55.2725 51.6915 55.3049 51.978 55.3511 52.3014C55.3603 52.3661 55.3418 52.4215 55.2956 52.4677C55.2587 52.5047 55.2125 52.5232 55.157 52.5232H55.1293C54.9722 52.4954 54.8105 52.4354 54.6442 52.343C54.6257 52.3337 54.6119 52.3245 54.6026 52.3153C54.6026 52.3153 54.5934 52.3106 54.5749 52.3014C54.3346 52.0242 54.2145 51.5622 54.2145 50.9154C54.2145 49.9175 54.2977 48.5037 54.464 46.6742C54.6303 44.8724 54.7135 43.7266 54.7135 43.2369C54.7135 43.163 54.7089 43.0937 54.6996 43.029C54.6996 42.9551 54.6996 42.8858 54.6996 42.8211C54.4594 42.8211 54.2099 42.8303 53.9512 42.8488C53.6925 42.858 53.4337 42.8811 53.175 42.9181C52.9163 42.9551 52.6714 43.0105 52.4404 43.0844C52.2094 43.1491 52.0108 43.2369 51.8444 43.3478C51.752 43.4124 51.7058 43.4633 51.7058 43.5002C51.7058 43.5187 51.7151 43.5464 51.7336 43.5834C51.752 43.6203 51.8213 43.6619 51.9415 43.7081C52.0431 43.7543 52.1771 43.7913 52.3434 43.819C52.519 43.8467 52.7223 43.8513 52.9533 43.8329C53.0641 43.8236 53.2074 43.8051 53.3829 43.7774C53.5585 43.7497 53.7248 43.7266 53.8819 43.7081C54.039 43.6896 54.1729 43.685 54.2838 43.6943C54.4039 43.7035 54.464 43.7405 54.464 43.8051C54.464 43.8421 54.4548 43.8791 54.4363 43.916C54.3254 44.1008 54.2007 44.2441 54.0621 44.3457C53.9327 44.4473 53.7895 44.5259 53.6324 44.5813C53.5308 44.6183 53.4245 44.6506 53.3136 44.6783C53.2027 44.7061 53.0133 44.7245 52.7454 44.7338C52.4127 44.743 52.1263 44.7199 51.886 44.6645C51.655 44.5998 51.461 44.512 51.3039 44.4011C51.1468 44.2718 51.0221 44.1147 50.9297 43.9299C50.8373 43.7451 50.8003 43.5187 50.8188 43.2507C50.8188 43.1861 50.8327 43.1029 50.8604 43.0013C50.8881 42.8904 50.9343 42.7795 50.999 42.6686C51.0729 42.5577 51.1745 42.4561 51.3039 42.3637C51.4333 42.2621 51.5996 42.1835 51.8029 42.1281C52.0154 42.0726 52.3203 42.0172 52.7176 41.9618C53.115 41.9063 53.577 41.8555 54.1036 41.8093C54.2792 41.8001 54.4086 41.7908 54.4917 41.7816C54.5841 41.7723 54.6627 41.7677 54.7274 41.7677C54.792 41.7585 54.8567 41.7539 54.9214 41.7539C54.9861 41.7539 55.0785 41.7539 55.1986 41.7539C55.328 41.7446 55.5035 41.7354 55.7253 41.7261C55.947 41.7169 56.2427 41.703 56.6123 41.6846C57.0651 41.6661 57.3885 41.6522 57.5825 41.643C57.7858 41.6245 57.9337 41.6106 58.0261 41.6014C58.1185 41.5922 58.1924 41.5875 58.2478 41.5875C58.3033 41.5783 58.4188 41.5737 58.5943 41.5737ZM63.4071 47.1732C63.555 47.1732 63.6289 47.3071 63.6289 47.5751C63.6289 47.5936 63.6243 47.6213 63.615 47.6583C63.615 47.6952 63.5966 47.783 63.5596 47.9216C63.5319 48.0602 63.4811 48.2635 63.4071 48.5314C63.3425 48.7902 63.2454 49.1505 63.1161 49.6125C62.8943 50.4164 62.7511 50.8969 62.6864 51.054C62.4831 51.5622 62.2059 51.8163 61.8548 51.8163C61.1895 51.8163 60.8014 51.2018 60.6906 49.9729V49.959L60.6767 49.7511V48.7671C60.5935 49.0905 60.4919 49.5017 60.3718 50.0006C60.2516 50.4996 60.1038 51.1325 59.9282 51.8994L59.9144 51.9826L59.8451 52.0242C59.7434 52.0889 59.6372 52.1212 59.5263 52.1212C59.2583 52.1212 59.0597 51.9133 58.9303 51.4975C58.801 51.0725 58.7363 50.4072 58.7363 49.5017C58.7363 49.2614 58.764 48.8502 58.8194 48.2681C58.8749 47.6767 58.9627 46.896 59.0828 45.9257C59.1937 44.974 59.2768 44.1932 59.3323 43.5834C59.3969 42.9643 59.4293 42.5208 59.4293 42.2528V41.7954L59.4431 41.7539C59.4801 41.6799 59.5448 41.606 59.6372 41.5321C59.7296 41.4582 59.8682 41.4212 60.053 41.4212H60.0946C60.418 41.4397 60.5797 41.5922 60.5797 41.8786C60.5797 42.0542 60.5473 42.2436 60.4827 42.4469C60.3995 42.6871 60.3441 42.9089 60.3163 43.1121C60.0853 44.5444 59.9098 45.7918 59.7896 46.8544C59.6788 47.917 59.6233 48.804 59.6233 49.5155C59.6326 49.534 59.6372 49.5571 59.6372 49.5848C59.6372 49.6125 59.6372 49.6495 59.6372 49.6957C59.6464 49.7327 59.6557 49.7789 59.6649 49.8343V49.862C59.7111 49.6772 59.7619 49.4739 59.8174 49.2522C59.882 49.0304 59.9513 48.7855 60.0253 48.5176C60.1823 47.8893 60.3071 47.3949 60.3995 47.0346C60.4919 46.665 60.5473 46.4247 60.5658 46.3138C60.612 46.0828 60.6813 45.935 60.7737 45.8703C60.8754 45.7964 60.9724 45.7594 61.0648 45.7594C61.1295 45.7594 61.2126 45.7825 61.3143 45.8287C61.4251 45.8749 61.5961 45.9997 61.8271 46.2029L61.9102 46.2722L61.8964 46.3831C61.6284 47.8061 61.4944 48.9703 61.4944 49.8759C61.4944 50.1808 61.5175 50.4257 61.5637 50.6105C61.6192 50.786 61.6885 50.8738 61.7716 50.8738C61.7809 50.8738 61.8132 50.8507 61.8687 50.8045C61.9241 50.7491 61.998 50.6243 62.0904 50.4303C62.1643 50.2732 62.2521 50.0792 62.3538 49.8482C62.4554 49.6079 62.5478 49.3307 62.631 49.0165C62.6772 48.8502 62.7372 48.6562 62.8111 48.4344C62.8851 48.2034 62.959 47.9447 63.0329 47.6583C63.0514 47.5843 63.0837 47.4873 63.1299 47.3672C63.1854 47.2378 63.2778 47.1732 63.4071 47.1732ZM67.0648 47.0484C67.2866 47.0484 67.3974 47.1593 67.3974 47.3811C67.3974 47.6213 67.3651 47.88 67.3004 48.1572C67.2357 48.4252 67.1341 48.7116 66.9955 49.0165C66.7275 49.6172 66.3672 49.9175 65.9144 49.9175C65.8867 49.9175 65.8497 49.9128 65.8035 49.9036C65.7573 49.8851 65.6695 49.8528 65.5402 49.8066C65.5217 49.899 65.4986 49.996 65.4709 50.0976C65.4524 50.19 65.4293 50.2917 65.4016 50.4026V50.4303C65.3184 50.6705 65.2445 50.8692 65.1798 51.0263C65.1151 51.1833 65.0551 51.3081 64.9996 51.4005C64.7594 51.7886 64.4591 51.9826 64.0987 51.9826C63.6552 51.9826 63.3272 51.7608 63.1147 51.3173C62.9206 50.92 62.8236 50.3333 62.8236 49.5571C62.8236 48.6331 62.8975 47.9909 63.0454 47.6305V47.5474C63.0361 47.4919 63.0315 47.4457 63.0315 47.4088C63.0315 47.3626 63.0315 47.321 63.0315 47.284V47.2702C63.05 47.1316 63.0869 47.0346 63.1424 46.9791C63.1516 46.9422 63.1655 46.8821 63.184 46.7989C63.2024 46.7158 63.2348 46.5818 63.281 46.397C63.3087 46.2584 63.3503 46.1475 63.4057 46.0643C63.4704 45.9812 63.5351 45.9165 63.5998 45.8703C63.6644 45.8241 63.7291 45.7964 63.7938 45.7871C63.8585 45.7687 63.9185 45.7594 63.974 45.7594C64.2604 45.7594 64.5654 45.8795 64.8888 46.1198C65.2122 46.3508 65.4247 46.6095 65.5263 46.896C65.5356 46.9329 65.5448 46.9884 65.554 47.0623C65.5725 47.1362 65.5864 47.2517 65.5956 47.4088C65.6049 47.5566 65.6141 47.7599 65.6233 48.0186C65.6326 48.2773 65.6372 48.6054 65.6372 49.0027C65.6834 49.0396 65.7388 49.0581 65.8035 49.0581C65.8867 49.0581 65.9791 49.035 66.0807 48.9888C66.1916 48.9426 66.2979 48.8133 66.3995 48.6007C66.418 48.5453 66.4503 48.439 66.4965 48.282C66.552 48.1156 66.6213 47.8431 66.7044 47.4642C66.7599 47.187 66.88 47.0484 67.0648 47.0484ZM64.4314 50.652C64.57 50.3471 64.6578 50.1115 64.6947 49.9452C64.7409 49.7696 64.764 49.6449 64.764 49.571C64.764 49.4416 64.7548 49.2891 64.7363 49.1136C64.7178 48.938 64.6901 48.744 64.6531 48.5314C64.5977 48.2358 64.5607 48.0325 64.5423 47.9216C64.533 47.8107 64.5284 47.7322 64.5284 47.686C64.5284 47.6398 64.5284 47.589 64.5284 47.5335C64.5284 47.4781 64.5376 47.4134 64.5561 47.3395C64.5654 47.2656 64.57 47.2055 64.57 47.1593C64.57 47.1039 64.57 47.0623 64.57 47.0346C64.57 46.9052 64.5469 46.822 64.5007 46.7851C64.4545 46.7389 64.3944 46.7158 64.3205 46.7158C64.3113 46.725 64.2928 46.7481 64.2651 46.7851C64.2466 46.822 64.2189 46.8867 64.1819 46.9791C64.1542 47.0623 64.1172 47.1824 64.071 47.3395C64.034 47.4966 63.9925 47.6998 63.9463 47.9493C63.8723 48.3374 63.8169 48.6793 63.7799 48.975C63.743 49.2614 63.7245 49.5109 63.7245 49.7234C63.7245 49.8528 63.7291 49.996 63.7384 50.1531C63.7476 50.3102 63.7661 50.4626 63.7938 50.6105C63.8308 50.7491 63.877 50.8692 63.9324 50.9708C63.9878 51.0632 64.0618 51.114 64.1542 51.1233C64.1727 51.1048 64.2004 51.0678 64.2373 51.0124C64.2835 50.9477 64.3482 50.8276 64.4314 50.652ZM73.1036 46.9514C73.1775 46.9514 73.2468 46.9791 73.3115 47.0346C73.3762 47.09 73.4085 47.187 73.4085 47.3256C73.4085 47.3533 73.4039 47.3949 73.3946 47.4504C73.3946 47.5058 73.3854 47.5843 73.3669 47.686C73.3484 47.7876 73.3207 47.917 73.2838 48.0741C73.2468 48.2311 73.196 48.4252 73.1313 48.6562C73.0297 48.9981 72.928 49.3261 72.8264 49.6403C72.7247 49.9544 72.6185 50.2547 72.5076 50.5412C72.1934 51.3912 71.8146 51.8163 71.3711 51.8163C70.8536 51.8163 70.5395 51.3358 70.4286 50.3748C70.4193 50.3748 70.4147 50.3702 70.4147 50.361V50.0283C70.35 50.2316 70.2946 50.4026 70.2484 50.5412C70.2114 50.6705 70.1791 50.7675 70.1514 50.8322C69.9019 51.4883 69.6062 51.8163 69.2643 51.8163C69.1812 51.8163 69.098 51.8024 69.0148 51.7747C68.9317 51.747 68.8531 51.6915 68.7792 51.6084C68.7145 51.5252 68.6591 51.4143 68.6129 51.2757C68.5667 51.1279 68.5436 50.9431 68.5436 50.7213C68.5436 50.6012 68.5713 50.2085 68.6268 49.5432C68.6452 49.3584 68.6545 49.1829 68.6545 49.0165C68.6637 48.8502 68.673 48.6931 68.6822 48.5453C68.6545 48.6285 68.6268 48.7486 68.599 48.9057C68.3958 49.9221 68.2525 50.5689 68.1694 50.8461C67.9199 51.6315 67.6011 52.0242 67.213 52.0242C67.0652 52.0242 66.9497 51.9734 66.8665 51.8717C66.7834 51.7608 66.7187 51.6269 66.6725 51.4698C66.6263 51.3035 66.5939 51.1233 66.5755 50.9292C66.5662 50.7352 66.5616 50.5458 66.5616 50.361C66.5616 50.2593 66.5616 50.13 66.5616 49.9729C66.5708 49.8066 66.5801 49.6079 66.5893 49.3769C66.5986 49.1829 66.6032 49.0212 66.6032 48.8918C66.6032 48.7532 66.6032 48.6377 66.6032 48.5453L66.4923 48.2404C66.4831 48.2311 66.4784 48.2127 66.4784 48.1849C66.4415 47.6398 66.5062 47.2748 66.6725 47.09C66.7649 46.9976 66.8758 46.9514 67.0051 46.9514C67.0606 46.9514 67.1206 46.9606 67.1853 46.9791C67.2592 46.9976 67.3239 47.0346 67.3794 47.09C67.4348 47.1454 67.481 47.224 67.518 47.3256C67.5642 47.4273 67.5873 47.5612 67.5873 47.7276C67.5873 48.1156 67.5503 48.4806 67.4764 48.8225C67.4117 49.1089 67.3794 49.4647 67.3794 49.8897C67.3794 49.9914 67.3794 50.093 67.3794 50.1947C67.3794 50.2871 67.384 50.3795 67.3932 50.4719C67.4117 50.4072 67.4302 50.3471 67.4487 50.2917C67.4671 50.227 67.4856 50.1623 67.5041 50.0976C67.615 49.4878 67.7166 48.9842 67.809 48.5869C67.9014 48.1803 67.9938 47.8615 68.0862 47.6305C68.1047 47.5843 68.1324 47.5197 68.1694 47.4365C68.2063 47.3441 68.2525 47.2563 68.308 47.1732C68.3727 47.0808 68.4466 47.0022 68.5297 46.9375C68.6221 46.8729 68.7284 46.8405 68.8485 46.8405C68.9224 46.8405 69.0056 46.8636 69.098 46.9098C69.1996 46.956 69.2874 47.0577 69.3613 47.2147C69.4537 47.3995 69.4999 47.6767 69.4999 48.0463V48.0602C69.4537 48.4852 69.4168 48.8687 69.3891 49.2106C69.3613 49.5432 69.3475 49.8343 69.3475 50.0838C69.3475 50.1854 69.3475 50.2686 69.3475 50.3333C69.3567 50.3887 69.3613 50.4395 69.3613 50.4857C69.4168 50.4118 69.4861 50.2593 69.5692 50.0283C69.6616 49.7973 69.7725 49.437 69.9019 48.9472C70.0035 48.5684 70.0821 48.2635 70.1375 48.0325C70.193 47.7922 70.2345 47.6028 70.2623 47.4642C70.29 47.3256 70.3038 47.2332 70.3038 47.187C70.3038 47.1316 70.3038 47.0946 70.3038 47.0761V47.0068C70.3223 46.9422 70.3639 46.8729 70.4286 46.7989C70.4933 46.7158 70.6226 46.6742 70.8167 46.6742C70.983 46.6742 71.2094 46.7666 71.4958 46.9514C71.579 47.0068 71.6067 47.0761 71.579 47.1593C71.3387 48.3143 71.2186 49.266 71.2186 50.0145C71.2186 50.227 71.2232 50.3979 71.2325 50.5273C71.2509 50.6474 71.2694 50.7398 71.2879 50.8045C71.3156 50.8784 71.3433 50.9292 71.3711 50.957C71.3803 50.957 71.3988 50.9477 71.4265 50.9292C71.4635 50.9108 71.5097 50.8646 71.5651 50.7906C71.6298 50.7075 71.7037 50.5827 71.7869 50.4164C71.87 50.2409 71.9624 50.0006 72.0641 49.6957V49.6818C72.0733 49.6726 72.0872 49.6403 72.1056 49.5848C72.1241 49.5201 72.1518 49.4139 72.1888 49.266C72.235 49.1182 72.2904 48.9149 72.3551 48.6562C72.4291 48.3975 72.5215 48.0648 72.6323 47.6583C72.6508 47.6121 72.6647 47.5612 72.6739 47.5058C72.6924 47.4504 72.7109 47.3949 72.7294 47.3395L72.7571 47.2147V47.2009C72.8218 47.0346 72.9373 46.9514 73.1036 46.9514ZM73.7768 47.0068C73.7768 47.1916 73.8045 47.4226 73.8599 47.6998C73.9246 47.977 74.017 48.3097 74.1371 48.6978C74.2665 49.1043 74.3589 49.4508 74.4143 49.7373C74.4698 50.0145 74.4975 50.2409 74.4975 50.4164C74.4975 50.8969 74.3958 51.285 74.1926 51.5807C73.9616 51.9225 73.6797 52.0935 73.3471 52.0935C72.996 52.0935 72.6818 51.941 72.4046 51.6361C72.2106 51.4328 72.1136 51.2295 72.1136 51.0263C72.1136 50.7398 72.206 50.5735 72.3908 50.5273C72.4 50.5273 72.4092 50.5273 72.4185 50.5273C72.4185 50.5181 72.4231 50.5134 72.4323 50.5134C72.4785 50.5134 72.5386 50.5365 72.6125 50.5827C72.6864 50.6197 72.728 50.7306 72.7373 50.9154C72.8666 51.1833 72.9867 51.3173 73.0976 51.3173C73.1438 51.3173 73.1946 51.3081 73.2501 51.2896C73.3148 51.2619 73.3748 51.1972 73.4303 51.0956C73.5319 50.9108 73.5827 50.6659 73.5827 50.361C73.5827 50.0006 73.4903 49.5017 73.3055 48.8641V48.8502C73.287 48.804 73.2686 48.7532 73.2501 48.6978C73.2408 48.6331 73.227 48.573 73.2085 48.5176C73.1715 48.6285 73.1392 48.744 73.1115 48.8641C73.0838 48.975 73.0514 49.0858 73.0145 49.1967V49.2106C72.996 49.2475 72.9729 49.303 72.9452 49.3769C72.9174 49.4508 72.8805 49.5248 72.8343 49.5987C72.7881 49.6634 72.7326 49.7234 72.668 49.7789C72.6033 49.8251 72.5247 49.8482 72.4323 49.8482C72.3584 49.8482 72.2891 49.8297 72.2244 49.7927C72.1228 49.7465 72.0905 49.6726 72.1274 49.571C72.1921 49.3122 72.2568 49.0535 72.3215 48.7948C72.3861 48.5361 72.4508 48.282 72.5155 48.0325C72.5894 47.783 72.6402 47.5197 72.668 47.2425C72.6957 46.956 72.7095 46.6557 72.7095 46.3415C72.7095 46.1567 72.7604 46.0135 72.862 45.9119C72.9636 45.801 73.1069 45.7456 73.2917 45.7456C73.4303 45.7456 73.5411 45.764 73.6243 45.801C73.7167 45.838 73.7814 45.8842 73.8183 45.9396C73.8645 45.9858 73.8923 46.0366 73.9015 46.0921C73.92 46.1383 73.9292 46.1798 73.9292 46.2168C73.9292 46.2353 73.9246 46.2676 73.9154 46.3138C73.9061 46.36 73.883 46.4524 73.8461 46.591C73.7999 46.7758 73.7768 46.9144 73.7768 47.0068ZM79.3683 47.0484C79.5901 47.0484 79.701 47.1593 79.701 47.3811C79.701 47.6213 79.6686 47.88 79.604 48.1572C79.5393 48.4252 79.4376 48.7116 79.299 49.0165C79.0311 49.6172 78.6707 49.9175 78.218 49.9175C78.1902 49.9175 78.1533 49.9128 78.1071 49.9036C78.0609 49.8851 77.9731 49.8528 77.8437 49.8066C77.8252 49.899 77.8021 49.996 77.7744 50.0976C77.7559 50.19 77.7328 50.2917 77.7051 50.4026V50.4303C77.622 50.6705 77.548 50.8692 77.4834 51.0263C77.4187 51.1833 77.3586 51.3081 77.3032 51.4005C77.0629 51.7886 76.7626 51.9826 76.4023 51.9826C75.9588 51.9826 75.6307 51.7608 75.4182 51.3173C75.2242 50.92 75.1271 50.3333 75.1271 49.5571C75.1271 48.6331 75.2011 47.9909 75.3489 47.6305V47.5474C75.3397 47.4919 75.3351 47.4457 75.3351 47.4088C75.3351 47.3626 75.3351 47.321 75.3351 47.284V47.2702C75.3535 47.1316 75.3905 47.0346 75.4459 46.9791C75.4552 46.9422 75.469 46.8821 75.4875 46.7989C75.506 46.7158 75.5383 46.5818 75.5845 46.397C75.6123 46.2584 75.6538 46.1475 75.7093 46.0643C75.774 45.9812 75.8386 45.9165 75.9033 45.8703C75.968 45.8241 76.0327 45.7964 76.0974 45.7871C76.162 45.7687 76.2221 45.7594 76.2775 45.7594C76.564 45.7594 76.8689 45.8795 77.1923 46.1198C77.5157 46.3508 77.7282 46.6095 77.8299 46.896C77.8391 46.9329 77.8484 46.9884 77.8576 47.0623C77.8761 47.1362 77.8899 47.2517 77.8992 47.4088C77.9084 47.5566 77.9177 47.7599 77.9269 48.0186C77.9361 48.2773 77.9408 48.6054 77.9408 49.0027C77.987 49.0396 78.0424 49.0581 78.1071 49.0581C78.1902 49.0581 78.2826 49.035 78.3843 48.9888C78.4952 48.9426 78.6014 48.8133 78.7031 48.6007C78.7215 48.5453 78.7539 48.439 78.8001 48.282C78.8555 48.1156 78.9248 47.8431 79.008 47.4642C79.0634 47.187 79.1835 47.0484 79.3683 47.0484ZM76.7349 50.652C76.8735 50.3471 76.9613 50.1115 76.9983 49.9452C77.0445 49.7696 77.0676 49.6449 77.0676 49.571C77.0676 49.4416 77.0583 49.2891 77.0398 49.1136C77.0214 48.938 76.9936 48.744 76.9567 48.5314C76.9012 48.2358 76.8643 48.0325 76.8458 47.9216C76.8366 47.8107 76.8319 47.7322 76.8319 47.686C76.8319 47.6398 76.8319 47.589 76.8319 47.5335C76.8319 47.4781 76.8412 47.4134 76.8597 47.3395C76.8689 47.2656 76.8735 47.2055 76.8735 47.1593C76.8735 47.1039 76.8735 47.0623 76.8735 47.0346C76.8735 46.9052 76.8504 46.822 76.8042 46.7851C76.758 46.7389 76.698 46.7158 76.624 46.7158C76.6148 46.725 76.5963 46.7481 76.5686 46.7851C76.5501 46.822 76.5224 46.8867 76.4854 46.9791C76.4577 47.0623 76.4208 47.1824 76.3746 47.3395C76.3376 47.4966 76.296 47.6998 76.2498 47.9493C76.1759 48.3374 76.1205 48.6793 76.0835 48.975C76.0465 49.2614 76.0281 49.5109 76.0281 49.7234C76.0281 49.8528 76.0327 49.996 76.0419 50.1531C76.0512 50.3102 76.0696 50.4626 76.0974 50.6105C76.1343 50.7491 76.1805 50.8692 76.236 50.9708C76.2914 51.0632 76.3653 51.114 76.4577 51.1233C76.4762 51.1048 76.5039 51.0678 76.5409 51.0124C76.5871 50.9477 76.6518 50.8276 76.7349 50.652ZM80.7837 42.2251C80.7005 42.5485 80.5943 42.8996 80.4649 43.2785C80.3356 43.6573 80.1923 44.0362 80.0353 44.415C79.8874 44.7846 79.7396 45.1357 79.5917 45.4684H78.6908C78.7555 45.2096 78.8202 44.9324 78.8849 44.6368C78.9588 44.3411 79.0235 44.0454 79.0789 43.7497C79.1436 43.4448 79.199 43.1491 79.2452 42.8627C79.3007 42.5762 79.3469 42.3129 79.3838 42.0726H80.6867L80.7837 42.2251ZM88.4872 51.3173C88.5704 51.3358 88.6674 51.3681 88.7783 51.4143C88.8892 51.4513 88.9446 51.5345 88.9446 51.6638C88.9446 51.8394 88.903 51.9919 88.8199 52.1212C88.7829 52.1674 88.7274 52.209 88.6535 52.246C88.5888 52.2829 88.5057 52.3014 88.404 52.3014C88.3763 52.2922 88.344 52.2829 88.307 52.2737C88.2701 52.2737 88.2008 52.2691 88.0991 52.2598C87.9698 52.2413 87.7619 52.2275 87.4754 52.2182C87.1982 52.209 86.8379 52.2044 86.3943 52.2044C85.7106 52.2044 85.036 52.2875 84.3708 52.4539C83.6962 52.6294 83.2388 52.7172 82.9986 52.7172C82.666 52.7172 82.4211 52.6433 82.264 52.4954C82.0792 52.3291 81.9868 52.1027 81.9868 51.8163C81.9868 51.7146 82.0284 51.6176 82.1116 51.5252C82.1947 51.4236 82.3426 51.3081 82.5551 51.1787C82.7676 51.0586 82.9247 50.9616 83.0263 50.8877C83.128 50.8137 83.1973 50.7537 83.2342 50.7075C83.7147 50.1346 84.1721 49.5432 84.6064 48.9334C85.0407 48.3235 85.4056 47.6721 85.7013 46.9791C85.997 46.2861 86.2234 45.6485 86.3805 45.0664C86.5468 44.4751 86.63 43.916 86.63 43.3893C86.63 43.2138 86.5838 43.0382 86.4914 42.8627C86.4082 42.6779 86.2927 42.5208 86.1449 42.3914C85.997 42.2528 85.8307 42.1466 85.6459 42.0726C85.4703 41.9987 85.2855 41.9756 85.0915 42.0033C84.8235 42.0311 84.5833 42.1142 84.3708 42.2528C84.1675 42.3822 83.9919 42.5346 83.8441 42.7102C83.7055 42.8858 83.59 43.0706 83.4976 43.2646C83.4144 43.4494 83.3682 43.6111 83.359 43.7497C83.3405 43.9437 83.3312 44.1193 83.3312 44.2764C83.3312 44.4242 83.3405 44.5675 83.359 44.7061C83.3774 44.8354 83.4005 44.9694 83.4283 45.108C83.456 45.2466 83.493 45.3991 83.5392 45.5654C83.5669 45.704 83.5946 45.8472 83.6223 45.995C83.65 46.1429 83.6639 46.2769 83.6639 46.397C83.6639 46.5079 83.6408 46.6003 83.5946 46.6742C83.5484 46.7481 83.4652 46.7851 83.3451 46.7851C83.1603 46.7851 82.9801 46.6742 82.8046 46.4524C82.6382 46.2307 82.4996 45.935 82.3888 45.5654C82.2871 45.1865 82.2271 44.7523 82.2086 44.2625C82.1993 43.7636 82.2686 43.2369 82.4165 42.6825C82.4627 42.5346 82.5412 42.3683 82.6521 42.1835C82.7722 41.9895 82.9293 41.8093 83.1233 41.643C83.3174 41.4674 83.553 41.3196 83.8302 41.1994C84.1074 41.0701 84.4262 40.9962 84.7866 40.9777C85.1654 40.9592 85.5442 41.01 85.9231 41.1301C86.3112 41.241 86.6577 41.4166 86.9626 41.6568C87.2675 41.8878 87.517 42.1789 87.711 42.53C87.9051 42.8811 88.0021 43.2877 88.0021 43.7497C88.0021 43.9899 87.9744 44.2487 87.9189 44.5259C87.8727 44.8031 87.7988 45.0895 87.6972 45.3852C87.5031 46.0043 87.2121 46.6788 86.824 47.4088C86.4821 48.0556 86.0987 48.6885 85.6736 49.3076C85.2578 49.9267 84.8004 50.5273 84.3015 51.1094C84.6341 51.0909 84.9621 51.0817 85.2855 51.0817C85.6089 51.0817 85.9231 51.0817 86.228 51.0817C86.3943 51.0817 86.593 51.0909 86.824 51.1094C87.0642 51.1279 87.3461 51.1556 87.6695 51.1926C87.8543 51.2203 88.0113 51.2434 88.1407 51.2619C88.2701 51.2804 88.3856 51.2988 88.4872 51.3173ZM93.3751 46.2584C93.9849 46.5725 94.4238 46.9006 94.6918 47.2425C95.0059 47.6398 95.163 48.1434 95.163 48.7532C95.163 49.9175 94.8396 50.8784 94.1928 51.6361C93.546 52.3938 92.719 52.7726 91.7118 52.7726C90.9634 52.7726 90.2334 52.4723 89.522 51.8717C89.1893 51.5945 88.9444 51.3497 88.7874 51.1371C88.6395 50.9246 88.5656 50.7306 88.5656 50.555C88.5656 50.2316 88.6118 50.0607 88.7042 50.0422C88.8058 50.0145 88.9398 50.0699 89.1061 50.2085C89.2817 50.3379 89.4804 50.5181 89.7021 50.7491C89.9239 50.9708 90.1595 51.1695 90.409 51.345C90.5846 51.4744 90.7601 51.576 90.9357 51.65C91.1205 51.7239 91.3376 51.7608 91.5871 51.7608C91.8366 51.7608 92.1276 51.6962 92.4603 51.5668C92.7929 51.4374 93.0701 51.2203 93.2919 50.9154C93.5321 50.592 93.7031 50.2501 93.8047 49.8897C93.9156 49.5294 93.971 49.1644 93.971 48.7948C93.971 48.5453 93.9248 48.3004 93.8324 48.0602C93.7493 47.82 93.6292 47.6305 93.4721 47.4919C93.2041 47.2609 92.9639 47.127 92.7514 47.09C92.5388 47.0438 92.3448 47.0484 92.1692 47.1039C91.9937 47.1501 91.832 47.2194 91.6841 47.3118C91.5455 47.3949 91.4069 47.4504 91.2683 47.4781C90.871 47.552 90.6723 47.4319 90.6723 47.1177C90.6723 46.8867 90.7694 46.6511 90.9634 46.4108C91.1205 46.2445 91.3053 46.1336 91.5178 46.0782C91.7396 46.0228 91.9659 45.9858 92.197 45.9673H92.2108C92.2478 45.9673 92.2801 45.9719 92.3078 45.9812C92.3356 45.9812 92.3633 45.9766 92.391 45.9673C92.5111 45.8657 92.6312 45.704 92.7514 45.4822C92.8715 45.2605 92.9731 45.0295 93.0563 44.7892C93.1117 44.6229 93.181 44.4242 93.2642 44.1932C93.3473 43.9622 93.4074 43.722 93.4444 43.4725C93.4906 43.223 93.4906 42.9782 93.4444 42.7379C93.3982 42.4884 93.2734 42.2667 93.0701 42.0726C92.9685 41.9802 92.8438 41.9109 92.6959 41.8647C92.5481 41.8093 92.391 41.777 92.2247 41.7677C92.0676 41.7585 91.9151 41.7816 91.7673 41.837C91.6194 41.8832 91.5039 41.9664 91.4208 42.0865C91.3469 42.1974 91.2591 42.3498 91.1574 42.5439C91.065 42.7287 91.0188 42.9643 91.0188 43.2507C91.0188 43.4448 90.9957 43.5972 90.9495 43.7081C90.9033 43.8098 90.8479 43.8883 90.7832 43.9437C90.7185 43.99 90.6492 44.0131 90.5753 44.0131C90.5014 44.0038 90.4413 43.9853 90.3951 43.9576C90.2103 43.8652 90.081 43.7636 90.0071 43.6527C89.9424 43.5418 89.9054 43.4217 89.8962 43.2923C89.8869 43.163 89.9008 43.0336 89.9378 42.9042C89.9747 42.7656 90.0071 42.627 90.0348 42.4884C90.275 41.8694 90.5337 41.4397 90.8109 41.1994C91.1066 40.9315 91.4947 40.7975 91.9752 40.7975C92.3356 40.7975 92.6821 40.8483 93.0147 40.95C93.3473 41.0516 93.6384 41.1994 93.8879 41.3935C94.1466 41.5875 94.3499 41.8324 94.4977 42.1281C94.6548 42.4145 94.7333 42.7472 94.7333 43.126C94.7333 43.6619 94.5994 44.221 94.3314 44.8031C94.2205 45.0433 94.0865 45.2836 93.9295 45.5238C93.7724 45.764 93.5876 46.0089 93.3751 46.2584Z" fill="white"/>
<path d="M59.6709 31.633C59.7538 31.633 59.8202 31.6455 59.8699 31.6703C59.9197 31.6911 59.957 31.718 59.9818 31.7512C60.0067 31.7843 60.0233 31.8175 60.0316 31.8507C60.0399 31.8838 60.044 31.9128 60.044 31.9377C60.044 31.9792 60.0378 32.0247 60.0254 32.0745C60.0171 32.1201 60.0026 32.1781 59.9818 32.2486C59.9611 32.319 59.9466 32.3709 59.9383 32.404C59.93 32.433 59.9259 32.4538 59.9259 32.4662V32.4724C59.8347 33.1688 59.7684 33.7823 59.7269 34.3128C59.6855 34.8434 59.6647 35.2931 59.6647 35.6621C59.6647 35.8237 59.6668 35.9709 59.6709 36.1035C59.6792 36.2361 59.6937 36.3564 59.7145 36.4641V36.4766V36.4828C59.7145 36.545 59.6855 36.5906 59.6274 36.6196C59.6067 36.6279 59.586 36.6341 59.5652 36.6382C59.5487 36.6424 59.5279 36.6444 59.5031 36.6444C59.4326 36.6444 59.3746 36.632 59.329 36.6071C59.2875 36.5823 59.2461 36.547 59.2046 36.5014C59.13 36.4102 59.0927 36.2817 59.0927 36.1159C59.0927 35.9709 59.101 35.7698 59.1176 35.5128C59.1383 35.2558 59.1694 34.9429 59.2108 34.574C59.2481 34.2589 59.273 33.9957 59.2855 33.7843C59.302 33.5729 59.3083 33.4133 59.3041 33.3056C59.1963 33.2061 59.1425 33.1066 59.1425 33.0071C59.1425 32.9781 59.1487 32.9242 59.1611 32.8455C59.1777 32.7667 59.2129 32.6341 59.2668 32.4475C59.3083 32.3149 59.3393 32.1926 59.3601 32.0807C59.3808 31.9688 59.3953 31.8652 59.4036 31.7698L59.4098 31.689L59.4782 31.6703C59.5197 31.6579 59.5528 31.6496 59.5777 31.6455C59.6026 31.6372 59.6336 31.633 59.6709 31.633ZM62.5423 33.9149C62.8159 34.0558 63.0128 34.203 63.133 34.3564C63.2739 34.5346 63.3444 34.7605 63.3444 35.0341C63.3444 35.5564 63.1993 35.9874 62.9092 36.3273C62.619 36.6672 62.248 36.8372 61.7962 36.8372C61.4605 36.8372 61.133 36.7025 60.8138 36.433C60.6646 36.3087 60.5548 36.1988 60.4843 36.1035C60.418 36.0082 60.3848 35.9211 60.3848 35.8424C60.3848 35.6973 60.4055 35.6206 60.447 35.6123C60.4926 35.5999 60.5527 35.6247 60.6273 35.6869C60.7061 35.745 60.7952 35.8258 60.8947 35.9294C60.9941 36.0289 61.0998 36.118 61.2118 36.1968C61.2905 36.2548 61.3693 36.3004 61.448 36.3336C61.5309 36.3667 61.6283 36.3833 61.7402 36.3833C61.8522 36.3833 61.9827 36.3543 62.132 36.2963C62.2812 36.2382 62.4055 36.1408 62.505 36.004C62.6128 35.8589 62.6895 35.7056 62.7351 35.5439C62.7848 35.3823 62.8097 35.2185 62.8097 35.0527C62.8097 34.9408 62.789 34.831 62.7475 34.7232C62.7102 34.6154 62.6563 34.5304 62.5858 34.4683C62.4656 34.3646 62.3579 34.3045 62.2625 34.288C62.1672 34.2672 62.0801 34.2693 62.0014 34.2942C61.9226 34.3149 61.8501 34.346 61.7838 34.3874C61.7216 34.4247 61.6594 34.4496 61.5972 34.4621C61.419 34.4952 61.3299 34.4413 61.3299 34.3004C61.3299 34.1968 61.3734 34.0911 61.4605 33.9833C61.5309 33.9087 61.6138 33.8589 61.7092 33.8341C61.8086 33.8092 61.9102 33.7926 62.0138 33.7843H62.02C62.0366 33.7843 62.0511 33.7864 62.0636 33.7906C62.076 33.7906 62.0884 33.7885 62.1009 33.7843C62.1548 33.7387 62.2086 33.6662 62.2625 33.5667C62.3164 33.4672 62.362 33.3636 62.3993 33.2558C62.4242 33.1812 62.4553 33.0921 62.4926 32.9885C62.5299 32.8849 62.5568 32.7771 62.5734 32.6652C62.5941 32.5532 62.5941 32.4434 62.5734 32.3356C62.5527 32.2237 62.4967 32.1242 62.4055 32.0372C62.3599 31.9957 62.304 31.9646 62.2377 31.9439C62.1713 31.919 62.1009 31.9045 62.0263 31.9004C61.9558 31.8963 61.8874 31.9066 61.8211 31.9315C61.7548 31.9522 61.7029 31.9895 61.6656 32.0434C61.6325 32.0931 61.5931 32.1615 61.5475 32.2486C61.5061 32.3315 61.4853 32.4372 61.4853 32.5657C61.4853 32.6527 61.475 32.7211 61.4542 32.7709C61.4335 32.8165 61.4086 32.8517 61.3796 32.8766C61.3506 32.8973 61.3195 32.9077 61.2864 32.9077C61.2532 32.9035 61.2263 32.8952 61.2055 32.8828C61.1226 32.8413 61.0646 32.7957 61.0314 32.746C61.0024 32.6963 60.9858 32.6424 60.9817 32.5843C60.9776 32.5263 60.9838 32.4683 61.0004 32.4102C61.0169 32.3481 61.0314 32.2859 61.0439 32.2237C61.1516 31.946 61.2677 31.7532 61.3921 31.6455C61.5247 31.5253 61.6988 31.4652 61.9143 31.4652C62.076 31.4652 62.2314 31.488 62.3807 31.5336C62.5299 31.5792 62.6605 31.6455 62.7724 31.7325C62.8884 31.8196 62.9796 31.9294 63.0459 32.0621C63.1164 32.1906 63.1516 32.3398 63.1516 32.5097C63.1516 32.7501 63.0915 33.0009 62.9713 33.2621C62.9216 33.3698 62.8615 33.4776 62.791 33.5854C62.7206 33.6931 62.6377 33.803 62.5423 33.9149ZM65.1823 31.3874C65.2171 31.3924 65.2345 31.4111 65.2345 31.4434V31.4695C65.2345 31.482 65.2308 31.4931 65.2233 31.5031C65.2158 31.513 65.1997 31.523 65.1748 31.5329C65.1499 31.5429 65.094 31.5553 65.0069 31.5702C64.9497 31.5827 64.9025 31.5901 64.8652 31.5926C64.8278 31.5951 64.7955 31.5964 64.7682 31.5964L64.6525 31.6038C64.6475 31.6386 64.6413 31.6946 64.6339 31.7717C64.6289 31.8463 64.6202 31.9396 64.6077 32.0515C64.5978 32.146 64.5903 32.2231 64.5854 32.2828C64.5804 32.3425 64.5754 32.3897 64.5704 32.4245C64.568 32.4594 64.5655 32.4842 64.563 32.4992C64.563 32.5141 64.563 32.524 64.563 32.529C64.563 32.6484 64.563 32.7454 64.563 32.82C64.5655 32.8921 64.568 32.9418 64.5704 32.9692C64.5779 33.0488 64.5878 33.101 64.6003 33.1259C64.6152 33.1508 64.6252 33.1632 64.6301 33.1632C64.6401 33.1582 64.65 33.1495 64.66 33.1371C64.6699 33.1246 64.6811 33.1072 64.6935 33.0849C64.7085 33.0625 64.7259 33.0301 64.7458 32.9879C64.7731 32.9207 64.8017 32.8361 64.8316 32.7342C64.8639 32.6297 64.8962 32.5091 64.9286 32.3723C64.936 32.34 64.9435 32.3126 64.951 32.2902C64.9584 32.2679 64.9646 32.248 64.9696 32.2306C64.9746 32.2181 64.982 32.202 64.992 32.1821C65.0044 32.1622 65.0231 32.1522 65.048 32.1522C65.0703 32.1522 65.0915 32.1609 65.1114 32.1783C65.1313 32.1932 65.1412 32.2218 65.1412 32.2641C65.1412 32.3114 65.13 32.3835 65.1076 32.4805C65.0853 32.575 65.0492 32.6969 64.9995 32.8461C64.9348 33.0376 64.8714 33.1794 64.8092 33.2714C64.7495 33.3609 64.6861 33.4057 64.6189 33.4057C64.5244 33.4057 64.4486 33.3336 64.3914 33.1893C64.3416 33.06 64.3168 32.8996 64.3168 32.7081C64.3168 32.6459 64.3242 32.5265 64.3391 32.3499C64.3566 32.1733 64.3827 31.9271 64.4175 31.6113C64.3951 31.6163 64.374 31.6163 64.3541 31.6113C64.3342 31.6038 64.3205 31.5976 64.313 31.5926C64.3081 31.5901 64.3018 31.5852 64.2944 31.5777C64.2869 31.5702 64.2732 31.5628 64.2533 31.5553C64.2185 31.5429 64.1974 31.528 64.1899 31.5106C64.18 31.4907 64.175 31.4745 64.175 31.4621C64.175 31.4546 64.18 31.4422 64.1899 31.4247C64.1974 31.4049 64.226 31.3899 64.2757 31.38C64.2906 31.3775 64.3031 31.3763 64.313 31.3763C64.323 31.3738 64.3329 31.3725 64.3429 31.3725C64.3528 31.37 64.364 31.3688 64.3764 31.3688C64.3914 31.3663 64.41 31.3638 64.4324 31.3613C64.4349 31.334 64.4374 31.3004 64.4399 31.2606C64.4424 31.2208 64.4448 31.1748 64.4473 31.1226L64.4287 31.0592C64.4287 31.0442 64.4299 31.033 64.4324 31.0256C64.4523 30.9858 64.4834 30.9659 64.5257 30.9659C64.5704 30.9659 64.6339 30.992 64.7159 31.0442C64.7309 31.0567 64.7383 31.0716 64.7383 31.089V31.1748V31.186C64.7333 31.2133 64.7271 31.242 64.7197 31.2718C64.7147 31.2992 64.7085 31.3302 64.701 31.3651C64.7184 31.3651 64.7284 31.3651 64.7309 31.3651C64.7358 31.3651 64.7396 31.3663 64.742 31.3688C64.7445 31.3688 64.7508 31.37 64.7607 31.3725C64.7706 31.3725 64.793 31.3725 64.8278 31.3725C64.8602 31.3725 64.8851 31.3738 64.9025 31.3763C64.9224 31.3763 64.9423 31.3775 64.9621 31.38C64.9845 31.38 65.0119 31.3812 65.0442 31.3837C65.0766 31.3837 65.1226 31.385 65.1823 31.3874ZM66.4439 32.1858C66.4837 32.1858 66.5036 32.2218 66.5036 32.294C66.5036 32.2989 66.5024 32.3064 66.4999 32.3164C66.4999 32.3263 66.4949 32.3499 66.485 32.3872C66.4775 32.4245 66.4638 32.4793 66.4439 32.5514C66.4265 32.621 66.4004 32.718 66.3656 32.8424C66.3059 33.0587 66.2674 33.1881 66.25 33.2303C66.1952 33.3671 66.1206 33.4355 66.0261 33.4355C65.8471 33.4355 65.7426 33.2701 65.7128 32.9394V32.9356L65.709 32.8797V32.6148C65.6866 32.7018 65.6593 32.8125 65.6269 32.9468C65.5946 33.0811 65.5548 33.2515 65.5076 33.4579L65.5038 33.4803L65.4852 33.4915C65.4578 33.5089 65.4292 33.5176 65.3994 33.5176C65.3273 33.5176 65.2738 33.4616 65.239 33.3497C65.2042 33.2353 65.1867 33.0563 65.1867 32.8125C65.1867 32.7479 65.1942 32.6372 65.2091 32.4805C65.224 32.3213 65.2477 32.1112 65.28 31.85C65.3099 31.5939 65.3322 31.3837 65.3472 31.2196C65.3646 31.0529 65.3733 30.9336 65.3733 30.8614V30.7383L65.377 30.7271C65.3869 30.7072 65.4044 30.6873 65.4292 30.6674C65.4541 30.6475 65.4914 30.6376 65.5411 30.6376H65.5523C65.6394 30.6426 65.6829 30.6836 65.6829 30.7607C65.6829 30.808 65.6742 30.8589 65.6568 30.9137C65.6344 30.9783 65.6195 31.038 65.612 31.0927C65.5499 31.4782 65.5026 31.814 65.4703 32.1C65.4404 32.386 65.4255 32.6247 65.4255 32.8163C65.428 32.8212 65.4292 32.8274 65.4292 32.8349C65.4292 32.8424 65.4292 32.8523 65.4292 32.8647C65.4317 32.8747 65.4342 32.8871 65.4367 32.9021V32.9095C65.4491 32.8598 65.4628 32.8051 65.4777 32.7454C65.4951 32.6857 65.5138 32.6198 65.5337 32.5477C65.576 32.3785 65.6095 32.2455 65.6344 32.1485C65.6593 32.049 65.6742 31.9843 65.6792 31.9545C65.6916 31.8923 65.7103 31.8525 65.7351 31.8351C65.7625 31.8152 65.7886 31.8053 65.8135 31.8053C65.8309 31.8053 65.8533 31.8115 65.8806 31.8239C65.9105 31.8364 65.9565 31.8699 66.0187 31.9246L66.041 31.9433L66.0373 31.9731C65.9652 32.3561 65.9291 32.6695 65.9291 32.9132C65.9291 32.9953 65.9353 33.0612 65.9478 33.111C65.9627 33.1582 65.9814 33.1818 66.0037 33.1818C66.0062 33.1818 66.0149 33.1756 66.0299 33.1632C66.0448 33.1483 66.0647 33.1147 66.0895 33.0625C66.1094 33.0202 66.1331 32.968 66.1604 32.9058C66.1878 32.8411 66.2126 32.7665 66.235 32.682C66.2475 32.6372 66.2636 32.585 66.2835 32.5253C66.3034 32.4631 66.3233 32.3935 66.3432 32.3164C66.3482 32.2965 66.3569 32.2703 66.3693 32.238C66.3843 32.2032 66.4091 32.1858 66.4439 32.1858ZM70.5022 34.6175C70.5022 34.6631 70.4919 34.7128 70.4711 34.7667C70.4546 34.8206 70.4235 34.8475 70.3779 34.8475C70.2867 34.8475 70.1333 34.8475 69.9178 34.8475C69.7064 34.8475 69.4287 34.8434 69.0846 34.8351C68.8732 34.831 68.7136 34.8268 68.6059 34.8227C68.5022 34.8185 68.4048 34.8165 68.3136 34.8165C68.2266 34.8123 68.1188 34.8102 67.9903 34.8102C67.866 34.8102 67.6774 34.8102 67.4245 34.8102C67.3872 34.8102 67.3478 34.7916 67.3064 34.7543C67.2691 34.717 67.2504 34.6569 67.2504 34.574C67.2504 34.4579 67.2649 34.3874 67.2939 34.3626C67.323 34.3336 67.3561 34.319 67.3934 34.319C67.4059 34.3232 67.4183 34.3253 67.4307 34.3253C67.4473 34.3253 67.4618 34.3253 67.4743 34.3253C67.5116 34.3253 67.5758 34.3273 67.667 34.3315C67.7582 34.3356 67.8639 34.3398 67.9841 34.3439C68.1043 34.3439 68.2307 34.346 68.3634 34.3501C68.496 34.3543 68.6204 34.3584 68.7364 34.3626C68.8566 34.3626 68.9603 34.3646 69.0473 34.3688C69.1385 34.3688 69.1986 34.3688 69.2276 34.3688C69.4183 34.3729 69.6007 34.375 69.7748 34.375C69.9489 34.375 70.1188 34.3709 70.2846 34.3626C70.2888 34.3626 70.3033 34.3626 70.3281 34.3626C70.353 34.3626 70.3779 34.3709 70.4027 34.3874C70.4276 34.404 70.4504 34.431 70.4711 34.4683C70.4919 34.5014 70.5022 34.5512 70.5022 34.6175ZM73.2256 31.633C73.3085 31.633 73.3748 31.6455 73.4246 31.6703C73.4743 31.6911 73.5116 31.718 73.5365 31.7512C73.5613 31.7843 73.5779 31.8175 73.5862 31.8507C73.5945 31.8838 73.5987 31.9128 73.5987 31.9377C73.5987 31.9792 73.5924 32.0247 73.58 32.0745C73.5717 32.1201 73.5572 32.1781 73.5365 32.2486C73.5158 32.319 73.5012 32.3709 73.493 32.404C73.4847 32.433 73.4805 32.4538 73.4805 32.4662V32.4724C73.3893 33.1688 73.323 33.7823 73.2816 34.3128C73.2401 34.8434 73.2194 35.2931 73.2194 35.6621C73.2194 35.8237 73.2215 35.9709 73.2256 36.1035C73.2339 36.2361 73.2484 36.3564 73.2691 36.4641V36.4766V36.4828C73.2691 36.545 73.2401 36.5906 73.1821 36.6196C73.1613 36.6279 73.1406 36.6341 73.1199 36.6382C73.1033 36.6424 73.0826 36.6444 73.0577 36.6444C72.9873 36.6444 72.9292 36.632 72.8836 36.6071C72.8422 36.5823 72.8007 36.547 72.7593 36.5014C72.6847 36.4102 72.6474 36.2817 72.6474 36.1159C72.6474 35.9709 72.6556 35.7698 72.6722 35.5128C72.693 35.2558 72.724 34.9429 72.7655 34.574C72.8028 34.2589 72.8277 33.9957 72.8401 33.7843C72.8567 33.5729 72.8629 33.4133 72.8588 33.3056C72.751 33.2061 72.6971 33.1066 72.6971 33.0071C72.6971 32.9781 72.7033 32.9242 72.7158 32.8455C72.7323 32.7667 72.7676 32.6341 72.8215 32.4475C72.8629 32.3149 72.894 32.1926 72.9147 32.0807C72.9354 31.9688 72.9499 31.8652 72.9582 31.7698L72.9645 31.689L73.0328 31.6703C73.0743 31.6579 73.1075 31.6496 73.1323 31.6455C73.1572 31.6372 73.1883 31.633 73.2256 31.633ZM76.7588 34.0703C77.0613 34.3605 77.2126 34.7128 77.2126 35.1273C77.2126 35.6082 77.0572 36.0082 76.7463 36.3273C76.4396 36.6341 76.0396 36.7874 75.5463 36.7874C75.3805 36.7874 75.2147 36.7688 75.0489 36.7315C74.8873 36.6983 74.7277 36.6444 74.5702 36.5698C74.2261 36.4165 74.0541 36.2403 74.0541 36.0413C74.0541 35.9584 74.0873 35.8942 74.1536 35.8486C74.2033 35.8113 74.2759 35.7926 74.3712 35.7926C74.3878 35.7926 74.4085 35.7968 74.4334 35.8051C74.4624 35.8092 74.4955 35.8216 74.5328 35.8424C74.5743 35.8631 74.622 35.8942 74.6759 35.9356C74.7297 35.9729 74.7961 36.0227 74.8748 36.0849C75.0738 36.2507 75.2479 36.3336 75.3971 36.3336C75.5753 36.3336 75.7349 36.3004 75.8759 36.2341C76.0168 36.1678 76.1474 36.0683 76.2676 35.9356C76.5038 35.6703 76.622 35.3367 76.622 34.9346C76.622 34.69 76.5619 34.4973 76.4417 34.3564C76.3215 34.2237 76.1619 34.1574 75.9629 34.1574C75.8468 34.1574 75.7204 34.174 75.5836 34.2071C75.451 34.2361 75.3328 34.2817 75.2292 34.3439C75.1878 34.3688 75.1546 34.3916 75.1297 34.4123C75.1049 34.4289 75.0821 34.4475 75.0613 34.4683C75.0406 34.4849 75.0178 34.5035 74.993 34.5242C74.9681 34.545 74.937 34.5678 74.8997 34.5926L74.8748 34.6051H74.8437C74.7608 34.6051 74.6759 34.5491 74.5888 34.4372C74.5018 34.3253 74.4582 34.2196 74.4582 34.1201C74.4582 34.1035 74.4562 34.0828 74.452 34.0579C74.4479 34.033 74.4437 34.002 74.4396 33.9646C74.4354 33.9273 74.4334 33.8838 74.4334 33.8341C74.4375 33.7802 74.4437 33.718 74.452 33.6475C74.4727 33.5108 74.4852 33.3968 74.4893 33.3056C74.4976 33.2102 74.5018 33.1356 74.5018 33.0817C74.5018 32.8538 74.5018 32.6735 74.5018 32.5408C74.5059 32.4082 74.5101 32.319 74.5142 32.2735C74.5266 32.1657 74.5536 32.0662 74.595 31.975C74.6199 31.9294 74.6655 31.8942 74.7318 31.8693C74.7981 31.8403 74.9038 31.8196 75.0489 31.8071C75.1567 31.7906 75.2645 31.7781 75.3722 31.7698C75.4841 31.7574 75.5981 31.747 75.7142 31.7387C76.1743 31.689 76.479 31.6641 76.6282 31.6641C76.7484 31.6641 76.8396 31.6745 76.9018 31.6952C76.9639 31.7118 77.0095 31.7429 77.0385 31.7885L77.051 31.8133V31.8507C77.051 31.8838 77.0385 31.9211 77.0137 31.9626C76.9888 31.9999 76.9474 32.0455 76.8893 32.0994C76.7816 32.1906 76.6841 32.2382 76.5971 32.2424C76.3733 32.2631 76.1847 32.2693 76.0313 32.261C75.8779 32.2527 75.7702 32.2527 75.708 32.261C75.5049 32.2942 75.3577 32.3253 75.2665 32.3543C75.1753 32.3792 75.1132 32.402 75.08 32.4227C75.0385 32.746 75.0075 33.032 74.9867 33.2807C74.9702 33.5253 74.9577 33.7139 74.9494 33.8465C74.9826 33.8382 75.022 33.8258 75.0676 33.8092C75.1132 33.7885 75.1691 33.7657 75.2354 33.7408C75.4385 33.6703 75.5753 33.6351 75.6458 33.6351C76.0976 33.6351 76.4686 33.7802 76.7588 34.0703ZM78.913 31.3874C78.9478 31.3924 78.9652 31.4111 78.9652 31.4434V31.4695C78.9652 31.482 78.9615 31.4931 78.954 31.5031C78.9466 31.513 78.9304 31.523 78.9055 31.5329C78.8807 31.5429 78.8247 31.5553 78.7377 31.5702C78.6804 31.5827 78.6332 31.5901 78.5959 31.5926C78.5586 31.5951 78.5263 31.5964 78.4989 31.5964L78.3832 31.6038C78.3783 31.6386 78.3721 31.6946 78.3646 31.7717C78.3596 31.8463 78.3509 31.9396 78.3385 32.0515C78.3285 32.146 78.3211 32.2231 78.3161 32.2828C78.3111 32.3425 78.3061 32.3897 78.3012 32.4245C78.2987 32.4594 78.2962 32.4842 78.2937 32.4992C78.2937 32.5141 78.2937 32.524 78.2937 32.529C78.2937 32.6484 78.2937 32.7454 78.2937 32.82C78.2962 32.8921 78.2987 32.9418 78.3012 32.9692C78.3086 33.0488 78.3186 33.101 78.331 33.1259C78.3459 33.1508 78.3559 33.1632 78.3609 33.1632C78.3708 33.1582 78.3808 33.1495 78.3907 33.1371C78.4007 33.1246 78.4118 33.1072 78.4243 33.0849C78.4392 33.0625 78.4566 33.0301 78.4765 32.9879C78.5039 32.9207 78.5325 32.8361 78.5623 32.7342C78.5946 32.6297 78.627 32.5091 78.6593 32.3723C78.6668 32.34 78.6742 32.3126 78.6817 32.2902C78.6892 32.2679 78.6954 32.248 78.7003 32.2306C78.7053 32.2181 78.7128 32.202 78.7227 32.1821C78.7352 32.1622 78.7538 32.1522 78.7787 32.1522C78.8011 32.1522 78.8222 32.1609 78.8421 32.1783C78.862 32.1932 78.872 32.2218 78.872 32.2641C78.872 32.3114 78.8608 32.3835 78.8384 32.4805C78.816 32.575 78.7799 32.6969 78.7302 32.8461C78.6655 33.0376 78.6021 33.1794 78.5399 33.2714C78.4802 33.3609 78.4168 33.4057 78.3497 33.4057C78.2552 33.4057 78.1793 33.3336 78.1221 33.1893C78.0724 33.06 78.0475 32.8996 78.0475 32.7081C78.0475 32.6459 78.055 32.5265 78.0699 32.3499C78.0873 32.1733 78.1134 31.9271 78.1482 31.6113C78.1258 31.6163 78.1047 31.6163 78.0848 31.6113C78.0649 31.6038 78.0512 31.5976 78.0438 31.5926C78.0388 31.5901 78.0326 31.5852 78.0251 31.5777C78.0177 31.5702 78.004 31.5628 77.9841 31.5553C77.9493 31.5429 77.9281 31.528 77.9207 31.5106C77.9107 31.4907 77.9057 31.4745 77.9057 31.4621C77.9057 31.4546 77.9107 31.4422 77.9207 31.4247C77.9281 31.4049 77.9567 31.3899 78.0065 31.38C78.0214 31.3775 78.0338 31.3763 78.0438 31.3763C78.0537 31.3738 78.0637 31.3725 78.0736 31.3725C78.0836 31.37 78.0947 31.3688 78.1072 31.3688C78.1221 31.3663 78.1408 31.3638 78.1631 31.3613C78.1656 31.334 78.1681 31.3004 78.1706 31.2606C78.1731 31.2208 78.1756 31.1748 78.1781 31.1226L78.1594 31.0592C78.1594 31.0442 78.1607 31.033 78.1631 31.0256C78.183 30.9858 78.2141 30.9659 78.2564 30.9659C78.3012 30.9659 78.3646 30.992 78.4467 31.0442C78.4616 31.0567 78.469 31.0716 78.469 31.089V31.1748V31.186C78.4641 31.2133 78.4579 31.242 78.4504 31.2718C78.4454 31.2992 78.4392 31.3302 78.4317 31.3651C78.4492 31.3651 78.4591 31.3651 78.4616 31.3651C78.4666 31.3651 78.4703 31.3663 78.4728 31.3688C78.4753 31.3688 78.4815 31.37 78.4914 31.3725C78.5014 31.3725 78.5238 31.3725 78.5586 31.3725C78.5909 31.3725 78.6158 31.3738 78.6332 31.3763C78.6531 31.3763 78.673 31.3775 78.6929 31.38C78.7153 31.38 78.7426 31.3812 78.775 31.3837C78.8073 31.3837 78.8533 31.385 78.913 31.3874ZM80.1747 32.1858C80.2145 32.1858 80.2344 32.2218 80.2344 32.294C80.2344 32.2989 80.2331 32.3064 80.2306 32.3164C80.2306 32.3263 80.2257 32.3499 80.2157 32.3872C80.2083 32.4245 80.1946 32.4793 80.1747 32.5514C80.1573 32.621 80.1312 32.718 80.0963 32.8424C80.0366 33.0587 79.9981 33.1881 79.9807 33.2303C79.926 33.3671 79.8514 33.4355 79.7569 33.4355C79.5778 33.4355 79.4733 33.2701 79.4435 32.9394V32.9356L79.4398 32.8797V32.6148C79.4174 32.7018 79.39 32.8125 79.3577 32.9468C79.3254 33.0811 79.2856 33.2515 79.2383 33.4579L79.2346 33.4803L79.2159 33.4915C79.1886 33.5089 79.16 33.5176 79.1301 33.5176C79.058 33.5176 79.0045 33.4616 78.9697 33.3497C78.9349 33.2353 78.9175 33.0563 78.9175 32.8125C78.9175 32.7479 78.9249 32.6372 78.9399 32.4805C78.9548 32.3213 78.9784 32.1112 79.0107 31.85C79.0406 31.5939 79.063 31.3837 79.0779 31.2196C79.0953 31.0529 79.104 30.9336 79.104 30.8614V30.7383L79.1077 30.7271C79.1177 30.7072 79.1351 30.6873 79.16 30.6674C79.1848 30.6475 79.2221 30.6376 79.2719 30.6376H79.2831C79.3701 30.6426 79.4136 30.6836 79.4136 30.7607C79.4136 30.808 79.4049 30.8589 79.3875 30.9137C79.3651 30.9783 79.3502 31.038 79.3428 31.0927C79.2806 31.4782 79.2333 31.814 79.201 32.1C79.1712 32.386 79.1562 32.6247 79.1562 32.8163C79.1587 32.8212 79.16 32.8274 79.16 32.8349C79.16 32.8424 79.16 32.8523 79.16 32.8647C79.1624 32.8747 79.1649 32.8871 79.1674 32.9021V32.9095C79.1799 32.8598 79.1935 32.8051 79.2085 32.7454C79.2259 32.6857 79.2445 32.6198 79.2644 32.5477C79.3067 32.3785 79.3403 32.2455 79.3651 32.1485C79.39 32.049 79.4049 31.9843 79.4099 31.9545C79.4223 31.8923 79.441 31.8525 79.4659 31.8351C79.4932 31.8152 79.5193 31.8053 79.5442 31.8053C79.5616 31.8053 79.584 31.8115 79.6114 31.8239C79.6412 31.8364 79.6872 31.8699 79.7494 31.9246L79.7718 31.9433L79.768 31.9731C79.6959 32.3561 79.6599 32.6695 79.6599 32.9132C79.6599 32.9953 79.6661 33.0612 79.6785 33.111C79.6934 33.1582 79.7121 33.1818 79.7345 33.1818C79.737 33.1818 79.7457 33.1756 79.7606 33.1632C79.7755 33.1483 79.7954 33.1147 79.8203 33.0625C79.8402 33.0202 79.8638 32.968 79.8912 32.9058C79.9185 32.8411 79.9434 32.7665 79.9658 32.682C79.9782 32.6372 79.9944 32.585 80.0143 32.5253C80.0342 32.4631 80.0541 32.3935 80.074 32.3164C80.0789 32.2965 80.0876 32.2703 80.1001 32.238C80.115 32.2032 80.1399 32.1858 80.1747 32.1858ZM84.5907 32.5968C84.6488 32.8538 84.6778 33.1377 84.6778 33.4486C84.6778 33.6973 84.6695 33.9315 84.6529 34.1512C84.6363 34.3709 84.6114 34.5802 84.5783 34.7792C84.512 35.1688 84.4083 35.5087 84.2674 35.7988C83.9772 36.3957 83.5814 36.6942 83.0798 36.6942C82.6529 36.6942 82.3047 36.5118 82.0353 36.147C81.969 36.06 81.9109 35.9667 81.8612 35.8672C81.8114 35.7636 81.77 35.6558 81.7368 35.5439C81.7037 35.432 81.6788 35.3139 81.6622 35.1895C81.6456 35.061 81.6374 34.9284 81.6374 34.7916C81.6374 34.2735 81.6975 33.7574 81.8177 33.2434C81.8508 33.1108 81.8861 32.9843 81.9234 32.8641C81.9607 32.7398 82.0021 32.6237 82.0477 32.5159C82.1182 32.3501 82.1969 32.1864 82.284 32.0247C82.371 31.8631 82.4705 31.7035 82.5824 31.546C82.5949 31.5294 82.6114 31.5025 82.6322 31.4652C82.657 31.4279 82.684 31.3926 82.713 31.3595C82.742 31.3263 82.7752 31.3014 82.8125 31.2849C82.8539 31.2641 82.8975 31.2621 82.9431 31.2786C83.0135 31.3035 83.0798 31.345 83.142 31.403C83.2042 31.4569 83.2394 31.5045 83.2477 31.546C83.2519 31.5792 83.2498 31.6102 83.2415 31.6393C83.2374 31.6641 83.2228 31.6952 83.198 31.7325C83.1772 31.7657 83.1462 31.8051 83.1047 31.8507C83.0674 31.8921 83.0177 31.946 82.9555 32.0123C82.9389 32.0289 82.9265 32.0434 82.9182 32.0558C82.8436 32.1553 82.771 32.2817 82.7006 32.4351C82.6342 32.5843 82.5658 32.7605 82.4954 32.9636C82.3876 33.2994 82.3068 33.6206 82.2529 33.9273C82.199 34.2299 82.1721 34.5159 82.1721 34.7854C82.1721 35.3035 82.2467 35.6869 82.3959 35.9356C82.5368 36.176 82.7482 36.2963 83.0301 36.2963C83.4322 36.2963 83.7327 36.0662 83.9317 35.6061C84.1472 35.1128 84.255 34.3833 84.255 33.4175C84.255 32.8952 84.17 32.4869 84 32.1926C83.9669 32.1346 83.9275 32.0849 83.8819 32.0434C83.8363 32.002 83.7804 31.975 83.714 31.9626C83.6684 31.9543 83.6083 31.9833 83.5337 32.0496C83.4633 32.1118 83.3886 32.2133 83.3099 32.3543C83.1399 32.6486 83.055 33.0569 83.055 33.5792C83.055 34.4496 83.1399 35.1232 83.3099 35.5999C83.3182 35.6621 83.312 35.7056 83.2912 35.7304C83.2705 35.7553 83.2436 35.7678 83.2104 35.7678C83.1814 35.7636 83.1503 35.7512 83.1171 35.7304C83.084 35.7056 83.0591 35.6745 83.0425 35.6372C82.9472 35.4009 82.8747 35.1418 82.8249 34.86C82.7918 34.661 82.7607 34.4662 82.7317 34.2755C82.7068 34.0807 82.6943 33.8589 82.6943 33.6102C82.6943 33.4486 82.6985 33.2973 82.7068 33.1564C82.7151 33.0154 82.7337 32.8828 82.7627 32.7584C82.7959 32.6341 82.827 32.518 82.856 32.4102C82.8892 32.3025 82.9348 32.2051 82.9928 32.118C83.0508 32.0393 83.1068 31.9626 83.1607 31.888C83.2187 31.8133 83.2829 31.7491 83.3534 31.6952C83.4363 31.6289 83.5254 31.5937 83.6208 31.5895C83.7203 31.5854 83.8135 31.5999 83.9006 31.633C83.9918 31.6662 84.0747 31.7139 84.1493 31.776C84.2239 31.8341 84.2798 31.8942 84.3171 31.9564C84.3752 32.0475 84.427 32.147 84.4726 32.2548C84.5182 32.3584 84.5576 32.4724 84.5907 32.5968ZM86.7604 34.2942C86.7811 34.2942 86.7935 34.3045 86.7977 34.3253C86.8018 34.346 86.8039 34.404 86.8039 34.4994C86.8039 34.5242 86.7956 34.574 86.779 34.6486C86.7666 34.7232 86.7334 34.8621 86.6795 35.0652C86.6091 35.318 86.5448 35.5315 86.4868 35.7056C86.4288 35.8797 86.3707 36.0165 86.3127 36.1159C86.1884 36.3564 86.0391 36.4766 85.865 36.4766C85.6536 36.4766 85.492 36.3771 85.3801 36.1781C85.2764 35.9957 85.2246 35.745 85.2246 35.4258C85.2246 35.09 85.2827 34.7501 85.3987 34.4061C85.5272 34.0247 85.6785 33.8341 85.8526 33.8341C85.8982 33.8341 85.9376 33.8403 85.9707 33.8527C86.0039 33.8652 86.0433 33.9004 86.0889 33.9584C86.1345 34.0165 86.1614 34.0745 86.1697 34.1325C86.1821 34.1864 86.1821 34.2341 86.1697 34.2755C86.1448 34.3667 86.1096 34.431 86.064 34.4683C86.0226 34.5056 85.9915 34.5242 85.9707 34.5242C85.9127 34.5242 85.8692 34.5077 85.8402 34.4745C85.7034 34.6942 85.635 35.0921 85.635 35.6683C85.635 35.8009 85.6557 35.9087 85.6972 35.9916C85.7096 36.0165 85.7241 36.0393 85.7407 36.06C85.7614 36.0807 85.7821 36.0911 85.8029 36.0911C85.8277 36.0911 85.865 36.0786 85.9148 36.0538C85.9687 36.0247 86.0288 35.9646 86.0951 35.8735C86.1656 35.7781 86.2381 35.6413 86.3127 35.4631C86.3873 35.2849 86.4599 35.0424 86.5303 34.7356C86.551 34.6403 86.5676 34.576 86.5801 34.5429C86.5925 34.5056 86.5987 34.4828 86.5987 34.4745V34.4683L86.6049 34.4558C86.6257 34.3895 86.6505 34.346 86.6795 34.3253C86.7086 34.3045 86.7355 34.2942 86.7604 34.2942ZM88.433 32.9947C88.491 33.003 88.52 33.0341 88.52 33.088V33.1315C88.52 33.1522 88.5138 33.1709 88.5014 33.1874C88.4889 33.204 88.462 33.2206 88.4205 33.2372C88.3791 33.2538 88.2858 33.2745 88.1407 33.2994C88.0454 33.3201 87.9666 33.3325 87.9045 33.3367C87.8423 33.3408 87.7884 33.3429 87.7428 33.3429L87.5501 33.3553C87.5418 33.4133 87.5314 33.5066 87.519 33.6351C87.5107 33.7595 87.4962 33.9149 87.4755 34.1014C87.4589 34.2589 87.4464 34.3874 87.4381 34.4869C87.4299 34.5864 87.4216 34.6652 87.4133 34.7232C87.4091 34.7812 87.405 34.8227 87.4008 34.8475C87.4008 34.8724 87.4008 34.889 87.4008 34.8973C87.4008 35.0963 87.4008 35.2579 87.4008 35.3823C87.405 35.5025 87.4091 35.5854 87.4133 35.631C87.4257 35.7636 87.4423 35.8507 87.463 35.8921C87.4879 35.9336 87.5045 35.9543 87.5128 35.9543C87.5293 35.946 87.5459 35.9315 87.5625 35.9108C87.5791 35.89 87.5977 35.861 87.6185 35.8237C87.6433 35.7864 87.6723 35.7325 87.7055 35.6621C87.7511 35.5501 87.7988 35.4092 87.8485 35.2393C87.9024 35.0652 87.9563 34.8641 88.0102 34.6361C88.0226 34.5823 88.035 34.5367 88.0475 34.4994C88.0599 34.4621 88.0703 34.4289 88.0786 34.3999C88.0868 34.3792 88.0993 34.3522 88.1159 34.319C88.1366 34.2859 88.1677 34.2693 88.2091 34.2693C88.2464 34.2693 88.2817 34.2838 88.3148 34.3128C88.348 34.3377 88.3646 34.3854 88.3646 34.4558C88.3646 34.5346 88.3459 34.6548 88.3086 34.8165C88.2713 34.974 88.2112 35.1771 88.1283 35.4258C88.0205 35.745 87.9148 35.9812 87.8112 36.1346C87.7117 36.2838 87.606 36.3584 87.4941 36.3584C87.3366 36.3584 87.2102 36.2382 87.1148 35.9978C87.0319 35.7823 86.9905 35.5149 86.9905 35.1957C86.9905 35.0921 87.0029 34.8931 87.0278 34.5988C87.0568 34.3045 87.1003 33.8942 87.1584 33.3678C87.121 33.376 87.0858 33.376 87.0527 33.3678C87.0195 33.3553 86.9967 33.345 86.9843 33.3367C86.976 33.3325 86.9656 33.3242 86.9532 33.3118C86.9407 33.2994 86.9179 33.2869 86.8848 33.2745C86.8267 33.2538 86.7915 33.2289 86.7791 33.1999C86.7625 33.1667 86.7542 33.1398 86.7542 33.119C86.7542 33.1066 86.7625 33.0859 86.7791 33.0569C86.7915 33.0237 86.8392 32.9988 86.9221 32.9823C86.947 32.9781 86.9677 32.976 86.9843 32.976C87.0008 32.9719 87.0174 32.9698 87.034 32.9698C87.0506 32.9657 87.0692 32.9636 87.09 32.9636C87.1148 32.9595 87.1459 32.9553 87.1832 32.9512C87.1874 32.9056 87.1915 32.8496 87.1957 32.7833C87.1998 32.717 87.2039 32.6403 87.2081 32.5532L87.177 32.4475C87.177 32.4227 87.1791 32.404 87.1832 32.3916C87.2164 32.3253 87.2682 32.2921 87.3387 32.2921C87.4133 32.2921 87.519 32.3356 87.6558 32.4227C87.6806 32.4434 87.6931 32.4683 87.6931 32.4973V32.6403V32.6589C87.6848 32.7045 87.6744 32.7522 87.662 32.802C87.6537 32.8475 87.6433 32.8994 87.6309 32.9574C87.6599 32.9574 87.6765 32.9574 87.6806 32.9574C87.6889 32.9574 87.6951 32.9595 87.6993 32.9636C87.7034 32.9636 87.7138 32.9657 87.7304 32.9698C87.747 32.9698 87.7843 32.9698 87.8423 32.9698C87.8962 32.9698 87.9376 32.9719 87.9666 32.976C87.9998 32.976 88.033 32.9781 88.0661 32.9823C88.1034 32.9823 88.149 32.9843 88.2029 32.9885C88.2568 32.9885 88.3335 32.9906 88.433 32.9947ZM90.3247 34.2693C90.4242 34.2693 90.4739 34.319 90.4739 34.4185C90.4739 34.5263 90.4594 34.6424 90.4304 34.7667C90.4014 34.8869 90.3558 35.0154 90.2936 35.1522C90.1734 35.4216 90.0117 35.5564 89.8086 35.5564C89.7962 35.5564 89.7796 35.5543 89.7589 35.5501C89.7381 35.5418 89.6988 35.5273 89.6407 35.5066C89.6324 35.5481 89.6221 35.5916 89.6096 35.6372C89.6014 35.6786 89.591 35.7242 89.5786 35.774V35.7864C89.5413 35.8942 89.5081 35.9833 89.4791 36.0538C89.4501 36.1242 89.4231 36.1802 89.3982 36.2216C89.2905 36.3957 89.1558 36.4828 88.9941 36.4828C88.7951 36.4828 88.648 36.3833 88.5527 36.1843C88.4656 36.0061 88.4221 35.7429 88.4221 35.3947C88.4221 34.9802 88.4552 34.6921 88.5216 34.5304V34.4931C88.5174 34.4683 88.5153 34.4475 88.5153 34.431C88.5153 34.4102 88.5153 34.3916 88.5153 34.375V34.3688C88.5236 34.3066 88.5402 34.2631 88.5651 34.2382C88.5692 34.2216 88.5755 34.1947 88.5837 34.1574C88.592 34.1201 88.6065 34.06 88.6273 33.9771C88.6397 33.9149 88.6584 33.8652 88.6832 33.8279C88.7122 33.7906 88.7413 33.7615 88.7703 33.7408C88.7993 33.7201 88.8283 33.7077 88.8573 33.7035C88.8863 33.6952 88.9133 33.6911 88.9381 33.6911C89.0666 33.6911 89.2034 33.745 89.3485 33.8527C89.4936 33.9564 89.5889 34.0724 89.6345 34.2009C89.6387 34.2175 89.6428 34.2424 89.647 34.2755C89.6552 34.3087 89.6615 34.3605 89.6656 34.431C89.6698 34.4973 89.6739 34.5885 89.678 34.7045C89.6822 34.8206 89.6843 34.9678 89.6843 35.146C89.705 35.1626 89.7299 35.1709 89.7589 35.1709C89.7962 35.1709 89.8376 35.1605 89.8832 35.1398C89.933 35.119 89.9806 35.061 90.0262 34.9657C90.0345 34.9408 90.049 34.8931 90.0698 34.8227C90.0946 34.7481 90.1257 34.6258 90.163 34.4558C90.1879 34.3315 90.2418 34.2693 90.3247 34.2693ZM89.1433 35.8859C89.2055 35.7491 89.2449 35.6434 89.2615 35.5688C89.2822 35.49 89.2925 35.4341 89.2925 35.4009C89.2925 35.3429 89.2884 35.2745 89.2801 35.1957C89.2718 35.117 89.2594 35.0299 89.2428 34.9346C89.2179 34.802 89.2014 34.7108 89.1931 34.661C89.1889 34.6113 89.1868 34.576 89.1868 34.5553C89.1868 34.5346 89.1868 34.5118 89.1868 34.4869C89.1868 34.4621 89.191 34.433 89.1993 34.3999C89.2034 34.3667 89.2055 34.3398 89.2055 34.319C89.2055 34.2942 89.2055 34.2755 89.2055 34.2631C89.2055 34.2051 89.1951 34.1678 89.1744 34.1512C89.1537 34.1304 89.1267 34.1201 89.0936 34.1201C89.0894 34.1242 89.0812 34.1346 89.0687 34.1512C89.0604 34.1678 89.048 34.1968 89.0314 34.2382C89.019 34.2755 89.0024 34.3294 88.9817 34.3999C88.9651 34.4703 88.9464 34.5615 88.9257 34.6735C88.8925 34.8475 88.8677 35.0009 88.8511 35.1336C88.8345 35.2621 88.8262 35.374 88.8262 35.4693C88.8262 35.5273 88.8283 35.5916 88.8324 35.6621C88.8366 35.7325 88.8449 35.8009 88.8573 35.8672C88.8739 35.9294 88.8946 35.9833 88.9195 36.0289C88.9444 36.0703 88.9775 36.0931 89.019 36.0973C89.0273 36.089 89.0397 36.0724 89.0563 36.0475C89.077 36.0185 89.106 35.9646 89.1433 35.8859ZM91.4651 33.8589C91.5231 33.8589 91.5811 33.8693 91.6392 33.89C91.7013 33.9066 91.7552 33.9398 91.8008 33.9895C91.8506 34.0393 91.8899 34.1097 91.919 34.2009C91.9521 34.288 91.9687 34.402 91.9687 34.5429C91.9687 34.7626 91.9542 34.9781 91.9252 35.1895C91.8962 35.3968 91.8526 35.5999 91.7946 35.7988C91.662 36.2672 91.492 36.5014 91.2848 36.5014C91.1604 36.5014 91.0526 36.4144 90.9614 36.2403C90.9241 36.2776 90.8827 36.2963 90.8371 36.2963C90.7749 36.2963 90.7169 36.2589 90.663 36.1843C90.6174 36.1139 90.5946 36.0475 90.5946 35.9854C90.5946 35.9564 90.6008 35.9294 90.6133 35.9045C90.6008 35.2413 90.6443 34.4931 90.7438 33.66C90.777 33.3947 90.8081 33.1439 90.8371 32.9077C90.8703 32.6714 90.9013 32.4393 90.9304 32.2113C90.9386 32.1159 90.9428 32.0517 90.9428 32.0185C90.9428 31.9854 90.9428 31.9667 90.9428 31.9626L90.9304 31.9253L90.949 31.8942C90.9614 31.8693 90.9842 31.8465 91.0174 31.8258C91.0506 31.8009 91.0982 31.7885 91.1604 31.7885H91.2039C91.2785 31.7885 91.3366 31.8113 91.378 31.8569C91.4236 31.8983 91.4464 31.9605 91.4464 32.0434C91.4464 32.06 91.4423 32.0869 91.434 32.1242C91.4298 32.1574 91.4174 32.2154 91.3967 32.2983C91.376 32.3771 91.3594 32.4475 91.3469 32.5097C91.3345 32.5719 91.3241 32.6299 91.3159 32.6838C91.2578 32.9864 91.2102 33.2621 91.1728 33.5108C91.1355 33.7553 91.1045 33.975 91.0796 34.1698C91.1045 34.1242 91.1335 34.0766 91.1666 34.0268C91.2454 33.9149 91.3449 33.8589 91.4651 33.8589ZM91.4402 35.7491C91.5355 35.4051 91.5832 35.0444 91.5832 34.6672C91.5832 34.489 91.5728 34.3709 91.5521 34.3128C91.5355 34.2507 91.5231 34.2154 91.5148 34.2071C91.5065 34.2113 91.4962 34.2216 91.4837 34.2382C91.4713 34.2548 91.4526 34.2838 91.4278 34.3253C91.407 34.3667 91.3822 34.4227 91.3532 34.4931C91.3241 34.5636 91.291 34.6548 91.2537 34.7667C91.1832 34.9698 91.1293 35.1605 91.092 35.3387C91.0589 35.5128 91.0402 35.6745 91.0361 35.8237C91.0775 35.8735 91.1272 35.9439 91.1853 36.0351C91.2019 36.0641 91.2164 36.0807 91.2288 36.0849C91.2412 36.089 91.2495 36.0911 91.2537 36.0911C91.2703 36.0911 91.2951 36.0683 91.3283 36.0227C91.3614 35.9729 91.3988 35.8817 91.4402 35.7491ZM94.2814 34.2507C94.3352 34.2507 94.3601 34.2672 94.356 34.3004C94.3518 34.3294 94.3498 34.3688 94.3498 34.4185C94.3498 34.4268 94.3477 34.4413 94.3435 34.4621C94.3435 34.4786 94.3394 34.5035 94.3311 34.5367C94.3228 34.5698 94.3125 34.6154 94.3 34.6735C94.2876 34.7315 94.2689 34.804 94.2441 34.8911C94.1653 35.2102 94.0803 35.4921 93.9891 35.7367C93.9435 35.8569 93.8979 35.9605 93.8523 36.0475C93.8109 36.1304 93.7694 36.2009 93.728 36.2589C93.6161 36.4165 93.4751 36.4952 93.3052 36.4952C93.1145 36.4952 92.9508 36.3957 92.814 36.1968C92.6897 36.0102 92.6275 35.7843 92.6275 35.519C92.6275 35.3035 92.642 35.0859 92.671 34.8662C92.7042 34.6465 92.7456 34.4496 92.7954 34.2755C92.8119 34.2133 92.8306 34.1491 92.8513 34.0828C92.8762 34.0165 92.9052 33.9564 92.9384 33.9025C92.9715 33.8444 93.0088 33.7988 93.0503 33.7657C93.0917 33.7284 93.1415 33.7097 93.1995 33.7097C93.3156 33.7097 93.4233 33.7532 93.5228 33.8403C93.5684 33.8859 93.6057 33.9418 93.6347 34.0082C93.6637 34.0745 93.6783 34.1325 93.6783 34.1823C93.6783 34.2652 93.67 34.3564 93.6534 34.4558C93.6368 34.5553 93.6161 34.6548 93.5912 34.7543C93.5663 34.8496 93.5373 34.9387 93.5042 35.0216C93.4751 35.1004 93.4441 35.1646 93.4109 35.2144C93.3902 35.2517 93.3612 35.289 93.3238 35.3263C93.2865 35.3636 93.2472 35.3947 93.2057 35.4196C93.1684 35.4403 93.1311 35.4527 93.0938 35.4569C93.0606 35.4569 93.0316 35.4403 93.0068 35.4071C92.9985 35.4403 92.9964 35.4838 93.0005 35.5377C93.0047 35.5916 93.0109 35.6455 93.0192 35.6994C93.0275 35.7491 93.0378 35.7968 93.0503 35.8424C93.0627 35.888 93.0731 35.9211 93.0814 35.9418C93.1145 36.0123 93.158 36.0662 93.2119 36.1035C93.2658 36.1367 93.3031 36.1532 93.3238 36.1532C93.3653 36.1532 93.4047 36.1222 93.442 36.06C93.4834 35.9978 93.5352 35.919 93.5974 35.8237C93.6679 35.7118 93.7466 35.5543 93.8337 35.3512C93.9207 35.1481 93.9995 34.9304 94.07 34.6983C94.0824 34.6527 94.0928 34.6092 94.1011 34.5678C94.1135 34.5222 94.1259 34.4766 94.1384 34.431C94.1591 34.3108 94.2068 34.2507 94.2814 34.2507ZM93.3052 34.1201C93.272 34.2113 93.2409 34.2942 93.2119 34.3688C93.1871 34.4393 93.1622 34.5097 93.1373 34.5802C93.1124 34.6465 93.0917 34.7149 93.0751 34.7854C93.0586 34.8558 93.0482 34.9346 93.0441 35.0216C93.0979 35.0175 93.1435 34.9802 93.1808 34.9097C93.2223 34.8393 93.2492 34.775 93.2617 34.717C93.2783 34.6341 93.2948 34.5512 93.3114 34.4683C93.3321 34.3812 93.3425 34.2921 93.3425 34.2009C93.3425 34.1802 93.3384 34.1553 93.3301 34.1263C93.3259 34.0931 93.3176 34.0911 93.3052 34.1201ZM96.1951 34.2693C96.2117 34.2693 96.2386 34.2797 96.276 34.3004C96.3174 34.317 96.3381 34.3688 96.3381 34.4558C96.3381 34.6009 96.2511 34.947 96.077 35.4942C96.0065 35.7014 95.9443 35.8672 95.8905 35.9916C95.8366 36.1159 95.7868 36.2113 95.7412 36.2776C95.6998 36.3439 95.6604 36.3874 95.6231 36.4082C95.5899 36.4289 95.5589 36.4393 95.5298 36.4393C95.3599 36.4393 95.221 36.3439 95.1133 36.1532C95.0967 36.1325 95.0801 36.0911 95.0635 36.0289C95.0511 35.9667 95.0407 35.8589 95.0324 35.7056V35.2268V34.6921C95.0324 34.6838 95.0241 34.6652 95.0076 34.6361C94.991 34.603 94.9454 34.5615 94.8708 34.5118C94.8459 34.6444 94.7962 34.8393 94.7215 35.0963C94.7215 35.1087 94.7091 35.1398 94.6842 35.1895C94.676 35.2061 94.6697 35.2185 94.6656 35.2268C94.6614 35.2351 94.6573 35.2413 94.6532 35.2455C94.6532 35.2621 94.6428 35.2766 94.6221 35.289C94.6013 35.3097 94.5765 35.3139 94.5475 35.3014L94.4542 35.2766C94.4086 35.26 94.3858 35.231 94.3858 35.1895C94.3858 35.1854 94.3858 35.1792 94.3858 35.1709C94.3858 35.1584 94.3899 35.1398 94.3982 35.1149C94.4024 35.0859 94.4107 35.0465 94.4231 34.9968C94.4355 34.947 94.4542 34.8786 94.4791 34.7916C94.5329 34.5885 94.5599 34.4247 94.5599 34.3004C94.5599 34.2921 94.5578 34.2735 94.5537 34.2444C94.5495 34.2113 94.5371 34.1657 94.5164 34.1077C94.4749 34.0082 94.4542 33.919 94.4542 33.8403C94.4542 33.7532 94.4625 33.6828 94.4791 33.6289C94.4956 33.575 94.5164 33.5336 94.5412 33.5045C94.5661 33.4714 94.5931 33.4486 94.6221 33.4361C94.6552 33.4237 94.6863 33.4175 94.7153 33.4175C94.7319 33.4175 94.7526 33.4216 94.7775 33.4299C94.8024 33.4341 94.8252 33.4465 94.8459 33.4672C94.8708 33.488 94.8915 33.519 94.9081 33.5605C94.9288 33.5978 94.9412 33.6475 94.9454 33.7097C94.9495 33.7512 94.9454 33.8237 94.9329 33.9273C94.9247 33.9854 94.9205 34.0289 94.9205 34.0579C94.9205 34.0869 94.9205 34.1097 94.9205 34.1263C94.9247 34.1346 94.9412 34.1491 94.9703 34.1698C94.9993 34.1906 95.0594 34.2237 95.1506 34.2693C95.3744 34.3771 95.4863 34.5159 95.4863 34.6859C95.4863 34.6942 95.4842 34.7108 95.4801 34.7356C95.4801 34.7564 95.478 34.7895 95.4739 34.8351C95.4739 34.8807 95.4697 34.9429 95.4614 35.0216C95.4532 35.1004 95.4428 35.202 95.4304 35.3263C95.4221 35.4133 95.4138 35.4859 95.4055 35.5439C95.4013 35.602 95.3972 35.6496 95.3931 35.6869C95.3889 35.7242 95.3848 35.7553 95.3806 35.7802C95.3806 35.8051 95.3806 35.8299 95.3806 35.8548C95.3806 35.9543 95.391 36.0165 95.4117 36.0413C95.4324 36.0662 95.4532 36.0786 95.4739 36.0786C95.478 36.0745 95.4863 36.0641 95.4988 36.0475C95.5153 36.0268 95.534 35.9937 95.5547 35.9481C95.5796 35.8983 95.6065 35.8341 95.6355 35.7553C95.6687 35.6724 95.7081 35.5667 95.7537 35.4382C95.8946 35.032 95.9817 34.719 96.0148 34.4994C96.0272 34.404 96.0521 34.3418 96.0894 34.3128C96.1267 34.2838 96.162 34.2693 96.1951 34.2693Z" fill="white"/>
<path fill-rule="evenodd" clip-rule="evenodd" d="M34.5692 16.9978C33.9924 16.5956 33.3324 16.3694 32.6602 16.1988C30.1675 15.5636 27.6311 15.1303 25.1125 14.6089C24.2221 14.4247 24.233 14.4436 24.2534 13.5417C24.2725 12.7372 24.323 11.9192 24.0598 11.1418C23.2225 8.65941 22.148 6.28261 20.8035 4.02769C20.3412 3.25303 19.6976 2.7384 18.7962 2.58265C18.4703 2.52713 18.1376 2.51765 17.8089 2.4865C16.793 2.39305 15.758 2.46348 14.7721 2.13032C13.864 1.68746 12.9326 1.30419 11.9467 1.06854C11.8349 1.01302 11.7217 0.956137 11.6099 0.900611C11.1354 0.670379 10.6731 0.422542 10.3376 0H10.0158C9.6531 0.281695 9.29037 0.562035 8.92765 0.84373C8.44765 1.02656 8.0972 1.31367 8.06857 1.87165C8.06448 1.94207 8.03175 2.0152 7.99766 2.08156C7.55721 2.92394 7.24494 3.83809 6.57131 4.55045C6.48676 4.64119 6.4254 4.76173 6.38449 4.87955C6.32858 5.03665 6.32858 5.21406 6.48949 5.30751C6.77721 5.47544 6.8304 5.75714 6.87267 6.03748C6.93403 6.44783 6.99539 6.82568 7.36494 7.11821C7.63084 7.32677 7.56675 7.58951 7.28448 7.80484C7.12494 7.92808 6.95585 8.04049 6.8004 8.1705C6.35449 8.54429 5.83359 8.82328 5.42313 9.24176C5.33995 9.23228 5.28268 9.27832 5.22405 9.32572C4.42496 9.98527 3.68724 10.7098 3.08861 11.5522C2.45861 12.4366 1.72498 13.2058 0.794993 13.7787C0.546813 13.9317 0.324543 14.1552 0 14.1565V14.3488C0.133635 14.3041 0.26727 14.2689 0.409087 14.2838C0.518177 14.2947 0.670903 14.2256 0.717266 14.3759C0.76363 14.5303 0.586359 14.533 0.511359 14.6075C0.415905 14.7009 0.15409 14.6806 0.23318 14.8784C0.310906 15.0747 0.535904 14.965 0.696812 14.9691C0.754084 14.9705 0.816811 14.9271 0.869992 14.8933C1.16454 14.7009 1.4509 14.5005 1.71817 14.2703C2.2268 13.8328 2.73816 13.39 3.41588 13.2234C3.81815 13.1232 3.96678 13.2573 3.88224 13.6541C3.81678 13.9696 3.89997 14.2432 4.06633 14.4992C4.14133 14.6143 4.23951 14.7632 4.3786 14.7429C4.51223 14.724 4.51087 14.5411 4.53678 14.426C4.71814 13.6324 4.90632 12.8374 5.05087 12.0357C5.12314 11.6375 5.28677 11.3423 5.64541 11.1554C6.29176 10.8629 6.94767 10.5906 7.58175 10.2737C8.09448 10.0191 8.61811 9.77671 9.06128 9.40292C9.49764 9.16321 9.50992 9.16456 9.88764 9.51668C10.0663 9.68326 10.2476 9.84848 10.4249 10.0178C10.5258 10.1153 10.6158 10.183 10.6554 9.97579C10.7031 9.7117 10.8176 9.81733 10.924 9.92974C11.1654 10.1884 11.1708 10.485 10.9254 10.8642C10.4004 11.6714 9.949 12.5232 9.75128 13.4618C9.6081 14.143 9.05174 14.7605 9.42264 15.5447C9.52083 15.7492 9.64082 15.8196 9.80719 15.8575C10.0199 15.9063 9.99809 15.6991 10.0335 15.5867C10.0867 15.4269 10.1099 15.2576 10.1426 15.091C10.2013 14.8012 10.2435 14.5046 10.3963 14.2418C10.6867 13.738 10.8763 13.7299 11.1654 14.2107C11.1763 14.2283 11.1831 14.25 11.1954 14.2662C11.2594 14.3421 11.2704 14.5032 11.404 14.4667C11.5267 14.4328 11.4981 14.2919 11.4967 14.189C11.4913 13.669 11.4544 13.1516 11.374 12.637C11.3099 12.2266 11.3304 11.8488 11.7544 11.6145C11.8458 11.563 11.9167 11.4777 11.9454 11.368C12.1594 11.2908 12.4799 11.5021 12.5535 11.1987C12.8753 11.4885 13.2122 11.7946 13.5544 12.098C13.6049 12.1427 13.6881 12.2591 13.7153 12.209C13.939 11.8203 14.0099 12.274 14.1762 12.2727C14.2376 11.8542 14.4953 12.1725 14.6849 12.167C14.7503 11.8014 14.5949 11.4452 14.6617 11.0321C14.9521 11.4953 15.214 11.9097 15.4771 12.3323C15.5535 12.2632 15.5535 12.2199 15.533 12.1819C15.0326 11.2529 14.7558 10.2345 14.3549 9.26613C14.1871 8.86255 14.1817 8.50772 14.494 8.17727C14.6099 8.05403 14.7244 7.92673 14.839 7.80213C15.0012 7.74661 15.1294 7.83735 15.2576 7.90912C16.1521 8.41157 17.0221 8.95194 17.8403 9.56679C18.7144 10.2263 19.0226 11.1215 18.7635 12.1643C18.458 13.3995 18.0653 14.6116 18.0094 15.8954C17.9617 16.9911 18.1335 18.0244 18.8603 18.883C19.3048 19.4099 19.4535 19.9773 19.4071 20.649C19.3553 21.402 19.1767 22.1361 19.1262 22.8877C19.0471 24.051 19.0403 25.2198 18.878 26.3777C18.698 27.6752 18.323 28.8981 17.5498 29.9856C17.0549 30.6817 16.6771 31.4428 16.3676 32.2378C15.7444 33.8454 15.3844 35.5288 14.8921 37.1742C14.749 37.6496 14.6617 38.1466 14.3699 38.5651C14.1217 38.7926 13.8326 38.9362 13.504 39.0269C13.0881 39.142 12.9203 39.3519 12.9081 39.7528C12.8835 40.6291 12.7103 41.4782 12.4731 42.3179C12.3422 42.7797 12.2358 43.2429 12.3244 43.7277C12.4444 44.371 12.6163 44.9899 13.1153 45.4639C13.3008 45.64 13.4753 45.6616 13.6131 45.426C13.9649 44.822 14.3508 44.2315 14.5635 43.5571C14.899 42.8 15.1621 42.0132 15.5508 41.2791C17.7435 37.1499 19.9335 33.0192 22.118 28.8859C22.3116 28.5162 22.5762 28.2358 22.9157 27.9948C25.677 26.0405 28.5938 24.3219 31.4384 22.4936C32.6302 21.7271 33.8833 21.0486 34.9401 20.0857C35.2238 19.827 35.4556 19.5426 35.5074 19.1539C35.6274 18.2506 35.3206 17.5233 34.5692 16.9978ZM28.3334 20.9876C27.2902 21.8151 26.247 22.6439 25.1711 23.4281C24.6912 23.7775 24.1321 23.9143 23.5757 24.0565C23.3507 24.1147 23.2743 23.963 23.3193 23.7775C23.5743 22.7482 23.8198 21.7176 24.1102 20.6978C24.263 20.1642 24.7198 19.9299 25.2448 19.915C26.6016 19.8798 27.9584 19.9109 29.3125 19.9868C29.3397 19.9895 29.367 20.0125 29.4379 20.0464C29.0588 20.3714 28.7057 20.691 28.3334 20.9876Z" fill="white"/>
<path fill-rule="evenodd" clip-rule="evenodd" d="M40.8469 57.9026C40.7555 58.2669 40.5905 58.5988 40.4391 58.9387C40.4119 59.001 40.3982 59.0971 40.2973 59.0849C40.176 59.0714 40.1923 58.9685 40.1828 58.8886C40.1228 58.3089 40.0682 57.7279 40.0028 57.1483C39.936 56.5578 39.786 55.9958 39.3264 55.5732C38.7905 55.083 38.1414 55.0735 37.4828 55.2062C36.3087 55.4432 35.4033 56.1353 34.6287 56.9953C32.6501 59.1919 31.5429 61.8166 30.9783 64.6714C30.7492 65.8294 31.0124 66.9954 31.2429 68.1412C31.716 70.5112 32.7687 72.6103 34.2592 74.5064C34.3724 74.6499 34.5033 74.7935 34.551 74.9885C34.4256 75.0318 34.3765 74.9424 34.3246 74.891C32.571 73.1873 30.9156 71.3955 29.5206 69.3844C28.3929 67.7579 27.8065 65.9364 27.6061 63.978C27.5324 63.2603 27.4029 62.5506 27.2965 61.8369C27.2829 61.7475 27.2938 61.6121 27.1588 61.6337C27.0538 61.6513 27.1111 61.7773 27.1015 61.8531C26.9979 62.6454 26.9747 63.4512 27.0497 64.2381C27.1806 65.6398 27.302 67.0442 27.5174 68.4377C27.6456 69.2761 27.7192 70.1239 27.9552 70.9432C28.2402 71.9413 28.7529 72.8406 29.1879 73.7737C29.2738 73.9552 29.3447 74.1448 29.4088 74.3344C29.4292 74.3953 29.4851 74.4847 29.3938 74.5348C29.3092 74.5822 29.2601 74.4996 29.2056 74.4549C28.5974 73.9538 28.1256 73.3363 27.7002 72.6848C27.2461 71.9901 26.8479 71.2628 26.5806 70.4733C26.3611 70.025 26.2002 69.5523 26.0624 69.0729C25.7693 68.347 25.5456 67.5994 25.3643 66.837C25.0629 65.9418 24.8979 65.0154 24.722 64.0918C24.6879 63.9171 24.6634 63.741 24.6197 63.4661C24.4029 63.9577 24.3634 64.3952 24.3388 64.8258C24.2693 66.0474 24.482 67.2446 24.6797 68.4432C24.8597 69.5442 25.0615 70.6358 25.4965 71.6691C25.6111 71.9427 25.7529 72.2054 25.8797 72.4749C25.9097 72.5372 25.9861 72.6103 25.9165 72.674C25.832 72.7512 25.7556 72.6645 25.6956 72.6144C25.2511 72.2406 24.9006 71.7869 24.6102 71.2885C24.1206 70.4502 23.7566 69.5578 23.4988 68.6246C23.1647 67.8405 23.0025 67.009 22.7966 66.1896C22.4857 64.9545 22.3384 63.6936 22.157 62.4368C22.0766 61.8707 21.9661 61.3101 21.8598 60.7494C21.7725 60.2849 21.9334 60.0641 22.3997 60.0885C22.8143 60.1115 23.2261 60.1792 23.6379 60.228C24.2543 60.3079 24.8747 60.2727 25.4938 60.2713C25.7011 60.2171 25.9097 60.1643 26.117 60.1102C26.2711 60.0343 26.4238 59.9598 26.5765 59.8826C27.2883 59.368 27.7111 58.6665 27.9606 57.8363C28.2497 56.8734 28.8797 56.2477 29.8588 55.9308C31.4747 55.4094 33.1287 55.0004 34.7242 54.4383C37.5823 53.4294 39.4846 51.4413 40.2851 48.4903C40.3546 48.2356 40.3614 47.9661 40.4037 47.7048C40.4201 47.5991 40.3737 47.4691 40.5155 47.3838C40.7446 47.675 40.7105 48.0271 40.75 48.3521C40.9614 50.0463 41.2164 51.7379 41.2737 53.4484C41.3187 54.9489 41.2096 56.4373 40.8469 57.9026Z" fill="white"/>
<path fill-rule="evenodd" clip-rule="evenodd" d="M117.857 72.8175C117.845 72.9082 117.863 73.0098 117.782 73.1127C117.562 72.5276 117.471 71.9155 117.31 71.3304C116.811 69.5157 116.615 67.6494 116.503 65.7561C116.399 63.9779 116.137 62.2187 115.859 60.4635C115.187 56.2354 114.178 52.1156 112.77 48.1258C110.918 42.8793 108.456 38.0376 105.322 33.6483C101.263 27.963 96.2285 23.8432 90.1795 21.3296C86.8716 19.9563 83.4806 18.965 80.0028 18.3556C79.4361 18.2553 78.8681 18.1524 78.3002 18.0495C77.4245 17.9411 76.5476 17.8342 75.6708 17.7272C74.9769 17.6825 74.2818 17.6337 73.5879 17.5944C72.7348 17.547 71.8829 17.5064 71.0286 17.4631C69.9711 17.4685 68.9125 17.4671 67.855 17.482C67.1967 17.4915 66.5397 17.524 65.8814 17.5457C65.569 17.6743 65.2375 17.6215 64.919 17.6432C63.9162 17.7123 62.917 17.8098 61.9213 17.933C60.8151 18.0698 59.716 18.2757 58.6146 18.4544C58.2962 18.5059 57.9789 18.5723 57.6308 18.5668C57.9599 18.2662 58.289 17.9669 58.617 17.6649C59.1386 17.1854 59.6709 16.7236 60.1747 16.2225C60.9339 15.4655 61.4912 14.5215 61.9807 13.5302C62.2611 12.9641 62.6259 12.7217 63.2021 12.7515C64.0944 12.7989 64.9903 12.7718 65.885 12.7772C66.8961 12.7542 67.9073 12.7339 68.9196 12.8056C69.484 12.8463 70.0495 12.8625 70.6163 12.8869C70.7565 12.8923 70.8955 12.8991 71.0286 12.9505C71.8259 12.96 72.6172 13.0873 73.4109 13.1618C74.0751 13.2241 74.7381 13.3162 75.4011 13.3975C75.4925 13.4097 75.5817 13.4381 75.672 13.4598C76.5738 13.5532 77.4685 13.7062 78.3572 13.9107C79.8115 14.1613 81.2457 14.5337 82.6703 14.9414C86.1647 15.9408 89.5557 17.2762 92.7863 19.1099C96.3711 21.1468 99.6397 23.6942 102.51 26.8958C104.101 28.6713 105.455 30.6689 106.822 32.6597C108.918 35.7164 110.74 38.9653 112.243 42.4472C114.356 47.3471 115.893 52.4704 116.857 57.8186C117.332 60.4419 117.67 63.0855 117.837 65.7534C117.926 67.1944 117.91 68.6408 117.924 70.0845C117.934 70.9973 117.979 71.9101 117.857 72.8175Z" fill="white"/>
<path fill-rule="evenodd" clip-rule="evenodd" d="M43.6995 46.005C43.6136 47.9145 43.3981 49.8106 42.8909 51.6619C42.7845 52.0506 42.6536 52.4325 42.4777 52.7982C42.4218 52.9146 42.3959 53.0636 42.2254 53.1245C42.1518 52.9918 42.1872 52.8537 42.1859 52.725C42.1599 51.0037 42.0781 49.2905 41.609 47.618C41.3868 46.827 41.0431 46.0876 40.694 45.3468C40.589 45.2114 40.4963 45.0678 40.4459 44.9026C40.3177 44.7455 40.2045 44.5775 40.1268 44.3893C39.9563 44.2268 39.854 44.0169 39.7422 43.8151C39.2691 43.3411 39.0727 42.8088 39.2159 42.1208C39.3972 41.2433 39.4913 40.3494 39.6263 39.4637C39.6386 39.3811 39.67 39.2998 39.6918 39.2186C39.82 38.4114 39.9481 37.6042 40.0763 36.7971C40.184 36.1172 40.2918 35.4374 40.3995 34.7575C40.4963 34.125 40.5536 33.4872 40.7186 32.8574C40.8522 32.9048 40.8809 32.9929 40.9068 33.0849C42.1722 34.9607 42.8254 37.0693 43.2645 39.2538C43.7131 41.483 43.8004 43.7406 43.6995 46.005Z" fill="white"/>
<path fill-rule="evenodd" clip-rule="evenodd" d="M64.6365 7.54949C64.5315 9.30331 63.8578 10.8716 63.0001 12.3762C62.5869 13.1875 62.0701 13.931 61.4674 14.6135C60.5429 15.766 59.4438 16.7208 58.1838 17.4968C57.7338 17.7501 57.3138 18.0521 56.8515 18.2878C56.0184 18.7103 55.1429 18.9432 54.2047 18.9405C54.0138 18.9392 53.8216 18.9405 53.5747 18.8362C55.0802 17.6201 56.5679 16.4418 58.1102 15.3286C58.9447 14.6758 59.6974 13.9472 60.2824 13.0561C60.686 12.4372 60.9751 11.7695 61.2329 11.0842C61.4674 10.273 61.5547 9.43197 61.7401 8.61126C61.7674 8.48802 61.8329 8.33634 61.7401 8.24831C61.6338 8.14538 61.5097 8.28352 61.3924 8.31332C61.282 8.3404 61.1892 8.42843 61.0651 8.41083C60.4147 8.77107 59.7124 9.01349 59.0333 9.30873C58.5806 9.50646 58.1197 9.68658 57.6615 9.87347C57.0138 10.2121 56.302 10.3055 55.5915 10.3881C54.4475 10.5208 53.3579 10.8581 52.2698 11.2061C52.0679 11.2698 51.9288 11.4133 51.7966 11.5718C50.317 13.3351 48.9166 15.1593 47.4616 16.9416C45.7748 19.011 43.8971 20.8961 41.7917 22.5525C41.6839 22.6364 41.583 22.7326 41.4208 22.7597C41.3921 22.6148 41.4808 22.5172 41.5462 22.417C43.7757 18.9554 46.0039 15.4952 48.2375 12.0363C48.4162 11.76 48.6316 11.5068 48.8184 11.2359C48.963 11.0246 49.0871 10.8039 49.1348 10.5466C49.233 10.0197 49.5575 9.71502 50.0716 9.57553C51.5648 9.16788 53.0729 8.82118 54.5497 8.35395C55.5479 8.03975 56.5243 7.66461 57.5102 7.31791C58.6433 6.80869 59.7765 6.29947 60.9097 5.79025C61.5383 5.44897 62.1901 5.15915 62.8624 4.91267C63.1051 4.80703 63.3424 4.68785 63.5919 4.59576C63.9615 4.46033 64.0719 4.51721 64.2151 4.90319C64.5287 5.7564 64.6896 6.6394 64.6365 7.54949Z" fill="white"/>
<path fill-rule="evenodd" clip-rule="evenodd" d="M15.6954 30.7743C15.5823 31.7507 15.2004 32.6554 14.9291 33.5885C14.8023 34.0232 14.6495 34.4526 14.5091 34.8846C14.3318 35.5888 14.1791 36.2998 13.9336 36.9851C13.8382 37.2533 13.7141 37.5106 13.4864 37.7002C13.3418 37.9209 13.125 38.0604 12.9041 38.1891C12.0341 38.6942 11.7737 39.2658 11.9782 40.2652C12.1009 40.8692 12.045 41.4462 11.7409 41.992C11.6441 42.1653 11.5309 42.3332 11.3114 42.3278C11.0755 42.3224 11.0114 42.1166 10.9432 41.9378C10.7646 41.4706 10.5368 40.9749 10.5696 40.5022C10.605 40.0011 10.6896 39.4811 10.8068 38.9759C11.1027 37.7042 11.6823 36.5422 12.1636 35.3423C12.3682 34.8304 12.6232 34.3374 12.7405 33.793C12.7786 33.6183 12.8468 33.4219 12.6914 33.2811C12.5373 33.1416 12.3477 33.2215 12.1759 33.2784C11.325 33.5601 10.6132 34.0991 9.84003 34.5284C9.58912 34.6679 9.34503 34.8223 9.10231 34.9767C8.61822 35.2841 8.51595 35.5428 8.62913 36.1089C8.75595 36.7535 8.86913 37.4009 9.00276 38.0455C9.06276 38.3367 9.09004 38.7579 8.90595 38.8419C8.69322 38.9394 8.42595 38.6238 8.23777 38.4071C7.51096 37.5647 6.96687 36.6262 6.72005 35.5333C6.60687 35.0349 6.74051 34.5866 7.02823 34.179C7.24369 33.8716 7.51232 33.6102 7.82323 33.3989C9.53867 32.2396 11.31 31.1751 13.2327 30.3761C13.2914 30.3517 13.3527 30.3328 13.4127 30.3125C13.725 30.173 14.0345 30.0281 14.3768 29.9712C14.4818 29.8804 14.6195 29.898 14.7436 29.8777C15.4145 29.7613 15.7745 30.108 15.6954 30.7743Z" fill="white"/>
<path fill-rule="evenodd" clip-rule="evenodd" d="M117.94 51.2113V51.7841C117.77 51.7896 117.776 51.6108 117.734 51.4997C116.937 49.3274 116.149 47.1497 115.35 44.9788C114.047 41.4454 112.463 38.0908 110.628 34.9014C110.578 34.8134 110.535 34.7199 110.49 34.6292C109.834 33.5783 109.2 32.5084 108.507 31.4899C107.69 30.29 106.858 29.1036 105.945 27.9999C105.901 27.9484 105.875 27.878 105.84 27.8171C105.204 27.0749 104.58 26.3192 103.929 25.596C101.511 22.9118 98.8668 20.5783 96.0025 18.5888C95.9413 18.5455 95.8858 18.4913 95.8268 18.4439C94.8836 17.8616 93.9636 17.2291 93.0042 16.6806C89.3563 14.5936 85.5349 13.1215 81.5611 12.1762C78.9465 11.5546 76.3065 11.1713 73.6468 10.9871C72.1453 10.8842 70.6404 10.8273 69.1366 10.8612C67.7345 10.891 66.3301 10.9465 64.9304 11.0752C64.5882 11.1077 64.5801 11.0941 64.6772 10.7244C64.8044 10.2382 64.9489 9.75744 65.0598 9.26582C65.1361 8.92454 65.3106 8.79994 65.5915 8.81349C66.6422 8.8636 67.6929 8.89745 68.7413 8.96111C69.6452 9.01663 70.5479 9.10195 71.4518 9.1805C72.8527 9.30104 74.2444 9.51502 75.6384 9.7141C77.3271 9.95787 79.0135 10.2233 80.6884 10.5876C84.1883 11.3487 87.5935 12.4891 90.8947 14.0465C92.1974 14.6614 93.4862 15.325 94.7102 16.1348C95.1287 16.4125 95.5818 16.617 95.9725 16.9515C96.7018 17.3808 97.3849 17.9022 98.0681 18.4223C100.93 20.604 103.517 23.1732 105.862 26.0808C105.905 26.1337 105.937 26.1987 105.974 26.2583C106.723 27.1182 107.388 28.069 108.052 29.0183C108.967 30.3293 109.835 31.6849 110.653 33.0812C110.679 33.1246 110.697 33.172 110.72 33.218C111.417 34.3326 112.04 35.5041 112.642 36.6891C114.475 40.297 116.023 44.0633 117.192 48.0368C117.465 48.9604 117.632 49.9179 117.832 50.8659C117.858 50.9824 117.852 51.1178 117.94 51.2113Z" fill="white"/>
<path fill-rule="evenodd" clip-rule="evenodd" d="M38.5936 48.9711C38.419 49.2596 38.2663 49.5656 38.0277 49.8135C37.654 50.3945 37.1918 50.8969 36.6627 51.3398C36.094 51.8761 35.4572 52.3081 34.7372 52.6155C34.05 52.9961 33.2918 53.1776 32.5404 53.3794C31.0568 53.7762 29.6441 54.3395 28.3105 55.0966C27.6423 55.4758 27.2127 56.027 27.0259 56.7678C26.9537 57.0563 26.8528 57.3353 26.7205 57.6034C26.3646 58.3253 25.7823 58.7288 24.9873 58.871C23.7491 59.0918 22.5587 58.8264 21.3642 58.5677C20.7614 58.4363 20.2569 58.1655 19.8028 57.7456C19.1455 57.1375 19.0051 56.4211 19.2192 55.5977C19.406 54.8759 19.8464 54.3287 20.4519 53.9062C20.6837 53.745 20.8896 53.8087 21.0914 53.978C21.641 54.4384 22.2778 54.6957 22.9978 54.7066C23.97 54.7215 24.7882 54.3531 25.4564 53.6597C25.8273 53.2751 26.175 52.8715 26.4887 52.4422C26.9946 51.7488 27.6859 51.3046 28.4564 50.9551C29.37 50.5421 30.2727 50.1033 31.1863 49.6916C32.5186 49.0889 33.6941 48.2858 34.6036 47.1292C34.6404 47.0656 34.6731 46.9979 34.7154 46.9396C35.014 46.5252 35.0031 46.1176 34.6963 45.7126C34.639 45.6368 34.5886 45.5555 34.5354 45.477C33.9054 44.7687 33.2331 44.1064 32.4682 43.5376C30.7527 42.2632 28.8546 41.3247 26.865 40.5582C26.4164 40.3862 25.9773 40.1952 25.5969 39.8932C24.9314 39.3637 24.705 38.5931 25.0378 37.813C25.2464 37.3268 25.5028 36.8596 25.7537 36.3923C25.9091 36.1025 26.1409 35.9617 26.5091 35.9712C27.8918 36.005 29.1532 36.4438 30.3491 37.0776C31.5545 37.7168 32.7136 38.4306 33.7527 39.3258C34.0813 39.6075 34.4359 39.8607 34.74 40.1708C35.4599 40.8019 36.109 41.494 36.6695 42.2687C37.1686 42.8605 37.5981 43.4984 37.954 44.185C38.4449 44.9813 38.9004 45.8007 39.0763 46.7257C39.229 47.5247 39.0136 48.2763 38.5936 48.9711Z" fill="white"/>
<path fill-rule="evenodd" clip-rule="evenodd" d="M53.0409 1.24614C52.4082 1.43845 51.7605 1.57523 51.1469 1.82984C50.1801 2.1007 49.246 2.45689 48.3405 2.88484C47.3969 3.33176 47.1487 4.55876 47.8278 5.33613C48.1196 5.67064 48.1223 5.74107 47.8592 6.10267C47.1719 7.04661 46.4833 7.99056 45.796 8.93316C45.2151 9.72001 44.6315 10.5041 44.0533 11.2924C42.1169 13.9292 40.1806 16.566 38.247 19.2042C38.0833 19.4276 37.8952 19.6132 37.6061 19.6308C37.4015 19.643 37.2406 19.7297 37.0783 19.8353C32.4788 22.8188 27.8807 25.801 23.2798 28.7818C23.0139 28.9538 22.808 29.1746 22.6607 29.4549C20.9153 32.7486 19.1671 36.0409 17.4231 39.3359C17.3781 39.4212 17.2853 39.5079 17.359 39.6338C17.3971 39.6122 17.4367 39.5959 17.468 39.5715C18.7376 38.5274 20.0508 37.5414 21.3503 36.5379C22.2626 35.8337 23.2485 35.2811 24.3612 34.952C25.7698 34.5349 27.1907 34.5958 28.6157 34.8382C29.7489 35.0306 30.8616 35.2974 31.8448 35.9163C32.6929 36.4499 33.5397 36.9916 34.3402 37.5915C35.7993 38.6858 36.9256 40.0862 37.8842 41.6233C37.9524 41.7316 37.9906 41.8698 38.1297 41.9456C38.1556 41.8562 38.1856 41.7872 38.1965 41.714C38.4802 39.8261 38.7624 37.9355 39.0433 36.0476C39.1947 35.0373 39.3597 34.0284 39.4865 33.014C39.5465 32.5292 39.6529 32.0511 39.7006 31.5676C39.7633 30.9392 39.8997 30.323 39.9651 29.6946C40.0279 29.0798 40.1983 28.4757 40.2733 27.8609C40.3497 27.223 40.4574 26.5892 40.542 25.954C40.6524 25.1306 40.5679 24.3708 40.1179 23.6788C39.9051 23.3511 39.901 23.0599 40.0906 22.747C40.3333 22.3448 40.591 21.9534 40.831 21.5512C41.7133 20.0736 42.5928 18.5934 43.471 17.1118C44.3301 15.6627 45.1837 14.2095 46.0401 12.7591C46.096 12.6832 46.156 12.6101 46.2065 12.5288C47.2333 10.817 48.2519 9.09838 49.2869 7.39061C49.9073 6.3654 50.5005 5.31988 51.316 4.42469C51.571 4.21612 51.8041 3.97235 52.085 3.80577C52.4914 3.56335 52.7028 3.20581 52.8623 2.7914C53.0355 2.34177 53.1214 1.87318 53.2005 1.40188C53.2223 1.25427 53.2046 1.19603 53.0409 1.24614ZM36.7279 30.0183C36.7033 30.0955 36.687 30.1835 36.5547 30.2201C36.5711 30.0535 36.5861 29.9032 36.5983 29.7501C36.6965 28.4554 36.5765 27.1634 36.5424 25.8701C36.5356 25.6358 36.402 25.5477 36.1811 25.5857C35.9179 25.6317 35.667 25.7103 35.4284 25.8416C32.607 27.4031 29.8361 29.0432 27.2002 30.9026C27.0802 30.9866 26.963 31.0909 26.8089 31.1099C26.5893 31.1396 26.183 30.9203 26.1148 30.7279C26.018 30.4544 26.1857 30.2702 26.3807 30.1375C28.9743 28.3945 31.5829 26.6718 34.4902 25.4665C34.9715 25.266 35.4774 25.1225 35.9779 24.9749C36.7143 24.7568 37.0797 24.9952 37.1833 25.7455C37.3811 27.2081 37.1656 28.6247 36.7279 30.0183Z" fill="white"/>
<path fill-rule="evenodd" clip-rule="evenodd" d="M27.2151 41.8975C27.1578 42.0316 27.0078 42.0059 26.8783 41.9815C26.4106 41.8975 25.9333 41.861 25.4737 41.7282C24.6201 41.6456 23.7979 41.4127 22.962 41.2366C21.9992 41.0362 21.2806 41.3463 20.7911 42.1846C20.4215 42.8171 20.0711 43.4617 19.7056 44.0969C19.662 44.1741 19.6293 44.3068 19.527 44.296C19.4138 44.2852 19.3824 44.1484 19.3456 44.0536C19.1588 43.5836 19.1329 43.0798 19.0824 42.5869C19.0279 42.0533 18.8533 41.624 18.3884 41.2949C17.6765 40.7897 17.6861 40.2372 18.3652 39.69C18.9665 39.2065 19.6552 38.8585 20.3124 38.4617C21.537 37.7236 22.771 37.0031 24.0038 36.2812C24.3338 36.0876 24.6678 35.8993 25.0974 35.9034C24.9992 36.2948 24.7919 36.6157 24.6392 36.9584C24.5138 37.2401 24.3719 37.5137 24.2506 37.7967C23.9397 38.5226 24.0856 39.1686 24.6378 39.7198C24.931 40.0123 25.2501 40.2791 25.5583 40.5568C26.0519 40.9021 26.5483 41.2461 27.0419 41.5928C27.1496 41.6687 27.271 41.7635 27.2151 41.8975Z" fill="white"/>
<path fill-rule="evenodd" clip-rule="evenodd" d="M41.8854 12.8852C41.5909 13.2576 41.2909 13.6273 40.9936 13.9984C40.935 14.0715 40.8886 14.1609 40.7795 14.1717C40.785 14.2787 40.71 14.3478 40.6513 14.4196C39.7568 15.5166 38.8595 16.6095 37.965 17.7065C37.7604 17.957 37.5095 18.1548 37.2573 18.3498C37.08 18.4866 36.8714 18.561 36.6586 18.4459C36.4636 18.3403 36.3927 18.1439 36.4077 17.9299C36.4636 17.1553 36.0559 16.6745 35.4027 16.3454C34.2177 15.7482 32.9387 15.4651 31.6419 15.2416C31.4537 15.2078 31.2655 15.1712 31.0759 15.1333C31.0473 15.1279 31.0228 15.1062 30.9709 15.0791C34.1577 13.8941 37.38 12.9434 40.77 12.6536C41.1886 12.6089 41.6072 12.5466 42.0327 12.5777C42.0531 12.7226 41.9536 12.7985 41.8854 12.8852Z" fill="white"/>
<path fill-rule="evenodd" clip-rule="evenodd" d="M18.957 50.8329C18.822 50.8315 18.6761 50.8599 18.5561 50.7611C18.3706 50.7367 18.2002 50.6663 18.0433 50.5661C17.2211 50.2478 16.5379 49.7264 15.942 49.0953C15.1647 48.2705 14.4338 47.4092 14.1516 46.2729C14.0316 45.7867 14.082 45.3466 14.4979 45.0039C14.6343 44.8915 14.7079 44.8739 14.787 45.0798C14.892 45.3561 14.877 45.6418 14.922 45.9235C15.087 46.9298 15.6488 47.6977 16.4111 48.3396C16.7124 48.5942 17.0315 48.8258 17.3479 49.0614C17.4474 49.1346 17.5674 49.2226 17.6983 49.1386C17.8115 49.0655 17.7993 48.9328 17.7897 48.8177C17.6956 47.7302 17.5702 46.6427 17.5061 45.5538C17.4434 44.4961 17.1447 43.4912 16.9293 42.4646C16.8256 41.973 16.887 41.4706 17.0015 40.9803C17.0356 40.8341 17.1038 40.658 17.2552 40.6553C17.3956 40.6539 17.5184 40.7934 17.5633 40.9465C17.8006 41.7468 18.117 42.5296 18.2083 43.3693C18.3324 43.9963 18.3243 44.6329 18.3024 45.264C18.2629 46.3691 18.3256 47.4593 18.6433 48.5251C18.8588 49.1657 19.1342 49.7887 19.2788 50.4509C19.3633 50.8315 19.3497 50.8396 18.957 50.8329Z" fill="white"/>
<path fill-rule="evenodd" clip-rule="evenodd" d="M33.8852 46.5832C33.7897 46.747 33.6793 46.8974 33.5293 47.0179C32.8502 47.7885 31.9816 48.3167 31.117 48.8408C29.6321 49.7414 28.0325 50.3874 26.3634 50.8655C26.1684 50.921 25.9707 50.9711 25.7648 50.9603C25.5998 50.9521 25.4294 50.9251 25.3666 50.7517C25.3066 50.5824 25.3994 50.4429 25.5289 50.3332C25.7744 50.1274 26.0348 49.9418 26.3266 49.805C28.2302 48.9139 29.7016 47.5176 30.9766 45.8911C31.1348 45.6907 31.282 45.4781 31.462 45.2993C32.0784 44.6844 33.1025 44.8023 33.5238 45.5255C34.0257 45.7611 34.1511 46.1254 33.8852 46.5832Z" fill="white"/>
<path fill-rule="evenodd" clip-rule="evenodd" d="M25.4273 52.768C25.2896 52.7964 25.235 52.7016 25.1682 52.6271C23.6614 51.7306 22.6251 50.425 21.8873 48.766C21.6705 49.3348 21.6255 49.8129 21.6119 50.2991C21.5832 51.2809 21.7782 52.2439 21.8532 53.2149C21.8587 53.2785 21.8655 53.3408 21.871 53.4045C21.8764 53.4709 21.8792 53.5372 21.8014 53.5629C21.7237 53.59 21.6869 53.5291 21.6501 53.4763C21.4428 53.1824 21.3596 52.8438 21.286 52.4998C20.9164 50.7677 20.8414 49.0342 21.181 47.2885C21.2628 46.8713 21.4646 46.5138 21.6623 46.1522C21.7387 46.0127 21.8846 45.8827 22.0101 45.9125C22.1614 45.9491 22.2078 46.1441 22.2051 46.3066C22.1887 46.9147 22.2501 47.5173 22.4246 48.0997C22.7996 49.3457 23.4937 50.3776 24.5396 51.174C24.7973 51.3703 25.0837 51.5559 25.1764 51.9012C25.4232 52.145 25.4055 52.4578 25.4273 52.768Z" fill="white"/>
<path fill-rule="evenodd" clip-rule="evenodd" d="M17.3022 39.7032L17.2985 39.6846L17.3123 39.6871L17.3022 39.7032Z" fill="white"/>
</svg>
