<svg width="25" height="25" viewBox="0 0 25 25" fill="none" xmlns="http://www.w3.org/2000/svg">
<path id="Vector" d="M13.4524 0.0378162C14.328 0.0344561 15.2036 0.0432566 16.079 0.0642149L16.3118 0.0726144C16.5806 0.0822139 16.8458 0.0942133 17.1662 0.108613C18.4429 0.168609 19.3141 0.370199 20.0784 0.666584C20.8704 0.971368 21.5375 1.38415 22.2047 2.05131C22.8147 2.65081 23.2868 3.37598 23.5882 4.1764C23.8846 4.94076 24.0862 5.81312 24.1462 7.08985C24.1606 7.40904 24.1726 7.67542 24.1822 7.94421L24.1894 8.177C24.2107 9.05198 24.2199 9.92722 24.217 10.8025L24.2182 11.6976V13.2695C24.2212 14.1452 24.212 15.0208 24.1906 15.8962L24.1834 16.129C24.1738 16.3978 24.1618 16.663 24.1474 16.9833C24.0874 18.2601 23.8834 19.1312 23.5882 19.8956C23.2878 20.6969 22.8156 21.4226 22.2047 22.0219C21.6047 22.6318 20.8792 23.1039 20.0784 23.4054C19.3141 23.7018 18.4429 23.9034 17.1662 23.9634C16.8458 23.9778 16.5806 23.9898 16.3118 23.9994L16.079 24.0066C15.2036 24.0279 14.328 24.0371 13.4524 24.0342L12.5572 24.0354H10.9865C10.1108 24.0383 9.23521 24.0291 8.35983 24.0078L8.12704 24.0006C7.84218 23.9903 7.55739 23.9783 7.27268 23.9646C5.99595 23.9046 5.12479 23.7006 4.35923 23.4054C3.55849 23.1046 2.83319 22.6324 2.23414 22.0219C1.62342 21.4223 1.15086 20.6966 0.84941 19.8956C0.553025 19.1312 0.351436 18.2601 0.291439 16.9833C0.278075 16.6986 0.266075 16.4138 0.25544 16.129L0.249441 15.8962C0.227318 15.0208 0.217318 14.1452 0.219442 13.2695V10.8025C0.216093 9.92723 0.224894 9.05199 0.245841 8.177L0.254241 7.94421C0.26384 7.67542 0.275839 7.40904 0.290239 7.08985C0.350236 5.81192 0.551825 4.94196 0.84821 4.1764C1.14984 3.37559 1.62333 2.65062 2.23534 2.05251C2.83398 1.44145 3.55882 0.968456 4.35923 0.666584C5.12479 0.370199 5.99475 0.168609 7.27268 0.108613L8.12704 0.0726144L8.35983 0.0666149C9.2348 0.0445034 10.11 0.0345028 10.9853 0.0366163L13.4524 0.0378162ZM12.2188 6.03751C11.4239 6.02626 10.6346 6.17313 9.89692 6.46957C9.15922 6.766 8.48779 7.2061 7.92166 7.76429C7.35553 8.32247 6.90598 8.9876 6.59914 9.72104C6.2923 10.4545 6.13429 11.2416 6.13429 12.0366C6.13429 12.8316 6.2923 13.6187 6.59914 14.3522C6.90598 15.0856 7.35553 15.7507 7.92166 16.3089C8.48779 16.8671 9.15922 17.3072 9.89692 17.6036C10.6346 17.9001 11.4239 18.0469 12.2188 18.0357C13.81 18.0357 15.3361 17.4036 16.4613 16.2784C17.5864 15.1533 18.2185 13.6272 18.2185 12.036C18.2185 10.4448 17.5864 8.91874 16.4613 7.79358C15.3361 6.66842 13.81 6.03751 12.2188 6.03751ZM12.2188 8.43739C12.697 8.42857 13.1722 8.51514 13.6165 8.69202C14.0609 8.8689 14.4655 9.13256 14.8068 9.46759C15.1481 9.80261 15.4193 10.2023 15.6044 10.6433C15.7895 11.0843 15.8849 11.5577 15.885 12.036C15.885 12.5143 15.7898 12.9877 15.6048 13.4288C15.4199 13.8698 15.1489 14.2696 14.8077 14.6048C14.4665 14.9399 14.0619 15.2037 13.6176 15.3807C13.1733 15.5577 12.6982 15.6445 12.22 15.6358C11.2653 15.6358 10.3497 15.2566 9.67457 14.5815C8.99948 13.9064 8.62021 12.9907 8.62021 12.036C8.62021 11.0813 8.99948 10.1656 9.67457 9.49055C10.3497 8.81545 11.2653 8.43618 12.22 8.43618L12.2188 8.43739ZM18.5185 4.2376C18.1314 4.25309 17.7653 4.41777 17.4969 4.69714C17.2285 4.97651 17.0786 5.34891 17.0786 5.73632C17.0786 6.12374 17.2285 6.49613 17.4969 6.7755C17.7653 7.05488 18.1314 7.21955 18.5185 7.23505C18.9163 7.23505 19.2978 7.07702 19.5791 6.79573C19.8604 6.51444 20.0184 6.13293 20.0184 5.73512C20.0184 5.33732 19.8604 4.95581 19.5791 4.67452C19.2978 4.39323 18.9163 4.2352 18.5185 4.2352V4.2376Z" fill="white"/>
</svg>
