<svg width="9" height="9" viewBox="0 0 9 9" fill="none" xmlns="http://www.w3.org/2000/svg">
<path d="M8.91602 4.7207C8.91602 4.96159 8.83464 5.17318 8.67188 5.35547C8.51562 5.53125 8.31706 5.61914 8.07617 5.61914C7.99805 5.61914 7.88086 5.60612 7.72461 5.58008C7.56836 5.55404 7.44792 5.54102 7.36328 5.54102L6.38672 5.56055C5.98958 5.57357 5.66406 5.57357 5.41016 5.56055V7.85547C5.41016 8.44141 5.12044 8.73438 4.54102 8.73438C4.25456 8.73438 4.03646 8.66276 3.88672 8.51953C3.74349 8.36979 3.67188 8.14844 3.67188 7.85547L3.66211 6.73242L3.65234 5.59961C2.86458 5.64518 2.30794 5.66797 1.98242 5.66797C0.973307 5.66797 0.46875 5.36849 0.46875 4.76953C0.46875 4.34635 0.647786 4.08268 1.00586 3.97852C1.12956 3.94596 1.45508 3.92969 1.98242 3.92969C2.30794 3.92969 2.86458 3.9069 3.65234 3.86133L3.64258 2.71875C3.64258 2.1263 3.67188 1.71615 3.73047 1.48828C3.79557 1.25391 3.89648 1.07812 4.0332 0.960938C4.16992 0.84375 4.3457 0.785156 4.56055 0.785156C4.80794 0.785156 5.01628 0.866536 5.18555 1.0293C5.36133 1.18555 5.44922 1.38737 5.44922 1.63477C5.44922 1.74544 5.4362 1.92122 5.41016 2.16211C5.39062 2.40299 5.38086 2.58529 5.38086 2.70898L5.39062 3.82227L6.12305 3.85156C6.25326 3.85156 6.45182 3.84505 6.71875 3.83203C6.98568 3.8125 7.18424 3.80273 7.31445 3.80273C8.38216 3.80273 8.91602 4.10872 8.91602 4.7207Z" fill="black"/>
</svg>
