<svg width="24" height="24" viewBox="0 0 24 24" fill="none" xmlns="http://www.w3.org/2000/svg">
<path d="M13.2336 0.0014764C14.1092 -0.0018837 14.9849 0.00691679 15.8603 0.0278751L16.0931 0.0362747C16.3619 0.0458742 16.627 0.0578735 16.9474 0.0722728C18.2242 0.13227 19.0953 0.33386 19.8597 0.630244C20.6516 0.935029 21.3188 1.34781 21.986 2.01497C22.596 2.61447 23.0681 3.33964 23.3695 4.14006C23.6659 4.90442 23.8675 5.77678 23.9275 7.05351C23.9419 7.3727 23.9539 7.63908 23.9635 7.90787L23.9707 8.14066C23.992 9.01564 24.0012 9.89088 23.9983 10.7661L23.9995 11.6613V13.2332C24.0024 14.1088 23.9932 14.9845 23.9719 15.8599L23.9647 16.0927C23.9551 16.3614 23.9431 16.6266 23.9287 16.947C23.8687 18.2237 23.6647 19.0949 23.3695 19.8593C23.0691 20.6605 22.5968 21.3863 21.986 21.9855C21.386 22.5955 20.6604 23.0676 19.8597 23.3691C19.0953 23.6655 18.2242 23.8671 16.9474 23.927C16.627 23.9414 16.3619 23.9534 16.0931 23.963L15.8603 23.9702C14.9849 23.9916 14.1093 24.0008 13.2336 23.9978L12.3385 23.999H10.7677C9.8921 24.002 9.01646 23.9928 8.14108 23.9714L7.90829 23.9642C7.62343 23.9539 7.33864 23.9419 7.05393 23.9282C5.7772 23.8683 4.90604 23.6643 4.14048 23.3691C3.33974 23.0683 2.61444 22.5961 2.01539 21.9855C1.40467 21.3859 0.932114 20.6603 0.63066 19.8593C0.334275 19.0949 0.132686 18.2237 0.0726886 16.947C0.0593248 16.6623 0.0473253 16.3775 0.0366905 16.0927L0.0306909 15.8599C0.00856838 14.9845 -0.00143218 14.1088 0.000692365 13.2332V10.7661C-0.00265662 9.89089 0.00614386 9.01565 0.0270911 8.14066L0.0354906 7.90787C0.0450901 7.63908 0.0570895 7.3727 0.0714887 7.05351C0.131486 5.77558 0.333075 4.90562 0.62946 4.14006C0.931092 3.33925 1.40458 2.61428 2.01659 2.01617C2.61523 1.40511 3.34007 0.932116 4.14048 0.630244C4.90604 0.33386 5.776 0.13227 7.05393 0.0722728L7.90829 0.0362747L8.14108 0.0302751C9.01605 0.00816363 9.89129 -0.00183693 10.7665 0.000276547L13.2336 0.0014764ZM12.0001 6.00117C11.2051 5.98993 10.4159 6.13679 9.67817 6.43323C8.94047 6.72966 8.26904 7.16976 7.70291 7.72795C7.13678 8.28613 6.68723 8.95126 6.38039 9.6847C6.07355 10.4181 5.91554 11.2052 5.91554 12.0003C5.91554 12.7953 6.07355 13.5824 6.38039 14.3158C6.68723 15.0493 7.13678 15.7144 7.70291 16.2726C8.26904 16.8308 8.94047 17.2709 9.67817 17.5673C10.4159 17.8637 11.2051 18.0106 12.0001 17.9994C13.5913 17.9994 15.1173 17.3672 16.2425 16.2421C17.3677 15.1169 17.9998 13.5909 17.9998 11.9997C17.9998 10.4084 17.3677 8.8824 16.2425 7.75724C15.1173 6.63208 13.5913 6.00117 12.0001 6.00117ZM12.0001 8.40105C12.4783 8.39223 12.9534 8.4788 13.3978 8.65568C13.8421 8.83256 14.2468 9.09622 14.5881 9.43125C14.9294 9.76627 15.2005 10.166 15.3856 10.6069C15.5707 11.0479 15.6661 11.5214 15.6662 11.9996C15.6663 12.4779 15.5711 12.9514 15.3861 13.3925C15.2011 13.8335 14.9301 14.2333 14.5889 14.5684C14.2477 14.9036 13.8432 15.1673 13.3989 15.3444C12.9546 15.5214 12.4795 15.6081 12.0013 15.5995C11.0465 15.5995 10.1309 15.2202 9.45582 14.5451C8.78073 13.87 8.40146 12.9544 8.40146 11.9997C8.40146 11.0449 8.78073 10.1293 9.45582 9.45421C10.1309 8.77911 11.0465 8.39985 12.0013 8.39985L12.0001 8.40105ZM18.2998 4.20126C17.9126 4.21675 17.5465 4.38143 17.2781 4.6608C17.0097 4.94017 16.8598 5.31257 16.8598 5.69998C16.8598 6.0874 17.0097 6.45979 17.2781 6.73917C17.5465 7.01854 17.9126 7.18321 18.2998 7.19871C18.6976 7.19871 19.0791 7.04068 19.3604 6.75939C19.6417 6.4781 19.7997 6.09659 19.7997 5.69878C19.7997 5.30098 19.6417 4.91947 19.3604 4.63818C19.0791 4.35689 18.6976 4.19886 18.2998 4.19886V4.20126Z" fill="white"/>
</svg>
