<svg width="1756" height="347" viewBox="0 0 1756 347" fill="none" xmlns="http://www.w3.org/2000/svg">
<path d="M1734.81 10.3996L66.2847 286.834L76.0624 345.851L1744.58 69.4165L1734.81 10.3996Z" fill="white"/>
<path d="M1466.62 68.8113C1466.84 70.435 1468.63 71.5622 1470.57 71.281C1472.51 70.9999 1473.89 69.4061 1473.62 67.8356C1473.35 66.2651 1471.63 65.1901 1469.76 65.4469C1467.88 65.7038 1466.39 67.157 1466.62 68.8113Z" fill="#F26120"/>
<path d="M1468.07 79.3916C1468.29 81.0457 1470.08 82.0809 1472.05 81.779C1474.02 81.477 1475.28 80.0258 1475.07 78.4617C1474.87 76.8977 1473.02 75.7165 1471.12 75.9617C1469.22 76.2068 1467.81 77.7735 1468.07 79.3916Z" fill="#F26120"/>
<path d="M1470.74 90.2353C1471.02 92.2203 1472.52 93.6062 1474.16 93.3801C1475.81 93.154 1476.88 91.397 1476.58 89.4717C1476.29 87.5464 1474.76 86.2017 1473.2 86.3775C1471.65 86.5533 1470.45 88.1967 1470.74 90.2353Z" fill="#F26120"/>
<path d="M1472.26 101.323C1472.49 102.982 1473.95 104.112 1475.59 103.886C1477.24 103.66 1478.36 102.177 1478.11 100.569C1477.85 98.9612 1476.37 97.866 1474.82 98.0478C1473.26 98.2296 1472.03 99.6495 1472.26 101.323Z" fill="#F26120"/>
<path d="M1458.54 66.9843C1456.91 67.2079 1455.86 68.6634 1456.12 70.3061C1456.38 71.9488 1457.86 73.0408 1459.46 72.8033C1461.06 72.5659 1462.17 71.0677 1461.95 69.4542C1461.73 67.8408 1460.17 66.7606 1458.54 66.9843Z" fill="#F26120"/>
<path d="M1457.55 80.7781C1457.79 82.4943 1459.19 83.5264 1460.87 83.3134C1462.55 83.1005 1463.62 81.6595 1463.4 80.0291C1463.17 78.3987 1461.68 77.2925 1460.06 77.4799C1458.44 77.6673 1457.32 79.1493 1457.55 80.7781Z" fill="#F26120"/>
<path d="M1460.24 91.7094C1460.43 93.0825 1461.55 93.9083 1462.9 93.7365C1464.26 93.5648 1465.1 92.3996 1464.92 91.1102C1464.73 89.8208 1463.54 88.907 1462.24 89.0707C1460.95 89.2343 1460.06 90.4049 1460.24 91.7094Z" fill="#F26120"/>
<path d="M1461.78 102.896C1462.01 104.612 1463.26 105.613 1464.58 105.397C1465.9 105.181 1466.7 103.725 1466.42 102.102C1466.15 100.478 1464.88 99.3761 1463.6 99.5866C1462.32 99.7972 1461.51 101.273 1461.78 102.896Z" fill="#F26120"/>
<path d="M1455.92 103.562C1455.7 101.951 1454.41 100.847 1453.17 101.018C1451.92 101.188 1451.04 102.611 1451.25 104.202C1451.47 105.794 1452.79 107.055 1454.1 106.835C1455.42 106.614 1456.17 105.149 1455.92 103.562Z" fill="#F26120"/>
<path d="M1454.41 92.5066C1454.23 91.222 1452.76 90.3861 1451.16 90.5892C1449.57 90.7924 1448.4 91.9892 1448.56 93.26C1448.72 94.5309 1450.29 95.4807 1451.9 95.2443C1453.51 95.0079 1454.61 93.7718 1454.41 92.5066Z" fill="#F26120"/>
<path d="M1447.13 82.8266C1447.31 84.0841 1448.85 84.9454 1450.39 84.7502C1451.93 84.5549 1453.22 83.257 1452.95 81.9324C1452.69 80.6078 1451.24 79.8607 1449.65 80.0951C1448.06 80.3295 1446.93 81.5572 1447.13 82.8266Z" fill="#F26120"/>
<path d="M1445.73 72.4928C1446.01 73.1983 1446.46 73.763 1447 74.081C1447.54 74.3991 1448.13 74.4486 1448.66 74.2204C1449.9 73.9254 1450.64 72.6483 1450.31 71.4418C1450.04 70.7573 1449.6 70.2079 1449.08 69.8963C1448.56 69.5846 1447.99 69.5319 1447.47 69.748C1446.31 70.0645 1445.44 71.3585 1445.73 72.4928Z" fill="#F26120"/>
<path d="M1440.76 105.687C1440.89 106.658 1441.76 107.311 1442.75 107.203C1443.75 107.096 1444.4 106.235 1444.27 105.292C1444.14 104.349 1443.19 103.562 1442.2 103.713C1441.21 103.863 1440.62 104.745 1440.76 105.687Z" fill="#F26120"/>
<path d="M1442.74 94.1138C1442.56 92.8565 1441.58 91.9233 1440.64 92.0331C1439.7 92.1428 1439.02 93.4005 1439.25 94.727C1439.49 96.0535 1440.41 96.8589 1441.38 96.6864C1442.36 96.5138 1442.94 95.3669 1442.74 94.1138Z" fill="#F26120"/>
<path d="M1441.3 83.6489C1441.13 82.3914 1439.92 81.4699 1438.66 81.6036C1437.41 81.7373 1436.4 83.001 1436.64 84.3271C1436.88 85.6532 1438.02 86.4471 1439.32 86.2696C1440.61 86.0921 1441.49 84.9235 1441.3 83.6489Z" fill="#F26120"/>
<path d="M1439.78 72.567C1439.65 71.6099 1438.54 70.9621 1437.25 71.0948C1435.96 71.2276 1435 72.1016 1435.09 73.0643C1435.18 74.0271 1436.37 74.7816 1437.69 74.6003C1439.01 74.419 1439.89 73.4545 1439.78 72.567Z" fill="#F26120"/>
<path d="M1426.12 85.6937C1426.21 86.3607 1427.05 86.7624 1428.05 86.6255C1429.05 86.4886 1429.73 85.8785 1429.62 85.2268C1429.52 84.5752 1428.64 84.1661 1427.7 84.2951C1426.76 84.4241 1426.03 85.0534 1426.12 85.6937Z" fill="#F26120"/>
<path d="M1430.25 107.104C1430.38 108.104 1430.98 108.797 1431.64 108.727C1432.3 108.657 1432.72 107.824 1432.59 106.863C1432.46 105.903 1431.81 105.157 1431.18 105.223C1430.55 105.289 1430.12 106.143 1430.25 107.104Z" fill="#F26120"/>
<path d="M1424.59 74.5317C1424.73 75.5176 1425.59 76.2393 1426.55 76.1284C1427.51 76.0176 1428.22 75.1198 1428.11 74.1721C1427.99 73.2245 1427.13 72.5028 1426.14 72.6176C1425.15 72.7325 1424.47 73.5639 1424.59 74.5317Z" fill="#F26120"/>
<path d="M1419.76 108.612C1419.82 108.782 1419.92 108.92 1420.05 109.003C1420.18 109.086 1420.33 109.107 1420.46 109.063C1420.77 109.021 1420.97 108.659 1420.91 108.363C1420.84 108.194 1420.73 108.057 1420.6 107.977C1420.47 107.897 1420.32 107.88 1420.19 107.929C1419.88 108.002 1419.68 108.303 1419.76 108.612Z" fill="#F26120"/>
<path d="M1418.83 97.4095C1418.7 97.4042 1418.56 97.4667 1418.47 97.5849C1418.37 97.7031 1418.31 97.8687 1418.3 98.0499C1418.35 98.2224 1418.44 98.3714 1418.56 98.4684C1418.68 98.5654 1418.82 98.6035 1418.95 98.5755C1419.24 98.5355 1419.51 98.2529 1419.48 97.9501C1419.45 97.6474 1419.15 97.3664 1418.83 97.4095Z" fill="#F26120"/>
<path d="M1416.72 86.4513C1416.79 86.6146 1416.9 86.7462 1417.03 86.8249C1417.16 86.9035 1417.3 86.9245 1417.44 86.8846C1417.74 86.8426 1417.94 86.4817 1417.86 86.1731C1417.79 86.005 1417.69 85.8696 1417.55 85.7925C1417.42 85.7154 1417.28 85.7019 1417.14 85.7547C1416.8 85.8477 1416.63 86.1592 1416.72 86.4513Z" fill="#F26120"/>
<path d="M1415.73 75.2364C1415.41 75.2798 1415.2 75.6147 1415.27 75.9123C1415.33 76.0862 1415.44 76.2296 1415.57 76.3159C1415.7 76.4023 1415.84 76.4257 1415.98 76.3819C1416.28 76.34 1416.49 76.0051 1416.42 75.6925C1416.36 75.3798 1416.02 75.166 1415.73 75.2364Z" fill="#F26120"/>
<path d="M624.638 224.475C624.049 222.637 622.89 219.271 621.535 218.014C620.474 219.508 619.484 224.069 619.181 225.954C619.612 225.846 620.044 225.738 620.47 225.597C621.859 225.223 623.231 224.748 624.638 224.475ZM618.465 230.503C618.35 231.249 618.257 231.922 618.185 232.522C618.114 232.915 617.96 234.048 617.801 235.147C617.718 235.68 617.608 236.253 617.508 236.685C617.475 236.898 617.408 237.117 617.369 237.296C617.325 237.442 617.281 237.588 617.197 237.706C616.907 238.239 616.493 238.655 615.686 238.792C614.476 238.998 613.509 238.193 613.344 237.218C613.281 236.848 613.319 236.461 613.402 236.136C613.48 235.777 613.563 235.451 613.624 235.199C613.822 234.127 613.954 233.067 614.119 232.002C614.623 227.834 615.891 218.798 618.276 215.523C618.84 214.77 619.673 213.971 620.816 213.777C623.237 213.366 625.02 215.312 626.22 217.288C628.063 220.4 629.524 225.548 630.487 228.982C630.788 230.142 631.088 231.302 631.451 232.416C631.53 232.68 631.643 232.937 631.688 233.206C631.801 233.464 631.886 233.761 631.938 234.063C632.103 235.039 631.445 236.257 630.167 236.474C628.822 236.702 628.029 235.903 627.594 234.766C627.459 234.374 627.345 233.909 627.198 233.449C626.937 232.525 626.705 231.561 626.608 231.197C626.427 230.536 626.166 229.612 625.883 228.553C625.614 228.598 625.345 228.644 625.115 228.718C624.281 228.894 623.451 229.104 622.628 229.347L619.754 230.146C619.362 230.282 618.936 230.423 618.465 230.503ZM642.099 232.478C642.038 232.73 641.983 233.016 641.91 233.202C641.598 233.808 641.067 234.348 640.26 234.485C638.982 234.702 637.926 233.774 637.755 232.765C637.041 228.562 636.631 224.308 635.918 220.105C635.747 219.096 636.287 217.794 637.699 217.554C639.212 217.298 640.062 218.433 640.233 219.442L640.416 220.518C641.297 218.777 642.732 217.046 644.952 216.67C650.634 215.706 652.965 222.92 653.701 227.258C653.769 227.661 653.884 228.541 653.965 229.427C654.16 230.985 654.115 232.757 652.198 233.082C650.887 233.304 649.864 232.371 649.693 231.362C649.63 230.992 649.662 230.572 649.667 230.191C649.642 229.434 649.517 228.694 649.397 227.988C649.021 225.769 648.279 223.231 646.928 221.385C646.467 220.91 646.023 220.743 645.62 220.811C645.418 220.845 645.122 221.138 645.01 221.295C643.467 223.01 642.572 227.52 642.316 229.881C642.3 230.195 642.24 230.863 642.18 231.53C642.17 231.878 642.121 232.197 642.099 232.478ZM664.762 228.633C664.701 228.885 664.646 229.171 664.574 229.357C664.261 229.963 663.73 230.503 662.923 230.64C661.646 230.856 660.589 229.929 660.418 228.92C659.705 224.717 659.294 220.463 658.581 216.26C658.41 215.251 658.95 213.949 660.362 213.709C661.875 213.453 662.725 214.588 662.896 215.597L663.079 216.673C663.96 214.932 665.396 213.201 667.615 212.825C673.297 211.861 675.628 219.075 676.364 223.413C676.432 223.816 676.547 224.696 676.628 225.582C676.823 227.14 676.778 228.912 674.862 229.237C673.55 229.459 672.527 228.526 672.356 227.517C672.293 227.147 672.326 226.727 672.33 226.346C672.306 225.589 672.18 224.849 672.06 224.143C671.684 221.924 670.942 219.386 669.591 217.54C669.13 217.065 668.686 216.898 668.283 216.966C668.081 217 667.785 217.293 667.673 217.45C666.131 219.165 665.235 223.675 664.979 226.036C664.963 226.35 664.903 227.018 664.843 227.685C664.833 228.033 664.784 228.352 664.762 228.633ZM693.12 222.265C692.228 223.938 690.747 225.608 688.494 225.99C684.123 226.732 682.415 221.763 681.839 218.367C681.605 216.989 681.19 213.116 681.753 211.948C682.037 211.381 682.568 210.841 683.409 210.698C684.687 210.482 685.71 211.415 685.881 212.424C685.944 212.794 685.928 213.108 685.912 213.422C685.896 213.736 685.835 213.988 685.853 214.296C685.8 215.412 685.955 216.528 686.143 217.637C686.297 218.545 686.933 221.274 687.719 221.832C689.939 221.456 690.51 215.651 690.488 213.89C690.476 213.616 690.407 213.005 690.378 212.422C690.36 212.114 690.348 211.839 690.342 211.598C690.352 211.458 690.33 211.323 690.346 211.216C690.363 211.11 690.385 211.037 690.401 210.93C690.623 210.201 691.205 209.549 692.146 209.389C693.054 209.235 693.733 209.569 694.139 210.123C694.566 210.604 694.753 211.299 694.839 211.803C695.044 213.014 695.182 214.236 695.388 215.446C695.639 216.926 696.122 219.369 697.039 220.285C697.286 220.52 697.489 220.693 697.663 220.906C697.91 221.141 698.063 221.426 698.137 221.863C698.308 222.872 697.611 224.063 696.333 224.28C695.055 224.496 693.684 223.345 693.12 222.265ZM713.272 213.761C712.399 214.324 707.311 217.367 707.471 218.308C707.545 218.745 708 218.979 708.672 218.865C711.059 218.46 712.79 216.022 713.272 213.761ZM713.519 210.329C713.17 209.696 712.647 209.266 711.807 209.409C708.377 209.991 707.96 210.995 706.277 212.907C706.043 213.154 705.757 213.306 705.455 213.358C704.244 213.563 702.693 212.373 703.452 210.93C704.829 208.241 707.776 205.838 711.105 205.273C714.77 204.651 717.507 206.92 718.162 210.371C718.776 213.173 718.412 215.518 720.298 218.069C720.478 218.315 720.602 218.64 720.665 219.01C720.831 219.985 720.139 221.209 718.861 221.426C716.777 221.78 715.917 219.366 715.408 217.792C713.84 220.375 711.66 222.613 709.374 223.001C706.314 223.52 703.777 222.636 703.321 219.946C702.859 217.223 705.063 215.742 707.408 214.064C709.444 212.612 711.835 211.41 713.519 210.329ZM728.614 220.567C727 220.841 726.234 219.587 726.063 218.578C725.065 212.694 725.047 206.678 724.043 200.76C723.906 199.953 723.702 199.158 723.565 198.351C723.394 197.342 724.052 196.124 725.33 195.907C726.473 195.713 727.344 196.361 727.694 197.201C727.796 197.391 727.869 197.621 727.909 197.856L728.006 198.428C728.103 198.999 728.228 199.531 728.314 200.036C729.318 205.954 729.369 211.964 730.367 217.848C730.538 218.857 730.228 220.293 728.614 220.567ZM753.551 211.044C753.769 210.903 753.914 210.74 754.138 210.633C754.362 210.525 754.614 210.379 754.917 210.328C756.194 210.111 757.245 211.005 757.417 212.013C757.787 214.199 754.651 215.492 752.937 215.783C748.364 216.559 745.17 213.434 744.537 209.702C743.869 205.768 745.982 201.501 750.79 200.685C753.245 200.268 755.502 201.546 756.573 203.37C756.815 203.779 757.074 204.288 757.16 204.793C757.331 205.801 756.64 207.026 755.362 207.243C754.252 207.431 753.381 206.783 752.941 205.82C752.89 205.725 752.873 205.624 752.817 205.495C752.53 205.025 751.996 204.735 751.458 204.826C749.34 205.186 748.51 207.021 748.841 208.972C749.143 210.754 750.318 211.972 752.235 211.647C752.874 211.539 753.249 211.302 753.551 211.044ZM774.257 208.499C773.365 210.172 771.884 211.842 769.631 212.224C765.26 212.966 763.552 207.998 762.976 204.602C762.742 203.223 762.327 199.35 762.89 198.182C763.174 197.615 763.705 197.075 764.546 196.933C765.824 196.716 766.847 197.649 767.018 198.658C767.081 199.028 767.065 199.342 767.049 199.656C767.033 199.97 766.972 200.222 766.99 200.531C766.937 201.647 767.092 202.762 767.28 203.871C767.434 204.779 768.07 207.508 768.856 208.066C771.075 207.69 771.647 201.885 771.625 200.125C771.613 199.85 771.544 199.239 771.515 198.656C771.497 198.348 771.485 198.073 771.479 197.832C771.489 197.692 771.466 197.557 771.483 197.451C771.5 197.344 771.522 197.271 771.538 197.165C771.76 196.435 772.342 195.783 773.283 195.623C774.191 195.469 774.87 195.804 775.276 196.358C775.703 196.838 775.89 197.533 775.976 198.038C776.181 199.248 776.319 200.47 776.525 201.68C776.776 203.16 777.259 205.603 778.176 206.52C778.423 206.754 778.626 206.928 778.8 207.14C779.047 207.375 779.2 207.66 779.274 208.098C779.445 209.106 778.747 210.297 777.47 210.514C776.192 210.731 774.821 209.58 774.257 208.499ZM787.285 210.613C785.671 210.886 784.905 209.633 784.734 208.624C783.736 202.74 783.718 196.724 782.714 190.806C782.577 189.999 782.373 189.204 782.236 188.397C782.065 187.388 782.723 186.169 784.001 185.953C785.144 185.759 786.015 186.406 786.365 187.246C786.466 187.437 786.54 187.666 786.58 187.902L786.677 188.473C786.774 189.045 786.899 189.577 786.984 190.082C787.988 195.999 788.039 202.01 789.038 207.894C789.209 208.903 788.899 210.339 787.285 210.613ZM794.439 197.43C793.681 197.247 793.114 196.756 792.954 195.814C792.783 194.805 793.48 193.615 794.758 193.398C794.993 193.358 795.229 193.318 795.43 193.284C795.328 192.679 795.186 192.046 795.044 191.412C794.97 190.975 794.828 190.55 794.754 190.113C794.583 189.104 795.241 187.885 796.552 187.663C797.46 187.509 798.229 187.966 798.708 188.542C798.798 188.665 798.866 188.861 798.922 188.99C798.99 189.186 799.064 189.416 799.143 189.679C799.256 190.144 799.359 190.749 799.501 191.383C799.569 191.786 799.671 192.184 799.734 192.554C800.928 192.455 802.14 192.872 802.374 194.251C802.608 195.629 801.641 196.45 800.442 196.723C800.659 198.208 800.904 199.654 801.15 201.1C801.201 201.402 801.304 202.008 801.501 202.562C801.614 202.82 801.716 203.01 801.84 203.128C801.918 203.183 801.958 203.211 801.991 203.206C802.193 203.171 802.322 203.115 802.551 203.041C802.646 202.991 802.775 202.934 802.87 202.883C803.039 202.855 803.167 202.798 803.302 202.776C804.58 202.559 805.603 203.492 805.774 204.501C806.093 206.384 804.071 207.107 802.794 207.324C798.86 207.992 797.341 204.548 796.914 202.026C796.657 200.513 796.434 198.994 796.177 197.481C795.6 197.545 794.95 197.586 794.439 197.43ZM820.444 200.663C819.551 202.336 818.07 204.006 815.818 204.388C811.447 205.13 809.739 200.161 809.163 196.766C808.929 195.387 808.514 191.514 809.077 190.346C809.361 189.779 809.892 189.239 810.733 189.097C812.01 188.88 813.033 189.813 813.205 190.822C813.267 191.192 813.251 191.506 813.236 191.82C813.22 192.134 813.159 192.386 813.176 192.695C813.124 193.81 813.278 194.926 813.466 196.035C813.621 196.943 814.256 199.672 815.043 200.23C817.262 199.854 817.834 194.049 817.812 192.289C817.8 192.014 817.731 191.403 817.701 190.82C817.683 190.512 817.671 190.237 817.665 189.996C817.676 189.856 817.653 189.721 817.67 189.615C817.686 189.508 817.708 189.435 817.725 189.328C817.947 188.599 818.528 187.947 819.47 187.787C820.378 187.633 821.057 187.968 821.462 188.521C821.89 189.002 822.077 189.697 822.162 190.201C822.368 191.412 822.506 192.634 822.711 193.844C822.962 195.324 823.446 197.767 824.362 198.684C824.61 198.918 824.812 199.092 824.987 199.304C825.234 199.539 825.386 199.824 825.46 200.261C825.631 201.27 824.934 202.461 823.656 202.678C822.379 202.894 821.007 201.743 820.444 200.663ZM835.803 200.409C835.564 201.038 834.965 201.589 834.125 201.732C832.847 201.949 831.796 201.055 831.625 200.046C831.505 199.34 831.452 198.622 831.372 197.944C831.177 196.593 830.983 195.243 830.749 193.864C830.498 192.385 830.213 190.911 829.856 189.415C829.657 188.653 829.358 187.908 829.221 187.101C829.05 186.093 829.742 184.868 831.019 184.652C832.532 184.395 833.292 185.407 833.683 186.69C834.302 185.444 835.302 184.202 836.949 183.922C838.563 183.648 841.157 184.869 841.436 186.516C841.608 187.525 840.95 188.744 839.638 188.966C838.798 189.109 838.309 188.88 837.73 188.321L837.691 188.293C836.569 190.04 836.047 195.525 835.968 197.51C835.98 197.785 835.976 198.374 835.961 198.895C835.979 199.203 835.957 199.484 835.924 199.697C835.93 199.938 835.909 200.218 835.803 200.409ZM856.461 189.467C855.588 190.03 850.501 193.073 850.66 194.014C850.734 194.451 851.189 194.686 851.862 194.571C854.249 194.166 855.98 191.728 856.461 189.467ZM856.709 186.035C856.36 185.403 855.837 184.972 854.996 185.115C851.567 185.697 851.149 186.702 849.467 188.613C849.232 188.86 848.947 189.012 848.644 189.064C847.434 189.269 845.883 188.079 846.641 186.636C848.018 183.947 850.966 181.544 854.295 180.979C857.96 180.358 860.697 182.626 861.352 186.078C861.965 188.879 861.602 191.224 863.488 193.775C863.668 194.021 863.792 194.346 863.855 194.716C864.02 195.691 863.329 196.915 862.051 197.132C859.966 197.486 859.107 195.072 858.598 193.498C857.03 196.081 854.85 198.319 852.563 198.707C849.504 199.226 846.967 198.342 846.51 195.652C846.048 192.929 848.253 191.448 850.597 189.77C852.634 188.318 855.025 187.117 856.709 186.035ZM871.804 196.273C870.19 196.547 869.424 195.293 869.253 194.284C868.255 188.4 868.237 182.384 867.233 176.467C867.096 175.66 866.892 174.864 866.755 174.057C866.584 173.048 867.242 171.83 868.52 171.613C869.663 171.419 870.534 172.067 870.884 172.907C870.985 173.097 871.059 173.327 871.099 173.562L871.196 174.134C871.293 174.705 871.418 175.238 871.503 175.742C872.507 181.66 872.558 187.67 873.557 193.554C873.728 194.563 873.418 195.999 871.804 196.273ZM885.771 178.164C885.6 177.155 886.297 175.965 887.575 175.748L888.819 175.537L888.762 175.201C888.698 174.416 888.634 173.631 888.71 172.857C888.926 170.053 890.618 167.587 893.51 167.096C896.166 166.646 898.245 168.092 899.601 169.764C899.803 169.937 899.983 170.184 900.13 170.436C900.316 170.715 900.468 171.001 900.525 171.337C900.696 172.346 900.004 173.57 898.727 173.787C897.987 173.912 897.465 173.69 897.027 173.349C896.864 173.204 896.695 173.025 896.56 172.84C896.059 172.129 895.187 171.067 894.245 171.226C892.833 171.466 893.008 173.719 893.112 174.74C894.115 174.535 895.151 174.324 896.193 174.147C897.471 173.931 898.489 174.83 898.66 175.839C898.791 176.612 898.479 177.426 897.763 177.894C897.332 178.209 896.839 178.362 896.335 178.447C895.87 178.561 895.393 178.607 895.024 178.67C894.553 178.75 894.049 178.835 893.578 178.915C893.795 180.4 894.023 181.745 894.149 182.485C894.406 183.998 894.674 185.578 894.998 187.08C895.168 187.881 895.4 188.638 895.531 189.411C895.703 190.42 895.045 191.638 893.733 191.861C892.792 192.02 892.056 191.557 891.617 191.009C891.409 190.802 891.182 189.872 891.131 189.569C890.949 188.908 890.779 188.107 890.597 187.239C890.278 185.563 889.976 183.781 889.879 183.209C889.679 182.033 889.485 180.889 889.325 179.741C887.879 179.986 886.085 180.013 885.771 178.164ZM910.945 178.079C911.578 177.937 912.295 177.677 912.866 177.372C913.829 176.932 914.293 176.404 914.184 175.765L914.173 175.698C912.727 175.943 911.541 176.698 910.945 178.079ZM906.495 182.639C905.849 182.299 905.584 181.756 905.482 181.15C905.362 180.444 905.618 179.709 906.222 179.191C906.593 175.669 909.033 172.315 913.202 171.608C915.892 171.151 918.044 172.62 918.455 175.04C918.62 176.016 918.472 176.975 918.104 177.867C916.924 180.696 913.753 181.788 911.019 182.39C911.747 183.823 913.177 184.099 915.127 183.769C916.136 183.597 916.516 183.187 916.868 182.816L917.119 182.462C917.237 182.338 917.281 182.192 917.438 182.097C917.706 181.844 918.053 181.646 918.524 181.566C919.802 181.35 920.859 182.277 921.024 183.252C921.144 183.958 920.86 184.526 920.564 185.025C919.582 186.576 917.678 187.591 915.829 187.904C911.155 188.697 907.584 186.813 906.495 182.639ZM930.011 180.136C930.095 180.226 930.219 180.343 930.371 180.421C931.157 180.772 932.351 180.881 933.293 180.721C933.629 180.664 934.565 180.471 934.479 179.966C934.382 179.395 933.983 179.082 933.276 178.787C932.872 178.648 932.434 178.515 931.94 178.46C931.469 178.332 930.931 178.216 930.386 178.066C928.226 177.568 925.79 176.667 925.254 173.506C924.781 170.716 926.927 168.483 929.852 167.987C931.735 167.668 933.654 168.172 935.137 169.166C935.682 169.523 936.211 169.987 936.347 170.794C936.519 171.803 935.861 173.021 934.583 173.238C934.112 173.318 933.714 173.213 933.343 173.068C933.192 172.99 933.04 172.912 932.883 172.8C932.737 172.756 932.585 172.678 932.462 172.56C931.922 172.237 931.361 171.986 930.554 172.123C930.285 172.168 929.994 172.287 929.77 172.394C929.585 172.529 929.535 172.642 929.558 172.776C929.643 173.28 930.009 173.599 930.778 173.849C931.148 173.994 931.58 174.093 932.079 174.182C932.584 174.304 933.089 174.425 933.628 174.542C935.794 175.074 938.241 176.042 938.783 179.236C939.285 182.195 937.054 184.338 933.994 184.857C931.91 185.211 929.436 184.904 927.689 183.782C927.105 183.397 926.577 182.933 926.44 182.126C926.269 181.117 926.927 179.899 928.204 179.682C928.776 179.585 929.208 179.685 929.556 179.902C929.629 179.924 929.702 179.947 929.781 180.003C929.859 180.058 929.938 180.114 930.011 180.136ZM943.572 172.128C942.814 171.945 942.247 171.454 942.087 170.512C941.916 169.503 942.613 168.313 943.891 168.096C944.126 168.056 944.362 168.016 944.563 167.982C944.461 167.377 944.319 166.743 944.177 166.11C944.103 165.673 943.961 165.248 943.887 164.81C943.716 163.802 944.374 162.583 945.685 162.361C946.593 162.207 947.362 162.664 947.841 163.24C947.931 163.363 947.999 163.559 948.055 163.688C948.123 163.884 948.196 164.114 948.276 164.377C948.389 164.842 948.492 165.447 948.634 166.081C948.702 166.484 948.804 166.882 948.867 167.252C950.061 167.153 951.273 167.57 951.507 168.948C951.741 170.327 950.774 171.148 949.575 171.421C949.792 172.906 950.037 174.352 950.283 175.798C950.334 176.1 950.437 176.706 950.634 177.26C950.747 177.518 950.849 177.708 950.972 177.825C951.051 177.881 951.09 177.909 951.124 177.903C951.326 177.869 951.455 177.813 951.684 177.739C951.779 177.688 951.908 177.632 952.003 177.581C952.172 177.553 952.3 177.496 952.435 177.474C953.713 177.257 954.736 178.19 954.907 179.199C955.226 181.082 953.204 181.805 951.927 182.022C947.993 182.689 946.474 179.246 946.047 176.724C945.79 175.211 945.567 173.692 945.31 172.179C944.733 172.242 944.083 172.284 943.572 172.128Z" fill="black"/>
<path d="M1058.77 162.318C1058.52 160.839 1058.37 159.342 1058.12 157.863C1057.55 154.5 1056.83 151.094 1056.09 147.76C1055.74 146.124 1055.33 144.499 1055.05 142.851C1054.88 141.843 1055.57 140.618 1056.85 140.402C1057.79 140.242 1058.59 140.694 1059.04 141.309C1059.56 142.087 1062.04 155.087 1062.39 157.138C1062.58 158.248 1062.73 159.363 1062.91 160.406C1063.17 161.952 1063.26 163.701 1061.27 164.038C1059.96 164.26 1058.94 163.327 1058.77 162.318ZM1069.38 160.518C1069.13 159.038 1068.98 157.542 1068.73 156.062C1068.16 152.7 1067.44 149.293 1066.7 145.959C1066.36 144.323 1065.94 142.698 1065.66 141.051C1065.49 140.042 1066.18 138.818 1067.46 138.601C1068.4 138.441 1069.21 138.893 1069.66 139.509C1070.17 140.286 1072.65 153.287 1073 155.338C1073.19 156.447 1073.34 157.563 1073.52 158.605C1073.78 160.152 1073.87 161.901 1071.89 162.237C1070.58 162.46 1069.55 161.526 1069.38 160.518ZM1077.27 137.352C1077.86 137.182 1078.7 137.006 1079.53 136.83C1081.21 136.511 1082.92 136.22 1083.49 136.123C1085.21 135.832 1091.58 134.821 1092.89 135.429C1093.63 135.718 1094.14 136.288 1094.27 137.028C1094.44 138.037 1093.74 139.227 1092.46 139.444C1092.23 139.484 1091.99 139.49 1091.78 139.491C1091.57 139.458 1091.4 139.487 1091.22 139.481L1089.68 139.536C1089.06 139.572 1088.42 139.647 1087.81 139.716C1087.83 139.884 1087.86 140.018 1087.88 140.153C1088.06 140.988 1088.2 141.862 1088.35 142.703C1089.01 146.636 1089.41 150.616 1089.88 154.618C1089.9 154.926 1090.03 155.666 1090.07 156.35C1090.13 156.686 1090.24 157.74 1090.12 158.071C1089.91 158.834 1089.3 159.559 1088.36 159.719C1087.08 159.936 1086.03 159.008 1085.86 157.999C1085.58 156.385 1085.47 154.709 1085.34 153.106C1085 149.878 1084.62 146.621 1084.08 143.427C1083.93 142.553 1083.78 141.679 1083.6 140.81C1083.57 140.642 1083.51 140.513 1083.48 140.345C1082.21 140.562 1080.93 140.812 1079.71 141.124C1078.91 141.295 1078.18 141.521 1077.41 141.652C1076.13 141.869 1075.08 140.941 1074.9 139.933C1074.64 138.386 1075.96 137.575 1077.27 137.352ZM1112.36 135.549C1112.53 136.317 1112.71 137.186 1112.88 138.02C1113.24 139.898 1113.6 141.809 1113.84 143.047C1116.16 142.653 1120.61 141.171 1120.09 138.078C1120 137.54 1119.74 137.064 1119.39 136.605C1118.19 135.218 1116.1 134.742 1114.08 135.085C1113.51 135.182 1112.91 135.318 1112.36 135.549ZM1121.46 152.859C1121.41 152.764 1121.31 152.607 1121.21 152.45C1121.06 152.165 1120.85 151.751 1120.69 151.398C1120.34 150.591 1119.97 149.791 1119.81 149.505C1119.52 148.968 1118.8 147.809 1118.15 146.639C1118.1 146.511 1118.01 146.388 1117.95 146.259C1116.85 146.688 1115.69 146.989 1114.51 147.188C1114.75 148.601 1115.53 153.381 1115.31 154.178C1115.05 154.879 1114.51 155.526 1113.56 155.685C1112.25 155.908 1111.23 154.974 1111.06 153.966C1110.89 152.957 1110.82 151.931 1110.67 150.883C1110.4 148.888 1110.1 146.865 1109.75 144.847C1109.21 141.653 1108.63 138.431 1107.82 135.282C1107.75 134.845 1107.6 134.419 1107.53 133.982C1107.36 133.007 1108.02 131.789 1109.33 131.566C1109.8 131.486 1110.23 131.552 1110.57 131.736C1111.48 131.375 1112.44 131.109 1113.38 130.949C1118.32 130.11 1123.54 132.545 1124.36 137.353C1124.82 140.043 1123.72 142.34 1121.76 144.055C1123.24 146.641 1125.36 150.779 1125.46 151.384C1125.63 152.393 1124.93 153.583 1123.66 153.8C1122.85 153.937 1122.18 153.636 1121.68 153.133C1121.6 153.111 1121.55 152.982 1121.46 152.859ZM1142.26 134.455C1144.83 135.541 1146.41 137.695 1146.84 140.25C1147.66 145.092 1144.27 150.406 1138.63 151.364C1134.15 152.123 1131.78 148.34 1131.25 145.179C1130.49 140.741 1132.44 135.706 1137.14 133.455C1137.97 133.038 1138.82 132.721 1139.76 132.562C1141.04 132.345 1142.06 133.278 1142.23 134.287L1142.26 134.455ZM1138.02 137.803C1135.97 139.362 1135.15 142.095 1135.55 144.449C1135.74 145.592 1136.44 147.479 1137.92 147.228C1140.98 146.709 1143 143.737 1142.54 140.98C1142.27 139.434 1141.26 138.36 1139.65 138.012C1139.33 137.962 1139.05 137.974 1138.77 137.952C1138.52 137.925 1138.27 137.864 1138.02 137.803ZM1163.68 130.822C1166.25 131.907 1167.82 134.061 1168.26 136.617C1169.08 141.459 1165.69 146.772 1160.04 147.731C1155.57 148.489 1153.2 144.706 1152.66 141.546C1151.91 137.107 1153.86 132.072 1158.56 129.822C1159.39 129.404 1160.23 129.088 1161.17 128.928C1162.45 128.711 1163.48 129.645 1163.65 130.653L1163.68 130.822ZM1159.43 134.17C1157.38 135.729 1156.57 138.462 1156.96 140.815C1157.16 141.959 1157.86 143.846 1159.34 143.595C1162.4 143.076 1164.42 140.104 1163.95 137.347C1163.69 135.8 1162.68 134.727 1161.06 134.378C1160.74 134.329 1160.47 134.341 1160.19 134.319C1159.94 134.292 1159.69 134.231 1159.43 134.17ZM1179.78 143.172C1179.54 143.8 1178.94 144.351 1178.1 144.494C1176.82 144.711 1175.77 143.817 1175.6 142.808C1175.48 142.102 1175.43 141.384 1175.35 140.706C1175.15 139.356 1174.96 138.005 1174.72 136.626C1174.47 135.147 1174.19 133.673 1173.83 132.177C1173.63 131.415 1173.33 130.671 1173.2 129.864C1173.02 128.855 1173.72 127.631 1174.99 127.414C1176.51 127.157 1177.27 128.17 1177.66 129.453C1178.28 128.206 1179.28 126.964 1180.92 126.684C1182.54 126.411 1185.13 127.631 1185.41 129.279C1185.58 130.287 1184.92 131.506 1183.61 131.728C1182.77 131.871 1182.28 131.642 1181.7 131.083L1181.66 131.056C1180.54 132.803 1180.02 138.287 1179.94 140.272C1179.95 140.547 1179.95 141.136 1179.94 141.657C1179.95 141.966 1179.93 142.246 1179.9 142.459C1179.9 142.7 1179.88 142.981 1179.78 143.172ZM1197.42 129.454C1198.37 130.539 1201.78 132.52 1203.11 133.228C1203.42 133.384 1203.79 133.529 1204.06 133.69C1204.43 133.869 1204.82 134.081 1205.1 134.343C1205.5 134.656 1205.75 135.098 1205.83 135.569C1206 136.578 1205.31 137.802 1204.03 138.019C1203.32 138.139 1202.51 137.793 1201.89 137.448C1201.7 137.342 1201.55 137.23 1201.35 137.124C1200.16 136.427 1198.88 135.78 1197.68 135.015C1197.02 134.608 1196.36 134.167 1195.76 133.715C1195.98 134.992 1196.52 139.224 1196.27 139.959C1196 140.661 1195.5 141.335 1194.52 141.5C1193.24 141.717 1192.19 140.789 1192.02 139.781C1191.95 139.411 1191.96 139.063 1191.93 138.688C1191.76 136.019 1191.33 133.29 1190.88 130.634C1190.49 128.314 1190.03 126.039 1189.44 123.787C1189.26 123.126 1189.11 122.459 1188.86 121.809L1188.66 121.221C1188.6 121.059 1188.52 120.829 1188.48 120.594C1188.31 119.585 1189 118.361 1190.28 118.144C1191.19 117.99 1191.91 118.386 1192.39 118.928C1192.91 119.566 1193.52 121.953 1194.04 124.216C1194.19 124.883 1194.34 125.55 1194.48 126.183C1194.63 126.02 1194.77 125.823 1194.95 125.654C1195.55 124.963 1196.24 124.327 1196.9 123.731C1197.57 123.202 1198.18 122.685 1198.66 122.257C1198.94 122.071 1199.39 121.683 1199.82 121.334C1200.25 121.019 1200.81 120.647 1201.31 120.562C1202.59 120.345 1203.65 121.273 1203.82 122.281C1204.01 123.425 1203.3 124.099 1202.46 124.691C1202.13 124.989 1201.73 125.265 1201.48 125.445C1199.96 126.671 1198.44 127.898 1197.42 129.454ZM1214.51 127.697C1215.14 127.555 1215.86 127.295 1216.43 126.99C1217.4 126.55 1217.86 126.022 1217.75 125.383L1217.74 125.316C1216.29 125.561 1215.11 126.316 1214.51 127.697ZM1210.06 132.257C1209.42 131.916 1209.15 131.373 1209.05 130.768C1208.93 130.062 1209.18 129.327 1209.79 128.809C1210.16 125.287 1212.6 121.933 1216.77 121.225C1219.46 120.769 1221.61 122.237 1222.02 124.658C1222.19 125.633 1222.04 126.593 1221.67 127.485C1220.49 130.314 1217.32 131.406 1214.59 132.008C1215.31 133.441 1216.74 133.717 1218.69 133.386C1219.7 133.215 1220.08 132.805 1220.43 132.434L1220.69 132.08C1220.8 131.956 1220.85 131.81 1221 131.715C1221.27 131.461 1221.62 131.264 1222.09 131.184C1223.37 130.968 1224.43 131.895 1224.59 132.87C1224.71 133.576 1224.43 134.144 1224.13 134.643C1223.15 136.194 1221.24 137.208 1219.4 137.522C1214.72 138.315 1211.15 136.43 1210.06 132.257ZM1234.29 124.342C1234.92 124.2 1235.64 123.94 1236.21 123.635C1237.17 123.195 1237.63 122.667 1237.52 122.028L1237.51 121.961C1236.07 122.206 1234.88 122.961 1234.29 124.342ZM1229.84 128.902C1229.19 128.562 1228.92 128.019 1228.82 127.413C1228.7 126.707 1228.96 125.972 1229.56 125.454C1229.93 121.932 1232.37 118.578 1236.54 117.871C1239.23 117.414 1241.38 118.883 1241.79 121.304C1241.96 122.279 1241.81 123.238 1241.44 124.13C1240.26 126.96 1237.09 128.051 1234.36 128.653C1235.09 130.086 1236.52 130.363 1238.47 130.032C1239.48 129.861 1239.86 129.45 1240.21 129.079L1240.46 128.725C1240.58 128.601 1240.62 128.455 1240.78 128.36C1241.05 128.107 1241.39 127.909 1241.86 127.83C1243.14 127.613 1244.2 128.54 1244.36 129.515C1244.48 130.222 1244.2 130.789 1243.9 131.289C1242.92 132.839 1241.02 133.854 1239.17 134.167C1234.5 134.96 1230.92 133.076 1229.84 128.902Z" fill="black"/>
<path d="M359.615 281.076C359.364 279.597 359.214 278.1 358.963 276.621C358.392 273.258 357.676 269.851 356.937 266.518C356.591 264.881 356.177 263.257 355.897 261.609C355.726 260.6 356.418 259.376 357.695 259.159C358.637 259 359.44 259.451 359.89 260.067C360.403 260.845 362.885 273.845 363.233 275.896C363.421 277.006 363.576 278.121 363.753 279.163C364.015 280.71 364.104 282.459 362.121 282.796C360.809 283.018 359.786 282.085 359.615 281.076ZM370.227 279.276C369.976 277.796 369.826 276.3 369.575 274.82C369.005 271.458 368.288 268.051 367.55 264.717C367.203 263.081 366.789 261.456 366.51 259.809C366.338 258.8 367.03 257.576 368.308 257.359C369.249 257.199 370.052 257.651 370.503 258.266C371.015 259.044 373.498 272.045 373.846 274.096C374.034 275.205 374.188 276.32 374.365 277.363C374.628 278.91 374.717 280.659 372.733 280.995C371.422 281.218 370.399 280.284 370.227 279.276ZM378.115 256.11C378.708 255.94 379.543 255.764 380.378 255.588C382.054 255.269 383.768 254.978 384.34 254.881C386.055 254.59 392.421 253.579 393.735 254.186C394.476 254.476 394.988 255.046 395.113 255.786C395.284 256.795 394.587 257.985 393.309 258.202C393.074 258.242 392.833 258.248 392.625 258.249C392.412 258.216 392.244 258.244 392.07 258.239L390.523 258.294C389.906 258.33 389.262 258.404 388.651 258.474C388.679 258.642 388.702 258.776 388.725 258.911C388.901 259.746 389.05 260.62 389.192 261.46C389.86 265.394 390.258 269.374 390.729 273.376C390.747 273.684 390.873 274.424 390.92 275.108C390.977 275.444 391.086 276.498 390.969 276.829C390.753 277.592 390.15 278.317 389.208 278.477C387.93 278.693 386.874 277.766 386.702 276.757C386.429 275.143 386.317 273.467 386.184 271.864C385.843 268.635 385.464 265.379 384.922 262.185C384.774 261.311 384.625 260.436 384.443 259.568C384.415 259.4 384.358 259.271 384.33 259.103C383.052 259.32 381.78 259.57 380.553 259.882C379.752 260.053 379.029 260.279 378.256 260.41C376.978 260.627 375.922 259.699 375.75 258.691C375.488 257.144 376.803 256.333 378.115 256.11ZM413.207 254.307C413.372 255.075 413.554 255.943 413.73 256.778C414.084 258.655 414.442 260.566 414.687 261.805C417.007 261.411 421.46 259.929 420.935 256.836C420.844 256.298 420.59 255.822 420.236 255.363C419.032 253.976 416.945 253.5 414.927 253.842C414.356 253.939 413.756 254.076 413.207 254.307ZM422.301 271.617C422.251 271.522 422.155 271.365 422.059 271.208C421.907 270.923 421.698 270.508 421.535 270.156C421.19 269.349 420.812 268.549 420.66 268.263C420.361 267.726 419.646 266.567 418.998 265.397C418.941 265.268 418.851 265.145 418.795 265.017C417.692 265.446 416.532 265.746 415.355 265.946C415.595 267.358 416.371 272.139 416.16 272.935C415.899 273.637 415.351 274.283 414.41 274.443C413.099 274.666 412.075 273.732 411.904 272.723C411.733 271.715 411.663 270.689 411.52 269.641C411.25 267.646 410.942 265.623 410.599 263.605C410.057 260.411 409.476 257.189 408.665 254.04C408.591 253.603 408.45 253.177 408.375 252.74C408.21 251.765 408.868 250.547 410.179 250.324C410.65 250.244 411.076 250.31 411.419 250.494C412.326 250.133 413.284 249.866 414.226 249.707C419.168 248.868 424.39 251.303 425.205 256.111C425.662 258.801 424.564 261.098 422.607 262.813C424.083 265.399 426.203 269.536 426.306 270.142C426.477 271.15 425.78 272.341 424.502 272.558C423.695 272.695 423.021 272.394 422.521 271.891C422.448 271.869 422.392 271.74 422.301 271.617ZM443.105 253.213C445.676 254.299 447.253 256.453 447.686 259.008C448.508 263.85 445.12 269.164 439.471 270.122C434.999 270.881 432.628 267.097 432.091 263.937C431.338 259.498 433.286 254.464 437.989 252.213C438.818 251.795 439.663 251.479 440.605 251.319C441.883 251.103 442.906 252.036 443.077 253.045L443.105 253.213ZM438.865 256.561C436.812 258.12 435.996 260.853 436.395 263.207C436.589 264.35 437.29 266.237 438.769 265.986C441.829 265.467 443.85 262.495 443.382 259.738C443.12 258.191 442.107 257.118 440.492 256.769C440.172 256.72 439.897 256.732 439.617 256.71C439.37 256.683 439.118 256.622 438.865 256.561ZM464.521 249.579C467.092 250.665 468.668 252.819 469.101 255.375C469.923 260.216 466.535 265.53 460.886 266.489C456.414 267.247 454.043 263.464 453.507 260.303C452.754 255.865 454.701 250.83 459.404 248.579C460.233 248.162 461.079 247.846 462.02 247.686C463.298 247.469 464.321 248.403 464.492 249.411L464.521 249.579ZM460.281 252.928C458.227 254.487 457.411 257.22 457.811 259.573C458.005 260.716 458.705 262.604 460.185 262.353C463.244 261.834 465.265 258.862 464.798 256.105C464.535 254.558 463.523 253.485 461.907 253.136C461.587 253.086 461.313 253.099 461.032 253.077C460.786 253.05 460.533 252.989 460.281 252.928ZM480.623 261.929C480.383 262.558 479.785 263.109 478.944 263.252C477.667 263.469 476.616 262.575 476.445 261.566C476.325 260.86 476.272 260.142 476.192 259.464C475.997 258.113 475.803 256.763 475.569 255.384C475.318 253.905 475.033 252.431 474.676 250.935C474.477 250.173 474.178 249.428 474.041 248.621C473.87 247.613 474.561 246.388 475.839 246.172C477.352 245.915 478.112 246.928 478.503 248.21C479.121 246.964 480.121 245.722 481.769 245.442C483.383 245.168 485.977 246.389 486.256 248.036C486.427 249.045 485.769 250.264 484.458 250.486C483.617 250.629 483.129 250.4 482.55 249.841L482.51 249.813C481.389 251.56 480.866 257.045 480.788 259.03C480.8 259.305 480.796 259.894 480.781 260.415C480.799 260.723 480.777 261.004 480.744 261.217C480.75 261.458 480.729 261.738 480.623 261.929ZM498.27 248.212C499.215 249.297 502.629 251.277 503.96 251.986C504.263 252.142 504.634 252.286 504.903 252.448C505.28 252.627 505.661 252.838 505.948 253.101C506.347 253.414 506.595 253.856 506.675 254.327C506.846 255.336 506.154 256.56 504.877 256.777C504.171 256.896 503.351 256.551 502.739 256.205C502.548 256.099 502.391 255.988 502.2 255.882C501.009 255.184 499.723 254.538 498.521 253.773C497.864 253.366 497.201 252.925 496.606 252.472C496.822 253.75 497.367 257.982 497.112 258.717C496.85 259.418 496.342 260.093 495.367 260.258C494.089 260.475 493.032 259.547 492.861 258.539C492.798 258.169 492.809 257.821 492.779 257.445C492.603 254.777 492.175 252.048 491.724 249.392C491.331 247.072 490.876 244.797 490.286 242.544C490.105 241.883 489.957 241.217 489.708 240.567L489.505 239.979C489.443 239.816 489.369 239.587 489.329 239.351C489.158 238.343 489.85 237.118 491.127 236.902C492.035 236.748 492.76 237.144 493.232 237.686C493.755 238.324 494.368 240.71 494.89 242.974C495.038 243.641 495.186 244.308 495.328 244.941C495.473 244.778 495.613 244.581 495.792 244.412C496.401 243.721 497.088 243.085 497.748 242.489C498.42 241.96 499.024 241.443 499.505 241.015C499.784 240.829 500.237 240.441 500.662 240.092C501.093 239.777 501.653 239.405 502.157 239.32C503.435 239.103 504.492 240.031 504.663 241.039C504.857 242.182 504.141 242.857 503.307 243.448C502.977 243.747 502.575 244.022 502.328 244.203C500.807 245.429 499.285 246.656 498.27 248.212ZM515.357 246.454C515.99 246.312 516.707 246.052 517.278 245.748C518.241 245.308 518.705 244.779 518.597 244.141L518.585 244.073C517.139 244.319 515.953 245.073 515.357 246.454ZM510.907 251.014C510.262 250.674 509.997 250.131 509.894 249.526C509.774 248.82 510.03 248.085 510.634 247.567C511.005 244.045 513.445 240.691 517.615 239.983C520.305 239.527 522.456 240.995 522.867 243.416C523.032 244.391 522.884 245.35 522.516 246.243C521.336 249.072 518.166 250.164 515.431 250.766C516.159 252.199 517.589 252.475 519.539 252.144C520.548 251.973 520.928 251.563 521.28 251.192L521.532 250.838C521.649 250.714 521.693 250.568 521.85 250.472C522.119 250.219 522.466 250.022 522.936 249.942C524.214 249.725 525.271 250.653 525.436 251.628C525.556 252.334 525.272 252.901 524.976 253.401C523.994 254.951 522.09 255.966 520.241 256.28C515.567 257.073 511.996 255.188 510.907 251.014ZM535.131 243.1C535.764 242.958 536.481 242.698 537.052 242.393C538.015 241.953 538.479 241.425 538.37 240.786L538.359 240.719C536.913 240.964 535.727 241.719 535.131 243.1ZM530.681 247.66C530.035 247.319 529.77 246.776 529.668 246.171C529.548 245.465 529.804 244.73 530.408 244.212C530.779 240.69 533.219 237.336 537.388 236.628C540.078 236.172 542.23 237.64 542.641 240.061C542.806 241.036 542.657 241.996 542.29 242.888C541.11 245.717 537.939 246.809 535.205 247.411C535.932 248.844 537.363 249.12 539.313 248.789C540.322 248.618 540.702 248.208 541.054 247.837L541.305 247.483C541.423 247.359 541.467 247.213 541.624 247.118C541.892 246.864 542.239 246.667 542.71 246.587C543.988 246.371 545.044 247.298 545.21 248.273C545.33 248.979 545.045 249.546 544.75 250.046C543.767 251.597 541.864 252.611 540.015 252.925C535.341 253.718 531.77 251.833 530.681 247.66Z" fill="black"/>
<circle cx="997.182" cy="163.105" r="6.74979" transform="rotate(-5.11568 997.182 163.105)" fill="#202020"/>
<circle cx="578.325" cy="236.324" r="6.74979" transform="rotate(-5.11568 578.325 236.324)" fill="#202020"/>
<circle cx="324.325" cy="278.324" r="6.74979" transform="rotate(-5.11568 324.325 278.324)" fill="#202020"/>
<g filter="url(#filter0_d_561_45)">
<path d="M1693.83 56.7565L4.00781 126.485L6.47418 186.256L1696.3 116.527L1693.83 56.7565Z" fill="white"/>
</g>
<path d="M202.366 149.574C202.008 147.678 201.27 144.195 200.08 142.781C198.843 144.134 197.301 148.539 196.769 150.373C197.211 150.318 197.652 150.264 198.092 150.176C199.517 149.975 200.937 149.672 202.366 149.574ZM195.501 154.8C195.295 155.526 195.12 156.182 194.976 156.769C194.856 157.15 194.565 158.256 194.272 159.327C194.125 159.846 193.945 160.4 193.793 160.817C193.734 161.024 193.641 161.233 193.581 161.407C193.519 161.546 193.457 161.686 193.359 161.792C193.006 162.286 192.544 162.649 191.726 162.685C190.5 162.741 189.639 161.824 189.595 160.836C189.578 160.461 189.663 160.082 189.785 159.769C189.906 159.422 190.029 159.109 190.12 158.866C190.449 157.827 190.709 156.791 191.004 155.754C192.015 151.68 194.382 142.867 197.15 139.909C197.803 139.231 198.727 138.54 199.886 138.488C202.339 138.377 203.87 140.527 204.818 142.635C206.265 145.95 207.084 151.238 207.619 154.765C207.775 155.952 207.931 157.14 208.154 158.291C208.2 158.562 208.281 158.831 208.293 159.104C208.373 159.373 208.421 159.679 208.435 159.985C208.48 160.973 207.677 162.102 206.383 162.16C205.02 162.222 204.331 161.331 204.039 160.15C203.952 159.744 203.896 159.268 203.807 158.794C203.661 157.845 203.549 156.86 203.498 156.487C203.399 155.809 203.254 154.859 203.102 153.774C202.83 153.786 202.557 153.798 202.32 153.843C201.47 153.916 200.621 154.022 199.774 154.163L196.824 154.603C196.418 154.69 195.978 154.778 195.501 154.8ZM218.714 159.658C218.623 159.901 218.533 160.178 218.438 160.353C218.054 160.916 217.461 161.387 216.643 161.424C215.349 161.482 214.414 160.432 214.367 159.41C214.175 155.151 214.29 150.879 214.097 146.62C214.051 145.598 214.747 144.372 216.178 144.307C217.711 144.238 218.415 145.469 218.461 146.491L218.51 147.582C219.598 145.962 221.235 144.42 223.484 144.319C229.242 144.059 230.67 151.505 230.869 155.9C230.887 156.309 230.893 157.196 230.865 158.085C230.868 159.655 230.605 161.408 228.663 161.496C227.335 161.556 226.434 160.504 226.388 159.482C226.371 159.107 226.454 158.694 226.506 158.316C226.574 157.562 226.54 156.812 226.508 156.097C226.406 153.848 225.981 151.239 224.867 149.241C224.468 148.712 224.048 148.492 223.639 148.511C223.435 148.52 223.105 148.774 222.975 148.916C221.234 150.429 219.792 154.795 219.248 157.107C219.193 157.417 219.052 158.072 218.911 158.727C218.858 159.071 218.77 159.382 218.714 159.658ZM241.678 158.621C241.586 158.864 241.497 159.141 241.402 159.316C241.018 159.88 240.425 160.35 239.607 160.387C238.312 160.446 237.377 159.395 237.331 158.373C237.139 154.115 237.253 149.842 237.061 145.583C237.015 144.561 237.71 143.335 239.141 143.27C240.674 143.201 241.379 144.433 241.425 145.455L241.474 146.545C242.562 144.925 244.199 143.384 246.448 143.282C252.205 143.022 253.634 150.468 253.832 154.863C253.851 155.272 253.857 156.159 253.829 157.048C253.831 158.618 253.569 160.371 251.627 160.459C250.298 160.519 249.397 159.467 249.351 158.445C249.334 158.07 249.418 157.657 249.469 157.279C249.538 156.525 249.504 155.775 249.471 155.06C249.37 152.811 248.945 150.202 247.831 148.204C247.431 147.676 247.012 147.456 246.603 147.474C246.398 147.483 246.068 147.737 245.938 147.88C244.197 149.392 242.756 153.759 242.211 156.071C242.157 156.38 242.016 157.035 241.875 157.69C241.822 158.034 241.734 158.345 241.678 158.621ZM270.603 155.779C269.512 157.33 267.837 158.805 265.555 158.908C261.126 159.108 260.04 153.968 259.885 150.527C259.822 149.13 259.885 145.236 260.587 144.146C260.938 143.618 261.532 143.147 262.383 143.109C263.678 143.05 264.579 144.102 264.625 145.124C264.642 145.499 264.588 145.809 264.534 146.118C264.479 146.428 264.388 146.671 264.368 146.979C264.178 148.08 264.195 149.206 264.246 150.33C264.287 151.25 264.584 154.036 265.296 154.687C267.545 154.585 268.824 148.895 269.018 147.145C269.04 146.871 269.046 146.256 269.088 145.674C269.108 145.366 269.13 145.091 269.153 144.851C269.181 144.714 269.175 144.577 269.205 144.474C269.234 144.37 269.265 144.3 269.295 144.196C269.604 143.5 270.261 142.924 271.215 142.881C272.135 142.839 272.768 143.254 273.103 143.854C273.468 144.384 273.568 145.096 273.591 145.607C273.647 146.833 273.634 148.063 273.689 149.29C273.757 150.789 273.938 153.273 274.735 154.295C274.951 154.558 275.131 154.755 275.278 154.987C275.495 155.251 275.611 155.553 275.631 155.996C275.677 157.018 274.839 158.114 273.544 158.172C272.25 158.231 271.03 156.92 270.603 155.779ZM291.645 149.81C290.709 150.262 285.287 152.658 285.33 153.612C285.35 154.055 285.773 154.343 286.454 154.312C288.873 154.203 290.89 151.995 291.645 149.81ZM292.312 146.435C292.043 145.764 291.577 145.273 290.725 145.311C287.25 145.468 286.712 146.414 284.808 148.105C284.545 148.321 284.243 148.438 283.936 148.451C282.71 148.507 281.317 147.136 282.246 145.797C283.943 143.296 287.163 141.273 290.536 141.121C294.249 140.953 296.688 143.54 296.914 147.046C297.18 149.902 296.532 152.184 298.09 154.947C298.239 155.214 298.322 155.551 298.339 155.926C298.384 156.914 297.547 158.044 296.253 158.103C294.14 158.198 293.584 155.697 293.271 154.073C291.398 156.444 288.96 158.398 286.643 158.503C283.543 158.643 281.134 157.454 281.011 154.728C280.886 151.969 283.256 150.769 285.788 149.392C287.988 148.2 290.507 147.301 292.312 146.435ZM306.037 158.446C304.402 158.52 303.795 157.182 303.749 156.16C303.48 150.198 304.2 144.225 303.93 138.229C303.893 137.411 303.788 136.597 303.751 135.779C303.705 134.757 304.507 133.628 305.802 133.57C306.96 133.517 307.745 134.267 307.99 135.144C308.067 135.345 308.112 135.582 308.123 135.82L308.149 136.4C308.175 136.979 308.234 137.522 308.257 138.033C308.527 144.03 307.841 150.001 308.11 155.963C308.156 156.985 307.673 158.373 306.037 158.446ZM331.953 152.053C332.187 151.94 332.351 151.796 332.587 151.717C332.822 151.638 333.09 151.524 333.397 151.51C334.691 151.451 335.625 152.468 335.671 153.49C335.771 155.704 332.5 156.603 330.763 156.681C326.129 156.891 323.343 153.398 323.172 149.616C322.992 145.63 325.612 141.654 330.484 141.434C332.971 141.322 335.055 142.866 335.894 144.808C336.084 145.244 336.279 145.781 336.302 146.292C336.348 147.314 335.512 148.444 334.217 148.503C333.093 148.554 332.308 147.804 331.989 146.794C331.95 146.693 331.946 146.591 331.905 146.456C331.678 145.955 331.184 145.601 330.639 145.626C328.493 145.723 327.444 147.443 327.533 149.419C327.614 151.225 328.631 152.579 330.573 152.491C331.221 152.462 331.622 152.273 331.953 152.053ZM352.815 152.067C351.725 153.618 350.05 155.094 347.767 155.197C343.338 155.397 342.253 150.257 342.097 146.816C342.034 145.419 342.098 141.524 342.799 140.434C343.151 139.906 343.744 139.436 344.596 139.397C345.891 139.339 346.792 140.39 346.838 141.412C346.855 141.787 346.8 142.097 346.746 142.407C346.692 142.716 346.6 142.959 346.58 143.268C346.391 144.369 346.408 145.494 346.458 146.619C346.5 147.539 346.796 150.325 347.509 150.975C349.757 150.874 351.036 145.183 351.231 143.433C351.252 143.159 351.259 142.544 351.301 141.962C351.321 141.654 351.343 141.38 351.366 141.14C351.394 141.002 351.388 140.866 351.417 140.762C351.447 140.658 351.478 140.588 351.507 140.485C351.817 139.788 352.474 139.212 353.428 139.169C354.348 139.128 354.981 139.543 355.315 140.142C355.681 140.672 355.781 141.384 355.804 141.895C355.859 143.122 355.847 144.351 355.902 145.578C355.97 147.077 356.15 149.561 356.947 150.583C357.164 150.847 357.344 151.043 357.491 151.276C357.707 151.539 357.823 151.841 357.843 152.284C357.89 153.306 357.051 154.402 355.757 154.461C354.462 154.519 353.242 153.209 352.815 152.067ZM365.486 155.762C363.851 155.836 363.244 154.498 363.198 153.476C362.929 147.514 363.649 141.541 363.378 135.545C363.341 134.727 363.236 133.913 363.199 133.095C363.153 132.073 363.956 130.944 365.25 130.886C366.409 130.833 367.194 131.583 367.438 132.46C367.516 132.661 367.56 132.898 367.571 133.137L367.597 133.716C367.623 134.295 367.682 134.838 367.705 135.35C367.976 141.346 367.29 147.317 367.559 153.279C367.605 154.301 367.121 155.689 365.486 155.762ZM374.202 143.557C373.473 143.282 372.97 142.725 372.927 141.771C372.881 140.749 373.719 139.653 375.013 139.594C375.252 139.583 375.49 139.573 375.695 139.563C375.667 138.95 375.604 138.304 375.541 137.659C375.521 137.216 375.432 136.776 375.412 136.333C375.366 135.311 376.169 134.182 377.498 134.122C378.417 134.081 379.125 134.629 379.529 135.26C379.603 135.393 379.647 135.596 379.687 135.73C379.73 135.933 379.775 136.17 379.821 136.441C379.877 136.917 379.905 137.53 379.968 138.176C379.986 138.584 380.039 138.992 380.056 139.367C381.253 139.415 382.405 139.977 382.468 141.374C382.531 142.771 381.47 143.468 380.246 143.591C380.28 145.092 380.346 146.557 380.412 148.022C380.426 148.328 380.454 148.942 380.582 149.516C380.663 149.786 380.74 149.987 380.848 150.119C380.92 150.184 380.955 150.216 380.989 150.215C381.194 150.205 381.328 150.165 381.565 150.12C381.666 150.082 381.801 150.042 381.902 150.003C382.072 149.995 382.207 149.955 382.343 149.949C383.638 149.89 384.538 150.942 384.585 151.964C384.671 153.872 382.575 154.342 381.281 154.401C377.295 154.581 376.21 150.977 376.095 148.422C376.026 146.888 375.99 145.354 375.921 143.821C375.34 143.813 374.69 143.774 374.202 143.557ZM399.614 149.954C398.524 151.506 396.849 152.981 394.566 153.084C390.137 153.284 389.052 148.144 388.896 144.703C388.833 143.306 388.897 139.411 389.598 138.321C389.95 137.793 390.543 137.323 391.395 137.284C392.69 137.226 393.591 138.278 393.637 139.3C393.654 139.674 393.599 139.984 393.545 140.294C393.491 140.603 393.399 140.847 393.379 141.155C393.19 142.256 393.207 143.382 393.257 144.506C393.299 145.426 393.595 148.212 394.308 148.862C396.556 148.761 397.835 143.07 398.03 141.32C398.051 141.046 398.058 140.431 398.1 139.849C398.12 139.541 398.142 139.267 398.165 139.027C398.193 138.889 398.187 138.753 398.216 138.649C398.246 138.545 398.277 138.476 398.306 138.372C398.616 137.675 399.273 137.099 400.227 137.056C401.147 137.015 401.78 137.43 402.114 138.029C402.48 138.559 402.58 139.271 402.603 139.782C402.658 141.009 402.646 142.239 402.701 143.465C402.769 144.964 402.949 147.448 403.746 148.47C403.963 148.734 404.143 148.93 404.29 149.163C404.506 149.426 404.622 149.728 404.642 150.171C404.689 151.193 403.85 152.289 402.556 152.348C401.261 152.406 400.041 151.096 399.614 149.954ZM414.889 151.586C414.574 152.181 413.913 152.654 413.061 152.693C411.766 152.751 410.833 151.735 410.787 150.713C410.755 149.997 410.79 149.279 410.794 148.596C410.766 147.232 410.739 145.867 410.676 144.471C410.608 142.971 410.506 141.474 410.335 139.945C410.231 139.165 410.026 138.389 409.989 137.571C409.943 136.549 410.779 135.419 412.074 135.361C413.607 135.291 414.237 136.39 414.467 137.711C415.234 136.549 416.379 135.439 418.048 135.364C419.684 135.29 422.108 136.819 422.184 138.489C422.23 139.511 421.427 140.64 420.099 140.7C419.247 140.738 418.79 140.451 418.284 139.826L418.248 139.793C416.921 141.389 415.73 146.769 415.408 148.729C415.387 149.003 415.311 149.587 415.232 150.103C415.211 150.411 415.155 150.686 415.097 150.894C415.073 151.134 415.017 151.41 414.889 151.586ZM436.733 143.26C435.798 143.712 430.375 146.107 430.418 147.061C430.438 147.504 430.861 147.792 431.542 147.762C433.961 147.652 435.978 145.445 436.733 143.26ZM437.4 139.884C437.131 139.214 436.665 138.723 435.813 138.761C432.338 138.918 431.8 139.864 429.897 141.554C429.633 141.771 429.331 141.887 429.025 141.901C427.798 141.956 426.405 140.585 427.334 139.246C429.031 136.746 432.251 134.723 435.624 134.57C439.337 134.403 441.776 136.99 442.002 140.496C442.268 143.351 441.62 145.634 443.178 148.397C443.327 148.663 443.41 149.001 443.427 149.376C443.472 150.364 442.635 151.494 441.341 151.553C439.228 151.648 438.672 149.147 438.359 147.522C436.486 149.894 434.048 151.848 431.732 151.952C428.631 152.092 426.222 150.904 426.099 148.178C425.974 145.419 428.344 144.219 430.876 142.842C433.076 141.65 435.596 140.751 437.4 139.884ZM451.126 151.896C449.49 151.97 448.884 150.632 448.837 149.61C448.568 143.647 449.289 137.675 449.018 131.678C448.981 130.861 448.876 130.046 448.839 129.229C448.793 128.206 449.595 127.078 450.89 127.019C452.048 126.967 452.833 127.717 453.078 128.593C453.155 128.795 453.2 129.032 453.211 129.27L453.237 129.849C453.263 130.429 453.322 130.972 453.345 131.483C453.615 137.479 452.929 143.451 453.198 149.413C453.244 150.435 452.761 151.822 451.126 151.896ZM467.208 135.637C467.162 134.615 468 133.518 469.294 133.46L470.555 133.403L470.54 133.062C470.572 132.276 470.605 131.489 470.776 130.73C471.334 127.974 473.315 125.734 476.245 125.601C478.937 125.48 480.823 127.17 481.963 128.996C482.143 129.193 482.291 129.459 482.406 129.727C482.556 130.028 482.672 130.33 482.688 130.67C482.734 131.693 481.897 132.823 480.602 132.881C479.853 132.915 479.362 132.63 478.969 132.238C478.825 132.074 478.679 131.876 478.568 131.676C478.158 130.909 477.423 129.747 476.469 129.791C475.038 129.855 474.935 132.113 474.913 133.138C475.933 133.058 476.988 132.976 478.044 132.928C479.339 132.87 480.238 133.888 480.284 134.91C480.32 135.693 479.911 136.463 479.142 136.839C478.676 137.099 478.168 137.19 477.657 137.213C477.182 137.269 476.703 137.256 476.329 137.273C475.852 137.295 475.341 137.318 474.864 137.339C474.897 138.84 474.959 140.203 474.993 140.952C475.062 142.485 475.134 144.087 475.271 145.617C475.342 146.433 475.48 147.212 475.515 147.995C475.561 149.018 474.759 150.146 473.43 150.206C472.476 150.249 471.803 149.699 471.434 149.101C471.253 148.871 471.142 147.92 471.128 147.613C471.029 146.935 470.958 146.119 470.884 145.234C470.773 143.533 470.692 141.727 470.666 141.148C470.612 139.955 470.56 138.797 470.541 137.637C469.076 137.703 467.292 137.511 467.208 135.637ZM492.202 138.639C492.848 138.576 493.591 138.406 494.195 138.174C495.205 137.855 495.73 137.387 495.701 136.74L495.698 136.672C494.233 136.738 492.963 137.342 492.202 138.639ZM487.227 142.619C486.628 142.202 486.431 141.631 486.404 141.017C486.371 140.302 486.715 139.604 487.378 139.164C488.178 135.714 491.012 132.684 495.236 132.494C497.962 132.371 499.917 134.092 500.028 136.545C500.072 137.533 499.807 138.466 499.333 139.307C497.815 141.97 494.535 142.665 491.747 142.927C492.293 144.439 493.679 144.888 495.655 144.799C496.677 144.753 497.105 144.392 497.5 144.067L497.793 143.747C497.924 143.638 497.986 143.499 498.153 143.423C498.451 143.205 498.819 143.052 499.296 143.03C500.591 142.972 501.526 144.022 501.571 145.01C501.603 145.725 501.251 146.253 500.897 146.713C499.732 148.131 497.718 148.905 495.844 148.989C491.109 149.203 487.795 146.895 487.227 142.619ZM510.872 143.019C510.945 143.119 511.053 143.25 511.194 143.346C511.931 143.791 513.103 144.045 514.057 144.002C514.398 143.987 515.35 143.91 515.327 143.399C515.301 142.819 514.943 142.46 514.278 142.08C513.894 141.893 513.476 141.707 512.992 141.592C512.54 141.408 512.02 141.227 511.498 141.011C509.416 140.252 507.109 139.059 506.964 135.856C506.836 133.028 509.24 131.076 512.204 130.942C514.112 130.856 515.955 131.592 517.305 132.76C517.802 133.182 518.269 133.707 518.306 134.525C518.352 135.547 517.55 136.675 516.255 136.734C515.778 136.755 515.396 136.602 515.046 136.413C514.905 136.317 514.764 136.221 514.622 136.091C514.482 136.029 514.341 135.933 514.233 135.801C513.738 135.414 513.211 135.096 512.394 135.133C512.121 135.145 511.817 135.227 511.582 135.306C511.382 135.418 511.319 135.523 511.325 135.659C511.348 136.17 511.672 136.531 512.404 136.874C512.754 137.063 513.17 137.214 513.655 137.363C514.141 137.546 514.627 137.729 515.148 137.91C517.232 138.704 519.542 139.965 519.688 143.202C519.823 146.2 517.347 148.053 514.246 148.193C512.134 148.288 509.717 147.68 508.121 146.353C507.588 145.899 507.121 145.374 507.084 144.556C507.038 143.534 507.84 142.405 509.135 142.347C509.714 142.321 510.13 142.473 510.449 142.731C510.519 142.762 510.589 142.793 510.66 142.858C510.731 142.923 510.802 142.988 510.872 143.019ZM525.313 136.735C524.583 136.46 524.08 135.903 524.037 134.949C523.991 133.927 524.829 132.83 526.124 132.772C526.362 132.761 526.601 132.75 526.805 132.741C526.777 132.128 526.714 131.482 526.651 130.836C526.631 130.393 526.543 129.954 526.523 129.511C526.477 128.489 527.279 127.36 528.608 127.3C529.528 127.258 530.235 127.807 530.639 128.437C530.713 128.57 530.757 128.773 530.797 128.908C530.84 129.111 530.885 129.348 530.931 129.619C530.987 130.094 531.015 130.708 531.078 131.353C531.097 131.762 531.149 132.17 531.166 132.544C532.363 132.593 533.515 133.155 533.578 134.552C533.641 135.949 532.58 136.645 531.357 136.769C531.39 138.27 531.456 139.735 531.523 141.2C531.536 141.506 531.564 142.119 531.692 142.694C531.773 142.963 531.85 143.165 531.959 143.296C532.03 143.362 532.065 143.394 532.1 143.392C532.304 143.383 532.439 143.343 532.676 143.298C532.776 143.26 532.911 143.219 533.012 143.181C533.182 143.173 533.317 143.133 533.453 143.127C534.748 143.068 535.649 144.12 535.695 145.142C535.781 147.05 533.686 147.52 532.391 147.578C528.405 147.758 527.32 144.154 527.205 141.599C527.136 140.066 527.101 138.531 527.031 136.998C526.451 136.99 525.8 136.952 525.313 136.735Z" fill="black"/>
<path d="M926.366 115.622C926.008 113.727 925.27 110.244 924.08 108.83C922.843 110.183 921.301 114.588 920.769 116.421C921.211 116.367 921.652 116.313 922.092 116.225C923.517 116.024 924.937 115.721 926.366 115.622ZM919.501 120.848C919.295 121.575 919.12 122.231 918.976 122.818C918.856 123.199 918.565 124.305 918.272 125.376C918.125 125.895 917.945 126.449 917.793 126.866C917.734 127.073 917.641 127.282 917.581 127.456C917.519 127.595 917.457 127.734 917.359 127.841C917.006 128.335 916.544 128.697 915.726 128.734C914.5 128.79 913.639 127.873 913.595 126.885C913.578 126.51 913.663 126.13 913.785 125.818C913.906 125.471 914.029 125.158 914.12 124.915C914.449 123.876 914.709 122.84 915.004 121.803C916.015 117.728 918.382 108.916 921.15 105.958C921.803 105.28 922.727 104.589 923.886 104.537C926.339 104.426 927.87 106.576 928.818 108.684C930.265 111.998 931.084 117.287 931.619 120.813C931.775 122.001 931.931 123.189 932.154 124.34C932.2 124.611 932.281 124.88 932.293 125.153C932.373 125.422 932.421 125.727 932.435 126.034C932.48 127.022 931.677 128.151 930.383 128.209C929.02 128.271 928.331 127.38 928.039 126.198C927.952 125.793 927.896 125.317 927.807 124.843C927.661 123.894 927.549 122.909 927.498 122.536C927.399 121.857 927.254 120.908 927.102 119.822C926.83 119.835 926.557 119.847 926.32 119.892C925.47 119.964 924.621 120.071 923.774 120.212L920.824 120.652C920.418 120.739 919.978 120.827 919.501 120.848ZM942.714 125.706C942.623 125.95 942.533 126.227 942.438 126.402C942.054 126.965 941.461 127.436 940.643 127.473C939.349 127.531 938.414 126.481 938.367 125.459C938.175 121.2 938.29 116.928 938.097 112.669C938.051 111.647 938.747 110.421 940.178 110.356C941.711 110.287 942.415 111.518 942.461 112.54L942.51 113.63C943.598 112.011 945.235 110.469 947.484 110.368C953.242 110.108 954.67 117.554 954.869 121.949C954.887 122.357 954.893 123.245 954.865 124.134C954.868 125.704 954.605 127.457 952.663 127.545C951.335 127.605 950.434 126.553 950.388 125.531C950.371 125.156 950.454 124.743 950.506 124.365C950.574 123.611 950.54 122.861 950.508 122.146C950.406 119.897 949.981 117.287 948.867 115.289C948.468 114.761 948.048 114.541 947.639 114.56C947.435 114.569 947.105 114.823 946.975 114.965C945.234 116.478 943.792 120.844 943.248 123.156C943.193 123.466 943.052 124.121 942.911 124.776C942.858 125.12 942.77 125.431 942.714 125.706ZM965.678 124.67C965.586 124.913 965.497 125.19 965.402 125.365C965.018 125.929 964.425 126.399 963.607 126.436C962.312 126.494 961.377 125.444 961.331 124.422C961.139 120.163 961.253 115.891 961.061 111.632C961.015 110.61 961.71 109.384 963.141 109.319C964.674 109.25 965.379 110.481 965.425 111.503L965.474 112.594C966.562 110.974 968.199 109.432 970.448 109.331C976.205 109.071 977.634 116.517 977.832 120.912C977.851 121.321 977.857 122.208 977.829 123.097C977.831 124.667 977.569 126.42 975.627 126.508C974.298 126.568 973.397 125.516 973.351 124.494C973.334 124.119 973.418 123.706 973.469 123.328C973.538 122.574 973.504 121.824 973.471 121.109C973.37 118.86 972.945 116.251 971.831 114.253C971.431 113.724 971.012 113.504 970.603 113.523C970.398 113.532 970.068 113.786 969.938 113.928C968.197 115.441 966.756 119.807 966.211 122.119C966.157 122.429 966.016 123.084 965.875 123.739C965.822 124.083 965.734 124.394 965.678 124.67ZM994.603 121.828C993.512 123.379 991.837 124.854 989.555 124.957C985.126 125.157 984.04 120.017 983.885 116.576C983.822 115.179 983.885 111.285 984.587 110.195C984.938 109.667 985.532 109.196 986.383 109.158C987.678 109.099 988.579 110.151 988.625 111.173C988.642 111.548 988.588 111.857 988.534 112.167C988.479 112.477 988.388 112.72 988.368 113.028C988.178 114.129 988.195 115.255 988.246 116.379C988.287 117.299 988.584 120.085 989.296 120.736C991.545 120.634 992.824 114.944 993.018 113.194C993.04 112.92 993.046 112.305 993.088 111.723C993.108 111.414 993.13 111.14 993.153 110.9C993.181 110.762 993.175 110.626 993.205 110.522C993.234 110.419 993.265 110.349 993.295 110.245C993.604 109.548 994.261 108.973 995.215 108.93C996.135 108.888 996.768 109.303 997.103 109.903C997.468 110.432 997.568 111.145 997.591 111.656C997.647 112.882 997.634 114.112 997.689 115.338C997.757 116.837 997.938 119.321 998.735 120.344C998.951 120.607 999.131 120.804 999.278 121.036C999.495 121.299 999.611 121.601 999.631 122.044C999.677 123.066 998.839 124.163 997.544 124.221C996.25 124.28 995.03 122.969 994.603 121.828ZM1015.64 115.859C1014.71 116.311 1009.29 118.707 1009.33 119.661C1009.35 120.103 1009.77 120.392 1010.45 120.361C1012.87 120.252 1014.89 118.044 1015.64 115.859ZM1016.31 112.483C1016.04 111.813 1015.58 111.322 1014.72 111.36C1011.25 111.517 1010.71 112.463 1008.81 114.154C1008.55 114.37 1008.24 114.486 1007.94 114.5C1006.71 114.556 1005.32 113.185 1006.25 111.845C1007.94 109.345 1011.16 107.322 1014.54 107.17C1018.25 107.002 1020.69 109.589 1020.91 113.095C1021.18 115.951 1020.53 118.233 1022.09 120.996C1022.24 121.263 1022.32 121.6 1022.34 121.975C1022.38 122.963 1021.55 124.093 1020.25 124.152C1018.14 124.247 1017.58 121.746 1017.27 120.121C1015.4 122.493 1012.96 124.447 1010.64 124.551C1007.54 124.691 1005.13 123.503 1005.01 120.777C1004.89 118.018 1007.26 116.818 1009.79 115.441C1011.99 114.249 1014.51 113.35 1016.31 112.483ZM1030.04 124.495C1028.4 124.569 1027.8 123.231 1027.75 122.209C1027.48 116.247 1028.2 110.274 1027.93 104.278C1027.89 103.46 1027.79 102.645 1027.75 101.828C1027.7 100.806 1028.51 99.677 1029.8 99.6185C1030.96 99.5662 1031.75 100.316 1031.99 101.193C1032.07 101.394 1032.11 101.631 1032.12 101.869L1032.15 102.449C1032.17 103.028 1032.23 103.571 1032.26 104.082C1032.53 110.079 1031.84 116.05 1032.11 122.012C1032.16 123.034 1031.67 124.421 1030.04 124.495ZM1055.95 118.102C1056.19 117.989 1056.35 117.845 1056.59 117.766C1056.82 117.687 1057.09 117.573 1057.4 117.559C1058.69 117.5 1059.62 118.516 1059.67 119.539C1059.77 121.753 1056.5 122.652 1054.76 122.73C1050.13 122.939 1047.34 119.447 1047.17 115.665C1046.99 111.679 1049.61 107.703 1054.48 107.483C1056.97 107.37 1059.05 108.915 1059.89 110.857C1060.08 111.292 1060.28 111.83 1060.3 112.341C1060.35 113.363 1059.51 114.493 1058.22 114.552C1057.09 114.602 1056.31 113.853 1055.99 112.843C1055.95 112.742 1055.95 112.64 1055.91 112.505C1055.68 112.003 1055.18 111.65 1054.64 111.675C1052.49 111.772 1051.44 113.492 1051.53 115.468C1051.61 117.274 1052.63 118.627 1054.57 118.54C1055.22 118.51 1055.62 118.322 1055.95 118.102ZM1076.82 118.116C1075.72 119.667 1074.05 121.143 1071.77 121.246C1067.34 121.446 1066.25 116.305 1066.1 112.864C1066.03 111.468 1066.1 107.573 1066.8 106.483C1067.15 105.955 1067.74 105.484 1068.6 105.446C1069.89 105.387 1070.79 106.439 1070.84 107.461C1070.85 107.836 1070.8 108.146 1070.75 108.455C1070.69 108.765 1070.6 109.008 1070.58 109.316C1070.39 110.417 1070.41 111.543 1070.46 112.668C1070.5 113.587 1070.8 116.373 1071.51 117.024C1073.76 116.923 1075.04 111.232 1075.23 109.482C1075.25 109.208 1075.26 108.593 1075.3 108.011C1075.32 107.703 1075.34 107.429 1075.37 107.189C1075.39 107.051 1075.39 106.914 1075.42 106.811C1075.45 106.707 1075.48 106.637 1075.51 106.534C1075.82 105.837 1076.47 105.261 1077.43 105.218C1078.35 105.176 1078.98 105.592 1079.32 106.191C1079.68 106.721 1079.78 107.433 1079.8 107.944C1079.86 109.171 1079.85 110.4 1079.9 111.627C1079.97 113.126 1080.15 115.61 1080.95 116.632C1081.16 116.895 1081.34 117.092 1081.49 117.324C1081.71 117.588 1081.82 117.89 1081.84 118.333C1081.89 119.355 1081.05 120.451 1079.76 120.509C1078.46 120.568 1077.24 119.257 1076.82 118.116ZM1089.49 121.811C1087.85 121.885 1087.24 120.547 1087.2 119.525C1086.93 113.563 1087.65 107.59 1087.38 101.594C1087.34 100.776 1087.24 99.9614 1087.2 99.1438C1087.15 98.1217 1087.96 96.993 1089.25 96.9346C1090.41 96.8823 1091.19 97.632 1091.44 98.5086C1091.52 98.7099 1091.56 98.9469 1091.57 99.1854L1091.6 99.7646C1091.62 100.344 1091.68 100.887 1091.71 101.398C1091.98 107.395 1091.29 113.366 1091.56 119.328C1091.6 120.35 1091.12 121.737 1089.49 121.811ZM1098.2 109.606C1097.47 109.331 1096.97 108.774 1096.93 107.82C1096.88 106.798 1097.72 105.701 1099.01 105.643C1099.25 105.632 1099.49 105.621 1099.69 105.612C1099.67 104.999 1099.6 104.353 1099.54 103.707C1099.52 103.265 1099.43 102.825 1099.41 102.382C1099.37 101.36 1100.17 100.231 1101.5 100.171C1102.42 100.13 1103.12 100.678 1103.53 101.308C1103.6 101.442 1103.65 101.644 1103.69 101.779C1103.73 101.982 1103.77 102.219 1103.82 102.49C1103.88 102.965 1103.9 103.579 1103.97 104.224C1103.99 104.633 1104.04 105.041 1104.06 105.415C1105.25 105.464 1106.4 106.026 1106.47 107.423C1106.53 108.82 1105.47 109.516 1104.25 109.64C1104.28 111.141 1104.35 112.606 1104.41 114.071C1104.43 114.377 1104.45 114.99 1104.58 115.565C1104.66 115.834 1104.74 116.036 1104.85 116.167C1104.92 116.233 1104.96 116.265 1104.99 116.264C1105.19 116.254 1105.33 116.214 1105.57 116.169C1105.67 116.131 1105.8 116.09 1105.9 116.052C1106.07 116.044 1106.21 116.004 1106.34 115.998C1107.64 115.939 1108.54 116.991 1108.58 118.013C1108.67 119.921 1106.58 120.391 1105.28 120.449C1101.29 120.629 1100.21 117.026 1100.09 114.47C1100.03 112.937 1099.99 111.403 1099.92 109.869C1099.34 109.861 1098.69 109.823 1098.2 109.606ZM1123.61 116.003C1122.52 117.554 1120.85 119.03 1118.57 119.133C1114.14 119.333 1113.05 114.193 1112.9 110.752C1112.83 109.355 1112.9 105.46 1113.6 104.37C1113.95 103.842 1114.54 103.371 1115.4 103.333C1116.69 103.275 1117.59 104.326 1117.64 105.348C1117.65 105.723 1117.6 106.033 1117.55 106.343C1117.49 106.652 1117.4 106.895 1117.38 107.204C1117.19 108.305 1117.21 109.43 1117.26 110.555C1117.3 111.475 1117.6 114.261 1118.31 114.911C1120.56 114.81 1121.84 109.119 1122.03 107.369C1122.05 107.095 1122.06 106.48 1122.1 105.898C1122.12 105.59 1122.14 105.316 1122.17 105.076C1122.19 104.938 1122.19 104.802 1122.22 104.698C1122.25 104.594 1122.28 104.524 1122.31 104.421C1122.62 103.724 1123.27 103.148 1124.23 103.105C1125.15 103.063 1125.78 103.479 1126.11 104.078C1126.48 104.608 1126.58 105.32 1126.6 105.831C1126.66 107.058 1126.65 108.287 1126.7 109.514C1126.77 111.013 1126.95 113.497 1127.75 114.519C1127.96 114.783 1128.14 114.979 1128.29 115.212C1128.51 115.475 1128.62 115.777 1128.64 116.22C1128.69 117.242 1127.85 118.338 1126.56 118.397C1125.26 118.455 1124.04 117.144 1123.61 116.003ZM1138.89 117.635C1138.57 118.229 1137.91 118.703 1137.06 118.742C1135.77 118.8 1134.83 117.784 1134.79 116.762C1134.75 116.046 1134.79 115.328 1134.79 114.645C1134.77 113.281 1134.74 111.916 1134.68 110.519C1134.61 109.02 1134.51 107.523 1134.33 105.994C1134.23 105.214 1134.03 104.438 1133.99 103.62C1133.94 102.598 1134.78 101.468 1136.07 101.409C1137.61 101.34 1138.24 102.438 1138.47 103.759C1139.23 102.598 1140.38 101.488 1142.05 101.413C1143.68 101.339 1146.11 102.868 1146.18 104.538C1146.23 105.56 1145.43 106.688 1144.1 106.748C1143.25 106.787 1142.79 106.5 1142.28 105.874L1142.25 105.842C1140.92 107.438 1139.73 112.817 1139.41 114.778C1139.39 115.052 1139.31 115.636 1139.23 116.151C1139.21 116.46 1139.16 116.735 1139.1 116.943C1139.07 117.183 1139.02 117.458 1138.89 117.635ZM1160.73 109.309C1159.8 109.761 1154.38 112.156 1154.42 113.11C1154.44 113.553 1154.86 113.841 1155.54 113.811C1157.96 113.701 1159.98 111.494 1160.73 109.309ZM1161.4 105.933C1161.13 105.262 1160.66 104.771 1159.81 104.81C1156.34 104.967 1155.8 105.913 1153.9 107.603C1153.63 107.82 1153.33 107.936 1153.02 107.95C1151.8 108.005 1150.4 106.634 1151.33 105.295C1153.03 102.795 1156.25 100.772 1159.62 100.619C1163.34 100.452 1165.78 103.039 1166 106.545C1166.27 109.4 1165.62 111.683 1167.18 114.446C1167.33 114.712 1167.41 115.05 1167.43 115.425C1167.47 116.413 1166.64 117.543 1165.34 117.601C1163.23 117.697 1162.67 115.196 1162.36 113.571C1160.49 115.943 1158.05 117.896 1155.73 118.001C1152.63 118.141 1150.22 116.953 1150.1 114.227C1149.97 111.467 1152.34 110.268 1154.88 108.89C1157.08 107.699 1159.6 106.8 1161.4 105.933ZM1175.13 117.945C1173.49 118.019 1172.88 116.68 1172.84 115.658C1172.57 109.696 1173.29 103.724 1173.02 97.7273C1172.98 96.9096 1172.88 96.095 1172.84 95.2774C1172.79 94.2553 1173.6 93.1266 1174.89 93.0682C1176.05 93.0159 1176.83 93.7656 1177.08 94.6422C1177.16 94.8435 1177.2 95.0805 1177.21 95.319L1177.24 95.8982C1177.26 96.4773 1177.32 97.0209 1177.34 97.532C1177.62 103.528 1176.93 109.499 1177.2 115.462C1177.24 116.484 1176.76 117.871 1175.13 117.945ZM1191.21 101.686C1191.16 100.663 1192 99.5673 1193.29 99.5088L1194.56 99.4519L1194.54 99.1112C1194.57 98.3246 1194.61 97.5379 1194.78 96.7791C1195.33 94.0228 1197.32 91.7826 1200.25 91.6503C1202.94 91.5288 1204.82 93.2189 1205.96 95.045C1206.14 95.2418 1206.29 95.5082 1206.41 95.7761C1206.56 96.0766 1206.67 96.3786 1206.69 96.7193C1206.73 97.7414 1205.9 98.8716 1204.6 98.93C1203.85 98.9639 1203.36 98.6788 1202.97 98.2869C1202.82 98.1227 1202.68 97.9244 1202.57 97.7246C1202.16 96.9579 1201.42 95.7963 1200.47 95.8393C1199.04 95.9039 1198.93 98.1617 1198.91 99.1869C1199.93 99.1067 1200.99 99.0249 1202.04 98.9773C1203.34 98.9188 1204.24 99.9365 1204.28 100.959C1204.32 101.742 1203.91 102.512 1203.14 102.888C1202.68 103.148 1202.17 103.239 1201.66 103.262C1201.18 103.318 1200.7 103.305 1200.33 103.322C1199.85 103.344 1199.34 103.367 1198.86 103.388C1198.9 104.889 1198.96 106.252 1198.99 107.001C1199.06 108.534 1199.13 110.136 1199.27 111.666C1199.34 112.482 1199.48 113.261 1199.52 114.044C1199.56 115.066 1198.76 116.195 1197.43 116.255C1196.48 116.298 1195.8 115.748 1195.43 115.15C1195.25 114.919 1195.14 113.969 1195.13 113.662C1195.03 112.984 1194.96 112.168 1194.88 111.283C1194.77 109.581 1194.69 107.776 1194.67 107.196C1194.61 106.004 1194.56 104.846 1194.54 103.686C1193.08 103.752 1191.29 103.559 1191.21 101.686ZM1216.2 104.688C1216.85 104.625 1217.59 104.454 1218.2 104.222C1219.21 103.904 1219.73 103.436 1219.7 102.789L1219.7 102.721C1218.23 102.787 1216.96 103.39 1216.2 104.688ZM1211.23 108.668C1210.63 108.251 1210.43 107.68 1210.4 107.066C1210.37 106.351 1210.72 105.653 1211.38 105.213C1212.18 101.763 1215.01 98.7332 1219.24 98.5425C1221.96 98.4194 1223.92 100.141 1224.03 102.594C1224.07 103.582 1223.81 104.515 1223.33 105.356C1221.81 108.019 1218.53 108.713 1215.75 108.976C1216.29 110.487 1217.68 110.937 1219.66 110.848C1220.68 110.802 1221.1 110.441 1221.5 110.116L1221.79 109.795C1221.92 109.687 1221.99 109.548 1222.15 109.472C1222.45 109.254 1222.82 109.1 1223.3 109.079C1224.59 109.02 1225.53 110.071 1225.57 111.059C1225.6 111.774 1225.25 112.302 1224.9 112.762C1223.73 114.18 1221.72 114.954 1219.84 115.038C1215.11 115.252 1211.8 112.944 1211.23 108.668ZM1234.87 109.068C1234.94 109.167 1235.05 109.299 1235.19 109.395C1235.93 109.84 1237.1 110.094 1238.06 110.051C1238.4 110.036 1239.35 109.959 1239.33 109.447C1239.3 108.868 1238.94 108.509 1238.28 108.129C1237.89 107.942 1237.48 107.756 1236.99 107.641C1236.54 107.457 1236.02 107.275 1235.5 107.06C1233.42 106.3 1231.11 105.107 1230.96 101.905C1230.84 99.0771 1233.24 97.125 1236.2 96.9912C1238.11 96.9051 1239.95 97.6412 1241.3 98.8093C1241.8 99.2306 1242.27 99.7558 1242.31 100.573C1242.35 101.596 1241.55 102.724 1240.26 102.783C1239.78 102.804 1239.4 102.651 1239.05 102.462C1238.91 102.366 1238.76 102.27 1238.62 102.139C1238.48 102.077 1238.34 101.981 1238.23 101.85C1237.74 101.462 1237.21 101.145 1236.39 101.182C1236.12 101.194 1235.82 101.276 1235.58 101.355C1235.38 101.466 1235.32 101.572 1235.32 101.708C1235.35 102.219 1235.67 102.58 1236.4 102.922C1236.75 103.111 1237.17 103.263 1237.66 103.412C1238.14 103.595 1238.63 103.778 1239.15 103.959C1241.23 104.753 1243.54 106.014 1243.69 109.251C1243.82 112.249 1241.35 114.102 1238.25 114.242C1236.13 114.337 1233.72 113.729 1232.12 112.402C1231.59 111.948 1231.12 111.423 1231.08 110.605C1231.04 109.583 1231.84 108.454 1233.13 108.396C1233.71 108.37 1234.13 108.521 1234.45 108.78C1234.52 108.811 1234.59 108.842 1234.66 108.907C1234.73 108.972 1234.8 109.037 1234.87 109.068ZM1249.31 102.783C1248.58 102.509 1248.08 101.951 1248.04 100.997C1247.99 99.9754 1248.83 98.8792 1250.12 98.8208C1250.36 98.81 1250.6 98.7993 1250.81 98.79C1250.78 98.1768 1250.71 97.531 1250.65 96.8852C1250.63 96.4423 1250.54 96.0025 1250.52 95.5596C1250.48 94.5375 1251.28 93.4088 1252.61 93.3488C1253.53 93.3073 1254.24 93.8557 1254.64 94.4861C1254.71 94.6193 1254.76 94.8222 1254.8 94.9569C1254.84 95.1598 1254.89 95.3968 1254.93 95.6678C1254.99 96.1432 1255.01 96.7565 1255.08 97.4023C1255.1 97.8111 1255.15 98.2184 1255.17 98.5932C1256.36 98.6415 1257.52 99.204 1257.58 100.601C1257.64 101.998 1256.58 102.694 1255.36 102.818C1255.39 104.318 1255.46 105.783 1255.52 107.248C1255.54 107.555 1255.56 108.168 1255.69 108.743C1255.77 109.012 1255.85 109.214 1255.96 109.345C1256.03 109.41 1256.07 109.443 1256.1 109.441C1256.3 109.432 1256.44 109.392 1256.68 109.347C1256.78 109.308 1256.91 109.268 1257.01 109.229C1257.18 109.222 1257.32 109.182 1257.45 109.175C1258.75 109.117 1259.65 110.169 1259.69 111.191C1259.78 113.099 1257.69 113.569 1256.39 113.627C1252.4 113.807 1251.32 110.203 1251.21 107.648C1251.14 106.115 1251.1 104.58 1251.03 103.047C1250.45 103.039 1249.8 103 1249.31 102.783Z" fill="black"/>
<path d="M631.903 138.255C631.836 136.756 631.87 135.252 631.803 133.753C631.649 130.346 631.356 126.877 631.031 123.478C630.888 121.811 630.676 120.148 630.601 118.479C630.555 117.457 631.391 116.327 632.686 116.268C633.64 116.225 634.381 116.772 634.753 117.438C635.166 118.273 636.036 131.479 636.129 133.558C636.18 134.682 636.197 135.808 636.244 136.864C636.315 138.431 636.189 140.178 634.179 140.269C632.85 140.329 631.95 139.277 631.903 138.255ZM642.657 137.769C642.589 136.27 642.623 134.767 642.556 133.267C642.402 129.861 642.109 126.392 641.785 122.992C641.641 121.326 641.429 119.663 641.354 117.993C641.308 116.971 642.144 115.841 643.439 115.783C644.393 115.74 645.135 116.286 645.506 116.952C645.919 117.787 646.789 130.994 646.883 133.072C646.933 134.196 646.95 135.322 646.998 136.378C647.068 137.946 646.942 139.692 644.932 139.783C643.604 139.843 642.703 138.791 642.657 137.769ZM653.325 115.746C653.935 115.65 654.785 115.578 655.636 115.505C657.337 115.394 659.075 115.316 659.654 115.289C661.392 115.211 667.834 114.988 669.063 115.752C669.763 116.13 670.201 116.759 670.235 117.509C670.281 118.531 669.443 119.627 668.148 119.685C667.91 119.696 667.67 119.673 667.464 119.648C667.256 119.589 667.086 119.597 666.914 119.57L665.372 119.435C664.756 119.395 664.107 119.39 663.492 119.384C663.5 119.554 663.506 119.69 663.512 119.826C663.584 120.677 663.624 121.562 663.663 122.414C663.843 126.4 663.75 130.399 663.727 134.428C663.707 134.736 663.741 135.486 663.704 136.17C663.719 136.511 663.698 137.57 663.542 137.885C663.234 138.615 662.546 139.261 661.592 139.304C660.297 139.363 659.362 138.312 659.316 137.29C659.242 135.655 659.337 133.978 659.401 132.37C659.459 129.125 659.482 125.846 659.336 122.61C659.296 121.724 659.256 120.838 659.182 119.954C659.174 119.783 659.134 119.649 659.126 119.478C657.832 119.537 656.539 119.629 655.283 119.788C654.467 119.859 653.722 119.995 652.938 120.031C651.643 120.089 650.708 119.039 650.662 118.017C650.591 116.45 651.996 115.806 653.325 115.746ZM688.374 118.26C688.444 119.042 688.518 119.927 688.59 120.777C688.71 122.683 688.832 124.624 688.923 125.883C691.274 125.776 695.875 124.852 695.733 121.717C695.709 121.172 695.515 120.669 695.22 120.17C694.195 118.646 692.182 117.918 690.138 118.01C689.559 118.036 688.947 118.098 688.374 118.26ZM695.277 136.554C695.238 136.454 695.162 136.286 695.086 136.119C694.97 135.817 694.814 135.38 694.695 135.01C694.452 134.168 694.175 133.327 694.059 133.025C693.829 132.455 693.261 131.217 692.761 129.977C692.721 129.842 692.646 129.709 692.606 129.574C691.458 129.865 690.271 130.021 689.078 130.075C689.143 131.506 689.327 136.345 689.02 137.11C688.675 137.774 688.052 138.348 687.098 138.392C685.769 138.452 684.868 137.4 684.822 136.378C684.776 135.356 684.832 134.329 684.819 133.271C684.796 131.258 684.738 129.212 684.645 127.168C684.499 123.932 684.318 120.662 683.899 117.438C683.879 116.995 683.791 116.555 683.771 116.112C683.726 115.124 684.529 113.996 685.857 113.936C686.334 113.914 686.749 114.032 687.067 114.257C688.011 114.009 688.995 113.862 689.949 113.819C694.957 113.593 699.84 116.65 700.06 121.522C700.183 124.248 698.812 126.392 696.659 127.855C697.807 130.602 699.404 134.968 699.432 135.582C699.478 136.604 698.64 137.7 697.345 137.758C696.528 137.795 695.896 137.414 695.461 136.853C695.391 136.822 695.351 136.688 695.277 136.554ZM718.181 120.841C720.599 122.233 721.899 124.564 722.016 127.154C722.237 132.06 718.224 136.918 712.5 137.176C707.969 137.381 706.079 133.336 705.935 130.133C705.731 125.636 708.282 120.878 713.226 119.221C714.099 118.908 714.977 118.698 715.931 118.655C717.226 118.596 718.127 119.648 718.173 120.67L718.181 120.841ZM713.562 123.644C711.333 124.939 710.188 127.551 710.295 129.936C710.348 131.094 710.812 133.054 712.311 132.986C715.411 132.846 717.781 130.144 717.655 127.351C717.584 125.783 716.711 124.594 715.15 124.05C714.839 123.961 714.565 123.94 714.29 123.884C714.048 123.826 713.805 123.735 713.562 123.644ZM739.88 119.861C742.298 121.254 743.598 123.585 743.715 126.174C743.937 131.08 739.923 135.938 734.199 136.197C729.668 136.401 727.778 132.356 727.634 129.153C727.431 124.656 729.981 119.898 734.925 118.241C735.798 117.929 736.676 117.718 737.63 117.675C738.925 117.617 739.826 118.668 739.872 119.691L739.88 119.861ZM735.261 122.664C733.032 123.959 731.887 126.572 731.995 128.956C732.047 130.115 732.511 132.074 734.01 132.006C737.11 131.866 739.481 129.165 739.354 126.371C739.284 124.804 738.411 123.614 736.85 123.07C736.539 122.982 736.265 122.96 735.989 122.904C735.747 122.847 735.504 122.755 735.261 122.664ZM754.346 134.092C754.031 134.687 753.37 135.161 752.518 135.199C751.223 135.257 750.29 134.241 750.244 133.219C750.211 132.504 750.247 131.785 750.251 131.102C750.223 129.738 750.196 128.374 750.133 126.977C750.065 125.478 749.963 123.98 749.792 122.452C749.688 121.671 749.483 120.895 749.446 120.078C749.399 119.056 750.236 117.925 751.531 117.867C753.064 117.798 753.694 118.896 753.924 120.217C754.691 119.056 755.836 117.946 757.505 117.87C759.141 117.796 761.565 119.326 761.641 120.995C761.687 122.017 760.884 123.146 759.555 123.206C758.704 123.244 758.247 122.958 757.741 122.332L757.705 122.299C756.377 123.895 755.187 129.275 754.865 131.235C754.844 131.509 754.768 132.093 754.688 132.609C754.668 132.917 754.612 133.193 754.553 133.4C754.53 133.64 754.474 133.916 754.346 134.092ZM773.542 122.643C774.347 123.835 777.493 126.22 778.727 127.086C779.008 127.278 779.358 127.467 779.606 127.66C779.957 127.883 780.31 128.141 780.563 128.437C780.92 128.796 781.112 129.265 781.134 129.742C781.18 130.764 780.343 131.894 779.049 131.953C778.333 131.985 777.562 131.542 776.997 131.124C776.821 130.995 776.678 130.865 776.502 130.736C775.405 129.898 774.209 129.099 773.109 128.193C772.507 127.708 771.903 127.189 771.368 126.667C771.426 127.961 771.448 132.228 771.104 132.926C770.759 133.59 770.171 134.197 769.183 134.242C767.889 134.3 766.954 133.25 766.908 132.228C766.891 131.853 766.943 131.509 766.961 131.133C767.113 128.463 767.023 125.702 766.901 123.011C766.795 120.66 766.622 118.346 766.313 116.039C766.214 115.36 766.15 114.681 765.983 114.005L765.853 113.397C765.811 113.228 765.766 112.991 765.755 112.752C765.709 111.73 766.546 110.6 767.84 110.542C768.76 110.5 769.431 110.982 769.833 111.578C770.274 112.275 770.589 114.719 770.83 117.03C770.895 117.71 770.96 118.389 771.023 119.035C771.187 118.891 771.35 118.713 771.548 118.568C772.238 117.956 772.998 117.41 773.726 116.899C774.457 116.456 775.12 116.017 775.65 115.651C775.95 115.501 776.448 115.172 776.912 114.877C777.378 114.617 777.979 114.317 778.49 114.294C779.785 114.236 780.72 115.286 780.766 116.308C780.819 117.466 780.025 118.048 779.126 118.533C778.762 118.788 778.328 119.013 778.062 119.161C776.401 120.192 774.741 121.223 773.542 122.643ZM790.716 122.994C791.362 122.931 792.105 122.76 792.709 122.528C793.719 122.21 794.244 121.742 794.215 121.095L794.212 121.027C792.747 121.093 791.477 121.696 790.716 122.994ZM785.74 126.974C785.141 126.557 784.945 125.985 784.917 125.372C784.885 124.657 785.229 123.958 785.892 123.519C786.692 120.069 789.525 117.039 793.75 116.848C796.475 116.725 798.431 118.446 798.541 120.899C798.586 121.887 798.321 122.821 797.847 123.662C796.328 126.325 793.048 127.019 790.261 127.282C790.807 128.793 792.193 129.243 794.169 129.154C795.191 129.108 795.618 128.747 796.013 128.422L796.306 128.101C796.438 127.993 796.5 127.854 796.667 127.778C796.964 127.559 797.333 127.406 797.81 127.385C799.105 127.326 800.04 128.377 800.084 129.365C800.117 130.08 799.765 130.608 799.41 131.068C798.245 132.486 796.232 133.26 794.358 133.344C789.622 133.558 786.309 131.25 785.74 126.974ZM810.752 122.089C811.397 122.026 812.141 121.856 812.745 121.624C813.755 121.305 814.28 120.838 814.25 120.19L814.247 120.122C812.782 120.188 811.512 120.792 810.752 122.089ZM805.776 126.069C805.177 125.652 804.981 125.081 804.953 124.468C804.921 123.752 805.265 123.054 805.928 122.614C806.728 119.164 809.561 116.135 813.786 115.944C816.511 115.821 818.467 117.542 818.577 119.995C818.622 120.983 818.357 121.917 817.883 122.757C816.364 125.42 813.084 126.115 810.297 126.377C810.843 127.889 812.229 128.338 814.205 128.249C815.227 128.203 815.654 127.842 816.049 127.517L816.342 127.197C816.474 127.088 816.536 126.949 816.703 126.873C817 126.655 817.369 126.502 817.846 126.48C819.141 126.422 820.076 127.472 820.12 128.46C820.152 129.175 819.801 129.703 819.446 130.163C818.281 131.581 816.268 132.355 814.394 132.44C809.658 132.653 806.345 130.345 805.776 126.069Z" fill="black"/>
<path d="M1352.9 109.206C1352.84 107.707 1352.87 106.203 1352.8 104.704C1352.65 101.297 1352.36 97.8282 1352.03 94.429C1351.89 92.7626 1351.68 91.0994 1351.6 89.43C1351.55 88.4079 1352.39 87.2777 1353.69 87.2192C1354.64 87.1762 1355.38 87.723 1355.75 88.389C1356.17 89.2239 1357.04 102.431 1357.13 104.509C1357.18 105.633 1357.2 106.759 1357.24 107.815C1357.32 109.382 1357.19 111.129 1355.18 111.22C1353.85 111.28 1352.95 110.228 1352.9 109.206ZM1363.66 108.72C1363.59 107.221 1363.62 105.718 1363.56 104.219C1363.4 100.812 1363.11 97.3427 1362.78 93.9435C1362.64 92.2772 1362.43 90.6139 1362.35 88.9445C1362.31 87.9224 1363.14 86.7922 1364.44 86.7338C1365.39 86.6907 1366.13 87.2376 1366.51 87.9036C1366.92 88.7384 1367.79 101.945 1367.88 104.023C1367.93 105.148 1367.95 106.273 1368 107.33C1368.07 108.897 1367.94 110.644 1365.93 110.734C1364.6 110.794 1363.7 109.743 1363.66 108.72ZM1374.32 86.6971C1374.94 86.6013 1375.79 86.5287 1376.64 86.4562C1378.34 86.3452 1380.08 86.2668 1380.65 86.2407C1382.39 86.1622 1388.83 85.9396 1390.06 86.7035C1390.76 87.0815 1391.2 87.7104 1391.24 88.4599C1391.28 89.482 1390.44 90.5782 1389.15 90.6366C1388.91 90.6474 1388.67 90.6241 1388.46 90.5992C1388.26 90.5403 1388.09 90.548 1387.91 90.5216L1386.37 90.3864C1385.76 90.346 1385.11 90.3411 1384.49 90.3348C1384.5 90.5051 1384.51 90.6414 1384.51 90.7777C1384.58 91.6279 1384.62 92.5137 1384.66 93.3654C1384.84 97.3515 1384.75 101.35 1384.73 105.379C1384.71 105.688 1384.74 106.437 1384.7 107.122C1384.72 107.462 1384.7 108.521 1384.54 108.836C1384.23 109.567 1383.55 110.212 1382.59 110.255C1381.3 110.314 1380.36 109.263 1380.32 108.241C1380.24 106.606 1380.34 104.929 1380.4 103.322C1380.46 100.076 1380.48 96.7974 1380.34 93.5608C1380.3 92.6749 1380.26 91.7891 1380.18 90.9049C1380.17 90.7345 1380.13 90.5998 1380.13 90.4294C1378.83 90.4879 1377.54 90.5804 1376.28 90.7395C1375.47 90.8105 1374.72 90.9466 1373.94 90.9819C1372.64 91.0404 1371.71 89.9902 1371.66 88.9681C1371.59 87.4009 1373 86.7571 1374.32 86.6971ZM1409.37 89.2114C1409.44 89.9935 1409.52 90.8777 1409.59 91.7279C1409.71 93.6343 1409.83 95.5747 1409.92 96.8337C1412.27 96.7276 1416.87 95.803 1416.73 92.6686C1416.71 92.1235 1416.52 91.6201 1416.22 91.1214C1415.2 89.5972 1413.18 88.8688 1411.14 88.9611C1410.56 88.9872 1409.95 89.049 1409.37 89.2114ZM1416.28 107.505C1416.24 107.405 1416.16 107.238 1416.09 107.07C1415.97 106.768 1415.81 106.332 1415.69 105.961C1415.45 105.119 1415.18 104.278 1415.06 103.976C1414.83 103.406 1414.26 102.168 1413.76 100.928C1413.72 100.793 1413.65 100.66 1413.61 100.525C1412.46 100.816 1411.27 100.972 1410.08 101.026C1410.14 102.457 1410.33 107.296 1410.02 108.061C1409.67 108.725 1409.05 109.3 1408.1 109.343C1406.77 109.403 1405.87 108.351 1405.82 107.329C1405.78 106.307 1405.83 105.28 1405.82 104.222C1405.8 102.209 1405.74 100.163 1405.65 98.1193C1405.5 94.8827 1405.32 91.6136 1404.9 88.3893C1404.88 87.9464 1404.79 87.5065 1404.77 87.0636C1404.73 86.0756 1405.53 84.9469 1406.86 84.887C1407.33 84.8654 1407.75 84.9832 1408.07 85.2079C1409.01 84.9604 1409.99 84.8136 1410.95 84.7705C1415.96 84.5444 1420.84 87.6013 1421.06 92.4732C1421.18 95.1988 1419.81 97.3432 1417.66 98.8059C1418.81 101.553 1420.4 105.919 1420.43 106.533C1420.48 107.555 1419.64 108.651 1418.35 108.709C1417.53 108.746 1416.9 108.365 1416.46 107.804C1416.39 107.773 1416.35 107.639 1416.28 107.505ZM1439.18 91.7917C1441.6 93.1846 1442.9 95.5156 1443.02 98.1049C1443.24 103.011 1439.22 107.869 1433.5 108.128C1428.97 108.332 1427.08 104.287 1426.93 101.084C1426.73 96.587 1429.28 91.8289 1434.23 90.1719C1435.1 89.8593 1435.98 89.649 1436.93 89.6059C1438.23 89.5475 1439.13 90.5993 1439.17 91.6213L1439.18 91.7917ZM1434.56 94.5948C1432.33 95.8903 1431.19 98.5024 1431.3 100.887C1431.35 102.046 1431.81 104.005 1433.31 103.937C1436.41 103.797 1438.78 101.096 1438.66 98.3018C1438.58 96.7346 1437.71 95.545 1436.15 95.001C1435.84 94.9126 1435.57 94.8909 1435.29 94.835C1435.05 94.7777 1434.8 94.6862 1434.56 94.5948ZM1460.88 90.812C1463.3 92.205 1464.6 94.536 1464.72 97.1253C1464.94 102.031 1460.92 106.89 1455.2 107.148C1450.67 107.353 1448.78 103.307 1448.63 100.104C1448.43 95.6073 1450.98 90.8493 1455.92 89.1922C1456.8 88.8797 1457.68 88.6693 1458.63 88.6263C1459.93 88.5678 1460.83 89.6196 1460.87 90.6417L1460.88 90.812ZM1456.26 93.6151C1454.03 94.9106 1452.89 97.5227 1452.99 99.9076C1453.05 101.066 1453.51 103.025 1455.01 102.957C1458.11 102.817 1460.48 100.116 1460.35 97.3221C1460.28 95.7549 1459.41 94.5654 1457.85 94.0213C1457.54 93.933 1457.26 93.9112 1456.99 93.8554C1456.75 93.798 1456.5 93.7066 1456.26 93.6151ZM1475.35 105.044C1475.03 105.638 1474.37 106.112 1473.52 106.15C1472.22 106.209 1471.29 105.192 1471.24 104.17C1471.21 103.455 1471.25 102.736 1471.25 102.053C1471.22 100.689 1471.2 99.3248 1471.13 97.928C1471.06 96.4289 1470.96 94.9314 1470.79 93.4029C1470.69 92.6224 1470.48 91.8465 1470.45 91.0288C1470.4 90.0067 1471.24 88.8765 1472.53 88.818C1474.06 88.7488 1474.69 89.847 1474.92 91.168C1475.69 90.0068 1476.84 88.8968 1478.51 88.8214C1480.14 88.7476 1482.57 90.2768 1482.64 91.9462C1482.69 92.9683 1481.88 94.097 1480.56 94.157C1479.7 94.1954 1479.25 93.9088 1478.74 93.283L1478.71 93.2505C1477.38 94.8467 1476.19 100.226 1475.87 102.187C1475.84 102.461 1475.77 103.044 1475.69 103.56C1475.67 103.868 1475.61 104.144 1475.55 104.351C1475.53 104.591 1475.47 104.867 1475.35 105.044ZM1494.54 93.5938C1495.35 94.7865 1498.49 97.1707 1499.73 98.0367C1500.01 98.2289 1500.36 98.4179 1500.61 98.6115C1500.96 98.8346 1501.31 99.0918 1501.56 99.3877C1501.92 99.7471 1502.11 100.216 1502.13 100.693C1502.18 101.715 1501.34 102.846 1500.05 102.904C1499.33 102.936 1498.56 102.493 1498 102.075C1497.82 101.946 1497.68 101.816 1497.5 101.688C1496.41 100.85 1495.21 100.05 1494.11 99.1438C1493.51 98.6589 1492.9 98.14 1492.37 97.6179C1492.43 98.9126 1492.45 103.179 1492.1 103.877C1491.76 104.541 1491.17 105.148 1490.18 105.193C1488.89 105.251 1487.95 104.201 1487.91 103.179C1487.89 102.804 1487.94 102.461 1487.96 102.084C1488.11 99.4145 1488.02 96.6534 1487.9 93.9619C1487.8 91.6111 1487.62 89.2974 1487.31 86.9899C1487.21 86.3116 1487.15 85.6318 1486.98 84.9565L1486.85 84.3479C1486.81 84.1791 1486.77 83.9421 1486.76 83.7036C1486.71 82.6816 1487.55 81.5513 1488.84 81.4929C1489.76 81.4514 1490.43 81.9332 1490.83 82.5295C1491.27 83.2265 1491.59 85.6703 1491.83 87.9809C1491.9 88.6607 1491.96 89.3406 1492.02 89.9863C1492.19 89.8424 1492.35 89.6643 1492.55 89.5188C1493.24 88.9074 1494 88.3609 1494.73 87.8501C1495.46 87.4074 1496.12 86.9679 1496.65 86.6025C1496.95 86.4524 1497.45 86.1227 1497.91 85.8286C1498.38 85.5686 1498.98 85.2684 1499.49 85.2453C1500.79 85.1869 1501.72 86.2371 1501.77 87.2592C1501.82 88.4175 1501.03 88.9996 1500.13 89.484C1499.76 89.7394 1499.33 89.9638 1499.06 90.1124C1497.4 91.1432 1495.74 92.1741 1494.54 93.5938ZM1511.72 93.945C1512.36 93.8817 1513.1 93.7116 1513.71 93.4795C1514.72 93.1608 1515.24 92.6933 1515.21 92.046L1515.21 91.9778C1513.75 92.044 1512.48 92.6475 1511.72 93.945ZM1506.74 97.9249C1506.14 97.5082 1505.94 96.9367 1505.92 96.3234C1505.88 95.608 1506.23 94.9097 1506.89 94.4701C1507.69 91.02 1510.53 87.9903 1514.75 87.7996C1517.48 87.6765 1519.43 89.3976 1519.54 91.8506C1519.59 92.8386 1519.32 93.7724 1518.85 94.6131C1517.33 97.2762 1514.05 97.9705 1511.26 98.2329C1511.81 99.7445 1513.19 100.194 1515.17 100.105C1516.19 100.059 1516.62 99.698 1517.01 99.3729L1517.31 99.0524C1517.44 98.9441 1517.5 98.8047 1517.67 98.7289C1517.96 98.5106 1518.33 98.3574 1518.81 98.3359C1520.1 98.2774 1521.04 99.3277 1521.08 100.316C1521.12 101.031 1520.76 101.559 1520.41 102.019C1519.25 103.437 1517.23 104.211 1515.36 104.295C1510.62 104.509 1507.31 102.201 1506.74 97.9249ZM1531.75 93.0404C1532.4 92.9772 1533.14 92.807 1533.74 92.5749C1534.75 92.2562 1535.28 91.7887 1535.25 91.1414L1535.25 91.0733C1533.78 91.1394 1532.51 91.743 1531.75 93.0404ZM1526.78 97.0204C1526.18 96.6036 1525.98 96.0321 1525.95 95.4189C1525.92 94.7034 1526.26 94.0051 1526.93 93.5655C1527.73 90.1155 1530.56 87.0857 1534.79 86.895C1537.51 86.772 1539.47 88.493 1539.58 90.9461C1539.62 91.9341 1539.36 92.8678 1538.88 93.7085C1537.36 96.3716 1534.08 97.066 1531.3 97.3284C1531.84 98.84 1533.23 99.2895 1535.2 99.2003C1536.23 99.1541 1536.65 98.7934 1537.05 98.4683L1537.34 98.1479C1537.47 98.0395 1537.54 97.9002 1537.7 97.8243C1538 97.6061 1538.37 97.4529 1538.85 97.4313C1540.14 97.3729 1541.08 98.4231 1541.12 99.4111C1541.15 100.127 1540.8 100.655 1540.45 101.114C1539.28 102.533 1537.27 103.306 1535.39 103.391C1530.66 103.605 1527.34 101.296 1526.78 97.0204Z" fill="black"/>
<circle cx="584.973" cy="133.021" r="6.74979" transform="rotate(1.92852 584.973 133.021)" fill="#202020"/>
<circle cx="1305.97" cy="103.974" r="6.74979" transform="rotate(1.92852 1305.97 103.974)" fill="#202020"/>
<circle cx="865.973" cy="123.021" r="6.74979" transform="rotate(1.92852 865.973 123.021)" fill="#202020"/>
<defs>
<filter id="filter0_d_561_45" x="0.0078125" y="56.7568" width="1700.29" height="140.499" filterUnits="userSpaceOnUse" color-interpolation-filters="sRGB">
<feFlood flood-opacity="0" result="BackgroundImageFix"/>
<feColorMatrix in="SourceAlpha" type="matrix" values="0 0 0 0 0 0 0 0 0 0 0 0 0 0 0 0 0 0 127 0" result="hardAlpha"/>
<feOffset dy="7"/>
<feGaussianBlur stdDeviation="2"/>
<feComposite in2="hardAlpha" operator="out"/>
<feColorMatrix type="matrix" values="0 0 0 0 0 0 0 0 0 0 0 0 0 0 0 0 0 0 0.43 0"/>
<feBlend mode="normal" in2="BackgroundImageFix" result="effect1_dropShadow_561_45"/>
<feBlend mode="normal" in="SourceGraphic" in2="effect1_dropShadow_561_45" result="shape"/>
</filter>
</defs>
</svg>
