<svg width="113" height="42" viewBox="0 0 113 42" fill="none" xmlns="http://www.w3.org/2000/svg">
<path fill-rule="evenodd" clip-rule="evenodd" d="M23.1111 28.0935C23.1111 27.8578 23.0175 27.6317 22.8508 27.465C22.6841 27.2983 22.458 27.2046 22.2222 27.2046H17.7778V14.7602H22.2222C22.458 14.7602 22.6841 14.6665 22.8508 14.4998C23.0175 14.3332 23.1111 14.1071 23.1111 13.8713C23.1111 13.6356 23.0175 13.4095 22.8508 13.2428C22.6841 13.0761 22.458 12.9824 22.2222 12.9824H17.7778C17.3063 12.9824 16.8541 13.1697 16.5207 13.5031C16.1873 13.8365 16 14.2887 16 14.7602V27.2046C16 27.6761 16.1873 28.1283 16.5207 28.4617C16.8541 28.7951 17.3063 28.9824 17.7778 28.9824H22.2222C22.458 28.9824 22.6841 28.8888 22.8508 28.7221C23.0175 28.5554 23.1111 28.3293 23.1111 28.0935Z" fill="#212121"/>
<path d="M32.6355 21.5913C32.7981 21.426 32.8894 21.2035 32.8898 20.9717V20.9664C32.8893 20.7315 32.7956 20.5064 32.6293 20.3406L29.0738 16.785C28.9918 16.7001 28.8937 16.6324 28.7852 16.5858C28.6768 16.5393 28.5601 16.5147 28.4421 16.5137C28.3241 16.5127 28.207 16.5352 28.0978 16.5799C27.9886 16.6246 27.8893 16.6906 27.8059 16.774C27.7224 16.8575 27.6564 16.9567 27.6117 17.066C27.567 17.1752 27.5445 17.2923 27.5455 17.4103C27.5466 17.5283 27.5711 17.645 27.6177 17.7534C27.6643 17.8618 27.732 17.9599 27.8169 18.0419L29.8551 20.0801H21.3342C21.0985 20.0801 20.8724 20.1738 20.7057 20.3405C20.539 20.5072 20.4453 20.7333 20.4453 20.969C20.4453 21.2048 20.539 21.4309 20.7057 21.5976C20.8724 21.7643 21.0985 21.8579 21.3342 21.8579H29.8551L27.8169 23.8962C27.6549 24.0638 27.5654 24.2883 27.5674 24.5214C27.5694 24.7545 27.6629 24.9774 27.8277 25.1422C27.9925 25.307 28.2154 25.4005 28.4485 25.4025C28.6816 25.4046 28.9061 25.315 29.0738 25.153L32.6293 21.5975L32.6355 21.5913Z" fill="#212121"/>
<path d="M48.0127 26.7227C47.4749 26.9596 46.6432 27.1715 45.5176 27.3584C44.4876 27.5316 43.6423 27.6182 42.9814 27.6182C41.8649 27.6182 41.3066 27.1283 41.3066 26.1484C41.3066 26.2259 41.3522 25.5036 41.4434 23.9814C41.5618 22.0036 41.6211 19.8024 41.6211 17.3779C41.6211 17.1182 41.71 16.8971 41.8877 16.7148C42.07 16.5326 42.2979 16.4414 42.5713 16.4414C42.8447 16.4414 43.0726 16.5326 43.2549 16.7148C43.4372 16.8971 43.5283 17.1182 43.5283 17.3779C43.5283 19.807 43.4668 22.0446 43.3438 24.0908C43.3027 24.4554 43.2594 25.0137 43.2139 25.7656C44.2939 25.7474 45.6794 25.4831 47.3701 24.9727C47.4749 24.9408 47.5752 24.9248 47.6709 24.9248C47.958 24.9248 48.1904 25.0296 48.3682 25.2393C48.5277 25.4261 48.6074 25.6357 48.6074 25.8682C48.6074 26.2601 48.4092 26.5449 48.0127 26.7227ZM52.3243 27.3857C51.4812 27.3857 50.7565 27.0964 50.1504 26.5176C49.4851 25.8841 49.1364 25.0387 49.1045 23.9814C49.0726 22.9743 49.3483 22.0765 49.9317 21.2881C50.6244 20.3584 51.5883 19.8936 52.8233 19.8936C53.7347 19.8936 54.4593 20.2581 54.9971 20.9873C55.4802 21.6436 55.7217 22.457 55.7217 23.4277C55.7217 24.485 55.4392 25.3874 54.8741 26.1348C54.2406 26.9688 53.3907 27.3857 52.3243 27.3857ZM52.7344 21.6982C52.1739 21.6937 51.7318 21.9489 51.4082 22.4639C51.1348 22.8968 50.9981 23.4027 50.9981 23.9814C50.9981 24.5283 51.153 24.9476 51.4629 25.2393C51.709 25.4717 51.9961 25.5879 52.3243 25.5879C52.7207 25.5879 53.0648 25.4535 53.3565 25.1846C53.6892 24.8701 53.8669 24.444 53.8897 23.9062C53.9489 22.4388 53.5638 21.7028 52.7344 21.6982ZM63.4239 22.9082C63.2325 23.9792 63.1186 25.1094 63.0821 26.2988C63.0365 27.7708 62.7904 28.8395 62.3438 29.5049C61.7468 30.3936 60.6895 30.8379 59.172 30.8379C57.3992 30.8379 56.5128 30.487 56.5128 29.7852C56.5128 29.5345 56.5925 29.3317 56.752 29.1768C56.9115 29.0218 57.1212 28.9443 57.3809 28.9443C57.586 28.9443 57.88 28.9831 58.2628 29.0605C58.6456 29.138 58.9851 29.1768 59.2813 29.1768C59.9604 29.1768 60.4617 28.9694 60.7852 28.5547C61.0951 28.1491 61.2774 27.5042 61.3321 26.6201C61.0997 26.8571 60.8376 27.0348 60.546 27.1533C60.2543 27.2718 59.9353 27.3311 59.5889 27.3311C58.682 27.3311 57.9438 27.0371 57.3741 26.4492C56.809 25.8568 56.5264 25.1003 56.5264 24.1797C56.5264 22.9401 56.9047 21.9375 57.6612 21.1719C58.4451 20.3789 59.5046 19.9824 60.8399 19.9824C61.2683 19.9824 61.6374 20.0348 61.9473 20.1396C62.2572 20.2445 62.5079 20.404 62.6993 20.6182C63.2781 20.6865 63.5675 21.0283 63.5675 21.6436C63.5675 21.9489 63.5196 22.3704 63.4239 22.9082ZM60.7716 21.541C60.0014 21.541 59.4021 21.7939 58.9737 22.2998C58.5909 22.7601 58.3995 23.3571 58.3995 24.0908C58.3995 24.6331 58.502 25.041 58.7071 25.3145C58.9122 25.5879 59.2198 25.7246 59.63 25.7246C60.0037 25.7246 60.3796 25.5081 60.7579 25.0752C61.1134 24.665 61.3162 24.2594 61.3663 23.8584C61.4529 23.4209 61.5531 22.7396 61.6671 21.8145C61.5121 21.7233 61.3595 21.6549 61.2091 21.6094C61.0587 21.5638 60.9128 21.541 60.7716 21.541ZM75.6906 27.3994C74.3416 27.3994 73.1932 27.012 72.2453 26.2373C71.2336 25.4079 70.7277 24.3346 70.7277 23.0176C70.7277 21.4681 71.213 20.0553 72.1838 18.7793C73.2729 17.3438 74.6447 16.626 76.299 16.626C77.8895 16.626 79.0812 16.9906 79.8742 17.7197C80.6671 18.4489 81.0636 19.5449 81.0636 21.0078C81.0636 22.5573 80.617 23.9609 79.7238 25.2188C78.6938 26.6725 77.3494 27.3994 75.6906 27.3994ZM76.299 18.4785C75.2827 18.4785 74.4123 18.9707 73.6877 19.9551C73.0086 20.8757 72.6691 21.8965 72.6691 23.0176C72.6691 23.7741 72.963 24.3893 73.5509 24.8633C74.116 25.319 74.8293 25.5469 75.6906 25.5469C76.6932 25.5469 77.5295 25.0547 78.1994 24.0703C78.8146 23.1725 79.1222 22.1517 79.1222 21.0078C79.1222 20.0508 78.908 19.3854 78.4796 19.0117C78.0695 18.6562 77.3426 18.4785 76.299 18.4785ZM88.3967 23.0312C88.3967 23.3366 88.399 23.7969 88.4035 24.4121C88.4081 25.0273 88.4104 25.4876 88.4104 25.793C88.4104 25.8887 88.4172 26.0322 88.4309 26.2236C88.4491 26.4105 88.4582 26.5518 88.4582 26.6475C88.4582 26.9027 88.3648 27.1123 88.1779 27.2764C87.9956 27.445 87.7701 27.5293 87.5012 27.5293C87.1229 27.5293 86.8472 27.3584 86.674 27.0166C86.0907 27.2308 85.4868 27.3379 84.8625 27.3379C84.2154 27.3379 83.6708 27.2012 83.2287 26.9277C82.732 26.6133 82.4357 26.1553 82.34 25.5537C82.1623 24.4144 82.0734 23.3958 82.0734 22.498C82.0734 21.9056 82.1418 21.2288 82.2785 20.4678C82.3697 19.9528 82.6773 19.6953 83.2014 19.6953C83.4657 19.6953 83.6913 19.7796 83.8781 19.9482C84.065 20.1123 84.1584 20.3219 84.1584 20.5771C84.1584 20.7777 84.1242 21.0921 84.0559 21.5205C83.9921 21.9489 83.9602 22.2747 83.9602 22.498C83.9602 23.1406 83.9807 23.7035 84.0217 24.1865C84.0673 24.665 84.1333 25.0615 84.2199 25.376C84.3339 25.4261 84.4432 25.4648 84.548 25.4922C84.6574 25.5195 84.7622 25.5332 84.8625 25.5332C85.3684 25.5332 85.9243 25.4603 86.5305 25.3145C86.5305 24.9635 86.5282 24.5648 86.5236 24.1182C86.5145 23.585 86.51 23.2021 86.51 22.9697C86.51 22.0355 86.5533 21.2288 86.6398 20.5498C86.7082 20.0075 87.0181 19.7363 87.5695 19.7363C87.8384 19.7363 88.0686 19.8206 88.26 19.9893C88.4514 20.1579 88.5402 20.3698 88.5266 20.625C88.44 22.3613 88.3967 23.1634 88.3967 23.0312ZM94.7317 21.4795C94.636 21.4795 94.522 21.4772 94.3899 21.4727C94.2623 21.4635 94.1506 21.459 94.0549 21.459C93.8681 21.459 93.6516 21.4772 93.4055 21.5137C93.4875 23.3548 93.5286 24.5579 93.5286 25.123C93.5286 25.1823 93.5308 25.2939 93.5354 25.458C93.5399 25.6175 93.5422 25.7474 93.5422 25.8477C93.5422 26.8958 93.2118 27.4199 92.551 27.4199C92.3004 27.4199 92.0839 27.3424 91.9016 27.1875C91.7011 27.0234 91.6008 26.8184 91.6008 26.5723C91.6008 26.4082 91.6077 26.1621 91.6213 25.834C91.635 25.5059 91.6418 25.2598 91.6418 25.0957C91.6418 24.5443 91.6008 23.3639 91.5188 21.5547C91.2362 21.541 90.8078 21.5046 90.2336 21.4453C89.664 21.3815 89.3791 21.0853 89.3791 20.5566C89.3791 20.3014 89.4657 20.085 89.6389 19.9072C89.8121 19.7295 90.0354 19.6406 90.3088 19.6406C90.4774 19.6406 90.8648 19.668 91.4709 19.7227C91.4664 19.5768 91.455 19.3353 91.4368 18.998C91.4185 18.7064 91.4094 18.4808 91.4094 18.3213C91.4094 18.0661 91.5028 17.8542 91.6897 17.6855C91.8765 17.5169 92.1021 17.4326 92.3664 17.4326C93.0409 17.4326 93.3782 18 93.3782 19.1348L93.3645 19.6953C93.647 19.6543 93.8772 19.6338 94.0549 19.6338C94.579 19.6338 94.9368 19.668 95.1282 19.7363C95.4927 19.8639 95.675 20.1419 95.675 20.5703C95.675 20.8301 95.5862 21.0465 95.4084 21.2197C95.2307 21.3929 95.0051 21.4795 94.7317 21.4795Z" fill="#212121"/>
<rect x="0.75" y="1.66406" width="111.39" height="38.6384" rx="3.25" stroke="#212121" stroke-width="1.5"/>
</svg>
