<svg width="21" height="21" viewBox="0 0 21 21" fill="none" xmlns="http://www.w3.org/2000/svg">
<path d="M2.25 7.593L10.2405 11.7487C10.3207 11.7904 10.4097 11.8122 10.5 11.8122C10.5903 11.8122 10.6793 11.7904 10.7595 11.7487L18.75 7.59375V14.8125C18.75 15.4351 18.5118 16.0341 18.0842 16.4867C17.6567 16.9392 17.0721 17.211 16.4505 17.2463L16.3125 17.25H4.6875C4.0649 17.25 3.46588 17.0118 3.01333 16.5842C2.56078 16.1567 2.289 15.5721 2.25375 14.9505L2.25 14.8125V7.593ZM4.6875 3.75H16.3125C16.9351 3.74996 17.5341 3.98817 17.9867 4.41575C18.4392 4.84334 18.711 5.4279 18.7463 6.0495L18.75 6.1875V6.3255L10.5 10.6155L2.25 6.3255V6.1875C2.24996 5.5649 2.48817 4.96588 2.91575 4.51333C3.34334 4.06078 3.9279 3.789 4.5495 3.75375L4.6875 3.75H16.3125H4.6875Z" fill="white"/>
</svg>
