<svg width="346" height="100" viewBox="0 0 346 100" fill="none" xmlns="http://www.w3.org/2000/svg">
<path d="M78.1128 70.432C52.7128 70.932 31.6128 71.532 31.2128 71.932C30.8128 72.232 31.0128 72.932 31.5128 73.432C32.0128 73.932 56.0128 73.932 88.4128 73.432C154.613 72.332 173.013 72.232 182.413 73.032C186.313 73.332 211.913 74.032 239.413 74.532C266.913 75.132 295.113 75.832 302.213 76.132C313.213 76.732 314.913 76.632 314.913 75.332C314.913 73.532 304.013 72.932 239.413 71.432C172.913 69.932 128.513 69.632 78.1128 70.432Z" fill="white"/>
<path d="M12.4561 39.424C12.7761 39.424 13.1281 39.424 13.5121 39.424C13.9121 39.408 14.3041 39.408 14.6881 39.424C15.0881 39.44 15.4721 39.48 15.8401 39.544C16.2241 39.592 16.5601 39.68 16.8481 39.808C17.2001 39.952 17.5361 40.208 17.8561 40.576C18.1761 40.928 18.4721 41.328 18.7441 41.776C19.0321 42.208 19.2961 42.648 19.5361 43.096C19.7761 43.544 19.9761 43.936 20.1361 44.272C20.2321 44.464 20.3361 44.696 20.4481 44.968C20.5601 45.224 20.6801 45.432 20.8081 45.592C21.0001 45.832 21.2401 45.952 21.5281 45.952C21.7681 45.952 21.9601 45.864 22.1041 45.688C22.2801 45.48 22.4321 45.248 22.5601 44.992C22.7041 44.72 22.8401 44.472 22.9681 44.248C23.1921 43.88 23.4481 43.472 23.7361 43.024C24.0241 42.576 24.3361 42.144 24.6721 41.728C25.0081 41.296 25.3681 40.912 25.7521 40.576C26.1521 40.224 26.5521 39.976 26.9521 39.832C27.1761 39.752 27.4801 39.696 27.8641 39.664C28.2481 39.632 28.5601 39.616 28.8001 39.616C28.9761 39.616 29.1841 39.624 29.4241 39.64C29.6801 39.656 29.9361 39.688 30.1921 39.736C30.4641 39.784 30.7121 39.84 30.9361 39.904C31.1761 39.968 31.3681 40.048 31.5121 40.144C31.7841 40.336 32.0081 40.752 32.1841 41.392C32.3601 42.032 32.4961 42.792 32.5921 43.672C32.7041 44.552 32.7841 45.504 32.8321 46.528C32.8961 47.536 32.9361 48.512 32.9521 49.456C32.9841 50.4 33.0001 51.256 33.0001 52.024C33.0001 52.792 33.0001 53.368 33.0001 53.752C33.0001 54.024 32.9921 54.4 32.9761 54.88C32.9761 55.36 32.9601 55.856 32.9281 56.368C32.9121 56.88 32.8801 57.368 32.8321 57.832C32.7841 58.296 32.7201 58.64 32.6401 58.864C32.0801 59.04 31.4881 59.16 30.8641 59.224C30.2401 59.304 29.6401 59.344 29.0641 59.344C28.5841 59.344 28.0721 59.312 27.5281 59.248C27.0001 59.184 26.5121 59.048 26.0641 58.84C25.9041 58.584 25.8081 58.264 25.7761 57.88C25.7601 57.496 25.7521 57.16 25.7521 56.872V54.568C25.7521 53.848 25.7841 53.144 25.8481 52.456C25.9281 51.768 25.9681 51.072 25.9681 50.368C25.9681 50.32 25.9681 50.232 25.9681 50.104C25.9681 49.976 25.9601 49.848 25.9441 49.72C25.9441 49.592 25.9201 49.48 25.8721 49.384C25.8241 49.288 25.7521 49.24 25.6561 49.24C25.4801 49.24 25.2321 49.464 24.9121 49.912C24.6081 50.344 24.2881 50.848 23.9521 51.424C23.6321 51.984 23.3281 52.528 23.0401 53.056C22.7521 53.584 22.5361 53.944 22.3921 54.136C22.2161 54.232 22.0321 54.296 21.8401 54.328C21.6481 54.36 21.4561 54.376 21.2641 54.376C21.0241 54.376 20.7841 54.352 20.5441 54.304C20.3041 54.256 20.0801 54.168 19.8721 54.04C19.7921 53.928 19.6801 53.736 19.5361 53.464C19.3921 53.192 19.2241 52.88 19.0321 52.528C18.8561 52.176 18.6641 51.816 18.4561 51.448C18.2641 51.064 18.0721 50.72 17.8801 50.416C17.6881 50.096 17.5121 49.84 17.3521 49.648C17.2081 49.44 17.0881 49.336 16.9921 49.336C16.8801 49.336 16.8001 49.376 16.7521 49.456C16.7041 49.536 16.6721 49.632 16.6561 49.744C16.6401 49.856 16.6321 49.968 16.6321 50.08C16.6321 50.192 16.6321 50.288 16.6321 50.368C16.6321 51.376 16.6641 52.384 16.7281 53.392C16.7921 54.4 16.8241 55.416 16.8241 56.44C16.8241 56.776 16.8161 57.168 16.8001 57.616C16.7841 58.064 16.7281 58.448 16.6321 58.768C16.1841 58.896 15.7281 58.968 15.2641 58.984C14.8161 59.016 14.3601 59.032 13.8961 59.032C13.5761 59.032 13.2161 59.024 12.8161 59.008C12.4321 58.992 12.0401 58.96 11.6401 58.912C11.2561 58.864 10.8721 58.8 10.4881 58.72C10.1041 58.656 9.76812 58.568 9.48013 58.456C9.43213 58.312 9.40813 58.168 9.40813 58.024C9.40813 57.288 9.44013 56.544 9.50413 55.792C9.56813 55.024 9.64813 54.272 9.74413 53.536C9.93613 51.984 10.0561 50.432 10.1041 48.88C10.1681 47.312 10.2881 45.744 10.4641 44.176C10.3201 43.968 10.1601 43.856 9.98413 43.84C9.80813 43.824 9.64013 43.784 9.48013 43.72C9.33613 43.656 9.20813 43.504 9.09613 43.264C9.00013 43.024 8.95213 42.568 8.95213 41.896C8.95213 41.272 9.03213 40.792 9.19213 40.456C9.36813 40.12 9.60813 39.88 9.91212 39.736C10.2161 39.576 10.5841 39.488 11.0161 39.472C11.4481 39.44 11.9281 39.424 12.4561 39.424ZM55.5727 57.64C55.4127 57.864 55.0527 58.056 54.4927 58.216C53.9327 58.376 53.2927 58.496 52.5727 58.576C51.8687 58.656 51.1487 58.688 50.4127 58.672C49.6927 58.656 49.0847 58.584 48.5887 58.456C48.4127 57.976 48.2127 57.496 47.9887 57.016C47.7647 56.52 47.5887 56.048 47.4607 55.6C47.3967 55.328 47.2927 55.12 47.1487 54.976C47.0207 54.832 46.8447 54.728 46.6207 54.664C46.4127 54.584 46.1407 54.536 45.8047 54.52C45.4847 54.504 45.0927 54.496 44.6287 54.496C44.4047 54.496 44.1407 54.496 43.8367 54.496C43.5327 54.48 43.2367 54.48 42.9487 54.496C42.6607 54.512 42.3967 54.544 42.1567 54.592C41.9167 54.624 41.7567 54.688 41.6767 54.784C41.5967 54.88 41.5247 54.976 41.4607 55.072C41.3967 55.152 41.3327 55.256 41.2687 55.384C41.2047 55.512 41.1327 55.672 41.0527 55.864C40.9887 56.056 40.9007 56.312 40.7887 56.632C40.6927 56.92 40.6127 57.176 40.5487 57.4C40.4847 57.624 40.4287 57.824 40.3807 58C40.3327 58.16 40.2847 58.312 40.2367 58.456C40.1887 58.6 40.1247 58.736 40.0447 58.864C39.5487 58.912 38.9967 58.904 38.3887 58.84C37.7807 58.792 37.1807 58.704 36.5887 58.576C35.9967 58.464 35.4447 58.32 34.9327 58.144C34.4367 57.968 34.0447 57.776 33.7567 57.568C33.7567 57.376 33.7807 57.16 33.8287 56.92C33.8767 56.664 33.9247 56.408 33.9727 56.152C34.0367 55.88 34.1007 55.624 34.1647 55.384C34.2287 55.128 34.2847 54.904 34.3327 54.712C34.5727 53.656 34.8607 52.472 35.1967 51.16C35.5487 49.832 35.9487 48.512 36.3967 47.2C36.8607 45.872 37.3647 44.624 37.9087 43.456C38.4687 42.288 39.0847 41.344 39.7567 40.624C39.9807 40.384 40.2767 40.184 40.6447 40.024C41.0287 39.864 41.4607 39.736 41.9407 39.64C42.4207 39.528 42.9247 39.448 43.4527 39.4C43.9807 39.352 44.5087 39.328 45.0367 39.328C45.4047 39.328 45.8287 39.36 46.3087 39.424C46.8047 39.488 47.2927 39.592 47.7727 39.736C48.2687 39.88 48.7327 40.08 49.1647 40.336C49.6127 40.576 49.9647 40.888 50.2207 41.272C50.5887 41.8 50.9487 42.44 51.3007 43.192C51.6527 43.928 51.9887 44.736 52.3087 45.616C52.6447 46.496 52.9647 47.424 53.2687 48.4C53.5727 49.376 53.8527 50.352 54.1087 51.328C54.3807 52.304 54.6207 53.264 54.8287 54.208C55.0527 55.152 55.2527 56.032 55.4287 56.848C55.4607 56.976 55.4927 57.112 55.5247 57.256C55.5727 57.384 55.5887 57.512 55.5727 57.64ZM42.8287 49.696C42.7487 50.096 42.8367 50.328 43.0927 50.392C43.3647 50.472 43.6367 50.512 43.9087 50.512C44.1967 50.496 44.4767 50.488 44.7487 50.488C45.1807 50.488 45.5327 50.472 45.8047 50.44C46.0927 50.392 46.3087 50.336 46.4527 50.272C46.5967 50.192 46.6847 50.112 46.7167 50.032C46.7647 49.936 46.7727 49.832 46.7407 49.72C46.6927 49.512 46.6207 49.16 46.5247 48.664C46.4287 48.152 46.3007 47.632 46.1407 47.104C45.9807 46.576 45.7807 46.112 45.5407 45.712C45.3167 45.312 45.0447 45.112 44.7247 45.112C44.4847 45.112 44.2607 45.304 44.0527 45.688C43.8447 46.056 43.6607 46.496 43.5007 47.008C43.3407 47.52 43.1967 48.032 43.0687 48.544C42.9567 49.04 42.8767 49.424 42.8287 49.696ZM56.4164 58.384C56.2564 58.08 56.1364 57.672 56.0564 57.16C55.9764 56.632 55.9364 56.088 55.9364 55.528C55.9524 54.952 56.0084 54.4 56.1044 53.872C56.2004 53.328 56.3364 52.896 56.5124 52.576C56.8804 52.496 57.2404 52.488 57.5924 52.552C57.9604 52.6 58.3364 52.68 58.7204 52.792C59.1044 52.888 59.5124 52.992 59.9444 53.104C60.3764 53.2 60.8484 53.248 61.3604 53.248C61.8244 53.248 62.2004 53.2 62.4884 53.104C62.7924 53.008 63.0244 52.856 63.1844 52.648C63.3604 52.424 63.4724 52.128 63.5204 51.76C63.5844 51.376 63.6164 50.912 63.6164 50.368C63.6164 50.144 63.6164 49.8 63.6164 49.336C63.6324 48.856 63.6324 48.352 63.6164 47.824C63.6164 47.296 63.6004 46.784 63.5684 46.288C63.5364 45.792 63.4804 45.416 63.4004 45.16C63.3524 45 63.2484 44.888 63.0884 44.824C62.9284 44.76 62.7364 44.72 62.5124 44.704C62.3044 44.688 62.0724 44.688 61.8164 44.704C61.5764 44.72 61.3364 44.728 61.0964 44.728C60.7604 44.728 60.4484 44.736 60.1604 44.752C59.8884 44.768 59.6164 44.784 59.3444 44.8C59.0884 44.8 58.8164 44.808 58.5284 44.824C58.2564 44.84 57.9604 44.848 57.6404 44.848C57.3204 44.848 57.0724 44.784 56.8964 44.656C56.7844 44.208 56.7044 43.712 56.6564 43.168C56.6244 42.624 56.6244 42.104 56.6564 41.608C56.6884 41.096 56.7604 40.64 56.8724 40.24C56.9844 39.84 57.1364 39.544 57.3284 39.352C57.6164 39.256 57.9364 39.208 58.2884 39.208C60.4804 39.208 62.6004 39.224 64.6484 39.256C66.6964 39.288 68.8164 39.304 71.0084 39.304C71.3444 39.304 71.6884 39.344 72.0404 39.424C72.2164 39.712 72.3524 40.056 72.4484 40.456C72.5604 40.856 72.6324 41.28 72.6644 41.728C72.7124 42.176 72.7204 42.632 72.6884 43.096C72.6724 43.56 72.6324 43.992 72.5684 44.392C72.3444 44.504 72.0804 44.568 71.7764 44.584C71.4724 44.6 71.1284 44.608 70.7444 44.608C70.4564 44.608 70.2324 44.616 70.0724 44.632C69.9124 44.632 69.7924 44.648 69.7124 44.68C69.6324 44.712 69.5844 44.76 69.5684 44.824C69.5524 44.872 69.5444 44.936 69.5444 45.016C69.5444 45.176 69.5524 45.416 69.5684 45.736C69.5844 46.056 69.6004 46.4 69.6164 46.768C69.6484 47.136 69.6804 47.512 69.7124 47.896C69.7604 48.264 69.8084 48.592 69.8564 48.88C69.9844 49.52 70.0564 50.192 70.0724 50.896C70.1044 51.584 70.1204 52.328 70.1204 53.128C70.1204 54.264 69.9524 55.224 69.6164 56.008C69.2964 56.792 68.8244 57.432 68.2004 57.928C67.5924 58.408 66.8564 58.752 65.9924 58.96C65.1284 59.184 64.1684 59.296 63.1124 59.296C62.4724 59.296 61.8164 59.28 61.1444 59.248C60.4884 59.232 59.8644 59.184 59.2724 59.104C58.6804 59.04 58.1364 58.944 57.6404 58.816C57.1444 58.704 56.7364 58.56 56.4164 58.384ZM72.5531 49.168C72.5531 46.56 72.9931 44.496 73.8731 42.976C74.7531 41.456 75.9451 40.4 77.4491 39.808C77.8491 39.648 78.2891 39.528 78.7691 39.448C79.2491 39.352 79.7371 39.28 80.2331 39.232C80.7451 39.184 81.2491 39.152 81.7451 39.136C82.2411 39.12 82.7051 39.112 83.1371 39.112C83.5531 39.112 83.9931 39.12 84.4571 39.136C84.9211 39.152 85.3931 39.192 85.8731 39.256C86.3531 39.304 86.8171 39.376 87.2651 39.472C87.7291 39.552 88.1451 39.664 88.5131 39.808C89.2651 40.112 89.9371 40.528 90.5291 41.056C91.1371 41.568 91.6491 42.208 92.0651 42.976C92.4971 43.744 92.8251 44.648 93.0491 45.688C93.2731 46.712 93.3851 47.872 93.3851 49.168C93.3851 51.088 93.1451 52.72 92.6651 54.064C92.1851 55.392 91.5131 56.472 90.6491 57.304C89.7851 58.12 88.7451 58.712 87.5291 59.08C86.3291 59.448 84.9931 59.632 83.5211 59.632H82.4171C80.9611 59.632 79.6251 59.448 78.4091 59.08C77.1931 58.712 76.1531 58.12 75.2891 57.304C74.4251 56.472 73.7531 55.392 73.2731 54.064C72.7931 52.72 72.5531 51.088 72.5531 49.168ZM82.9691 44.464C82.4731 44.464 81.9931 44.568 81.5291 44.776C81.0651 44.984 80.6491 45.28 80.2811 45.664C79.9291 46.048 79.6411 46.52 79.4171 47.08C79.2091 47.624 79.1051 48.24 79.1051 48.928C79.1051 50.288 79.4091 51.352 80.0171 52.12C80.6411 52.872 81.6251 53.248 82.9691 53.248C84.3291 53.248 85.3131 52.872 85.9211 52.12C86.5451 51.352 86.8571 50.288 86.8571 48.928C86.8571 48.24 86.7451 47.624 86.5211 47.08C86.3131 46.52 86.0251 46.048 85.6571 45.664C85.3051 45.28 84.8971 44.984 84.4331 44.776C83.9691 44.568 83.4811 44.464 82.9691 44.464ZM113.606 57.88C113.27 58.056 112.846 58.216 112.334 58.36C111.838 58.504 111.31 58.616 110.75 58.696C110.19 58.792 109.622 58.848 109.046 58.864C108.486 58.88 107.958 58.84 107.462 58.744C106.998 58.472 106.59 58.064 106.238 57.52C105.902 56.976 105.606 56.432 105.35 55.888C104.742 54.656 104.206 53.816 103.742 53.368C103.278 52.904 102.934 52.672 102.71 52.672C102.454 52.672 102.294 52.72 102.23 52.816C102.182 52.896 102.158 53.024 102.158 53.2C102.158 53.344 102.19 53.632 102.254 54.064C102.318 54.496 102.374 54.976 102.422 55.504C102.47 56.032 102.478 56.56 102.446 57.088C102.43 57.616 102.334 58.048 102.158 58.384C101.774 58.512 101.318 58.624 100.79 58.72C100.262 58.816 99.7184 58.888 99.1584 58.936C98.5984 58.984 98.0464 59.008 97.5024 59.008C96.9744 59.008 96.5184 58.968 96.1344 58.888C96.0544 58.808 95.9744 58.672 95.8944 58.48C95.8304 58.288 95.7824 58.128 95.7504 58C95.6864 57.664 95.6304 57.216 95.5824 56.656C95.5344 56.08 95.4864 55.44 95.4384 54.736C95.4064 54.032 95.3744 53.288 95.3424 52.504C95.3264 51.72 95.3024 50.944 95.2704 50.176C95.2544 49.408 95.2384 48.68 95.2224 47.992C95.2224 47.288 95.2224 46.68 95.2224 46.168V46.024C95.2224 45.752 95.2144 45.504 95.1984 45.28C95.1824 45.056 95.0864 44.904 94.9104 44.824C94.8144 44.776 94.7024 44.72 94.5744 44.656C94.4464 44.576 94.3184 44.456 94.1904 44.296C94.0784 44.12 93.9824 43.888 93.9024 43.6C93.8224 43.296 93.7664 42.904 93.7344 42.424C93.7184 42.184 93.7184 41.936 93.7344 41.68C93.7504 41.408 93.7904 41.152 93.8544 40.912C93.9184 40.656 94.0064 40.424 94.1184 40.216C94.2464 39.992 94.4064 39.808 94.5984 39.664C95.0464 39.344 95.7264 39.168 96.6384 39.136C97.5664 39.088 98.7104 39.064 100.07 39.064C100.982 39.064 101.934 39.072 102.926 39.088C103.918 39.088 104.886 39.136 105.83 39.232C106.774 39.328 107.67 39.488 108.518 39.712C109.366 39.92 110.11 40.24 110.75 40.672C111.39 41.088 111.894 41.64 112.262 42.328C112.646 43 112.838 43.832 112.838 44.824C112.838 45.48 112.734 46.064 112.526 46.576C112.334 47.088 112.086 47.544 111.782 47.944C111.478 48.328 111.15 48.672 110.798 48.976C110.462 49.264 110.142 49.52 109.838 49.744C109.534 49.952 109.278 50.136 109.07 50.296C108.878 50.44 108.782 50.568 108.782 50.68C108.782 50.744 108.902 50.896 109.142 51.136C109.382 51.36 109.678 51.648 110.03 52C110.382 52.352 110.766 52.76 111.182 53.224C111.614 53.672 112.006 54.152 112.358 54.664C112.71 55.16 113.006 55.688 113.246 56.248C113.486 56.792 113.606 57.336 113.606 57.88ZM101.126 46.144C101.126 46.528 101.142 46.856 101.174 47.128C101.206 47.384 101.27 47.6 101.366 47.776C101.478 47.952 101.638 48.08 101.846 48.16C102.07 48.24 102.366 48.28 102.734 48.28C103.006 48.28 103.326 48.232 103.694 48.136C104.062 48.024 104.414 47.88 104.75 47.704C105.102 47.512 105.398 47.296 105.638 47.056C105.878 46.816 105.998 46.56 105.998 46.288C105.998 45.696 105.71 45.224 105.134 44.872C104.558 44.52 103.838 44.344 102.974 44.344C102.302 44.344 101.822 44.456 101.534 44.68C101.262 44.904 101.126 45.392 101.126 46.144ZM146.885 57.64C146.725 57.864 146.365 58.056 145.805 58.216C145.245 58.376 144.605 58.496 143.885 58.576C143.181 58.656 142.461 58.688 141.725 58.672C141.005 58.656 140.397 58.584 139.901 58.456C139.725 57.976 139.525 57.496 139.301 57.016C139.077 56.52 138.901 56.048 138.773 55.6C138.709 55.328 138.605 55.12 138.461 54.976C138.333 54.832 138.157 54.728 137.933 54.664C137.725 54.584 137.453 54.536 137.117 54.52C136.797 54.504 136.405 54.496 135.941 54.496C135.717 54.496 135.453 54.496 135.149 54.496C134.845 54.48 134.549 54.48 134.261 54.496C133.973 54.512 133.709 54.544 133.469 54.592C133.229 54.624 133.069 54.688 132.989 54.784C132.909 54.88 132.837 54.976 132.773 55.072C132.709 55.152 132.645 55.256 132.581 55.384C132.517 55.512 132.445 55.672 132.365 55.864C132.301 56.056 132.213 56.312 132.101 56.632C132.005 56.92 131.925 57.176 131.861 57.4C131.797 57.624 131.741 57.824 131.693 58C131.645 58.16 131.597 58.312 131.549 58.456C131.501 58.6 131.437 58.736 131.357 58.864C130.861 58.912 130.309 58.904 129.701 58.84C129.093 58.792 128.493 58.704 127.901 58.576C127.309 58.464 126.757 58.32 126.245 58.144C125.749 57.968 125.357 57.776 125.069 57.568C125.069 57.376 125.093 57.16 125.141 56.92C125.189 56.664 125.237 56.408 125.285 56.152C125.349 55.88 125.413 55.624 125.477 55.384C125.541 55.128 125.597 54.904 125.645 54.712C125.885 53.656 126.173 52.472 126.509 51.16C126.861 49.832 127.261 48.512 127.709 47.2C128.173 45.872 128.677 44.624 129.221 43.456C129.781 42.288 130.397 41.344 131.069 40.624C131.293 40.384 131.589 40.184 131.957 40.024C132.341 39.864 132.773 39.736 133.253 39.64C133.733 39.528 134.237 39.448 134.765 39.4C135.293 39.352 135.821 39.328 136.349 39.328C136.717 39.328 137.141 39.36 137.621 39.424C138.117 39.488 138.605 39.592 139.085 39.736C139.581 39.88 140.045 40.08 140.477 40.336C140.925 40.576 141.277 40.888 141.533 41.272C141.901 41.8 142.261 42.44 142.613 43.192C142.965 43.928 143.301 44.736 143.621 45.616C143.957 46.496 144.277 47.424 144.581 48.4C144.885 49.376 145.165 50.352 145.421 51.328C145.693 52.304 145.933 53.264 146.141 54.208C146.365 55.152 146.565 56.032 146.741 56.848C146.773 56.976 146.805 57.112 146.837 57.256C146.885 57.384 146.901 57.512 146.885 57.64ZM134.141 49.696C134.061 50.096 134.149 50.328 134.405 50.392C134.677 50.472 134.949 50.512 135.221 50.512C135.509 50.496 135.789 50.488 136.061 50.488C136.493 50.488 136.845 50.472 137.117 50.44C137.405 50.392 137.621 50.336 137.765 50.272C137.909 50.192 137.997 50.112 138.029 50.032C138.077 49.936 138.085 49.832 138.053 49.72C138.005 49.512 137.933 49.16 137.837 48.664C137.741 48.152 137.613 47.632 137.453 47.104C137.293 46.576 137.093 46.112 136.853 45.712C136.629 45.312 136.357 45.112 136.037 45.112C135.797 45.112 135.573 45.304 135.365 45.688C135.157 46.056 134.973 46.496 134.813 47.008C134.653 47.52 134.509 48.032 134.381 48.544C134.269 49.04 134.189 49.424 134.141 49.696ZM159.394 58.648C158.674 58.872 157.938 59.032 157.186 59.128C156.45 59.24 155.738 59.296 155.05 59.296C154.378 59.296 153.746 59.24 153.154 59.128C152.562 59.016 152.05 58.84 151.618 58.6C151.474 58.36 151.394 58.112 151.378 57.856C151.378 57.6 151.378 57.304 151.378 56.968C151.378 56.104 151.41 55.32 151.474 54.616C151.554 53.896 151.642 53.2 151.738 52.528C151.834 51.856 151.914 51.176 151.978 50.488C152.058 49.784 152.098 49.008 152.098 48.16C152.098 47.92 152.09 47.688 152.074 47.464C152.058 47.24 151.994 47.04 151.882 46.864C151.786 46.672 151.626 46.528 151.402 46.432C151.194 46.32 150.89 46.264 150.49 46.264C150.106 46.264 149.754 46.296 149.434 46.36C149.114 46.408 148.802 46.472 148.498 46.552C148.21 46.616 147.906 46.68 147.586 46.744C147.282 46.792 146.938 46.816 146.554 46.816C146.426 46.816 146.33 46.808 146.266 46.792C146.01 46.312 145.802 45.76 145.642 45.136C145.482 44.512 145.378 43.888 145.33 43.264C145.282 42.624 145.282 42.024 145.33 41.464C145.394 40.888 145.514 40.424 145.69 40.072C146.458 39.848 147.21 39.656 147.946 39.496C148.682 39.336 149.434 39.208 150.202 39.112C150.986 39 151.802 38.92 152.65 38.872C153.498 38.824 154.41 38.8 155.386 38.8C156.362 38.8 157.258 38.824 158.074 38.872C158.906 38.92 159.69 39 160.426 39.112C161.178 39.224 161.898 39.36 162.586 39.52C163.29 39.68 164.002 39.88 164.722 40.12C164.994 41.288 165.106 42.44 165.058 43.576C165.026 44.696 164.73 45.888 164.17 47.152C163.642 47.072 163.17 47 162.754 46.936C162.338 46.872 161.954 46.808 161.602 46.744C161.266 46.68 160.954 46.632 160.666 46.6C160.378 46.568 160.098 46.552 159.826 46.552C159.522 46.552 159.29 46.608 159.13 46.72C158.97 46.832 158.858 46.968 158.794 47.128C158.73 47.288 158.69 47.464 158.674 47.656C158.674 47.832 158.674 48 158.674 48.16C158.674 49.088 158.706 49.904 158.77 50.608C158.834 51.312 158.906 51.976 158.986 52.6C159.082 53.224 159.17 53.84 159.25 54.448C159.346 55.056 159.426 55.72 159.49 56.44C159.538 57.08 159.578 57.56 159.61 57.88C159.642 58.2 159.57 58.456 159.394 58.648ZM180.113 58.648C179.393 58.872 178.657 59.032 177.905 59.128C177.169 59.24 176.457 59.296 175.769 59.296C175.097 59.296 174.465 59.24 173.873 59.128C173.281 59.016 172.769 58.84 172.337 58.6C172.193 58.36 172.113 58.112 172.097 57.856C172.097 57.6 172.097 57.304 172.097 56.968C172.097 56.104 172.129 55.32 172.193 54.616C172.273 53.896 172.361 53.2 172.457 52.528C172.553 51.856 172.633 51.176 172.697 50.488C172.777 49.784 172.817 49.008 172.817 48.16C172.817 47.92 172.809 47.688 172.793 47.464C172.777 47.24 172.713 47.04 172.601 46.864C172.505 46.672 172.345 46.528 172.121 46.432C171.913 46.32 171.609 46.264 171.209 46.264C170.825 46.264 170.473 46.296 170.153 46.36C169.833 46.408 169.521 46.472 169.217 46.552C168.929 46.616 168.625 46.68 168.305 46.744C168.001 46.792 167.657 46.816 167.273 46.816C167.145 46.816 167.049 46.808 166.985 46.792C166.729 46.312 166.521 45.76 166.361 45.136C166.201 44.512 166.097 43.888 166.049 43.264C166.001 42.624 166.001 42.024 166.049 41.464C166.113 40.888 166.233 40.424 166.409 40.072C167.177 39.848 167.929 39.656 168.665 39.496C169.401 39.336 170.153 39.208 170.921 39.112C171.705 39 172.521 38.92 173.369 38.872C174.217 38.824 175.129 38.8 176.105 38.8C177.081 38.8 177.977 38.824 178.793 38.872C179.625 38.92 180.409 39 181.145 39.112C181.897 39.224 182.617 39.36 183.305 39.52C184.009 39.68 184.721 39.88 185.441 40.12C185.713 41.288 185.825 42.44 185.777 43.576C185.745 44.696 185.449 45.888 184.889 47.152C184.361 47.072 183.889 47 183.473 46.936C183.057 46.872 182.673 46.808 182.321 46.744C181.985 46.68 181.673 46.632 181.385 46.6C181.097 46.568 180.817 46.552 180.545 46.552C180.241 46.552 180.009 46.608 179.849 46.72C179.689 46.832 179.577 46.968 179.513 47.128C179.449 47.288 179.409 47.464 179.393 47.656C179.393 47.832 179.393 48 179.393 48.16C179.393 49.088 179.425 49.904 179.489 50.608C179.553 51.312 179.625 51.976 179.705 52.6C179.801 53.224 179.889 53.84 179.969 54.448C180.065 55.056 180.145 55.72 180.209 56.44C180.257 57.08 180.297 57.56 180.329 57.88C180.361 58.2 180.289 58.456 180.113 58.648ZM206.208 57.88C205.872 58.056 205.448 58.216 204.936 58.36C204.44 58.504 203.912 58.616 203.352 58.696C202.792 58.792 202.224 58.848 201.648 58.864C201.088 58.88 200.56 58.84 200.064 58.744C199.6 58.472 199.192 58.064 198.84 57.52C198.504 56.976 198.208 56.432 197.952 55.888C197.344 54.656 196.808 53.816 196.344 53.368C195.88 52.904 195.536 52.672 195.312 52.672C195.056 52.672 194.896 52.72 194.832 52.816C194.784 52.896 194.76 53.024 194.76 53.2C194.76 53.344 194.792 53.632 194.856 54.064C194.92 54.496 194.976 54.976 195.024 55.504C195.072 56.032 195.08 56.56 195.048 57.088C195.032 57.616 194.936 58.048 194.76 58.384C194.376 58.512 193.92 58.624 193.392 58.72C192.864 58.816 192.32 58.888 191.76 58.936C191.2 58.984 190.648 59.008 190.104 59.008C189.576 59.008 189.12 58.968 188.736 58.888C188.656 58.808 188.576 58.672 188.496 58.48C188.432 58.288 188.384 58.128 188.352 58C188.288 57.664 188.232 57.216 188.184 56.656C188.136 56.08 188.088 55.44 188.04 54.736C188.008 54.032 187.976 53.288 187.944 52.504C187.928 51.72 187.904 50.944 187.872 50.176C187.856 49.408 187.84 48.68 187.824 47.992C187.824 47.288 187.824 46.68 187.824 46.168V46.024C187.824 45.752 187.816 45.504 187.8 45.28C187.784 45.056 187.688 44.904 187.512 44.824C187.416 44.776 187.304 44.72 187.176 44.656C187.048 44.576 186.92 44.456 186.792 44.296C186.68 44.12 186.584 43.888 186.504 43.6C186.424 43.296 186.368 42.904 186.336 42.424C186.32 42.184 186.32 41.936 186.336 41.68C186.352 41.408 186.392 41.152 186.456 40.912C186.52 40.656 186.608 40.424 186.72 40.216C186.848 39.992 187.008 39.808 187.2 39.664C187.648 39.344 188.328 39.168 189.24 39.136C190.168 39.088 191.312 39.064 192.672 39.064C193.584 39.064 194.536 39.072 195.528 39.088C196.52 39.088 197.488 39.136 198.432 39.232C199.376 39.328 200.272 39.488 201.12 39.712C201.968 39.92 202.712 40.24 203.352 40.672C203.992 41.088 204.496 41.64 204.864 42.328C205.248 43 205.44 43.832 205.44 44.824C205.44 45.48 205.336 46.064 205.128 46.576C204.936 47.088 204.688 47.544 204.384 47.944C204.08 48.328 203.752 48.672 203.4 48.976C203.064 49.264 202.744 49.52 202.44 49.744C202.136 49.952 201.88 50.136 201.672 50.296C201.48 50.44 201.384 50.568 201.384 50.68C201.384 50.744 201.504 50.896 201.744 51.136C201.984 51.36 202.28 51.648 202.632 52C202.984 52.352 203.368 52.76 203.784 53.224C204.216 53.672 204.608 54.152 204.96 54.664C205.312 55.16 205.608 55.688 205.848 56.248C206.088 56.792 206.208 57.336 206.208 57.88ZM193.728 46.144C193.728 46.528 193.744 46.856 193.776 47.128C193.808 47.384 193.872 47.6 193.968 47.776C194.08 47.952 194.24 48.08 194.448 48.16C194.672 48.24 194.968 48.28 195.336 48.28C195.608 48.28 195.928 48.232 196.296 48.136C196.664 48.024 197.016 47.88 197.352 47.704C197.704 47.512 198 47.296 198.24 47.056C198.48 46.816 198.6 46.56 198.6 46.288C198.6 45.696 198.312 45.224 197.736 44.872C197.16 44.52 196.44 44.344 195.576 44.344C194.904 44.344 194.424 44.456 194.136 44.68C193.864 44.904 193.728 45.392 193.728 46.144ZM228.26 57.64C228.1 57.864 227.74 58.056 227.18 58.216C226.62 58.376 225.98 58.496 225.26 58.576C224.556 58.656 223.836 58.688 223.1 58.672C222.38 58.656 221.772 58.584 221.276 58.456C221.1 57.976 220.9 57.496 220.676 57.016C220.452 56.52 220.276 56.048 220.148 55.6C220.084 55.328 219.98 55.12 219.836 54.976C219.708 54.832 219.532 54.728 219.308 54.664C219.1 54.584 218.828 54.536 218.492 54.52C218.172 54.504 217.78 54.496 217.316 54.496C217.092 54.496 216.828 54.496 216.524 54.496C216.22 54.48 215.924 54.48 215.636 54.496C215.348 54.512 215.084 54.544 214.844 54.592C214.604 54.624 214.444 54.688 214.364 54.784C214.284 54.88 214.212 54.976 214.148 55.072C214.084 55.152 214.02 55.256 213.956 55.384C213.892 55.512 213.82 55.672 213.74 55.864C213.676 56.056 213.588 56.312 213.476 56.632C213.38 56.92 213.3 57.176 213.236 57.4C213.172 57.624 213.116 57.824 213.068 58C213.02 58.16 212.972 58.312 212.924 58.456C212.876 58.6 212.812 58.736 212.732 58.864C212.236 58.912 211.684 58.904 211.076 58.84C210.468 58.792 209.868 58.704 209.276 58.576C208.684 58.464 208.132 58.32 207.62 58.144C207.124 57.968 206.732 57.776 206.444 57.568C206.444 57.376 206.468 57.16 206.516 56.92C206.564 56.664 206.612 56.408 206.66 56.152C206.724 55.88 206.788 55.624 206.852 55.384C206.916 55.128 206.972 54.904 207.02 54.712C207.26 53.656 207.548 52.472 207.884 51.16C208.236 49.832 208.636 48.512 209.084 47.2C209.548 45.872 210.052 44.624 210.596 43.456C211.156 42.288 211.772 41.344 212.444 40.624C212.668 40.384 212.964 40.184 213.332 40.024C213.716 39.864 214.148 39.736 214.628 39.64C215.108 39.528 215.612 39.448 216.14 39.4C216.668 39.352 217.196 39.328 217.724 39.328C218.092 39.328 218.516 39.36 218.996 39.424C219.492 39.488 219.98 39.592 220.46 39.736C220.956 39.88 221.42 40.08 221.852 40.336C222.3 40.576 222.652 40.888 222.908 41.272C223.276 41.8 223.636 42.44 223.988 43.192C224.34 43.928 224.676 44.736 224.996 45.616C225.332 46.496 225.652 47.424 225.956 48.4C226.26 49.376 226.54 50.352 226.796 51.328C227.068 52.304 227.308 53.264 227.516 54.208C227.74 55.152 227.94 56.032 228.116 56.848C228.148 56.976 228.18 57.112 228.212 57.256C228.26 57.384 228.276 57.512 228.26 57.64ZM215.516 49.696C215.436 50.096 215.524 50.328 215.78 50.392C216.052 50.472 216.324 50.512 216.596 50.512C216.884 50.496 217.164 50.488 217.436 50.488C217.868 50.488 218.22 50.472 218.492 50.44C218.78 50.392 218.996 50.336 219.14 50.272C219.284 50.192 219.372 50.112 219.404 50.032C219.452 49.936 219.46 49.832 219.428 49.72C219.38 49.512 219.308 49.16 219.212 48.664C219.116 48.152 218.988 47.632 218.828 47.104C218.668 46.576 218.468 46.112 218.228 45.712C218.004 45.312 217.732 45.112 217.412 45.112C217.172 45.112 216.948 45.304 216.74 45.688C216.532 46.056 216.348 46.496 216.188 47.008C216.028 47.52 215.884 48.032 215.756 48.544C215.644 49.04 215.564 49.424 215.516 49.696ZM244.521 51.52C244.665 51.728 244.777 52.112 244.857 52.672C244.937 53.216 244.985 53.824 245.001 54.496C245.033 55.168 245.025 55.848 244.977 56.536C244.929 57.224 244.833 57.808 244.689 58.288C244.385 58.432 244.001 58.584 243.537 58.744C243.073 58.904 242.545 59.048 241.953 59.176C241.377 59.304 240.761 59.408 240.105 59.488C239.449 59.584 238.777 59.632 238.089 59.632C236.633 59.632 235.297 59.448 234.081 59.08C232.865 58.712 231.825 58.12 230.961 57.304C230.097 56.472 229.425 55.392 228.945 54.064C228.465 52.72 228.225 51.088 228.225 49.168C228.225 47.2 228.473 45.568 228.969 44.272C229.465 42.976 230.161 41.944 231.057 41.176C231.969 40.408 233.049 39.872 234.297 39.568C235.561 39.264 236.961 39.112 238.497 39.112C239.745 39.112 240.849 39.176 241.809 39.304C242.785 39.432 243.577 39.6 244.185 39.808C244.281 39.952 244.361 40.2 244.425 40.552C244.505 40.888 244.569 41.272 244.617 41.704C244.665 42.136 244.705 42.6 244.737 43.096C244.769 43.592 244.777 44.072 244.761 44.536C244.761 44.984 244.745 45.392 244.713 45.76C244.681 46.128 244.633 46.416 244.569 46.624C244.153 46.432 243.769 46.208 243.417 45.952C243.065 45.696 242.689 45.456 242.289 45.232C241.905 45.008 241.457 44.824 240.945 44.68C240.433 44.52 239.817 44.44 239.097 44.44C238.569 44.44 238.041 44.536 237.513 44.728C237.001 44.92 236.537 45.208 236.121 45.592C235.721 45.96 235.393 46.424 235.137 46.984C234.897 47.544 234.777 48.192 234.777 48.928C234.777 50.416 235.113 51.512 235.785 52.216C236.473 52.904 237.393 53.248 238.545 53.248C239.089 53.248 239.633 53.176 240.177 53.032C240.721 52.888 241.249 52.72 241.761 52.528C242.289 52.336 242.785 52.144 243.249 51.952C243.713 51.76 244.137 51.616 244.521 51.52ZM259.098 58.648C258.378 58.872 257.642 59.032 256.89 59.128C256.154 59.24 255.442 59.296 254.754 59.296C254.082 59.296 253.45 59.24 252.858 59.128C252.266 59.016 251.754 58.84 251.322 58.6C251.178 58.36 251.098 58.112 251.082 57.856C251.082 57.6 251.082 57.304 251.082 56.968C251.082 56.104 251.114 55.32 251.178 54.616C251.258 53.896 251.346 53.2 251.442 52.528C251.538 51.856 251.618 51.176 251.682 50.488C251.762 49.784 251.802 49.008 251.802 48.16C251.802 47.92 251.794 47.688 251.778 47.464C251.762 47.24 251.698 47.04 251.586 46.864C251.49 46.672 251.33 46.528 251.106 46.432C250.898 46.32 250.594 46.264 250.194 46.264C249.81 46.264 249.458 46.296 249.138 46.36C248.818 46.408 248.506 46.472 248.202 46.552C247.914 46.616 247.61 46.68 247.29 46.744C246.986 46.792 246.642 46.816 246.258 46.816C246.13 46.816 246.034 46.808 245.97 46.792C245.714 46.312 245.506 45.76 245.346 45.136C245.186 44.512 245.082 43.888 245.034 43.264C244.986 42.624 244.986 42.024 245.034 41.464C245.098 40.888 245.218 40.424 245.394 40.072C246.162 39.848 246.914 39.656 247.65 39.496C248.386 39.336 249.138 39.208 249.906 39.112C250.69 39 251.506 38.92 252.354 38.872C253.202 38.824 254.114 38.8 255.09 38.8C256.066 38.8 256.962 38.824 257.778 38.872C258.61 38.92 259.394 39 260.13 39.112C260.882 39.224 261.602 39.36 262.29 39.52C262.994 39.68 263.706 39.88 264.426 40.12C264.698 41.288 264.81 42.44 264.762 43.576C264.73 44.696 264.434 45.888 263.874 47.152C263.346 47.072 262.874 47 262.458 46.936C262.042 46.872 261.658 46.808 261.306 46.744C260.97 46.68 260.658 46.632 260.37 46.6C260.082 46.568 259.802 46.552 259.53 46.552C259.226 46.552 258.994 46.608 258.834 46.72C258.674 46.832 258.562 46.968 258.498 47.128C258.434 47.288 258.394 47.464 258.378 47.656C258.378 47.832 258.378 48 258.378 48.16C258.378 49.088 258.41 49.904 258.474 50.608C258.538 51.312 258.61 51.976 258.69 52.6C258.786 53.224 258.874 53.84 258.954 54.448C259.05 55.056 259.13 55.72 259.194 56.44C259.242 57.08 259.282 57.56 259.314 57.88C259.346 58.2 259.274 58.456 259.098 58.648ZM267.072 44.728C267.296 44.632 267.592 44.552 267.96 44.488C268.328 44.424 268.736 44.376 269.184 44.344C269.632 44.312 270.088 44.288 270.552 44.272C271.032 44.256 271.488 44.264 271.92 44.296C272.368 44.312 272.76 44.352 273.096 44.416C273.448 44.464 273.72 44.528 273.912 44.608C273.976 44.688 274.016 44.776 274.032 44.872C274.24 45.72 274.416 46.688 274.56 47.776C274.72 48.848 274.848 49.96 274.944 51.112C275.056 52.264 275.144 53.416 275.208 54.568C275.288 55.704 275.344 56.76 275.376 57.736C275.376 58.008 275.312 58.24 275.184 58.432C274.784 58.64 274.256 58.808 273.6 58.936C272.96 59.064 272.272 59.144 271.536 59.176C270.816 59.208 270.088 59.192 269.352 59.128C268.616 59.08 267.952 58.976 267.36 58.816C267.232 58.656 267.144 58.504 267.096 58.36C266.968 57.752 266.872 56.712 266.808 55.24C266.744 53.768 266.712 51.952 266.712 49.792C266.712 48.704 266.728 47.792 266.76 47.056C266.808 46.32 266.888 45.624 267 44.968C267 44.872 267.024 44.792 267.072 44.728ZM267.024 43.216C266.8 42.608 266.648 41.896 266.568 41.08C266.488 40.264 266.512 39.504 266.64 38.8C267.072 38.656 267.616 38.544 268.272 38.464C268.944 38.368 269.64 38.312 270.36 38.296C271.08 38.264 271.768 38.272 272.424 38.32C273.096 38.368 273.648 38.472 274.08 38.632C274.128 38.984 274.152 39.368 274.152 39.784C274.152 40.2 274.136 40.616 274.104 41.032C274.072 41.448 274.016 41.856 273.936 42.256C273.872 42.656 273.8 43.016 273.72 43.336C273.256 43.432 272.728 43.504 272.136 43.552C271.544 43.584 270.944 43.6 270.336 43.6C269.728 43.584 269.136 43.544 268.56 43.48C267.984 43.416 267.472 43.328 267.024 43.216ZM276.459 49.168C276.459 46.56 276.899 44.496 277.779 42.976C278.659 41.456 279.851 40.4 281.355 39.808C281.755 39.648 282.195 39.528 282.675 39.448C283.155 39.352 283.643 39.28 284.139 39.232C284.651 39.184 285.155 39.152 285.651 39.136C286.147 39.12 286.611 39.112 287.043 39.112C287.459 39.112 287.899 39.12 288.363 39.136C288.827 39.152 289.299 39.192 289.779 39.256C290.259 39.304 290.723 39.376 291.171 39.472C291.635 39.552 292.051 39.664 292.419 39.808C293.171 40.112 293.843 40.528 294.435 41.056C295.043 41.568 295.555 42.208 295.971 42.976C296.403 43.744 296.731 44.648 296.955 45.688C297.179 46.712 297.291 47.872 297.291 49.168C297.291 51.088 297.051 52.72 296.571 54.064C296.091 55.392 295.419 56.472 294.555 57.304C293.691 58.12 292.651 58.712 291.435 59.08C290.235 59.448 288.899 59.632 287.427 59.632H286.323C284.867 59.632 283.531 59.448 282.315 59.08C281.099 58.712 280.059 58.12 279.195 57.304C278.331 56.472 277.659 55.392 277.179 54.064C276.699 52.72 276.459 51.088 276.459 49.168ZM286.875 44.464C286.379 44.464 285.899 44.568 285.435 44.776C284.971 44.984 284.555 45.28 284.187 45.664C283.835 46.048 283.547 46.52 283.323 47.08C283.115 47.624 283.011 48.24 283.011 48.928C283.011 50.288 283.315 51.352 283.923 52.12C284.547 52.872 285.531 53.248 286.875 53.248C288.235 53.248 289.219 52.872 289.827 52.12C290.451 51.352 290.763 50.288 290.763 48.928C290.763 48.24 290.651 47.624 290.427 47.08C290.219 46.52 289.931 46.048 289.563 45.664C289.211 45.28 288.803 44.984 288.339 44.776C287.875 44.568 287.387 44.464 286.875 44.464ZM316.145 58.168C316.001 58.328 315.737 58.456 315.353 58.552C314.969 58.648 314.537 58.704 314.057 58.72C313.577 58.752 313.081 58.744 312.569 58.696C312.057 58.664 311.601 58.584 311.201 58.456C310.433 57.912 309.761 57.264 309.185 56.512C308.625 55.76 308.121 55.048 307.673 54.376C307.241 53.688 306.857 53.112 306.521 52.648C306.185 52.168 305.881 51.928 305.609 51.928C305.353 51.928 305.193 51.976 305.129 52.072C305.081 52.152 305.057 52.344 305.057 52.648C305.057 52.984 305.081 53.352 305.129 53.752C305.193 54.152 305.257 54.56 305.321 54.976C305.401 55.376 305.465 55.776 305.513 56.176C305.577 56.576 305.609 56.944 305.609 57.28C305.609 57.504 305.593 57.72 305.561 57.928C305.529 58.136 305.441 58.328 305.297 58.504C304.929 58.728 304.465 58.888 303.905 58.984C303.361 59.096 302.793 59.16 302.201 59.176C301.609 59.208 301.041 59.2 300.497 59.152C299.953 59.12 299.497 59.064 299.129 58.984C298.985 58.792 298.897 58.608 298.865 58.432C298.785 58.112 298.713 57.744 298.649 57.328C298.585 56.896 298.529 56.464 298.481 56.032C298.449 55.584 298.417 55.152 298.385 54.736C298.369 54.304 298.361 53.92 298.361 53.584C298.361 52.192 298.385 50.832 298.433 49.504C298.497 48.16 298.665 46.848 298.937 45.568C298.969 45.44 298.985 45.352 298.985 45.304C299.001 45.24 299.009 45.184 299.009 45.136C299.009 44.944 298.961 44.808 298.865 44.728C298.785 44.632 298.681 44.552 298.553 44.488C298.441 44.408 298.321 44.328 298.193 44.248C298.081 44.152 297.985 44.008 297.905 43.816C297.873 43.736 297.841 43.616 297.809 43.456C297.793 43.296 297.777 43.136 297.761 42.976C297.745 42.8 297.729 42.64 297.713 42.496C297.713 42.336 297.713 42.208 297.713 42.112C297.713 41.44 297.753 40.92 297.833 40.552C297.913 40.184 298.065 39.912 298.289 39.736C298.513 39.56 298.817 39.456 299.201 39.424C299.585 39.392 300.073 39.376 300.665 39.376C301.145 39.376 301.625 39.392 302.105 39.424C302.585 39.44 303.065 39.448 303.545 39.448C303.961 39.448 304.393 39.472 304.841 39.52C305.305 39.568 305.713 39.728 306.065 40C306.321 40.192 306.569 40.528 306.809 41.008C307.049 41.488 307.281 42.032 307.505 42.64C307.745 43.248 307.969 43.888 308.177 44.56C308.401 45.216 308.625 45.824 308.849 46.384C309.073 46.928 309.289 47.376 309.497 47.728C309.721 48.08 309.945 48.256 310.169 48.256C310.393 48.256 310.521 48.136 310.553 47.896C310.601 47.656 310.625 47.408 310.625 47.152C310.625 46.16 310.585 45.224 310.505 44.344C310.441 43.464 310.409 42.536 310.409 41.56C310.409 41.272 310.425 40.944 310.457 40.576C310.505 40.208 310.641 39.92 310.865 39.712C311.201 39.568 311.601 39.464 312.065 39.4C312.545 39.336 313.041 39.304 313.553 39.304C314.081 39.304 314.593 39.344 315.089 39.424C315.601 39.504 316.049 39.616 316.433 39.76C316.705 39.984 316.897 40.256 317.009 40.576C317.185 41.024 317.321 41.536 317.417 42.112C317.513 42.688 317.585 43.28 317.633 43.888C317.681 44.48 317.713 45.072 317.729 45.664C317.745 46.256 317.753 46.792 317.753 47.272C317.753 47.704 317.745 48.224 317.729 48.832C317.729 49.424 317.713 50.064 317.681 50.752C317.649 51.424 317.601 52.112 317.537 52.816C317.489 53.52 317.409 54.2 317.297 54.856C317.185 55.496 317.041 56.096 316.865 56.656C316.705 57.2 316.505 57.648 316.265 58C316.233 58.032 316.209 58.056 316.193 58.072C316.193 58.104 316.177 58.136 316.145 58.168ZM327.407 59.512C326.719 59.512 325.967 59.472 325.151 59.392C324.335 59.328 323.543 59.232 322.775 59.104C322.023 58.992 321.335 58.864 320.711 58.72C320.087 58.576 319.623 58.432 319.319 58.288C319.175 57.808 319.079 57.224 319.031 56.536C318.983 55.848 318.967 55.168 318.983 54.496C319.015 53.824 319.071 53.216 319.151 52.672C319.247 52.112 319.367 51.728 319.511 51.52C319.895 51.616 320.367 51.736 320.927 51.88C321.503 52.008 322.111 52.128 322.751 52.24C323.391 52.352 324.039 52.448 324.695 52.528C325.351 52.608 325.951 52.648 326.495 52.648C327.679 52.648 328.271 52.448 328.271 52.048C328.271 51.776 327.999 51.52 327.455 51.28C326.927 51.04 326.271 50.768 325.487 50.464C324.847 50.224 324.167 49.928 323.447 49.576C322.743 49.224 322.087 48.8 321.479 48.304C320.887 47.808 320.391 47.248 319.991 46.624C319.607 45.984 319.415 45.256 319.415 44.44C319.415 43.528 319.575 42.72 319.895 42.016C320.215 41.312 320.815 40.728 321.695 40.264C322.591 39.8 323.823 39.448 325.391 39.208C326.959 38.968 328.983 38.848 331.463 38.848C331.911 38.848 332.375 38.864 332.855 38.896C333.335 38.912 333.791 38.944 334.223 38.992C334.671 39.04 335.071 39.096 335.423 39.16C335.775 39.208 336.039 39.264 336.215 39.328C336.311 39.472 336.391 39.712 336.455 40.048C336.535 40.368 336.599 40.744 336.647 41.176C336.711 41.608 336.751 42.072 336.767 42.568C336.799 43.048 336.815 43.52 336.815 43.984C336.815 44.432 336.799 44.848 336.767 45.232C336.735 45.616 336.679 45.92 336.599 46.144C336.007 45.872 335.343 45.672 334.607 45.544C333.887 45.4 333.039 45.328 332.063 45.328C331.007 45.328 330.199 45.4 329.639 45.544C329.095 45.688 328.823 45.896 328.823 46.168C328.823 46.44 329.087 46.72 329.615 47.008C330.159 47.296 330.815 47.608 331.583 47.944C332.175 48.2 332.791 48.512 333.431 48.88C334.071 49.248 334.655 49.672 335.183 50.152C335.727 50.616 336.167 51.144 336.503 51.736C336.855 52.312 337.031 52.944 337.031 53.632C337.031 57.552 333.823 59.512 327.407 59.512Z" fill="white"/>
</svg>
