<svg width="84" height="54" viewBox="0 0 84 54" fill="none" xmlns="http://www.w3.org/2000/svg">
<path fill-rule="evenodd" clip-rule="evenodd" d="M24.4032 12.1479C23.996 11.8604 23.5301 11.6988 23.0555 11.5768C21.2959 11.1229 19.5054 10.8131 17.7275 10.4405C17.0989 10.3089 17.1066 10.3224 17.121 9.67783C17.1345 9.10291 17.1701 8.51831 16.9843 7.96274C16.3933 6.18862 15.6348 4.48999 14.6856 2.87847C14.3593 2.32485 13.9049 1.95705 13.2687 1.84575C13.0386 1.80606 12.8037 1.79929 12.5717 1.77703C11.8546 1.71024 11.124 1.76057 10.428 1.52247C9.78689 1.20598 9.12942 0.932068 8.43345 0.763657C8.35452 0.723974 8.27462 0.683323 8.19569 0.64364C7.8607 0.4791 7.53437 0.301978 7.29757 0H7.07039C6.81434 0.201319 6.55828 0.40167 6.30223 0.602989C5.96339 0.733653 5.716 0.938843 5.69578 1.33761C5.69289 1.38794 5.66979 1.4402 5.64573 1.48763C5.3348 2.08965 5.11436 2.74297 4.63883 3.25207C4.57915 3.31692 4.53583 3.40306 4.50695 3.48727C4.46749 3.59954 4.46749 3.72634 4.58108 3.79312C4.78419 3.91314 4.82173 4.11446 4.85157 4.31481C4.89489 4.60807 4.9382 4.87811 5.19907 5.08717C5.38678 5.23623 5.34154 5.424 5.14228 5.57789C5.02965 5.66597 4.91029 5.7463 4.80055 5.83922C4.48578 6.10635 4.11806 6.30573 3.82831 6.60481C3.76959 6.59803 3.72916 6.63094 3.68777 6.66482C3.12368 7.13617 2.60291 7.65399 2.18032 8.25601C1.73559 8.88804 1.21771 9.43779 0.561203 9.8472C0.386008 9.95657 0.229102 10.1163 0 10.1172V10.2547C0.0943361 10.2227 0.188672 10.1976 0.288784 10.2082C0.365793 10.216 0.473606 10.1666 0.506334 10.274C0.539063 10.3844 0.413924 10.3863 0.36098 10.4395C0.293597 10.5063 0.108775 10.4918 0.164607 10.6331C0.219476 10.7735 0.378307 10.6951 0.491895 10.698C0.532325 10.6989 0.576605 10.668 0.614147 10.6438C0.822071 10.5063 1.02422 10.3631 1.21289 10.1985C1.57195 9.88592 1.93293 9.56942 2.41135 9.45037C2.69532 9.37875 2.80024 9.47457 2.74056 9.75816C2.69435 9.98368 2.75307 10.1792 2.87051 10.3621C2.92346 10.4444 2.99276 10.5509 3.09095 10.5363C3.18529 10.5228 3.18432 10.3921 3.20261 10.3099C3.33064 9.74267 3.46348 9.17453 3.56552 8.60154C3.61654 8.31699 3.73205 8.10599 3.98522 7.97242C4.4415 7.76336 4.90451 7.56882 5.35213 7.34233C5.71407 7.16037 6.08371 6.98712 6.39656 6.71999C6.7046 6.54867 6.71326 6.54964 6.97991 6.80129C7.10601 6.92034 7.23404 7.03842 7.35918 7.1594C7.43041 7.22909 7.49394 7.27749 7.52186 7.1294C7.55555 6.94066 7.63641 7.01616 7.71149 7.09649C7.88188 7.28136 7.88573 7.49332 7.71245 7.76433C7.34185 8.34118 7.02322 8.94998 6.88365 9.62072C6.78257 10.1076 6.38982 10.5489 6.65166 11.1093C6.72096 11.2555 6.80567 11.3058 6.92311 11.3329C7.07328 11.3677 7.05788 11.2197 7.08291 11.1393C7.12045 11.0251 7.13681 10.9041 7.15992 10.7851C7.20131 10.578 7.23115 10.366 7.33896 10.1782C7.544 9.81817 7.6778 9.81236 7.88188 10.156C7.88958 10.1685 7.89439 10.184 7.90305 10.1956C7.9483 10.2498 7.956 10.365 8.05033 10.3389C8.13697 10.3147 8.11675 10.214 8.11579 10.1405C8.11194 9.76881 8.08595 9.39908 8.02915 9.03128C7.98391 8.73802 7.99835 8.46798 8.29772 8.30053C8.36222 8.26375 8.41228 8.20278 8.43249 8.12438C8.58362 8.06921 8.80983 8.2202 8.86182 8.0034C9.08899 8.21052 9.32676 8.42926 9.56837 8.64607C9.60399 8.67801 9.66271 8.76124 9.68196 8.72543C9.83983 8.44765 9.88989 8.77189 10.0073 8.77092C10.0506 8.47185 10.2326 8.6993 10.3664 8.69543C10.4126 8.4341 10.3028 8.17955 10.35 7.88435C10.5551 8.21536 10.7399 8.51153 10.9257 8.81351C10.9796 8.76415 10.9796 8.73318 10.9651 8.70607C10.6118 8.04211 10.4164 7.31426 10.1334 6.62223C10.015 6.3338 10.0112 6.08022 10.2316 5.84406C10.3134 5.75598 10.3943 5.665 10.4752 5.57595C10.5897 5.53627 10.6802 5.60112 10.7707 5.65242C11.4022 6.0115 12.0163 6.39768 12.5939 6.8371C13.2109 7.30846 13.4285 7.94823 13.2456 8.69349C13.0299 9.5762 12.7527 10.4425 12.7132 11.36C12.6795 12.143 12.8008 12.8815 13.3139 13.4951C13.6277 13.8716 13.7326 14.2772 13.6999 14.7573C13.6633 15.2954 13.5372 15.82 13.5016 16.3572C13.4458 17.1886 13.441 18.0238 13.3264 18.8514C13.1993 19.7786 12.9346 20.6526 12.3888 21.4298C12.0394 21.9273 11.7728 22.4713 11.5542 23.0394C11.1143 24.1883 10.8602 25.3913 10.5127 26.5673C10.4116 26.907 10.35 27.2623 10.144 27.5613C9.96882 27.7239 9.76475 27.8265 9.53276 27.8914C9.23916 27.9736 9.12076 28.1237 9.11209 28.4102C9.09477 29.0364 8.97252 29.6432 8.80502 30.2433C8.71261 30.5734 8.63753 30.9044 8.7001 31.2509C8.78481 31.7106 8.9061 32.153 9.25841 32.4917C9.38933 32.6175 9.51254 32.633 9.60977 32.4646C9.85812 32.0329 10.1305 31.6109 10.2807 31.1289C10.5175 30.5879 10.7033 30.0256 10.9776 29.501C12.5255 26.5499 14.0715 23.5979 15.6136 20.6439C15.7503 20.3797 15.937 20.1793 16.1767 20.007C18.126 18.6104 20.185 17.3821 22.193 16.0755C23.0344 15.5277 23.919 15.0428 24.665 14.3546C24.8653 14.1698 25.0289 13.9665 25.0655 13.6887C25.1502 13.0431 24.9336 12.5234 24.4032 12.1479ZM20.0012 14.9992C19.2648 15.5906 18.5284 16.1829 17.7689 16.7433C17.43 16.9931 17.0354 17.0908 16.6426 17.1924C16.4838 17.2341 16.4299 17.1257 16.4616 16.9931C16.6417 16.2575 16.8149 15.5209 17.02 14.7921C17.1278 14.4108 17.4502 14.2433 17.8209 14.2327C18.7787 14.2075 19.7365 14.2298 20.6923 14.284C20.7116 14.2859 20.7308 14.3024 20.7809 14.3266C20.5133 14.5588 20.264 14.7873 20.0012 14.9992Z" fill="white"/>
<path fill-rule="evenodd" clip-rule="evenodd" d="M28.8347 41.381C28.7703 41.6414 28.6538 41.8785 28.5469 42.1215C28.5277 42.166 28.518 42.2347 28.4468 42.226C28.3611 42.2163 28.3727 42.1428 28.366 42.0857C28.3236 41.6714 28.2851 41.2562 28.2389 40.8419C28.1917 40.4199 28.0858 40.0183 27.7614 39.7163C27.3831 39.3659 26.9249 39.3591 26.46 39.454C25.6312 39.6234 24.992 40.118 24.4452 40.7326C23.0485 42.3025 22.2668 44.1782 21.8683 46.2185C21.7066 47.046 21.8924 47.8794 22.0551 48.6982C22.3891 50.392 23.1322 51.8922 24.1844 53.2472C24.2643 53.3498 24.3567 53.4524 24.3904 53.5918C24.3018 53.6228 24.2671 53.5589 24.2306 53.5221C22.9926 52.3045 21.824 51.024 20.8393 49.5867C20.0432 48.4243 19.6293 47.1225 19.4878 45.7229C19.4358 45.21 19.3443 44.7028 19.2693 44.1927C19.2596 44.1288 19.2673 44.0321 19.172 44.0475C19.0979 44.0601 19.1383 44.1501 19.1316 44.2043C19.0584 44.7705 19.0421 45.3464 19.095 45.9088C19.1874 46.9105 19.2731 47.9142 19.4252 48.9102C19.5157 49.5093 19.5677 50.1152 19.7342 50.7007C19.9354 51.4141 20.2973 52.0567 20.6044 52.7236C20.665 52.8533 20.7151 52.9888 20.7603 53.1243C20.7748 53.1679 20.8143 53.2317 20.7498 53.2676C20.6901 53.3014 20.6554 53.2424 20.6169 53.2104C20.1876 52.8523 19.8545 52.411 19.5542 51.9454C19.2336 51.4489 18.9526 50.9292 18.7639 50.3649C18.6089 50.0445 18.4953 49.7067 18.3981 49.3641C18.1911 48.8453 18.0333 48.311 17.9052 47.7661C17.6925 47.1264 17.576 46.4643 17.4518 45.8042C17.4278 45.6794 17.4105 45.5536 17.3796 45.3571C17.2266 45.7084 17.1987 46.021 17.1813 46.3288C17.1323 47.2019 17.2824 48.0575 17.422 48.914C17.5491 49.7009 17.6915 50.481 17.9986 51.2195C18.0795 51.415 18.1796 51.6028 18.2691 51.7954C18.2903 51.8399 18.3442 51.8922 18.2951 51.9377C18.2354 51.9929 18.1815 51.9309 18.1391 51.8951C17.8253 51.628 17.5779 51.3037 17.3729 50.9475C17.0273 50.3484 16.7703 49.7106 16.5884 49.0437C16.3525 48.4833 16.238 47.8891 16.0926 47.3035C15.8732 46.4208 15.7692 45.5197 15.6412 44.6215C15.5844 44.2169 15.5064 43.8162 15.4313 43.4155C15.3697 43.0835 15.4833 42.9258 15.8125 42.9432C16.1051 42.9596 16.3959 43.008 16.6866 43.0429C17.1217 43.1 17.5597 43.0748 17.9967 43.0739C18.143 43.0351 18.2903 42.9974 18.4366 42.9587C18.5454 42.9045 18.6532 42.8512 18.761 42.7961C19.2635 42.4283 19.5619 41.9269 19.738 41.3336C19.9421 40.6455 20.3869 40.1983 21.078 39.9718C22.2187 39.5992 23.3864 39.3069 24.5126 38.9052C26.5302 38.1841 27.8731 36.7633 28.4381 34.6543C28.4872 34.4723 28.4921 34.2797 28.5219 34.0929C28.5334 34.0174 28.5007 33.9245 28.6008 33.8635C28.7626 34.0716 28.7385 34.3233 28.7664 34.5556C28.9156 35.7664 29.0956 36.9753 29.136 38.1977C29.1678 39.2701 29.0908 40.3338 28.8347 41.381Z" fill="white"/>
<path fill-rule="evenodd" clip-rule="evenodd" d="M83.1978 52.0412C83.1894 52.106 83.202 52.1786 83.145 52.2522C82.9898 51.8341 82.9252 51.3966 82.812 50.9785C82.4597 49.6815 82.3213 48.3478 82.2425 46.9947C82.1686 45.7238 81.9841 44.4666 81.7878 43.2122C81.3131 40.1905 80.601 37.2462 79.6071 34.3948C78.2995 30.6452 76.5616 27.1851 74.3489 24.0482C71.4837 19.985 67.9299 17.0407 63.6598 15.2444C61.3247 14.2629 58.9309 13.5544 56.4759 13.1189C56.0758 13.0473 55.6749 12.9737 55.274 12.9001C54.6558 12.8227 54.0368 12.7463 53.4178 12.6698C52.928 12.6379 52.4373 12.603 51.9475 12.5749C51.3452 12.5411 50.7439 12.512 50.1408 12.4811C49.3943 12.4849 48.647 12.484 47.9005 12.4946C47.4358 12.5014 46.972 12.5246 46.5073 12.5401C46.2867 12.632 46.0527 12.5943 45.8279 12.6098C45.12 12.6591 44.4146 12.7288 43.7117 12.8169C42.9308 12.9147 42.155 13.0618 41.3775 13.1895C41.1527 13.2263 40.9287 13.2737 40.683 13.2699C40.9153 13.055 41.1477 12.8411 41.3791 12.6253C41.7474 12.2826 42.1231 11.9526 42.4788 11.5945C43.0147 11.0534 43.4081 10.3788 43.7537 9.67033C43.9516 9.26576 44.2091 9.09251 44.6159 9.1138C45.2458 9.14768 45.8782 9.12832 46.5098 9.13219C47.2236 9.11574 47.9374 9.10122 48.652 9.15252C49.0504 9.18155 49.4496 9.19317 49.8497 9.21059C49.9487 9.21446 50.0468 9.2193 50.1408 9.25608C50.7036 9.26286 51.2622 9.35384 51.8225 9.40707C52.2914 9.45159 52.7594 9.51741 53.2274 9.57548C53.292 9.58419 53.3549 9.60452 53.4186 9.62C54.0553 9.68679 54.6868 9.79616 55.3142 9.94231C56.3409 10.1214 57.3532 10.3875 58.3589 10.6789C60.8257 11.3932 63.2195 12.3475 65.5001 13.658C68.0306 15.1137 70.338 16.9343 72.3644 19.2223C73.4875 20.4912 74.4429 21.9188 75.4083 23.3416C76.8878 25.5261 78.1737 27.8481 79.2347 30.3365C80.7268 33.8383 81.8113 37.4998 82.4924 41.3219C82.8271 43.1967 83.0661 45.086 83.1835 46.9927C83.2464 48.0226 83.2355 49.0562 83.2456 50.088C83.2523 50.7404 83.2842 51.3927 83.1978 52.0412Z" fill="white"/>
<path fill-rule="evenodd" clip-rule="evenodd" d="M30.8482 32.8781C30.7876 34.2428 30.6355 35.5978 30.2774 36.9209C30.2023 37.1987 30.1099 37.4717 29.9857 37.733C29.9463 37.8162 29.928 37.9227 29.8076 37.9662C29.7557 37.8714 29.7807 37.7727 29.7797 37.6807C29.7614 36.4505 29.7037 35.2262 29.3725 34.0309C29.2156 33.4656 28.9731 32.9371 28.7266 32.4077C28.6525 32.3109 28.587 32.2083 28.5514 32.0903C28.4609 31.978 28.381 31.858 28.3262 31.7234C28.2059 31.6073 28.1337 31.4573 28.0547 31.313C27.7207 30.9743 27.5821 30.5939 27.6832 30.1022C27.8112 29.475 27.8776 28.8362 27.9729 28.2032C27.9816 28.1442 28.0037 28.0861 28.0191 28.0281C28.1096 27.4512 28.2001 26.8744 28.2906 26.2975C28.3666 25.8116 28.4427 25.3257 28.5187 24.8399C28.587 24.3879 28.6275 23.932 28.744 23.4819C28.8383 23.5158 28.8585 23.5787 28.8768 23.6445C29.7701 24.985 30.2312 26.492 30.5412 28.0532C30.8579 29.6464 30.9195 31.2598 30.8482 32.8781Z" fill="white"/>
<path fill-rule="evenodd" clip-rule="evenodd" d="M45.629 5.39599C45.5548 6.6494 45.0793 7.7702 44.4738 8.84552C44.1822 9.42527 43.8173 9.95664 43.3919 10.4445C42.7392 11.2681 41.9633 11.9505 41.0739 12.5051C40.7562 12.6861 40.4597 12.9019 40.1334 13.0703C39.5452 13.3723 38.9273 13.5388 38.265 13.5368C38.1302 13.5359 37.9945 13.5368 37.8202 13.4623C38.883 12.5931 39.9332 11.7511 41.0219 10.9555C41.611 10.489 42.1424 9.96826 42.5553 9.33139C42.8403 8.88907 43.0443 8.4119 43.2263 7.92216C43.3919 7.3424 43.4535 6.74135 43.5844 6.15481C43.6036 6.06673 43.6498 5.95833 43.5844 5.89542C43.5093 5.82186 43.4217 5.92058 43.3389 5.94188C43.2609 5.96123 43.1955 6.02415 43.1079 6.01156C42.6487 6.26902 42.153 6.44227 41.6736 6.65327C41.354 6.79458 41.0286 6.92331 40.7052 7.05687C40.248 7.29884 39.7455 7.36563 39.244 7.42467C38.4363 7.51952 37.6672 7.76052 36.899 8.00927C36.7566 8.05476 36.6584 8.15735 36.565 8.2706C35.5206 9.53077 34.532 10.8345 33.5049 12.1082C32.3141 13.5872 30.9886 14.9344 29.5023 16.1182C29.4263 16.1782 29.355 16.2469 29.2405 16.2662C29.2203 16.1627 29.2828 16.093 29.329 16.0214C30.9029 13.5475 32.4758 11.0745 34.0526 8.60258C34.1787 8.40513 34.3308 8.22414 34.4627 8.03056C34.5647 7.87957 34.6523 7.72181 34.686 7.53791C34.7553 7.16141 34.9844 6.94363 35.3473 6.84394C36.4014 6.55261 37.466 6.30483 38.5085 5.97091C39.2131 5.74636 39.9024 5.47826 40.5983 5.23048C41.3983 4.86656 42.1982 4.50264 42.9981 4.13872C43.4419 3.89481 43.902 3.68768 44.3766 3.51153C44.5479 3.43604 44.7154 3.35086 44.8916 3.28505C45.1525 3.18826 45.2304 3.22891 45.3315 3.50476C45.5529 4.11452 45.6665 4.74558 45.629 5.39599Z" fill="white"/>
<path fill-rule="evenodd" clip-rule="evenodd" d="M11.0803 21.9943C11.0004 22.6921 10.7309 23.3387 10.5393 24.0055C10.4498 24.3162 10.342 24.6231 10.2428 24.9318C10.1177 25.4351 10.0099 25.9432 9.83661 26.433C9.76923 26.6246 9.68163 26.8085 9.52088 26.944C9.41884 27.1018 9.26578 27.2015 9.10984 27.2934C8.49569 27.6545 8.31183 28.0629 8.45623 28.7772C8.54286 29.2089 8.50339 29.6212 8.28873 30.0112C8.22039 30.1351 8.14049 30.2551 7.98551 30.2513C7.81898 30.2474 7.77373 30.1003 7.7256 29.9725C7.5995 29.6386 7.43874 29.2844 7.46185 28.9466C7.48687 28.5885 7.54656 28.2168 7.62934 27.8558C7.83823 26.9469 8.24734 26.1165 8.58714 25.2589C8.73153 24.8931 8.91154 24.5408 8.99433 24.1517C9.02128 24.0268 9.06941 23.8865 8.95967 23.7858C8.8509 23.6861 8.71709 23.7432 8.5958 23.7839C7.99513 23.9852 7.49265 24.3704 6.94685 24.6773C6.76973 24.7769 6.59742 24.8873 6.42607 24.9976C6.08435 25.2173 6.01215 25.4022 6.09205 25.8068C6.18157 26.2675 6.26147 26.7301 6.3558 27.1908C6.39816 27.3989 6.41741 27.6999 6.28746 27.7599C6.13729 27.8296 5.94862 27.6041 5.81578 27.4493C5.3027 26.8472 4.91862 26.1765 4.74439 25.3954C4.66449 25.0392 4.75883 24.7189 4.96194 24.4275C5.11403 24.2078 5.30367 24.021 5.52314 23.87C6.73411 23.0415 7.98454 22.2808 9.34183 21.7097C9.38322 21.6923 9.42654 21.6788 9.46889 21.6642C9.68933 21.5646 9.90785 21.461 10.1495 21.4203C10.2236 21.3555 10.3208 21.3681 10.4084 21.3536C10.882 21.2703 11.1361 21.5181 11.0803 21.9943Z" fill="white"/>
<path fill-rule="evenodd" clip-rule="evenodd" d="M83.2568 36.5997V37.0091C83.1369 37.013 83.1409 36.8853 83.1116 36.8059C82.5486 35.2534 81.9929 33.6971 81.4283 32.1455C80.5087 29.6203 79.3908 27.2229 78.0951 24.9436C78.06 24.8806 78.0298 24.8139 77.998 24.749C77.5345 23.9979 77.0874 23.2333 76.5978 22.5055C76.0209 21.6479 75.4342 20.8001 74.7896 20.0112C74.7586 19.9745 74.7399 19.9241 74.7154 19.8806C74.2666 19.3502 73.826 18.8101 73.3666 18.2933C71.6596 16.3749 69.7927 14.7073 67.7708 13.2854C67.7275 13.2545 67.6884 13.2158 67.6468 13.1819C66.9809 12.7657 66.3314 12.3137 65.6542 11.9217C63.079 10.4302 60.3815 9.37811 57.5762 8.70253C55.7305 8.25828 53.8669 7.98437 51.9894 7.85274C50.9295 7.77918 49.8671 7.73853 48.8055 7.76272C47.8158 7.78402 46.8244 7.8237 45.8363 7.91565C45.5947 7.93888 45.589 7.9292 45.6576 7.66497C45.7473 7.3175 45.8493 6.9739 45.9276 6.62256C45.9815 6.37866 46.1047 6.28961 46.303 6.29929C47.0447 6.3351 47.7864 6.3593 48.5265 6.40479C49.1645 6.44447 49.8018 6.50545 50.4399 6.56158C51.4288 6.64773 52.4112 6.80065 53.3953 6.94293C54.5874 7.11715 55.7779 7.30685 56.9602 7.56721C59.4309 8.11116 61.8347 8.92611 64.1651 10.0392C65.0847 10.4786 65.9944 10.9529 66.8585 11.5316C67.1539 11.7301 67.4738 11.8762 67.7496 12.1153C68.2644 12.4221 68.7467 12.7947 69.2289 13.1664C71.2492 14.7256 73.0753 16.5617 74.7309 18.6398C74.7611 18.6775 74.7839 18.724 74.81 18.7665C75.3388 19.3811 75.808 20.0606 76.2771 20.7391C76.9226 21.676 77.5353 22.6448 78.113 23.6427C78.131 23.6737 78.144 23.7076 78.1604 23.7405C78.6524 24.537 79.0922 25.3743 79.5173 26.2212C80.8106 28.7996 81.904 31.4913 82.7289 34.331C82.9215 34.9911 83.0398 35.6754 83.1809 36.3529C83.1989 36.4362 83.1948 36.5329 83.2568 36.5997Z" fill="white"/>
<path fill-rule="evenodd" clip-rule="evenodd" d="M27.2448 34.9988C27.1216 35.2049 27.0138 35.4237 26.8453 35.6008C26.5816 36.016 26.2553 36.3751 25.8818 36.6916C25.4804 37.0749 25.0308 37.3836 24.5226 37.6033C24.0374 37.8753 23.5022 38.005 22.9718 38.1492C21.9245 38.4328 20.9272 38.8354 19.9858 39.3765C19.5141 39.6475 19.2109 40.0414 19.079 40.5708C19.028 40.777 18.9567 40.9764 18.8634 41.168C18.6121 41.6839 18.2011 41.9723 17.6399 42.074C16.7658 42.2317 15.9255 42.042 15.0822 41.8572C14.6567 41.7633 14.3006 41.5697 13.98 41.2697C13.516 40.8351 13.4169 40.3231 13.568 39.7346C13.6999 39.2187 14.0108 38.8277 14.4382 38.5257C14.6019 38.4105 14.7472 38.456 14.8897 38.577C15.2776 38.9061 15.7272 39.09 16.2354 39.0977C16.9218 39.1084 17.4993 38.8451 17.971 38.3496C18.2328 38.0747 18.4783 37.7863 18.6997 37.4794C19.0568 36.9839 19.5449 36.6664 20.0888 36.4167C20.7337 36.1215 21.371 35.8079 22.0159 35.5137C22.9564 35.083 23.7862 34.509 24.4282 33.6824C24.4542 33.637 24.4773 33.5886 24.5072 33.5469C24.718 33.2508 24.7103 32.9594 24.4937 32.67C24.4532 32.6158 24.4176 32.5578 24.3801 32.5016C23.9354 31.9954 23.4608 31.5221 22.9208 31.1156C21.7098 30.2049 20.3698 29.5341 18.9654 28.9863C18.6487 28.8634 18.3387 28.7269 18.0702 28.5111C17.6004 28.1326 17.4406 27.5819 17.6755 27.0244C17.8228 26.6769 18.0037 26.343 18.1809 26.0091C18.2906 25.802 18.4542 25.7013 18.7141 25.7081C19.6902 25.7323 20.5807 26.0459 21.4249 26.4988C22.2758 26.9557 23.094 27.4658 23.8275 28.1055C24.0595 28.3068 24.3098 28.4878 24.5245 28.7095C25.0327 29.1605 25.4909 29.6551 25.8866 30.2087C26.2389 30.6317 26.5421 31.0876 26.7934 31.5783C27.1399 32.1474 27.4614 32.733 27.5856 33.394C27.6934 33.9651 27.5413 34.5022 27.2448 34.9988Z" fill="white"/>
<path fill-rule="evenodd" clip-rule="evenodd" d="M37.4432 0.891013C36.9966 1.02845 36.5393 1.12621 36.1061 1.30817C35.4236 1.50174 34.7643 1.7563 34.1251 2.06215C33.459 2.38155 33.2838 3.25845 33.7631 3.81401C33.9691 4.05307 33.9711 4.1034 33.7853 4.36183C33.3001 5.03644 32.814 5.71105 32.3288 6.3847C31.9188 6.94703 31.5068 7.50744 31.0986 8.07074C29.7317 9.9552 28.3648 11.8397 26.9998 13.7251C26.8843 13.8848 26.7515 14.0174 26.5474 14.03C26.403 14.0387 26.2894 14.1006 26.1749 14.1761C22.928 16.3084 19.682 18.4396 16.4342 20.5699C16.2465 20.6929 16.1011 20.8506 15.9971 21.051C14.765 23.4049 13.5309 25.7578 12.2997 28.1126C12.268 28.1736 12.2025 28.2355 12.2545 28.3256C12.2815 28.3101 12.3094 28.2985 12.3315 28.281C13.2277 27.5348 14.1547 26.8302 15.0721 26.113C15.7161 25.6097 16.412 25.2148 17.1975 24.9796C18.1919 24.6815 19.1949 24.725 20.2009 24.8983C21.0008 25.0357 21.7863 25.2264 22.4803 25.6687C23.0791 26.0501 23.6769 26.4372 24.2419 26.866C25.2719 27.648 26.067 28.6488 26.7438 29.7474C26.7919 29.8248 26.8188 29.9235 26.917 29.9777C26.9353 29.9138 26.9565 29.8645 26.9642 29.8122C27.1644 28.463 27.3637 27.1118 27.562 25.7626C27.6688 25.0406 27.7853 24.3195 27.8748 23.5946C27.9172 23.2481 27.9923 22.9064 28.026 22.5609C28.0702 22.1118 28.1665 21.6714 28.2127 21.2223C28.257 20.7829 28.3773 20.3512 28.4303 19.9118C28.4842 19.4559 28.5602 19.0029 28.6199 18.549C28.6979 17.9605 28.6382 17.4176 28.3205 16.923C28.1704 16.6887 28.1675 16.4806 28.3013 16.2571C28.4726 15.9696 28.6546 15.6899 28.824 15.4024C29.4468 14.3465 30.0677 13.2886 30.6876 12.2297C31.294 11.1941 31.8966 10.1556 32.5012 9.11896C32.5406 9.06475 32.583 9.01249 32.6186 8.95442C33.3434 7.73102 34.0625 6.50278 34.7931 5.28228C35.2311 4.5496 35.6499 3.80239 36.2255 3.16263C36.4055 3.01357 36.5701 2.83935 36.7684 2.72031C37.0553 2.54705 37.2045 2.29153 37.3171 1.99536C37.4394 1.67403 37.5 1.33914 37.5558 1.00232C37.5712 0.89682 37.5587 0.855201 37.4432 0.891013ZM25.9275 21.4536C25.9101 21.5088 25.8986 21.5717 25.8052 21.5978C25.8168 21.4788 25.8274 21.3713 25.836 21.262C25.9053 20.3367 25.8206 19.4133 25.7966 18.489C25.7917 18.3216 25.6974 18.2586 25.5415 18.2857C25.3557 18.3186 25.1786 18.3748 25.0101 18.4687C23.0184 19.5846 21.0624 20.7567 19.2017 22.0856C19.117 22.1456 19.0342 22.2202 18.9254 22.2337C18.7704 22.255 18.4836 22.0982 18.4354 21.9608C18.3671 21.7653 18.4855 21.6336 18.6232 21.5388C20.454 20.2931 22.2955 19.062 24.3478 18.2006C24.6876 18.0573 25.0447 17.9547 25.398 17.8492C25.9178 17.6934 26.1758 17.8637 26.249 18.4C26.3886 19.4453 26.2365 20.4577 25.9275 21.4536Z" fill="white"/>
<path fill-rule="evenodd" clip-rule="evenodd" d="M19.2124 29.9428C19.1719 30.0386 19.066 30.0202 18.9746 30.0028C18.6444 29.9428 18.3075 29.9167 17.9831 29.8218C17.3805 29.7628 16.8001 29.5963 16.21 29.4705C15.5304 29.3272 15.0231 29.5489 14.6775 30.148C14.4166 30.6 14.1692 31.0607 13.9113 31.5147C13.8805 31.5698 13.8573 31.6647 13.7852 31.6569C13.7053 31.6492 13.6831 31.5514 13.6571 31.4837C13.5252 31.1478 13.507 30.7878 13.4713 30.4355C13.4328 30.0541 13.3096 29.7473 12.9814 29.5121C12.4789 29.1511 12.4856 28.7562 12.965 28.3652C13.3895 28.0196 13.8756 27.7709 14.3396 27.4873C15.204 26.9598 16.0752 26.4449 16.9454 25.929C17.1784 25.7906 17.4142 25.6561 17.7174 25.659C17.6481 25.9387 17.5018 26.1681 17.394 26.413C17.3054 26.6143 17.2053 26.8098 17.1196 27.0121C16.9002 27.5309 17.0032 27.9925 17.393 28.3865C17.6 28.5955 17.8252 28.7862 18.0428 28.9846C18.3913 29.2314 18.7416 29.4773 19.0901 29.725C19.1662 29.7792 19.2518 29.847 19.2124 29.9428Z" fill="white"/>
<path fill-rule="evenodd" clip-rule="evenodd" d="M29.5685 9.20911C29.3606 9.47528 29.1488 9.73951 28.939 10.0047C28.8976 10.057 28.8649 10.1209 28.7878 10.1286C28.7917 10.2051 28.7388 10.2544 28.6974 10.3057C28.0659 11.0897 27.4325 11.8708 26.801 12.6548C26.6566 12.8338 26.4795 12.9751 26.3014 13.1145C26.1763 13.2123 26.029 13.2655 25.8788 13.1832C25.7412 13.1077 25.6911 12.9674 25.7017 12.8145C25.7412 12.2608 25.4534 11.9172 24.9923 11.682C24.1558 11.2552 23.2528 11.0529 22.3374 10.8932C22.2045 10.869 22.0717 10.8429 21.9379 10.8158C21.9177 10.8119 21.9003 10.7964 21.8638 10.7771C24.1134 9.93018 26.3881 9.25073 28.7811 9.0436C29.0766 9.01166 29.3722 8.96714 29.6725 8.9894C29.6869 9.09296 29.6167 9.14716 29.5685 9.20911Z" fill="white"/>
<path fill-rule="evenodd" clip-rule="evenodd" d="M13.3825 36.3293C13.2872 36.3283 13.1842 36.3486 13.0995 36.278C12.9686 36.2606 12.8482 36.2102 12.7375 36.1386C12.1571 35.9112 11.6748 35.5385 11.2541 35.0875C10.7055 34.4981 10.1895 33.8825 9.99023 33.0704C9.90552 32.723 9.94114 32.4084 10.2347 32.1635C10.331 32.0832 10.383 32.0706 10.4388 32.2177C10.5129 32.4152 10.5023 32.6194 10.5341 32.8207C10.6506 33.5399 11.0472 34.0886 11.5853 34.5474C11.798 34.7294 12.0233 34.8949 12.2466 35.0633C12.3169 35.1156 12.4016 35.1785 12.494 35.1185C12.5739 35.0662 12.5652 34.9714 12.5585 34.8891C12.4921 34.1119 12.4035 33.3347 12.3583 32.5565C12.314 31.8006 12.1032 31.0824 11.9511 30.3488C11.8779 29.9974 11.9212 29.6383 12.0021 29.288C12.0262 29.1834 12.0743 29.0576 12.1811 29.0557C12.2803 29.0547 12.3669 29.1544 12.3987 29.2638C12.5662 29.8358 12.7895 30.3952 12.854 30.9953C12.9416 31.4434 12.9358 31.8983 12.9204 32.3494C12.8925 33.1392 12.9368 33.9183 13.1611 34.68C13.3132 35.1378 13.5076 35.583 13.6097 36.0563C13.6693 36.3283 13.6597 36.3341 13.3825 36.3293Z" fill="white"/>
<path fill-rule="evenodd" clip-rule="evenodd" d="M23.9208 33.2923C23.8534 33.4094 23.7754 33.5168 23.6696 33.603C23.1902 34.1537 22.577 34.5312 21.9667 34.9058C20.9184 35.5494 19.7893 36.0111 18.611 36.3527C18.4734 36.3924 18.3338 36.4282 18.1884 36.4205C18.072 36.4147 17.9516 36.3953 17.9073 36.2714C17.865 36.1504 17.9304 36.0507 18.0219 35.9724C18.1952 35.8252 18.379 35.6926 18.585 35.5949C19.9288 34.958 20.9675 33.9601 21.8675 32.7977C21.9792 32.6545 22.0832 32.5025 22.2102 32.3747C22.6453 31.9353 23.3683 32.0195 23.6657 32.5364C24.0199 32.7048 24.1085 32.9652 23.9208 33.2923Z" fill="white"/>
<path fill-rule="evenodd" clip-rule="evenodd" d="M17.9502 37.712C17.853 37.7324 17.8145 37.6646 17.7673 37.6114C16.7036 36.9706 15.972 36.0376 15.4512 34.852C15.2982 35.2585 15.2664 35.6001 15.2568 35.9476C15.2366 36.6493 15.3742 37.3375 15.4272 38.0314C15.431 38.0769 15.4358 38.1215 15.4397 38.1669C15.4435 38.2144 15.4455 38.2618 15.3906 38.2802C15.3357 38.2995 15.3097 38.256 15.2837 38.2182C15.1374 38.0082 15.0787 37.7662 15.0267 37.5204C14.7659 36.2825 14.7129 35.0436 14.9526 33.796C15.0104 33.4979 15.1528 33.2424 15.2924 32.984C15.3463 32.8843 15.4493 32.7913 15.5379 32.8126C15.6447 32.8388 15.6774 32.9781 15.6755 33.0943C15.664 33.5289 15.7073 33.9596 15.8305 34.3758C16.0952 35.2662 16.5852 36.0037 17.3235 36.5728C17.5055 36.7132 17.7076 36.8458 17.7731 37.0926C17.9473 37.2668 17.9348 37.4904 17.9502 37.712Z" fill="white"/>
<path fill-rule="evenodd" clip-rule="evenodd" d="M12.2147 28.3755L12.2119 28.3618L12.222 28.3636L12.2147 28.3755Z" fill="white"/>
<path d="M44.8674 27.7849C45.1807 27.7849 45.4098 27.8572 45.5547 28.0028C45.6636 28.1124 45.7052 28.2388 45.6816 28.3845C45.6692 28.5053 45.6423 28.6002 45.6007 28.6668C45.558 28.7334 45.5131 28.7853 45.4648 28.8215C45.4042 28.8576 45.3346 28.8971 45.2571 28.94C45.1785 28.9829 45.0909 29.01 44.9943 29.0225C44.681 29.0473 44.4272 29.0676 44.234 29.0857C44.0409 29.1038 43.878 29.1162 43.7455 29.1218C43.613 29.1286 43.4895 29.1343 43.3749 29.1399C43.2604 29.1467 43.1312 29.1523 42.9863 29.158C42.8415 29.1647 42.6663 29.176 42.4619 29.1941C42.2564 29.2122 41.9914 29.2336 41.6657 29.2573C41.605 29.6458 41.5298 30.155 41.44 30.7851C41.349 31.4163 41.2502 32.1977 41.1412 33.1315C40.8032 35.8121 40.5865 38.0546 40.4899 39.8624C40.4775 40.1051 40.4831 40.3931 40.5079 40.7262C40.5326 41.0593 40.5741 41.4387 40.6348 41.8632C40.6471 41.9479 40.6224 42.0202 40.5629 42.0812C40.5146 42.1297 40.4539 42.1534 40.381 42.1534H40.3439C40.1361 42.1173 39.9216 42.0382 39.7027 41.9174C39.6779 41.905 39.6633 41.896 39.6566 41.8903C39.6499 41.8836 39.6353 41.8745 39.6106 41.8632C39.2928 41.4996 39.1344 40.8933 39.1344 40.0442C39.1344 38.7343 39.2445 36.8791 39.4646 34.4774C39.6847 32.113 39.7947 30.6089 39.7947 29.9664C39.7947 29.8693 39.7914 29.7756 39.7858 29.6842C39.779 29.5927 39.7768 29.5057 39.7768 29.4199C39.459 29.4199 39.131 29.429 38.793 29.447C38.4539 29.4651 38.1158 29.499 37.7789 29.5475C37.4409 29.5961 37.122 29.6661 36.8199 29.7564C36.5178 29.8479 36.2595 29.9653 36.0416 30.111C35.9215 30.1957 35.8608 30.2623 35.8608 30.3108C35.8608 30.3357 35.8732 30.3718 35.8968 30.4204C35.9203 30.4689 36.0113 30.5231 36.1685 30.5841C36.301 30.6451 36.4785 30.6936 36.702 30.7297C36.9254 30.7659 37.1871 30.7727 37.4892 30.7478C37.6341 30.7354 37.8205 30.7117 38.0496 30.6756C38.2787 30.6394 38.4954 30.6089 38.7009 30.5841C38.9053 30.5604 39.085 30.5536 39.2366 30.566C39.3882 30.5784 39.4646 30.627 39.4646 30.7117C39.4646 30.7602 39.4522 30.8088 39.4275 30.8573C39.2804 31.1001 39.1198 31.2876 38.9446 31.4208C38.7694 31.554 38.5796 31.6568 38.3741 31.7302C38.2416 31.7787 38.1024 31.8216 37.9586 31.8578C37.8137 31.8939 37.5667 31.9188 37.2174 31.93C36.7828 31.9425 36.4122 31.9086 36.1045 31.8296C35.7968 31.7505 35.5408 31.6387 35.3353 31.4931C35.1297 31.3237 34.9669 31.1171 34.8467 30.8743C34.7266 30.6315 34.6772 30.3345 34.7019 29.9834C34.7019 29.8987 34.7198 29.7869 34.7558 29.6469C34.7917 29.508 34.8557 29.3646 34.9456 29.2189C35.0365 29.0733 35.1657 28.9366 35.3341 28.8102C35.5026 28.6826 35.7204 28.5832 35.9855 28.5098C36.2629 28.4376 36.6604 28.3642 37.1792 28.2919C37.6981 28.2196 38.3011 28.153 38.9884 28.092C39.2198 28.0796 39.3927 28.0683 39.5095 28.0559C39.6252 28.0435 39.7262 28.0345 39.8116 28.0288C39.8969 28.0232 39.9823 28.0198 40.0688 28.0198C40.1541 28.0198 40.2788 28.0164 40.4427 28.0107C40.6067 28.0051 40.8335 27.9961 41.1233 27.9836C41.413 27.9712 41.7982 27.9532 42.2811 27.9294C42.8718 27.9057 43.2974 27.8843 43.5568 27.8662C43.8163 27.8481 44.006 27.8335 44.1262 27.821C44.2464 27.8086 44.3429 27.7996 44.4159 27.7939C44.4867 27.7872 44.6372 27.7849 44.8674 27.7849Z" fill="white"/>
<path d="M66.1874 38.3107C66.1144 37.9268 65.9875 37.4412 65.8056 36.8744C65.6416 36.3437 65.5147 35.8774 65.4328 35.4935C65.3508 35.1095 65.3059 34.7889 65.3059 34.5235C65.3059 34.3959 65.3418 34.2028 65.4058 33.9476C65.4608 33.7557 65.4878 33.627 65.5058 33.5637C65.5147 33.4994 65.5237 33.4542 65.5237 33.426C65.5237 33.3808 65.5147 33.3164 65.4878 33.243C65.4698 33.1787 65.4328 33.1064 65.3789 33.033C65.3238 32.9596 65.2329 32.9054 65.106 32.8501C64.9881 32.8049 64.8331 32.7767 64.6422 32.7767C64.3872 32.7767 64.1873 32.8501 64.0414 32.9958C63.9043 33.1425 63.8325 33.3435 63.8325 33.5999C63.8325 34.0391 63.8145 34.4501 63.7774 34.8442C63.7415 35.2371 63.6685 35.603 63.5686 35.9508C63.5416 36.0603 63.5135 36.1698 63.4866 36.2895C63.4226 36.5278 63.3597 36.7649 63.2957 37.0122C63.2687 37.1127 63.2508 37.2132 63.2227 37.3046C63.1778 37.4424 63.1497 37.57 63.1137 37.6705C63.0587 37.8715 63.0138 38.0182 62.9958 38.1007C62.9689 38.1831 62.9509 38.2384 62.9318 38.2475V38.2655C62.7959 38.6957 62.6679 39.0243 62.55 39.2626C62.4321 39.5008 62.3411 39.6747 62.2501 39.7842C62.1682 39.8938 62.1042 39.9581 62.0592 39.9852C62.0132 40.0123 61.9862 40.0214 61.9773 40.0214C61.9413 39.9852 61.8953 39.9118 61.8593 39.8114C61.8324 39.7199 61.8144 39.5923 61.7953 39.4184C61.7774 39.2445 61.7684 39.0063 61.7684 38.7138C61.7684 37.6705 61.9323 36.3448 62.2692 34.7437C62.3052 34.6251 62.2692 34.5246 62.1513 34.4512C61.7515 34.1949 61.4416 34.0673 61.2147 34.0673C60.9418 34.0673 60.7599 34.1227 60.6779 34.2322C60.587 34.3417 60.523 34.4422 60.505 34.5246V34.7719C60.505 34.8453 60.487 34.9729 60.441 35.1649C60.405 35.3568 60.35 35.6222 60.268 35.9429C60.195 36.2726 60.0861 36.7017 59.9491 37.2233C59.7672 37.9098 59.6122 38.4123 59.4943 38.733C59.3764 39.0537 59.2764 39.2637 59.1944 39.3642C59.1944 39.2998 59.1944 39.2276 59.1854 39.1451C59.1854 39.0627 59.1765 38.9532 59.1765 38.8064C59.1765 38.4586 59.1944 38.0566 59.2405 37.5813C59.2764 37.1149 59.3225 36.5842 59.3865 35.9993V35.9722C59.3865 35.4596 59.3225 35.0757 59.1956 34.8193C59.0956 34.6003 58.9777 34.4625 58.8407 34.3982C58.7138 34.3338 58.5947 34.2977 58.4858 34.2977C58.3218 34.2977 58.177 34.3428 58.0579 34.4354C57.94 34.5269 57.83 34.6274 57.7491 34.7561C57.6671 34.8747 57.6031 34.9944 57.5492 35.122C57.5043 35.2405 57.4582 35.332 57.4403 35.3963C57.3134 35.717 57.1764 36.1551 57.0495 36.7231C56.9226 37.2809 56.7856 37.9855 56.6306 38.8267C56.6036 38.9182 56.5756 39.0096 56.5576 39.0921C56.5306 39.1745 56.5026 39.2569 56.4756 39.3484C56.4666 39.2208 56.4576 39.0921 56.4576 38.9554V38.5433C56.4576 37.9482 56.5026 37.4548 56.5946 37.0528C56.6946 36.5865 56.7496 36.0738 56.7496 35.5341C56.7496 35.3049 56.7227 35.1129 56.6587 34.9763C56.6036 34.8295 56.5407 34.729 56.4588 34.6466C56.3858 34.5732 56.2948 34.519 56.2038 34.4908C56.1039 34.4637 56.0219 34.4546 55.9399 34.4546C55.767 34.4546 55.612 34.519 55.4851 34.6466C55.2482 34.9029 55.1662 35.4144 55.2122 36.1743C55.2122 36.2105 55.2212 36.2387 55.2302 36.2477V36.2568C55.2302 36.2748 55.2212 36.2839 55.2212 36.2929C55.1572 36.5221 55.1033 36.6678 55.0752 36.7502C54.9393 37.0427 54.7933 37.2256 54.6473 37.2899C54.5014 37.3543 54.3745 37.3814 54.2565 37.3814C54.1656 37.3814 54.0926 37.3543 54.0286 37.308C54.0286 36.7502 54.0196 36.3019 54.0016 35.9361C53.9926 35.5793 53.9836 35.2959 53.9657 35.0858C53.9567 34.8668 53.9387 34.7109 53.9208 34.6105C53.9028 34.51 53.8848 34.4275 53.8758 34.3812C53.7298 33.9793 53.439 33.6224 52.9931 33.3018C52.5473 32.963 52.1284 32.7982 51.7376 32.7982C51.6646 32.7982 51.5826 32.8072 51.4917 32.8253C51.4007 32.8433 51.3098 32.8896 51.2188 32.9528C51.1368 33.0172 51.0458 33.1087 50.9639 33.2182C50.8819 33.3368 50.8179 33.4926 50.7819 33.6845C50.7179 33.9409 50.673 34.1238 50.6449 34.2423C50.627 34.3609 50.609 34.4433 50.5899 34.4896C50.5169 34.5721 50.463 34.6997 50.4349 34.8916V35.0836C50.4349 35.1389 50.4439 35.2021 50.4619 35.2846V35.3941C50.2889 35.7961 50.198 36.4555 50.171 37.3701C50.153 37.4345 50.1351 37.4977 50.116 37.553C50.0071 37.9652 49.888 38.331 49.7521 38.6325C49.6252 38.943 49.5062 39.1993 49.4062 39.4105C49.2883 39.6668 49.1974 39.8215 49.1244 39.8949C49.0514 39.9593 49.0064 39.9954 48.9975 39.9954C48.8885 39.9954 48.7976 39.8768 48.7336 39.6386C48.6695 39.4003 48.6336 39.0808 48.6336 38.6777C48.6336 37.4977 48.8066 35.9609 49.1614 34.0944L49.1794 33.9476L49.0705 33.8562C48.7706 33.5908 48.5426 33.426 48.4068 33.3718C48.2698 33.3074 48.1608 33.2803 48.0699 33.2803C47.9519 33.2803 47.8239 33.3255 47.706 33.4169C47.5791 33.5084 47.478 33.7004 47.4241 34.0018C47.3972 34.1486 47.3242 34.4591 47.2063 34.9436C47.0883 35.4189 46.9244 36.0682 46.7155 36.9015C46.6245 37.2493 46.5336 37.5688 46.4516 37.8624C46.3786 38.1549 46.3056 38.4202 46.2427 38.6585V38.6223C46.2337 38.558 46.2247 38.4948 46.2158 38.4394C46.2158 38.3841 46.2068 38.3389 46.2068 38.3017C46.2068 38.2655 46.2068 38.2283 46.1978 38.2102C46.1978 37.2775 46.2708 36.1066 46.4157 34.7155C46.5706 33.3164 46.7975 31.6882 47.0984 29.8036C47.1344 29.5383 47.2074 29.2458 47.3163 28.9342C47.3983 28.6598 47.4432 28.4125 47.4432 28.1844C47.4432 27.8095 47.2343 27.6086 46.8065 27.5803H46.7514C46.5145 27.5803 46.3326 27.6356 46.2057 27.7271C46.0877 27.8276 46.0058 27.9281 45.9597 28.0196L45.9417 28.0749V28.679C45.9417 29.0268 45.8968 29.6026 45.8238 30.4168C45.7418 31.2219 45.6329 32.246 45.4869 33.4994C45.3319 34.7708 45.214 35.7949 45.141 36.5639C45.068 37.3317 45.0321 37.8715 45.0321 38.1921C45.0321 39.3811 45.1141 40.2506 45.287 40.7994C45.46 41.3481 45.7149 41.6316 46.0698 41.6316C46.2057 41.6316 46.3516 41.5853 46.4797 41.504L46.5706 41.4486L46.5886 41.3391C46.8166 40.333 47.0165 39.5008 47.1703 38.8414C47.3253 38.1921 47.4612 37.6524 47.5701 37.2222V38.5207L47.5881 38.7861V38.8041C47.7341 40.4234 48.2338 41.2284 49.1075 41.2284C49.5623 41.2284 49.9262 40.8897 50.1901 40.2224C50.2171 40.149 50.2631 40.0214 50.317 39.8384C50.381 40.0948 50.463 40.3229 50.554 40.525C50.8448 41.1381 51.2996 41.4486 51.9094 41.4486C52.4002 41.4486 52.8191 41.1742 53.147 40.6345C53.22 40.5069 53.311 40.333 53.3929 40.1128C53.4839 39.9028 53.5839 39.6194 53.7018 39.2897V39.2535C53.7377 39.0977 53.7748 38.9521 53.8017 38.8143C53.8377 38.6765 53.8657 38.549 53.8927 38.4214C54.0746 38.4857 54.1925 38.5309 54.2565 38.549C54.3206 38.567 54.3744 38.5761 54.4115 38.5761C54.7664 38.5761 55.0842 38.4394 55.3571 38.1639C55.3481 38.3468 55.3481 38.5027 55.3391 38.6393C55.3301 38.8685 55.3301 39.0514 55.3301 39.1881C55.3301 39.4444 55.3391 39.7097 55.3571 39.9841C55.3751 40.2495 55.4211 40.4967 55.484 40.7248C55.548 40.9439 55.639 41.137 55.7479 41.2826C55.8658 41.4294 56.0208 41.5017 56.2297 41.5017C56.7665 41.5017 57.2033 40.9529 57.5492 39.8644C57.6671 39.4805 57.8681 38.584 58.15 37.1657C58.186 36.9467 58.223 36.7818 58.259 36.6621C58.25 36.8722 58.241 37.0923 58.232 37.3204C58.223 37.5496 58.214 37.7958 58.1871 38.0521C58.1051 38.9758 58.0692 39.5245 58.0692 39.6894C58.0692 39.9999 58.1051 40.2562 58.1691 40.4482C58.2331 40.6492 58.3061 40.805 58.4061 40.9236C58.506 41.0421 58.606 41.1155 58.725 41.1528C58.8339 41.1889 58.953 41.2171 59.0709 41.2171C59.5437 41.2171 59.9536 40.7598 60.2905 39.8452C60.3354 39.7538 60.3815 39.616 60.4365 39.4331C60.5005 39.2411 60.5735 39.0119 60.6645 38.7285V39.1858C60.6645 39.2039 60.6645 39.2039 60.6824 39.2039C60.8284 40.5487 61.2641 41.216 61.9829 41.216C62.3928 41.216 62.7566 40.9507 63.0834 40.429C63.1385 40.6119 63.2474 40.7858 63.4203 40.9597C63.8022 41.3899 64.239 41.5999 64.7208 41.5999C65.1846 41.5999 65.5754 41.3617 65.8943 40.8863C66.1762 40.4742 66.3132 39.9344 66.3132 39.2671C66.3054 39.0243 66.2694 38.7036 66.1874 38.3107ZM52.7416 38.6032C52.6866 38.8414 52.5597 39.17 52.3688 39.6002C52.2598 39.8384 52.1689 40.0022 52.1138 40.0846C52.0588 40.167 52.0139 40.2212 51.9869 40.2495C51.86 40.2404 51.759 40.167 51.6871 40.0304C51.6051 39.8926 51.5411 39.7289 51.5052 39.5268C51.4602 39.3258 51.4232 39.1248 51.4142 38.9046C51.4052 38.6856 51.3962 38.4835 51.3962 38.3005C51.3962 38.0081 51.4232 37.6603 51.4692 37.2572C51.5242 36.8451 51.5961 36.3787 51.7062 35.839C51.7702 35.4912 51.8241 35.2078 51.8881 34.9887C51.9431 34.7697 51.997 34.6048 52.0431 34.4761C52.079 34.3575 52.1251 34.2661 52.152 34.2198C52.1879 34.1644 52.207 34.1373 52.225 34.1193C52.325 34.1193 52.4069 34.1464 52.4709 34.2107C52.535 34.2661 52.5619 34.3846 52.5619 34.5675V34.7324C52.5619 34.7968 52.5619 34.8882 52.5439 34.9887C52.526 35.0892 52.508 35.1807 52.508 35.2631V35.4731C52.508 35.5375 52.517 35.647 52.535 35.8028C52.5529 35.9496 52.608 36.2331 52.6809 36.6441C52.736 36.9455 52.7719 37.2109 52.7989 37.4582C52.8258 37.6964 52.8348 37.9155 52.8348 38.0894C52.8326 38.191 52.8056 38.3649 52.7416 38.6032ZM64.832 40.2133C64.75 40.3511 64.677 40.4425 64.586 40.4696C64.504 40.5058 64.431 40.525 64.3682 40.525C64.2132 40.525 64.0492 40.333 63.8673 39.9672C63.8583 39.7109 63.8033 39.546 63.6943 39.4918C63.6393 39.4647 63.6034 39.4365 63.5573 39.4274C63.7033 39.0345 63.8482 38.6223 63.9852 38.1921C63.9942 38.165 64.0032 38.147 64.0032 38.1187C64.0032 38.1097 64.0122 38.1097 64.0122 38.1007C64.0762 38.0182 64.1211 37.9178 64.1581 37.8263C64.1941 37.7258 64.2311 37.6434 64.2581 37.588V37.57C64.303 37.4142 64.3491 37.2595 64.385 37.1036C64.4299 36.9388 64.467 36.783 64.5209 36.6283C64.5478 36.7107 64.5658 36.7841 64.5849 36.8665C64.6118 36.958 64.6298 37.0314 64.6579 37.0957V37.1138C64.9128 38.0013 65.0397 38.6957 65.0397 39.1903C65.0408 39.6183 64.9678 39.957 64.832 40.2133Z" fill="white"/>
<path d="M73.0101 34.5877C72.7552 34.5877 72.5912 34.7796 72.5194 35.1636C72.4015 35.6943 72.3105 36.0691 72.2375 36.2882C72.1645 36.5174 72.1196 36.6631 72.0915 36.7455C71.9545 37.038 71.8096 37.2209 71.6636 37.2852C71.5176 37.3496 71.3818 37.3767 71.2728 37.3767C71.1819 37.3767 71.0999 37.3496 71.0359 37.3033C71.0359 36.7455 71.0359 36.2972 71.0179 35.9314C71.0089 35.5746 70.9909 35.2912 70.982 35.0811C70.973 34.8621 70.955 34.7063 70.9359 34.6058C70.918 34.5053 70.9 34.4228 70.891 34.3765C70.745 33.9746 70.4541 33.6177 70.0083 33.2971C69.5625 32.9583 69.1436 32.7935 68.7528 32.7935C68.6708 32.7935 68.5888 32.8025 68.5068 32.8206C68.4159 32.8386 68.3249 32.8849 68.234 32.9482C68.143 33.0125 68.061 33.104 67.979 33.2135C67.897 33.3321 67.833 33.4879 67.7971 33.6798C67.7331 33.9362 67.6882 34.1191 67.6601 34.2376C67.632 34.3562 67.6152 34.4386 67.6051 34.4849C67.5321 34.5674 67.4782 34.695 67.4501 34.8869V35.0789C67.4501 35.1342 67.4591 35.1974 67.4681 35.2799V35.3894C67.2682 35.893 67.1682 36.7884 67.1682 38.07C67.1682 39.1495 67.2951 39.9636 67.568 40.5214C67.8589 41.1345 68.3137 41.4451 68.9235 41.4451C69.4142 41.4451 69.8331 41.1707 70.161 40.6309C70.234 40.5033 70.316 40.3295 70.407 40.1093C70.4979 39.8992 70.5979 39.6158 70.7158 39.2861V39.25C70.7517 39.0942 70.7888 38.9485 70.8158 38.8107C70.8517 38.673 70.8798 38.5454 70.9067 38.4178C71.0797 38.4821 71.2066 38.5273 71.2706 38.5454C71.3346 38.5634 71.3795 38.5725 71.4256 38.5725C72.0443 38.5725 72.5441 38.1513 72.918 37.3191C73.109 36.8979 73.246 36.496 73.3369 36.1121C73.4279 35.7372 73.4739 35.3804 73.4739 35.0416C73.4739 34.7424 73.319 34.5877 73.0101 34.5877ZM69.7624 38.603C69.7073 38.8412 69.5804 39.1698 69.3895 39.6C69.2806 39.8383 69.1896 40.002 69.1346 40.0844C69.0706 40.1669 69.0347 40.2211 69.0077 40.2493C68.8808 40.2402 68.7797 40.1669 68.6989 40.0302C68.6259 39.8925 68.5619 39.7287 68.517 39.5266C68.472 39.3256 68.444 39.1246 68.435 38.9045C68.417 38.6854 68.417 38.4833 68.417 38.3004C68.417 38.0079 68.444 37.6601 68.49 37.257C68.545 36.8449 68.6169 36.3785 68.718 35.8388C68.782 35.491 68.8449 35.2076 68.8999 34.9885C68.9639 34.7695 69.0088 34.6046 69.0549 34.4759C69.0998 34.3573 69.1369 34.2659 69.1728 34.2196C69.1997 34.1643 69.2278 34.1372 69.2368 34.1191C69.3457 34.1191 69.4277 34.1462 69.4917 34.2106C69.5557 34.2659 69.5827 34.3844 69.5827 34.5674V34.7322C69.5827 34.7966 69.5827 34.888 69.5647 34.9885C69.5378 35.089 69.5288 35.1805 69.5288 35.2629V35.4729C69.5288 35.5373 69.5378 35.6468 69.5557 35.8027C69.5737 35.9495 69.6198 36.2329 69.7017 36.6439C69.7568 36.9454 69.7927 37.2107 69.8196 37.458C69.8376 37.6963 69.8556 37.9153 69.8556 38.0892C69.8533 38.1908 69.8253 38.3647 69.7624 38.603Z" fill="white"/>
</svg>
