<?xml version="1.0" standalone="no"?>
<!DOCTYPE svg PUBLIC "-//W3C//DTD SVG 20010904//EN"
 "http://www.w3.org/TR/2001/REC-SVG-20010904/DTD/svg10.dtd">
<svg version="1.0" xmlns="http://www.w3.org/2000/svg"
 width="300.000000pt" height="193.000000pt" viewBox="0 0 300.000000 193.000000"
 preserveAspectRatio="xMidYMid meet">
<metadata>
Created by potrace 1.10, written by Peter Selinger 2001-2011
</metadata>
<g transform="translate(0.000000,193.000000) scale(0.100000,-0.100000)"
fill="#000000" stroke="none">
<path d="M1678 1703 c17 -2 47 -2 65 0 17 2 3 4 -33 4 -36 0 -50 -2 -32 -4z"/>
<path d="M1109 1640 c-18 -22 -36 -37 -40 -34 -5 3 -9 0 -9 -5 0 -24 27 -8 58
34 40 56 34 59 -9 5z"/>
<path d="M1606 1640 c-22 -39 -15 -42 95 -37 l84 3 -89 2 c-76 2 -87 4 -82 18
3 9 6 17 6 18 0 1 19 1 43 0 28 -2 32 -1 12 3 -16 3 -35 9 -41 14 -6 5 -17 -3
-28 -21z"/>
<path d="M1473 1549 c-48 -44 -57 -62 -17 -30 23 18 70 71 62 71 -2 0 -22 -19
-45 -41z"/>
<path d="M2201 1576 c14 -11 157 -81 153 -74 -6 9 -138 78 -150 78 -4 0 -5 -2
-3 -4z"/>
<path d="M1007 1535 c-19 -24 -22 -33 -11 -28 13 5 15 3 9 -7 -5 -8 -4 -11 3
-6 6 4 9 13 6 20 -3 8 -1 17 5 21 6 3 11 1 11 -6 0 -10 3 -10 11 -2 7 7 8 17
2 27 -7 13 -13 10 -36 -19z"/>
<path d="M2144 1530 c44 -17 81 -28 83 -26 5 4 -134 56 -150 56 -7 -1 24 -14
67 -30z"/>
<path d="M1728 1483 c17 -2 47 -2 65 0 17 2 3 4 -33 4 -36 0 -50 -2 -32 -4z"/>
<path d="M2300 1469 c19 -12 50 -30 68 -41 17 -11 32 -17 32 -15 0 8 -113 77
-125 77 -5 0 6 -10 25 -21z"/>
<path d="M1447 1467 c-15 -10 -11 -12 25 -14 24 -1 36 1 28 4 -8 3 -20 10 -26
14 -6 5 -18 3 -27 -4z"/>
<path d="M678 1413 c39 -4 42 -6 30 -21 -12 -15 -11 -16 5 -3 28 22 20 31 -30
29 l-48 -1 43 -4z"/>
<path d="M821 1371 c-14 -10 -26 -26 -27 -36 -1 -9 1 -14 4 -10 4 4 7 12 7 18
0 5 6 12 14 15 9 3 11 0 6 -7 -5 -9 -1 -8 14 1 12 7 17 14 11 16 -6 2 -8 8 -4
13 8 13 2 11 -25 -10z"/>
<path d="M2271 1387 c16 -13 118 -63 113 -56 -6 10 -98 59 -110 59 -4 0 -5 -2
-3 -3z"/>
<path d="M900 1279 c0 -6 -4 -7 -10 -4 -5 3 -17 2 -26 -3 -15 -8 -15 -10 0
-15 10 -4 15 -3 12 2 -3 5 6 9 20 9 31 0 52 17 24 19 -11 1 -20 -3 -20 -8z"/>
<path d="M545 1167 c-13 -22 -14 -32 -6 -40 9 -9 10 -7 5 7 -5 13 -4 17 4 12
8 -5 10 -1 5 10 -4 11 -2 15 4 11 6 -4 18 2 28 13 16 18 16 19 -3 17 -11 0
-28 -14 -37 -30z"/>
<path d="M472 1023 c-5 -10 -7 -24 -4 -32 3 -8 0 -11 -6 -7 -6 3 -13 3 -16 -2
-3 -5 2 -9 10 -9 18 0 48 53 34 62 -5 3 -13 -2 -18 -12z"/>
<path d="M747 1027 c22 -8 55 -24 71 -36 17 -11 34 -21 39 -21 21 0 -87 60
-117 65 -33 5 -32 4 7 -8z"/>
<path d="M2746 1029 c4 -8 23 -38 41 -68 18 -30 33 -51 33 -47 0 13 -60 115
-72 122 -7 5 -8 2 -2 -7z"/>
<path d="M2830 1035 c1 -12 70 -133 70 -122 0 8 -43 92 -59 117 -6 8 -11 11
-11 5z"/>
<path d="M316 944 c-12 -11 -15 -31 -14 -74 2 -32 6 -53 10 -47 4 6 4 31 1 54
-4 34 -2 48 12 63 21 24 13 27 -9 4z"/>
<path d="M1656 943 c-4 -4 -40 -7 -79 -6 l-72 1 75 -7 c47 -5 77 -4 81 2 11
16 37 0 42 -25 4 -16 5 -14 4 7 -2 22 -7 31 -22 33 -12 2 -24 -1 -29 -5z"/>
<path d="M1388 923 c17 -2 47 -2 65 0 17 2 3 4 -33 4 -36 0 -50 -2 -32 -4z"/>
<path d="M1620 889 c-13 -9 -12 -10 3 -5 14 4 17 -2 19 -37 l1 -42 4 39 c5 44
-5 60 -27 45z"/>
<path d="M1420 855 c0 -10 -11 -16 -32 -16 l-33 -2 30 -4 c16 -3 33 -10 37
-16 4 -7 8 3 8 21 0 17 -2 32 -5 32 -3 0 -5 -7 -5 -15z"/>
<path d="M1113 785 c0 -38 2 -53 4 -32 2 20 2 52 0 70 -2 17 -4 1 -4 -38z"/>
<path d="M463 765 c0 -33 2 -45 4 -27 2 18 2 45 0 60 -2 15 -4 0 -4 -33z"/>
<path d="M1626 729 c-4 -39 -5 -73 -3 -76 3 -2 8 28 12 67 4 39 5 73 2 76 -2
3 -8 -27 -11 -67z"/>
<path d="M851 763 c12 -20 11 -25 -9 -46 -12 -13 -19 -27 -15 -32 5 -4 1 -6
-8 -3 -9 4 -16 1 -16 -7 0 -10 5 -11 19 -4 10 6 16 14 14 18 -3 5 3 16 14 26
24 22 25 38 3 56 -15 13 -15 12 -2 -8z"/>
<path d="M745 718 l-40 -41 43 33 c23 18 42 37 42 42 0 13 -4 10 -45 -34z"/>
<path d="M1864 750 c15 -5 37 -17 47 -26 11 -10 19 -12 19 -6 0 14 -53 42 -77
41 -11 0 -6 -4 11 -9z"/>
<path d="M2296 752 c-3 -5 8 -6 25 -4 29 4 29 4 30 -49 0 -30 4 -63 9 -74 8
-19 3 96 -5 123 -5 13 -51 17 -59 4z"/>
<path d="M2442 747 c-6 -6 -13 -26 -17 -42 -5 -26 -4 -25 11 8 19 43 39 47 78
16 15 -12 29 -19 32 -16 8 8 -53 47 -74 47 -11 0 -24 -6 -30 -13z"/>
<path d="M1700 721 c-5 -11 -10 -26 -9 -33 0 -7 5 -1 11 15 10 29 35 35 58 15
12 -11 12 -10 1 5 -18 23 -48 22 -61 -2z"/>
<path d="M407 660 c23 -22 48 -40 55 -40 7 0 4 6 -7 12 -11 6 -33 24 -48 40
-16 15 -32 28 -35 28 -4 0 12 -18 35 -40z"/>
<path d="M1865 689 c-4 -6 -4 -13 -1 -16 3 -4 7 0 8 8 0 8 4 -6 8 -31 l7 -45
1 48 c2 44 -9 60 -23 36z"/>
<path d="M2028 657 c4 -40 22 -78 22 -46 0 8 8 31 19 52 10 20 14 34 9 31 -6
-4 -16 -20 -24 -38 l-13 -31 -1 32 c0 17 -3 34 -8 37 -4 2 -6 -14 -4 -37z"/>
<path d="M779 673 c-1 -5 -1 -12 0 -17 1 -5 -4 -6 -11 -4 -21 9 -63 -11 -51
-23 14 -14 70 14 70 35 0 16 -6 22 -8 9z"/>
<path d="M580 667 c0 -3 13 -21 28 -39 41 -47 45 -65 19 -83 -12 -8 -17 -15
-11 -15 11 0 45 34 59 60 8 13 7 13 -8 1 -9 -7 -17 -10 -17 -5 -1 10 -70 91
-70 81z"/>
<path d="M1613 560 c0 -47 2 -66 4 -42 2 23 2 61 0 85 -2 23 -4 4 -4 -43z"/>
<path d="M2630 612 c0 -6 -12 -25 -27 -43 -15 -18 -21 -30 -13 -27 18 6 55 66
46 75 -3 4 -6 1 -6 -5z"/>
<path d="M1751 558 c0 -32 2 -58 7 -58 4 0 6 19 4 43 -5 70 -10 76 -11 15z"/>
<path d="M1690 542 c0 -10 39 -92 43 -92 7 0 -29 100 -35 100 -5 0 -8 -4 -8
-8z"/>
<path d="M1980 505 c4 -26 13 -51 20 -58 10 -10 10 -8 1 10 -6 12 -11 38 -11
57 0 20 -4 36 -8 36 -5 0 -6 -20 -2 -45z"/>
<path d="M2070 518 c0 -7 -7 -25 -14 -40 -8 -16 -11 -28 -6 -28 5 0 13 12 16
26 5 19 9 22 15 12 6 -9 9 -5 9 15 0 15 -4 27 -10 27 -5 0 -10 -6 -10 -12z"/>
<path d="M925 508 c-11 -5 -31 -24 -45 -41 -23 -30 -22 -30 18 6 48 42 74 47
96 15 11 -16 16 -18 16 -7 0 35 -43 49 -85 27z"/>
<path d="M2152 475 c-13 -27 -31 -32 -50 -13 -8 8 -12 8 -12 1 0 -10 22 -23
41 -23 11 0 44 49 37 55 -3 3 -10 -6 -16 -20z"/>
<path d="M684 413 c-6 -10 -31 -20 -60 -24 l-49 -6 41 -2 c39 -1 98 29 84 43
-3 3 -10 -2 -16 -11z"/>
<path d="M2992 178 c-1 -53 -5 -105 -8 -115 -5 -17 -5 -17 6 -1 6 11 9 55 7
115 l-3 98 -2 -97z"/>
<path d="M720 186 c0 -13 53 -86 62 -86 5 0 -5 19 -23 43 -18 23 -34 44 -36
46 -2 2 -3 1 -3 -3z"/>
<path d="M711 95 c0 -5 6 -21 14 -35 18 -31 19 -43 3 -34 -10 5 -10 4 -1 -6
24 -25 27 0 5 43 -11 23 -21 38 -21 32z"/>
<path d="M808 65 c14 -28 51 -60 59 -51 8 8 -11 44 -20 36 -2 -3 -15 4 -27 15
l-23 20 11 -20z"/>
</g>
</svg>
