<svg width="19" height="19" viewBox="0 0 19 19" fill="none" xmlns="http://www.w3.org/2000/svg">
<path d="M14.25 7.71875H13.0625C13.062 7.24648 12.8742 6.79368 12.5403 6.45974C12.2063 6.12579 11.7535 5.93797 11.2812 5.9375V4.75C12.0683 4.75094 12.8229 5.06402 13.3794 5.62057C13.936 6.17711 14.2491 6.93168 14.25 7.71875Z" fill="white"/>
<path d="M16.6254 7.71876H15.4379C15.4367 6.61684 14.9984 5.56041 14.2192 4.78123C13.44 4.00206 12.3836 3.56376 11.2817 3.56251V2.37501C12.6984 2.37658 14.0567 2.94008 15.0585 3.94189C16.0603 4.9437 16.6238 6.30199 16.6254 7.71876ZM12.0731 12.7549L13.4031 11.4249C13.5812 11.2469 13.8075 11.125 14.0542 11.0743C14.3008 11.0236 14.5569 11.0465 14.7907 11.1399L16.4105 11.7883C16.6492 11.8838 16.8538 12.0487 16.998 12.2616C17.1421 12.4746 17.2192 12.7258 17.2192 12.9829V15.9285C17.2196 16.1036 17.1843 16.2769 17.1154 16.4379C17.0465 16.5988 16.9455 16.744 16.8185 16.8646C16.6916 16.9851 16.5413 17.0785 16.3771 17.139C16.2128 17.1995 16.0379 17.2258 15.863 17.2164C4.50935 16.5098 2.21628 6.89344 1.79056 3.211C1.76995 3.03098 1.78767 2.84862 1.84258 2.67594C1.8975 2.50326 1.98834 2.34415 2.10915 2.2091C2.22996 2.07404 2.378 1.96609 2.54352 1.89235C2.70904 1.81861 2.8883 1.78075 3.0695 1.78126H5.96285C6.21998 1.78125 6.47122 1.85828 6.68415 2.00243C6.89709 2.14657 7.06195 2.35121 7.15747 2.58994L7.80525 4.20969C7.89874 4.4435 7.92156 4.69959 7.8709 4.94624C7.82024 5.19289 7.69832 5.41926 7.52025 5.59729L6.19025 6.92729C6.19025 6.92729 6.92769 12.1119 12.0731 12.7549Z" fill="white"/>
</svg>
