<svg width="15" height="15" viewBox="0 0 15 15" fill="none" xmlns="http://www.w3.org/2000/svg">
<path d="M3.19867 6.7637C4.33156 8.99014 6.15677 10.8075 8.38322 11.9482L10.114 10.2174C10.3264 10.005 10.6411 9.93422 10.9165 10.0286C11.7976 10.3197 12.7496 10.4771 13.7251 10.4771C14.1578 10.4771 14.5118 10.8311 14.5118 11.2638V14.0095C14.5118 14.4422 14.1578 14.7962 13.7251 14.7962C6.33772 14.7962 0.350708 8.80919 0.350708 1.4218C0.350708 0.989099 0.704736 0.635071 1.13744 0.635071H3.89099C4.32369 0.635071 4.67772 0.989099 4.67772 1.4218C4.67772 2.40521 4.83507 3.34929 5.12616 4.23043C5.2127 4.50578 5.14976 4.81261 4.92948 5.03289L3.19867 6.7637Z" fill="black"/>
</svg>
