<svg width="186" height="25" viewBox="0 0 186 25" fill="none" xmlns="http://www.w3.org/2000/svg">
<path d="M0.128061 24.032C0.704061 21.1947 1.25873 18.4213 1.79206 15.712C1.98406 14.56 2.19739 13.3653 2.43206 12.128C2.66673 10.8693 2.88006 9.632 3.07206 8.416C3.28539 7.17867 3.47739 5.99467 3.64806 4.864C3.84006 3.712 3.98939 2.66667 4.09606 1.728C5.31206 1.344 6.62406 1.06667 8.03206 0.895998C9.44006 0.703999 10.8374 0.608 12.2241 0.608C13.0561 0.608 13.7387 0.703999 14.2721 0.895998C14.8267 1.088 15.2534 1.36533 15.5521 1.728C15.8721 2.06933 16.0961 2.47467 16.2241 2.944C16.3521 3.41333 16.4161 3.936 16.4161 4.512C16.4161 5.36533 16.2667 6.208 15.9681 7.04C15.6694 7.85067 15.2641 8.62933 14.7521 9.376C14.2614 10.1013 13.6854 10.7733 13.0241 11.392C12.3841 11.9893 11.6907 12.48 10.9441 12.864C11.3281 13.7173 11.7334 14.656 12.1601 15.68C12.6081 16.6827 13.0241 17.6427 13.4081 18.56C13.8347 19.6267 14.2721 20.6933 14.7201 21.76L9.76006 23.488C9.3334 22.016 8.9494 20.6293 8.60806 19.328C8.45873 18.7947 8.3094 18.2507 8.16006 17.696C8.01073 17.12 7.87206 16.5867 7.74406 16.096C7.61606 15.584 7.50939 15.136 7.42406 14.752C7.33873 14.368 7.28539 14.0693 7.26406 13.856L6.84806 13.984C6.72006 14.6667 6.56006 15.4987 6.36806 16.48C6.19739 17.4613 6.03739 18.4107 5.88806 19.328C5.69606 20.416 5.50406 21.536 5.31206 22.688L0.128061 24.032ZM7.64806 10.144C8.05339 10.1013 8.54406 9.93067 9.12006 9.632C9.7174 9.33333 10.2827 8.98133 10.8161 8.576C11.3494 8.14933 11.8081 7.712 12.1921 7.264C12.5761 6.816 12.7681 6.42133 12.7681 6.08C12.7681 5.84533 12.6934 5.664 12.5441 5.536C12.3947 5.38667 12.1814 5.28 11.9041 5.216C11.6481 5.13067 11.3601 5.07733 11.0401 5.056C10.7201 5.03467 10.3894 5.024 10.0481 5.024C9.81339 5.024 9.56806 5.03467 9.31206 5.056C9.07739 5.056 8.86406 5.056 8.67206 5.056L7.64806 10.144ZM16.0748 24.032L20.2668 1.28L30.3788 0.415998C30.2295 0.885332 30.1015 1.36533 29.9948 1.856C29.8881 2.26133 29.7815 2.688 29.6748 3.136C29.5895 3.56267 29.5148 3.94667 29.4508 4.288C29.2375 4.30933 28.9281 4.33067 28.5228 4.352C28.1388 4.352 27.7228 4.36267 27.2748 4.384C26.8268 4.384 26.3681 4.384 25.8988 4.384C25.4508 4.384 25.0561 4.384 24.7148 4.384L23.5948 10.112C24.2561 10.0693 24.8748 10.0373 25.4508 10.016C25.9201 9.99467 26.4001 9.984 26.8908 9.984C27.3815 9.984 27.7441 9.97333 27.9788 9.952C27.8935 10.5493 27.8081 11.136 27.7228 11.712C27.6588 12.288 27.5735 12.8747 27.4668 13.472C27.2535 13.4933 26.9015 13.5147 26.4108 13.536C25.9415 13.536 25.4615 13.5467 24.9708 13.568C24.4161 13.5893 23.8081 13.6107 23.1468 13.632L22.0588 19.52L26.7308 18.784L26.4108 22.432L16.0748 24.032ZM45.7331 11.808C45.5837 13.984 45.1571 15.8827 44.4531 17.504C43.7491 19.104 42.8957 20.448 41.8931 21.536C40.9117 22.624 39.8451 23.4347 38.6931 23.968C37.5624 24.5013 36.4851 24.768 35.4611 24.768C34.6717 24.768 33.9144 24.5973 33.1891 24.256C32.4851 23.9147 31.8664 23.4027 31.3331 22.72C30.8211 22.016 30.4157 21.1413 30.1171 20.096C29.8184 19.0507 29.6691 17.824 29.6691 16.416C29.6691 13.664 30.0637 11.264 30.8531 9.216C31.6424 7.168 32.6344 5.46133 33.8291 4.096C35.0451 2.73067 36.3357 1.71733 37.7011 1.056C39.0877 0.394666 40.3784 0.0639992 41.5731 0.0639992C42.4264 0.0639992 43.1624 0.213332 43.7811 0.511999C44.4211 0.810666 44.9437 1.216 45.3491 1.728C45.7544 2.21867 46.0424 2.80533 46.2131 3.488C46.4051 4.14933 46.5011 4.85333 46.5011 5.6L42.1171 6.432C41.9251 5.57867 41.6691 4.97067 41.3491 4.608C41.0291 4.24533 40.6664 4.064 40.2611 4.064C39.7277 4.064 39.1411 4.448 38.5011 5.216C37.8611 5.96267 37.2637 6.93333 36.7091 8.128C36.1544 9.32267 35.6851 10.6347 35.3011 12.064C34.9171 13.4933 34.7037 14.9013 34.6611 16.288C34.6611 17.6107 34.8531 18.56 35.2371 19.136C35.6424 19.6907 36.1544 19.968 36.7731 19.968C37.1997 19.968 37.6371 19.8613 38.0851 19.648C38.5544 19.4347 38.9704 19.136 39.3331 18.752C39.6957 18.3467 39.9944 17.888 40.2291 17.376C40.4851 16.8427 40.6237 16.2667 40.6451 15.648L37.2211 16.16L37.8291 12.992C38.8317 12.864 39.8131 12.736 40.7731 12.608C41.5837 12.5013 42.4371 12.3733 43.3331 12.224C44.2504 12.0747 45.0504 11.936 45.7331 11.808ZM51.3338 23.36C51.1418 23.36 50.7578 23.392 50.1818 23.456C49.6271 23.4987 49.0511 23.5627 48.4538 23.648C47.8565 23.712 47.3125 23.776 46.8218 23.84C46.3525 23.904 46.0965 23.9467 46.0538 23.968C46.2671 23.0507 46.4805 22.0373 46.6938 20.928C46.9285 19.7973 47.1631 18.624 47.3978 17.408C47.6325 16.1707 47.8565 14.9227 48.0698 13.664C48.2831 12.4053 48.4858 11.1893 48.6778 10.016C49.1258 7.28533 49.5738 4.48 50.0218 1.6L55.0138 0.799999C54.5231 3.65867 54.0431 6.464 53.5738 9.216C53.3818 10.3893 53.1791 11.6053 52.9658 12.864C52.7738 14.1227 52.5711 15.3707 52.3578 16.608C52.1658 17.8453 51.9845 19.0507 51.8138 20.224C51.6431 21.376 51.4831 22.4213 51.3338 23.36ZM68.1386 16.096C68.1386 17.2907 67.9039 18.3787 67.4346 19.36C66.9866 20.32 66.3679 21.152 65.5786 21.856C64.8106 22.56 63.8932 23.104 62.8266 23.488C61.7812 23.872 60.6506 24.064 59.4346 24.064C58.5812 24.064 57.7279 23.84 56.8746 23.392C56.0212 22.9227 55.1999 22.1867 54.4106 21.184L56.7786 16.544C56.9279 16.8213 57.1519 17.1093 57.4506 17.408C57.7492 17.6853 58.0799 17.9307 58.4426 18.144C58.8266 18.3573 59.1999 18.5387 59.5626 18.688C59.9466 18.816 60.2879 18.88 60.5866 18.88C60.8426 18.88 61.1092 18.8373 61.3866 18.752C61.6639 18.6667 61.9199 18.5387 62.1546 18.368C62.3892 18.1973 62.5706 18.0053 62.6986 17.792C62.8479 17.5573 62.9226 17.2907 62.9226 16.992C62.9226 16.48 62.7519 16.0107 62.4106 15.584C62.0906 15.136 61.6852 14.72 61.1946 14.336C60.7039 13.9307 60.1706 13.5253 59.5946 13.12C59.0186 12.7147 58.4852 12.288 57.9946 11.84C57.5252 11.392 57.1199 10.8907 56.7786 10.336C56.4372 9.78133 56.2666 9.16267 56.2666 8.48C56.2666 7.37067 56.5972 6.336 57.2586 5.376C57.9199 4.416 58.7412 3.59467 59.7226 2.912C60.7252 2.208 61.8132 1.65333 62.9866 1.248C64.1599 0.842666 65.2692 0.639999 66.3146 0.639999C66.8906 0.639999 67.4346 0.714666 67.9466 0.863998C68.4586 0.991999 68.8959 1.216 69.2586 1.536C69.6426 1.83467 69.9412 2.21867 70.1546 2.688C70.3892 3.15733 70.5066 3.744 70.5066 4.448C70.5066 4.74667 70.4746 5.04533 70.4106 5.344C70.3679 5.64267 70.3252 5.96267 70.2826 6.304L65.6426 7.648C65.6852 7.47733 65.7172 7.30667 65.7386 7.136C65.7812 6.96533 65.8026 6.79467 65.8026 6.624C65.8026 5.984 65.6852 5.52533 65.4506 5.248C65.2372 4.94933 64.9492 4.8 64.5866 4.8C64.4159 4.8 64.2026 4.864 63.9466 4.992C63.7119 5.12 63.4666 5.29067 63.2106 5.504C62.9759 5.696 62.7732 5.93067 62.6026 6.208C62.4319 6.48533 62.3466 6.784 62.3466 7.104C62.3466 7.616 62.4852 8.04267 62.7626 8.384C63.0612 8.72533 63.4239 9.04533 63.8506 9.344C64.2772 9.64267 64.7359 9.952 65.2266 10.272C65.7386 10.5707 66.2079 10.9653 66.6346 11.456C67.0612 11.9467 67.4132 12.5653 67.6906 13.312C67.9892 14.0373 68.1386 14.9653 68.1386 16.096ZM72.1926 24.032C72.6832 21.6853 73.1526 19.3707 73.6006 17.088C73.7926 16.128 73.9846 15.1253 74.1766 14.08C74.3686 13.0347 74.5499 12.0107 74.7206 11.008C74.9126 9.984 75.0726 9.00267 75.2006 8.064C75.3499 7.104 75.4779 6.22933 75.5846 5.44C75.0939 5.376 74.5926 5.35467 74.0806 5.376C73.5899 5.39733 73.0992 5.33333 72.6086 5.184C72.6299 4.84267 72.6406 4.448 72.6406 4C72.6406 3.552 72.6512 3.104 72.6726 2.656C72.6939 2.16533 72.7152 1.64267 72.7366 1.088C73.2912 1.13067 73.8459 1.16267 74.4006 1.184C74.9552 1.20533 75.5099 1.216 76.0646 1.216C77.1526 1.216 78.1979 1.19467 79.2006 1.152C80.2246 1.088 81.1632 1.024 82.0166 0.959999C82.8912 0.874666 83.7446 0.778666 84.5766 0.671999L84.2246 2.4C84.1179 2.89067 84.0112 3.392 83.9046 3.904C83.8192 4.416 83.7339 4.85333 83.6486 5.216C83.1792 5.344 82.6992 5.44 82.2086 5.504C81.7392 5.54667 81.2699 5.61067 80.8006 5.696C80.6512 6.42133 80.4912 7.232 80.3206 8.128C80.1499 9.00267 79.9792 9.92 79.8086 10.88C79.6592 11.8187 79.5099 12.7787 79.3606 13.76C79.2112 14.7413 79.0619 15.68 78.9126 16.576C78.5712 18.688 78.2512 20.8747 77.9526 23.136L72.1926 24.032ZM82.7623 24.032L86.9543 1.28L97.0663 0.415998C96.917 0.885332 96.789 1.36533 96.6823 1.856C96.5756 2.26133 96.469 2.688 96.3623 3.136C96.277 3.56267 96.2023 3.94667 96.1383 4.288C95.925 4.30933 95.6156 4.33067 95.2103 4.352C94.8263 4.352 94.4103 4.36267 93.9623 4.384C93.5143 4.384 93.0556 4.384 92.5863 4.384C92.1383 4.384 91.7436 4.384 91.4023 4.384L90.2823 10.112C90.9436 10.0693 91.5623 10.0373 92.1383 10.016C92.6076 9.99467 93.0876 9.984 93.5783 9.984C94.069 9.984 94.4316 9.97333 94.6663 9.952C94.581 10.5493 94.4956 11.136 94.4103 11.712C94.3463 12.288 94.261 12.8747 94.1543 13.472C93.941 13.4933 93.589 13.5147 93.0983 13.536C92.629 13.536 92.149 13.5467 91.6583 13.568C91.1036 13.5893 90.4956 13.6107 89.8343 13.632L88.7463 19.52L93.4183 18.784L93.0983 22.432L82.7623 24.032ZM95.1406 24.032C95.7166 21.1947 96.2712 18.4213 96.8046 15.712C96.9966 14.56 97.2099 13.3653 97.4446 12.128C97.6792 10.8693 97.8926 9.632 98.0846 8.416C98.2979 7.17867 98.4899 5.99467 98.6606 4.864C98.8526 3.712 99.0019 2.66667 99.1086 1.728C100.325 1.344 101.637 1.06667 103.045 0.895998C104.453 0.703999 105.85 0.608 107.237 0.608C108.069 0.608 108.751 0.703999 109.285 0.895998C109.839 1.088 110.266 1.36533 110.565 1.728C110.885 2.06933 111.109 2.47467 111.237 2.944C111.365 3.41333 111.429 3.936 111.429 4.512C111.429 5.36533 111.279 6.208 110.981 7.04C110.682 7.85067 110.277 8.62933 109.765 9.376C109.274 10.1013 108.698 10.7733 108.037 11.392C107.397 11.9893 106.703 12.48 105.957 12.864C106.341 13.7173 106.746 14.656 107.173 15.68C107.621 16.6827 108.037 17.6427 108.421 18.56C108.847 19.6267 109.285 20.6933 109.733 21.76L104.773 23.488C104.346 22.1227 103.962 20.8427 103.621 19.648C103.471 19.1573 103.322 18.656 103.173 18.144C103.023 17.6107 102.885 17.1093 102.757 16.64C102.629 16.1707 102.522 15.7547 102.437 15.392C102.351 15.008 102.298 14.6987 102.277 14.464L101.861 14.592C101.733 15.2747 101.573 16.0747 101.381 16.992C101.21 17.9093 101.05 18.7947 100.901 19.648C100.709 20.6507 100.517 21.664 100.325 22.688L95.1406 24.032ZM102.661 10.144C103.066 10.1013 103.557 9.93067 104.133 9.632C104.73 9.33333 105.295 8.98133 105.829 8.576C106.362 8.14933 106.821 7.712 107.205 7.264C107.589 6.816 107.781 6.42133 107.781 6.08C107.781 5.84533 107.706 5.664 107.557 5.536C107.407 5.38667 107.194 5.28 106.917 5.216C106.661 5.13067 106.373 5.07733 106.053 5.056C105.733 5.03467 105.402 5.024 105.061 5.024C104.826 5.024 104.581 5.03467 104.325 5.056C104.09 5.056 103.877 5.056 103.685 5.056L102.661 10.144ZM118.873 24.16C119.471 21.152 120.047 18.2187 120.601 15.36C120.815 14.1653 121.039 12.9173 121.273 11.616C121.529 10.2933 121.764 9.00267 121.977 7.744C122.191 6.464 122.383 5.23733 122.553 4.064C122.745 2.86933 122.895 1.78133 123.001 0.799999C123.663 0.757332 124.303 0.714665 124.921 0.671999C125.476 0.629333 126.041 0.597333 126.617 0.575998C127.193 0.533332 127.705 0.490665 128.153 0.447998C128.431 2.09067 128.676 3.65867 128.889 5.152C128.996 5.792 129.103 6.464 129.209 7.168C129.337 7.85067 129.455 8.512 129.561 9.152C129.668 9.792 129.775 10.4107 129.881 11.008C129.988 11.584 130.095 12.096 130.201 12.544C130.287 12.096 130.383 11.584 130.489 11.008C130.596 10.4107 130.713 9.792 130.841 9.152C130.969 8.49067 131.097 7.81867 131.225 7.136C131.375 6.45333 131.513 5.792 131.641 5.152C131.961 3.65867 132.292 2.10133 132.633 0.48L136.537 -1.90735e-06C135.812 3.2 135.172 6.22933 134.617 9.088C134.361 10.3253 134.105 11.5733 133.849 12.832C133.615 14.0907 133.391 15.3067 133.177 16.48C132.964 17.6533 132.783 18.7413 132.633 19.744C132.484 20.7253 132.367 21.5573 132.281 22.24C132.217 22.24 131.961 22.2933 131.513 22.4C131.087 22.4853 130.585 22.592 130.009 22.72C129.455 22.848 128.889 22.9867 128.313 23.136C127.759 23.264 127.343 23.3707 127.065 23.456C126.916 21.728 126.756 20.0853 126.585 18.528C126.521 17.8667 126.447 17.184 126.361 16.48C126.276 15.776 126.191 15.104 126.105 14.464C126.041 13.824 125.967 13.2267 125.881 12.672C125.817 12.096 125.753 11.616 125.689 11.232C125.625 11.616 125.54 12.0853 125.433 12.64C125.327 13.1947 125.22 13.792 125.113 14.432C125.007 15.0507 124.9 15.7013 124.793 16.384C124.687 17.0453 124.569 17.696 124.441 18.336C124.164 19.8507 123.865 21.4293 123.545 23.072L118.873 24.16ZM152.701 6.688C152.701 8.43733 152.509 10.0907 152.125 11.648C151.763 13.184 151.272 14.6027 150.653 15.904C150.035 17.184 149.309 18.336 148.477 19.36C147.667 20.3627 146.813 21.2267 145.917 21.952C145.021 22.656 144.115 23.2 143.197 23.584C142.28 23.9467 141.405 24.128 140.573 24.128C139.869 24.128 139.229 24 138.653 23.744C138.077 23.4667 137.576 23.072 137.149 22.56C136.723 22.0267 136.381 21.3547 136.125 20.544C135.891 19.712 135.773 18.72 135.773 17.568C135.773 16.3733 135.923 15.1147 136.221 13.792C136.52 12.4693 136.925 11.1573 137.437 9.856C137.949 8.55467 138.579 7.31733 139.325 6.144C140.072 4.97067 140.893 3.936 141.789 3.04C142.685 2.12267 143.645 1.39733 144.669 0.863998C145.693 0.330666 146.76 0.0639992 147.869 0.0639992C148.829 0.0639992 149.619 0.266666 150.237 0.671999C150.877 1.056 151.368 1.568 151.709 2.208C152.072 2.82667 152.328 3.53067 152.477 4.32C152.627 5.10933 152.701 5.89867 152.701 6.688ZM140.541 16.736C140.541 16.9707 140.584 17.216 140.669 17.472C140.755 17.728 140.872 17.952 141.021 18.144C141.171 18.336 141.352 18.5067 141.565 18.656C141.8 18.784 142.045 18.848 142.301 18.848C143.261 18.848 144.115 18.5173 144.861 17.856C145.608 17.1947 146.227 16.384 146.717 15.424C147.208 14.464 147.581 13.44 147.837 12.352C148.115 11.264 148.253 10.272 148.253 9.376C148.253 9.12 148.232 8.84267 148.189 8.544C148.168 8.24533 148.104 7.968 147.997 7.712C147.912 7.456 147.763 7.24267 147.549 7.072C147.357 6.88 147.091 6.784 146.749 6.784C146.067 6.784 145.437 6.95467 144.861 7.296C144.285 7.63733 143.763 8.096 143.293 8.672C142.845 9.22667 142.451 9.86667 142.109 10.592C141.768 11.296 141.469 12.0213 141.213 12.768C140.979 13.4933 140.808 14.208 140.701 14.912C140.595 15.616 140.541 16.224 140.541 16.736ZM153.475 24.128L155.907 1.408C156.909 1.36533 157.848 1.26933 158.723 1.12C159.619 0.949332 160.504 0.831999 161.379 0.768C161.379 0.789333 161.347 1.01333 161.283 1.44C161.219 1.84533 161.133 2.38933 161.027 3.072C160.92 3.73333 160.803 4.49067 160.675 5.344C160.547 6.176 160.355 7.328 160.099 8.8C159.864 10.272 159.544 12.3093 159.139 14.912H159.619C160.173 12.9493 160.632 11.3493 160.995 10.112C161.357 8.85333 161.645 7.84 161.859 7.072C162.093 6.28267 162.307 5.52533 162.499 4.8C162.712 4.07467 162.904 3.40267 163.075 2.784C163.267 2.16533 163.416 1.64267 163.523 1.216H163.811C164.195 1.216 164.579 1.19467 164.963 1.152C165.368 1.10933 165.741 1.06667 166.083 1.024C166.445 0.959999 166.819 0.885333 167.203 0.799999C167.16 0.991999 167.107 1.38667 167.043 1.984C167 2.58133 166.936 3.30667 166.851 4.16C166.765 4.992 166.68 5.92 166.595 6.944C166.509 7.94667 166.424 8.93867 166.339 9.92C166.253 10.88 166.168 11.7973 166.083 12.672C166.019 13.5467 165.955 14.2933 165.891 14.912H166.467L169.507 1.152C170.232 1.04533 170.947 0.949332 171.651 0.863998C172.269 0.778665 172.909 0.693332 173.571 0.608C174.232 0.522666 174.819 0.426666 175.331 0.32C175.011 1.216 174.691 2.21867 174.371 3.328C174.051 4.416 173.72 5.568 173.379 6.784C173.037 8 172.707 9.22667 172.387 10.464C172.088 11.7013 171.789 12.896 171.491 14.048C170.808 16.7787 170.147 19.584 169.507 22.464L162.275 23.68L163.683 11.328H163.299L160.131 22.944L153.475 24.128ZM179.445 16.416C178.827 16.416 178.208 16.4373 177.589 16.48C176.971 16.5227 176.352 16.5653 175.733 16.608C176.395 13.984 177.035 11.3707 177.653 8.768C178.293 6.16533 178.955 3.552 179.637 0.927999C180.043 0.863999 180.501 0.799999 181.013 0.735998C181.547 0.671999 182.08 0.597333 182.613 0.511999C183.147 0.426666 183.659 0.351999 184.149 0.287998C184.661 0.223999 185.088 0.159999 185.429 0.0959988C184.277 2.784 183.221 5.49333 182.261 8.224C181.323 10.9333 180.384 13.664 179.445 16.416ZM179.765 21.44C179.765 21.8453 179.669 22.2507 179.477 22.656C179.307 23.0613 179.051 23.424 178.709 23.744C178.368 24.0427 177.941 24.2773 177.429 24.448C176.917 24.64 176.331 24.736 175.669 24.736C175.221 24.736 174.816 24.6507 174.453 24.48C174.091 24.3093 173.792 24.0853 173.557 23.808C173.344 23.5093 173.173 23.1787 173.045 22.816C172.917 22.4533 172.853 22.0907 172.853 21.728C172.853 21.3227 172.917 20.9387 173.045 20.576C173.173 20.192 173.365 19.8613 173.621 19.584C173.899 19.2853 174.229 19.04 174.613 18.848C175.019 18.656 175.499 18.56 176.053 18.56C177.291 18.56 178.219 18.8587 178.837 19.456C179.456 20.032 179.765 20.6933 179.765 21.44Z" fill="black"/>
</svg>
