<svg width="1215" height="78" viewBox="0 0 1215 78" fill="none" xmlns="http://www.w3.org/2000/svg">
<path d="M23.9969 101.064C30.0103 95.5623 34.8915 87.9052 38.6406 78.0923L43.6711 82.2221C41.7533 87.41 39.0701 92.3022 35.6215 96.8986C32.1729 101.495 28.37 105.259 24.2129 108.191L18.1307 103.37C18.3411 102.389 18.6738 100.96 19.1287 99.0843C16.9893 101.846 14.885 104.18 12.816 106.086C12.0899 106.772 11.3346 107.46 10.5499 108.15L3.63348 102.581C4.63284 95.6518 6.71965 89.2648 9.89391 83.4202C8.49583 84.1728 6.93088 85.0962 5.19906 86.1904L2.76823 81.2565C5.66221 79.3933 7.79602 78.1301 9.16965 77.467C10.571 76.7729 11.7891 76.2211 12.8242 75.8116L18.0156 80.4614C14.1867 87.2233 11.5758 93.9623 10.1828 100.678C16.0498 95.185 21.4453 87.2645 26.3694 76.9169L31.1706 80.883L30.4596 82.3764C28.5392 86.4481 27.2008 89.6211 26.4447 91.8954C25.4424 95.0352 24.6265 98.0914 23.9969 101.064ZM59.6294 96.2382C57.3846 94.9517 55.3423 93.8743 53.5025 93.0061C51.2741 97.8879 49.4722 102.247 48.097 106.083L42.698 101.665C43.9835 98.3333 45.6728 94.5974 47.7657 90.4575L44.2031 88.9791L46.9077 83.6744L50.5142 85.1504C52.967 80.6088 55.1875 76.9172 57.1757 74.0756L62.155 78.076C61.0412 79.7237 59.1025 82.9298 56.3388 87.6942C58.2714 88.6454 60.2372 89.6682 62.2364 90.7627C66.1079 83.1758 69.2975 77.6094 71.8051 74.0636L76.7845 78.064C73.5847 82.9112 70.5433 88.2344 67.6603 94.0336L71.547 96.5958L68.3959 101.793L65.146 99.5921C64.0236 102.151 63.1381 104.477 62.4894 106.569L57.1344 102.148C57.7503 100.528 58.5819 98.558 59.6294 96.2382ZM85.4309 91.4691C82.4087 95.807 80.0756 100.122 78.4317 104.413L73.3987 100.24C75.1058 96.5615 77.4045 92.6893 80.2947 88.623L77.5765 87.2744L81.0936 82.3216L84.0363 83.746C87.4 79.7418 90.682 76.3884 93.8823 73.6857L97.2954 76.4503C97.6348 74.6102 97.8879 72.8043 98.0548 71.0324L103.808 75.475C102.563 84.3568 99.5815 93.9658 94.8624 104.302L89.6025 100.009C90.4462 98.2584 91.0514 96.9765 91.4179 96.1631C89.7087 94.4652 87.713 92.9005 85.4309 91.4691ZM89.0064 86.7775C90.6541 87.8913 92.1757 89.1148 93.5711 90.4482C95.1127 85.8979 96.2155 81.9153 96.8795 78.5003C94.4133 80.6631 91.7889 83.4222 89.0064 86.7775ZM107.588 98.0934C109.13 93.5431 110.863 89.5258 112.786 86.0415C114.737 82.5263 116.592 79.3983 118.351 76.6575C114.775 75.738 111.636 75.0147 108.933 74.4878L111.906 69.2565C118.418 70.132 125.951 71.9647 134.507 74.7548L131.809 80.9844C127.135 79.3321 123.096 78.0121 119.693 77.0243L123.611 80.1577C120.494 84.9122 117.775 90.2176 115.453 96.0741C114.65 98.0278 113.828 100.174 112.987 102.511L107.588 98.0934ZM170.213 93.016C176.226 87.5146 181.108 79.8574 184.857 70.0445L189.887 74.1743C187.97 79.3622 185.286 84.2544 181.838 88.8509C178.389 93.4474 174.586 97.2114 170.429 100.143L164.347 95.3219C164.557 94.3409 164.89 92.9124 165.345 91.0366C163.205 93.7983 161.101 96.1322 159.032 98.0381C158.306 98.7244 157.551 99.4122 156.766 100.102L149.85 94.5334C150.849 87.604 152.936 81.217 156.11 75.3724C154.712 76.1251 153.147 77.0485 151.415 78.1426L148.984 73.2088C151.878 71.3456 154.012 70.0824 155.386 69.4192C156.787 68.7252 158.005 68.1734 159.04 67.7639L164.232 72.4136C160.403 79.1756 157.792 85.9146 156.399 92.6306C162.266 87.1372 167.661 79.2167 172.586 68.8692L177.387 72.8353L176.676 74.3286C174.755 78.4003 173.417 81.5733 172.661 83.8477C171.659 86.9875 170.843 90.0436 170.213 93.016ZM196.074 90.7994C200.106 91.4589 204.601 91.7402 209.561 91.6435L208.072 97.4101C203.644 97.5656 198.926 97.2378 193.916 96.4265L188.656 92.1331C190.447 87.3047 193.204 81.8797 196.926 75.858C197.977 74.1257 199.007 72.5707 200.019 71.193C197.951 70.9837 196.258 70.9153 194.94 70.9878L196.705 65.4264C204.949 65.237 212.339 66.3286 218.874 68.701L216.723 75.2531C212.184 73.3878 207.074 72.0826 201.393 71.3377L205.343 74.2491C204.03 76.0252 202.851 77.8234 201.806 79.6436C204.741 80.1283 207.651 80.4235 210.536 80.5292L208.866 86.2175C204.341 85.6734 201.023 85.1803 198.913 84.7382C197.902 86.6447 196.956 88.6651 196.074 90.7994ZM259.637 76.1521C256.379 73.5405 253.358 71.4888 250.573 69.9969C247.671 71.7136 245.166 74.4955 243.057 78.3426C240.866 82.3116 239.733 86.2812 239.658 90.2514C244.187 88.7389 247.94 85.4036 250.917 80.2455C251.907 78.4871 252.753 76.5016 253.453 74.2891L259.637 76.1521C257.978 81.7664 255.65 86.169 252.653 89.3599C249.406 92.8289 245.102 95.225 239.74 96.5484L232.909 90.9313C233.262 81.8635 236.567 74.3959 242.825 68.5285C245.003 66.4697 247.59 64.6381 250.587 63.0336C254.592 64.8109 258.159 67.1704 261.288 70.1122L259.637 76.1521ZM260.455 89.7677C262.488 84.5441 265.46 78.7547 269.37 72.3995C270.529 70.5143 271.615 68.8828 272.626 67.5052C270.558 67.2959 268.865 67.2275 267.547 67.3L269.268 61.741C277.103 61.5742 284.282 62.5891 290.808 64.7859L288.654 71.294C284.304 69.6533 279.419 68.4386 274 67.6499L277.95 70.5612C276.671 72.4236 275.304 74.5406 273.849 76.9122C275.655 77.1653 278.598 77.8112 282.68 78.8498L280.823 84.3281L275.366 82.8658C273.996 82.5299 272.554 82.2127 271.039 81.9142C268.754 86.2997 266.98 90.3633 265.717 94.1051L260.455 89.7677ZM286.111 88.3556C288.145 83.1319 291.116 77.3425 295.026 70.9874C296.186 69.1022 297.271 67.4707 298.282 66.0931C296.214 65.8837 294.521 65.8153 293.203 65.8879L294.924 60.3289C302.759 60.1621 309.939 61.177 316.464 63.3737L314.311 69.8819C309.961 68.2412 305.076 67.0264 299.656 66.2378L303.606 69.1491C302.328 71.0115 300.961 73.1285 299.505 75.5001C301.311 75.7532 304.255 76.3991 308.337 77.4376L306.479 82.916L301.022 81.4537C299.653 81.1178 298.21 80.8006 296.696 80.502C294.411 84.8876 292.637 88.9512 291.374 92.6929L286.111 88.3556ZM320.109 83.9725C324.141 84.632 328.636 84.9133 333.596 84.8166L332.107 90.5832C327.679 90.7387 322.961 90.4109 317.951 89.5996L312.691 85.3062C314.482 80.4778 317.239 75.0528 320.961 69.0311C322.012 67.2988 323.042 65.7438 324.054 64.3661C321.986 64.1568 320.293 64.0884 318.975 64.1609L320.74 58.5995C328.984 58.4101 336.374 59.5017 342.909 61.8741L340.758 68.4262C336.219 66.5609 331.109 65.2557 325.428 64.5108L329.378 67.4222C328.065 69.1983 326.886 70.9965 325.841 72.8167C328.776 73.3014 331.686 73.5966 334.571 73.7023L332.901 79.3906C328.376 78.8465 325.058 78.3534 322.948 77.9113C321.937 79.8178 320.99 81.8382 320.109 83.9725ZM356.355 78.4522C358.267 81.1672 360.525 83.7604 363.129 86.2317L357.494 90.3316C354.607 86.9945 351.786 82.9782 349.031 78.2825C347.202 81.8791 345.577 85.7142 344.156 89.7878L338.94 85.492C340.663 81.0492 342.231 77.511 343.643 74.8774C345.932 70.5505 348.349 66.7011 350.896 63.3294C348.855 63.0892 347.015 63.0142 345.375 63.1045L346.976 57.7724C352.492 57.6451 357.321 58.0991 361.461 59.1344C363.01 59.5192 364.579 60.0057 366.168 60.5939L370.011 67.9619C367.241 72.0803 362.689 75.5771 356.355 78.4522ZM350.626 75.2422C354.525 73.5 357.964 71.3865 360.941 68.9018C361.954 68.0822 362.819 67.2561 363.537 66.4234C360.674 65.1121 356.919 64.1436 352.272 63.518L356.22 66.3854C354.041 69.5019 352.176 72.4541 350.626 75.2422Z" fill="#191E29"/>
<path d="M444.997 79.0638C451.01 73.5623 455.892 65.9052 459.641 56.0923L464.671 60.2221C462.753 65.41 460.07 70.3022 456.622 74.8986C453.173 79.4951 449.37 83.2591 445.213 86.1907L439.131 81.3697C439.341 80.3886 439.674 78.9602 440.129 77.0843C437.989 79.8461 435.885 82.1799 433.816 84.0859C433.09 84.7721 432.335 85.46 431.55 86.1495L424.633 80.5812C425.633 73.6518 427.72 67.2648 430.894 61.4202C429.496 62.1728 427.931 63.0962 426.199 64.1904L423.768 59.2565C426.662 57.3933 428.796 56.1301 430.17 55.467C431.571 54.7729 432.789 54.2211 433.824 53.8116L439.016 58.4614C435.187 65.2233 432.576 71.9623 431.183 78.6784C437.05 73.185 442.445 65.2645 447.369 54.9169L452.171 58.883L451.46 60.3764C449.539 64.4481 448.201 67.6211 447.445 69.8954C446.442 73.0352 445.626 76.0914 444.997 79.0638ZM480.629 74.2382C478.385 72.9517 476.342 71.8743 474.502 71.0061C472.274 75.8879 470.472 80.2469 469.097 84.0829L463.698 79.6649C464.984 76.3333 466.673 72.5974 468.766 68.4575L465.203 66.9791L467.908 61.6744L471.514 63.1504C473.967 58.6088 476.187 54.9172 478.176 52.0756L483.155 56.076C482.041 57.7237 480.103 60.9298 477.339 65.6942C479.271 66.6454 481.237 67.6682 483.236 68.7627C487.108 61.1758 490.298 55.6094 492.805 52.0636L497.784 56.064C494.585 60.9112 491.543 66.2344 488.66 72.0336L492.547 74.5958L489.396 79.7929L486.146 77.5921C485.024 80.151 484.138 82.4765 483.489 84.5687L478.134 80.1483C478.75 78.528 479.582 76.558 480.629 74.2382ZM506.431 69.4691C503.409 73.807 501.076 78.1218 499.432 82.4133L494.399 78.2396C496.106 74.5615 498.404 70.6893 501.295 66.623L498.576 65.2744L502.094 60.3216L505.036 61.746C508.4 57.7418 511.682 54.3884 514.882 51.6857L518.295 54.4503C518.635 52.6102 518.888 50.8043 519.055 49.0324L524.808 53.475C523.563 62.3568 520.581 71.9658 515.862 82.3021L510.602 78.0087C511.446 76.2584 512.051 74.9765 512.418 74.1631C510.709 72.4652 508.713 70.9005 506.431 69.4691ZM510.006 64.7775C511.654 65.8913 513.176 67.1148 514.571 68.4482C516.113 63.8979 517.215 59.9153 517.879 56.5003C515.413 58.6631 512.789 61.4222 510.006 64.7775ZM528.588 76.0934C530.13 71.5431 531.863 67.5258 533.786 64.0415C535.737 60.5263 537.592 57.3983 539.351 54.6575C535.775 53.738 532.636 53.0147 529.933 52.4878L532.906 47.2565C539.418 48.132 546.951 49.9647 555.507 52.7548L552.809 58.9844C548.135 57.3321 544.096 56.0121 540.693 55.0243L544.611 58.1577C541.494 62.9122 538.775 68.2176 536.453 74.0741C535.65 76.0278 534.828 78.1736 533.987 80.5113L528.588 76.0934ZM591.213 71.016C597.226 65.5146 602.108 57.8574 605.857 48.0445L610.887 52.1743C608.97 57.3622 606.286 62.2544 602.838 66.8509C599.389 71.4474 595.586 75.2114 591.429 78.1429L585.347 73.3219C585.557 72.3409 585.89 70.9124 586.345 69.0366C584.205 71.7983 582.101 74.1322 580.032 76.0381C579.306 76.7244 578.551 77.4122 577.766 78.1017L570.85 72.5334C571.849 65.604 573.936 59.217 577.11 53.3724C575.712 54.1251 574.147 55.0485 572.415 56.1426L569.984 51.2088C572.878 49.3456 575.012 48.0824 576.386 47.4192C577.787 46.7252 579.005 46.1734 580.04 45.7639L585.232 50.4136C581.403 57.1756 578.792 63.9146 577.399 70.6306C583.266 65.1372 588.661 57.2167 593.586 46.8692L598.387 50.8353L597.676 52.3286C595.755 56.4003 594.417 59.5733 593.661 61.8477C592.659 64.9875 591.843 68.0436 591.213 71.016ZM617.074 68.7994C621.106 69.4589 625.601 69.7402 630.561 69.6435L629.072 75.4101C624.644 75.5656 619.926 75.2378 614.916 74.4265L609.656 70.1331C611.447 65.3047 614.204 59.8797 617.926 53.858C618.977 52.1257 620.007 50.5707 621.019 49.193C618.951 48.9837 617.258 48.9153 615.94 48.9878L617.705 43.4264C625.949 43.237 633.339 44.3286 639.874 46.701L637.723 53.2531C633.184 51.3878 628.074 50.0826 622.393 49.3377L626.343 52.2491C625.03 54.0252 623.851 55.8234 622.806 57.6436C625.741 58.1283 628.651 58.4235 631.536 58.5292L629.866 64.2175C625.341 63.6734 622.023 63.1803 619.913 62.7382C618.902 64.6447 617.956 66.6651 617.074 68.7994ZM680.637 54.1521C677.379 51.5405 674.358 49.4888 671.573 47.9969C668.671 49.7136 666.166 52.4955 664.057 56.3426C661.866 60.3116 660.733 64.2812 660.658 68.2514C665.187 66.7389 668.94 63.4036 671.917 58.2455C672.907 56.4871 673.753 54.5016 674.453 52.2891L680.637 54.1521C678.978 59.7664 676.65 64.169 673.653 67.3599C670.406 70.8289 666.102 73.225 660.74 74.5484L653.909 68.9313C654.262 59.8635 657.567 52.3959 663.825 46.5285C666.003 44.4697 668.59 42.6381 671.587 41.0336C675.592 42.8109 679.159 45.1704 682.288 48.1122L680.637 54.1521ZM681.455 67.7677C683.488 62.5441 686.46 56.7547 690.37 50.3995C691.529 48.5143 692.615 46.8828 693.626 45.5052C691.558 45.2959 689.865 45.2275 688.547 45.3L690.268 39.741C698.103 39.5742 705.282 40.5891 711.808 42.7859L709.654 49.294C705.304 47.6533 700.419 46.4386 695 45.6499L698.95 48.5612C697.671 50.4236 696.304 52.5406 694.849 54.9122C696.655 55.1653 699.598 55.8112 703.68 56.8498L701.823 62.3281L696.366 60.8658C694.996 60.5299 693.554 60.2127 692.039 59.9142C689.754 64.2997 687.98 68.3633 686.717 72.1051L681.455 67.7677ZM707.111 66.3556C709.145 61.1319 712.116 55.3425 716.026 48.9874C717.186 47.1022 718.271 45.4707 719.282 44.0931C717.214 43.8837 715.521 43.8153 714.203 43.8879L715.924 38.3289C723.759 38.1621 730.939 39.177 737.464 41.3737L735.311 47.8819C730.961 46.2412 726.076 45.0264 720.656 44.2378L724.606 47.1491C723.328 49.0115 721.961 51.1285 720.505 53.5001C722.311 53.7532 725.255 54.3991 729.337 55.4376L727.479 60.916L722.022 59.4537C720.653 59.1178 719.21 58.8006 717.696 58.502C715.411 62.8876 713.637 66.9512 712.374 70.6929L707.111 66.3556ZM741.109 61.9725C745.141 62.632 749.636 62.9133 754.596 62.8166L753.107 68.5832C748.679 68.7387 743.961 68.4109 738.951 67.5996L733.691 63.3062C735.482 58.4778 738.239 53.0528 741.961 47.0311C743.012 45.2988 744.042 43.7438 745.054 42.3661C742.986 42.1568 741.293 42.0884 739.975 42.1609L741.74 36.5995C749.984 36.4101 757.374 37.5017 763.909 39.8741L761.758 46.4262C757.219 44.5609 752.109 43.2557 746.428 42.5108L750.378 45.4222C749.065 47.1983 747.886 48.9965 746.841 50.8167C749.776 51.3014 752.686 51.5966 755.571 51.7023L753.901 57.3906C749.376 56.8465 746.058 56.3534 743.948 55.9113C742.937 57.8178 741.99 59.8382 741.109 61.9725ZM777.355 56.4522C779.267 59.1672 781.525 61.7604 784.129 64.2317L778.494 68.3316C775.607 64.9945 772.786 60.9782 770.031 56.2825C768.202 59.8791 766.577 63.7142 765.156 67.7878L759.94 63.492C761.663 59.0492 763.231 55.511 764.643 52.8774C766.932 48.5505 769.349 44.7011 771.896 41.3294C769.855 41.0892 768.015 41.0142 766.375 41.1045L767.976 35.7724C773.492 35.6451 778.321 36.0991 782.461 37.1344C784.01 37.5192 785.579 38.0057 787.168 38.5939L791.011 45.9619C788.241 50.0803 783.689 53.5771 777.355 56.4522ZM771.626 53.2422C775.525 51.5 778.964 49.3865 781.941 46.9018C782.954 46.0822 783.819 45.2561 784.537 44.4234C781.674 43.1121 777.919 42.1436 773.272 41.518L777.22 44.3854C775.041 47.5019 773.176 50.4541 771.626 53.2422Z" fill="#191E29"/>
<circle cx="399.5" cy="74.5" r="7.5" fill="#191E29"/>
<circle cx="819.5" cy="51.5" r="7.5" fill="#191E29"/>
<path d="M864.997 56.0638C871.01 50.5623 875.892 42.9052 879.641 33.0923L884.671 37.2221C882.753 42.41 880.07 47.3022 876.622 51.8986C873.173 56.4951 869.37 60.2591 865.213 63.1907L859.131 58.3697C859.341 57.3886 859.674 55.9602 860.129 54.0843C857.989 56.8461 855.885 59.1799 853.816 61.0859C853.09 61.7721 852.335 62.46 851.55 63.1495L844.633 57.5812C845.633 50.6518 847.72 44.2648 850.894 38.4202C849.496 39.1728 847.931 40.0962 846.199 41.1904L843.768 36.2565C846.662 34.3933 848.796 33.1301 850.17 32.467C851.571 31.7729 852.789 31.2211 853.824 30.8116L859.016 35.4614C855.187 42.2233 852.576 48.9623 851.183 55.6784C857.05 50.185 862.445 42.2645 867.369 31.9169L872.171 35.883L871.46 37.3764C869.539 41.4481 868.201 44.6211 867.445 46.8954C866.442 50.0352 865.626 53.0914 864.997 56.0638ZM900.629 51.2382C898.385 49.9517 896.342 48.8743 894.502 48.0061C892.274 52.8879 890.472 57.2469 889.097 61.0829L883.698 56.6649C884.984 53.3333 886.673 49.5974 888.766 45.4575L885.203 43.9791L887.908 38.6744L891.514 40.1504C893.967 35.6088 896.187 31.9172 898.176 29.0756L903.155 33.076C902.041 34.7237 900.103 37.9298 897.339 42.6942C899.271 43.6454 901.237 44.6682 903.236 45.7627C907.108 38.1758 910.298 32.6094 912.805 29.0636L917.784 33.064C914.585 37.9112 911.543 43.2344 908.66 49.0336L912.547 51.5958L909.396 56.7929L906.146 54.5921C905.024 57.151 904.138 59.4765 903.489 61.5687L898.134 57.1483C898.75 55.528 899.582 53.558 900.629 51.2382ZM926.431 46.4691C923.409 50.807 921.076 55.1218 919.432 59.4133L914.399 55.2396C916.106 51.5615 918.404 47.6893 921.295 43.623L918.576 42.2744L922.094 37.3216L925.036 38.746C928.4 34.7418 931.682 31.3884 934.882 28.6857L938.295 31.4503C938.635 29.6102 938.888 27.8043 939.055 26.0324L944.808 30.475C943.563 39.3568 940.581 48.9658 935.862 59.3021L930.602 55.0087C931.446 53.2584 932.051 51.9765 932.418 51.1631C930.709 49.4652 928.713 47.9005 926.431 46.4691ZM930.006 41.7775C931.654 42.8913 933.176 44.1148 934.571 45.4482C936.113 40.8979 937.215 36.9153 937.879 33.5003C935.413 35.6631 932.789 38.4222 930.006 41.7775ZM948.588 53.0934C950.13 48.5431 951.863 44.5258 953.786 41.0415C955.737 37.5263 957.592 34.3983 959.351 31.6575C955.775 30.738 952.636 30.0147 949.933 29.4878L952.906 24.2565C959.418 25.132 966.951 26.9647 975.507 29.7548L972.809 35.9844C968.135 34.3321 964.096 33.0121 960.693 32.0243L964.611 35.1577C961.494 39.9122 958.775 45.2176 956.453 51.0741C955.65 53.0278 954.828 55.1736 953.987 57.5113L948.588 53.0934ZM1011.21 48.016C1017.23 42.5146 1022.11 34.8574 1025.86 25.0445L1030.89 29.1743C1028.97 34.3622 1026.29 39.2544 1022.84 43.8509C1019.39 48.4474 1015.59 52.2114 1011.43 55.1429L1005.35 50.3219C1005.56 49.3409 1005.89 47.9124 1006.34 46.0366C1004.21 48.7983 1002.1 51.1322 1000.03 53.0381C999.306 53.7244 998.551 54.4122 997.766 55.1017L990.85 49.5334C991.849 42.604 993.936 36.217 997.11 30.3724C995.712 31.1251 994.147 32.0485 992.415 33.1426L989.984 28.2088C992.878 26.3456 995.012 25.0824 996.386 24.4192C997.787 23.7252 999.005 23.1734 1000.04 22.7639L1005.23 27.4136C1001.4 34.1756 998.792 40.9146 997.399 47.6306C1003.27 42.1372 1008.66 34.2167 1013.59 23.8692L1018.39 27.8353L1017.68 29.3286C1015.76 33.4003 1014.42 36.5733 1013.66 38.8477C1012.66 41.9875 1011.84 45.0436 1011.21 48.016ZM1037.07 45.7994C1041.11 46.4589 1045.6 46.7402 1050.56 46.6435L1049.07 52.4101C1044.64 52.5656 1039.93 52.2378 1034.92 51.4265L1029.66 47.1331C1031.45 42.3047 1034.2 36.8797 1037.93 30.858C1038.98 29.1257 1040.01 27.5707 1041.02 26.193C1038.95 25.9837 1037.26 25.9153 1035.94 25.9878L1037.7 20.4264C1045.95 20.237 1053.34 21.3286 1059.87 23.701L1057.72 30.2531C1053.18 28.3878 1048.07 27.0826 1042.39 26.3377L1046.34 29.2491C1045.03 31.0252 1043.85 32.8234 1042.81 34.6436C1045.74 35.1283 1048.65 35.4235 1051.54 35.5292L1049.87 41.2175C1045.34 40.6734 1042.02 40.1803 1039.91 39.7382C1038.9 41.6447 1037.96 43.6651 1037.07 45.7994ZM1100.64 31.1521C1097.38 28.5405 1094.36 26.4888 1091.57 24.9969C1088.67 26.7136 1086.17 29.4955 1084.06 33.3426C1081.87 37.3116 1080.73 41.2812 1080.66 45.2514C1085.19 43.7389 1088.94 40.4036 1091.92 35.2455C1092.91 33.4871 1093.75 31.5016 1094.45 29.2891L1100.64 31.1521C1098.98 36.7664 1096.65 41.169 1093.65 44.3599C1090.41 47.8289 1086.1 50.225 1080.74 51.5484L1073.91 45.9313C1074.26 36.8635 1077.57 29.3959 1083.82 23.5285C1086 21.4697 1088.59 19.6381 1091.59 18.0336C1095.59 19.8109 1099.16 22.1704 1102.29 25.1122L1100.64 31.1521ZM1101.45 44.7677C1103.49 39.5441 1106.46 33.7547 1110.37 27.3995C1111.53 25.5143 1112.61 23.8828 1113.63 22.5052C1111.56 22.2959 1109.86 22.2275 1108.55 22.3L1110.27 16.741C1118.1 16.5742 1125.28 17.5891 1131.81 19.7859L1129.65 26.294C1125.3 24.6533 1120.42 23.4386 1115 22.6499L1118.95 25.5612C1117.67 27.4236 1116.3 29.5406 1114.85 31.9122C1116.65 32.1653 1119.6 32.8112 1123.68 33.8498L1121.82 39.3281L1116.37 37.8658C1115 37.5299 1113.55 37.2127 1112.04 36.9142C1109.75 41.2997 1107.98 45.3633 1106.72 49.1051L1101.45 44.7677ZM1127.11 43.3556C1129.14 38.1319 1132.12 32.3425 1136.03 25.9874C1137.19 24.1022 1138.27 22.4707 1139.28 21.0931C1137.21 20.8837 1135.52 20.8153 1134.2 20.8879L1135.92 15.3289C1143.76 15.1621 1150.94 16.177 1157.46 18.3737L1155.31 24.8819C1150.96 23.2412 1146.08 22.0264 1140.66 21.2378L1144.61 24.1491C1143.33 26.0115 1141.96 28.1285 1140.51 30.5001C1142.31 30.7532 1145.25 31.3991 1149.34 32.4376L1147.48 37.916L1142.02 36.4537C1140.65 36.1178 1139.21 35.8006 1137.7 35.502C1135.41 39.8876 1133.64 43.9512 1132.37 47.6929L1127.11 43.3556ZM1161.11 38.9725C1165.14 39.632 1169.64 39.9133 1174.6 39.8166L1173.11 45.5832C1168.68 45.7387 1163.96 45.4109 1158.95 44.5996L1153.69 40.3062C1155.48 35.4778 1158.24 30.0528 1161.96 24.0311C1163.01 22.2988 1164.04 20.7438 1165.05 19.3661C1162.99 19.1568 1161.29 19.0884 1159.97 19.1609L1161.74 13.5995C1169.98 13.4101 1177.37 14.5017 1183.91 16.8741L1181.76 23.4262C1177.22 21.5609 1172.11 20.2557 1166.43 19.5108L1170.38 22.4222C1169.07 24.1983 1167.89 25.9965 1166.84 27.8167C1169.78 28.3014 1172.69 28.5966 1175.57 28.7023L1173.9 34.3906C1169.38 33.8465 1166.06 33.3534 1163.95 32.9113C1162.94 34.8178 1161.99 36.8382 1161.11 38.9725ZM1197.36 33.4522C1199.27 36.1672 1201.53 38.7604 1204.13 41.2317L1198.49 45.3316C1195.61 41.9945 1192.79 37.9782 1190.03 33.2825C1188.2 36.8791 1186.58 40.7142 1185.16 44.7878L1179.94 40.492C1181.66 36.0492 1183.23 32.511 1184.64 29.8774C1186.93 25.5505 1189.35 21.7011 1191.9 18.3294C1189.86 18.0892 1188.02 18.0142 1186.37 18.1045L1187.98 12.7724C1193.49 12.6451 1198.32 13.0991 1202.46 14.1344C1204.01 14.5192 1205.58 15.0057 1207.17 15.5939L1211.01 22.9619C1208.24 27.0803 1203.69 30.5771 1197.36 33.4522ZM1191.63 30.2422C1195.53 28.5 1198.96 26.3865 1201.94 23.9018C1202.95 23.0822 1203.82 22.2561 1204.54 21.4234C1201.67 20.1121 1197.92 19.1436 1193.27 18.518L1197.22 21.3854C1195.04 24.5019 1193.18 27.4541 1191.63 30.2422Z" fill="#191E29"/>
</svg>
