<svg width="1215" height="103" viewBox="0 0 1215 103" fill="none" xmlns="http://www.w3.org/2000/svg">
<path d="M23.9969 83.0643C30.0103 77.5628 34.8915 69.9057 38.6406 60.0928L43.6711 64.2226C41.7533 69.4105 39.0701 74.3027 35.6215 78.8991C32.1729 83.4956 28.37 87.2596 24.2129 90.1912L18.1307 85.3702C18.3411 84.3891 18.6738 82.9607 19.1287 81.0848C16.9893 83.8466 14.885 86.1804 12.816 88.0863C12.0899 88.7726 11.3346 89.4605 10.5499 90.15L3.63348 84.5817C4.63284 77.6523 6.71965 71.2653 9.89391 65.4207C8.49583 66.1733 6.93088 67.0967 5.19906 68.1909L2.76823 63.257C5.66221 61.3938 7.79602 60.1306 9.16965 59.4675C10.571 58.7734 11.7891 58.2216 12.8242 57.8121L18.0156 62.4619C14.1867 69.2238 11.5758 75.9628 10.1828 82.6789C16.0498 77.1855 21.4453 69.265 26.3694 58.9174L31.1706 62.8835L30.4596 64.3769C28.5392 68.4486 27.2008 71.6216 26.4447 73.8959C25.4424 77.0357 24.6265 80.0919 23.9969 83.0643ZM59.6294 78.2387C57.3846 76.9522 55.3423 75.8748 53.5025 75.0066C51.2741 79.8884 49.4722 84.2474 48.097 88.0834L42.698 83.6654C43.9835 80.3337 45.6728 76.5979 47.7657 72.458L44.2031 70.9795L46.9077 65.6749L50.5142 67.1509C52.967 62.6093 55.1875 58.9176 57.1757 56.0761L62.155 60.0765C61.0412 61.7242 59.1025 64.9302 56.3388 69.6947C58.2714 70.6459 60.2372 71.6687 62.2364 72.7632C66.1079 65.1763 69.2975 59.6099 71.8051 56.0641L76.7845 60.0645C73.5847 64.9116 70.5433 70.2348 67.6603 76.034L71.547 78.5963L68.3959 83.7933L65.146 81.5926C64.0236 84.1515 63.1381 86.477 62.4894 88.5692L57.1344 84.1488C57.7503 82.5285 58.5819 80.5585 59.6294 78.2387ZM85.4309 73.4696C82.4087 77.8075 80.0756 82.1223 78.4317 86.4138L73.3987 82.2401C75.1058 78.562 77.4045 74.6898 80.2947 70.6235L77.5765 69.2749L81.0936 64.3221L84.0363 65.7465C87.4 61.7423 90.682 58.3888 93.8823 55.6862L97.2954 58.4508C97.6348 56.6107 97.8879 54.8047 98.0548 53.0329L103.808 57.4754C102.563 66.3573 99.5815 75.9663 94.8624 86.3026L89.6025 82.0092C90.4462 80.2589 91.0514 78.977 91.4179 78.1636C89.7087 76.4657 87.713 74.901 85.4309 73.4696ZM89.0064 68.778C90.6541 69.8918 92.1757 71.1153 93.5711 72.4486C95.1127 67.8984 96.2155 63.9158 96.8795 60.5008C94.4133 62.6636 91.7889 65.4226 89.0064 68.778ZM107.588 80.0939C109.13 75.5436 110.863 71.5263 112.786 68.042C114.737 64.5268 116.592 61.3988 118.351 58.658C114.775 57.7385 111.636 57.0152 108.933 56.4883L111.906 51.257C118.418 52.1325 125.951 53.9652 134.507 56.7552L131.809 62.9849C127.135 61.3326 123.096 60.0126 119.693 59.0248L123.611 62.1582C120.494 66.9127 117.775 72.2181 115.453 78.0746C114.65 80.0283 113.828 82.1741 112.987 84.5118L107.588 80.0939ZM170.213 75.0165C176.226 69.5151 181.108 61.8579 184.857 52.045L189.887 56.1748C187.97 61.3627 185.286 66.2549 181.838 70.8514C178.389 75.4478 174.586 79.2119 170.429 82.1434L164.347 77.3224C164.557 76.3413 164.89 74.9129 165.345 73.0371C163.205 75.7988 161.101 78.1327 159.032 80.0386C158.306 80.7249 157.551 81.4127 156.766 82.1022L149.85 76.5339C150.849 69.6045 152.936 63.2175 156.11 57.3729C154.712 58.1255 153.147 59.0489 151.415 60.1431L148.984 55.2092C151.878 53.3461 154.012 52.0829 155.386 51.4197C156.787 50.7257 158.005 50.1739 159.04 49.7644L164.232 54.4141C160.403 61.1761 157.792 67.9151 156.399 74.6311C162.266 69.1377 167.661 61.2172 172.586 50.8696L177.387 54.8358L176.676 56.3291C174.755 60.4008 173.417 63.5738 172.661 65.8481C171.659 68.988 170.843 72.0441 170.213 75.0165ZM196.074 72.7999C200.106 73.4594 204.601 73.7407 209.561 73.644L208.072 79.4106C203.644 79.5661 198.926 79.2383 193.916 78.427L188.656 74.1336C190.447 69.3052 193.204 63.8802 196.926 57.8585C197.977 56.1262 199.007 54.5712 200.019 53.1935C197.951 52.9842 196.258 52.9158 194.94 52.9883L196.705 47.4269C204.949 47.2375 212.339 48.3291 218.874 50.7015L216.723 57.2536C212.184 55.3882 207.074 54.0831 201.393 53.3382L205.343 56.2495C204.03 58.0257 202.851 59.8239 201.806 61.6441C204.741 62.1288 207.651 62.424 210.536 62.5296L208.866 68.218C204.341 67.6739 201.023 67.1808 198.913 66.7387C197.902 68.6452 196.956 70.6656 196.074 72.7999ZM259.637 58.1526C256.379 55.541 253.358 53.4893 250.573 51.9974C247.671 53.7141 245.166 56.496 243.057 60.3431C240.866 64.3121 239.733 68.2817 239.658 72.2519C244.187 70.7393 247.94 67.404 250.917 62.246C251.907 60.4876 252.753 58.5021 253.453 56.2896L259.637 58.1526C257.978 63.7669 255.65 68.1695 252.653 71.3604C249.406 74.8294 245.102 77.2255 239.74 78.5489L232.909 72.9318C233.262 63.864 236.567 56.3964 242.825 50.529C245.003 48.4702 247.59 46.6386 250.587 45.0341C254.592 46.8114 258.159 49.1709 261.288 52.1127L259.637 58.1526ZM260.455 71.7682C262.488 66.5446 265.46 60.7552 269.37 54.4C270.529 52.5148 271.615 50.8833 272.626 49.5057C270.558 49.2963 268.865 49.2279 267.547 49.3005L269.268 43.7415C277.103 43.5747 284.282 44.5896 290.808 46.7863L288.654 53.2945C284.304 51.6538 279.419 50.4391 274 49.6504L277.95 52.5617C276.671 54.4241 275.304 56.5411 273.849 58.9127C275.655 59.1658 278.598 59.8117 282.68 60.8503L280.823 66.3286L275.366 64.8663C273.996 64.5304 272.554 64.2132 271.039 63.9146C268.754 68.3002 266.98 72.3638 265.717 76.1056L260.455 71.7682ZM286.111 70.3561C288.145 65.1324 291.116 59.343 295.026 52.9879C296.186 51.1026 297.271 49.4712 298.282 48.0935C296.214 47.8842 294.521 47.8158 293.203 47.8884L294.924 42.3294C302.759 42.1625 309.939 43.1775 316.464 45.3742L314.311 51.8824C309.961 50.2416 305.076 49.0269 299.656 48.2382L303.606 51.1496C302.328 53.012 300.961 55.129 299.505 57.5006C301.311 57.7537 304.255 58.3995 308.337 59.4381L306.479 64.9165L301.022 63.4542C299.653 63.1183 298.21 62.8011 296.696 62.5025C294.411 66.8881 292.637 70.9517 291.374 74.6934L286.111 70.3561ZM320.109 65.973C324.141 66.6325 328.636 66.9138 333.596 66.8171L332.107 72.5837C327.679 72.7392 322.961 72.4114 317.951 71.6001L312.691 67.3067C314.482 62.4783 317.239 57.0533 320.961 51.0316C322.012 49.2993 323.042 47.7443 324.054 46.3666C321.986 46.1573 320.293 46.0889 318.975 46.1614L320.74 40.6C328.984 40.4106 336.374 41.5022 342.909 43.8746L340.758 50.4267C336.219 48.5613 331.109 47.2562 325.428 46.5113L329.378 49.4226C328.065 51.1988 326.886 52.997 325.841 54.8172C328.776 55.3019 331.686 55.5971 334.571 55.7027L332.901 61.3911C328.376 60.847 325.058 60.3539 322.948 59.9118C321.937 61.8183 320.99 63.8387 320.109 65.973ZM356.355 60.4527C358.267 63.1677 360.525 65.7609 363.129 68.2322L357.494 72.3321C354.607 68.995 351.786 64.9786 349.031 60.283C347.202 63.8796 345.577 67.7147 344.156 71.7883L338.94 67.4925C340.663 63.0497 342.231 59.5115 343.643 56.8779C345.932 52.5509 348.349 48.7016 350.896 45.3299C348.855 45.0897 347.015 45.0147 345.375 45.1049L346.976 39.7729C352.492 39.6455 357.321 40.0996 361.461 41.1349C363.01 41.5197 364.579 42.0062 366.168 42.5944L370.011 49.9624C367.241 54.0808 362.689 57.5776 356.355 60.4527ZM350.626 57.2427C354.525 55.5004 357.964 53.387 360.941 50.9022C361.954 50.0827 362.819 49.2566 363.537 48.4238C360.674 47.1125 356.919 46.1441 352.272 45.5185L356.22 48.3859C354.041 51.5024 352.176 54.4546 350.626 57.2427Z" fill="#191E29"/>
<path d="M444.997 61.0643C451.01 55.5628 455.892 47.9057 459.641 38.0928L464.671 42.2226C462.753 47.4105 460.07 52.3027 456.622 56.8991C453.173 61.4956 449.37 65.2596 445.213 68.1912L439.131 63.3702C439.341 62.3891 439.674 60.9607 440.129 59.0848C437.989 61.8466 435.885 64.1804 433.816 66.0863C433.09 66.7726 432.335 67.4605 431.55 68.15L424.633 62.5817C425.633 55.6523 427.72 49.2653 430.894 43.4207C429.496 44.1733 427.931 45.0967 426.199 46.1909L423.768 41.257C426.662 39.3938 428.796 38.1306 430.17 37.4675C431.571 36.7734 432.789 36.2216 433.824 35.8121L439.016 40.4619C435.187 47.2238 432.576 53.9628 431.183 60.6789C437.05 55.1855 442.445 47.265 447.369 36.9174L452.171 40.8835L451.46 42.3769C449.539 46.4486 448.201 49.6216 447.445 51.8959C446.442 55.0357 445.626 58.0919 444.997 61.0643ZM480.629 56.2387C478.385 54.9522 476.342 53.8748 474.502 53.0066C472.274 57.8884 470.472 62.2474 469.097 66.0834L463.698 61.6654C464.984 58.3337 466.673 54.5979 468.766 50.458L465.203 48.9795L467.908 43.6749L471.514 45.1509C473.967 40.6093 476.187 36.9176 478.176 34.0761L483.155 38.0765C482.041 39.7242 480.103 42.9302 477.339 47.6947C479.271 48.6459 481.237 49.6687 483.236 50.7632C487.108 43.1763 490.298 37.6099 492.805 34.0641L497.784 38.0645C494.585 42.9116 491.543 48.2348 488.66 54.034L492.547 56.5963L489.396 61.7933L486.146 59.5926C485.024 62.1515 484.138 64.477 483.489 66.5692L478.134 62.1488C478.75 60.5285 479.582 58.5585 480.629 56.2387ZM506.431 51.4696C503.409 55.8075 501.076 60.1223 499.432 64.4138L494.399 60.2401C496.106 56.562 498.404 52.6898 501.295 48.6235L498.576 47.2749L502.094 42.3221L505.036 43.7465C508.4 39.7423 511.682 36.3888 514.882 33.6862L518.295 36.4508C518.635 34.6107 518.888 32.8047 519.055 31.0329L524.808 35.4754C523.563 44.3573 520.581 53.9663 515.862 64.3026L510.602 60.0092C511.446 58.2589 512.051 56.977 512.418 56.1636C510.709 54.4657 508.713 52.901 506.431 51.4696ZM510.006 46.778C511.654 47.8918 513.176 49.1153 514.571 50.4486C516.113 45.8984 517.215 41.9158 517.879 38.5008C515.413 40.6636 512.789 43.4226 510.006 46.778ZM528.588 58.0939C530.13 53.5436 531.863 49.5263 533.786 46.042C535.737 42.5268 537.592 39.3988 539.351 36.658C535.775 35.7385 532.636 35.0152 529.933 34.4883L532.906 29.257C539.418 30.1325 546.951 31.9652 555.507 34.7552L552.809 40.9849C548.135 39.3326 544.096 38.0126 540.693 37.0248L544.611 40.1582C541.494 44.9127 538.775 50.2181 536.453 56.0746C535.65 58.0283 534.828 60.1741 533.987 62.5118L528.588 58.0939ZM591.213 53.0165C597.226 47.5151 602.108 39.8579 605.857 30.045L610.887 34.1748C608.97 39.3627 606.286 44.2549 602.838 48.8514C599.389 53.4478 595.586 57.2119 591.429 60.1434L585.347 55.3224C585.557 54.3413 585.89 52.9129 586.345 51.0371C584.205 53.7988 582.101 56.1327 580.032 58.0386C579.306 58.7249 578.551 59.4127 577.766 60.1022L570.85 54.5339C571.849 47.6045 573.936 41.2175 577.11 35.3729C575.712 36.1255 574.147 37.0489 572.415 38.1431L569.984 33.2092C572.878 31.3461 575.012 30.0829 576.386 29.4197C577.787 28.7257 579.005 28.1739 580.04 27.7644L585.232 32.4141C581.403 39.1761 578.792 45.9151 577.399 52.6311C583.266 47.1377 588.661 39.2172 593.586 28.8696L598.387 32.8358L597.676 34.3291C595.755 38.4008 594.417 41.5738 593.661 43.8481C592.659 46.988 591.843 50.0441 591.213 53.0165ZM617.074 50.7999C621.106 51.4594 625.601 51.7407 630.561 51.644L629.072 57.4106C624.644 57.5661 619.926 57.2383 614.916 56.427L609.656 52.1336C611.447 47.3052 614.204 41.8802 617.926 35.8585C618.977 34.1262 620.007 32.5712 621.019 31.1935C618.951 30.9842 617.258 30.9158 615.94 30.9883L617.705 25.4269C625.949 25.2375 633.339 26.3291 639.874 28.7015L637.723 35.2536C633.184 33.3882 628.074 32.0831 622.393 31.3382L626.343 34.2495C625.03 36.0257 623.851 37.8239 622.806 39.6441C625.741 40.1288 628.651 40.424 631.536 40.5296L629.866 46.218C625.341 45.6739 622.023 45.1808 619.913 44.7387C618.902 46.6452 617.956 48.6656 617.074 50.7999ZM680.637 36.1526C677.379 33.541 674.358 31.4893 671.573 29.9974C668.671 31.7141 666.166 34.496 664.057 38.3431C661.866 42.3121 660.733 46.2817 660.658 50.2519C665.187 48.7393 668.94 45.404 671.917 40.246C672.907 38.4876 673.753 36.5021 674.453 34.2896L680.637 36.1526C678.978 41.7669 676.65 46.1695 673.653 49.3604C670.406 52.8294 666.102 55.2255 660.74 56.5489L653.909 50.9318C654.262 41.864 657.567 34.3964 663.825 28.529C666.003 26.4702 668.59 24.6386 671.587 23.0341C675.592 24.8114 679.159 27.1709 682.288 30.1127L680.637 36.1526ZM681.455 49.7682C683.488 44.5446 686.46 38.7552 690.37 32.4C691.529 30.5148 692.615 28.8833 693.626 27.5057C691.558 27.2963 689.865 27.2279 688.547 27.3005L690.268 21.7415C698.103 21.5747 705.282 22.5896 711.808 24.7863L709.654 31.2945C705.304 29.6538 700.419 28.4391 695 27.6504L698.95 30.5617C697.671 32.4241 696.304 34.5411 694.849 36.9127C696.655 37.1658 699.598 37.8117 703.68 38.8503L701.823 44.3286L696.366 42.8663C694.996 42.5304 693.554 42.2132 692.039 41.9146C689.754 46.3002 687.98 50.3638 686.717 54.1056L681.455 49.7682ZM707.111 48.3561C709.145 43.1324 712.116 37.343 716.026 30.9879C717.186 29.1026 718.271 27.4712 719.282 26.0935C717.214 25.8842 715.521 25.8158 714.203 25.8884L715.924 20.3294C723.759 20.1625 730.939 21.1775 737.464 23.3742L735.311 29.8824C730.961 28.2416 726.076 27.0269 720.656 26.2382L724.606 29.1496C723.328 31.012 721.961 33.129 720.505 35.5006C722.311 35.7537 725.255 36.3995 729.337 37.4381L727.479 42.9165L722.022 41.4542C720.653 41.1183 719.21 40.8011 717.696 40.5025C715.411 44.8881 713.637 48.9517 712.374 52.6934L707.111 48.3561ZM741.109 43.973C745.141 44.6325 749.636 44.9138 754.596 44.8171L753.107 50.5837C748.679 50.7392 743.961 50.4114 738.951 49.6001L733.691 45.3067C735.482 40.4783 738.239 35.0533 741.961 29.0316C743.012 27.2993 744.042 25.7443 745.054 24.3666C742.986 24.1573 741.293 24.0889 739.975 24.1614L741.74 18.6C749.984 18.4106 757.374 19.5022 763.909 21.8746L761.758 28.4267C757.219 26.5613 752.109 25.2562 746.428 24.5113L750.378 27.4226C749.065 29.1988 747.886 30.997 746.841 32.8172C749.776 33.3019 752.686 33.5971 755.571 33.7027L753.901 39.3911C749.376 38.847 746.058 38.3539 743.948 37.9118C742.937 39.8183 741.99 41.8387 741.109 43.973ZM777.355 38.4527C779.267 41.1677 781.525 43.7609 784.129 46.2322L778.494 50.3321C775.607 46.995 772.786 42.9786 770.031 38.283C768.202 41.8796 766.577 45.7147 765.156 49.7883L759.94 45.4925C761.663 41.0497 763.231 37.5115 764.643 34.8779C766.932 30.5509 769.349 26.7016 771.896 23.3299C769.855 23.0897 768.015 23.0147 766.375 23.1049L767.976 17.7729C773.492 17.6455 778.321 18.0996 782.461 19.1349C784.01 19.5197 785.579 20.0062 787.168 20.5944L791.011 27.9624C788.241 32.0808 783.689 35.5776 777.355 38.4527ZM771.626 35.2427C775.525 33.5004 778.964 31.387 781.941 28.9022C782.954 28.0827 783.819 27.2566 784.537 26.4238C781.674 25.1125 777.919 24.1441 773.272 23.5185L777.22 26.3859C775.041 29.5024 773.176 32.4546 771.626 35.2427Z" fill="#191E29"/>
<circle cx="399.5" cy="56.5" r="7.5" fill="#191E29"/>
<circle cx="819.5" cy="33.5" r="7.5" fill="#191E29"/>
<path d="M864.997 38.0643C871.01 32.5628 875.892 24.9057 879.641 15.0928L884.671 19.2226C882.753 24.4105 880.07 29.3027 876.622 33.8991C873.173 38.4956 869.37 42.2596 865.213 45.1912L859.131 40.3702C859.341 39.3891 859.674 37.9607 860.129 36.0848C857.989 38.8466 855.885 41.1804 853.816 43.0863C853.09 43.7726 852.335 44.4605 851.55 45.15L844.633 39.5817C845.633 32.6523 847.72 26.2653 850.894 20.4207C849.496 21.1733 847.931 22.0967 846.199 23.1909L843.768 18.257C846.662 16.3938 848.796 15.1306 850.17 14.4675C851.571 13.7734 852.789 13.2216 853.824 12.8121L859.016 17.4619C855.187 24.2238 852.576 30.9628 851.183 37.6789C857.05 32.1855 862.445 24.265 867.369 13.9174L872.171 17.8835L871.46 19.3769C869.539 23.4486 868.201 26.6216 867.445 28.8959C866.442 32.0357 865.626 35.0919 864.997 38.0643ZM900.629 33.2387C898.385 31.9522 896.342 30.8748 894.502 30.0066C892.274 34.8884 890.472 39.2474 889.097 43.0834L883.698 38.6654C884.984 35.3337 886.673 31.5979 888.766 27.458L885.203 25.9795L887.908 20.6749L891.514 22.1509C893.967 17.6093 896.187 13.9176 898.176 11.0761L903.155 15.0765C902.041 16.7242 900.103 19.9302 897.339 24.6947C899.271 25.6459 901.237 26.6687 903.236 27.7632C907.108 20.1763 910.298 14.6099 912.805 11.0641L917.784 15.0645C914.585 19.9116 911.543 25.2348 908.66 31.034L912.547 33.5963L909.396 38.7933L906.146 36.5926C905.024 39.1515 904.138 41.477 903.489 43.5692L898.134 39.1488C898.75 37.5285 899.582 35.5585 900.629 33.2387ZM926.431 28.4696C923.409 32.8075 921.076 37.1223 919.432 41.4138L914.399 37.2401C916.106 33.562 918.404 29.6898 921.295 25.6235L918.576 24.2749L922.094 19.3221L925.036 20.7465C928.4 16.7423 931.682 13.3888 934.882 10.6862L938.295 13.4508C938.635 11.6107 938.888 9.80474 939.055 8.03289L944.808 12.4754C943.563 21.3573 940.581 30.9663 935.862 41.3026L930.602 37.0092C931.446 35.2589 932.051 33.977 932.418 33.1636C930.709 31.4657 928.713 29.901 926.431 28.4696ZM930.006 23.778C931.654 24.8918 933.176 26.1153 934.571 27.4486C936.113 22.8984 937.215 18.9158 937.879 15.5008C935.413 17.6636 932.789 20.4226 930.006 23.778ZM948.588 35.0939C950.13 30.5436 951.863 26.5263 953.786 23.042C955.737 19.5268 957.592 16.3988 959.351 13.658C955.775 12.7385 952.636 12.0152 949.933 11.4883L952.906 6.25698C959.418 7.13246 966.951 8.96522 975.507 11.7552L972.809 17.9849C968.135 16.3326 964.096 15.0126 960.693 14.0248L964.611 17.1582C961.494 21.9127 958.775 27.2181 956.453 33.0746C955.65 35.0283 954.828 37.1741 953.987 39.5118L948.588 35.0939ZM1011.21 30.0165C1017.23 24.5151 1022.11 16.8579 1025.86 7.04503L1030.89 11.1748C1028.97 16.3627 1026.29 21.2549 1022.84 25.8514C1019.39 30.4478 1015.59 34.2119 1011.43 37.1434L1005.35 32.3224C1005.56 31.3413 1005.89 29.9129 1006.34 28.0371C1004.21 30.7988 1002.1 33.1327 1000.03 35.0386C999.306 35.7249 998.551 36.4127 997.766 37.1022L990.85 31.5339C991.849 24.6045 993.936 18.2175 997.11 12.3729C995.712 13.1255 994.147 14.0489 992.415 15.1431L989.984 10.2092C992.878 8.34605 995.012 7.08288 996.386 6.41972C997.787 5.72566 999.005 5.17387 1000.04 4.76437L1005.23 9.4141C1001.4 16.1761 998.792 22.9151 997.399 29.6311C1003.27 24.1377 1008.66 16.2172 1013.59 5.86964L1018.39 9.83577L1017.68 11.3291C1015.76 15.4008 1014.42 18.5738 1013.66 20.8481C1012.66 23.988 1011.84 27.0441 1011.21 30.0165ZM1037.07 27.7999C1041.11 28.4594 1045.6 28.7407 1050.56 28.644L1049.07 34.4106C1044.64 34.5661 1039.93 34.2383 1034.92 33.427L1029.66 29.1336C1031.45 24.3052 1034.2 18.8802 1037.93 12.8585C1038.98 11.1262 1040.01 9.57117 1041.02 8.19352C1038.95 7.98418 1037.26 7.91579 1035.94 7.98833L1037.7 2.42693C1045.95 2.23753 1053.34 3.32906 1059.87 5.70151L1057.72 12.2536C1053.18 10.3882 1048.07 9.08311 1042.39 8.33822L1046.34 11.2495C1045.03 13.0257 1043.85 14.8239 1042.81 16.6441C1045.74 17.1288 1048.65 17.424 1051.54 17.5296L1049.87 23.218C1045.34 22.6739 1042.02 22.1808 1039.91 21.7387C1038.9 23.6452 1037.96 25.6656 1037.07 27.7999ZM1100.64 13.1526C1097.38 10.541 1094.36 8.48925 1091.57 6.99738C1088.67 8.71413 1086.17 11.496 1084.06 15.3431C1081.87 19.3121 1080.73 23.2817 1080.66 27.2519C1085.19 25.7393 1088.94 22.404 1091.92 17.246C1092.91 15.4876 1093.75 13.5021 1094.45 11.2896L1100.64 13.1526C1098.98 18.7669 1096.65 23.1695 1093.65 26.3604C1090.41 29.8294 1086.1 32.2255 1080.74 33.5489L1073.91 27.9318C1074.26 18.864 1077.57 11.3964 1083.82 5.52899C1086 3.47017 1088.59 1.63855 1091.59 0.034122C1095.59 1.81137 1099.16 4.1709 1102.29 7.11272L1100.64 13.1526ZM1101.45 26.7682C1103.49 21.5446 1106.46 15.7552 1110.37 9.40001C1111.53 7.51477 1112.61 5.88333 1113.63 4.50568C1111.56 4.29634 1109.86 4.22795 1108.55 4.30049L1110.27 -1.2585C1118.1 -1.42532 1125.28 -0.410372 1131.81 1.78634L1129.65 8.29453C1125.3 6.65378 1120.42 5.43907 1115 4.65038L1118.95 7.56171C1117.67 9.4241 1116.3 11.5411 1114.85 13.9127C1116.65 14.1658 1119.6 14.8117 1123.68 15.8503L1121.82 21.3286L1116.37 19.8663C1115 19.5304 1113.55 19.2132 1112.04 18.9146C1109.75 23.3002 1107.98 27.3638 1106.72 31.1056L1101.45 26.7682ZM1127.11 25.3561C1129.14 20.1324 1132.12 14.343 1136.03 7.98788C1137.19 6.10264 1138.27 4.47119 1139.28 3.09354C1137.21 2.88421 1135.52 2.81581 1134.2 2.88836L1135.92 -2.67063C1143.76 -2.83745 1150.94 -1.82251 1157.46 0.374204L1155.31 6.88239C1150.96 5.24165 1146.08 4.02693 1140.66 3.23825L1144.61 6.14957C1143.33 8.01197 1141.96 10.129 1140.51 12.5006C1142.31 12.7537 1145.25 13.3995 1149.34 14.4381L1147.48 19.9165L1142.02 18.4542C1140.65 18.1183 1139.21 17.8011 1137.7 17.5025C1135.41 21.8881 1133.64 25.9517 1132.37 29.6934L1127.11 25.3561ZM1161.11 20.973C1165.14 21.6325 1169.64 21.9138 1174.6 21.8171L1173.11 27.5837C1168.68 27.7392 1163.96 27.4114 1158.95 26.6001L1153.69 22.3067C1155.48 17.4783 1158.24 12.0533 1161.96 6.03161C1163.01 4.29927 1164.04 2.74427 1165.05 1.36662C1162.99 1.15728 1161.29 1.08889 1159.97 1.16143L1161.74 -4.39997C1169.98 -4.58937 1177.37 -3.49784 1183.91 -1.12539L1181.76 5.42673C1177.22 3.56135 1172.11 2.25621 1166.43 1.51132L1170.38 4.42265C1169.07 6.19879 1167.89 7.99696 1166.84 9.81717C1169.78 10.3019 1172.69 10.5971 1175.57 10.7027L1173.9 16.3911C1169.38 15.847 1166.06 15.3539 1163.95 14.9118C1162.94 16.8183 1161.99 18.8387 1161.11 20.973ZM1197.36 15.4527C1199.27 18.1677 1201.53 20.7609 1204.13 23.2322L1198.49 27.3321C1195.61 23.995 1192.79 19.9786 1190.03 15.283C1188.2 18.8796 1186.58 22.7147 1185.16 26.7883L1179.94 22.4925C1181.66 18.0497 1183.23 14.5115 1184.64 11.8779C1186.93 7.55094 1189.35 3.7016 1191.9 0.329887C1189.86 0.0896515 1188.02 0.0146715 1186.37 0.104947L1187.98 -5.22712C1193.49 -5.35445 1198.32 -4.90045 1202.46 -3.8651C1204.01 -3.4803 1205.58 -2.9938 1207.17 -2.40559L1211.01 4.96236C1208.24 9.08081 1203.69 12.5776 1197.36 15.4527ZM1191.63 12.2427C1195.53 10.5004 1198.96 8.38695 1201.94 5.90224C1202.95 5.08269 1203.82 4.25656 1204.54 3.42384C1201.67 2.11254 1197.92 1.1441 1193.27 0.518526L1197.22 3.38592C1195.04 6.50236 1193.18 9.45463 1191.63 12.2427Z" fill="#191E29"/>
</svg>
