<svg width="1201" height="88" viewBox="0 0 1201 88" fill="none" xmlns="http://www.w3.org/2000/svg">
<path d="M24.7665 72.2521C24.9908 72.4985 25.1757 72.8214 25.3213 73.2208C25.4882 73.6192 25.624 74.0404 25.7288 74.4842C25.8336 74.9281 25.9171 75.3729 25.9792 75.8186C26.0405 76.243 26.0781 76.615 26.092 76.9347C26.1134 77.4249 26.1029 77.9165 26.0603 78.4095C26.0178 78.9025 25.9104 79.377 25.7381 79.8329C24.7244 80.0907 23.5476 80.2809 22.2076 80.4035C20.8686 80.5473 19.4745 80.6509 18.0252 80.7142C16.5982 80.7978 15.1809 80.8597 13.7733 80.8998C12.387 80.939 11.1504 80.9823 10.0634 81.0298C8.9125 81.08 7.75001 81.1094 6.57593 81.118C5.40186 81.1265 4.25416 81.0058 3.13286 80.7558C2.81028 80.2147 2.58036 79.5948 2.44308 78.8961C2.32619 78.1752 2.25426 77.5057 2.22727 76.8876C2.20308 76.3335 2.21965 75.7349 2.27698 75.0918C2.33339 74.4273 2.46811 73.8449 2.68115 73.3445C2.78679 73.3185 2.90354 73.3027 3.03142 73.2971C3.15837 73.2703 3.27512 73.2545 3.38169 73.2498C4.25552 73.2117 5.1201 73.206 5.97541 73.2327C6.82979 73.2381 7.68324 73.2222 8.53576 73.1849C8.79152 73.1738 9.06859 73.1617 9.36697 73.1487C9.68574 73.1134 9.96002 73.0373 10.1898 72.9205C10.4604 72.7593 10.6512 72.484 10.7623 72.0948C10.8725 71.6843 10.9387 71.2436 10.9609 70.7729C10.983 70.3021 10.9737 69.8434 10.9328 69.3968C10.9133 68.9492 10.8979 68.5975 10.8867 68.3418L10.8114 66.6154C10.8039 66.4449 10.783 66.211 10.7487 65.9135C10.7357 65.6151 10.6911 65.3288 10.6151 65.0545C10.5594 64.758 10.463 64.506 10.3258 64.2984C10.1887 64.0909 9.99219 63.9927 9.73643 64.0038C9.31017 64.0224 8.69302 64.0707 7.88499 64.1487C7.09827 64.2258 6.33193 64.2806 5.58598 64.3132C5.20234 64.3299 4.83955 64.3351 4.49762 64.3287C4.17699 64.3213 3.89852 64.3014 3.66222 64.269C3.20906 64.1607 2.87448 63.8337 2.65847 63.2879C2.44152 62.7208 2.2848 62.0657 2.18829 61.3225C2.09178 60.5794 2.03697 59.813 2.02385 59.0235C2.00981 58.2127 1.98975 57.5089 1.9637 56.9121C1.95905 56.8056 1.95486 56.7097 1.95114 56.6244C1.94741 56.5391 1.95388 56.4428 1.97054 56.3353C2.09098 56.1592 2.41528 56.0062 2.94345 55.8764C3.4707 55.7253 4.11609 55.5903 4.87964 55.4716C5.66357 55.3306 6.52302 55.2076 7.458 55.1027C8.39299 54.9979 9.31778 54.9041 10.2324 54.8215C11.1683 54.7379 12.0514 54.6673 12.8817 54.6097C13.7119 54.5521 14.4148 54.5107 14.9903 54.4856C16.5035 54.4195 17.5729 54.7038 18.1985 55.3385C18.8232 55.9518 19.1672 56.9831 19.2304 58.4324C19.3291 60.6916 19.4041 62.8984 19.4554 65.0529C19.5059 67.1861 19.5804 69.3822 19.679 71.6414C19.6995 72.1103 19.7658 72.4064 19.878 72.5296C19.9892 72.6315 20.3006 72.6713 20.8121 72.649C21.4515 72.621 22.1112 72.5709 22.7914 72.4985C23.4706 72.4048 24.129 72.3226 24.7665 72.2521ZM47.7337 66.3166C47.8231 68.3627 47.753 70.1808 47.5234 71.771C47.2939 73.3612 46.8299 74.716 46.1314 75.8356C45.4329 76.9551 44.4462 77.831 43.1712 78.4632C41.8953 79.0741 40.245 79.4237 38.2203 79.5121C36.6005 79.5829 35.1113 79.4664 33.7528 79.1627C32.3942 78.859 31.2163 78.2912 30.2191 77.4592C29.2219 76.6272 28.4247 75.4876 27.8277 74.0403C27.252 72.592 26.9157 70.7596 26.8189 68.543C26.7222 66.3265 26.8274 64.336 27.1348 62.5716C27.4634 60.8062 28.0275 59.2975 28.827 58.0454C29.6477 56.7925 30.7369 55.816 32.0943 55.1161C33.4517 54.4163 35.1215 54.0231 37.1036 53.9365C39.0005 53.8537 40.6008 54.0721 41.9048 54.5917C43.23 55.1104 44.2999 55.8965 45.1147 56.9499C45.9507 58.0025 46.5741 59.3205 46.9849 60.9041C47.3948 62.4664 47.6444 64.2706 47.7337 66.3166ZM35.1975 66.7679C35.2207 67.3007 35.2542 67.8224 35.2978 68.333C35.3619 68.8213 35.4764 69.2434 35.6414 69.5992C35.8064 69.955 36.0326 70.2441 36.3199 70.4664C36.6276 70.6665 37.0478 70.755 37.5806 70.7317C38.1348 70.7075 38.5564 70.5823 38.8455 70.3562C39.1346 70.13 39.3458 69.8325 39.4791 69.4637C39.6125 69.0948 39.6792 68.6649 39.6791 68.1737C39.6781 67.6613 39.6645 67.1067 39.6385 66.5099C39.5863 65.3164 39.3971 64.4064 39.0708 63.7801C38.7445 63.1537 38.0912 62.8619 37.1108 62.9047C36.2796 62.941 35.7413 63.3275 35.4958 64.0643C35.2495 64.7797 35.15 65.6809 35.1975 66.7679ZM70.4621 65.3243C70.5514 67.3703 70.4813 69.1884 70.2518 70.7786C70.0223 72.3688 69.5583 73.7237 68.8598 74.8432C68.1613 75.9628 67.1745 76.8386 65.8996 77.4709C64.6237 78.0818 62.9733 78.4314 60.9486 78.5198C59.3288 78.5905 57.8396 78.474 56.4811 78.1703C55.1226 77.8666 53.9447 77.2988 52.9474 76.4669C51.9502 75.6349 51.1531 74.4953 50.556 73.0479C49.9803 71.5997 49.6441 69.7672 49.5473 67.5507C49.4505 65.3341 49.5558 63.3436 49.8631 61.5792C50.1918 59.8139 50.7558 58.3052 51.5553 57.0531C52.3761 55.8001 53.4652 54.8237 54.8226 54.1238C56.1801 53.4239 57.8498 53.0307 59.8319 52.9442C61.7288 52.8614 63.3292 53.0798 64.6331 53.5994C65.9583 54.1181 67.0283 54.9041 67.843 55.9576C68.6791 57.0101 69.3025 58.3282 69.7133 59.9118C70.1231 61.4741 70.3727 63.2782 70.4621 65.3243ZM57.9258 65.7755C57.9491 66.3084 57.9825 66.8301 58.0262 67.3406C58.0902 67.829 58.2047 68.2511 58.3698 68.6069C58.5348 68.9627 58.7609 69.2517 59.0482 69.4741C59.3559 69.6742 59.7762 69.7626 60.309 69.7394C60.8631 69.7152 61.2847 69.59 61.5738 69.3638C61.8629 69.1377 62.0741 68.8402 62.2075 68.4713C62.3409 68.1025 62.4075 67.6725 62.4074 67.1814C62.4064 66.6689 62.3929 66.1143 62.3668 65.5176C62.3147 64.324 62.1255 63.4141 61.7992 62.7877C61.4729 62.1614 60.8195 61.8696 59.8391 61.9124C59.0079 61.9487 58.4696 62.3352 58.2242 63.0719C57.9778 63.7874 57.8784 64.6886 57.9258 65.7755ZM94.2803 72.4201C94.2211 73.0206 94.0335 73.616 93.7176 74.2063C93.4231 74.7957 93.0414 75.3463 92.5726 75.8579C92.1242 76.3472 91.6095 76.7861 91.0286 77.1745C90.4476 77.5628 89.8412 77.8562 89.2092 78.0547C88.9247 77.8962 88.5924 77.6225 88.2124 77.2334C87.8547 76.8646 87.4844 76.4537 87.1016 76.0006C86.7392 75.5253 86.3768 75.05 86.0144 74.5747C85.6724 74.0771 85.3651 73.6421 85.0926 73.2697C84.4549 72.3579 83.9316 71.6227 83.5229 71.064C83.1345 70.4831 82.8055 70.0384 82.5357 69.7298C82.2873 69.4204 82.0862 69.2156 81.9324 69.1156C81.7776 68.9942 81.6256 68.9368 81.4764 68.9433C81.242 68.9535 81.0872 69.0777 81.0122 69.3159C80.9585 69.5531 80.9405 69.8742 80.9582 70.2792C80.9722 70.5989 81.0116 71.0135 81.0766 71.5232C81.1619 72.0106 81.2385 72.5411 81.3062 73.1147C81.3953 73.6873 81.4751 74.2924 81.5456 74.93C81.6365 75.5452 81.695 76.1513 81.7211 76.748C81.7323 77.0038 81.6586 77.2739 81.5002 77.5584C80.9545 77.7745 80.3438 77.9719 79.6683 78.1509C79.0141 78.329 78.3479 78.4755 77.6696 78.5905C76.9913 78.7055 76.332 78.7664 75.6917 78.773C75.0736 78.8 74.5278 78.7704 74.0543 78.6843C73.6178 78.4685 73.3365 78.1391 73.2103 77.6962C73.0332 77.0633 72.8719 76.3016 72.7262 75.4111C72.5796 74.4993 72.4423 73.5551 72.3143 72.5784C72.2066 71.5795 72.1105 70.6014 72.026 69.6442C71.9415 68.6869 71.8834 67.846 71.8518 67.1214C71.8081 66.1197 71.7796 64.9785 71.7664 63.6978C71.7522 62.3959 71.7589 61.0823 71.7865 59.7572C71.8131 58.4108 71.8745 57.1269 71.9707 55.9055C72.0659 54.6628 72.1908 53.6111 72.3454 52.7502C72.3824 52.6204 72.4311 52.5115 72.4913 52.4235C72.5506 52.3141 72.621 52.215 72.7025 52.126C73.1464 52.0212 73.7084 51.9326 74.3885 51.8602C75.0891 51.7655 75.8021 51.7131 76.5277 51.7027C77.2533 51.6924 77.9381 51.7266 78.5821 51.8052C79.2252 51.8626 79.7002 51.9806 80.0069 52.1594C80.2507 52.3623 80.3814 52.6662 80.3991 53.0712C80.4214 53.5827 80.4099 54.053 80.3646 54.482C80.3192 54.9111 80.2739 55.3401 80.2286 55.7692C80.1833 56.1982 80.1389 56.6486 80.0954 57.1203C80.051 57.5706 80.0418 58.0942 80.0679 58.691C80.0809 58.9893 80.1347 59.2432 80.2293 59.4526C80.3442 59.6398 80.5189 59.7283 80.7533 59.718C80.8812 59.7125 81.0684 59.5975 81.3148 59.3732C81.5603 59.1276 81.835 58.8167 82.1389 58.4404C82.4428 58.0641 82.7555 57.6447 83.0769 57.1823C83.4197 56.7189 83.7412 56.2564 84.0413 55.7949C84.3211 55.3556 84.6634 54.8815 85.0683 54.3727C85.4722 53.8426 85.8887 53.3547 86.3176 52.9089C86.7456 52.4417 87.1663 52.0497 87.5795 51.7327C87.9918 51.3944 88.336 51.2085 88.6122 51.1751C89.0653 51.2834 89.5556 51.5076 90.0829 51.8476C90.6316 52.1867 91.151 52.5911 91.6413 53.0608C92.1316 53.5305 92.5598 54.0457 92.9259 54.6062C93.2921 55.1668 93.5086 55.7232 93.5754 56.2755C93.3354 56.649 93.0126 57.0795 92.6068 57.567C92.2001 58.0331 91.7618 58.5114 91.2921 59.0017C90.8224 59.492 90.342 59.9827 89.851 60.4739C89.359 60.9438 88.8971 61.3697 88.4654 61.7516C88.0957 62.088 87.7988 62.3786 87.5745 62.6233C87.3717 62.867 87.2206 63.0765 87.1215 63.2516C87.0224 63.4268 86.9654 63.5894 86.9506 63.7395C86.9349 63.8684 86.9298 63.9967 86.9354 64.1246C86.9457 64.359 87.176 64.744 87.6265 65.2795C88.076 65.7937 88.6455 66.3668 89.3351 66.9986C89.8254 67.4684 90.3041 67.9172 90.7712 68.3453C91.2587 68.7511 91.7147 69.1689 92.1392 69.5988C92.5627 70.0074 92.9552 70.4387 93.3167 70.8927C93.6782 71.3467 93.9994 71.8558 94.2803 72.4201ZM111.241 73.1209C110.865 73.3082 110.37 73.4686 109.757 73.6022C109.164 73.7348 108.538 73.8262 107.879 73.8763C107.24 73.9256 106.6 73.9322 105.958 73.8961C105.316 73.8601 104.768 73.7879 104.315 73.6796C104.133 73.4313 103.993 73.1491 103.893 72.8332C103.816 72.5163 103.77 72.198 103.756 71.8783L103.578 67.8181C103.561 67.4132 103.464 67.1505 103.288 67.0301C103.112 66.9096 102.874 66.8559 102.576 66.869C101.873 66.8997 101.203 66.9716 100.568 67.0848C99.9309 67.1766 99.261 67.2379 98.5576 67.2686C98.3445 67.2779 98.0776 67.2789 97.757 67.2715C97.4568 67.2419 97.2089 67.1887 97.0133 67.1118C96.5693 66.2344 96.2916 65.2535 96.1802 64.1694C96.0901 63.0843 96.0987 62.0589 96.206 61.0933C96.3737 61.0219 96.6276 60.9681 96.9677 60.9319C97.3078 60.8957 97.6803 60.8688 98.0853 60.8511C98.7246 60.8232 99.3872 60.837 100.073 60.8924C100.758 60.9266 101.537 60.9246 102.411 60.8865C102.645 60.8762 102.803 60.816 102.883 60.7057C102.963 60.5741 102.996 60.3484 102.982 60.0287C102.967 59.6877 102.927 59.2517 102.861 58.7208C102.816 58.1889 102.76 57.6361 102.692 57.0625C102.646 56.488 102.601 55.9455 102.557 55.4349C102.535 54.9234 102.539 54.5282 102.57 54.2492C102.987 54.0388 103.514 53.8663 104.148 53.7319C104.805 53.5964 105.484 53.5134 106.188 53.4827C106.911 53.4297 107.616 53.4416 108.303 53.5184C109.01 53.573 109.624 53.6957 110.145 53.8864C110.286 54.1792 110.378 54.5809 110.422 55.0915C110.465 55.6021 110.478 56.1354 110.46 56.6914C110.462 57.2465 110.444 57.7918 110.403 58.3274C110.384 58.8621 110.382 59.3106 110.398 59.6729C110.413 60.0353 110.488 60.2669 110.62 60.3679C110.752 60.4476 110.967 60.4809 111.265 60.4679C111.627 60.452 111.988 60.4042 112.348 60.3245C112.706 60.2234 113.054 60.1228 113.392 60.0227C113.75 59.9216 114.099 59.8316 114.437 59.7528C114.796 59.6517 115.156 59.5933 115.518 59.5775C115.838 59.5635 116.139 59.6144 116.422 59.7302C116.611 60.149 116.76 60.623 116.868 61.1521C116.998 61.6803 117.076 62.2321 117.101 62.8075C117.147 63.3821 117.141 63.9696 117.082 64.57C117.043 65.1483 116.95 65.7075 116.802 66.2478C116.528 66.3239 116.253 66.3679 115.975 66.38C115.059 66.42 114.248 66.4341 113.543 66.4222C112.837 66.3889 112.015 66.3928 111.077 66.4337C110.821 66.4449 110.702 66.6423 110.719 67.0259C110.734 67.3883 110.787 67.8557 110.876 68.4284C110.965 69.0011 111.044 69.5955 111.114 70.2117C111.204 70.8057 111.271 71.3686 111.316 71.9005C111.36 72.4324 111.335 72.8392 111.241 73.1209ZM145.036 75.7774C144.493 76.0573 143.862 76.2877 143.144 76.4685C142.448 76.6697 141.717 76.7978 140.951 76.8526C140.207 76.9278 139.449 76.9395 138.678 76.8877C137.908 76.8573 137.189 76.7606 136.52 76.5976C136.386 76.4753 136.246 76.2038 136.1 75.7832C135.976 75.3829 135.844 74.8121 135.705 74.0708C135.566 73.3295 135.439 72.3954 135.326 71.2686C135.212 70.1205 135.12 68.7472 135.05 67.1487C135.024 66.552 134.957 65.7541 134.85 64.7552C134.741 63.735 134.629 62.6295 134.513 61.4387C134.417 60.2258 134.331 58.991 134.255 57.7345C134.179 56.4779 134.16 55.3256 134.2 54.2776C134.26 53.2073 134.391 52.294 134.593 51.5378C134.795 50.7816 135.116 50.3085 135.556 50.1185C135.87 49.9766 136.291 49.8514 136.821 49.7429C137.371 49.6335 137.986 49.5319 138.665 49.4382C139.344 49.3445 140.056 49.2707 140.801 49.2168C141.546 49.1629 142.26 49.1104 142.941 49.0593C143.643 49.0073 144.282 48.9687 144.857 48.9436C145.454 48.9176 145.934 48.8966 146.296 48.8808C147.212 48.8408 148.27 48.848 149.468 48.9025C150.687 48.9347 151.845 49.0549 152.943 49.2632C153.221 49.7636 153.462 50.383 153.665 51.1215C153.868 51.86 154.008 52.6333 154.086 53.4413C154.186 54.2484 154.209 55.0375 154.158 55.8085C154.126 56.5572 154.016 57.2027 153.826 57.7448C153.62 57.9246 153.39 58.0414 153.136 58.0952C152.882 58.1277 152.616 58.15 152.339 58.1621C151.699 58.19 151.046 58.1438 150.379 58.0234C149.732 57.8808 149.085 57.7276 148.437 57.5637C147.789 57.3998 147.132 57.2577 146.464 57.1373C145.817 56.9947 145.164 56.9379 144.503 56.9667C143.778 56.9983 143.281 57.1055 143.012 57.2881C142.762 57.4484 142.652 57.8483 142.68 58.4877C142.707 59.1058 142.846 59.6122 143.098 60.0069C143.349 60.3803 143.869 60.5498 144.658 60.5153C145.489 60.479 146.359 60.3556 147.268 60.1451C148.177 59.9346 149.038 59.8436 149.851 59.8722C150.179 60.0501 150.431 60.4448 150.607 61.0563C150.805 61.667 150.93 62.3448 150.984 63.0898C151.038 63.8348 151.007 64.5836 150.89 65.3361C150.795 66.0876 150.618 66.6826 150.359 67.1209C149.978 67.1803 149.561 67.1771 149.11 67.1114C148.659 67.0457 148.196 66.9698 147.723 66.8837C147.27 66.7967 146.797 66.7106 146.302 66.6254C145.828 66.5393 145.368 66.5061 144.92 66.5256C144.43 66.547 144.091 66.5939 143.902 66.6662C143.712 66.7385 143.629 67.0197 143.65 67.5099C143.675 68.0854 143.764 68.6581 143.917 69.2279C144.092 69.7969 144.257 70.4089 144.414 71.064C144.592 71.7182 144.74 72.4271 144.859 73.1906C144.999 73.9532 145.058 74.8155 145.036 75.7774ZM155.2 61.8167C155.048 58.3427 155.514 55.5677 156.598 53.4918C157.682 51.4159 159.208 49.9399 161.177 49.0639C161.701 48.8275 162.28 48.642 162.915 48.5075C163.548 48.3518 164.194 48.2275 164.852 48.1347C165.531 48.041 166.201 47.969 166.861 47.9189C167.52 47.8687 168.138 47.8311 168.713 47.8059C169.268 47.7817 169.854 47.7668 170.473 47.7611C171.092 47.7555 171.723 47.7813 172.366 47.8386C173.009 47.8747 173.631 47.9436 174.233 48.0454C174.856 48.125 175.417 48.25 175.915 48.4204C176.935 48.7816 177.854 49.2967 178.673 49.9656C179.513 50.6122 180.232 51.435 180.831 52.4338C181.451 53.4317 181.94 54.6168 182.299 55.9891C182.657 57.3401 182.874 58.8788 182.949 60.6052C183.061 63.1627 182.836 65.3506 182.275 67.1688C181.713 68.9657 180.88 70.4434 179.778 71.602C178.675 72.7392 177.324 73.5882 175.725 74.1492C174.148 74.7092 172.379 75.032 170.418 75.1176L168.948 75.1818C167.008 75.2665 165.218 75.0991 163.577 74.6796C161.936 74.2601 160.516 73.532 159.317 72.4953C158.118 71.4373 157.16 70.0377 156.444 68.2966C155.726 66.5343 155.311 64.3743 155.2 61.8167ZM168.801 54.9449C168.14 54.9738 167.507 55.1402 166.901 55.4443C166.295 55.7483 165.758 56.1668 165.29 56.6997C164.844 57.2317 164.487 57.8772 164.222 58.6362C163.976 59.3729 163.873 60.1995 163.913 61.116C163.993 62.9276 164.459 64.3272 165.314 65.3149C166.189 66.2803 167.522 66.7239 169.312 66.6458C171.123 66.5667 172.412 66.0086 173.178 64.9715C173.965 63.9122 174.319 62.4767 174.24 60.6651C174.2 59.7487 174.015 58.9346 173.685 58.223C173.375 57.4892 172.964 56.8772 172.451 56.3871C171.96 55.896 171.399 55.5255 170.769 55.2754C170.139 55.0253 169.483 54.9151 168.801 54.9449ZM183.766 60.5695C183.615 57.0955 184.081 54.3205 185.164 52.2446C186.248 50.1687 187.775 48.6927 189.744 47.8166C190.267 47.5802 190.846 47.3948 191.481 47.2603C192.115 47.1045 192.761 46.9802 193.419 46.8874C194.098 46.7937 194.767 46.7218 195.427 46.6716C196.087 46.6215 196.705 46.5838 197.28 46.5587C197.834 46.5345 198.421 46.5196 199.04 46.5139C199.659 46.5082 200.29 46.5341 200.933 46.5914C201.575 46.6274 202.197 46.6963 202.8 46.7982C203.422 46.8777 203.983 47.0027 204.482 47.1731C205.501 47.5344 206.42 48.0494 207.24 48.7183C208.079 49.365 208.799 50.1877 209.397 51.1865C210.018 52.1844 210.507 53.3696 210.866 54.7419C211.224 56.0929 211.44 57.6316 211.516 59.3579C211.628 61.9155 211.403 64.1034 210.841 65.9216C210.279 67.7185 209.447 69.1962 208.344 70.3547C207.241 71.4919 205.89 72.341 204.292 72.9019C202.715 73.4619 200.946 73.7847 198.985 73.8703L197.514 73.9345C195.575 74.0192 193.785 73.8518 192.143 73.4323C190.502 73.0129 189.082 72.2848 187.884 71.248C186.685 70.19 185.727 68.7905 185.01 67.0494C184.293 65.287 183.878 63.1271 183.766 60.5695ZM197.367 53.6977C196.707 53.7265 196.073 53.893 195.467 54.197C194.861 54.5011 194.325 54.9196 193.857 55.4525C193.41 55.9845 193.054 56.63 192.788 57.3889C192.543 58.1257 192.44 58.9523 192.48 59.8687C192.559 61.6803 193.026 63.08 193.88 64.0676C194.755 65.0331 196.088 65.4767 197.878 65.3985C199.69 65.3194 200.979 64.7613 201.745 63.7243C202.532 62.665 202.885 61.2295 202.806 59.4179C202.766 58.5014 202.581 57.6874 202.251 56.9758C201.941 56.2419 201.53 55.6299 201.018 55.1398C200.527 54.6488 199.966 54.2782 199.336 54.0281C198.706 53.7781 198.049 53.6679 197.367 53.6977ZM230.812 71.1675C229.866 71.5077 228.895 71.7637 227.899 71.9353C226.925 72.1273 225.979 72.2433 225.063 72.2833C224.168 72.3224 223.323 72.2845 222.528 72.1698C221.733 72.055 221.04 71.8504 220.451 71.5558C220.245 71.2445 220.124 70.9188 220.088 70.5787C220.073 70.2377 220.056 69.8434 220.036 69.3958C219.986 68.2449 219.983 67.1987 220.027 66.2572C220.092 65.2935 220.169 64.3612 220.258 63.4605C220.346 62.5598 220.413 61.6493 220.459 60.7291C220.524 59.7867 220.532 58.7507 220.483 57.6211C220.469 57.3014 220.445 56.9929 220.411 56.6954C220.376 56.3979 220.279 56.1353 220.12 55.9073C219.981 55.6572 219.759 55.4746 219.455 55.3598C219.172 55.2227 218.764 55.1658 218.231 55.189C217.719 55.2114 217.252 55.2745 216.83 55.3783C216.406 55.4609 215.994 55.5643 215.594 55.6885C215.214 55.7905 214.813 55.8935 214.39 55.9973C213.988 56.079 213.531 56.1309 213.02 56.1533C212.849 56.1607 212.721 56.1556 212.635 56.138C212.266 55.5135 211.957 54.7903 211.707 53.9684C211.458 53.1465 211.283 52.3214 211.183 51.493C211.082 50.6432 211.047 49.844 211.078 49.0952C211.13 48.3242 211.263 47.6992 211.477 47.2201C212.487 46.877 213.477 46.5775 214.448 46.3216C215.42 46.0657 216.414 45.8514 217.431 45.6789C218.469 45.4841 219.551 45.3301 220.678 45.2168C221.805 45.1035 223.018 45.0185 224.319 44.9618C225.619 44.905 226.814 44.8849 227.903 44.9013C229.014 44.9169 230.063 44.9779 231.05 45.0843C232.059 45.1897 233.026 45.329 233.951 45.5021C234.898 45.6743 235.858 45.8993 236.831 46.1771C237.262 47.7172 237.478 49.2452 237.48 50.7612C237.503 52.255 237.178 53.86 236.505 55.5763C235.797 55.5004 235.164 55.432 234.606 55.3709C234.049 55.3099 233.533 55.247 233.061 55.1822C232.609 55.1165 232.191 55.0707 231.806 55.0448C231.42 55.0189 231.046 55.0139 230.684 55.0297C230.279 55.0474 229.973 55.1355 229.766 55.294C229.56 55.4525 229.419 55.6401 229.343 55.857C229.267 56.0738 229.224 56.3106 229.213 56.5673C229.224 56.8017 229.233 57.0255 229.243 57.2387C229.297 58.4748 229.387 59.5599 229.513 60.494C229.639 61.428 229.774 62.3083 229.917 63.1349C230.081 63.9605 230.234 64.7759 230.376 65.5812C230.539 66.3855 230.684 67.2653 230.811 68.2207C230.912 69.0704 230.994 69.7075 231.055 70.1319C231.116 70.5563 231.035 70.9015 230.812 71.1675ZM249.593 71.2123C249.05 71.4923 248.419 71.7227 247.701 71.9035C247.005 72.1047 246.274 72.2327 245.508 72.2875C244.764 72.3627 244.006 72.3744 243.235 72.3227C242.465 72.2922 241.745 72.1955 241.076 72.0326C240.943 71.9103 240.803 71.6388 240.656 71.2181C240.532 70.8178 240.4 70.247 240.261 69.5057C240.122 68.7644 239.996 67.8304 239.883 66.7036C239.769 65.5555 239.677 64.1822 239.607 62.5837C239.581 61.9869 239.514 61.1891 239.406 60.1902C239.298 59.1699 239.185 58.0644 239.069 56.8737C238.974 55.6607 238.888 54.426 238.811 53.1694C238.735 51.9129 238.717 50.7606 238.757 49.7125C238.817 48.6422 238.948 47.729 239.149 46.9728C239.351 46.2166 239.672 45.7435 240.112 45.5534C240.427 45.4116 240.848 45.2864 241.377 45.1779C241.928 45.0684 242.542 44.9669 243.222 44.8731C243.901 44.7794 244.613 44.7056 245.358 44.6517C246.103 44.5979 246.816 44.5454 247.497 44.4943C248.2 44.4423 248.839 44.4037 249.414 44.3786C250.011 44.3525 250.49 44.3316 250.853 44.3158C251.769 44.2757 252.826 44.283 254.025 44.3374C255.243 44.3696 256.402 44.4899 257.5 44.6982C257.778 45.1985 258.018 45.818 258.221 46.5565C258.424 47.295 258.565 48.0683 258.643 48.8763C258.742 49.6834 258.766 50.4724 258.714 51.2434C258.683 51.9922 258.572 52.6376 258.382 53.1797C258.177 53.3596 257.947 53.4764 257.693 53.5301C257.438 53.5626 257.172 53.5849 256.895 53.597C256.256 53.6249 255.603 53.5787 254.935 53.4584C254.288 53.3158 253.641 53.1625 252.993 52.9986C252.346 52.8347 251.688 52.6926 251.021 52.5723C250.374 52.4297 249.72 52.3728 249.06 52.4017C248.335 52.4333 247.838 52.5404 247.568 52.723C247.319 52.8834 247.208 53.2833 247.236 53.9226C247.263 54.5407 247.403 55.0471 247.655 55.4418C247.906 55.8152 248.426 55.9847 249.215 55.9503C250.046 55.914 250.916 55.7906 251.825 55.5801C252.734 55.3695 253.595 55.2786 254.407 55.3072C254.736 55.485 254.988 55.8797 255.164 56.4913C255.361 57.1019 255.487 57.7798 255.541 58.5248C255.595 59.2698 255.563 60.0186 255.447 60.771C255.351 61.5226 255.175 62.1175 254.916 62.5559C254.534 62.6152 254.118 62.6121 253.667 62.5464C253.215 62.4807 252.753 62.4048 252.279 62.3187C251.827 62.2316 251.354 62.1455 250.859 62.0604C250.385 61.9743 249.925 61.941 249.477 61.9606C248.987 61.982 248.647 62.0288 248.458 62.1011C248.269 62.1734 248.185 62.4547 248.207 62.9449C248.232 63.5204 248.321 64.093 248.474 64.6629C248.648 65.2318 248.814 65.8438 248.97 66.499C249.149 67.1532 249.297 67.862 249.416 68.6256C249.556 69.3882 249.615 70.2504 249.593 71.2123ZM286.459 67.3926C286.259 67.7003 285.79 67.977 285.054 68.2227C284.317 68.4684 283.471 68.6655 282.517 68.8139C281.584 68.9614 280.627 69.0459 279.645 69.0674C278.685 69.088 277.871 69.0274 277.203 68.8858C276.941 68.2566 276.646 67.6288 276.32 67.0025C275.993 66.3548 275.731 65.7363 275.534 65.147C275.433 64.7884 275.283 64.5174 275.082 64.3339C274.904 64.1495 274.663 64.0213 274.361 63.949C274.079 63.8546 273.714 63.8064 273.266 63.8047C272.838 63.802 272.316 63.8141 271.698 63.8411C271.399 63.8541 271.048 63.8695 270.643 63.8872C270.237 63.8835 269.843 63.9007 269.46 63.9388C269.077 63.9769 268.727 64.0348 268.41 64.1127C268.093 64.1693 267.883 64.2639 267.782 64.3964C267.681 64.5289 267.591 64.661 267.511 64.7926C267.431 64.9029 267.351 65.0452 267.274 65.2194C267.196 65.3936 267.109 65.6109 267.014 65.8713C266.94 66.1308 266.837 66.4769 266.707 66.9097C266.596 67.2989 266.504 67.6446 266.432 67.9467C266.36 68.2488 266.297 68.5185 266.243 68.7557C266.188 68.9716 266.133 69.1769 266.078 69.3715C266.022 69.5661 265.945 69.751 265.846 69.9262C265.188 70.0189 264.452 70.0404 263.638 69.9905C262.826 69.9619 262.021 69.8796 261.225 69.7435C260.43 69.6288 259.686 69.469 258.994 69.2644C258.323 69.0588 257.79 68.8258 257.394 68.5655C257.383 68.3097 257.402 68.0206 257.452 67.6981C257.501 67.3543 257.55 67.0105 257.6 66.6667C257.669 66.3007 257.739 65.956 257.811 65.6325C257.881 65.2878 257.943 64.9862 257.995 64.7276C258.254 63.307 258.568 61.7131 258.94 59.9459C259.331 58.1564 259.787 56.3748 260.308 54.6011C260.849 52.8051 261.447 51.1134 262.104 49.5259C262.782 47.9375 263.548 46.6442 264.401 45.646C264.685 45.3133 265.068 45.0297 265.549 44.7952C266.051 44.5597 266.619 44.3641 267.253 44.2083C267.886 44.0312 268.553 43.8953 269.253 43.8006C269.954 43.706 270.656 43.6433 271.359 43.6126C271.849 43.5912 272.416 43.6092 273.059 43.6665C273.723 43.7229 274.379 43.8331 275.027 43.997C275.696 44.1599 276.326 44.3994 276.916 44.7152C277.527 45.0089 278.014 45.404 278.377 45.9006C278.898 46.5826 279.415 47.4142 279.928 48.3954C280.439 49.3553 280.934 50.4121 281.411 51.5657C281.91 52.7184 282.39 53.9359 282.852 55.2183C283.314 56.5007 283.744 57.7846 284.141 59.0698C284.56 60.354 284.936 61.6189 285.268 62.8642C285.621 64.1087 285.939 65.2693 286.221 66.346C286.271 66.5146 286.321 66.6939 286.372 66.8839C286.444 67.0516 286.473 67.2212 286.459 67.3926ZM269.021 57.5519C268.937 58.0893 269.068 58.3933 269.413 58.4636C269.78 58.5544 270.145 58.5918 270.507 58.576C270.89 58.538 271.262 58.511 271.624 58.4952C272.2 58.4701 272.668 58.4283 273.028 58.3698C273.409 58.2892 273.694 58.202 273.882 58.1084C274.069 57.9934 274.181 57.8817 274.219 57.7733C274.278 57.6427 274.282 57.5037 274.233 57.3563C274.157 57.082 274.041 56.6173 273.884 55.9622C273.726 55.2858 273.526 54.6006 273.282 53.9065C273.038 53.2125 272.745 52.6061 272.402 52.0872C272.08 51.5674 271.706 51.3168 271.28 51.3354C270.96 51.3494 270.673 51.6182 270.418 52.1418C270.162 52.6441 269.943 53.2409 269.76 53.9322C269.576 54.6235 269.414 55.3139 269.273 56.0034C269.153 56.6706 269.069 57.1868 269.021 57.5519ZM287.217 42.8242C287.868 42.5822 288.597 42.4009 289.403 42.2803C290.231 42.1587 291.05 42.1016 291.862 42.1089C292.673 42.0948 293.444 42.1466 294.175 42.2641C294.905 42.3604 295.51 42.5155 295.989 42.7294C296.242 43.1455 296.39 43.6088 296.434 44.1193C296.498 44.6077 296.542 45.1289 296.566 45.6831C296.607 46.6208 296.609 47.6351 296.571 48.7257C296.532 49.7951 296.483 50.8756 296.424 51.9672C296.386 53.0579 296.348 54.1379 296.309 55.2073C296.271 56.2767 296.271 57.2696 296.311 58.1861C296.332 58.655 296.36 59.0488 296.395 59.3676C296.43 59.6863 296.516 59.9388 296.652 60.125C296.81 60.3104 297.04 60.4391 297.342 60.5113C297.665 60.5826 298.104 60.6062 298.658 60.582C299.276 60.555 299.871 60.4863 300.443 60.3759C301.014 60.2443 301.563 60.1135 302.091 59.9837C302.641 59.8529 303.191 59.7328 303.741 59.6234C304.291 59.4926 304.853 59.4147 305.429 59.3895L305.525 59.3853C305.925 59.7522 306.255 60.2183 306.514 60.7835C306.794 61.3265 307.023 61.9144 307.2 62.5473C307.398 63.1792 307.545 63.8348 307.638 64.514C307.731 65.1719 307.79 65.7886 307.815 66.3641C307.63 66.5216 307.401 66.6704 307.13 66.8104C306.443 67.2247 305.733 67.5761 304.998 67.8644C304.284 68.1518 303.452 68.4017 302.5 68.614C301.549 68.8264 300.413 68.9934 299.095 69.1151C297.798 69.2571 296.212 69.369 294.337 69.4509C292.866 69.5151 291.657 69.4611 290.71 69.289C289.786 69.1372 288.991 68.7981 288.328 68.2719C287.886 67.9282 287.544 67.4413 287.303 66.8112C287.082 66.1589 286.908 65.3444 286.78 64.3677C286.651 63.3697 286.557 62.1994 286.499 60.8566C286.461 59.513 286.405 57.978 286.33 56.2516C286.307 55.7401 286.28 55.122 286.249 54.3974C286.238 53.6718 286.226 52.9036 286.212 52.0928C286.198 51.282 286.194 50.4494 286.199 49.595C286.226 48.7397 286.265 47.9265 286.317 47.1555C286.369 46.3845 286.434 45.6877 286.514 45.065C286.614 44.42 286.73 43.9131 286.864 43.5442C286.901 43.4145 286.949 43.2949 287.008 43.1856C287.088 43.054 287.157 42.9335 287.217 42.8242ZM308.727 41.885C309.379 41.643 310.108 41.4617 310.914 41.3411C311.741 41.2195 312.561 41.1624 313.373 41.1697C314.183 41.1556 314.954 41.2074 315.686 41.3249C316.416 41.4212 317.021 41.5763 317.5 41.7902C317.753 42.2063 317.901 42.6696 317.945 43.1802C318.009 43.6685 318.053 44.1897 318.077 44.7439C318.118 45.6816 318.12 46.6959 318.082 47.7866C318.043 48.8559 317.994 49.9364 317.935 51.0281C317.897 52.1187 317.859 53.1988 317.82 54.2681C317.782 55.3375 317.782 56.3304 317.822 57.2469C317.843 57.7158 317.871 58.1096 317.906 58.4284C317.941 58.7471 318.027 58.9996 318.163 59.1859C318.321 59.3712 318.55 59.4999 318.853 59.5722C319.176 59.6435 319.615 59.667 320.169 59.6428C320.787 59.6158 321.382 59.5471 321.954 59.4368C322.524 59.3051 323.074 59.1743 323.602 59.0445C324.152 58.9137 324.702 58.7936 325.252 58.6842C325.801 58.5534 326.364 58.4755 326.939 58.4504L327.035 58.4462C327.436 58.813 327.766 59.2791 328.025 59.8443C328.305 60.3873 328.534 60.9752 328.711 61.6081C328.909 62.24 329.055 62.8956 329.149 63.5748C329.242 64.2328 329.301 64.8494 329.326 65.4249C329.141 65.5825 328.912 65.7312 328.641 65.8712C327.954 66.2855 327.243 66.6369 326.509 66.9252C325.795 67.2126 324.963 67.4625 324.011 67.6749C323.059 67.8872 321.924 68.0543 320.606 68.1759C319.309 68.3179 317.723 68.4299 315.848 68.5117C314.377 68.5759 313.168 68.522 312.221 68.3498C311.296 68.198 310.502 67.859 309.839 67.3327C309.396 66.989 309.055 66.5021 308.814 65.872C308.593 65.2197 308.419 64.4052 308.291 63.4285C308.162 62.4305 308.068 61.2602 308.009 59.9175C307.972 58.5738 307.916 57.0388 307.84 55.3125C307.818 54.8009 307.791 54.1829 307.759 53.4582C307.749 52.7326 307.737 51.9644 307.723 51.1536C307.709 50.3428 307.704 49.5102 307.71 48.6558C307.737 47.8005 307.776 46.9873 307.828 46.2164C307.879 45.4454 307.945 44.7485 308.025 44.1258C308.124 43.4808 308.241 42.9739 308.375 42.6051C308.412 42.4753 308.46 42.3558 308.519 42.2464C308.599 42.1148 308.668 41.9943 308.727 41.885Z" fill="white"/>
<path d="M485.767 52.9474C485.991 53.1938 486.176 53.5168 486.321 53.9161C486.488 54.3146 486.624 54.7357 486.729 55.1795C486.834 55.6234 486.917 56.0682 486.979 56.5139C487.04 56.9383 487.078 57.3103 487.092 57.63C487.113 58.1202 487.103 58.6118 487.06 59.1048C487.018 59.5978 486.91 60.0723 486.738 60.5282C485.724 60.786 484.548 60.9762 483.208 61.0988C481.869 61.2426 480.475 61.3462 479.025 61.4095C477.598 61.4932 476.181 61.555 474.773 61.5951C473.387 61.6343 472.15 61.6776 471.063 61.7251C469.913 61.7753 468.75 61.8047 467.576 61.8133C466.402 61.8219 465.254 61.7011 464.133 61.4511C463.81 60.91 463.58 60.2901 463.443 59.5915C463.326 58.8705 463.254 58.201 463.227 57.583C463.203 57.0288 463.22 56.4302 463.277 55.7871C463.333 55.1227 463.468 54.5402 463.681 54.0398C463.787 54.0138 463.904 53.998 464.031 53.9925C464.158 53.9656 464.275 53.9498 464.382 53.9451C465.256 53.907 466.12 53.9013 466.975 53.928C467.83 53.9334 468.683 53.9175 469.536 53.8803C469.792 53.8691 470.069 53.857 470.367 53.844C470.686 53.8087 470.96 53.7327 471.19 53.6159C471.46 53.4546 471.651 53.1793 471.762 52.7901C471.873 52.3796 471.939 51.9389 471.961 51.4682C471.983 50.9974 471.974 50.5387 471.933 50.0921C471.913 49.6445 471.898 49.2929 471.887 49.0371L471.811 47.3107C471.804 47.1402 471.783 46.9063 471.749 46.6088C471.736 46.3104 471.691 46.0241 471.615 45.7498C471.559 45.4533 471.463 45.2013 471.326 44.9937C471.189 44.7862 470.992 44.688 470.736 44.6991C470.31 44.7178 469.693 44.7661 468.885 44.844C468.098 44.9211 467.332 44.9759 466.586 45.0085C466.202 45.0252 465.84 45.0304 465.498 45.024C465.177 45.0166 464.899 44.9967 464.662 44.9644C464.209 44.856 463.874 44.529 463.658 43.9832C463.442 43.4161 463.285 42.761 463.188 42.0178C463.092 41.2747 463.037 40.5083 463.024 39.7188C463.01 38.908 462.99 38.2042 462.964 37.6074C462.959 37.5009 462.955 37.405 462.951 37.3197C462.947 37.2345 462.954 37.1381 462.971 37.0306C463.091 36.8545 463.415 36.7015 463.943 36.5717C464.471 36.4206 465.116 36.2856 465.88 36.1669C466.664 36.0259 467.523 35.9029 468.458 35.7981C469.393 35.6932 470.318 35.5994 471.232 35.5168C472.168 35.4332 473.051 35.3626 473.882 35.305C474.712 35.2474 475.415 35.206 475.99 35.1809C477.503 35.1148 478.573 35.3991 479.199 36.0338C479.823 36.6471 480.167 37.6784 480.23 39.1277C480.329 41.3869 480.404 43.5937 480.455 45.7482C480.506 47.8814 480.58 50.0775 480.679 52.3367C480.7 52.8056 480.766 53.1017 480.878 53.2249C480.989 53.3268 481.301 53.3666 481.812 53.3443C482.451 53.3163 483.111 53.2662 483.791 53.1938C484.471 53.1001 485.129 53.0179 485.767 52.9474ZM508.734 47.0119C508.823 49.058 508.753 50.8761 508.523 52.4663C508.294 54.0565 507.83 55.4113 507.131 56.5309C506.433 57.6504 505.446 58.5263 504.171 59.1585C502.895 59.7694 501.245 60.1191 499.22 60.2075C497.6 60.2782 496.111 60.1617 494.753 59.858C493.394 59.5543 492.216 58.9865 491.219 58.1545C490.222 57.3226 489.425 56.1829 488.828 54.7356C488.252 53.2873 487.916 51.4549 487.819 49.2383C487.722 47.0218 487.827 45.0313 488.135 43.2669C488.463 41.5015 489.027 39.9928 489.827 38.7408C490.648 37.4878 491.737 36.5113 493.094 35.8115C494.452 35.1116 496.121 34.7184 498.104 34.6318C500 34.549 501.601 34.7674 502.905 35.287C504.23 35.8057 505.3 36.5918 506.115 37.6453C506.951 38.6978 507.574 40.0159 507.985 41.5994C508.395 43.1617 508.644 44.9659 508.734 47.0119ZM496.197 47.4632C496.221 47.996 496.254 48.5177 496.298 49.0283C496.362 49.5166 496.476 49.9387 496.641 50.2945C496.806 50.6503 497.033 50.9394 497.32 51.1617C497.628 51.3618 498.048 51.4503 498.581 51.427C499.135 51.4028 499.556 51.2776 499.845 51.0515C500.135 50.8253 500.346 50.5278 500.479 50.159C500.613 49.7901 500.679 49.3602 500.679 48.869C500.678 48.3566 500.665 47.802 500.638 47.2052C500.586 46.0117 500.397 45.1017 500.071 44.4754C499.745 43.849 499.091 43.5572 498.111 43.6C497.28 43.6363 496.741 44.0229 496.496 44.7596C496.249 45.475 496.15 46.3762 496.197 47.4632ZM531.462 46.0196C531.551 48.0656 531.481 49.8838 531.252 51.474C531.022 53.0641 530.558 54.419 529.86 55.5385C529.161 56.6581 528.175 57.5339 526.9 58.1662C525.624 58.7771 523.973 59.1267 521.949 59.2151C520.329 59.2858 518.84 59.1694 517.481 58.8657C516.123 58.562 514.945 57.9941 513.947 57.1622C512.95 56.3302 512.153 55.1906 511.556 53.7432C510.98 52.295 510.644 50.4626 510.547 48.246C510.451 46.0294 510.556 44.039 510.863 42.2745C511.192 40.5092 511.756 39.0005 512.555 37.7484C513.376 36.4954 514.465 35.519 515.823 34.8191C517.18 34.1192 518.85 33.726 520.832 33.6395C522.729 33.5567 524.329 33.7751 525.633 34.2947C526.958 34.8134 528.028 35.5995 528.843 36.6529C529.679 37.7054 530.302 39.0235 530.713 40.6071C531.123 42.1694 531.373 43.9735 531.462 46.0196ZM518.926 46.4708C518.949 47.0037 518.983 47.5254 519.026 48.036C519.09 48.5243 519.205 48.9464 519.37 49.3022C519.535 49.658 519.761 49.9471 520.048 50.1694C520.356 50.3695 520.776 50.4579 521.309 50.4347C521.863 50.4105 522.285 50.2853 522.574 50.0591C522.863 49.833 523.074 49.5355 523.207 49.1666C523.341 48.7978 523.408 48.3678 523.407 47.8767C523.406 47.3643 523.393 46.8096 523.367 46.2129C523.315 45.0194 523.125 44.1094 522.799 43.483C522.473 42.8567 521.82 42.5649 520.839 42.6077C520.008 42.644 519.47 43.0305 519.224 43.7673C518.978 44.4827 518.878 45.3839 518.926 46.4708ZM554.19 45.0272C554.28 47.0733 554.21 48.8914 553.98 50.4816C553.751 52.0718 553.287 53.4267 552.588 54.5462C551.89 55.6657 550.903 56.5416 549.628 57.1738C548.352 57.7847 546.702 58.1344 544.677 58.2228C543.057 58.2935 541.568 58.177 540.209 57.8733C538.851 57.5696 537.673 57.0018 536.676 56.1698C535.679 55.3379 534.881 54.1982 534.284 52.7509C533.709 51.3026 533.372 49.4702 533.276 47.2537C533.179 45.0371 533.284 43.0466 533.591 41.2822C533.92 39.5168 534.484 38.0081 535.284 36.7561C536.104 35.5031 537.194 34.5266 538.551 33.8268C539.908 33.1269 541.578 32.7337 543.56 32.6471C545.457 32.5643 547.058 32.7827 548.361 33.3023C549.687 33.821 550.757 34.6071 551.571 35.6606C552.407 36.7131 553.031 38.0312 553.442 39.6148C553.851 41.177 554.101 42.9812 554.19 45.0272ZM541.654 45.4785C541.677 46.0113 541.711 46.533 541.755 47.0436C541.819 47.532 541.933 47.954 542.098 48.3098C542.263 48.6656 542.489 48.9547 542.777 49.1771C543.084 49.3772 543.505 49.4656 544.037 49.4423C544.591 49.4181 545.013 49.293 545.302 49.0668C545.591 48.8406 545.802 48.5431 545.936 48.1743C546.069 47.8055 546.136 47.3755 546.136 46.8844C546.135 46.3719 546.121 45.8173 546.095 45.2205C546.043 44.027 545.854 43.1171 545.528 42.4907C545.201 41.8643 544.548 41.5726 543.567 41.6154C542.736 41.6517 542.198 42.0382 541.953 42.7749C541.706 43.4903 541.607 44.3915 541.654 45.4785ZM571.741 53.8381C571.365 54.0253 570.87 54.1857 570.257 54.3193C569.665 54.4519 569.039 54.5433 568.379 54.5934C567.741 54.6427 567.1 54.6493 566.458 54.6133C565.816 54.5772 565.268 54.5051 564.815 54.3967C564.634 54.1484 564.493 53.8663 564.394 53.5503C564.316 53.2334 564.27 52.9151 564.256 52.5954L564.079 48.5353C564.061 48.1303 563.964 47.8676 563.788 47.7472C563.612 47.6268 563.375 47.5731 563.076 47.5861C562.373 47.6168 561.704 47.6887 561.068 47.8019C560.431 47.8937 559.761 47.955 559.058 47.9857C558.845 47.995 558.578 47.996 558.257 47.9887C557.957 47.9591 557.709 47.9058 557.514 47.829C557.07 46.9515 556.792 45.9707 556.681 44.8865C556.591 43.8014 556.599 42.776 556.707 41.8104C556.874 41.7391 557.128 41.6853 557.468 41.6491C557.808 41.6129 558.181 41.5859 558.586 41.5682C559.225 41.5403 559.888 41.5541 560.573 41.6096C561.258 41.6437 562.038 41.6417 562.911 41.6036C563.146 41.5934 563.303 41.5331 563.384 41.4228C563.464 41.2912 563.496 41.0656 563.483 40.7459C563.468 40.4048 563.427 39.9689 563.361 39.4379C563.317 38.906 563.261 38.3533 563.193 37.7797C563.146 37.2051 563.101 36.6626 563.058 36.152C563.035 35.6405 563.039 35.2453 563.07 34.9663C563.488 34.7559 564.014 34.5835 564.649 34.449C565.305 34.3136 565.985 34.2305 566.688 34.1998C567.412 34.1469 568.117 34.1588 568.804 34.2356C569.511 34.2901 570.125 34.4128 570.645 34.6036C570.786 34.8964 570.879 35.2981 570.922 35.8086C570.966 36.3192 570.978 36.8525 570.96 37.4085C570.963 37.9636 570.944 38.5089 570.903 39.0445C570.884 39.5792 570.882 40.0277 570.898 40.3901C570.914 40.7524 570.988 40.984 571.121 41.085C571.252 41.1647 571.467 41.198 571.766 41.185C572.128 41.1692 572.489 41.1214 572.848 41.0416C573.207 40.9405 573.555 40.8399 573.892 40.7398C574.251 40.6387 574.599 40.5488 574.937 40.4699C575.296 40.3689 575.656 40.3104 576.019 40.2946C576.338 40.2806 576.64 40.3316 576.922 40.4473C577.111 40.8662 577.26 41.3401 577.369 41.8692C577.499 42.3974 577.576 42.9492 577.601 43.5247C577.648 44.0992 577.641 44.6867 577.582 45.2872C577.543 45.8654 577.45 46.4247 577.303 46.9649C577.029 47.041 576.753 47.085 576.476 47.0971C575.559 47.1372 574.749 47.1512 574.043 47.1393C573.337 47.1061 572.515 47.1099 571.578 47.1509C571.322 47.162 571.202 47.3594 571.219 47.7431C571.235 48.1054 571.287 48.5729 571.376 49.1455C571.465 49.7182 571.545 50.3126 571.614 50.9288C571.704 51.5228 571.772 52.0857 571.816 52.6176C571.861 53.1495 571.836 53.5563 571.741 53.8381ZM616.689 45.6297C616.893 45.8984 617.065 46.4034 617.204 47.1447C617.342 47.8647 617.441 48.6718 617.502 49.566C617.583 50.4593 617.612 51.3655 617.588 52.2848C617.564 53.204 617.47 53.9875 617.307 54.6353C616.91 54.8448 616.407 55.0696 615.799 55.3097C615.19 55.5498 614.495 55.7724 613.714 55.9773C612.954 56.1813 612.139 56.3557 611.27 56.5004C610.402 56.6664 609.51 56.7694 608.593 56.8094C606.654 56.8941 604.863 56.7267 603.222 56.3073C601.581 55.8878 600.161 55.1597 598.963 54.123C597.763 53.0649 596.806 51.6654 596.089 49.9243C595.371 48.1619 594.957 46.002 594.845 43.4444C594.731 40.8229 594.966 38.6346 595.551 36.8794C596.137 35.1241 597.004 33.709 598.153 32.6338C599.323 31.5578 600.73 30.781 602.375 30.3035C604.041 29.825 605.897 29.5411 607.943 29.4518C609.606 29.3792 611.08 29.4002 612.366 29.5149C613.674 29.6286 614.738 29.8064 615.56 30.0481C615.697 30.2343 615.818 30.56 615.923 31.0252C616.05 31.4681 616.157 31.9759 616.246 32.5485C616.335 33.1212 616.416 33.7369 616.487 34.3958C616.558 35.0546 616.597 35.6936 616.603 36.3126C616.629 36.9093 616.631 37.4537 616.61 37.9458C616.589 38.4379 616.542 38.8243 616.468 39.1051C615.903 38.8735 615.379 38.5975 614.895 38.2769C614.411 37.9564 613.896 37.6586 613.35 37.3835C612.826 37.1074 612.218 36.8884 611.528 36.7263C610.837 36.543 610.011 36.4722 609.052 36.5141C608.349 36.5448 607.651 36.7034 606.959 36.9899C606.288 37.2754 605.687 37.686 605.155 38.2217C604.644 38.7352 604.234 39.3723 603.925 40.1332C603.638 40.8931 603.516 41.7633 603.559 42.7437C603.645 44.7258 604.157 46.1662 605.093 47.0649C606.049 47.9413 607.295 48.346 608.829 48.279C609.554 48.2474 610.274 48.1198 610.991 47.8964C611.707 47.6729 612.4 47.4184 613.071 47.1329C613.763 46.8464 614.413 46.5618 615.02 46.2791C615.627 45.9964 616.183 45.7799 616.689 45.6297ZM618.042 42.4316C617.89 38.9576 618.356 36.1826 619.44 34.1067C620.524 32.0308 622.05 30.5548 624.019 29.6788C624.543 29.4424 625.122 29.2569 625.757 29.1224C626.39 28.9666 627.036 28.8424 627.694 28.7496C628.373 28.6559 629.043 28.5839 629.703 28.5338C630.362 28.4836 630.98 28.446 631.555 28.4208C632.11 28.3966 632.696 28.3817 633.315 28.376C633.934 28.3704 634.565 28.3962 635.208 28.4535C635.851 28.4895 636.473 28.5585 637.075 28.6603C637.698 28.7399 638.259 28.8649 638.757 29.0353C639.776 29.3965 640.696 29.9115 641.515 30.5804C642.355 31.2271 643.074 32.0498 643.673 33.0487C644.293 34.0466 644.782 35.2317 645.141 36.604C645.499 37.955 645.716 39.4937 645.791 41.2201C645.903 43.7776 645.678 45.9655 645.117 47.7837C644.555 49.5806 643.722 51.0583 642.62 52.2168C641.517 53.3541 640.166 54.2031 638.567 54.7641C636.99 55.324 635.221 55.6468 633.26 55.7325L631.79 55.7967C629.85 55.8813 628.06 55.7139 626.419 55.2945C624.778 54.875 623.358 54.1469 622.159 53.1102C620.96 52.0521 620.002 50.6526 619.286 48.9115C618.568 47.1492 618.153 44.9892 618.042 42.4316ZM631.643 35.5598C630.982 35.5887 630.349 35.7551 629.743 36.0592C629.137 36.3632 628.6 36.7817 628.132 37.3146C627.686 37.8466 627.329 38.4921 627.064 39.2511C626.818 39.9878 626.715 40.8144 626.755 41.7309C626.835 43.5425 627.301 44.9421 628.156 45.9298C629.031 46.8952 630.364 47.3388 632.154 47.2607C633.965 47.1816 635.254 46.6235 636.02 45.5864C636.807 44.5271 637.161 43.0916 637.082 41.28C637.042 40.3636 636.857 39.5495 636.527 38.8379C636.217 38.104 635.806 37.4921 635.293 37.002C634.802 36.5109 634.241 36.1403 633.611 35.8903C632.981 35.6402 632.325 35.53 631.643 35.5598ZM647.406 27.9209C648.058 27.679 648.787 27.4977 649.593 27.3771C650.42 27.2555 651.24 27.1984 652.052 27.2056C652.863 27.1916 653.634 27.2433 654.365 27.3609C655.095 27.4571 655.7 27.6122 656.179 27.8262C656.432 28.2422 656.58 28.7055 656.624 29.2161C656.688 29.7045 656.732 30.2257 656.756 30.7798C656.797 31.7176 656.799 32.7318 656.761 33.8225C656.722 34.8919 656.673 35.9724 656.614 37.064C656.576 38.1547 656.538 39.2347 656.499 40.3041C656.461 41.3735 656.461 42.3664 656.501 43.2829C656.522 43.7517 656.55 44.1456 656.585 44.4643C656.62 44.7831 656.706 45.0356 656.842 45.2218C657 45.4071 657.23 45.5359 657.532 45.6081C657.855 45.6794 658.294 45.703 658.848 45.6788C659.466 45.6518 660.061 45.5831 660.633 45.4727C661.203 45.341 661.753 45.2103 662.281 45.0804C662.831 44.9497 663.381 44.8296 663.931 44.7201C664.48 44.5894 665.043 44.5114 665.618 44.4863L665.714 44.4821C666.115 44.849 666.445 45.3151 666.704 45.8803C666.984 46.4232 667.213 47.0112 667.39 47.6441C667.588 48.276 667.734 48.9316 667.828 49.6108C667.921 50.2687 667.98 50.8854 668.005 51.4609C667.82 51.6184 667.591 51.7672 667.32 51.9072C666.633 52.3215 665.922 52.6728 665.188 52.9612C664.474 53.2486 663.642 53.4985 662.69 53.7108C661.738 53.9232 660.603 54.0902 659.285 54.2118C657.988 54.3539 656.402 54.4658 654.527 54.5477C653.056 54.6119 651.847 54.5579 650.9 54.3857C649.975 54.2339 649.181 53.8949 648.518 53.3687C648.075 53.025 647.734 52.5381 647.493 51.908C647.272 51.2557 647.098 50.4412 646.97 49.4645C646.841 48.4665 646.747 47.2961 646.688 45.9534C646.651 44.6098 646.595 43.0748 646.519 41.3484C646.497 40.8369 646.47 40.2188 646.438 39.4942C646.428 38.7686 646.416 38.0004 646.402 37.1896C646.388 36.3788 646.383 35.5462 646.389 34.6918C646.416 33.8365 646.455 33.0233 646.507 32.2523C646.558 31.4813 646.624 30.7845 646.704 30.1617C646.804 29.5168 646.92 29.0099 647.054 28.641C647.091 28.5113 647.139 28.3917 647.198 28.2824C647.278 28.1508 647.347 28.0303 647.406 27.9209ZM668.917 26.9818C669.569 26.7398 670.297 26.5585 671.104 26.4379C671.931 26.3163 672.751 26.2592 673.562 26.2665C674.373 26.2524 675.144 26.3042 675.875 26.4217C676.606 26.518 677.21 26.6731 677.689 26.887C677.943 27.3031 678.091 27.7664 678.135 28.2769C678.199 28.7653 678.243 29.2865 678.267 29.8407C678.308 30.7784 678.309 31.7927 678.272 32.8833C678.233 33.9527 678.184 35.0332 678.125 36.1248C678.087 37.2155 678.049 38.2955 678.01 39.3649C677.971 40.4343 677.972 41.4272 678.012 42.3437C678.032 42.8126 678.06 43.2064 678.096 43.5252C678.131 43.8439 678.217 44.0964 678.353 44.2826C678.51 44.468 678.74 44.5967 679.042 44.6689C679.366 44.7402 679.805 44.7638 680.359 44.7396C680.977 44.7126 681.572 44.6439 682.143 44.5335C682.714 44.4019 683.264 44.2711 683.792 44.1413C684.341 44.0105 684.891 43.8904 685.442 43.781C685.991 43.6502 686.554 43.5723 687.129 43.5471L687.225 43.5429C687.625 43.9098 687.955 44.3759 688.215 44.9411C688.495 45.4841 688.723 46.072 688.901 46.7049C689.099 47.3368 689.245 47.9924 689.339 48.6716C689.432 49.3295 689.491 49.9462 689.516 50.5217C689.33 50.6792 689.102 50.828 688.83 50.968C688.144 51.3823 687.433 51.7337 686.698 52.022C685.985 52.3094 685.152 52.5593 684.201 52.7717C683.249 52.984 682.114 53.151 680.795 53.2727C679.499 53.4147 677.913 53.5266 676.037 53.6085C674.567 53.6727 673.358 53.6187 672.411 53.4466C671.486 53.2948 670.692 52.9557 670.028 52.4295C669.586 52.0858 669.245 51.5989 669.004 50.9688C668.783 50.3165 668.609 49.502 668.481 48.5253C668.352 47.5273 668.258 46.357 668.199 45.0142C668.162 43.6706 668.105 42.1356 668.03 40.4092C668.008 39.8977 667.981 39.2796 667.949 38.555C667.939 37.8294 667.927 37.0612 667.913 36.2504C667.899 35.4396 667.894 34.607 667.9 33.7526C667.926 32.8973 667.966 32.0841 668.017 31.3131C668.069 30.5421 668.135 29.8453 668.214 29.2226C668.314 28.5776 668.431 28.0707 668.564 27.7018C668.601 27.5721 668.65 27.4526 668.709 27.3432C668.788 27.2116 668.858 27.0911 668.917 26.9818ZM709.405 43.9839C709.655 44.336 709.858 44.8396 710.015 45.4947C710.192 46.1276 710.318 46.8054 710.392 47.5282C710.466 48.251 710.498 48.965 710.486 49.6702C710.474 50.3754 710.393 50.9661 710.243 51.4424C709.656 51.7029 708.971 51.9037 708.187 52.0447C707.425 52.2061 706.63 52.3262 705.801 52.4051C704.972 52.5054 704.153 52.5732 703.343 52.6085C702.534 52.6652 701.778 52.7089 701.075 52.7396C698.709 52.8429 696.853 52.8812 695.506 52.8546C694.181 52.827 693.191 52.646 692.536 52.3116C691.882 51.9985 691.464 51.4829 691.283 50.7648C691.102 50.0467 690.984 49.0376 690.927 47.7375C690.883 46.7358 690.827 45.7025 690.759 44.6378C690.712 43.5509 690.656 42.5176 690.592 41.5382C690.443 39.5802 690.325 37.6208 690.239 35.66C690.236 35.5747 690.221 35.4793 690.195 35.3736C690.19 35.2671 690.185 35.1392 690.178 34.99C690.146 34.7565 690.125 34.5012 690.113 34.2241C690.1 33.9257 690.087 33.6274 690.073 33.329C690.048 32.7535 690.01 32.1146 689.958 31.4122C689.926 30.6876 689.928 30.0041 689.964 29.362C690.021 28.6975 690.134 28.1054 690.303 27.5855C690.494 27.0647 690.788 26.7102 691.186 26.522C691.834 26.2161 692.55 25.982 693.333 25.8197C694.137 25.6564 694.954 25.5353 695.784 25.4564C696.613 25.3775 697.422 25.3315 698.212 25.3184C699.022 25.283 699.757 25.2509 700.418 25.2221C700.972 25.1979 701.58 25.1927 702.243 25.2064C702.927 25.2193 703.623 25.2636 704.331 25.3395C705.038 25.394 705.725 25.4815 706.392 25.6018C707.08 25.6999 707.694 25.8439 708.237 26.0338C708.443 26.3664 708.591 26.8191 708.68 27.3917C708.791 27.9634 708.849 28.5695 708.856 29.2098C708.862 29.8501 708.837 30.4918 708.78 31.1349C708.743 31.7558 708.682 32.3137 708.596 32.8085C708.323 32.9059 708.017 32.9833 707.678 33.0408C707.359 33.0761 706.954 33.1044 706.464 33.1258C705.995 33.1463 705.42 33.1714 704.738 33.2012C704.076 33.2087 703.266 33.2334 702.307 33.2753L700.708 33.3451C700.026 33.3749 699.473 33.4097 699.047 33.4497C698.642 33.4673 698.325 33.5239 698.094 33.6194C697.863 33.7149 697.709 33.8498 697.631 34.024C697.575 34.1973 697.553 34.4331 697.566 34.7315C697.575 34.9446 697.606 35.1568 697.658 35.3681C697.709 35.5581 697.802 35.7355 697.937 35.9004C698.094 36.0644 698.302 36.1941 698.563 36.2895C698.823 36.3849 699.166 36.4233 699.593 36.4047C699.976 36.3879 700.455 36.3563 701.03 36.3099C701.604 36.2635 702.072 36.211 702.432 36.1526C702.793 36.0941 703.143 36.0468 703.483 36.0106C703.845 35.9735 704.206 35.947 704.569 35.9312C704.91 35.9163 705.22 35.9348 705.5 35.9866C705.646 36.386 705.763 36.872 705.852 37.4446C705.941 38.0173 705.998 38.5914 706.023 39.1668C706.048 39.7423 706.051 40.2867 706.031 40.8001C706.009 41.2921 705.972 41.6568 705.918 41.894C705.771 41.9431 705.581 42.0048 705.35 42.079C705.118 42.1531 704.928 42.1935 704.778 42.2C704.501 42.2121 704.224 42.2135 703.946 42.2043C703.668 42.1951 703.379 42.1757 703.078 42.1461C702.778 42.1165 702.383 42.1017 701.891 42.1018C701.4 42.1019 700.995 42.109 700.675 42.1229C699.908 42.1564 699.36 42.3191 699.031 42.6111C698.722 42.8808 698.576 43.1862 698.59 43.5272C698.616 44.1026 698.792 44.4686 699.119 44.6252C699.446 44.7817 700.089 44.8391 701.048 44.7972C701.325 44.7851 701.634 44.7716 701.975 44.7567C702.315 44.7205 702.655 44.6843 702.996 44.6481C703.356 44.5897 703.706 44.5423 704.046 44.5061C704.385 44.4486 704.682 44.4036 704.937 44.3711C705.489 44.283 706.126 44.2018 706.848 44.1275C707.592 44.031 708.24 43.9707 708.794 43.9465C708.901 43.9418 708.997 43.9483 709.084 43.9659C709.19 43.9612 709.297 43.9672 709.405 43.9839ZM731.739 25.36C732.058 25.8158 732.285 26.3611 732.419 26.9959C732.574 27.6084 732.655 28.2454 732.663 28.9071C732.67 29.5687 732.624 30.222 732.524 30.867C732.423 31.4906 732.287 32.0304 732.114 32.4864C731.648 32.5708 731.159 32.6135 730.646 32.6145C730.134 32.6156 729.589 32.6073 729.012 32.5898C728.455 32.5501 727.855 32.5122 727.213 32.4762C726.571 32.4401 725.888 32.4379 725.163 32.4696C723.522 32.5412 722.262 32.7778 721.382 33.1792C720.524 33.5796 719.895 34.0769 719.494 34.671C719.114 35.2641 718.897 35.9142 718.842 36.6212C718.808 37.3061 718.805 37.9682 718.833 38.6075C718.855 39.1191 718.9 39.6616 718.968 40.2352C719.035 40.8088 719.187 41.336 719.421 41.8169C719.655 42.2765 719.992 42.6568 720.432 42.9579C720.872 43.259 721.476 43.3928 722.243 43.3593C722.946 43.3286 723.605 43.2465 724.218 43.1129C724.853 42.9784 725.401 42.805 725.861 42.5928C726.322 42.3805 726.684 42.1297 726.949 41.8406C727.213 41.5301 727.338 41.1937 727.322 40.8314C727.304 40.4264 726.869 40.2426 726.016 40.2798C725.675 40.2947 725.379 40.3503 725.127 40.4467C724.874 40.5219 724.632 40.6072 724.401 40.7026C724.171 40.7981 723.94 40.8936 723.709 40.9891C723.477 41.0633 723.202 41.1073 722.882 41.1213L722.722 41.1283C722.451 40.7771 722.22 40.3921 722.031 39.9733C721.862 39.5323 721.737 39.1 721.654 38.6765C721.571 38.2318 721.542 37.8166 721.568 37.4311C721.614 37.0234 721.717 36.6879 721.876 36.4247C722.284 35.9798 722.812 35.6044 723.461 35.2985C724.108 34.9713 724.78 34.7071 725.476 34.5059C726.193 34.3037 726.913 34.1549 727.635 34.0593C728.356 33.9424 728.993 33.8718 729.547 33.8477C729.803 33.8365 730.134 33.8434 730.541 33.8683C730.968 33.871 731.397 33.9057 731.827 33.9723C732.278 34.038 732.699 34.1371 733.089 34.2696C733.499 34.3798 733.806 34.5479 734.008 34.774C734.32 35.0806 734.573 35.486 734.766 35.9901C734.979 36.4719 735.152 37.0089 735.284 37.601C735.417 38.1931 735.508 38.8084 735.557 39.4468C735.627 40.063 735.674 40.6589 735.699 41.2343C735.987 47.8201 731.793 51.3023 723.119 51.681C720.796 51.7825 718.831 51.5266 717.224 50.9134C715.618 50.3216 714.31 49.4605 713.299 48.3302C712.289 47.1998 711.536 45.8447 711.04 44.2648C710.564 42.6627 710.286 40.9346 710.205 39.0803C710.118 37.0982 710.316 35.2639 710.798 33.5772C711.299 31.8684 712.089 30.3819 713.165 29.1177C714.241 27.8322 715.616 26.8113 717.292 26.0548C718.966 25.277 720.943 24.8384 723.224 24.7388C724.119 24.6997 724.993 24.6722 725.847 24.6563C726.722 24.6395 727.534 24.6574 728.283 24.7101C729.053 24.7405 729.729 24.8071 730.31 24.9099C730.912 25.0117 731.389 25.1617 731.739 25.36ZM756.173 41.942C756.423 42.2941 756.626 42.7977 756.783 43.4528C756.96 44.0857 757.086 44.7635 757.16 45.4863C757.234 46.2091 757.266 46.923 757.254 47.6282C757.242 48.3334 757.161 48.9242 757.011 49.4005C756.424 49.661 755.739 49.8618 754.955 50.0028C754.193 50.1641 753.398 50.2843 752.568 50.3632C751.74 50.4634 750.921 50.5312 750.111 50.5666C749.302 50.6233 748.546 50.6669 747.843 50.6977C745.477 50.8009 743.621 50.8393 742.274 50.8127C740.949 50.7851 739.959 50.6041 739.304 50.2697C738.65 49.9566 738.232 49.441 738.051 48.7229C737.87 48.0047 737.751 46.9956 737.695 45.6955C737.651 44.6938 737.595 43.6606 737.527 42.5959C737.48 41.5089 737.424 40.4757 737.36 39.4962C737.21 37.5382 737.093 35.5788 737.007 33.618C737.004 33.5328 736.989 33.4373 736.963 33.3317C736.958 33.2251 736.952 33.0973 736.946 32.9481C736.914 32.7146 736.893 32.4593 736.881 32.1822C736.867 31.8838 736.854 31.5854 736.841 31.287C736.816 30.7116 736.778 30.0727 736.726 29.3703C736.694 28.6456 736.696 27.9622 736.732 27.32C736.789 26.6556 736.902 26.0634 737.071 25.5436C737.262 25.0227 737.556 24.6682 737.954 24.4801C738.602 24.1741 739.318 23.94 740.101 23.7777C740.905 23.6145 741.722 23.4934 742.551 23.4145C743.381 23.3356 744.19 23.2895 744.98 23.2764C745.79 23.2411 746.525 23.209 747.186 23.1801C747.74 23.1559 748.348 23.1507 749.011 23.1645C749.695 23.1773 750.391 23.2217 751.099 23.2976C751.806 23.3521 752.493 23.4395 753.16 23.5599C753.848 23.658 754.462 23.802 755.005 23.9918C755.211 24.3245 755.359 24.7771 755.448 25.3498C755.559 25.9215 755.617 26.5275 755.624 27.1679C755.63 27.8082 755.605 28.4499 755.548 29.093C755.511 29.7139 755.45 30.2717 755.364 30.7666C755.091 30.8639 754.785 30.9414 754.446 30.9989C754.127 31.0342 753.722 31.0625 753.232 31.0839C752.763 31.1044 752.188 31.1295 751.506 31.1593C750.844 31.1668 750.034 31.1915 749.075 31.2334L747.476 31.3032C746.794 31.333 746.241 31.3678 745.815 31.4077C745.41 31.4254 745.092 31.482 744.862 31.5775C744.631 31.673 744.477 31.8078 744.399 31.9821C744.342 32.1553 744.321 32.3912 744.334 32.6896C744.343 32.9027 744.374 33.1149 744.426 33.3262C744.477 33.5161 744.57 33.6936 744.705 33.8585C744.862 34.0225 745.07 34.1522 745.331 34.2476C745.591 34.343 745.934 34.3814 746.361 34.3628C746.744 34.346 747.223 34.3144 747.798 34.268C748.372 34.2215 748.84 34.1691 749.2 34.1106C749.561 34.0522 749.911 34.0049 750.251 33.9687C750.613 33.9315 750.974 33.9051 751.337 33.8892C751.678 33.8744 751.988 33.8928 752.268 33.9447C752.414 34.344 752.531 34.8301 752.62 35.4027C752.709 35.9754 752.766 36.5494 752.791 37.1249C752.816 37.7003 752.819 38.2447 752.799 38.7581C752.777 39.2502 752.74 39.6148 752.686 39.8521C752.539 39.9012 752.349 39.9629 752.118 40.037C751.886 40.1112 751.696 40.1516 751.546 40.1581C751.269 40.1702 750.992 40.1716 750.714 40.1624C750.436 40.1532 750.147 40.1338 749.846 40.1042C749.546 40.0746 749.15 40.0598 748.659 40.0599C748.168 40.06 747.763 40.067 747.443 40.081C746.676 40.1145 746.128 40.2772 745.799 40.5692C745.49 40.8389 745.343 41.1442 745.358 41.4852C745.384 42.0607 745.56 42.4267 745.887 42.5832C746.214 42.7398 746.857 42.7971 747.816 42.7553C748.093 42.7432 748.402 42.7297 748.743 42.7148C749.083 42.6786 749.423 42.6424 749.763 42.6062C750.124 42.5477 750.474 42.5004 750.814 42.4642C751.153 42.4067 751.45 42.3617 751.705 42.3292C752.257 42.2411 752.894 42.1599 753.616 42.0856C754.36 41.9891 755.008 41.9287 755.562 41.9046C755.669 41.8999 755.765 41.9064 755.852 41.924C755.958 41.9193 756.065 41.9253 756.173 41.942ZM770.304 49.5889C769.387 49.6289 768.383 49.6193 767.292 49.5602C766.201 49.5224 765.14 49.4406 764.11 49.3148C763.102 49.2093 762.178 49.0788 761.338 48.9233C760.499 48.7678 759.872 48.6029 759.459 48.4288C759.239 47.7978 759.077 47.0254 758.973 46.1118C758.869 45.1981 758.809 44.2932 758.791 43.3972C758.794 42.5001 758.834 41.687 758.909 40.9577C759.004 40.2062 759.141 39.6877 759.321 39.4022C759.838 39.5078 760.474 39.6402 761.228 39.7994C762.003 39.9364 762.82 40.0609 763.679 40.1729C764.538 40.2848 765.407 40.375 766.285 40.4434C767.164 40.5119 767.965 40.5302 768.69 40.4986C770.267 40.4297 771.044 40.1289 771.021 39.5961C771.005 39.2338 770.628 38.9086 769.889 38.6205C769.172 38.3315 768.282 38.0074 767.22 37.648C766.354 37.3655 765.431 37.0108 764.451 36.5838C763.493 36.1558 762.594 35.6292 761.756 35.0038C760.938 34.3776 760.245 33.6605 759.676 32.8525C759.127 32.0223 758.829 31.0638 758.781 29.9768C758.728 28.7619 758.895 27.6763 759.28 26.7199C759.665 25.7636 760.43 24.9507 761.576 24.2815C762.742 23.6113 764.363 23.0708 766.438 22.6599C768.512 22.249 771.201 21.9714 774.505 21.8272C775.102 21.8011 775.721 21.7955 776.362 21.8102C777.002 21.8036 777.612 21.8197 778.19 21.8585C778.789 21.8964 779.325 21.9477 779.798 22.0125C780.27 22.0559 780.625 22.1152 780.863 22.1902C780.999 22.3764 781.12 22.6915 781.224 23.1353C781.35 23.5569 781.457 24.0541 781.546 24.6267C781.656 25.1985 781.736 25.8142 781.787 26.474C781.857 27.1115 781.906 27.7393 781.933 28.3574C781.959 28.9542 781.962 29.5092 781.941 30.0226C781.921 30.536 781.864 30.9442 781.771 31.2472C780.966 30.9193 780.07 30.6915 779.082 30.5638C778.115 30.4139 776.981 30.3673 775.681 30.4241C774.274 30.4855 773.202 30.6284 772.465 30.8528C771.748 31.0762 771.398 31.3691 771.414 31.7314C771.43 32.0938 771.798 32.4514 772.518 32.8043C773.259 33.1563 774.151 33.5338 775.194 33.9367C775.997 34.2432 776.836 34.623 777.71 35.076C778.584 35.529 779.386 36.0598 780.118 36.6685C780.869 37.2549 781.486 37.9327 781.968 38.7017C782.47 39.4485 782.742 40.2801 782.782 41.1966C783.01 46.4183 778.85 49.2157 770.304 49.5889Z" fill="white"/>
<path d="M959.767 34.4171C959.991 34.6636 960.176 34.9865 960.321 35.3858C960.488 35.7843 960.624 36.2054 960.729 36.6493C960.834 37.0931 960.917 37.5379 960.979 37.9836C961.04 38.408 961.078 38.7801 961.092 39.0998C961.113 39.59 961.103 40.0816 961.06 40.5745C961.018 41.0675 960.91 41.542 960.738 41.998C959.724 42.2558 958.548 42.4459 957.208 42.5685C955.869 42.7124 954.475 42.816 953.025 42.8792C951.598 42.9629 950.181 43.0248 948.773 43.0649C947.387 43.104 946.15 43.1474 945.063 43.1948C943.913 43.2451 942.75 43.2745 941.576 43.283C940.402 43.2916 939.254 43.1709 938.133 42.9209C937.81 42.3798 937.58 41.7599 937.443 41.0612C937.326 40.3403 937.254 39.6708 937.227 39.0527C937.203 38.4985 937.22 37.8999 937.277 37.2568C937.333 36.5924 937.468 36.0099 937.681 35.5095C937.787 35.4835 937.904 35.4678 938.031 35.4622C938.158 35.4353 938.275 35.4195 938.382 35.4149C939.256 35.3767 940.12 35.371 940.975 35.3977C941.83 35.4031 942.683 35.3872 943.536 35.35C943.792 35.3388 944.069 35.3267 944.367 35.3137C944.686 35.2784 944.96 35.2024 945.19 35.0856C945.46 34.9243 945.651 34.649 945.762 34.2598C945.873 33.8493 945.939 33.4087 945.961 32.9379C945.983 32.4672 945.974 32.0085 945.933 31.5618C945.913 31.1142 945.898 30.7626 945.887 30.5068L945.811 28.7805C945.804 28.61 945.783 28.376 945.749 28.0785C945.736 27.7802 945.691 27.4938 945.615 27.2195C945.559 26.923 945.463 26.671 945.326 26.4634C945.189 26.2559 944.992 26.1577 944.736 26.1689C944.31 26.1875 943.693 26.2358 942.885 26.3138C942.098 26.3908 941.332 26.4456 940.586 26.4782C940.202 26.495 939.84 26.5001 939.498 26.4937C939.177 26.4863 938.899 26.4665 938.662 26.4341C938.209 26.3257 937.874 25.9987 937.658 25.4529C937.442 24.8859 937.285 24.2307 937.188 23.4876C937.092 22.7444 937.037 21.9781 937.024 21.1886C937.01 20.3777 936.99 19.6739 936.964 19.0772C936.959 18.9706 936.955 18.8747 936.951 18.7894C936.947 18.7042 936.954 18.6078 936.971 18.5003C937.091 18.3242 937.415 18.1713 937.943 18.0414C938.471 17.8903 939.116 17.7554 939.88 17.6366C940.664 17.4956 941.523 17.3727 942.458 17.2678C943.393 17.1629 944.318 17.0691 945.232 16.9865C946.168 16.9029 947.051 16.8323 947.882 16.7747C948.712 16.7171 949.415 16.6758 949.99 16.6506C951.503 16.5846 952.573 16.8689 953.199 17.5035C953.823 18.1169 954.167 19.1482 954.23 20.5974C954.329 22.8566 954.404 25.0635 954.455 27.2179C954.506 29.3511 954.58 31.5473 954.679 33.8065C954.7 34.2753 954.766 34.5714 954.878 34.6946C954.989 34.7965 955.301 34.8363 955.812 34.814C956.451 34.7861 957.111 34.7359 957.791 34.6635C958.471 34.5698 959.129 34.4877 959.767 34.4171ZM962.892 39.886C962.746 39.4653 962.639 38.9682 962.571 38.3946C962.503 37.821 962.478 37.2349 962.494 36.6363C962.531 36.0154 962.601 35.4144 962.704 34.8334C962.806 34.2311 962.943 33.7019 963.115 33.246C963.157 33.2228 963.22 33.2093 963.305 33.2056C964.009 33.1749 964.757 33.1956 965.55 33.2677C966.364 33.3176 967.178 33.3888 967.994 33.4814C968.831 33.5729 969.656 33.6543 970.471 33.7255C971.306 33.7745 972.096 33.7827 972.842 33.7501C973.162 33.7362 973.502 33.7 973.862 33.6415C974.244 33.5822 974.593 33.4922 974.908 33.3717C975.243 33.2289 975.513 33.057 975.718 32.8558C975.923 32.6547 976.018 32.405 976.005 32.1066C975.973 31.3606 975.738 30.8691 975.3 30.6319C974.883 30.3725 974.11 30.2675 972.98 30.3168C972.49 30.3382 972.012 30.3911 971.546 30.4756C971.079 30.5387 970.623 30.6119 970.178 30.6954C969.713 30.8011 969.258 30.8957 968.813 30.9792C968.368 31.0414 967.932 31.0818 967.505 31.1004C966.696 31.1358 965.975 31.0177 965.344 30.7463C964.733 30.4527 964.193 30.0599 963.723 29.5679C963.274 29.075 962.887 28.5047 962.559 27.8571C962.253 27.2085 962 26.5469 961.8 25.8723C961.621 25.1968 961.485 24.5194 961.391 23.8402C961.297 23.161 961.239 22.5549 961.215 22.0221C961.199 21.6385 961.203 21.2433 961.228 20.8365C961.253 20.4296 961.321 20.0423 961.433 19.6744C961.567 19.3055 961.744 18.9668 961.965 18.6582C962.208 18.3487 962.517 18.0896 962.892 17.881C964.291 17.1367 965.761 16.5813 967.304 16.215C968.867 15.8265 970.427 15.5982 971.983 15.5303C973.858 15.4484 975.663 15.4657 977.398 15.5821C979.153 15.6763 980.774 15.8831 982.262 16.2026C982.495 16.6621 982.647 17.2107 982.718 17.8482C982.788 18.4858 982.816 19.1251 982.802 19.7664C982.787 20.4077 982.728 21.0188 982.625 21.5998C982.522 22.1596 982.413 22.6021 982.299 22.9273C981.709 23.1026 981.041 23.2171 980.296 23.271C979.572 23.324 978.794 23.3473 977.961 23.3409C977.149 23.3337 976.305 23.3278 975.43 23.3233C974.553 23.2976 973.678 23.3037 972.804 23.3419C971.781 23.3866 971.08 23.4705 970.701 23.5939C970.342 23.6949 970.172 23.9586 970.191 24.3849C970.207 24.7472 970.451 24.9501 970.922 24.9935C971.415 25.0361 971.971 25.0439 972.589 25.0169C972.845 25.0057 973.1 24.9945 973.356 24.9834C973.611 24.9509 973.866 24.9184 974.121 24.8859C974.354 24.8544 974.588 24.8335 974.823 24.8233C975.077 24.7908 975.333 24.7689 975.588 24.7578C977.08 24.6926 978.406 24.7415 979.567 24.9044C980.726 25.046 981.701 25.3664 982.491 25.8657C983.303 26.3641 983.932 27.0627 984.377 27.9615C984.821 28.839 985.073 29.981 985.135 31.3877C985.207 33.0501 985.035 34.4883 984.618 35.7023C984.202 36.9163 983.499 37.9293 982.509 38.7412C981.541 39.5522 980.265 40.1738 978.683 40.6059C977.121 41.0371 975.222 41.3015 972.984 41.3992C971.066 41.483 969.214 41.3717 967.428 41.0653C965.664 40.7579 964.152 40.3648 962.892 39.886ZM1007.68 27.3925C1007.77 29.4386 1007.7 31.2567 1007.47 32.8469C1007.24 34.4371 1006.77 35.792 1006.08 36.9115C1005.38 38.031 1004.39 38.9069 1003.12 39.5391C1001.84 40.15 1000.19 40.4997 998.165 40.5881C996.545 40.6588 995.056 40.5423 993.698 40.2386C992.339 39.9349 991.161 39.3671 990.164 38.5351C989.167 37.7032 988.37 36.5635 987.773 35.1162C987.197 33.6679 986.861 31.8355 986.764 29.6189C986.667 27.4024 986.772 25.4119 987.08 23.6475C987.408 21.8821 987.972 20.3734 988.772 19.1214C989.593 17.8684 990.682 16.8919 992.039 16.1921C993.397 15.4922 995.066 15.099 997.049 15.0124C998.945 14.9296 1000.55 15.148 1001.85 15.6676C1003.17 16.1863 1004.24 16.9724 1005.06 18.0259C1005.9 19.0784 1006.52 20.3965 1006.93 21.98C1007.34 23.5423 1007.59 25.3465 1007.68 27.3925ZM995.142 27.8438C995.166 28.3766 995.199 28.8983 995.243 29.4089C995.307 29.8972 995.421 30.3193 995.586 30.6751C995.751 31.0309 995.978 31.32 996.265 31.5423C996.573 31.7425 996.993 31.8309 997.526 31.8076C998.08 31.7834 998.501 31.6582 998.79 31.4321C999.08 31.2059 999.291 30.9084 999.424 30.5396C999.558 30.1708 999.624 29.7408 999.624 29.2496C999.623 28.7372 999.609 28.1826 999.583 27.5858C999.531 26.3923 999.342 25.4824 999.016 24.856C998.69 24.2296 998.036 23.9378 997.056 23.9807C996.225 24.0169 995.686 24.4035 995.441 25.1402C995.194 25.8556 995.095 26.7568 995.142 27.8438ZM1025.23 36.2034C1024.85 36.3906 1024.36 36.551 1023.75 36.6846C1023.15 36.8172 1022.53 36.9086 1021.87 36.9587C1021.23 37.008 1020.59 37.0146 1019.95 36.9785C1019.3 36.9425 1018.76 36.8703 1018.3 36.762C1018.12 36.5137 1017.98 36.2316 1017.88 35.9156C1017.8 35.5987 1017.76 35.2804 1017.74 34.9607L1017.57 30.9005C1017.55 30.4956 1017.45 30.2329 1017.28 30.1125C1017.1 29.992 1016.86 29.9383 1016.56 29.9514C1015.86 29.9821 1015.19 30.054 1014.56 30.1672C1013.92 30.259 1013.25 30.3203 1012.55 30.351C1012.33 30.3603 1012.07 30.3613 1011.75 30.354C1011.45 30.3244 1011.2 30.2711 1011 30.1942C1010.56 29.3168 1010.28 28.336 1010.17 27.2518C1010.08 26.1667 1010.09 25.1413 1010.19 24.1757C1010.36 24.1043 1010.62 24.0505 1010.96 24.0143C1011.3 23.9781 1011.67 23.9512 1012.07 23.9335C1012.71 23.9056 1013.38 23.9194 1014.06 23.9749C1014.75 24.009 1015.53 24.007 1016.4 23.9689C1016.63 23.9586 1016.79 23.8984 1016.87 23.7881C1016.95 23.6565 1016.98 23.4308 1016.97 23.1111C1016.96 22.7701 1016.92 22.3341 1016.85 21.8032C1016.81 21.2713 1016.75 20.7185 1016.68 20.145C1016.63 19.5704 1016.59 19.0279 1016.55 18.5173C1016.52 18.0058 1016.53 17.6106 1016.56 17.3316C1016.98 17.1212 1017.5 16.9488 1018.14 16.8143C1018.79 16.6789 1019.47 16.5958 1020.18 16.5651C1020.9 16.5121 1021.61 16.5241 1022.29 16.6008C1023 16.6554 1023.61 16.7781 1024.13 16.9689C1024.27 17.2617 1024.37 17.6633 1024.41 18.1739C1024.45 18.6845 1024.47 19.2178 1024.45 19.7738C1024.45 20.3289 1024.43 20.8742 1024.39 21.4098C1024.37 21.9445 1024.37 22.393 1024.39 22.7553C1024.4 23.1177 1024.48 23.3493 1024.61 23.4503C1024.74 23.53 1024.96 23.5633 1025.25 23.5503C1025.62 23.5344 1025.98 23.4867 1026.34 23.4069C1026.7 23.3058 1027.04 23.2052 1027.38 23.1051C1027.74 23.004 1028.09 22.9141 1028.43 22.8352C1028.78 22.7342 1029.14 22.6757 1029.51 22.6599C1029.83 22.6459 1030.13 22.6968 1030.41 22.8126C1030.6 23.2314 1030.75 23.7054 1030.86 24.2345C1030.99 24.7627 1031.06 25.3145 1031.09 25.8899C1031.14 26.4645 1031.13 27.052 1031.07 27.6525C1031.03 28.2307 1030.94 28.79 1030.79 29.3302C1030.52 29.4063 1030.24 29.4503 1029.96 29.4624C1029.05 29.5024 1028.24 29.5165 1027.53 29.5046C1026.83 29.4713 1026 29.4752 1025.07 29.5161C1024.81 29.5273 1024.69 29.7247 1024.71 30.1083C1024.72 30.4707 1024.78 30.9382 1024.86 31.5108C1024.95 32.0835 1025.03 32.6779 1025.1 33.2941C1025.19 33.8881 1025.26 34.451 1025.3 34.9829C1025.35 35.5148 1025.32 35.9216 1025.23 36.2034ZM1068.11 30.4876C1068.36 30.8397 1068.56 31.3433 1068.72 31.9984C1068.9 32.6313 1069.02 33.3091 1069.1 34.0319C1069.17 34.7547 1069.2 35.4686 1069.19 36.1738C1069.18 36.879 1069.1 37.4698 1068.95 37.9461C1068.36 38.2066 1067.67 38.4074 1066.89 38.5484C1066.13 38.7097 1065.33 38.8299 1064.5 38.9088C1063.68 39.009 1062.86 39.0768 1062.05 39.1122C1061.24 39.1689 1060.48 39.2126 1059.78 39.2433C1057.41 39.3466 1055.56 39.3849 1054.21 39.3583C1052.88 39.3307 1051.89 39.1497 1051.24 38.8153C1050.59 38.5022 1050.17 37.9866 1049.99 37.2685C1049.81 36.5504 1049.69 35.5412 1049.63 34.2411C1049.59 33.2394 1049.53 32.2062 1049.46 31.1415C1049.42 30.0545 1049.36 29.0213 1049.3 28.0418C1049.15 26.0838 1049.03 24.1244 1048.94 22.1636C1048.94 22.0784 1048.92 21.9829 1048.9 21.8773C1048.89 21.7707 1048.89 21.6429 1048.88 21.4937C1048.85 21.2602 1048.83 21.0049 1048.82 20.7278C1048.8 20.4294 1048.79 20.131 1048.78 19.8327C1048.75 19.2572 1048.71 18.6183 1048.66 17.9159C1048.63 17.1912 1048.63 16.5078 1048.67 15.8656C1048.72 15.2012 1048.84 14.6091 1049.01 14.0892C1049.2 13.5684 1049.49 13.2138 1049.89 13.0257C1050.54 12.7197 1051.25 12.4856 1052.04 12.3233C1052.84 12.1601 1053.66 12.039 1054.49 11.9601C1055.32 11.8812 1056.13 11.8352 1056.92 11.822C1057.73 11.7867 1058.46 11.7546 1059.12 11.7257C1059.68 11.7015 1060.28 11.6963 1060.95 11.7101C1061.63 11.723 1062.33 11.7673 1063.03 11.8432C1063.74 11.8977 1064.43 11.9852 1065.1 12.1055C1065.78 12.2036 1066.4 12.3476 1066.94 12.5374C1067.15 12.8701 1067.29 13.3227 1067.38 13.8954C1067.49 14.4671 1067.55 15.0731 1067.56 15.7135C1067.57 16.3538 1067.54 16.9955 1067.48 17.6386C1067.45 18.2595 1067.39 18.8173 1067.3 19.3122C1067.03 19.4095 1066.72 19.487 1066.38 19.5445C1066.06 19.5798 1065.66 19.6081 1065.17 19.6295C1064.7 19.65 1064.12 19.6751 1063.44 19.7049C1062.78 19.7124 1061.97 19.7371 1061.01 19.779L1059.41 19.8488C1058.73 19.8786 1058.18 19.9134 1057.75 19.9533C1057.35 19.971 1057.03 20.0276 1056.8 20.1231C1056.57 20.2186 1056.41 20.3534 1056.33 20.5277C1056.28 20.701 1056.26 20.9368 1056.27 21.2352C1056.28 21.4483 1056.31 21.6605 1056.36 21.8718C1056.41 22.0617 1056.51 22.2392 1056.64 22.4041C1056.8 22.5681 1057.01 22.6978 1057.27 22.7932C1057.53 22.8886 1057.87 22.927 1058.3 22.9084C1058.68 22.8916 1059.16 22.86 1059.73 22.8136C1060.31 22.7671 1060.78 22.7147 1061.14 22.6563C1061.5 22.5978 1061.85 22.5505 1062.19 22.5143C1062.55 22.4772 1062.91 22.4507 1063.27 22.4349C1063.61 22.42 1063.92 22.4384 1064.2 22.4903C1064.35 22.8896 1064.47 23.3757 1064.56 23.9483C1064.64 24.521 1064.7 25.095 1064.73 25.6705C1064.75 26.2459 1064.75 26.7904 1064.73 27.3037C1064.71 27.7958 1064.68 28.1604 1064.62 28.3977C1064.47 28.4468 1064.28 28.5085 1064.05 28.5826C1063.82 28.6568 1063.63 28.6972 1063.48 28.7037C1063.2 28.7158 1062.93 28.7172 1062.65 28.708C1062.37 28.6988 1062.08 28.6794 1061.78 28.6498C1061.48 28.6202 1061.09 28.6054 1060.59 28.6055C1060.1 28.6056 1059.7 28.6126 1059.38 28.6266C1058.61 28.6601 1058.06 28.8228 1057.73 29.1148C1057.43 29.3845 1057.28 29.6898 1057.29 30.0309C1057.32 30.6063 1057.5 30.9723 1057.82 31.1289C1058.15 31.2854 1058.79 31.3427 1059.75 31.3009C1060.03 31.2888 1060.34 31.2753 1060.68 31.2604C1061.02 31.2242 1061.36 31.188 1061.7 31.1518C1062.06 31.0933 1062.41 31.046 1062.75 31.0098C1063.09 30.9523 1063.39 30.9073 1063.64 30.8748C1064.19 30.7867 1064.83 30.7055 1065.55 30.6312C1066.3 30.5347 1066.94 30.4744 1067.5 30.4502C1067.6 30.4455 1067.7 30.452 1067.79 30.4696C1067.89 30.4649 1068 30.4709 1068.11 30.4876ZM1089.52 10.7506C1090.16 10.5309 1090.85 10.3723 1091.62 10.2749C1092.4 10.1552 1093.18 10.0892 1093.95 10.0771C1094.72 10.0649 1095.43 10.1083 1096.1 10.2073C1096.79 10.3054 1097.33 10.474 1097.72 10.713C1097.88 10.877 1097.97 11.0544 1098 11.2453C1098.03 11.4149 1098.05 11.6062 1098.06 11.8194C1098.1 12.7571 1098.05 13.8696 1097.92 15.1568C1097.8 16.4217 1097.59 17.7867 1097.29 19.2518C1097.02 20.716 1096.65 22.2269 1096.18 23.7847C1095.73 25.3203 1095.19 26.8281 1094.55 28.3081C1093.93 29.7658 1093.21 31.1425 1092.39 32.4381C1091.59 33.7115 1090.7 34.8288 1089.72 35.7899C1089.35 36.1263 1089.01 36.4188 1088.7 36.6672C1088.39 36.9156 1088.04 37.1125 1087.64 37.2581C1087.26 37.424 1086.81 37.5506 1086.28 37.6378C1085.75 37.725 1085.09 37.7858 1084.3 37.8203C1082.7 37.8901 1081.32 37.7689 1080.15 37.4568C1078.99 37.1448 1077.99 36.4944 1077.15 35.5058C1075.94 34.0855 1074.85 32.5099 1073.9 30.7791C1072.97 29.026 1072.16 27.2998 1071.47 25.6004C1070.79 23.8788 1070.24 22.248 1069.81 20.7079C1069.38 19.1466 1069.06 17.8475 1068.84 16.8106C1068.57 15.5837 1068.41 14.5871 1068.36 13.8208C1068.3 13.0332 1068.43 12.3548 1068.75 11.7858C1069.3 11.5911 1069.94 11.4348 1070.68 11.317C1071.43 11.1992 1072.2 11.1226 1073.01 11.0872C1073.84 11.0296 1074.65 11.0369 1075.45 11.109C1076.26 11.1589 1076.99 11.2871 1077.64 11.4937C1077.86 11.6549 1078.06 11.8383 1078.24 12.044C1078.44 12.2274 1078.6 12.4447 1078.72 12.6958C1078.93 13.0924 1079.16 13.7229 1079.41 14.5875C1079.68 15.4511 1079.96 16.4212 1080.24 17.4979C1080.52 18.5534 1080.82 19.6509 1081.12 20.7907C1081.43 21.9091 1081.73 22.9423 1082.03 23.8902C1082.34 24.8159 1082.66 25.5817 1082.96 26.1877C1083.26 26.7723 1083.55 27.0586 1083.83 27.0465C1084.02 27.0382 1084.24 26.7295 1084.49 26.1207C1084.75 25.5118 1085 24.7426 1085.26 23.8131C1085.54 22.8827 1085.81 21.8564 1086.08 20.7342C1086.36 19.5906 1086.61 18.5013 1086.84 17.4662C1087.09 16.4088 1087.32 15.4594 1087.52 14.6179C1087.71 13.7765 1087.88 13.1714 1088.01 12.8025C1088.17 12.3901 1088.36 12.0185 1088.6 11.6876C1088.87 11.3345 1089.17 11.0222 1089.52 10.7506ZM1118.81 28.2739C1119.06 28.626 1119.26 29.1296 1119.42 29.7847C1119.6 30.4176 1119.72 31.0954 1119.8 31.8182C1119.87 32.541 1119.9 33.255 1119.89 33.9602C1119.88 34.6653 1119.8 35.2561 1119.65 35.7324C1119.06 35.9929 1118.38 36.1937 1117.59 36.3347C1116.83 36.4961 1116.04 36.6162 1115.21 36.6951C1114.38 36.7954 1113.56 36.8631 1112.75 36.8985C1111.94 36.9552 1111.18 36.9989 1110.48 37.0296C1108.11 37.1329 1106.26 37.1712 1104.91 37.1446C1103.59 37.117 1102.6 36.936 1101.94 36.6016C1101.29 36.2885 1100.87 35.7729 1100.69 35.0548C1100.51 34.3367 1100.39 33.3276 1100.33 32.0275C1100.29 31.0258 1100.23 29.9925 1100.16 28.9278C1100.12 27.8408 1100.06 26.8076 1100 25.8282C1099.85 23.8702 1099.73 21.9108 1099.64 19.95C1099.64 19.8647 1099.63 19.7693 1099.6 19.6636C1099.6 19.5571 1099.59 19.4292 1099.58 19.28C1099.55 19.0465 1099.53 18.7912 1099.52 18.5141C1099.5 18.2157 1099.49 17.9174 1099.48 17.619C1099.45 17.0435 1099.42 16.4046 1099.36 15.7022C1099.33 14.9776 1099.33 14.2941 1099.37 13.652C1099.43 12.9875 1099.54 12.3954 1099.71 11.8755C1099.9 11.3547 1100.19 11.0002 1100.59 10.812C1101.24 10.5061 1101.96 10.272 1102.74 10.1096C1103.54 9.9464 1104.36 9.82533 1105.19 9.74641C1106.02 9.66749 1106.83 9.62147 1107.62 9.60836C1108.43 9.573 1109.16 9.54089 1109.82 9.51204C1110.38 9.48785 1110.99 9.48264 1111.65 9.49642C1112.33 9.50927 1113.03 9.55362 1113.74 9.62948C1114.44 9.68402 1115.13 9.77147 1115.8 9.89181C1116.48 9.98991 1117.1 10.1339 1117.64 10.3238C1117.85 10.6564 1118 11.109 1118.09 11.6817C1118.2 12.2534 1118.25 12.8595 1118.26 13.4998C1118.27 14.1401 1118.24 14.7818 1118.18 15.4249C1118.15 16.0458 1118.09 16.6037 1118 17.0985C1117.73 17.1959 1117.42 17.2733 1117.08 17.3308C1116.76 17.3661 1116.36 17.3944 1115.87 17.4158C1115.4 17.4363 1114.83 17.4614 1114.14 17.4912C1113.48 17.4987 1112.67 17.5234 1111.71 17.5653L1110.11 17.6351C1109.43 17.6649 1108.88 17.6997 1108.45 17.7397C1108.05 17.7573 1107.73 17.8139 1107.5 17.9094C1107.27 18.0049 1107.11 18.1398 1107.04 18.314C1106.98 18.4873 1106.96 18.7231 1106.97 19.0215C1106.98 19.2346 1107.01 19.4468 1107.06 19.6581C1107.11 19.8481 1107.21 20.0255 1107.34 20.1904C1107.5 20.3544 1107.71 20.4841 1107.97 20.5795C1108.23 20.6749 1108.57 20.7133 1109 20.6947C1109.38 20.6779 1109.86 20.6463 1110.44 20.5999C1111.01 20.5535 1111.48 20.501 1111.84 20.4426C1112.2 20.3841 1112.55 20.3368 1112.89 20.3006C1113.25 20.2635 1113.61 20.237 1113.97 20.2212C1114.32 20.2063 1114.63 20.2248 1114.91 20.2766C1115.05 20.676 1115.17 21.162 1115.26 21.7346C1115.35 22.3073 1115.4 22.8814 1115.43 23.4568C1115.45 24.0323 1115.46 24.5767 1115.44 25.09C1115.41 25.5821 1115.38 25.9468 1115.32 26.184C1115.18 26.2331 1114.99 26.2948 1114.75 26.369C1114.52 26.4431 1114.33 26.4835 1114.18 26.49C1113.91 26.5021 1113.63 26.5035 1113.35 26.4943C1113.07 26.4851 1112.78 26.4657 1112.48 26.4361C1112.18 26.4065 1111.79 26.3917 1111.3 26.3918C1110.81 26.3919 1110.4 26.3989 1110.08 26.4129C1109.31 26.4464 1108.77 26.6091 1108.44 26.9011C1108.13 27.1708 1107.98 27.4762 1108 27.8172C1108.02 28.3926 1108.2 28.7586 1108.52 28.9152C1108.85 29.0717 1109.49 29.1291 1110.45 29.0872C1110.73 29.0751 1111.04 29.0616 1111.38 29.0467C1111.72 29.0105 1112.06 28.9743 1112.4 28.9381C1112.76 28.8796 1113.11 28.8323 1113.45 28.7961C1113.79 28.7386 1114.09 28.6936 1114.34 28.6611C1114.89 28.573 1115.53 28.4918 1116.25 28.4175C1117 28.321 1117.65 28.2607 1118.2 28.2365C1118.31 28.2318 1118.4 28.2383 1118.49 28.2559C1118.6 28.2512 1118.7 28.2572 1118.81 28.2739ZM1145.49 33.5791C1145.31 33.8006 1144.96 33.9865 1144.46 34.1367C1143.95 34.2869 1143.38 34.3866 1142.74 34.4359C1142.1 34.5064 1141.44 34.5246 1140.76 34.4904C1140.07 34.4776 1139.46 34.3976 1138.92 34.2503C1137.87 33.5703 1136.93 32.7462 1136.12 31.778C1135.33 30.8089 1134.62 29.8898 1133.99 29.0207C1133.37 28.1293 1132.82 27.3844 1132.35 26.7859C1131.87 26.166 1131.46 25.864 1131.09 25.8798C1130.75 25.8947 1130.54 25.968 1130.46 26.0996C1130.4 26.2089 1130.38 26.4661 1130.4 26.871C1130.42 27.3186 1130.47 27.8074 1130.56 28.3374C1130.67 28.8665 1130.78 29.4063 1130.89 29.9567C1131.02 30.4849 1131.13 31.014 1131.21 31.544C1131.32 32.0731 1131.39 32.5615 1131.4 33.009C1131.42 33.3074 1131.41 33.5961 1131.38 33.875C1131.35 34.1539 1131.24 34.4148 1131.06 34.6576C1130.58 34.9774 1129.97 35.2175 1129.23 35.378C1128.52 35.5588 1127.76 35.6771 1126.98 35.7328C1126.19 35.8099 1125.43 35.8323 1124.7 35.8C1123.98 35.789 1123.37 35.7409 1122.87 35.6557C1122.67 35.4084 1122.54 35.1684 1122.49 34.9358C1122.36 34.5142 1122.25 34.0282 1122.14 33.4778C1122.03 32.906 1121.93 32.3338 1121.84 31.7612C1121.77 31.1663 1121.7 30.5927 1121.63 30.0404C1121.59 29.4659 1121.55 28.9548 1121.53 28.5073C1121.45 26.653 1121.41 24.84 1121.39 23.0682C1121.4 21.2742 1121.55 19.5168 1121.84 17.7959C1121.87 17.6236 1121.89 17.5054 1121.88 17.4415C1121.9 17.3553 1121.91 17.2802 1121.91 17.2163C1121.9 16.9605 1121.82 16.7822 1121.69 16.6812C1121.58 16.558 1121.44 16.4574 1121.26 16.3796C1121.11 16.2796 1120.94 16.18 1120.77 16.0809C1120.61 15.9595 1120.48 15.7733 1120.36 15.5222C1120.31 15.4175 1120.26 15.2595 1120.21 15.0482C1120.18 14.836 1120.15 14.6238 1120.12 14.4116C1120.09 14.1781 1120.06 13.9659 1120.03 13.775C1120.02 13.5619 1120.01 13.3914 1120 13.2635C1119.97 12.3684 1119.99 11.6734 1120.07 11.1785C1120.16 10.6836 1120.35 10.3125 1120.63 10.065C1120.92 9.81755 1121.32 9.66133 1121.83 9.59637C1122.34 9.53141 1122.99 9.48172 1123.78 9.44729C1124.42 9.41937 1125.06 9.41277 1125.7 9.42748C1126.34 9.42087 1126.98 9.40361 1127.62 9.3757C1128.17 9.3515 1128.75 9.35835 1129.35 9.39623C1129.97 9.43319 1130.52 9.62259 1131.01 9.96444C1131.36 10.2053 1131.71 10.6385 1132.06 11.2639C1132.4 11.8893 1132.75 12.6005 1133.08 13.3973C1133.43 14.1933 1133.77 15.0328 1134.09 15.9158C1134.42 16.7766 1134.76 17.5735 1135.09 18.3064C1135.42 19.018 1135.73 19.6022 1136.03 20.059C1136.35 20.5149 1136.66 20.7363 1136.95 20.7233C1137.25 20.7102 1137.42 20.543 1137.44 20.2214C1137.49 19.8989 1137.51 19.5672 1137.5 19.2262C1137.44 17.9047 1137.33 16.6603 1137.17 15.4927C1137.04 14.3242 1136.94 13.0899 1136.88 11.7898C1136.87 11.4062 1136.87 10.9683 1136.89 10.4763C1136.93 9.98328 1137.1 9.59174 1137.38 9.30164C1137.82 9.09028 1138.35 8.92848 1138.96 8.81624C1139.6 8.70307 1140.26 8.6316 1140.94 8.60182C1141.64 8.57112 1142.33 8.59462 1142.99 8.67234C1143.68 8.74913 1144.28 8.87226 1144.8 9.04175C1145.18 9.32431 1145.45 9.67546 1145.62 10.0952C1145.88 10.6817 1146.09 11.3558 1146.25 12.1175C1146.41 12.8792 1146.54 13.6636 1146.64 14.4707C1146.74 15.2565 1146.82 16.0432 1146.87 16.8309C1146.93 17.6185 1146.97 18.3321 1147 18.9714C1147.02 19.5469 1147.04 20.24 1147.06 21.0509C1147.09 21.8394 1147.11 22.6929 1147.11 23.6112C1147.1 24.5082 1147.08 25.4275 1147.03 26.369C1147.01 27.3095 1146.94 28.22 1146.83 29.1003C1146.72 29.9594 1146.56 30.767 1146.36 31.5232C1146.18 32.2571 1145.94 32.8655 1145.64 33.3484C1145.6 33.3929 1145.57 33.4262 1145.55 33.4485C1145.55 33.4911 1145.53 33.5346 1145.49 33.5791ZM1167.34 33.2657C1166.4 33.606 1165.42 33.8619 1164.43 34.0335C1163.45 34.2255 1162.51 34.3415 1161.59 34.3815C1160.7 34.4206 1159.85 34.3828 1159.06 34.268C1158.26 34.1533 1157.57 33.9486 1156.98 33.654C1156.77 33.3427 1156.65 33.017 1156.62 32.6769C1156.6 32.3359 1156.59 31.9416 1156.57 31.4941C1156.52 30.3432 1156.51 29.297 1156.56 28.3555C1156.62 27.3917 1156.7 26.4595 1156.79 25.5588C1156.88 24.658 1156.94 23.7476 1156.99 22.8274C1157.05 21.885 1157.06 20.849 1157.01 19.7194C1157 19.3997 1156.97 19.0911 1156.94 18.7936C1156.91 18.4962 1156.81 18.2335 1156.65 18.0056C1156.51 17.7554 1156.29 17.5729 1155.99 17.458C1155.7 17.3209 1155.29 17.264 1154.76 17.2873C1154.25 17.3096 1153.78 17.3727 1153.36 17.4766C1152.94 17.5591 1152.52 17.6625 1152.12 17.7868C1151.74 17.8888 1151.34 17.9917 1150.92 18.0956C1150.52 18.1772 1150.06 18.2292 1149.55 18.2515C1149.38 18.259 1149.25 18.2539 1149.16 18.2363C1148.8 17.6118 1148.49 16.8886 1148.24 16.0667C1147.99 15.2448 1147.81 14.4196 1147.71 13.5912C1147.61 12.7415 1147.58 11.9422 1147.61 11.1935C1147.66 10.4225 1147.79 9.79744 1148.01 9.31831C1149.02 8.97526 1150.01 8.67577 1150.98 8.41984C1151.95 8.1639 1152.94 7.94966 1153.96 7.77712C1155 7.58233 1156.08 7.42831 1157.21 7.31505C1158.33 7.20179 1159.55 7.11678 1160.85 7.06002C1162.15 7.00325 1163.34 6.98311 1164.43 6.99959C1165.54 7.01514 1166.59 7.07611 1167.58 7.1825C1168.59 7.28795 1169.56 7.42724 1170.48 7.60036C1171.43 7.77254 1172.39 7.99755 1173.36 8.27537C1173.79 9.8154 1174.01 11.3434 1174.01 12.8594C1174.03 14.3532 1173.71 15.9582 1173.03 17.6745C1172.33 17.5987 1171.69 17.5302 1171.14 17.4692C1170.58 17.4081 1170.06 17.3452 1169.59 17.2804C1169.14 17.2147 1168.72 17.1689 1168.34 17.143C1167.95 17.1172 1167.58 17.1121 1167.21 17.128C1166.81 17.1456 1166.5 17.2337 1166.3 17.3922C1166.09 17.5507 1165.95 17.7384 1165.87 17.9552C1165.8 18.1721 1165.75 18.4089 1165.74 18.6656C1165.75 18.9 1165.76 19.1238 1165.77 19.3369C1165.83 20.5731 1165.92 21.6582 1166.04 22.5922C1166.17 23.5263 1166.3 24.4066 1166.45 25.2331C1166.61 26.0588 1166.76 26.8742 1166.91 27.6794C1167.07 28.4837 1167.21 29.3636 1167.34 30.3189C1167.44 31.1687 1167.52 31.8057 1167.58 32.2301C1167.65 32.6545 1167.56 32.9997 1167.34 33.2657ZM1186.33 33.5899C1185.41 33.6299 1184.41 33.6203 1183.32 33.5612C1182.23 33.5234 1181.16 33.4416 1180.13 33.3158C1179.13 33.2103 1178.2 33.0798 1177.36 32.9243C1176.52 32.7688 1175.9 32.604 1175.48 32.4298C1175.26 31.7988 1175.1 31.0265 1175 30.1128C1174.89 29.1991 1174.83 28.2942 1174.81 27.3982C1174.82 26.5012 1174.86 25.688 1174.93 24.9587C1175.03 24.2072 1175.17 23.6887 1175.35 23.4032C1175.86 23.5088 1176.5 23.6412 1177.25 23.8004C1178.03 23.9374 1178.84 24.0619 1179.7 24.1739C1180.56 24.2859 1181.43 24.376 1182.31 24.4445C1183.19 24.5129 1183.99 24.5313 1184.71 24.4996C1186.29 24.4308 1187.07 24.1299 1187.04 23.5971C1187.03 23.2348 1186.65 22.9096 1185.91 22.6215C1185.2 22.3325 1184.31 22.0084 1183.24 21.649C1182.38 21.3665 1181.45 21.0118 1180.47 20.5848C1179.52 20.1568 1178.62 19.6302 1177.78 19.0049C1176.96 18.3786 1176.27 17.6615 1175.7 16.8535C1175.15 16.0233 1174.85 15.0648 1174.81 13.9778C1174.75 12.763 1174.92 11.6773 1175.3 10.721C1175.69 9.76458 1176.45 8.95176 1177.6 8.2825C1178.77 7.61231 1180.39 7.07177 1182.46 6.66088C1184.54 6.24999 1187.23 5.97243 1190.53 5.8282C1191.13 5.80214 1191.74 5.79647 1192.39 5.81118C1193.03 5.80458 1193.64 5.82068 1194.21 5.8595C1194.81 5.89738 1195.35 5.94871 1195.82 6.01349C1196.29 6.05696 1196.65 6.1162 1196.89 6.19122C1197.02 6.37745 1197.14 6.69249 1197.25 7.13634C1197.37 7.55795 1197.48 8.05509 1197.57 8.62775C1197.68 9.19948 1197.76 9.81523 1197.81 10.475C1197.88 11.1125 1197.93 11.7403 1197.96 12.3584C1197.98 12.9552 1197.99 13.5102 1197.97 14.0236C1197.95 14.537 1197.89 14.9452 1197.79 15.2482C1196.99 14.9203 1196.09 14.6925 1195.11 14.5648C1194.14 14.4149 1193.01 14.3683 1191.7 14.4251C1190.3 14.4865 1189.23 14.6294 1188.49 14.8538C1187.77 15.0772 1187.42 15.3701 1187.44 15.7324C1187.45 16.0948 1187.82 16.4524 1188.54 16.8053C1189.28 17.1573 1190.18 17.5348 1191.22 17.9377C1192.02 18.2443 1192.86 18.624 1193.73 19.077C1194.61 19.53 1195.41 20.0608 1196.14 20.6695C1196.89 21.2559 1197.51 21.9337 1197.99 22.7027C1198.49 23.4495 1198.77 24.2811 1198.81 25.1976C1199.03 30.4193 1194.87 33.2167 1186.33 33.5899Z" fill="white"/>
<circle cx="391" cy="53" r="15" fill="white"/>
<circle cx="859" cy="31" r="15" fill="white"/>
</svg>
