<svg width="21" height="22" viewBox="0 0 21 22" fill="none" xmlns="http://www.w3.org/2000/svg">
<path id="Vector" d="M0.218975 0.805546C0.280481 0.805546 0.321035 0.805546 0.361363 0.805546C2.25768 0.805546 4.15377 0.806221 6.05009 0.803743C6.13706 0.803743 6.1918 0.826723 6.24205 0.90017C7.02946 2.05188 7.81934 3.20157 8.60901 4.35148C9.50456 5.65595 10.4006 6.96019 11.2966 8.26443C11.3085 8.282 11.3236 8.29732 11.3439 8.32165C11.5617 8.06932 11.7744 7.8233 11.9864 7.5766C13.1138 6.26583 14.241 4.95505 15.3681 3.64405C16.158 2.72529 16.9481 1.80654 17.736 0.885976C17.7837 0.830103 17.8293 0.803293 17.905 0.803743C18.4193 0.807123 18.9339 0.805546 19.4482 0.805546H19.5708C19.3804 1.02769 19.2065 1.23136 19.0319 1.43457C17.6851 3.00173 16.338 4.56889 14.991 6.13583C14.0569 7.22243 13.1226 8.30881 12.1858 9.39316C12.1324 9.45489 12.1369 9.49274 12.1802 9.55538C12.9442 10.6638 13.7057 11.7741 14.4676 12.8839C15.1721 13.9104 15.8764 14.937 16.5811 15.9633C17.6236 17.4811 18.6665 18.9984 19.7089 20.516C19.8761 20.7594 20.0426 21.0031 20.2188 21.2602C20.1672 21.2627 20.1316 21.2658 20.0962 21.2658C18.1924 21.2661 16.2887 21.2652 14.3849 21.2685C14.2948 21.2685 14.2428 21.2383 14.1948 21.168C13.5768 20.2642 12.9572 19.3612 12.3372 18.4584C11.1972 16.7984 10.057 15.1387 8.91676 13.4789C8.88342 13.4302 8.84985 13.3818 8.80997 13.3241C8.58265 13.588 8.36276 13.8432 8.14287 14.0987C7.22794 15.1621 6.31279 16.2255 5.39831 17.2893C4.55255 18.2734 3.70746 19.2582 2.86193 20.2428C2.58346 20.567 2.30522 20.8916 2.02472 21.2142C2.0031 21.239 1.96502 21.264 1.93438 21.264C1.37137 21.267 0.80835 21.2663 0.21875 21.2663C0.331849 21.1327 0.430754 21.0142 0.531461 20.897C1.31144 19.9897 2.09186 19.0829 2.87229 18.1759C3.99494 16.8707 5.11782 15.5658 6.24024 14.2605C6.8125 13.5949 7.38362 12.9283 7.95745 12.2641C8.00927 12.204 8.01828 12.1641 7.96939 12.0931C6.83097 10.4412 5.69503 8.78757 4.55931 7.13344C3.46842 5.54443 2.37844 3.95451 1.28778 2.36527C0.96786 1.89868 0.646137 1.43277 0.325315 0.966182C0.293774 0.920221 0.263584 0.873134 0.218975 0.805546ZM2.62491 2.13569C2.64226 2.16679 2.64834 2.18008 2.65668 2.19202C3.23209 3.01593 3.80749 3.83961 4.38313 4.66329C5.51073 6.27687 6.63857 7.89021 7.7664 9.50378C8.80817 10.9943 9.84994 12.4849 10.8913 13.9755C12.2741 15.9549 13.6572 17.9341 15.0378 19.9152C15.0827 19.9794 15.1289 19.9994 15.203 19.9992C16.0289 19.9972 16.8549 19.9981 17.681 19.9979C17.7159 19.9979 17.7509 19.994 17.7995 19.9913C17.7687 19.9456 17.7484 19.9145 17.727 19.8841C16.55 18.1998 15.3724 16.5161 14.1961 14.8314C13.0649 13.2113 11.9355 11.5898 10.8041 9.9697C9.85963 8.61724 8.91316 7.26592 7.96804 5.91391C7.11529 4.69393 6.26255 3.47373 5.41296 2.25172C5.35325 2.16588 5.2922 2.13232 5.18541 2.13322C4.47955 2.13885 3.7737 2.13615 3.06785 2.13615C2.92591 2.13615 2.78397 2.13615 2.62491 2.13615V2.13569Z" fill="white"/>
</svg>
