<svg width="25" height="25" viewBox="0 0 25 25" fill="none" xmlns="http://www.w3.org/2000/svg">
<path id="Vector" d="M14.2225 11.8274L11.415 10.5174C11.17 10.4036 10.9688 10.5311 10.9688 10.8024V13.2699C10.9688 13.5411 11.17 13.6686 11.415 13.5549L14.2213 12.2449C14.4675 12.1299 14.4675 11.9424 14.2225 11.8274ZM12.2188 0.0361328C5.59125 0.0361328 0.21875 5.40863 0.21875 12.0361C0.21875 18.6636 5.59125 24.0361 12.2188 24.0361C18.8463 24.0361 24.2188 18.6636 24.2188 12.0361C24.2188 5.40863 18.8463 0.0361328 12.2188 0.0361328ZM12.2188 16.9111C6.07625 16.9111 5.96875 16.3574 5.96875 12.0361C5.96875 7.71488 6.07625 7.16113 12.2188 7.16113C18.3612 7.16113 18.4688 7.71488 18.4688 12.0361C18.4688 16.3574 18.3612 16.9111 12.2188 16.9111Z" fill="white"/>
</svg>
