<svg width="197" height="214" viewBox="0 0 197 214" fill="none" xmlns="http://www.w3.org/2000/svg">
<path d="M142.483 66.2807C144.687 66.2807 146.475 64.4916 146.475 62.2846C146.475 60.0776 144.687 58.2885 142.483 58.2885C140.278 58.2885 138.49 60.0776 138.49 62.2846C138.49 64.4916 140.278 66.2807 142.483 66.2807Z" stroke="#F9F9F9" stroke-miterlimit="10" stroke-linecap="round" stroke-linejoin="round"/>
<path d="M11.5626 67.6587C13.7675 67.6587 15.5549 65.8695 15.5549 63.6625C15.5549 61.4555 13.7675 59.6664 11.5626 59.6664C9.35773 59.6664 7.57031 61.4555 7.57031 63.6625C7.57031 65.8695 9.35773 67.6587 11.5626 67.6587Z" stroke="#F9F9F9" stroke-miterlimit="10" stroke-linecap="round" stroke-linejoin="round"/>
<path d="M5.64365 170.042C5.64365 171.145 4.67999 172.109 3.57866 172.109C2.47733 172.109 1.51367 171.145 1.51367 170.042C1.51367 168.94 2.47733 167.976 3.57866 167.976C4.67999 167.976 5.64365 168.802 5.64365 170.042Z" stroke="#F9F9F9" stroke-miterlimit="10" stroke-linecap="round" stroke-linejoin="round"/>
<path d="M196.312 115.061C196.312 116.164 195.348 117.128 194.247 117.128C193.145 117.128 192.182 116.164 192.182 115.061C192.182 113.959 193.145 112.994 194.247 112.994C195.348 112.994 196.312 113.821 196.312 115.061Z" stroke="#F9F9F9" stroke-miterlimit="10" stroke-linecap="round" stroke-linejoin="round"/>
<path d="M26.9815 204.354C26.9815 205.457 26.0179 206.421 24.9166 206.421C23.8152 206.421 22.8516 205.457 22.8516 204.354C22.8516 203.252 23.8152 202.287 24.9166 202.287C26.0179 202.287 26.9815 203.114 26.9815 204.354Z" stroke="#F9F9F9" stroke-miterlimit="10" stroke-linecap="round" stroke-linejoin="round"/>
<path d="M62.4991 62.2846C62.4991 63.387 61.5355 64.3516 60.4341 64.3516C59.3328 64.3516 58.3691 63.387 58.3691 62.2846C58.3691 61.1822 59.3328 60.2177 60.4341 60.2177C61.5355 60.2177 62.4991 61.0444 62.4991 62.2846Z" stroke="#F9F9F9" stroke-miterlimit="10" stroke-linecap="round" stroke-linejoin="round"/>
<path d="M120.457 208.901C120.457 211.106 118.668 212.898 116.465 212.898C114.262 212.898 112.473 211.106 112.473 208.901C112.473 206.697 114.262 204.905 116.465 204.905C118.668 204.905 120.457 206.697 120.457 208.901Z" stroke="#F9F9F9" stroke-miterlimit="10" stroke-linecap="round" stroke-linejoin="round"/>
<path d="M59.334 0.688965V9.37023" stroke="#F9F9F9" stroke-miterlimit="10" stroke-linecap="round" stroke-linejoin="round"/>
<path d="M63.7394 5.09851H55.0664" stroke="#F9F9F9" stroke-miterlimit="10" stroke-linecap="round" stroke-linejoin="round"/>
<path d="M67.4551 204.63V213.311" stroke="#F9F9F9" stroke-miterlimit="10" stroke-linecap="round" stroke-linejoin="round"/>
<path d="M71.8605 208.901H63.1875" stroke="#F9F9F9" stroke-miterlimit="10" stroke-linecap="round" stroke-linejoin="round"/>
<path d="M189.84 67.7965V76.4778" stroke="#F9F9F9" stroke-miterlimit="10" stroke-linecap="round" stroke-linejoin="round"/>
<path d="M194.245 72.0682H185.572" stroke="#F9F9F9" stroke-miterlimit="10" stroke-linecap="round" stroke-linejoin="round"/>
<path d="M142.482 15.8467V21.4964" stroke="#F9F9F9" stroke-miterlimit="10" stroke-linecap="round" stroke-linejoin="round"/>
<path d="M145.236 18.7405H139.592" stroke="#F9F9F9" stroke-miterlimit="10" stroke-linecap="round" stroke-linejoin="round"/>
<path d="M192.18 138.9V144.55" stroke="#F9F9F9" stroke-miterlimit="10" stroke-linecap="round" stroke-linejoin="round"/>
<path d="M194.933 141.656H189.289" stroke="#F9F9F9" stroke-miterlimit="10" stroke-linecap="round" stroke-linejoin="round"/>
<path d="M3.44141 117.266V122.916" stroke="#F9F9F9" stroke-miterlimit="10" stroke-linecap="round" stroke-linejoin="round"/>
<path d="M6.3318 120.16H0.6875" stroke="#F9F9F9" stroke-miterlimit="10" stroke-linecap="round" stroke-linejoin="round"/>
</svg>
