<svg width="253" height="275" viewBox="0 0 253 275" fill="none" xmlns="http://www.w3.org/2000/svg">
<g clip-path="url(#clip0_5901_6319)">
<path d="M212.335 236.221H48.4423C39.4256 236.221 32 228.783 32 219.752V121.475C32 112.444 39.4256 105.007 48.4423 105.007H212.335C221.352 105.007 228.778 112.444 228.778 121.475V219.93C228.778 228.96 221.352 236.221 212.335 236.221Z" stroke="white" stroke-miterlimit="10"/>
<path d="M212.335 236.221H48.4423C39.4256 236.221 32 228.783 32 219.752V121.475C32 112.444 39.4256 105.007 48.4423 105.007H212.335C221.352 105.007 228.778 112.444 228.778 121.475V219.93C228.778 228.96 221.352 236.221 212.335 236.221Z" stroke="white" stroke-miterlimit="10" stroke-linecap="round" stroke-linejoin="round"/>
<path d="M111.029 182.036H41.5464C40.3088 182.036 39.248 180.973 39.248 179.734C39.248 178.494 40.3088 177.432 41.5464 177.432H111.205C112.443 177.432 113.504 178.494 113.504 179.734C113.327 180.973 112.266 182.036 111.029 182.036ZM134.189 190.004C134.189 188.765 133.129 187.702 131.891 187.702H41.5464C40.3088 187.702 39.248 188.765 39.248 190.004C39.248 191.244 40.3088 192.306 41.5464 192.306H131.891C133.129 192.306 134.189 191.244 134.189 190.004ZM134.189 200.275C134.189 199.035 133.129 197.973 131.891 197.973H41.5464C40.3088 197.973 39.248 199.035 39.248 200.275C39.248 201.514 40.3088 202.577 41.5464 202.577H131.891C133.129 202.577 134.189 201.514 134.189 200.275ZM134.189 210.545C134.189 209.305 133.129 208.243 131.891 208.243H41.5464C40.3088 208.243 39.248 209.305 39.248 210.545C39.248 211.785 40.3088 212.847 41.5464 212.847H131.891C133.129 212.847 134.189 211.785 134.189 210.545ZM209.859 210.545H165.306C162.654 210.545 160.532 208.42 160.532 205.764V194.785C160.532 192.129 162.654 190.004 165.306 190.004H209.859C212.511 190.004 214.633 192.129 214.633 194.785V205.764C214.456 208.42 212.335 210.545 209.859 210.545Z" fill="white" stroke="white" stroke-miterlimit="10"/>
<path d="M228.778 138.297H32V158.484H228.778V138.297Z" stroke="white" stroke-miterlimit="10"/>
<path d="M228.778 138.297H32V158.484H228.778V138.297Z" stroke="white" stroke-miterlimit="10" stroke-linecap="round" stroke-linejoin="round"/>
<path d="M128.356 76.4973C147.689 76.4973 163.362 60.7999 163.362 41.4362C163.362 22.0724 147.689 6.375 128.356 6.375C109.022 6.375 93.3496 22.0724 93.3496 41.4362C93.3496 60.7999 109.022 76.4973 128.356 76.4973Z" stroke="white" stroke-miterlimit="10"/>
<path d="M128.356 76.4973C147.689 76.4973 163.362 60.7999 163.362 41.4362C163.362 22.0724 147.689 6.375 128.356 6.375C109.022 6.375 93.3496 22.0724 93.3496 41.4362C93.3496 60.7999 109.022 76.4973 128.356 76.4973Z" stroke="white" stroke-miterlimit="10" stroke-linecap="round" stroke-linejoin="round"/>
<path d="M132.422 76.4973C151.756 76.4973 167.429 60.7999 167.429 41.4362C167.429 22.0724 151.756 6.375 132.422 6.375C113.089 6.375 97.416 22.0724 97.416 41.4362C97.416 60.7999 113.089 76.4973 132.422 76.4973Z" stroke="white" stroke-miterlimit="10"/>
<path d="M132.422 76.4973C151.756 76.4973 167.429 60.7999 167.429 41.4362C167.429 22.0724 151.756 6.375 132.422 6.375C113.089 6.375 97.416 22.0724 97.416 41.4362C97.416 60.7999 113.089 76.4973 132.422 76.4973Z" stroke="white" stroke-miterlimit="10" stroke-linecap="round" stroke-linejoin="round"/>
<path d="M136.666 62.862V65.8723C136.666 68.3514 134.721 70.2992 132.246 70.2992C129.771 70.2992 127.826 68.3514 127.826 65.8723V62.6849C123.583 61.7996 119.693 59.6746 117.218 56.6643C114.743 53.654 116.511 49.2271 120.224 48.3417C122.345 47.9876 124.467 48.873 125.528 50.6437C126.942 53.477 129.948 54.5394 132.777 54.5394C136.489 54.5394 138.965 52.7687 138.965 50.2896C138.965 48.5188 138.081 47.2793 135.252 46.571L126.765 44.6231C120.577 43.2065 115.273 40.0191 115.273 32.759C115.273 25.4989 120.401 20.8949 127.826 19.6553V16.9992C127.826 14.5201 129.771 12.5723 132.246 12.5723C134.721 12.5723 136.666 14.5201 136.666 16.9992V20.1866C141.617 21.249 145.506 23.9052 147.628 27.8009C149.042 30.457 147.451 33.6444 144.622 34.1756L143.738 34.3527C141.97 34.7068 140.202 33.6444 139.318 32.0507C137.727 29.0404 134.191 27.9779 131.716 27.9779C128.357 27.9779 126.235 29.7487 126.235 32.2278C126.235 33.9985 127.119 35.2381 129.417 35.7693L137.904 37.7171C145.153 39.3108 149.396 43.2065 149.396 49.9354C149.396 57.3726 143.738 61.7996 136.666 62.862Z" stroke="white" stroke-miterlimit="10"/>
<path d="M136.666 62.862V65.8723C136.666 68.3514 134.721 70.2992 132.246 70.2992C129.771 70.2992 127.826 68.3514 127.826 65.8723V62.6849C123.583 61.7996 119.693 59.6746 117.218 56.6643C114.743 53.654 116.511 49.2271 120.224 48.3417C122.345 47.9876 124.467 48.873 125.528 50.6437C126.942 53.477 129.948 54.5394 132.777 54.5394C136.489 54.5394 138.965 52.7687 138.965 50.2896C138.965 48.5188 138.081 47.2793 135.252 46.571L126.765 44.6231C120.577 43.2065 115.273 40.0191 115.273 32.759C115.273 25.4989 120.401 20.8949 127.826 19.6553V16.9992C127.826 14.5201 129.771 12.5723 132.246 12.5723C134.721 12.5723 136.666 14.5201 136.666 16.9992V20.1866C141.617 21.249 145.506 23.9052 147.628 27.8009C149.042 30.457 147.451 33.6444 144.622 34.1756L143.738 34.3527C141.97 34.7068 140.202 33.6444 139.318 32.0507C137.727 29.0404 134.191 27.9779 131.716 27.9779C128.357 27.9779 126.235 29.7487 126.235 32.2278C126.235 33.9985 127.119 35.2381 129.417 35.7693L137.904 37.7171C145.153 39.3108 149.396 43.2065 149.396 49.9354C149.396 57.3726 143.738 61.7996 136.666 62.862Z" stroke="white" stroke-miterlimit="10" stroke-linecap="round" stroke-linejoin="round"/>
<path d="M182.989 85.1738C185.82 85.1738 188.116 82.8747 188.116 80.0385C188.116 77.2024 185.82 74.9033 182.989 74.9033C180.157 74.9033 177.861 77.2024 177.861 80.0385C177.861 82.8747 180.157 85.1738 182.989 85.1738Z" stroke="#F9F9F9" stroke-miterlimit="10" stroke-linecap="round" stroke-linejoin="round"/>
<path d="M14.8518 86.9452C17.6835 86.9452 19.979 84.6461 19.979 81.81C19.979 78.9739 17.6835 76.6748 14.8518 76.6748C12.0201 76.6748 9.72461 78.9739 9.72461 81.81C9.72461 84.6461 12.0201 86.9452 14.8518 86.9452Z" stroke="#F9F9F9" stroke-miterlimit="10" stroke-linecap="round" stroke-linejoin="round"/>
<path d="M7.2493 218.513C7.2493 219.929 6.0117 221.169 4.5973 221.169C3.18291 221.169 1.94531 219.929 1.94531 218.513C1.94531 217.096 3.18291 215.856 4.5973 215.856C6.0117 215.856 7.2493 216.919 7.2493 218.513Z" stroke="#F9F9F9" stroke-miterlimit="10" stroke-linecap="round" stroke-linejoin="round"/>
<path d="M252.116 147.859C252.116 149.276 250.879 150.515 249.464 150.515C248.05 150.515 246.812 149.276 246.812 147.859C246.812 146.443 248.05 145.203 249.464 145.203C250.879 145.203 252.116 146.266 252.116 147.859Z" stroke="#F9F9F9" stroke-miterlimit="10" stroke-linecap="round" stroke-linejoin="round"/>
<path d="M34.6536 262.605C34.6536 264.022 33.416 265.262 32.0016 265.262C30.5872 265.262 29.3496 264.022 29.3496 262.605C29.3496 261.189 30.5872 259.949 32.0016 259.949C33.416 259.949 34.6536 261.012 34.6536 262.605Z" stroke="#F9F9F9" stroke-miterlimit="10" stroke-linecap="round" stroke-linejoin="round"/>
<path d="M80.2669 80.039C80.2669 81.4556 79.0293 82.6951 77.6149 82.6951C76.2005 82.6951 74.9629 81.4556 74.9629 80.039C74.9629 78.6223 76.2005 77.3828 77.6149 77.3828C79.0293 77.3828 80.2669 78.4453 80.2669 80.039Z" stroke="#F9F9F9" stroke-miterlimit="10" stroke-linecap="round" stroke-linejoin="round"/>
<path d="M154.7 268.449C154.7 271.282 152.401 273.584 149.572 273.584C146.744 273.584 144.445 271.282 144.445 268.449C144.445 265.615 146.744 263.313 149.572 263.313C152.401 263.313 154.7 265.615 154.7 268.449Z" stroke="#F9F9F9" stroke-miterlimit="10" stroke-linecap="round" stroke-linejoin="round"/>
<path d="M76.2012 0.885742V12.0416" stroke="#F9F9F9" stroke-miterlimit="10" stroke-linecap="round" stroke-linejoin="round"/>
<path d="M81.8591 6.55176H70.7207" stroke="#F9F9F9" stroke-miterlimit="10" stroke-linecap="round" stroke-linejoin="round"/>
<path d="M86.6328 262.959V274.115" stroke="#F9F9F9" stroke-miterlimit="10" stroke-linecap="round" stroke-linejoin="round"/>
<path d="M92.2907 268.448H81.1523" stroke="#F9F9F9" stroke-miterlimit="10" stroke-linecap="round" stroke-linejoin="round"/>
<path d="M243.807 87.1221V98.2779" stroke="#F9F9F9" stroke-miterlimit="10" stroke-linecap="round" stroke-linejoin="round"/>
<path d="M249.465 92.6113H238.326" stroke="#F9F9F9" stroke-miterlimit="10" stroke-linecap="round" stroke-linejoin="round"/>
<path d="M182.988 20.3643V27.6244" stroke="#F9F9F9" stroke-miterlimit="10" stroke-linecap="round" stroke-linejoin="round"/>
<path d="M186.524 24.083H179.275" stroke="#F9F9F9" stroke-miterlimit="10" stroke-linecap="round" stroke-linejoin="round"/>
<path d="M246.812 178.493V185.753" stroke="#F9F9F9" stroke-miterlimit="10" stroke-linecap="round" stroke-linejoin="round"/>
<path d="M250.348 182.035H243.1" stroke="#F9F9F9" stroke-miterlimit="10" stroke-linecap="round" stroke-linejoin="round"/>
<path d="M4.41992 150.692V157.953" stroke="#F9F9F9" stroke-miterlimit="10" stroke-linecap="round" stroke-linejoin="round"/>
<path d="M8.13354 154.411H0.884766" stroke="#F9F9F9" stroke-miterlimit="10" stroke-linecap="round" stroke-linejoin="round"/>
</g>
<defs>
<clipPath id="clip0_5901_6319">
<rect width="253" height="275" fill="white"/>
</clipPath>
</defs>
</svg>
