<svg width="143" height="32" viewBox="0 0 143 32" fill="none" xmlns="http://www.w3.org/2000/svg">
<path d="M0 32V0H18.88V6.02899H5.76V12.5217H17.68V18.5507H5.76V25.971H18.88V32H0Z" fill="white"/>
<path d="M20.7806 1.25217L21.5006 0H26.5806L32.8606 25.971H33.5006L39.8206 0H44.8606L45.5806 1.25217L37.7406 32H28.6206L20.7806 1.25217Z" fill="white"/>
<path d="M48.7906 32V0H67.6706V6.02899H54.5506V12.5217H66.4706V18.5507H54.5506V25.971H67.6706V32H48.7906Z" fill="white"/>
<path d="M72.1312 32V0H78.3712L89.3313 21.0087V0H95.0912V32H88.8512L77.8913 10.9913V32H72.1312Z" fill="white"/>
<path d="M98.5425 6.02899V0H121.103V6.02899H112.703V32H106.943V6.02899H98.5425Z" fill="white"/>
<path d="M123.355 29.5884V25.971H135.755C136.555 25.971 136.955 25.5072 136.955 24.5797V21.2406C136.955 20.344 136.621 19.8338 135.955 19.7101L128.155 17.8551C124.955 17.113 123.355 14.6242 123.355 10.3884V7.79131C123.355 2.5971 125.595 0 130.075 0H139.235L141.915 2.4116V6.02899H130.315C129.515 6.02899 129.115 6.49276 129.115 7.42029V10.4348C129.115 11.3005 129.448 11.8106 130.115 11.9652L137.915 13.7739C141.115 14.5159 142.715 17.0048 142.715 21.2406V24.2087C142.715 29.4029 140.475 32 135.995 32H126.035L123.355 29.5884Z" fill="white"/>
</svg>
