<svg width="17" height="22" viewBox="0 0 17 22" fill="none" xmlns="http://www.w3.org/2000/svg">
<path d="M16.0526 5.5H14.1622V6.41523C14.1622 7.425 13.3167 8.25 12.2719 8.25C11.2315 8.25 10.3815 7.4293 10.3815 6.41523V5.5H6.60521V6.41523C6.60521 7.425 5.75964 8.25 4.71484 8.25C3.67448 8.25 2.82448 7.4293 2.82448 6.41523V5.5H0.942969C0.942969 14.6652 0 22 0 22H17C16.9956 22 16.0526 14.6652 16.0526 5.5ZM4.71927 7.33477C5.24167 7.33477 5.66224 6.92656 5.66224 6.41953V4.58477C5.66224 3.06367 6.92838 1.83477 8.49557 1.83477C10.0628 1.83477 11.3289 3.06367 11.3289 4.58477V6.41953C11.3289 6.92656 11.7495 7.33477 12.2719 7.33477C12.7943 7.33477 13.2148 6.92656 13.2148 6.41953V4.58477C13.2193 2.05391 11.1031 0 8.49557 0C5.88802 0 3.77188 2.05391 3.77188 4.58477V6.41953C3.7763 6.92227 4.19687 7.33477 4.71927 7.33477Z" fill="white"/>
</svg>
