<svg width="118" height="75" viewBox="0 0 118 75" fill="none" xmlns="http://www.w3.org/2000/svg">
<path d="M58.5944 41.5739C58.8347 41.5739 59.0102 41.6293 59.1211 41.7402C59.2043 41.8234 59.2366 41.9204 59.2181 42.0313C59.2089 42.1237 59.1858 42.1976 59.1488 42.253C59.1211 42.2992 59.0888 42.3362 59.0518 42.3639C59.0056 42.3916 58.9502 42.424 58.8855 42.4609C58.8301 42.4887 58.7654 42.5071 58.6915 42.5164C58.4512 42.5349 58.2572 42.5533 58.1093 42.5718C57.9615 42.5811 57.8368 42.5903 57.7351 42.5995C57.6335 42.5995 57.5365 42.6042 57.4441 42.6134C57.3609 42.6134 57.2639 42.618 57.153 42.6273C57.0421 42.6273 56.9081 42.6365 56.751 42.655C56.594 42.6642 56.3907 42.6781 56.1412 42.6966C56.095 42.9922 56.0349 43.3803 55.961 43.8608C55.8963 44.3413 55.8224 44.9373 55.7393 45.6488C55.4805 47.6908 55.3142 49.4002 55.2403 50.777C55.2311 50.9618 55.2357 51.1836 55.2542 51.4423C55.2726 51.6918 55.305 51.9782 55.3512 52.3016C55.3604 52.3663 55.3419 52.4217 55.2957 52.4679C55.2588 52.5049 55.2126 52.5234 55.1571 52.5234H55.1294C54.9723 52.4956 54.8106 52.4356 54.6443 52.3432C54.6258 52.3339 54.612 52.3247 54.6027 52.3155C54.6027 52.3155 54.5935 52.3108 54.575 52.3016C54.3348 52.0244 54.2146 51.5624 54.2146 50.9156C54.2146 49.9177 54.2978 48.5039 54.4641 46.6744C54.6305 44.8726 54.7136 43.7268 54.7136 43.2371C54.7136 43.1632 54.709 43.0939 54.6998 43.0292C54.6998 42.9553 54.6998 42.886 54.6998 42.8213C54.4595 42.8213 54.21 42.8305 53.9513 42.849C53.6926 42.8583 53.4339 42.8814 53.1751 42.9183C52.9164 42.9553 52.6716 43.0107 52.4406 43.0846C52.2096 43.1493 52.0109 43.2371 51.8446 43.348C51.7522 43.4127 51.706 43.4635 51.706 43.5004C51.706 43.5189 51.7152 43.5466 51.7337 43.5836C51.7522 43.6206 51.8215 43.6621 51.9416 43.7083C52.0432 43.7545 52.1772 43.7915 52.3435 43.8192C52.5191 43.8469 52.7224 43.8516 52.9534 43.8331C53.0643 43.8238 53.2075 43.8054 53.383 43.7776C53.5586 43.7499 53.7249 43.7268 53.882 43.7083C54.0391 43.6899 54.1731 43.6852 54.284 43.6945C54.4041 43.7037 54.4641 43.7407 54.4641 43.8054C54.4641 43.8423 54.4549 43.8793 54.4364 43.9162C54.3255 44.101 54.2008 44.2443 54.0622 44.3459C53.9328 44.4475 53.7896 44.5261 53.6325 44.5815C53.5309 44.6185 53.4246 44.6508 53.3137 44.6785C53.2029 44.7063 53.0134 44.7247 52.7455 44.734C52.4128 44.7432 52.1264 44.7201 51.8862 44.6647C51.6552 44.6 51.4611 44.5122 51.304 44.4013C51.1469 44.272 51.0222 44.1149 50.9298 43.9301C50.8374 43.7453 50.8004 43.5189 50.8189 43.251C50.8189 43.1863 50.8328 43.1031 50.8605 43.0015C50.8882 42.8906 50.9344 42.7797 50.9991 42.6688C51.073 42.558 51.1747 42.4563 51.304 42.3639C51.4334 42.2623 51.5997 42.1837 51.803 42.1283C52.0155 42.0728 52.3204 42.0174 52.7178 41.962C53.1151 41.9065 53.5771 41.8557 54.1038 41.8095C54.2793 41.8003 54.4087 41.791 54.4919 41.7818C54.5843 41.7725 54.6628 41.7679 54.7275 41.7679C54.7922 41.7587 54.8568 41.7541 54.9215 41.7541C54.9862 41.7541 55.0786 41.7541 55.1987 41.7541C55.3281 41.7448 55.5036 41.7356 55.7254 41.7263C55.9472 41.7171 56.2428 41.7032 56.6124 41.6848C57.0652 41.6663 57.3886 41.6524 57.5827 41.6432C57.7859 41.6247 57.9338 41.6108 58.0262 41.6016C58.1186 41.5924 58.1925 41.5877 58.2479 41.5877C58.3034 41.5785 58.4189 41.5739 58.5944 41.5739ZM63.4073 47.1734C63.5551 47.1734 63.629 47.3073 63.629 47.5753C63.629 47.5938 63.6244 47.6215 63.6152 47.6585C63.6152 47.6954 63.5967 47.7832 63.5597 47.9218C63.532 48.0604 63.4812 48.2637 63.4073 48.5317C63.3426 48.7904 63.2456 49.1507 63.1162 49.6127C62.8944 50.4166 62.7512 50.8971 62.6865 51.0542C62.4832 51.5624 62.206 51.8165 61.8549 51.8165C61.1896 51.8165 60.8016 51.202 60.6907 49.9731V49.9592L60.6768 49.7513V48.7673C60.5937 49.0907 60.492 49.5019 60.3719 50.0008C60.2518 50.4998 60.1039 51.1327 59.9284 51.8997L59.9145 51.9828L59.8452 52.0244C59.7436 52.0891 59.6373 52.1214 59.5264 52.1214C59.2585 52.1214 59.0598 51.9135 58.9304 51.4977C58.8011 51.0727 58.7364 50.4074 58.7364 49.5019C58.7364 49.2616 58.7641 48.8504 58.8196 48.2683C58.875 47.677 58.9628 46.8962 59.0829 45.926C59.1938 44.9742 59.2769 44.1934 59.3324 43.5836C59.3971 42.9645 59.4294 42.521 59.4294 42.253V41.7956L59.4433 41.7541C59.4802 41.6801 59.5449 41.6062 59.6373 41.5323C59.7297 41.4584 59.8683 41.4214 60.0531 41.4214H60.0947C60.4181 41.4399 60.5798 41.5924 60.5798 41.8788C60.5798 42.0544 60.5475 42.2438 60.4828 42.4471C60.3996 42.6873 60.3442 42.9091 60.3165 43.1124C60.0855 44.5446 59.9099 45.792 59.7898 46.8546C59.6789 47.9172 59.6234 48.8042 59.6234 49.5157C59.6327 49.5342 59.6373 49.5573 59.6373 49.585C59.6373 49.6127 59.6373 49.6497 59.6373 49.6959C59.6465 49.7329 59.6558 49.7791 59.665 49.8345V49.8622C59.7112 49.6774 59.762 49.4741 59.8175 49.2524C59.8822 49.0306 59.9515 48.7858 60.0254 48.5178C60.1825 47.8895 60.3072 47.3951 60.3996 47.0348C60.492 46.6652 60.5475 46.4249 60.5659 46.314C60.6121 46.083 60.6814 45.9352 60.7738 45.8705C60.8755 45.7966 60.9725 45.7596 61.0649 45.7596C61.1296 45.7596 61.2127 45.7827 61.3144 45.8289C61.4253 45.8751 61.5962 45.9999 61.8272 46.2032L61.9104 46.2725L61.8965 46.3833C61.6285 47.8063 61.4946 48.9706 61.4946 49.8761C61.4946 50.181 61.5177 50.4259 61.5639 50.6107C61.6193 50.7862 61.6886 50.874 61.7718 50.874C61.781 50.874 61.8133 50.8509 61.8688 50.8047C61.9242 50.7493 61.9981 50.6245 62.0905 50.4305C62.1645 50.2734 62.2522 50.0794 62.3539 49.8484C62.4555 49.6081 62.5479 49.3309 62.6311 49.0168C62.6773 48.8504 62.7373 48.6564 62.8113 48.4346C62.8852 48.2036 62.9591 47.9449 63.033 47.6585C63.0515 47.5846 63.0839 47.4875 63.1301 47.3674C63.1855 47.238 63.2779 47.1734 63.4073 47.1734ZM67.0649 47.0486C67.2867 47.0486 67.3976 47.1595 67.3976 47.3813C67.3976 47.6215 67.3652 47.8802 67.3005 48.1574C67.2359 48.4254 67.1342 48.7118 66.9956 49.0168C66.7277 49.6174 66.3673 49.9177 65.9145 49.9177C65.8868 49.9177 65.8498 49.913 65.8036 49.9038C65.7574 49.8853 65.6697 49.853 65.5403 49.8068C65.5218 49.8992 65.4987 49.9962 65.471 50.0978C65.4525 50.1903 65.4294 50.2919 65.4017 50.4028V50.4305C65.3185 50.6707 65.2446 50.8694 65.1799 51.0265C65.1153 51.1836 65.0552 51.3083 64.9998 51.4007C64.7595 51.7888 64.4592 51.9828 64.0989 51.9828C63.6553 51.9828 63.3273 51.7611 63.1148 51.3175C62.9207 50.9202 62.8237 50.3335 62.8237 49.5573C62.8237 48.6333 62.8976 47.9911 63.0455 47.6308V47.5476C63.0362 47.4921 63.0316 47.4459 63.0316 47.409C63.0316 47.3628 63.0316 47.3212 63.0316 47.2842V47.2704C63.0501 47.1318 63.0871 47.0348 63.1425 46.9793C63.1517 46.9424 63.1656 46.8823 63.1841 46.7991C63.2026 46.716 63.2349 46.582 63.2811 46.3972C63.3088 46.2586 63.3504 46.1477 63.4058 46.0646C63.4705 45.9814 63.5352 45.9167 63.5999 45.8705C63.6646 45.8243 63.7292 45.7966 63.7939 45.7874C63.8586 45.7689 63.9187 45.7596 63.9741 45.7596C64.2606 45.7596 64.5655 45.8798 64.8889 46.12C65.2123 46.351 65.4248 46.6097 65.5264 46.8962C65.5357 46.9331 65.5449 46.9886 65.5542 47.0625C65.5726 47.1364 65.5865 47.2519 65.5957 47.409C65.605 47.5568 65.6142 47.7601 65.6235 48.0188C65.6327 48.2776 65.6373 48.6056 65.6373 49.0029C65.6835 49.0399 65.739 49.0583 65.8036 49.0583C65.8868 49.0583 65.9792 49.0352 66.0808 48.989C66.1917 48.9428 66.298 48.8135 66.3996 48.601C66.4181 48.5455 66.4505 48.4393 66.4967 48.2822C66.5521 48.1159 66.6214 47.8433 66.7046 47.4644C66.76 47.1872 66.8801 47.0486 67.0649 47.0486ZM64.4315 50.6523C64.5701 50.3473 64.6579 50.1117 64.6948 49.9454C64.741 49.7698 64.7641 49.6451 64.7641 49.5712C64.7641 49.4418 64.7549 49.2893 64.7364 49.1138C64.7179 48.9382 64.6902 48.7442 64.6533 48.5317C64.5978 48.236 64.5609 48.0327 64.5424 47.9218C64.5331 47.8109 64.5285 47.7324 64.5285 47.6862C64.5285 47.64 64.5285 47.5892 64.5285 47.5337C64.5285 47.4783 64.5378 47.4136 64.5562 47.3397C64.5655 47.2658 64.5701 47.2057 64.5701 47.1595C64.5701 47.1041 64.5701 47.0625 64.5701 47.0348C64.5701 46.9054 64.547 46.8222 64.5008 46.7853C64.4546 46.7391 64.3945 46.716 64.3206 46.716C64.3114 46.7252 64.2929 46.7483 64.2652 46.7853C64.2467 46.8222 64.219 46.8869 64.182 46.9793C64.1543 47.0625 64.1173 47.1826 64.0711 47.3397C64.0342 47.4968 63.9926 47.7001 63.9464 47.9495C63.8725 48.3376 63.817 48.6795 63.7801 48.9752C63.7431 49.2616 63.7246 49.5111 63.7246 49.7236C63.7246 49.853 63.7292 49.9962 63.7385 50.1533C63.7477 50.3104 63.7662 50.4628 63.7939 50.6107C63.8309 50.7493 63.8771 50.8694 63.9325 50.971C63.988 51.0634 64.0619 51.1143 64.1543 51.1235C64.1728 51.105 64.2005 51.0681 64.2375 51.0126C64.2837 50.9479 64.3483 50.8278 64.4315 50.6523ZM73.1037 46.9516C73.1776 46.9516 73.2469 46.9793 73.3116 47.0348C73.3763 47.0902 73.4086 47.1872 73.4086 47.3258C73.4086 47.3535 73.404 47.3951 73.3948 47.4506C73.3948 47.506 73.3855 47.5846 73.367 47.6862C73.3486 47.7878 73.3208 47.9172 73.2839 48.0743C73.2469 48.2314 73.1961 48.4254 73.1314 48.6564C73.0298 48.9983 72.9281 49.3263 72.8265 49.6405C72.7249 49.9546 72.6186 50.2549 72.5077 50.5414C72.1936 51.3915 71.8147 51.8165 71.3712 51.8165C70.8537 51.8165 70.5396 51.336 70.4287 50.3751C70.4195 50.3751 70.4148 50.3704 70.4148 50.3612V50.0285C70.3502 50.2318 70.2947 50.4028 70.2485 50.5414C70.2116 50.6707 70.1792 50.7678 70.1515 50.8324C69.902 51.4885 69.6063 51.8165 69.2644 51.8165C69.1813 51.8165 69.0981 51.8026 69.015 51.7749C68.9318 51.7472 68.8533 51.6918 68.7793 51.6086C68.7147 51.5254 68.6592 51.4146 68.613 51.276C68.5668 51.1281 68.5437 50.9433 68.5437 50.7216C68.5437 50.6014 68.5714 50.2087 68.6269 49.5434C68.6454 49.3586 68.6546 49.1831 68.6546 49.0168C68.6638 48.8504 68.6731 48.6934 68.6823 48.5455C68.6546 48.6287 68.6269 48.7488 68.5992 48.9059C68.3959 49.9223 68.2527 50.5691 68.1695 50.8463C67.92 51.6317 67.6012 52.0244 67.2132 52.0244C67.0653 52.0244 66.9498 51.9736 66.8667 51.8719C66.7835 51.7611 66.7188 51.6271 66.6726 51.47C66.6264 51.3037 66.5941 51.1235 66.5756 50.9295C66.5663 50.7354 66.5617 50.546 66.5617 50.3612C66.5617 50.2596 66.5617 50.1302 66.5617 49.9731C66.571 49.8068 66.5802 49.6081 66.5894 49.3771C66.5987 49.1831 66.6033 49.0214 66.6033 48.892C66.6033 48.7534 66.6033 48.6379 66.6033 48.5455L66.4924 48.2406C66.4832 48.2314 66.4786 48.2129 66.4786 48.1852C66.4416 47.64 66.5063 47.275 66.6726 47.0902C66.765 46.9978 66.8759 46.9516 67.0053 46.9516C67.0607 46.9516 67.1208 46.9608 67.1854 46.9793C67.2594 46.9978 67.324 47.0348 67.3795 47.0902C67.4349 47.1456 67.4811 47.2242 67.5181 47.3258C67.5643 47.4275 67.5874 47.5615 67.5874 47.7278C67.5874 48.1159 67.5504 48.4808 67.4765 48.8227C67.4118 49.1092 67.3795 49.4649 67.3795 49.8899C67.3795 49.9916 67.3795 50.0932 67.3795 50.1949C67.3795 50.2873 67.3841 50.3797 67.3933 50.4721C67.4118 50.4074 67.4303 50.3473 67.4488 50.2919C67.4673 50.2272 67.4857 50.1625 67.5042 50.0978C67.6151 49.488 67.7167 48.9844 67.8091 48.5871C67.9015 48.1805 67.9939 47.8618 68.0863 47.6308C68.1048 47.5846 68.1325 47.5199 68.1695 47.4367C68.2065 47.3443 68.2527 47.2565 68.3081 47.1734C68.3728 47.081 68.4467 47.0024 68.5299 46.9377C68.6223 46.8731 68.7285 46.8407 68.8486 46.8407C68.9226 46.8407 69.0057 46.8638 69.0981 46.91C69.1998 46.9562 69.2875 47.0579 69.3615 47.2149C69.4539 47.3997 69.5001 47.677 69.5001 48.0466V48.0604C69.4539 48.4855 69.4169 48.8689 69.3892 49.2108C69.3615 49.5434 69.3476 49.8345 69.3476 50.084C69.3476 50.1856 69.3476 50.2688 69.3476 50.3335C69.3568 50.3889 69.3615 50.4397 69.3615 50.4859C69.4169 50.412 69.4862 50.2596 69.5694 50.0285C69.6618 49.7975 69.7727 49.4372 69.902 48.9475C70.0037 48.5686 70.0822 48.2637 70.1376 48.0327C70.1931 47.7925 70.2347 47.603 70.2624 47.4644C70.2901 47.3258 70.304 47.2334 70.304 47.1872C70.304 47.1318 70.304 47.0948 70.304 47.0763V47.007C70.3224 46.9424 70.364 46.8731 70.4287 46.7991C70.4934 46.716 70.6227 46.6744 70.8168 46.6744C70.9831 46.6744 71.2095 46.7668 71.4959 46.9516C71.5791 47.007 71.6068 47.0763 71.5791 47.1595C71.3388 48.3145 71.2187 49.2662 71.2187 50.0147C71.2187 50.2272 71.2233 50.3982 71.2326 50.5275C71.2511 50.6476 71.2695 50.74 71.288 50.8047C71.3157 50.8786 71.3435 50.9295 71.3712 50.9572C71.3804 50.9572 71.3989 50.9479 71.4266 50.9295C71.4636 50.911 71.5098 50.8648 71.5652 50.7909C71.6299 50.7077 71.7038 50.583 71.787 50.4166C71.8701 50.2411 71.9625 50.0008 72.0642 49.6959V49.682C72.0734 49.6728 72.0873 49.6405 72.1058 49.585C72.1242 49.5203 72.152 49.4141 72.1889 49.2662C72.2351 49.1184 72.2906 48.9151 72.3553 48.6564C72.4292 48.3977 72.5216 48.065 72.6325 47.6585C72.6509 47.6123 72.6648 47.5615 72.674 47.506C72.6925 47.4506 72.711 47.3951 72.7295 47.3397L72.7572 47.2149V47.2011C72.8219 47.0348 72.9374 46.9516 73.1037 46.9516ZM73.7769 47.007C73.7769 47.1918 73.8046 47.4228 73.86 47.7001C73.9247 47.9773 74.0171 48.3099 74.1372 48.698C74.2666 49.1045 74.359 49.451 74.4145 49.7375C74.4699 50.0147 74.4976 50.2411 74.4976 50.4166C74.4976 50.8971 74.396 51.2852 74.1927 51.5809C73.9617 51.9228 73.6799 52.0937 73.3472 52.0937C72.9961 52.0937 72.6819 51.9412 72.4047 51.6363C72.2107 51.433 72.1137 51.2298 72.1137 51.0265C72.1137 50.74 72.2061 50.5737 72.3909 50.5275C72.4001 50.5275 72.4094 50.5275 72.4186 50.5275C72.4186 50.5183 72.4232 50.5137 72.4325 50.5137C72.4787 50.5137 72.5387 50.5368 72.6126 50.583C72.6866 50.6199 72.7281 50.7308 72.7374 50.9156C72.8667 51.1836 72.9869 51.3175 73.0977 51.3175C73.1439 51.3175 73.1948 51.3083 73.2502 51.2898C73.3149 51.2621 73.3749 51.1974 73.4304 51.0958C73.532 50.911 73.5828 50.6661 73.5828 50.3612C73.5828 50.0008 73.4904 49.5019 73.3056 48.8643V48.8504C73.2872 48.8042 73.2687 48.7534 73.2502 48.698C73.241 48.6333 73.2271 48.5732 73.2086 48.5178C73.1717 48.6287 73.1393 48.7442 73.1116 48.8643C73.0839 48.9752 73.0515 49.0861 73.0146 49.1969V49.2108C72.9961 49.2478 72.973 49.3032 72.9453 49.3771C72.9176 49.451 72.8806 49.525 72.8344 49.5989C72.7882 49.6636 72.7328 49.7236 72.6681 49.7791C72.6034 49.8253 72.5249 49.8484 72.4325 49.8484C72.3585 49.8484 72.2892 49.8299 72.2246 49.7929C72.1229 49.7467 72.0906 49.6728 72.1275 49.5712C72.1922 49.3124 72.2569 49.0537 72.3216 48.795C72.3863 48.5363 72.4509 48.2822 72.5156 48.0327C72.5895 47.7832 72.6404 47.5199 72.6681 47.2427C72.6958 46.9562 72.7097 46.6559 72.7097 46.3418C72.7097 46.157 72.7605 46.0137 72.8621 45.9121C72.9638 45.8012 73.107 45.7458 73.2918 45.7458C73.4304 45.7458 73.5413 45.7643 73.6244 45.8012C73.7168 45.8382 73.7815 45.8844 73.8185 45.9398C73.8647 45.986 73.8924 46.0368 73.9016 46.0923C73.9201 46.1385 73.9293 46.1801 73.9293 46.217C73.9293 46.2355 73.9247 46.2678 73.9155 46.314C73.9062 46.3602 73.8831 46.4526 73.8462 46.5912C73.8 46.776 73.7769 46.9146 73.7769 47.007ZM79.3685 47.0486C79.5902 47.0486 79.7011 47.1595 79.7011 47.3813C79.7011 47.6215 79.6688 47.8802 79.6041 48.1574C79.5394 48.4254 79.4378 48.7118 79.2992 49.0168C79.0312 49.6174 78.6708 49.9177 78.2181 49.9177C78.1904 49.9177 78.1534 49.913 78.1072 49.9038C78.061 49.8853 77.9732 49.853 77.8439 49.8068C77.8254 49.8992 77.8023 49.9962 77.7746 50.0978C77.7561 50.1903 77.733 50.2919 77.7053 50.4028V50.4305C77.6221 50.6707 77.5482 50.8694 77.4835 51.0265C77.4188 51.1836 77.3587 51.3083 77.3033 51.4007C77.0631 51.7888 76.7628 51.9828 76.4024 51.9828C75.9589 51.9828 75.6309 51.7611 75.4183 51.3175C75.2243 50.9202 75.1273 50.3335 75.1273 49.5573C75.1273 48.6333 75.2012 47.9911 75.349 47.6308V47.5476C75.3398 47.4921 75.3352 47.4459 75.3352 47.409C75.3352 47.3628 75.3352 47.3212 75.3352 47.2842V47.2704C75.3537 47.1318 75.3906 47.0348 75.4461 46.9793C75.4553 46.9424 75.4692 46.8823 75.4876 46.7991C75.5061 46.716 75.5385 46.582 75.5847 46.3972C75.6124 46.2586 75.654 46.1477 75.7094 46.0646C75.7741 45.9814 75.8388 45.9167 75.9034 45.8705C75.9681 45.8243 76.0328 45.7966 76.0975 45.7874C76.1622 45.7689 76.2222 45.7596 76.2777 45.7596C76.5641 45.7596 76.869 45.8798 77.1924 46.12C77.5158 46.351 77.7284 46.6097 77.83 46.8962C77.8392 46.9331 77.8485 46.9886 77.8577 47.0625C77.8762 47.1364 77.8901 47.2519 77.8993 47.409C77.9085 47.5568 77.9178 47.7601 77.927 48.0188C77.9363 48.2776 77.9409 48.6056 77.9409 49.0029C77.9871 49.0399 78.0425 49.0583 78.1072 49.0583C78.1904 49.0583 78.2828 49.0352 78.3844 48.989C78.4953 48.9428 78.6015 48.8135 78.7032 48.601C78.7217 48.5455 78.754 48.4393 78.8002 48.2822C78.8556 48.1159 78.9249 47.8433 79.0081 47.4644C79.0635 47.1872 79.1837 47.0486 79.3685 47.0486ZM76.735 50.6523C76.8736 50.3473 76.9614 50.1117 76.9984 49.9454C77.0446 49.7698 77.0677 49.6451 77.0677 49.5712C77.0677 49.4418 77.0584 49.2893 77.04 49.1138C77.0215 48.9382 76.9938 48.7442 76.9568 48.5317C76.9014 48.236 76.8644 48.0327 76.8459 47.9218C76.8367 47.8109 76.8321 47.7324 76.8321 47.6862C76.8321 47.64 76.8321 47.5892 76.8321 47.5337C76.8321 47.4783 76.8413 47.4136 76.8598 47.3397C76.869 47.2658 76.8736 47.2057 76.8736 47.1595C76.8736 47.1041 76.8736 47.0625 76.8736 47.0348C76.8736 46.9054 76.8505 46.8222 76.8043 46.7853C76.7581 46.7391 76.6981 46.716 76.6242 46.716C76.6149 46.7252 76.5964 46.7483 76.5687 46.7853C76.5502 46.8222 76.5225 46.8869 76.4856 46.9793C76.4578 47.0625 76.4209 47.1826 76.3747 47.3397C76.3377 47.4968 76.2961 47.7001 76.2499 47.9495C76.176 48.3376 76.1206 48.6795 76.0836 48.9752C76.0467 49.2616 76.0282 49.5111 76.0282 49.7236C76.0282 49.853 76.0328 49.9962 76.042 50.1533C76.0513 50.3104 76.0698 50.4628 76.0975 50.6107C76.1344 50.7493 76.1806 50.8694 76.2361 50.971C76.2915 51.0634 76.3654 51.1143 76.4578 51.1235C76.4763 51.105 76.504 51.0681 76.541 51.0126C76.5872 50.9479 76.6519 50.8278 76.735 50.6523ZM80.7838 42.2253C80.7007 42.5487 80.5944 42.8998 80.465 43.2787C80.3357 43.6575 80.1925 44.0364 80.0354 44.4152C79.8875 44.7848 79.7397 45.1359 79.5919 45.4686H78.6909C78.7556 45.2099 78.8203 44.9327 78.885 44.637C78.9589 44.3413 79.0236 44.0456 79.079 43.7499C79.1437 43.445 79.1991 43.1493 79.2453 42.8629C79.3008 42.5764 79.347 42.3131 79.3839 42.0728H80.6868L80.7838 42.2253ZM88.4873 51.3175C88.5705 51.336 88.6675 51.3684 88.7784 51.4146C88.8893 51.4515 88.9447 51.5347 88.9447 51.664C88.9447 51.8396 88.9031 51.9921 88.82 52.1214C88.783 52.1676 88.7276 52.2092 88.6537 52.2462C88.589 52.2831 88.5058 52.3016 88.4042 52.3016C88.3764 52.2924 88.3441 52.2831 88.3071 52.2739C88.2702 52.2739 88.2009 52.2693 88.0992 52.26C87.9699 52.2415 87.762 52.2277 87.4755 52.2184C87.1983 52.2092 86.838 52.2046 86.3945 52.2046C85.7107 52.2046 85.0362 52.2877 84.3709 52.4541C83.6964 52.6296 83.239 52.7174 82.9987 52.7174C82.6661 52.7174 82.4212 52.6435 82.2641 52.4956C82.0793 52.3293 81.9869 52.1029 81.9869 51.8165C81.9869 51.7149 82.0285 51.6178 82.1117 51.5254C82.1948 51.4238 82.3427 51.3083 82.5552 51.1789C82.7677 51.0588 82.9248 50.9618 83.0264 50.8879C83.1281 50.814 83.1974 50.7539 83.2344 50.7077C83.7148 50.1348 84.1722 49.5434 84.6065 48.9336C85.0408 48.3238 85.4058 47.6723 85.7014 46.9793C85.9971 46.2863 86.2235 45.6488 86.3806 45.0666C86.5469 44.4753 86.6301 43.9162 86.6301 43.3896C86.6301 43.214 86.5839 43.0384 86.4915 42.8629C86.4083 42.6781 86.2928 42.521 86.145 42.3916C85.9971 42.253 85.8308 42.1468 85.646 42.0728C85.4704 41.9989 85.2856 41.9758 85.0916 42.0035C84.8236 42.0313 84.5834 42.1144 84.3709 42.253C84.1676 42.3824 83.992 42.5349 83.8442 42.7104C83.7056 42.886 83.5901 43.0708 83.4977 43.2648C83.4145 43.4496 83.3683 43.6113 83.3591 43.7499C83.3406 43.944 83.3314 44.1195 83.3314 44.2766C83.3314 44.4244 83.3406 44.5677 83.3591 44.7063C83.3776 44.8356 83.4007 44.9696 83.4284 45.1082C83.4561 45.2468 83.4931 45.3993 83.5393 45.5656C83.567 45.7042 83.5947 45.8474 83.6224 45.9953C83.6502 46.1431 83.664 46.2771 83.664 46.3972C83.664 46.5081 83.6409 46.6005 83.5947 46.6744C83.5485 46.7483 83.4654 46.7853 83.3452 46.7853C83.1604 46.7853 82.9802 46.6744 82.8047 46.4526C82.6384 46.2309 82.4998 45.9352 82.3889 45.5656C82.2872 45.1868 82.2272 44.7525 82.2087 44.2627C82.1995 43.7638 82.2688 43.2371 82.4166 42.6827C82.4628 42.5349 82.5413 42.3685 82.6522 42.1837C82.7723 41.9897 82.9294 41.8095 83.1235 41.6432C83.3175 41.4676 83.5531 41.3198 83.8303 41.1997C84.1075 41.0703 84.4263 40.9964 84.7867 40.9779C85.1655 40.9594 85.5444 41.0102 85.9232 41.1304C86.3113 41.2412 86.6578 41.4168 86.9627 41.657C87.2676 41.888 87.5171 42.1791 87.7112 42.5302C87.9052 42.8814 88.0022 43.2879 88.0022 43.7499C88.0022 43.9902 87.9745 44.2489 87.9191 44.5261C87.8729 44.8033 87.7989 45.0897 87.6973 45.3854C87.5033 46.0045 87.2122 46.679 86.8241 47.409C86.4822 48.0558 86.0988 48.6887 85.6737 49.3078C85.2579 49.9269 84.8005 50.5275 84.3016 51.1096C84.6342 51.0912 84.9622 51.0819 85.2856 51.0819C85.609 51.0819 85.9232 51.0819 86.2281 51.0819C86.3945 51.0819 86.5931 51.0912 86.8241 51.1096C87.0644 51.1281 87.3462 51.1558 87.6696 51.1928C87.8544 51.2205 88.0115 51.2436 88.1408 51.2621C88.2702 51.2806 88.3857 51.2991 88.4873 51.3175ZM93.3752 46.2586C93.985 46.5728 94.4239 46.9008 94.6919 47.2427C95.0061 47.64 95.1631 48.1436 95.1631 48.7534C95.1631 49.9177 94.8397 50.8786 94.1929 51.6363C93.5461 52.394 92.7191 52.7728 91.712 52.7728C90.9635 52.7728 90.2336 52.4725 89.5221 51.8719C89.1894 51.5947 88.9446 51.3499 88.7875 51.1374C88.6396 50.9248 88.5657 50.7308 88.5657 50.5552C88.5657 50.2318 88.6119 50.0609 88.7043 50.0424C88.806 50.0147 88.9399 50.0701 89.1063 50.2087C89.2818 50.3381 89.4805 50.5183 89.7023 50.7493C89.924 50.971 90.1596 51.1697 90.4091 51.3453C90.5847 51.4746 90.7602 51.5763 90.9358 51.6502C91.1206 51.7241 91.3377 51.7611 91.5872 51.7611C91.8367 51.7611 92.1278 51.6964 92.4604 51.567C92.7931 51.4377 93.0703 51.2205 93.292 50.9156C93.5323 50.5922 93.7032 50.2503 93.8048 49.8899C93.9157 49.5296 93.9712 49.1646 93.9712 48.795C93.9712 48.5455 93.925 48.3007 93.8326 48.0604C93.7494 47.8202 93.6293 47.6308 93.4722 47.4921C93.2042 47.2611 92.964 47.1272 92.7515 47.0902C92.539 47.044 92.3449 47.0486 92.1694 47.1041C91.9938 47.1503 91.8321 47.2196 91.6842 47.312C91.5456 47.3951 91.407 47.4506 91.2684 47.4783C90.8711 47.5522 90.6725 47.4321 90.6725 47.1179C90.6725 46.8869 90.7695 46.6513 90.9635 46.4111C91.1206 46.2447 91.3054 46.1339 91.5179 46.0784C91.7397 46.023 91.9661 45.986 92.1971 45.9675H92.2109C92.2479 45.9675 92.2802 45.9722 92.308 45.9814C92.3357 45.9814 92.3634 45.9768 92.3911 45.9675C92.5112 45.8659 92.6314 45.7042 92.7515 45.4824C92.8716 45.2607 92.9732 45.0297 93.0564 44.7894C93.1118 44.6231 93.1811 44.4244 93.2643 44.1934C93.3475 43.9624 93.4075 43.7222 93.4445 43.4727C93.4907 43.2232 93.4907 42.9784 93.4445 42.7381C93.3983 42.4887 93.2735 42.2669 93.0703 42.0728C92.9686 41.9804 92.8439 41.9111 92.696 41.8649C92.5482 41.8095 92.3911 41.7772 92.2248 41.7679C92.0677 41.7587 91.9153 41.7818 91.7674 41.8372C91.6196 41.8834 91.5041 41.9666 91.4209 42.0867C91.347 42.1976 91.2592 42.3501 91.1576 42.5441C91.0652 42.7289 91.019 42.9645 91.019 43.251C91.019 43.445 90.9959 43.5975 90.9497 43.7083C90.9035 43.81 90.848 43.8885 90.7833 43.944C90.7187 43.9902 90.6494 44.0133 90.5754 44.0133C90.5015 44.004 90.4415 43.9855 90.3953 43.9578C90.2105 43.8654 90.0811 43.7638 90.0072 43.6529C89.9425 43.542 89.9055 43.4219 89.8963 43.2925C89.8871 43.1632 89.9009 43.0338 89.9379 42.9045C89.9748 42.7659 90.0072 42.6273 90.0349 42.4887C90.2751 41.8696 90.5339 41.4399 90.8111 41.1997C91.1067 40.9317 91.4948 40.7977 91.9753 40.7977C92.3357 40.7977 92.6822 40.8485 93.0148 40.9502C93.3475 41.0518 93.6385 41.1997 93.888 41.3937C94.1467 41.5877 94.35 41.8326 94.4978 42.1283C94.6549 42.4147 94.7335 42.7474 94.7335 43.1262C94.7335 43.6621 94.5995 44.2212 94.3315 44.8033C94.2206 45.0435 94.0867 45.2838 93.9296 45.524C93.7725 45.7643 93.5877 46.0091 93.3752 46.2586Z" fill="white"/>
<path d="M59.6713 31.6332C59.7542 31.6332 59.8205 31.6456 59.8702 31.6705C59.92 31.6912 59.9573 31.7182 59.9821 31.7513C60.007 31.7845 60.0236 31.8176 60.0319 31.8508C60.0402 31.884 60.0443 31.913 60.0443 31.9379C60.0443 31.9793 60.0381 32.0249 60.0257 32.0746C60.0174 32.1202 60.0029 32.1783 59.9821 32.2487C59.9614 32.3192 59.9469 32.371 59.9386 32.4042C59.9303 32.4332 59.9262 32.4539 59.9262 32.4664V32.4726C59.835 33.1689 59.7687 33.7824 59.7272 34.313C59.6858 34.8436 59.665 35.2933 59.665 35.6622C59.665 35.8239 59.6671 35.971 59.6713 36.1037C59.6795 36.2363 59.6941 36.3565 59.7148 36.4643V36.4767V36.4829C59.7148 36.5451 59.6858 36.5907 59.6277 36.6197C59.607 36.628 59.5863 36.6342 59.5656 36.6384C59.549 36.6425 59.5282 36.6446 59.5034 36.6446C59.4329 36.6446 59.3749 36.6322 59.3293 36.6073C59.2878 36.5824 59.2464 36.5472 59.2049 36.5016C59.1303 36.4104 59.093 36.2819 59.093 36.1161C59.093 35.971 59.1013 35.77 59.1179 35.513C59.1386 35.256 59.1697 34.943 59.2111 34.5741C59.2485 34.2591 59.2733 33.9959 59.2858 33.7845C59.3023 33.5731 59.3086 33.4135 59.3044 33.3057C59.1966 33.2062 59.1428 33.1068 59.1428 33.0073C59.1428 32.9783 59.149 32.9244 59.1614 32.8456C59.178 32.7669 59.2132 32.6342 59.2671 32.4477C59.3086 32.3151 59.3396 32.1928 59.3604 32.0809C59.3811 31.9689 59.3956 31.8653 59.4039 31.77L59.4101 31.6891L59.4785 31.6705C59.52 31.6581 59.5531 31.6498 59.578 31.6456C59.6029 31.6373 59.6339 31.6332 59.6713 31.6332ZM62.5426 33.9151C62.8162 34.056 63.0131 34.2031 63.1333 34.3565C63.2742 34.5347 63.3447 34.7607 63.3447 35.0342C63.3447 35.5565 63.1996 35.9876 62.9095 36.3275C62.6193 36.6674 62.2483 36.8373 61.7965 36.8373C61.4608 36.8373 61.1333 36.7026 60.8141 36.4332C60.6649 36.3088 60.5551 36.199 60.4846 36.1037C60.4183 36.0083 60.3851 35.9213 60.3851 35.8425C60.3851 35.6974 60.4058 35.6208 60.4473 35.6125C60.4929 35.6 60.553 35.6249 60.6276 35.6871C60.7064 35.7451 60.7955 35.8259 60.895 35.9296C60.9944 36.029 61.1001 36.1182 61.2121 36.1969C61.2908 36.255 61.3696 36.3005 61.4483 36.3337C61.5312 36.3669 61.6286 36.3835 61.7406 36.3835C61.8525 36.3835 61.983 36.3544 62.1323 36.2964C62.2815 36.2384 62.4058 36.141 62.5053 36.0042C62.6131 35.8591 62.6898 35.7057 62.7354 35.5441C62.7851 35.3824 62.81 35.2187 62.81 35.0529C62.81 34.941 62.7893 34.8311 62.7478 34.7233C62.7105 34.6156 62.6566 34.5306 62.5861 34.4684C62.4659 34.3648 62.3582 34.3047 62.2628 34.2881C62.1675 34.2674 62.0804 34.2695 62.0017 34.2943C61.9229 34.3151 61.8504 34.3461 61.7841 34.3876C61.7219 34.4249 61.6597 34.4498 61.5975 34.4622C61.4193 34.4954 61.3302 34.4415 61.3302 34.3005C61.3302 34.1969 61.3737 34.0912 61.4608 33.9835C61.5312 33.9088 61.6141 33.8591 61.7095 33.8342C61.8089 33.8094 61.9105 33.7928 62.0141 33.7845H62.0203C62.0369 33.7845 62.0514 33.7866 62.0639 33.7907C62.0763 33.7907 62.0887 33.7886 62.1012 33.7845C62.1551 33.7389 62.2089 33.6664 62.2628 33.5669C62.3167 33.4674 62.3623 33.3638 62.3996 33.256C62.4245 33.1814 62.4556 33.0923 62.4929 32.9886C62.5302 32.885 62.5571 32.7772 62.5737 32.6653C62.5944 32.5534 62.5944 32.4436 62.5737 32.3358C62.553 32.2239 62.497 32.1244 62.4058 32.0373C62.3602 31.9959 62.3043 31.9648 62.238 31.9441C62.1716 31.9192 62.1012 31.9047 62.0266 31.9005C61.9561 31.8964 61.8877 31.9068 61.8214 31.9316C61.7551 31.9524 61.7032 31.9897 61.6659 32.0436C61.6328 32.0933 61.5934 32.1617 61.5478 32.2487C61.5064 32.3316 61.4856 32.4373 61.4856 32.5658C61.4856 32.6529 61.4753 32.7213 61.4545 32.771C61.4338 32.8166 61.4089 32.8518 61.3799 32.8767C61.3509 32.8974 61.3198 32.9078 61.2867 32.9078C61.2535 32.9037 61.2266 32.8954 61.2058 32.8829C61.1229 32.8415 61.0649 32.7959 61.0317 32.7461C61.0027 32.6964 60.9861 32.6425 60.982 32.5845C60.9779 32.5265 60.9841 32.4684 61.0007 32.4104C61.0172 32.3482 61.0317 32.286 61.0442 32.2239C61.152 31.9461 61.268 31.7534 61.3924 31.6456C61.525 31.5254 61.6991 31.4653 61.9146 31.4653C62.0763 31.4653 62.2317 31.4881 62.381 31.5337C62.5302 31.5793 62.6608 31.6456 62.7727 31.7327C62.8887 31.8197 62.9799 31.9296 63.0463 32.0622C63.1167 32.1907 63.152 32.3399 63.152 32.5099C63.152 32.7503 63.0918 33.0011 62.9716 33.2622C62.9219 33.37 62.8618 33.4778 62.7913 33.5855C62.7209 33.6933 62.638 33.8031 62.5426 33.9151ZM65.1826 31.3876C65.2174 31.3926 65.2348 31.4112 65.2348 31.4436V31.4697C65.2348 31.4821 65.2311 31.4933 65.2236 31.5032C65.2161 31.5132 65.2 31.5231 65.1751 31.5331C65.1502 31.543 65.0943 31.5555 65.0072 31.5704C64.95 31.5828 64.9028 31.5903 64.8655 31.5928C64.8282 31.5953 64.7958 31.5965 64.7685 31.5965L64.6528 31.604C64.6478 31.6388 64.6416 31.6947 64.6342 31.7718C64.6292 31.8465 64.6205 31.9397 64.6081 32.0516C64.5981 32.1461 64.5906 32.2232 64.5857 32.2829C64.5807 32.3426 64.5757 32.3899 64.5707 32.4247C64.5683 32.4595 64.5658 32.4844 64.5633 32.4993C64.5633 32.5142 64.5633 32.5242 64.5633 32.5292C64.5633 32.6485 64.5633 32.7455 64.5633 32.8201C64.5658 32.8923 64.5683 32.942 64.5707 32.9694C64.5782 33.0489 64.5882 33.1012 64.6006 33.126C64.6155 33.1509 64.6255 33.1633 64.6304 33.1633C64.6404 33.1584 64.6503 33.1497 64.6603 33.1372C64.6702 33.1248 64.6814 33.1074 64.6939 33.085C64.7088 33.0626 64.7262 33.0303 64.7461 32.988C64.7734 32.9209 64.802 32.8363 64.8319 32.7343C64.8642 32.6299 64.8965 32.5093 64.9289 32.3725C64.9363 32.3401 64.9438 32.3128 64.9513 32.2904C64.9587 32.268 64.9649 32.2481 64.9699 32.2307C64.9749 32.2183 64.9824 32.2021 64.9923 32.1822C65.0047 32.1623 65.0234 32.1524 65.0483 32.1524C65.0706 32.1524 65.0918 32.1611 65.1117 32.1785C65.1316 32.1934 65.1415 32.222 65.1415 32.2643C65.1415 32.3115 65.1303 32.3837 65.1079 32.4807C65.0856 32.5752 65.0495 32.697 64.9998 32.8462C64.9351 33.0378 64.8717 33.1795 64.8095 33.2715C64.7498 33.3611 64.6864 33.4058 64.6192 33.4058C64.5247 33.4058 64.4489 33.3337 64.3917 33.1895C64.3419 33.0601 64.3171 32.8997 64.3171 32.7082C64.3171 32.646 64.3245 32.5267 64.3394 32.3501C64.3569 32.1735 64.383 31.9273 64.4178 31.6114C64.3954 31.6164 64.3743 31.6164 64.3544 31.6114C64.3345 31.604 64.3208 31.5978 64.3133 31.5928C64.3084 31.5903 64.3021 31.5853 64.2947 31.5779C64.2872 31.5704 64.2735 31.5629 64.2536 31.5555C64.2188 31.543 64.1977 31.5281 64.1902 31.5107C64.1803 31.4908 64.1753 31.4746 64.1753 31.4622C64.1753 31.4547 64.1803 31.4423 64.1902 31.4249C64.1977 31.405 64.2263 31.3901 64.276 31.3801C64.291 31.3776 64.3034 31.3764 64.3133 31.3764C64.3233 31.3739 64.3332 31.3727 64.3432 31.3727C64.3531 31.3702 64.3643 31.3689 64.3768 31.3689C64.3917 31.3665 64.4103 31.364 64.4327 31.3615C64.4352 31.3341 64.4377 31.3005 64.4402 31.2608C64.4427 31.221 64.4451 31.175 64.4476 31.1227L64.429 31.0593C64.429 31.0444 64.4302 31.0332 64.4327 31.0257C64.4526 30.9859 64.4837 30.966 64.526 30.966C64.5707 30.966 64.6342 30.9922 64.7162 31.0444C64.7312 31.0568 64.7386 31.0717 64.7386 31.0891V31.175V31.1861C64.7336 31.2135 64.7274 31.2421 64.72 31.2719C64.715 31.2993 64.7088 31.3304 64.7013 31.3652C64.7187 31.3652 64.7287 31.3652 64.7312 31.3652C64.7361 31.3652 64.7399 31.3665 64.7424 31.3689C64.7448 31.3689 64.7511 31.3702 64.761 31.3727C64.771 31.3727 64.7933 31.3727 64.8282 31.3727C64.8605 31.3727 64.8854 31.3739 64.9028 31.3764C64.9227 31.3764 64.9426 31.3776 64.9625 31.3801C64.9848 31.3801 65.0122 31.3814 65.0445 31.3839C65.0769 31.3839 65.1229 31.3851 65.1826 31.3876ZM66.4442 32.1859C66.484 32.1859 66.5039 32.222 66.5039 32.2941C66.5039 32.2991 66.5027 32.3066 66.5002 32.3165C66.5002 32.3265 66.4952 32.3501 66.4853 32.3874C66.4778 32.4247 66.4641 32.4794 66.4442 32.5515C66.4268 32.6212 66.4007 32.7182 66.3659 32.8425C66.3062 33.0589 66.2677 33.1882 66.2503 33.2305C66.1955 33.3673 66.1209 33.4357 66.0264 33.4357C65.8474 33.4357 65.7429 33.2703 65.7131 32.9395V32.9358L65.7093 32.8798V32.615C65.6869 32.702 65.6596 32.8127 65.6273 32.947C65.5949 33.0813 65.5551 33.2516 65.5079 33.4581L65.5041 33.4804L65.4855 33.4916C65.4581 33.509 65.4295 33.5178 65.3997 33.5178C65.3276 33.5178 65.2741 33.4618 65.2393 33.3499C65.2045 33.2355 65.187 33.0564 65.187 32.8127C65.187 32.748 65.1945 32.6373 65.2094 32.4807C65.2244 32.3215 65.248 32.1113 65.2803 31.8502C65.3102 31.594 65.3325 31.3839 65.3475 31.2197C65.3649 31.0531 65.3736 30.9337 65.3736 30.8616V30.7385L65.3773 30.7273C65.3873 30.7074 65.4047 30.6875 65.4295 30.6676C65.4544 30.6477 65.4917 30.6378 65.5415 30.6378H65.5526C65.6397 30.6427 65.6832 30.6838 65.6832 30.7609C65.6832 30.8081 65.6745 30.8591 65.6571 30.9138C65.6347 30.9785 65.6198 31.0382 65.6123 31.0929C65.5502 31.4784 65.5029 31.8141 65.4706 32.1001C65.4407 32.3861 65.4258 32.6249 65.4258 32.8164C65.4283 32.8214 65.4295 32.8276 65.4295 32.8351C65.4295 32.8425 65.4295 32.8525 65.4295 32.8649C65.432 32.8748 65.4345 32.8873 65.437 32.9022V32.9097C65.4494 32.8599 65.4631 32.8052 65.478 32.7455C65.4954 32.6858 65.5141 32.6199 65.534 32.5478C65.5763 32.3787 65.6098 32.2456 65.6347 32.1486C65.6596 32.0492 65.6745 31.9845 65.6795 31.9546C65.6919 31.8925 65.7106 31.8527 65.7354 31.8353C65.7628 31.8154 65.7889 31.8054 65.8138 31.8054C65.8312 31.8054 65.8536 31.8116 65.8809 31.8241C65.9108 31.8365 65.9568 31.8701 66.019 31.9248L66.0413 31.9435L66.0376 31.9733C65.9655 32.3563 65.9294 32.6697 65.9294 32.9134C65.9294 32.9955 65.9356 33.0614 65.9481 33.1111C65.963 33.1584 65.9817 33.182 66.004 33.182C66.0065 33.182 66.0152 33.1758 66.0302 33.1633C66.0451 33.1484 66.065 33.1148 66.0898 33.0626C66.1097 33.0203 66.1334 32.9681 66.1607 32.9059C66.1881 32.8413 66.213 32.7667 66.2353 32.6821C66.2478 32.6373 66.2639 32.5851 66.2838 32.5254C66.3037 32.4632 66.3236 32.3936 66.3435 32.3165C66.3485 32.2966 66.3572 32.2705 66.3696 32.2382C66.3846 32.2033 66.4094 32.1859 66.4442 32.1859ZM70.5025 34.6176C70.5025 34.6632 70.4922 34.713 70.4714 34.7669C70.4549 34.8208 70.4238 34.8477 70.3782 34.8477C70.287 34.8477 70.1336 34.8477 69.9181 34.8477C69.7067 34.8477 69.429 34.8436 69.0849 34.8353C68.8735 34.8311 68.7139 34.827 68.6062 34.8228C68.5025 34.8187 68.4051 34.8166 68.3139 34.8166C68.2269 34.8125 68.1191 34.8104 67.9906 34.8104C67.8663 34.8104 67.6777 34.8104 67.4248 34.8104C67.3875 34.8104 67.3481 34.7917 67.3067 34.7544C67.2694 34.7171 67.2507 34.657 67.2507 34.5741C67.2507 34.4581 67.2652 34.3876 67.2942 34.3627C67.3233 34.3337 67.3564 34.3192 67.3937 34.3192C67.4062 34.3233 67.4186 34.3254 67.431 34.3254C67.4476 34.3254 67.4621 34.3254 67.4746 34.3254C67.5119 34.3254 67.5761 34.3275 67.6673 34.3316C67.7585 34.3358 67.8642 34.3399 67.9844 34.3441C68.1046 34.3441 68.231 34.3461 68.3637 34.3503C68.4963 34.3544 68.6207 34.3586 68.7367 34.3627C68.8569 34.3627 68.9606 34.3648 69.0476 34.3689C69.1388 34.3689 69.1989 34.3689 69.2279 34.3689C69.4186 34.3731 69.601 34.3752 69.7751 34.3752C69.9492 34.3752 70.1191 34.371 70.2849 34.3627C70.2891 34.3627 70.3036 34.3627 70.3284 34.3627C70.3533 34.3627 70.3782 34.371 70.4031 34.3876C70.4279 34.4042 70.4507 34.4311 70.4714 34.4684C70.4922 34.5016 70.5025 34.5513 70.5025 34.6176ZM73.2259 31.6332C73.3088 31.6332 73.3751 31.6456 73.4249 31.6705C73.4746 31.6912 73.5119 31.7182 73.5368 31.7513C73.5617 31.7845 73.5782 31.8176 73.5865 31.8508C73.5948 31.884 73.599 31.913 73.599 31.9379C73.599 31.9793 73.5927 32.0249 73.5803 32.0746C73.572 32.1202 73.5575 32.1783 73.5368 32.2487C73.5161 32.3192 73.5015 32.371 73.4933 32.4042C73.485 32.4332 73.4808 32.4539 73.4808 32.4664V32.4726C73.3896 33.1689 73.3233 33.7824 73.2819 34.313C73.2404 34.8436 73.2197 35.2933 73.2197 35.6622C73.2197 35.8239 73.2218 35.971 73.2259 36.1037C73.2342 36.2363 73.2487 36.3565 73.2694 36.4643V36.4767V36.4829C73.2694 36.5451 73.2404 36.5907 73.1824 36.6197C73.1617 36.628 73.1409 36.6342 73.1202 36.6384C73.1036 36.6425 73.0829 36.6446 73.058 36.6446C72.9876 36.6446 72.9295 36.6322 72.8839 36.6073C72.8425 36.5824 72.801 36.5472 72.7596 36.5016C72.685 36.4104 72.6477 36.2819 72.6477 36.1161C72.6477 35.971 72.656 35.77 72.6725 35.513C72.6933 35.256 72.7243 34.943 72.7658 34.5741C72.8031 34.2591 72.828 33.9959 72.8404 33.7845C72.857 33.5731 72.8632 33.4135 72.8591 33.3057C72.7513 33.2062 72.6974 33.1068 72.6974 33.0073C72.6974 32.9783 72.7036 32.9244 72.7161 32.8456C72.7326 32.7669 72.7679 32.6342 72.8218 32.4477C72.8632 32.3151 72.8943 32.1928 72.915 32.0809C72.9357 31.9689 72.9503 31.8653 72.9585 31.77L72.9648 31.6891L73.0332 31.6705C73.0746 31.6581 73.1078 31.6498 73.1326 31.6456C73.1575 31.6373 73.1886 31.6332 73.2259 31.6332ZM76.7591 34.0705C77.0617 34.3607 77.2129 34.713 77.2129 35.1275C77.2129 35.6083 77.0575 36.0083 76.7466 36.3275C76.4399 36.6342 76.0399 36.7876 75.5466 36.7876C75.3808 36.7876 75.215 36.7689 75.0492 36.7316C74.8876 36.6985 74.728 36.6446 74.5705 36.57C74.2264 36.4166 74.0544 36.2404 74.0544 36.0415C74.0544 35.9586 74.0876 35.8943 74.1539 35.8487C74.2036 35.8114 74.2762 35.7928 74.3715 35.7928C74.3881 35.7928 74.4088 35.7969 74.4337 35.8052C74.4627 35.8094 74.4958 35.8218 74.5332 35.8425C74.5746 35.8632 74.6223 35.8943 74.6762 35.9358C74.73 35.9731 74.7964 36.0228 74.8751 36.085C75.0741 36.2508 75.2482 36.3337 75.3974 36.3337C75.5756 36.3337 75.7352 36.3005 75.8762 36.2342C76.0171 36.1679 76.1477 36.0684 76.2679 35.9358C76.5041 35.6705 76.6223 35.3368 76.6223 34.9347C76.6223 34.6902 76.5622 34.4974 76.442 34.3565C76.3218 34.2239 76.1622 34.1575 75.9632 34.1575C75.8471 34.1575 75.7207 34.1741 75.5839 34.2073C75.4513 34.2363 75.3332 34.2819 75.2295 34.3441C75.1881 34.3689 75.1549 34.3917 75.13 34.4125C75.1052 34.429 75.0824 34.4477 75.0617 34.4684C75.0409 34.485 75.0181 34.5037 74.9933 34.5244C74.9684 34.5451 74.9373 34.5679 74.9 34.5928L74.8751 34.6052H74.844C74.7611 34.6052 74.6762 34.5493 74.5891 34.4373C74.5021 34.3254 74.4585 34.2197 74.4585 34.1202C74.4585 34.1037 74.4565 34.0829 74.4523 34.0581C74.4482 34.0332 74.444 34.0021 74.4399 33.9648C74.4357 33.9275 74.4337 33.884 74.4337 33.8342C74.4378 33.7803 74.444 33.7182 74.4523 33.6477C74.4731 33.5109 74.4855 33.3969 74.4896 33.3057C74.4979 33.2104 74.5021 33.1358 74.5021 33.0819C74.5021 32.8539 74.5021 32.6736 74.5021 32.541C74.5062 32.4083 74.5104 32.3192 74.5145 32.2736C74.5269 32.1658 74.5539 32.0664 74.5953 31.9752C74.6202 31.9296 74.6658 31.8943 74.7321 31.8695C74.7984 31.8404 74.9041 31.8197 75.0492 31.8073C75.157 31.7907 75.2648 31.7783 75.3725 31.77C75.4844 31.7575 75.5984 31.7472 75.7145 31.7389C76.1746 31.6891 76.4793 31.6643 76.6285 31.6643C76.7487 31.6643 76.8399 31.6746 76.9021 31.6954C76.9642 31.7119 77.0098 31.743 77.0389 31.7886L77.0513 31.8135V31.8508C77.0513 31.884 77.0389 31.9213 77.014 31.9627C76.9891 32 76.9477 32.0456 76.8896 32.0995C76.7819 32.1907 76.6845 32.2384 76.5974 32.2425C76.3736 32.2632 76.185 32.2695 76.0316 32.2612C75.8782 32.2529 75.7705 32.2529 75.7083 32.2612C75.5052 32.2943 75.358 32.3254 75.2668 32.3544C75.1756 32.3793 75.1135 32.4021 75.0803 32.4228C75.0389 32.7461 75.0078 33.0322 74.987 33.2809C74.9705 33.5254 74.958 33.714 74.9497 33.8467C74.9829 33.8384 75.0223 33.8259 75.0679 33.8094C75.1135 33.7886 75.1694 33.7658 75.2357 33.741C75.4389 33.6705 75.5756 33.6353 75.6461 33.6353C76.0979 33.6353 76.4689 33.7803 76.7591 34.0705ZM78.9133 31.3876C78.9481 31.3926 78.9655 31.4112 78.9655 31.4436V31.4697C78.9655 31.4821 78.9618 31.4933 78.9543 31.5032C78.9469 31.5132 78.9307 31.5231 78.9058 31.5331C78.881 31.543 78.825 31.5555 78.738 31.5704C78.6808 31.5828 78.6335 31.5903 78.5962 31.5928C78.5589 31.5953 78.5266 31.5965 78.4992 31.5965L78.3836 31.604C78.3786 31.6388 78.3724 31.6947 78.3649 31.7718C78.3599 31.8465 78.3512 31.9397 78.3388 32.0516C78.3288 32.1461 78.3214 32.2232 78.3164 32.2829C78.3114 32.3426 78.3065 32.3899 78.3015 32.4247C78.299 32.4595 78.2965 32.4844 78.294 32.4993C78.294 32.5142 78.294 32.5242 78.294 32.5292C78.294 32.6485 78.294 32.7455 78.294 32.8201C78.2965 32.8923 78.299 32.942 78.3015 32.9694C78.3089 33.0489 78.3189 33.1012 78.3313 33.126C78.3462 33.1509 78.3562 33.1633 78.3612 33.1633C78.3711 33.1584 78.3811 33.1497 78.391 33.1372C78.401 33.1248 78.4122 33.1074 78.4246 33.085C78.4395 33.0626 78.4569 33.0303 78.4768 32.988C78.5042 32.9209 78.5328 32.8363 78.5626 32.7343C78.595 32.6299 78.6273 32.5093 78.6596 32.3725C78.6671 32.3401 78.6745 32.3128 78.682 32.2904C78.6895 32.268 78.6957 32.2481 78.7006 32.2307C78.7056 32.2183 78.7131 32.2021 78.723 32.1822C78.7355 32.1623 78.7541 32.1524 78.779 32.1524C78.8014 32.1524 78.8225 32.1611 78.8424 32.1785C78.8623 32.1934 78.8723 32.222 78.8723 32.2643C78.8723 32.3115 78.8611 32.3837 78.8387 32.4807C78.8163 32.5752 78.7802 32.697 78.7305 32.8462C78.6658 33.0378 78.6024 33.1795 78.5402 33.2715C78.4805 33.3611 78.4171 33.4058 78.35 33.4058C78.2555 33.4058 78.1796 33.3337 78.1224 33.1895C78.0727 33.0601 78.0478 32.8997 78.0478 32.7082C78.0478 32.646 78.0553 32.5267 78.0702 32.3501C78.0876 32.1735 78.1137 31.9273 78.1485 31.6114C78.1261 31.6164 78.105 31.6164 78.0851 31.6114C78.0652 31.604 78.0515 31.5978 78.0441 31.5928C78.0391 31.5903 78.0329 31.5853 78.0254 31.5779C78.018 31.5704 78.0043 31.5629 77.9844 31.5555C77.9496 31.543 77.9284 31.5281 77.921 31.5107C77.911 31.4908 77.906 31.4746 77.906 31.4622C77.906 31.4547 77.911 31.4423 77.921 31.4249C77.9284 31.405 77.957 31.3901 78.0068 31.3801C78.0217 31.3776 78.0341 31.3764 78.0441 31.3764C78.054 31.3739 78.064 31.3727 78.0739 31.3727C78.0839 31.3702 78.0951 31.3689 78.1075 31.3689C78.1224 31.3665 78.1411 31.364 78.1634 31.3615C78.1659 31.3341 78.1684 31.3005 78.1709 31.2608C78.1734 31.221 78.1759 31.175 78.1784 31.1227L78.1597 31.0593C78.1597 31.0444 78.161 31.0332 78.1634 31.0257C78.1833 30.9859 78.2144 30.966 78.2567 30.966C78.3015 30.966 78.3649 30.9922 78.447 31.0444C78.4619 31.0568 78.4694 31.0717 78.4694 31.0891V31.175V31.1861C78.4644 31.2135 78.4582 31.2421 78.4507 31.2719C78.4457 31.2993 78.4395 31.3304 78.432 31.3652C78.4495 31.3652 78.4594 31.3652 78.4619 31.3652C78.4669 31.3652 78.4706 31.3665 78.4731 31.3689C78.4756 31.3689 78.4818 31.3702 78.4917 31.3727C78.5017 31.3727 78.5241 31.3727 78.5589 31.3727C78.5912 31.3727 78.6161 31.3739 78.6335 31.3764C78.6534 31.3764 78.6733 31.3776 78.6932 31.3801C78.7156 31.3801 78.7429 31.3814 78.7753 31.3839C78.8076 31.3839 78.8536 31.3851 78.9133 31.3876ZM80.175 32.1859C80.2148 32.1859 80.2347 32.222 80.2347 32.2941C80.2347 32.2991 80.2334 32.3066 80.2309 32.3165C80.2309 32.3265 80.226 32.3501 80.216 32.3874C80.2086 32.4247 80.1949 32.4794 80.175 32.5515C80.1576 32.6212 80.1315 32.7182 80.0966 32.8425C80.037 33.0589 79.9984 33.1882 79.981 33.2305C79.9263 33.3673 79.8517 33.4357 79.7572 33.4357C79.5781 33.4357 79.4736 33.2703 79.4438 32.9395V32.9358L79.4401 32.8798V32.615C79.4177 32.702 79.3903 32.8127 79.358 32.947C79.3257 33.0813 79.2859 33.2516 79.2386 33.4581L79.2349 33.4804L79.2162 33.4916C79.1889 33.509 79.1603 33.5178 79.1304 33.5178C79.0583 33.5178 79.0048 33.4618 78.97 33.3499C78.9352 33.2355 78.9178 33.0564 78.9178 32.8127C78.9178 32.748 78.9252 32.6373 78.9402 32.4807C78.9551 32.3215 78.9787 32.1113 79.011 31.8502C79.0409 31.594 79.0633 31.3839 79.0782 31.2197C79.0956 31.0531 79.1043 30.9337 79.1043 30.8616V30.7385L79.108 30.7273C79.118 30.7074 79.1354 30.6875 79.1603 30.6676C79.1851 30.6477 79.2224 30.6378 79.2722 30.6378H79.2834C79.3704 30.6427 79.4139 30.6838 79.4139 30.7609C79.4139 30.8081 79.4052 30.8591 79.3878 30.9138C79.3654 30.9785 79.3505 31.0382 79.3431 31.0929C79.2809 31.4784 79.2336 31.8141 79.2013 32.1001C79.1715 32.3861 79.1565 32.6249 79.1565 32.8164C79.159 32.8214 79.1603 32.8276 79.1603 32.8351C79.1603 32.8425 79.1603 32.8525 79.1603 32.8649C79.1628 32.8748 79.1652 32.8873 79.1677 32.9022V32.9097C79.1802 32.8599 79.1938 32.8052 79.2088 32.7455C79.2262 32.6858 79.2448 32.6199 79.2647 32.5478C79.307 32.3787 79.3406 32.2456 79.3654 32.1486C79.3903 32.0492 79.4052 31.9845 79.4102 31.9546C79.4227 31.8925 79.4413 31.8527 79.4662 31.8353C79.4935 31.8154 79.5196 31.8054 79.5445 31.8054C79.5619 31.8054 79.5843 31.8116 79.6117 31.8241C79.6415 31.8365 79.6875 31.8701 79.7497 31.9248L79.7721 31.9435L79.7683 31.9733C79.6962 32.3563 79.6602 32.6697 79.6602 32.9134C79.6602 32.9955 79.6664 33.0614 79.6788 33.1111C79.6937 33.1584 79.7124 33.182 79.7348 33.182C79.7373 33.182 79.746 33.1758 79.7609 33.1633C79.7758 33.1484 79.7957 33.1148 79.8206 33.0626C79.8405 33.0203 79.8641 32.9681 79.8915 32.9059C79.9188 32.8413 79.9437 32.7667 79.9661 32.6821C79.9785 32.6373 79.9947 32.5851 80.0146 32.5254C80.0345 32.4632 80.0544 32.3936 80.0743 32.3165C80.0792 32.2966 80.0879 32.2705 80.1004 32.2382C80.1153 32.2033 80.1402 32.1859 80.175 32.1859ZM84.591 32.5969C84.6491 32.8539 84.6781 33.1379 84.6781 33.4487C84.6781 33.6974 84.6698 33.9316 84.6532 34.1513C84.6366 34.371 84.6118 34.5803 84.5786 34.7793C84.5123 35.1689 84.4086 35.5088 84.2677 35.799C83.9776 36.3959 83.5817 36.6943 83.0801 36.6943C82.6532 36.6943 82.305 36.5119 82.0356 36.1472C81.9693 36.0601 81.9112 35.9669 81.8615 35.8674C81.8118 35.7638 81.7703 35.656 81.7371 35.5441C81.704 35.4322 81.6791 35.314 81.6625 35.1897C81.6459 35.0612 81.6377 34.9285 81.6377 34.7917C81.6377 34.2736 81.6978 33.7575 81.818 33.2436C81.8511 33.1109 81.8864 32.9845 81.9237 32.8643C81.961 32.7399 82.0024 32.6239 82.048 32.5161C82.1185 32.3503 82.1972 32.1866 82.2843 32.0249C82.3713 31.8632 82.4708 31.7037 82.5827 31.5461C82.5952 31.5296 82.6118 31.5026 82.6325 31.4653C82.6573 31.428 82.6843 31.3928 82.7133 31.3596C82.7423 31.3265 82.7755 31.3016 82.8128 31.285C82.8542 31.2643 82.8978 31.2622 82.9434 31.2788C83.0138 31.3037 83.0801 31.3451 83.1423 31.4031C83.2045 31.457 83.2397 31.5047 83.248 31.5461C83.2522 31.5793 83.2501 31.6104 83.2418 31.6394C83.2377 31.6643 83.2231 31.6954 83.1983 31.7327C83.1776 31.7658 83.1465 31.8052 83.105 31.8508C83.0677 31.8923 83.018 31.9461 82.9558 32.0125C82.9392 32.029 82.9268 32.0436 82.9185 32.056C82.8439 32.1555 82.7713 32.2819 82.7009 32.4353C82.6345 32.5845 82.5662 32.7607 82.4957 32.9638C82.3879 33.2995 82.3071 33.6208 82.2532 33.9275C82.1993 34.2301 82.1724 34.5161 82.1724 34.7855C82.1724 35.3037 82.247 35.6871 82.3962 35.9358C82.5371 36.1762 82.7485 36.2964 83.0304 36.2964C83.4325 36.2964 83.733 36.0664 83.932 35.6062C84.1475 35.113 84.2553 34.3835 84.2553 33.4176C84.2553 32.8954 84.1703 32.4871 84.0004 32.1928C83.9672 32.1347 83.9278 32.085 83.8822 32.0436C83.8366 32.0021 83.7807 31.9752 83.7143 31.9627C83.6687 31.9544 83.6086 31.9835 83.534 32.0498C83.4636 32.1119 83.389 32.2135 83.3102 32.3544C83.1402 32.6487 83.0553 33.057 83.0553 33.5793C83.0553 34.4498 83.1402 35.1233 83.3102 35.6C83.3185 35.6622 83.3123 35.7057 83.2915 35.7306C83.2708 35.7555 83.2439 35.7679 83.2107 35.7679C83.1817 35.7638 83.1506 35.7513 83.1175 35.7306C83.0843 35.7057 83.0594 35.6746 83.0428 35.6373C82.9475 35.4011 82.875 35.142 82.8252 34.8601C82.7921 34.6612 82.761 34.4664 82.732 34.2757C82.7071 34.0809 82.6947 33.8591 82.6947 33.6104C82.6947 33.4487 82.6988 33.2974 82.7071 33.1565C82.7154 33.0156 82.734 32.8829 82.763 32.7586C82.7962 32.6342 82.8273 32.5182 82.8563 32.4104C82.8895 32.3026 82.9351 32.2052 82.9931 32.1182C83.0511 32.0394 83.1071 31.9627 83.161 31.8881C83.219 31.8135 83.2833 31.7493 83.3537 31.6954C83.4366 31.629 83.5257 31.5938 83.6211 31.5897C83.7206 31.5855 83.8138 31.6 83.9009 31.6332C83.9921 31.6664 84.075 31.714 84.1496 31.7762C84.2242 31.8342 84.2801 31.8943 84.3175 31.9565C84.3755 32.0477 84.4273 32.1472 84.4729 32.255C84.5185 32.3586 84.5579 32.4726 84.591 32.5969ZM86.7607 34.2943C86.7814 34.2943 86.7938 34.3047 86.798 34.3254C86.8021 34.3461 86.8042 34.4042 86.8042 34.4995C86.8042 34.5244 86.7959 34.5741 86.7793 34.6487C86.7669 34.7233 86.7337 34.8622 86.6799 35.0653C86.6094 35.3182 86.5451 35.5316 86.4871 35.7057C86.4291 35.8798 86.371 36.0166 86.313 36.1161C86.1887 36.3565 86.0394 36.4767 85.8653 36.4767C85.6539 36.4767 85.4923 36.3772 85.3804 36.1783C85.2767 35.9959 85.2249 35.7451 85.2249 35.4259C85.2249 35.0902 85.283 34.7503 85.399 34.4062C85.5275 34.0249 85.6788 33.8342 85.8529 33.8342C85.8985 33.8342 85.9379 33.8404 85.971 33.8529C86.0042 33.8653 86.0436 33.9005 86.0892 33.9586C86.1348 34.0166 86.1617 34.0746 86.17 34.1327C86.1824 34.1866 86.1824 34.2342 86.17 34.2757C86.1451 34.3669 86.1099 34.4311 86.0643 34.4684C86.0229 34.5057 85.9918 34.5244 85.971 34.5244C85.913 34.5244 85.8695 34.5078 85.8405 34.4746C85.7037 34.6943 85.6353 35.0923 85.6353 35.6684C85.6353 35.8011 85.656 35.9088 85.6975 35.9917C85.7099 36.0166 85.7244 36.0394 85.741 36.0601C85.7617 36.0809 85.7824 36.0912 85.8032 36.0912C85.828 36.0912 85.8653 36.0788 85.9151 36.0539C85.969 36.0249 86.0291 35.9648 86.0954 35.8736C86.1659 35.7783 86.2384 35.6415 86.313 35.4632C86.3876 35.285 86.4602 35.0425 86.5306 34.7358C86.5514 34.6404 86.5679 34.5762 86.5804 34.543C86.5928 34.5057 86.599 34.4829 86.599 34.4746V34.4684L86.6052 34.456C86.626 34.3897 86.6508 34.3461 86.6799 34.3254C86.7089 34.3047 86.7358 34.2943 86.7607 34.2943ZM88.4333 32.9948C88.4913 33.0031 88.5203 33.0342 88.5203 33.0881V33.1316C88.5203 33.1524 88.5141 33.171 88.5017 33.1876C88.4892 33.2042 88.4623 33.2208 88.4208 33.2373C88.3794 33.2539 88.2861 33.2746 88.141 33.2995C88.0457 33.3202 87.9669 33.3327 87.9048 33.3368C87.8426 33.341 87.7887 33.343 87.7431 33.343L87.5504 33.3555C87.5421 33.4135 87.5317 33.5068 87.5193 33.6353C87.511 33.7596 87.4965 33.9151 87.4758 34.1016C87.4592 34.2591 87.4467 34.3876 87.4384 34.4871C87.4302 34.5866 87.4219 34.6653 87.4136 34.7233C87.4094 34.7814 87.4053 34.8228 87.4011 34.8477C87.4011 34.8726 87.4011 34.8892 87.4011 34.8974C87.4011 35.0964 87.4011 35.2581 87.4011 35.3824C87.4053 35.5026 87.4094 35.5855 87.4136 35.6311C87.426 35.7638 87.4426 35.8508 87.4633 35.8923C87.4882 35.9337 87.5048 35.9544 87.5131 35.9544C87.5296 35.9461 87.5462 35.9316 87.5628 35.9109C87.5794 35.8902 87.598 35.8612 87.6188 35.8239C87.6436 35.7866 87.6726 35.7327 87.7058 35.6622C87.7514 35.5503 87.7991 35.4094 87.8488 35.2394C87.9027 35.0653 87.9566 34.8643 88.0105 34.6363C88.0229 34.5824 88.0353 34.5368 88.0478 34.4995C88.0602 34.4622 88.0706 34.429 88.0789 34.4C88.0872 34.3793 88.0996 34.3524 88.1162 34.3192C88.1369 34.286 88.168 34.2695 88.2094 34.2695C88.2467 34.2695 88.282 34.284 88.3151 34.313C88.3483 34.3379 88.3649 34.3855 88.3649 34.456C88.3649 34.5347 88.3462 34.655 88.3089 34.8166C88.2716 34.9741 88.2115 35.1772 88.1286 35.4259C88.0208 35.7451 87.9151 35.9814 87.8115 36.1347C87.712 36.284 87.6063 36.3586 87.4944 36.3586C87.3369 36.3586 87.2105 36.2384 87.1151 35.998C87.0322 35.7824 86.9908 35.5151 86.9908 35.1959C86.9908 35.0923 87.0032 34.8933 87.0281 34.599C87.0571 34.3047 87.1006 33.8943 87.1587 33.3679C87.1214 33.3762 87.0861 33.3762 87.053 33.3679C87.0198 33.3555 86.997 33.3451 86.9846 33.3368C86.9763 33.3327 86.9659 33.3244 86.9535 33.3119C86.941 33.2995 86.9182 33.2871 86.8851 33.2746C86.8271 33.2539 86.7918 33.229 86.7794 33.2C86.7628 33.1669 86.7545 33.1399 86.7545 33.1192C86.7545 33.1068 86.7628 33.086 86.7794 33.057C86.7918 33.0239 86.8395 32.999 86.9224 32.9824C86.9473 32.9783 86.968 32.9762 86.9846 32.9762C87.0011 32.9721 87.0177 32.97 87.0343 32.97C87.0509 32.9658 87.0695 32.9638 87.0903 32.9638C87.1151 32.9596 87.1462 32.9555 87.1835 32.9513C87.1877 32.9057 87.1918 32.8498 87.196 32.7835C87.2001 32.7171 87.2043 32.6404 87.2084 32.5534L87.1773 32.4477C87.1773 32.4228 87.1794 32.4042 87.1835 32.3917C87.2167 32.3254 87.2685 32.2923 87.339 32.2923C87.4136 32.2923 87.5193 32.3358 87.6561 32.4228C87.6809 32.4436 87.6934 32.4684 87.6934 32.4974V32.6404V32.6591C87.6851 32.7047 87.6747 32.7524 87.6623 32.8021C87.654 32.8477 87.6436 32.8995 87.6312 32.9575C87.6602 32.9575 87.6768 32.9575 87.6809 32.9575C87.6892 32.9575 87.6954 32.9596 87.6996 32.9638C87.7037 32.9638 87.7141 32.9658 87.7307 32.97C87.7473 32.97 87.7846 32.97 87.8426 32.97C87.8965 32.97 87.9379 32.9721 87.9669 32.9762C88.0001 32.9762 88.0333 32.9783 88.0664 32.9824C88.1037 32.9824 88.1493 32.9845 88.2032 32.9886C88.2571 32.9886 88.3338 32.9907 88.4333 32.9948ZM90.325 34.2695C90.4245 34.2695 90.4742 34.3192 90.4742 34.4187C90.4742 34.5265 90.4597 34.6425 90.4307 34.7669C90.4017 34.8871 90.3561 35.0156 90.2939 35.1524C90.1737 35.4218 90.012 35.5565 89.8089 35.5565C89.7965 35.5565 89.7799 35.5544 89.7592 35.5503C89.7385 35.542 89.6991 35.5275 89.641 35.5068C89.6328 35.5482 89.6224 35.5917 89.61 35.6373C89.6017 35.6788 89.5913 35.7244 89.5789 35.7741V35.7866C89.5416 35.8943 89.5084 35.9835 89.4794 36.0539C89.4504 36.1244 89.4234 36.1803 89.3986 36.2218C89.2908 36.3959 89.1561 36.4829 88.9944 36.4829C88.7954 36.4829 88.6483 36.3835 88.553 36.1845C88.4659 36.0062 88.4224 35.743 88.4224 35.3948C88.4224 34.9803 88.4555 34.6923 88.5219 34.5306V34.4933C88.5177 34.4684 88.5157 34.4477 88.5157 34.4311C88.5157 34.4104 88.5157 34.3917 88.5157 34.3752V34.3689C88.5239 34.3068 88.5405 34.2632 88.5654 34.2384C88.5695 34.2218 88.5758 34.1948 88.584 34.1575C88.5923 34.1202 88.6068 34.0601 88.6276 33.9772C88.64 33.9151 88.6587 33.8653 88.6835 33.828C88.7125 33.7907 88.7416 33.7617 88.7706 33.741C88.7996 33.7202 88.8286 33.7078 88.8576 33.7037C88.8866 33.6954 88.9136 33.6912 88.9385 33.6912C89.0669 33.6912 89.2037 33.7451 89.3488 33.8529C89.4939 33.9565 89.5892 34.0726 89.6348 34.2011C89.639 34.2176 89.6431 34.2425 89.6473 34.2757C89.6555 34.3088 89.6618 34.3607 89.6659 34.4311C89.6701 34.4974 89.6742 34.5886 89.6783 34.7047C89.6825 34.8208 89.6846 34.9679 89.6846 35.1461C89.7053 35.1627 89.7302 35.171 89.7592 35.171C89.7965 35.171 89.8379 35.1607 89.8835 35.1399C89.9333 35.1192 89.9809 35.0612 90.0265 34.9658C90.0348 34.941 90.0493 34.8933 90.0701 34.8228C90.0949 34.7482 90.126 34.6259 90.1633 34.456C90.1882 34.3316 90.2421 34.2695 90.325 34.2695ZM89.1436 35.886C89.2058 35.7493 89.2452 35.6436 89.2618 35.5689C89.2825 35.4902 89.2929 35.4342 89.2929 35.4011C89.2929 35.343 89.2887 35.2746 89.2804 35.1959C89.2721 35.1171 89.2597 35.0301 89.2431 34.9347C89.2182 34.8021 89.2017 34.7109 89.1934 34.6612C89.1892 34.6114 89.1872 34.5762 89.1872 34.5555C89.1872 34.5347 89.1872 34.5119 89.1872 34.4871C89.1872 34.4622 89.1913 34.4332 89.1996 34.4C89.2037 34.3669 89.2058 34.3399 89.2058 34.3192C89.2058 34.2943 89.2058 34.2757 89.2058 34.2632C89.2058 34.2052 89.1954 34.1679 89.1747 34.1513C89.154 34.1306 89.1271 34.1202 89.0939 34.1202C89.0897 34.1244 89.0815 34.1347 89.069 34.1513C89.0607 34.1679 89.0483 34.1969 89.0317 34.2384C89.0193 34.2757 89.0027 34.3296 88.982 34.4C88.9654 34.4705 88.9467 34.5617 88.926 34.6736C88.8929 34.8477 88.868 35.0011 88.8514 35.1337C88.8348 35.2622 88.8265 35.3741 88.8265 35.4695C88.8265 35.5275 88.8286 35.5917 88.8328 35.6622C88.8369 35.7327 88.8452 35.8011 88.8576 35.8674C88.8742 35.9296 88.8949 35.9835 88.9198 36.029C88.9447 36.0705 88.9778 36.0933 89.0193 36.0974C89.0276 36.0892 89.04 36.0726 89.0566 36.0477C89.0773 36.0187 89.1063 35.9648 89.1436 35.886ZM91.4654 33.8591C91.5234 33.8591 91.5814 33.8695 91.6395 33.8902C91.7016 33.9068 91.7555 33.9399 91.8011 33.9897C91.8509 34.0394 91.8902 34.1099 91.9193 34.2011C91.9524 34.2881 91.969 34.4021 91.969 34.543C91.969 34.7627 91.9545 34.9783 91.9255 35.1897C91.8965 35.3969 91.8529 35.6 91.7949 35.799C91.6623 36.2674 91.4923 36.5016 91.2851 36.5016C91.1607 36.5016 91.0529 36.4145 90.9618 36.2404C90.9244 36.2778 90.883 36.2964 90.8374 36.2964C90.7752 36.2964 90.7172 36.2591 90.6633 36.1845C90.6177 36.114 90.5949 36.0477 90.5949 35.9855C90.5949 35.9565 90.6011 35.9296 90.6136 35.9047C90.6011 35.2415 90.6447 34.4933 90.7441 33.6601C90.7773 33.3948 90.8084 33.1441 90.8374 32.9078C90.8706 32.6715 90.9016 32.4394 90.9307 32.2114C90.939 32.1161 90.9431 32.0518 90.9431 32.0187C90.9431 31.9855 90.9431 31.9669 90.9431 31.9627L90.9307 31.9254L90.9493 31.8943C90.9618 31.8695 90.9845 31.8467 91.0177 31.8259C91.0509 31.8011 91.0985 31.7886 91.1607 31.7886H91.2042C91.2788 31.7886 91.3369 31.8114 91.3783 31.857C91.4239 31.8985 91.4467 31.9607 91.4467 32.0436C91.4467 32.0601 91.4426 32.0871 91.4343 32.1244C91.4301 32.1575 91.4177 32.2156 91.397 32.2985C91.3763 32.3772 91.3597 32.4477 91.3472 32.5099C91.3348 32.5721 91.3244 32.6301 91.3162 32.684C91.2581 32.9866 91.2105 33.2622 91.1731 33.5109C91.1358 33.7555 91.1048 33.9752 91.0799 34.17C91.1048 34.1244 91.1338 34.0767 91.1669 34.027C91.2457 33.9151 91.3452 33.8591 91.4654 33.8591ZM91.4405 35.7493C91.5358 35.4052 91.5835 35.0446 91.5835 34.6674C91.5835 34.4892 91.5732 34.371 91.5524 34.313C91.5358 34.2508 91.5234 34.2156 91.5151 34.2073C91.5068 34.2114 91.4965 34.2218 91.484 34.2384C91.4716 34.255 91.4529 34.284 91.4281 34.3254C91.4073 34.3669 91.3825 34.4228 91.3535 34.4933C91.3244 34.5638 91.2913 34.655 91.254 34.7669C91.1835 34.97 91.1296 35.1607 91.0923 35.3389C91.0592 35.513 91.0405 35.6746 91.0364 35.8239C91.0778 35.8736 91.1276 35.9441 91.1856 36.0353C91.2022 36.0643 91.2167 36.0809 91.2291 36.085C91.2415 36.0892 91.2498 36.0912 91.254 36.0912C91.2706 36.0912 91.2954 36.0684 91.3286 36.0228C91.3618 35.9731 91.3991 35.8819 91.4405 35.7493ZM94.2817 34.2508C94.3356 34.2508 94.3604 34.2674 94.3563 34.3005C94.3521 34.3296 94.3501 34.3689 94.3501 34.4187C94.3501 34.427 94.348 34.4415 94.3438 34.4622C94.3438 34.4788 94.3397 34.5037 94.3314 34.5368C94.3231 34.57 94.3128 34.6156 94.3003 34.6736C94.2879 34.7316 94.2692 34.8042 94.2444 34.8912C94.1656 35.2104 94.0806 35.4923 93.9894 35.7368C93.9438 35.857 93.8982 35.9607 93.8527 36.0477C93.8112 36.1306 93.7697 36.2011 93.7283 36.2591C93.6164 36.4166 93.4754 36.4954 93.3055 36.4954C93.1148 36.4954 92.9511 36.3959 92.8143 36.1969C92.69 36.0104 92.6278 35.7845 92.6278 35.5192C92.6278 35.3037 92.6423 35.086 92.6713 34.8664C92.7045 34.6467 92.7459 34.4498 92.7957 34.2757C92.8122 34.2135 92.8309 34.1493 92.8516 34.0829C92.8765 34.0166 92.9055 33.9565 92.9387 33.9026C92.9718 33.8446 93.0091 33.799 93.0506 33.7658C93.092 33.7285 93.1418 33.7099 93.1998 33.7099C93.3159 33.7099 93.4236 33.7534 93.5231 33.8404C93.5687 33.886 93.606 33.942 93.635 34.0083C93.6641 34.0746 93.6786 34.1327 93.6786 34.1824C93.6786 34.2653 93.6703 34.3565 93.6537 34.456C93.6371 34.5555 93.6164 34.655 93.5915 34.7544C93.5666 34.8498 93.5376 34.9389 93.5045 35.0218C93.4754 35.1005 93.4444 35.1648 93.4112 35.2145C93.3905 35.2518 93.3615 35.2892 93.3242 35.3265C93.2868 35.3638 93.2475 35.3948 93.206 35.4197C93.1687 35.4404 93.1314 35.4529 93.0941 35.457C93.0609 35.457 93.0319 35.4404 93.0071 35.4073C92.9988 35.4404 92.9967 35.484 93.0008 35.5379C93.005 35.5917 93.0112 35.6456 93.0195 35.6995C93.0278 35.7493 93.0381 35.7969 93.0506 35.8425C93.063 35.8881 93.0734 35.9213 93.0817 35.942C93.1148 36.0125 93.1584 36.0664 93.2122 36.1037C93.2661 36.1368 93.3034 36.1534 93.3242 36.1534C93.3656 36.1534 93.405 36.1223 93.4423 36.0601C93.4837 35.998 93.5356 35.9192 93.5977 35.8239C93.6682 35.7119 93.747 35.5544 93.834 35.3513C93.921 35.1482 93.9998 34.9306 94.0703 34.6985C94.0827 34.6529 94.0931 34.6094 94.1014 34.5679C94.1138 34.5223 94.1262 34.4767 94.1387 34.4311C94.1594 34.3109 94.2071 34.2508 94.2817 34.2508ZM93.3055 34.1202C93.2723 34.2114 93.2413 34.2943 93.2122 34.3689C93.1874 34.4394 93.1625 34.5099 93.1376 34.5803C93.1128 34.6467 93.092 34.7151 93.0754 34.7855C93.0589 34.856 93.0485 34.9347 93.0444 35.0218C93.0982 35.0176 93.1438 34.9803 93.1811 34.9099C93.2226 34.8394 93.2495 34.7752 93.262 34.7171C93.2786 34.6342 93.2951 34.5513 93.3117 34.4684C93.3324 34.3814 93.3428 34.2923 93.3428 34.2011C93.3428 34.1803 93.3387 34.1555 93.3304 34.1265C93.3262 34.0933 93.3179 34.0912 93.3055 34.1202ZM96.1954 34.2695C96.212 34.2695 96.239 34.2798 96.2763 34.3005C96.3177 34.3171 96.3384 34.3689 96.3384 34.456C96.3384 34.6011 96.2514 34.9472 96.0773 35.4943C96.0068 35.7016 95.9447 35.8674 95.8908 35.9917C95.8369 36.1161 95.7871 36.2114 95.7415 36.2778C95.7001 36.3441 95.6607 36.3876 95.6234 36.4083C95.5902 36.429 95.5592 36.4394 95.5301 36.4394C95.3602 36.4394 95.2213 36.3441 95.1136 36.1534C95.097 36.1327 95.0804 36.0912 95.0638 36.029C95.0514 35.9669 95.041 35.8591 95.0327 35.7057V35.227V34.6923C95.0327 34.684 95.0244 34.6653 95.0079 34.6363C94.9913 34.6031 94.9457 34.5617 94.8711 34.5119C94.8462 34.6446 94.7965 34.8394 94.7219 35.0964C94.7219 35.1088 94.7094 35.1399 94.6845 35.1897C94.6763 35.2062 94.67 35.2187 94.6659 35.227C94.6618 35.2353 94.6576 35.2415 94.6535 35.2456C94.6535 35.2622 94.6431 35.2767 94.6224 35.2892C94.6016 35.3099 94.5768 35.314 94.5478 35.3016L94.4545 35.2767C94.4089 35.2601 94.3861 35.2311 94.3861 35.1897C94.3861 35.1855 94.3861 35.1793 94.3861 35.171C94.3861 35.1586 94.3902 35.1399 94.3985 35.1151C94.4027 35.086 94.411 35.0467 94.4234 34.9969C94.4358 34.9472 94.4545 34.8788 94.4794 34.7917C94.5333 34.5886 94.5602 34.4249 94.5602 34.3005C94.5602 34.2923 94.5581 34.2736 94.554 34.2446C94.5498 34.2114 94.5374 34.1658 94.5167 34.1078C94.4752 34.0083 94.4545 33.9192 94.4545 33.8404C94.4545 33.7534 94.4628 33.6829 94.4794 33.629C94.4959 33.5752 94.5167 33.5337 94.5415 33.5047C94.5664 33.4715 94.5934 33.4487 94.6224 33.4363C94.6555 33.4239 94.6866 33.4176 94.7156 33.4176C94.7322 33.4176 94.7529 33.4218 94.7778 33.4301C94.8027 33.4342 94.8255 33.4467 94.8462 33.4674C94.8711 33.4881 94.8918 33.5192 94.9084 33.5607C94.9291 33.598 94.9415 33.6477 94.9457 33.7099C94.9498 33.7513 94.9457 33.8239 94.9333 33.9275C94.925 33.9855 94.9208 34.029 94.9208 34.0581C94.9208 34.0871 94.9208 34.1099 94.9208 34.1265C94.925 34.1347 94.9415 34.1493 94.9706 34.17C94.9996 34.1907 95.0597 34.2239 95.1509 34.2695C95.3747 34.3772 95.4866 34.5161 95.4866 34.686C95.4866 34.6943 95.4845 34.7109 95.4804 34.7358C95.4804 34.7565 95.4783 34.7897 95.4742 34.8353C95.4742 34.8809 95.47 34.943 95.4618 35.0218C95.4535 35.1005 95.4431 35.2021 95.4307 35.3265C95.4224 35.4135 95.4141 35.486 95.4058 35.5441C95.4016 35.6021 95.3975 35.6498 95.3934 35.6871C95.3892 35.7244 95.3851 35.7555 95.3809 35.7803C95.3809 35.8052 95.3809 35.8301 95.3809 35.855C95.3809 35.9544 95.3913 36.0166 95.412 36.0415C95.4327 36.0664 95.4535 36.0788 95.4742 36.0788C95.4783 36.0746 95.4866 36.0643 95.4991 36.0477C95.5156 36.027 95.5343 35.9938 95.555 35.9482C95.5799 35.8985 95.6068 35.8342 95.6358 35.7555C95.669 35.6726 95.7084 35.5669 95.754 35.4384C95.8949 35.0322 95.982 34.7192 96.0151 34.4995C96.0276 34.4042 96.0524 34.342 96.0897 34.313C96.127 34.284 96.1623 34.2695 96.1954 34.2695Z" fill="white"/>
<path fill-rule="evenodd" clip-rule="evenodd" d="M34.5692 16.9978C33.9924 16.5956 33.3324 16.3694 32.6602 16.1988C30.1675 15.5636 27.6311 15.1303 25.1125 14.6089C24.2221 14.4247 24.233 14.4436 24.2534 13.5417C24.2725 12.7372 24.323 11.9192 24.0598 11.1418C23.2225 8.65941 22.148 6.28261 20.8035 4.02769C20.3412 3.25303 19.6976 2.7384 18.7962 2.58265C18.4703 2.52713 18.1376 2.51765 17.8089 2.4865C16.793 2.39305 15.758 2.46347 14.7721 2.13032C13.864 1.68746 12.9326 1.30419 11.9467 1.06854C11.8349 1.01302 11.7217 0.956137 11.6099 0.900611C11.1354 0.670379 10.6731 0.422542 10.3376 0H10.0158C9.6531 0.281695 9.29037 0.562035 8.92765 0.84373C8.44765 1.02656 8.0972 1.31367 8.06857 1.87165C8.06448 1.94207 8.03175 2.0152 7.99766 2.08156C7.55721 2.92394 7.24494 3.83809 6.57131 4.55045C6.48676 4.64119 6.4254 4.76173 6.38449 4.87955C6.32858 5.03665 6.32858 5.21406 6.48949 5.30751C6.77721 5.47544 6.8304 5.75714 6.87267 6.03748C6.93403 6.44783 6.99539 6.82568 7.36494 7.11821C7.63084 7.32677 7.56675 7.58951 7.28448 7.80484C7.12494 7.92808 6.95585 8.04049 6.8004 8.1705C6.35449 8.54429 5.83359 8.82328 5.42313 9.24176C5.33995 9.23228 5.28268 9.27832 5.22405 9.32572C4.42496 9.98527 3.68724 10.7098 3.08861 11.5522C2.45861 12.4366 1.72499 13.2058 0.794993 13.7787C0.546813 13.9317 0.324543 14.1552 0 14.1565V14.3488C0.133635 14.3041 0.26727 14.2689 0.409087 14.2838C0.518177 14.2947 0.670903 14.2256 0.717266 14.3759C0.76363 14.5303 0.586359 14.533 0.511359 14.6075C0.415905 14.7009 0.15409 14.6806 0.23318 14.8784C0.310906 15.0747 0.535904 14.965 0.696812 14.9691C0.754084 14.9705 0.816811 14.9271 0.869992 14.8933C1.16454 14.7009 1.4509 14.5005 1.71817 14.2703C2.2268 13.8328 2.73816 13.39 3.41588 13.2234C3.81815 13.1232 3.96678 13.2573 3.88224 13.6541C3.81678 13.9696 3.89997 14.2432 4.06633 14.4992C4.14133 14.6143 4.23951 14.7632 4.3786 14.7429C4.51223 14.724 4.51087 14.5411 4.53678 14.426C4.71814 13.6324 4.90632 12.8374 5.05087 12.0357C5.12314 11.6375 5.28677 11.3423 5.64541 11.1554C6.29176 10.8629 6.94767 10.5906 7.58175 10.2737C8.09447 10.0191 8.61811 9.7767 9.06128 9.40292C9.49764 9.16321 9.50992 9.16456 9.88764 9.51668C10.0663 9.68326 10.2476 9.84848 10.4249 10.0178C10.5258 10.1153 10.6158 10.183 10.6554 9.97579C10.7031 9.7117 10.8176 9.81733 10.924 9.92974C11.1654 10.1884 11.1708 10.485 10.9254 10.8642C10.4004 11.6714 9.949 12.5232 9.75128 13.4618C9.6081 14.143 9.05174 14.7605 9.42264 15.5447C9.52083 15.7492 9.64083 15.8196 9.80719 15.8575C10.0199 15.9063 9.99809 15.6991 10.0335 15.5867C10.0867 15.4269 10.1099 15.2576 10.1426 15.091C10.2013 14.8012 10.2435 14.5046 10.3963 14.2418C10.6867 13.738 10.8763 13.7299 11.1654 14.2107C11.1763 14.2283 11.1831 14.25 11.1954 14.2662C11.2594 14.3421 11.2704 14.5032 11.404 14.4667C11.5267 14.4328 11.4981 14.2919 11.4967 14.189C11.4913 13.669 11.4544 13.1516 11.374 12.637C11.3099 12.2266 11.3304 11.8488 11.7544 11.6145C11.8458 11.563 11.9167 11.4777 11.9454 11.368C12.1594 11.2908 12.4799 11.5021 12.5535 11.1987C12.8753 11.4885 13.2122 11.7946 13.5544 12.098C13.6049 12.1427 13.6881 12.2591 13.7153 12.209C13.939 11.8203 14.0099 12.274 14.1762 12.2727C14.2376 11.8542 14.4953 12.1725 14.6849 12.167C14.7503 11.8014 14.5949 11.4452 14.6617 11.0321C14.9521 11.4953 15.214 11.9097 15.4771 12.3323C15.5535 12.2632 15.5535 12.2199 15.533 12.1819C15.0326 11.2529 14.7558 10.2345 14.3549 9.26613C14.1871 8.86255 14.1817 8.50772 14.494 8.17727C14.6099 8.05403 14.7244 7.92673 14.839 7.80213C15.0012 7.74661 15.1294 7.83735 15.2576 7.90912C16.1521 8.41157 17.0221 8.95193 17.8403 9.56679C18.7144 10.2263 19.0226 11.1215 18.7635 12.1643C18.458 13.3995 18.0653 14.6116 18.0094 15.8954C17.9617 16.9911 18.1335 18.0244 18.8603 18.883C19.3048 19.4099 19.4535 19.9773 19.4071 20.649C19.3553 21.402 19.1767 22.1361 19.1262 22.8877C19.0471 24.051 19.0403 25.2198 18.878 26.3777C18.698 27.6752 18.323 28.8981 17.5498 29.9856C17.0549 30.6817 16.6771 31.4428 16.3676 32.2378C15.7444 33.8454 15.3844 35.5288 14.8921 37.1742C14.749 37.6496 14.6617 38.1466 14.3699 38.5651C14.1217 38.7926 13.8326 38.9362 13.504 39.0269C13.0881 39.142 12.9203 39.3519 12.9081 39.7528C12.8835 40.6291 12.7103 41.4782 12.4731 42.3179C12.3422 42.7797 12.2358 43.2429 12.3244 43.7277C12.4444 44.371 12.6163 44.9899 13.1153 45.4639C13.3008 45.64 13.4753 45.6616 13.6131 45.426C13.9649 44.822 14.3508 44.2315 14.5635 43.5571C14.899 42.8 15.1621 42.0131 15.5508 41.2791C17.7435 37.1499 19.9335 33.0192 22.118 28.8859C22.3116 28.5162 22.5762 28.2358 22.9157 27.9948C25.677 26.0405 28.5938 24.3219 31.4384 22.4936C32.6302 21.7271 33.8833 21.0486 34.9401 20.0857C35.2238 19.827 35.4556 19.5426 35.5074 19.1539C35.6274 18.2506 35.3206 17.5233 34.5692 16.9978ZM28.3334 20.9876C27.2902 21.8151 26.247 22.6439 25.1711 23.4281C24.6912 23.7775 24.1321 23.9143 23.5757 24.0565C23.3507 24.1147 23.2743 23.963 23.3193 23.7775C23.5743 22.7482 23.8198 21.7176 24.1102 20.6978C24.263 20.1642 24.7198 19.9299 25.2448 19.915C26.6016 19.8798 27.9584 19.9109 29.3125 19.9868C29.3397 19.9895 29.367 20.0125 29.4379 20.0464C29.0588 20.3714 28.7057 20.691 28.3334 20.9876Z" fill="white"/>
<path fill-rule="evenodd" clip-rule="evenodd" d="M40.8467 57.9027C40.7554 58.267 40.5904 58.5988 40.439 58.9387C40.4117 59.001 40.3981 59.0972 40.2972 59.085C40.1758 59.0715 40.1922 58.9685 40.1827 58.8886C40.1227 58.309 40.0681 57.728 40.0027 57.1484C39.9358 56.5579 39.7858 55.9958 39.3263 55.5733C38.7904 55.083 38.1413 55.0736 37.4827 55.2063C36.3086 55.4433 35.4032 56.1353 34.6286 56.9953C32.65 59.192 31.5427 61.8166 30.9782 64.6715C30.7491 65.8294 31.0123 66.9955 31.2427 68.1412C31.7159 70.5112 32.7686 72.6104 34.2591 74.5064C34.3722 74.65 34.5032 74.7935 34.5509 74.9886C34.4254 75.0319 34.3763 74.9425 34.3245 74.891C32.5709 73.1873 30.9155 71.3956 29.5205 69.3845C28.3928 67.7579 27.8064 65.9364 27.6059 63.9781C27.5323 63.2603 27.4028 62.5507 27.2964 61.8369C27.2828 61.7476 27.2937 61.6121 27.1587 61.6338C27.0537 61.6514 27.1109 61.7774 27.1014 61.8532C26.9978 62.6455 26.9746 63.4513 27.0496 64.2381C27.1805 65.6398 27.3019 67.0442 27.5173 68.4378C27.6455 69.2761 27.7191 70.1239 27.955 70.9433C28.24 71.9414 28.7528 72.8406 29.1877 73.7737C29.2737 73.9552 29.3446 74.1448 29.4087 74.3344C29.4291 74.3954 29.485 74.4848 29.3937 74.5349C29.3091 74.5823 29.26 74.4997 29.2055 74.455C28.5973 73.9539 28.1255 73.3363 27.7 72.6849C27.2459 71.9901 26.8478 71.2629 26.5805 70.4733C26.361 70.025 26.2 69.5524 26.0623 69.073C25.7691 68.3471 25.5455 67.5995 25.3641 66.837C25.0628 65.9418 24.8978 65.0155 24.7219 64.0919C24.6878 63.9172 24.6632 63.7411 24.6196 63.4662C24.4028 63.9578 24.3632 64.3952 24.3387 64.8259C24.2692 66.0475 24.4819 67.2447 24.6796 68.4432C24.8596 69.5443 25.0614 70.6358 25.4964 71.6692C25.611 71.9427 25.7528 72.2055 25.8796 72.475C25.9096 72.5373 25.986 72.6104 25.9164 72.6741C25.8319 72.7513 25.7555 72.6646 25.6955 72.6145C25.251 72.2407 24.9005 71.787 24.6101 71.2886C24.1205 70.4503 23.7564 69.5578 23.4987 68.6247C23.1646 67.8406 23.0023 67.009 22.7964 66.1897C22.4855 64.9545 22.3383 63.6937 22.1569 62.4369C22.0764 61.8708 21.966 61.3101 21.8596 60.7494C21.7724 60.2849 21.9333 60.0642 22.3996 60.0885C22.8142 60.1116 23.226 60.1793 23.6378 60.228C24.2542 60.3079 24.8746 60.2727 25.4937 60.2714C25.701 60.2172 25.9096 60.1644 26.1169 60.1102C26.271 60.0344 26.4237 59.9599 26.5764 59.8827C27.2882 59.3681 27.7109 58.6665 27.9605 57.8363C28.2496 56.8734 28.8796 56.2477 29.8587 55.9308C31.4745 55.4094 33.1286 55.0004 34.7241 54.4384C37.5822 53.4295 39.4845 51.4413 40.2849 48.4903C40.3545 48.2357 40.3613 47.9662 40.4036 47.7048C40.4199 47.5992 40.3736 47.4692 40.5154 47.3839C40.7445 47.675 40.7104 48.0271 40.7499 48.3522C40.9613 50.0464 41.2163 51.7379 41.2736 53.4484C41.3186 54.949 41.2095 56.4374 40.8467 57.9027Z" fill="white"/>
<path fill-rule="evenodd" clip-rule="evenodd" d="M117.857 72.8175C117.845 72.9082 117.863 73.0098 117.782 73.1127C117.562 72.5276 117.471 71.9155 117.31 71.3304C116.811 69.5157 116.615 67.6494 116.503 65.7561C116.399 63.9779 116.137 62.2187 115.859 60.4635C115.187 56.2354 114.178 52.1156 112.77 48.1258C110.918 42.8793 108.456 38.0376 105.322 33.6483C101.263 27.963 96.2285 23.8432 90.1796 21.3296C86.8717 19.9563 83.4807 18.965 80.0029 18.3556C79.4361 18.2553 78.8682 18.1524 78.3002 18.0495C77.4246 17.9411 76.5477 17.8342 75.6708 17.7272C74.9769 17.6825 74.2819 17.6337 73.588 17.5944C72.7349 17.547 71.8829 17.5064 71.0287 17.4631C69.9712 17.4685 68.9125 17.4671 67.8551 17.482C67.1968 17.4915 66.5397 17.524 65.8815 17.5457C65.569 17.6743 65.2375 17.6215 64.9191 17.6432C63.9163 17.7123 62.917 17.8098 61.9213 17.933C60.8152 18.0698 59.7161 18.2757 58.6147 18.4544C58.2962 18.5059 57.979 18.5723 57.6309 18.5668C57.96 18.2662 58.2891 17.9669 58.617 17.6649C59.1386 17.1854 59.6709 16.7236 60.1747 16.2225C60.934 15.4655 61.4912 14.5215 61.9807 13.5302C62.2612 12.9641 62.6259 12.7217 63.2022 12.7515C64.0945 12.7989 64.9904 12.7718 65.8851 12.7772C66.8962 12.7542 67.9073 12.7339 68.9197 12.8056C69.484 12.8463 70.0496 12.8625 70.6164 12.8869C70.7566 12.8923 70.8956 12.8991 71.0287 12.9505C71.8259 12.96 72.6172 13.0873 73.4109 13.1618C74.0751 13.2241 74.7381 13.3162 75.4011 13.3975C75.4926 13.4097 75.5817 13.4381 75.672 13.4598C76.5738 13.5532 77.4685 13.7062 78.3573 13.9107C79.8116 14.1613 81.2457 14.5337 82.6703 14.9414C86.1647 15.9408 89.5558 17.2762 92.7864 19.1099C96.3711 21.1468 99.6398 23.6942 102.51 26.8958C104.101 28.6713 105.455 30.6689 106.822 32.6597C108.918 35.7164 110.74 38.9653 112.243 42.4472C114.356 47.3471 115.893 52.4704 116.858 57.8186C117.332 60.4419 117.67 63.0855 117.837 65.7534C117.926 67.1944 117.91 68.6408 117.925 70.0845C117.934 70.9973 117.979 71.9101 117.857 72.8175Z" fill="white"/>
<path fill-rule="evenodd" clip-rule="evenodd" d="M43.6994 46.005C43.6135 47.9145 43.3981 49.8106 42.8908 51.6619C42.7844 52.0506 42.6535 52.4325 42.4776 52.7982C42.4217 52.9146 42.3958 53.0636 42.2253 53.1245C42.1517 52.9918 42.1872 52.8537 42.1858 52.725C42.1599 51.0037 42.0781 49.2905 41.609 47.618C41.3867 46.827 41.0431 46.0876 40.694 45.3468C40.589 45.2114 40.4963 45.0678 40.4458 44.9026C40.3176 44.7455 40.2044 44.5775 40.1267 44.3893C39.9563 44.2268 39.854 44.0169 39.7422 43.8151C39.269 43.3411 39.0726 42.8088 39.2158 42.1208C39.3972 41.2433 39.4913 40.3494 39.6263 39.4637C39.6385 39.3811 39.6699 39.2998 39.6917 39.2186C39.8199 38.4114 39.9481 37.6042 40.0763 36.7971C40.184 36.1172 40.2917 35.4374 40.3994 34.7575C40.4963 34.125 40.5535 33.4872 40.7185 32.8574C40.8522 32.9048 40.8808 32.9929 40.9067 33.0849C42.1722 34.9607 42.8253 37.0693 43.2644 39.2538C43.7131 41.483 43.8003 43.7406 43.6994 46.005Z" fill="white"/>
<path fill-rule="evenodd" clip-rule="evenodd" d="M64.6363 7.54955C64.5313 9.30337 63.8577 10.8717 62.9999 12.3763C62.5868 13.1875 62.0699 13.931 61.4672 14.6136C60.5427 15.7661 59.4436 16.7209 58.1836 17.4969C57.7336 17.7502 57.3136 18.0522 56.8513 18.2878C56.0182 18.7104 55.1427 18.9433 54.2046 18.9406C54.0136 18.9392 53.8214 18.9406 53.5746 18.8363C55.08 17.6201 56.5677 16.4419 58.11 15.3287C58.9445 14.6759 59.6972 13.9473 60.2822 13.0561C60.6859 12.4372 60.975 11.7696 61.2327 11.0843C61.4672 10.2731 61.5545 9.43203 61.7399 8.61133C61.7672 8.48808 61.8327 8.3364 61.7399 8.24837C61.6336 8.14545 61.5095 8.28358 61.3922 8.31338C61.2818 8.34047 61.189 8.42849 61.0649 8.41089C60.4145 8.77113 59.7122 9.01355 59.0331 9.30879C58.5804 9.50652 58.1195 9.68664 57.6613 9.87354C57.0136 10.2121 56.3018 10.3056 55.5914 10.3882C54.4473 10.5209 53.3577 10.8581 52.2696 11.2062C52.0678 11.2698 51.9287 11.4134 51.7964 11.5718C50.3169 13.3351 48.9164 15.1594 47.4614 16.9416C45.7746 19.011 43.8969 20.8962 41.7915 22.5525C41.6838 22.6365 41.5828 22.7326 41.4206 22.7597C41.3919 22.6148 41.4806 22.5173 41.546 22.4171C43.7756 18.9555 46.0037 15.4952 48.2373 12.0364C48.416 11.7601 48.6314 11.5068 48.8182 11.236C48.9628 11.0247 49.0869 10.8039 49.1346 10.5466C49.2328 10.0198 49.5573 9.71508 50.0714 9.57559C51.5646 9.16794 53.0727 8.82124 54.5495 8.35401C55.5477 8.03981 56.5241 7.66467 57.51 7.31797C58.6432 6.80875 59.7763 6.29953 60.9095 5.79031C61.5381 5.44903 62.1899 5.15921 62.8622 4.91273C63.1049 4.80709 63.3422 4.68791 63.5917 4.59582C63.9613 4.46039 64.0717 4.51727 64.2149 4.90325C64.5286 5.75646 64.6895 6.63946 64.6363 7.54955Z" fill="white"/>
<path fill-rule="evenodd" clip-rule="evenodd" d="M15.6952 30.7745C15.582 31.751 15.2002 32.6556 14.9288 33.5888C14.802 34.0235 14.6493 34.4528 14.5088 34.8848C14.3316 35.5891 14.1788 36.3001 13.9334 36.9854C13.8379 37.2535 13.7138 37.5108 13.4861 37.7004C13.3416 37.9212 13.1248 38.0607 12.9039 38.1893C12.0339 38.6945 11.7734 39.266 11.978 40.2655C12.1007 40.8695 12.0448 41.4464 11.7407 41.9922C11.6439 42.1656 11.5307 42.3335 11.3111 42.3281C11.0752 42.3227 11.0111 42.1168 10.943 41.938C10.7643 41.4708 10.5366 40.9751 10.5693 40.5025C10.6048 40.0014 10.6893 39.4813 10.8066 38.9762C11.1025 37.7045 11.682 36.5425 12.1634 35.3426C12.3679 34.8307 12.6229 34.3377 12.7402 33.7933C12.7784 33.6186 12.8466 33.4222 12.6911 33.2813C12.537 33.1418 12.3475 33.2217 12.1757 33.2786C11.3248 33.5603 10.613 34.0993 9.83979 34.5286C9.58888 34.6681 9.34479 34.8225 9.10206 34.9769C8.61798 35.2843 8.5157 35.543 8.62889 36.1091C8.7557 36.7538 8.86888 37.4011 9.00252 38.0458C9.06252 38.3369 9.08979 38.7581 8.9057 38.8421C8.69298 38.9396 8.42571 38.6241 8.23753 38.4074C7.51071 37.565 6.96663 36.6265 6.71981 35.5335C6.60663 35.0352 6.74026 34.5869 7.02799 34.1792C7.24344 33.8718 7.51208 33.6104 7.82298 33.3992C9.53842 32.2399 11.3098 31.1754 13.2325 30.3764C13.2911 30.352 13.3525 30.333 13.4125 30.3127C13.7248 30.1732 14.0343 30.0283 14.3766 29.9714C14.4816 29.8807 14.6193 29.8983 14.7434 29.878C15.4143 29.7615 15.7743 30.1082 15.6952 30.7745Z" fill="white"/>
<path fill-rule="evenodd" clip-rule="evenodd" d="M117.939 51.2115V51.7844C117.769 51.7898 117.775 51.611 117.733 51.5C116.936 49.3277 116.149 47.15 115.349 44.979C114.046 41.4456 112.463 38.091 110.627 34.9017C110.577 34.8136 110.535 34.7202 110.49 34.6294C109.833 33.5785 109.2 32.5086 108.506 31.4902C107.689 30.2903 106.858 29.1039 105.945 28.0001C105.901 27.9487 105.874 27.8782 105.84 27.8173C105.204 27.0751 104.58 26.3194 103.929 25.5962C101.511 22.912 98.8662 20.5786 96.0019 18.5891C95.9406 18.5457 95.8852 18.4916 95.8262 18.4442C94.883 17.8618 93.9629 17.2294 93.0036 16.6809C89.3556 14.5939 85.5343 13.1218 81.5604 12.1765C78.9459 11.5548 76.3058 11.1716 73.6462 10.9874C72.1447 10.8845 70.6398 10.8276 69.136 10.8614C67.7339 10.8912 66.3295 10.9468 64.9297 11.0754C64.5876 11.1079 64.5795 11.0944 64.6766 10.7247C64.8038 10.2385 64.9482 9.75768 65.0592 9.26607C65.1355 8.92478 65.31 8.80019 65.5909 8.81373C66.6416 8.86384 67.6923 8.8977 68.7407 8.96135C69.6445 9.01688 70.5473 9.1022 71.4512 9.18075C72.8521 9.30128 74.2438 9.51526 75.6377 9.71434C77.3265 9.95812 79.0129 10.2236 80.6877 10.5879C84.1877 11.349 87.5929 12.4893 90.8941 14.0468C92.1968 14.6616 93.4856 15.3252 94.7096 16.1351C95.1281 16.4127 95.5812 16.6172 95.9719 16.9517C96.7012 17.381 97.3843 17.9025 98.0675 18.4225C100.929 20.6043 103.516 23.1734 105.861 26.0811C105.904 26.1339 105.937 26.1989 105.974 26.2585C106.723 27.1185 107.387 28.0692 108.052 29.0186C108.966 30.3295 109.834 31.6852 110.653 33.0815C110.678 33.1248 110.697 33.1722 110.72 33.2183C111.417 34.3328 112.04 35.5043 112.642 36.6893C114.474 40.2972 116.023 44.0635 117.191 48.037C117.464 48.9607 117.632 49.9182 117.832 50.8662C117.857 50.9826 117.851 51.1181 117.939 51.2115Z" fill="white"/>
<path fill-rule="evenodd" clip-rule="evenodd" d="M38.5933 48.9712C38.4187 49.2596 38.266 49.5657 38.0274 49.8135C37.6537 50.3945 37.1915 50.897 36.6624 51.3398C36.0937 51.8761 35.4569 52.3082 34.7369 52.6156C34.0497 52.9961 33.2915 53.1776 32.5401 53.3794C31.0565 53.7762 29.6438 54.3396 28.3102 55.0967C27.642 55.4759 27.2124 56.0271 27.0256 56.7679C26.9534 57.0563 26.8524 57.3353 26.7202 57.6035C26.3643 58.3253 25.782 58.7289 24.987 58.8711C23.7488 59.0919 22.5584 58.8264 21.3639 58.5677C20.7611 58.4364 20.2566 58.1655 19.8025 57.7457C19.1452 57.1376 19.0048 56.4212 19.2189 55.5978C19.4057 54.8759 19.8461 54.3288 20.4516 53.9062C20.6834 53.7451 20.8893 53.8087 21.0911 53.978C21.6407 54.4385 22.2775 54.6958 22.9975 54.7066C23.9697 54.7215 24.7879 54.3532 25.4561 53.6597C25.827 53.2751 26.1747 52.8715 26.4884 52.4422C26.9943 51.7488 27.6856 51.3046 28.4561 50.9552C29.3697 50.5421 30.2724 50.1034 31.186 49.6916C32.5183 49.089 33.6938 48.2859 34.6033 47.1293C34.6401 47.0657 34.6728 46.9979 34.7151 46.9397C35.0137 46.5253 35.0028 46.1176 34.696 45.7127C34.6387 45.6369 34.5883 45.5556 34.5351 45.4771C33.9051 44.7688 33.2328 44.1065 32.4679 43.5377C30.7524 42.2633 28.8542 41.3248 26.8647 40.5582C26.4161 40.3862 25.977 40.1953 25.5965 39.8933C24.9311 39.3637 24.7047 38.5931 25.0375 37.8131C25.2461 37.3269 25.5025 36.8596 25.7534 36.3924C25.9088 36.1026 26.1406 35.9617 26.5088 35.9712C27.8915 36.0051 29.1529 36.4439 30.3488 37.0777C31.5542 37.7169 32.7133 38.4306 33.7524 39.3258C34.081 39.6075 34.4356 39.8608 34.7397 40.1709C35.4596 40.802 36.1087 41.4941 36.6692 42.2687C37.1683 42.8605 37.5978 43.4984 37.9537 44.1851C38.4446 44.9814 38.9001 45.8007 39.076 46.7257C39.2287 47.5248 39.0133 48.2764 38.5933 48.9712Z" fill="white"/>
<path fill-rule="evenodd" clip-rule="evenodd" d="M53.0405 1.24626C52.4078 1.43857 51.7601 1.57536 51.1464 1.82997C50.1796 2.10083 49.2455 2.45701 48.3401 2.88497C47.3965 3.33189 47.1483 4.55888 47.8274 5.33625C48.1192 5.67077 48.1219 5.74119 47.8587 6.10279C47.1715 7.04674 46.4828 7.99068 45.7956 8.93328C45.2147 9.72013 44.631 10.5043 44.0529 11.2925C42.1165 13.9293 40.1802 16.5661 38.2465 19.2043C38.0829 19.4278 37.8947 19.6133 37.6056 19.6309C37.4011 19.6431 37.2402 19.7298 37.0779 19.8354C32.4784 22.8189 27.8803 25.8011 23.2794 28.7819C23.0135 28.9539 22.8076 29.1747 22.6603 29.455C20.9149 32.7487 19.1667 36.041 17.4226 39.336C17.3776 39.4213 17.2849 39.508 17.3585 39.634C17.3967 39.6123 17.4363 39.596 17.4676 39.5717C18.7372 38.5275 20.0503 37.5416 21.3499 36.538C22.2621 35.8338 23.248 35.2812 24.3607 34.9521C25.7694 34.535 27.1903 34.596 28.6153 34.8384C29.7484 35.0307 30.8612 35.2975 31.8443 35.9164C32.6925 36.45 33.5393 36.9917 34.3398 37.5917C35.7988 38.6859 36.9252 40.0863 37.8838 41.6234C37.952 41.7318 37.9902 41.8699 38.1293 41.9457C38.1552 41.8564 38.1852 41.7873 38.1961 41.7142C38.4797 39.8263 38.762 37.9357 39.0429 36.0478C39.1943 35.0374 39.3593 34.0285 39.4861 33.0141C39.5461 32.5293 39.6524 32.0512 39.7002 31.5677C39.7629 30.9393 39.8993 30.3231 39.9647 29.6947C40.0274 29.0799 40.1979 28.4759 40.2729 27.861C40.3493 27.2231 40.457 26.5893 40.5415 25.9541C40.652 25.1307 40.5674 24.371 40.1174 23.6789C39.9047 23.3512 39.9006 23.06 40.0902 22.7472C40.3329 22.3449 40.5906 21.9535 40.8306 21.5513C41.7129 20.0738 42.5924 18.5935 43.4706 17.1119C44.3297 15.6628 45.1833 14.2096 46.0397 12.7592C46.0956 12.6833 46.1556 12.6102 46.206 12.529C47.2328 10.8171 48.2515 9.0985 49.2865 7.39073C49.9069 6.36552 50.5001 5.32 51.3155 4.42481C51.5705 4.21625 51.8037 3.97247 52.0846 3.80589C52.491 3.56347 52.7023 3.20594 52.8619 2.79152C53.0351 2.34189 53.121 1.8733 53.2001 1.40201C53.2219 1.25439 53.2042 1.19615 53.0405 1.24626ZM36.7275 30.0184C36.7029 30.0956 36.6866 30.1836 36.5543 30.2202C36.5707 30.0536 36.5856 29.9033 36.5979 29.7503C36.6961 28.4555 36.5761 27.1635 36.542 25.8702C36.5352 25.6359 36.4016 25.5479 36.1807 25.5858C35.9175 25.6318 35.6666 25.7104 35.4279 25.8417C32.6066 27.4032 29.8357 29.0433 27.1998 30.9028C27.0798 30.9867 26.9625 31.091 26.8085 31.11C26.5889 31.1398 26.1826 30.9204 26.1144 30.7281C26.0176 30.4545 26.1853 30.2703 26.3803 30.1376C28.9739 28.3946 31.5825 26.6719 34.4898 25.4666C34.9711 25.2662 35.477 25.1226 35.9775 24.975C36.7138 24.7569 37.0793 24.9953 37.1829 25.7456C37.3806 27.2082 37.1652 28.6248 36.7275 30.0184Z" fill="white"/>
<path fill-rule="evenodd" clip-rule="evenodd" d="M27.2144 41.8974C27.1572 42.0315 27.0072 42.0057 26.8776 41.9814C26.4099 41.8974 25.9326 41.8608 25.4731 41.7281C24.6194 41.6455 23.7972 41.4126 22.9613 41.2365C21.9986 41.0361 21.2799 41.3462 20.7904 42.1845C20.4208 42.817 20.0704 43.4616 19.7049 44.0968C19.6613 44.174 19.6286 44.3067 19.5263 44.2959C19.4131 44.285 19.3818 44.1483 19.3449 44.0535C19.1581 43.5835 19.1322 43.0797 19.0818 42.5867C19.0272 42.0532 18.8527 41.6238 18.3877 41.2947C17.6759 40.7896 17.6854 40.237 18.3645 39.6899C18.9659 39.2064 19.6545 38.8584 20.3118 38.4615C21.5363 37.7234 22.7704 37.003 24.0031 36.2811C24.3331 36.0874 24.6672 35.8992 25.0967 35.9033C24.9985 36.2947 24.7913 36.6156 24.6385 36.9583C24.5131 37.24 24.3713 37.5135 24.2499 37.7966C23.939 38.5225 24.0849 39.1685 24.6372 39.7197C24.9304 40.0122 25.2494 40.279 25.5576 40.5566C26.0513 40.902 26.5476 41.246 27.0412 41.5927C27.149 41.6685 27.2703 41.7633 27.2144 41.8974Z" fill="white"/>
<path fill-rule="evenodd" clip-rule="evenodd" d="M41.8852 12.8852C41.5906 13.2577 41.2906 13.6274 40.9933 13.9985C40.9347 14.0716 40.8883 14.161 40.7793 14.1718C40.7847 14.2788 40.7097 14.3479 40.6511 14.4196C39.7565 15.5166 38.8593 16.6096 37.9647 17.7065C37.7602 17.9571 37.5093 18.1548 37.257 18.3498C37.0797 18.4866 36.8711 18.5611 36.6584 18.446C36.4634 18.3404 36.3925 18.144 36.4075 17.93C36.4634 17.1553 36.0557 16.6746 35.4025 16.3455C34.2175 15.7482 32.9384 15.4652 31.6416 15.2417C31.4534 15.2079 31.2652 15.1713 31.0757 15.1334C31.0471 15.1279 31.0225 15.1063 30.9707 15.0792C34.1575 13.8942 37.3797 12.9435 40.7697 12.6536C41.1883 12.6089 41.607 12.5466 42.0324 12.5778C42.0529 12.7227 41.9533 12.7985 41.8852 12.8852Z" fill="white"/>
<path fill-rule="evenodd" clip-rule="evenodd" d="M18.9569 50.833C18.8219 50.8316 18.6759 50.8601 18.5559 50.7612C18.3705 50.7368 18.2 50.6664 18.0432 50.5662C17.221 50.2479 16.5378 49.7265 15.9419 49.0954C15.1646 48.2706 14.4337 47.4093 14.1514 46.2731C14.0314 45.7869 14.0819 45.3467 14.4978 45.0041C14.6342 44.8917 14.7078 44.8741 14.7869 45.0799C14.8919 45.3562 14.8769 45.6419 14.9219 45.9236C15.0869 46.9299 15.6487 47.6978 16.411 48.3397C16.7123 48.5943 17.0314 48.8259 17.3478 49.0616C17.4473 49.1347 17.5673 49.2227 17.6982 49.1388C17.8114 49.0656 17.7991 48.9329 17.7896 48.8178C17.6955 47.7303 17.57 46.6428 17.506 45.5539C17.4432 44.4962 17.1446 43.4913 16.9291 42.4648C16.8255 41.9731 16.8869 41.4707 17.0014 40.9804C17.0355 40.8342 17.1037 40.6581 17.255 40.6554C17.3955 40.6541 17.5182 40.7935 17.5632 40.9466C17.8005 41.747 18.1169 42.5298 18.2082 43.3694C18.3323 43.9965 18.3241 44.633 18.3023 45.2641C18.2628 46.3692 18.3255 47.4594 18.6432 48.5253C18.8587 49.1658 19.1341 49.7888 19.2787 50.4511C19.3632 50.8316 19.3496 50.8398 18.9569 50.833Z" fill="white"/>
<path fill-rule="evenodd" clip-rule="evenodd" d="M33.8849 46.5832C33.7894 46.7471 33.679 46.8974 33.529 47.018C32.8499 47.7886 31.9813 48.3167 31.1167 48.8408C29.6318 49.7415 28.0322 50.3875 26.3631 50.8655C26.1681 50.921 25.9704 50.9712 25.7645 50.9603C25.5995 50.9522 25.4291 50.9251 25.3663 50.7518C25.3063 50.5825 25.3991 50.443 25.5286 50.3333C25.7741 50.1274 26.0345 49.9419 26.3263 49.8051C28.2299 48.914 29.7013 47.5177 30.9763 45.8912C31.1345 45.6907 31.2817 45.4781 31.4617 45.2993C32.0781 44.6845 33.1022 44.8023 33.5235 45.5255C34.0253 45.7612 34.1508 46.1255 33.8849 46.5832Z" fill="white"/>
<path fill-rule="evenodd" clip-rule="evenodd" d="M25.4269 52.7679C25.2892 52.7964 25.2346 52.7016 25.1678 52.6271C23.661 51.7305 22.6246 50.425 21.8869 48.7659C21.6701 49.3348 21.6251 49.8128 21.6115 50.299C21.5828 51.2809 21.7778 52.2438 21.8528 53.2148C21.8583 53.2785 21.8651 53.3408 21.8705 53.4044C21.876 53.4708 21.8787 53.5372 21.801 53.5629C21.7233 53.59 21.6865 53.529 21.6496 53.4762C21.4424 53.1823 21.3592 52.8438 21.2855 52.4998C20.916 50.7676 20.841 49.0341 21.1806 47.2884C21.2624 46.8713 21.4642 46.5137 21.6619 46.1521C21.7383 46.0127 21.8842 45.8826 22.0096 45.9124C22.161 45.949 22.2074 46.144 22.2046 46.3065C22.1883 46.9146 22.2496 47.5173 22.4242 48.0996C22.7992 49.3456 23.4933 50.3776 24.5392 51.1739C24.7969 51.3703 25.0832 51.5558 25.176 51.9012C25.4228 52.1449 25.4051 52.4578 25.4269 52.7679Z" fill="white"/>
<path fill-rule="evenodd" clip-rule="evenodd" d="M17.3016 39.7033L17.2979 39.6846L17.3117 39.6871L17.3016 39.7033Z" fill="white"/>
</svg>
