<svg width="84" height="54" viewBox="0 0 84 54" fill="none" xmlns="http://www.w3.org/2000/svg">
<path fill-rule="evenodd" clip-rule="evenodd" d="M24.4032 12.1479C23.996 11.8604 23.5301 11.6988 23.0555 11.5768C21.2959 11.1229 19.5054 10.8131 17.7275 10.4405C17.0989 10.3089 17.1066 10.3224 17.121 9.67783C17.1345 9.10291 17.1701 8.51831 16.9843 7.96274C16.3933 6.18862 15.6348 4.48999 14.6856 2.87847C14.3593 2.32485 13.9049 1.95705 13.2687 1.84575C13.0386 1.80606 12.8037 1.79929 12.5717 1.77703C11.8546 1.71024 11.124 1.76057 10.428 1.52247C9.78689 1.20598 9.12942 0.932068 8.43345 0.763657C8.35452 0.723974 8.27462 0.683323 8.19569 0.64364C7.8607 0.4791 7.53437 0.301978 7.29757 0H7.07039C6.81434 0.201319 6.55828 0.40167 6.30223 0.602989C5.96339 0.733653 5.716 0.938843 5.69578 1.33761C5.69289 1.38794 5.66979 1.4402 5.64573 1.48763C5.3348 2.08965 5.11436 2.74297 4.63883 3.25207C4.57915 3.31692 4.53583 3.40306 4.50695 3.48727C4.46749 3.59954 4.46749 3.72634 4.58108 3.79312C4.78419 3.91314 4.82173 4.11446 4.85157 4.31481C4.89489 4.60807 4.9382 4.87811 5.19907 5.08717C5.38678 5.23623 5.34154 5.424 5.14228 5.57789C5.02965 5.66597 4.91029 5.7463 4.80055 5.83922C4.48578 6.10635 4.11806 6.30573 3.82831 6.60481C3.76959 6.59803 3.72916 6.63094 3.68777 6.66482C3.12368 7.13617 2.60291 7.65399 2.18032 8.25601C1.73559 8.88804 1.21771 9.43779 0.561203 9.8472C0.386008 9.95657 0.229102 10.1163 0 10.1172V10.2547C0.0943361 10.2227 0.188672 10.1976 0.288784 10.2082C0.365793 10.216 0.473606 10.1666 0.506334 10.274C0.539063 10.3844 0.413924 10.3863 0.36098 10.4395C0.293597 10.5063 0.108775 10.4918 0.164607 10.6331C0.219476 10.7735 0.378307 10.6951 0.491895 10.698C0.532325 10.6989 0.576605 10.668 0.614147 10.6438C0.822071 10.5063 1.02422 10.3631 1.21289 10.1985C1.57195 9.88592 1.93293 9.56942 2.41135 9.45037C2.69532 9.37875 2.80024 9.47457 2.74056 9.75816C2.69435 9.98368 2.75307 10.1792 2.87051 10.3621C2.92346 10.4444 2.99276 10.5509 3.09095 10.5363C3.18529 10.5228 3.18432 10.3921 3.20261 10.3099C3.33064 9.74267 3.46348 9.17453 3.56552 8.60154C3.61654 8.31699 3.73205 8.10599 3.98522 7.97242C4.4415 7.76336 4.90451 7.56882 5.35213 7.34233C5.71407 7.16037 6.08371 6.98712 6.39656 6.71999C6.7046 6.54867 6.71326 6.54964 6.97991 6.80129C7.10601 6.92034 7.23404 7.03842 7.35918 7.1594C7.43041 7.22909 7.49394 7.27749 7.52186 7.1294C7.55555 6.94066 7.63641 7.01616 7.71149 7.09649C7.88188 7.28136 7.88573 7.49332 7.71245 7.76433C7.34185 8.34118 7.02322 8.94998 6.88365 9.62072C6.78257 10.1076 6.38982 10.5489 6.65166 11.1093C6.72096 11.2555 6.80567 11.3058 6.92311 11.3329C7.07328 11.3677 7.05788 11.2197 7.08291 11.1393C7.12045 11.0251 7.13681 10.9041 7.15992 10.7851C7.20131 10.578 7.23115 10.366 7.33896 10.1782C7.544 9.81817 7.6778 9.81236 7.88187 10.156C7.88958 10.1685 7.89439 10.184 7.90305 10.1956C7.9483 10.2498 7.956 10.365 8.05033 10.3389C8.13697 10.3147 8.11675 10.214 8.11579 10.1405C8.11194 9.76881 8.08595 9.39908 8.02915 9.03128C7.98391 8.73801 7.99835 8.46798 8.29772 8.30053C8.36222 8.26375 8.41227 8.20278 8.43249 8.12438C8.58362 8.06921 8.80983 8.2202 8.86182 8.00339C9.08899 8.21052 9.32676 8.42926 9.56837 8.64607C9.60399 8.67801 9.66271 8.76124 9.68196 8.72543C9.83983 8.44765 9.88989 8.77189 10.0073 8.77092C10.0506 8.47185 10.2326 8.6993 10.3664 8.69543C10.4126 8.4341 10.3028 8.17955 10.35 7.88435C10.5551 8.21536 10.7399 8.51153 10.9257 8.81351C10.9796 8.76415 10.9796 8.73318 10.9651 8.70607C10.6118 8.04211 10.4164 7.31426 10.1334 6.62223C10.015 6.3338 10.0112 6.08022 10.2316 5.84406C10.3134 5.75598 10.3943 5.665 10.4752 5.57595C10.5897 5.53627 10.6802 5.60112 10.7707 5.65242C11.4022 6.0115 12.0163 6.39768 12.5939 6.8371C13.2109 7.30846 13.4285 7.94823 13.2456 8.69349C13.0299 9.5762 12.7527 10.4425 12.7132 11.36C12.6795 12.143 12.8008 12.8815 13.3139 13.4951C13.6277 13.8716 13.7326 14.2772 13.6999 14.7573C13.6633 15.2954 13.5372 15.82 13.5016 16.3572C13.4458 17.1886 13.441 18.0239 13.3264 18.8514C13.1993 19.7786 12.9346 20.6526 12.3888 21.4298C12.0394 21.9273 11.7728 22.4713 11.5542 23.0394C11.1143 24.1883 10.8602 25.3913 10.5127 26.5673C10.4116 26.907 10.35 27.2623 10.144 27.5613C9.96882 27.7239 9.76475 27.8265 9.53276 27.8914C9.23916 27.9737 9.12076 28.1237 9.11209 28.4102C9.09477 29.0364 8.97252 29.6432 8.80502 30.2433C8.71261 30.5734 8.63753 30.9044 8.7001 31.2509C8.78481 31.7106 8.9061 32.153 9.25841 32.4917C9.38933 32.6175 9.51254 32.633 9.60977 32.4646C9.85812 32.0329 10.1305 31.6109 10.2807 31.1289C10.5175 30.5879 10.7033 30.0256 10.9776 29.501C12.5255 26.5499 14.0715 23.5979 15.6136 20.6439C15.7503 20.3797 15.937 20.1793 16.1767 20.007C18.126 18.6104 20.185 17.3821 22.193 16.0755C23.0344 15.5277 23.919 15.0428 24.665 14.3546C24.8653 14.1698 25.0289 13.9665 25.0655 13.6887C25.1502 13.0431 24.9336 12.5234 24.4032 12.1479ZM20.0012 14.9992C19.2648 15.5906 18.5284 16.1829 17.7689 16.7433C17.43 16.9931 17.0354 17.0908 16.6426 17.1924C16.4838 17.2341 16.4299 17.1257 16.4616 16.9931C16.6417 16.2575 16.8149 15.5209 17.02 14.7921C17.1278 14.4108 17.4502 14.2433 17.8209 14.2327C18.7787 14.2075 19.7365 14.2298 20.6923 14.284C20.7116 14.2859 20.7308 14.3024 20.7809 14.3266C20.5133 14.5588 20.264 14.7873 20.0012 14.9992Z" fill="white"/>
<path fill-rule="evenodd" clip-rule="evenodd" d="M28.8347 41.381C28.7703 41.6413 28.6538 41.8785 28.5469 42.1214C28.5277 42.1659 28.518 42.2346 28.4468 42.2259C28.3611 42.2163 28.3727 42.1427 28.366 42.0856C28.3236 41.6713 28.2851 41.2561 28.2389 40.8419C28.1917 40.4199 28.0858 40.0182 27.7614 39.7162C27.3831 39.3659 26.9249 39.3591 26.46 39.4539C25.6312 39.6233 24.992 40.1179 24.4452 40.7325C23.0485 42.3024 22.2668 44.1781 21.8683 46.2184C21.7066 47.046 21.8924 47.8793 22.0551 48.6981C22.3891 50.3919 23.1322 51.8921 24.1844 53.2472C24.2643 53.3498 24.3567 53.4524 24.3904 53.5917C24.3018 53.6227 24.2671 53.5588 24.2306 53.522C22.9926 52.3045 21.824 51.0239 20.8393 49.5867C20.0432 48.4242 19.6293 47.1224 19.4878 45.7229C19.4358 45.2099 19.3443 44.7027 19.2693 44.1927C19.2596 44.1288 19.2673 44.032 19.172 44.0475C19.0979 44.0601 19.1383 44.1501 19.1316 44.2043C19.0584 44.7705 19.0421 45.3464 19.095 45.9087C19.1874 46.9105 19.2731 47.9142 19.4252 48.9101C19.5157 49.5092 19.5677 50.1151 19.7342 50.7007C19.9354 51.414 20.2973 52.0567 20.6044 52.7235C20.665 52.8532 20.7151 52.9887 20.7603 53.1242C20.7748 53.1678 20.8143 53.2317 20.7498 53.2675C20.6901 53.3014 20.6554 53.2423 20.6169 53.2104C20.1876 52.8523 19.8545 52.4109 19.5542 51.9454C19.2336 51.4488 18.9526 50.9291 18.7639 50.3648C18.6089 50.0445 18.4953 49.7067 18.3981 49.364C18.1911 48.8453 18.0333 48.311 17.9052 47.7661C17.6925 47.1263 17.576 46.4643 17.4518 45.8042C17.4278 45.6793 17.4105 45.5535 17.3796 45.357C17.2266 45.7084 17.1987 46.021 17.1813 46.3288C17.1323 47.2018 17.2824 48.0574 17.422 48.914C17.5491 49.7009 17.6915 50.481 17.9986 51.2195C18.0795 51.415 18.1796 51.6027 18.2691 51.7953C18.2903 51.8399 18.3442 51.8921 18.2951 51.9376C18.2354 51.9928 18.1815 51.9308 18.1391 51.895C17.8253 51.6279 17.5779 51.3037 17.3729 50.9475C17.0273 50.3484 16.7703 49.7105 16.5884 49.0437C16.3525 48.4833 16.238 47.889 16.0926 47.3034C15.8732 46.4207 15.7692 45.5196 15.6412 44.6214C15.5844 44.2169 15.5064 43.8162 15.4313 43.4155C15.3697 43.0835 15.4833 42.9257 15.8125 42.9431C16.1051 42.9596 16.3959 43.008 16.6866 43.0428C17.1217 43.0999 17.5597 43.0748 17.9967 43.0738C18.143 43.0351 18.2903 42.9973 18.4366 42.9586C18.5454 42.9044 18.6532 42.8512 18.761 42.796C19.2635 42.4282 19.5619 41.9269 19.7381 41.3336C19.9421 40.6454 20.3869 40.1982 21.078 39.9717C22.2187 39.5991 23.3864 39.3068 24.5126 38.9051C26.5302 38.1841 27.8731 36.7632 28.4381 34.6542C28.4872 34.4723 28.4921 34.2797 28.5219 34.0929C28.5334 34.0174 28.5007 33.9244 28.6008 33.8635C28.7626 34.0716 28.7385 34.3232 28.7664 34.5555C28.9156 35.7663 29.0956 36.9752 29.136 38.1976C29.1678 39.27 29.0908 40.3337 28.8347 41.381Z" fill="white"/>
<path fill-rule="evenodd" clip-rule="evenodd" d="M83.1978 52.0412C83.1894 52.106 83.202 52.1786 83.145 52.2522C82.9898 51.8341 82.9252 51.3966 82.812 50.9785C82.4597 49.6815 82.3213 48.3478 82.2425 46.9947C82.1686 45.7238 81.9841 44.4666 81.7879 43.2122C81.3131 40.1905 80.601 37.2462 79.6071 34.3948C78.2995 30.6452 76.5616 27.1851 74.3489 24.0482C71.4837 19.985 67.9299 17.0407 63.6598 15.2444C61.3247 14.2629 58.9309 13.5544 56.4759 13.1189C56.0758 13.0473 55.6749 12.9737 55.274 12.9001C54.6558 12.8227 54.0368 12.7463 53.4178 12.6698C52.928 12.6379 52.4373 12.603 51.9475 12.5749C51.3452 12.5411 50.7439 12.512 50.1408 12.4811C49.3943 12.4849 48.647 12.484 47.9005 12.4946C47.4358 12.5014 46.972 12.5246 46.5073 12.5401C46.2867 12.632 46.0527 12.5943 45.8279 12.6098C45.12 12.6591 44.4146 12.7288 43.7117 12.8169C42.9308 12.9147 42.155 13.0618 41.3775 13.1895C41.1527 13.2263 40.9287 13.2737 40.683 13.2699C40.9153 13.055 41.1477 12.8411 41.3791 12.6253C41.7474 12.2826 42.1231 11.9526 42.4788 11.5945C43.0147 11.0534 43.4081 10.3788 43.7537 9.67033C43.9516 9.26576 44.2091 9.09251 44.6159 9.1138C45.2458 9.14768 45.8782 9.12832 46.5098 9.13219C47.2236 9.11574 47.9374 9.10122 48.652 9.15252C49.0504 9.18155 49.4496 9.19317 49.8497 9.21059C49.9487 9.21446 50.0468 9.2193 50.1408 9.25608C50.7036 9.26286 51.2622 9.35384 51.8225 9.40707C52.2914 9.45159 52.7594 9.51741 53.2274 9.57548C53.292 9.58419 53.3549 9.60452 53.4186 9.62C54.0553 9.68679 54.6868 9.79616 55.3142 9.94231C56.3409 10.1214 57.3532 10.3875 58.3589 10.6789C60.8257 11.3932 63.2195 12.3475 65.5001 13.658C68.0306 15.1137 70.338 16.9343 72.3644 19.2223C73.4875 20.4912 74.4429 21.9188 75.4083 23.3416C76.8878 25.5261 78.1737 27.8481 79.2347 30.3365C80.7268 33.8383 81.8113 37.4998 82.4924 41.3219C82.8271 43.1967 83.0661 45.086 83.1835 46.9927C83.2464 48.0226 83.2355 49.0562 83.2456 50.088C83.2523 50.7404 83.2842 51.3927 83.1978 52.0412Z" fill="white"/>
<path fill-rule="evenodd" clip-rule="evenodd" d="M30.8481 32.878C30.7875 34.2428 30.6354 35.5978 30.2773 36.9209C30.2022 37.1987 30.1098 37.4716 29.9856 37.7329C29.9461 37.8162 29.9279 37.9226 29.8075 37.9662C29.7555 37.8713 29.7806 37.7726 29.7796 37.6807C29.7613 36.4505 29.7036 35.2261 29.3724 34.0308C29.2155 33.4655 28.9729 32.9371 28.7265 32.4077C28.6524 32.3109 28.5869 32.2083 28.5513 32.0902C28.4608 31.9779 28.3809 31.8579 28.3261 31.7234C28.2057 31.6072 28.1335 31.4572 28.0546 31.313C27.7206 30.9742 27.582 30.5939 27.683 30.1022C27.8111 29.475 27.8775 28.8362 27.9728 28.2032C27.9814 28.1441 28.0036 28.0861 28.019 28.028C28.1095 27.4511 28.2 26.8743 28.2904 26.2974C28.3665 25.8116 28.4425 25.3257 28.5186 24.8398C28.5869 24.3878 28.6274 23.9319 28.7438 23.4819C28.8382 23.5157 28.8584 23.5787 28.8767 23.6445C29.77 24.985 30.2311 26.492 30.541 28.0532C30.8577 29.6463 30.9193 31.2598 30.8481 32.878Z" fill="white"/>
<path fill-rule="evenodd" clip-rule="evenodd" d="M45.629 5.39593C45.5548 6.64934 45.0793 7.77014 44.4738 8.84545C44.1822 9.42521 43.8173 9.95658 43.3919 10.4444C42.7392 11.2681 41.9633 11.9504 41.0739 12.505C40.7562 12.686 40.4597 12.9018 40.1334 13.0702C39.5452 13.3722 38.9273 13.5387 38.265 13.5368C38.1302 13.5358 37.9945 13.5368 37.8202 13.4622C38.883 12.5931 39.9332 11.751 41.0219 10.9554C41.611 10.4889 42.1424 9.96819 42.5553 9.33133C42.8403 8.88901 43.0443 8.41184 43.2263 7.9221C43.3919 7.34234 43.4535 6.74128 43.5844 6.15475C43.6036 6.06667 43.6498 5.95827 43.5844 5.89536C43.5093 5.8218 43.4217 5.92052 43.3389 5.94182C43.2609 5.96117 43.1955 6.02408 43.1079 6.0115C42.6487 6.26896 42.153 6.44221 41.6736 6.65321C41.354 6.79452 41.0286 6.92325 40.7052 7.05681C40.248 7.29878 39.7455 7.36557 39.244 7.42461C38.4363 7.51946 37.6672 7.76046 36.899 8.00921C36.7566 8.0547 36.6584 8.15729 36.565 8.27053C35.5206 9.53071 34.532 10.8344 33.5049 12.1082C32.3141 13.5871 30.9886 14.9344 29.5023 16.1181C29.4263 16.1781 29.355 16.2468 29.2405 16.2662C29.2203 16.1626 29.2828 16.0929 29.329 16.0213C30.9029 13.5474 32.4758 11.0745 34.0526 8.60252C34.1787 8.40507 34.3308 8.22408 34.4627 8.0305C34.5647 7.87951 34.6523 7.72175 34.686 7.53785C34.7553 7.16134 34.9844 6.94357 35.3473 6.84388C36.4014 6.55255 37.466 6.30477 38.5085 5.97085C39.2131 5.7463 39.9024 5.4782 40.5983 5.23042C41.3983 4.8665 42.1982 4.50258 42.9981 4.13866C43.4419 3.89475 43.902 3.68762 44.3766 3.51147C44.5479 3.43598 44.7154 3.3508 44.8916 3.28499C45.1525 3.1882 45.2304 3.22885 45.3315 3.50469C45.5529 4.11446 45.6665 4.74552 45.629 5.39593Z" fill="white"/>
<path fill-rule="evenodd" clip-rule="evenodd" d="M11.0803 21.9943C11.0004 22.6921 10.7309 23.3387 10.5393 24.0055C10.4498 24.3162 10.342 24.6231 10.2428 24.9318C10.1177 25.4351 10.0099 25.9432 9.83661 26.433C9.76923 26.6246 9.68163 26.8085 9.52088 26.944C9.41884 27.1018 9.26578 27.2015 9.10984 27.2934C8.49569 27.6545 8.31183 28.0629 8.45623 28.7772C8.54286 29.2089 8.50339 29.6212 8.28873 30.0112C8.22039 30.1351 8.14049 30.2551 7.98551 30.2513C7.81898 30.2474 7.77373 30.1003 7.7256 29.9725C7.5995 29.6386 7.43874 29.2844 7.46185 28.9466C7.48687 28.5885 7.54656 28.2168 7.62934 27.8558C7.83823 26.9469 8.24734 26.1165 8.58714 25.2589C8.73153 24.8931 8.91154 24.5408 8.99433 24.1517C9.02128 24.0268 9.06941 23.8865 8.95967 23.7858C8.8509 23.6861 8.71709 23.7432 8.5958 23.7839C7.99513 23.9852 7.49265 24.3704 6.94685 24.6773C6.76973 24.7769 6.59742 24.8873 6.42607 24.9976C6.08435 25.2173 6.01215 25.4022 6.09205 25.8068C6.18157 26.2675 6.26147 26.7301 6.3558 27.1908C6.39816 27.3989 6.41741 27.6999 6.28746 27.7599C6.13729 27.8296 5.94862 27.6041 5.81578 27.4493C5.3027 26.8472 4.91862 26.1765 4.74439 25.3954C4.66449 25.0392 4.75883 24.7189 4.96194 24.4275C5.11403 24.2078 5.30367 24.021 5.52314 23.87C6.73411 23.0415 7.98454 22.2808 9.34183 21.7097C9.38322 21.6923 9.42654 21.6788 9.46889 21.6642C9.68933 21.5646 9.90785 21.461 10.1495 21.4203C10.2236 21.3555 10.3208 21.3681 10.4084 21.3536C10.882 21.2703 11.1361 21.5181 11.0803 21.9943Z" fill="white"/>
<path fill-rule="evenodd" clip-rule="evenodd" d="M83.2568 36.5997V37.0091C83.1369 37.013 83.1409 36.8853 83.1116 36.8059C82.5486 35.2534 81.9929 33.6971 81.4283 32.1455C80.5087 29.6203 79.3908 27.2229 78.0951 24.9436C78.06 24.8806 78.0298 24.8139 77.998 24.749C77.5345 23.9979 77.0874 23.2333 76.5978 22.5055C76.0209 21.6479 75.4342 20.8001 74.7896 20.0112C74.7586 19.9745 74.7399 19.9241 74.7154 19.8806C74.2666 19.3502 73.826 18.8101 73.3666 18.2933C71.6596 16.3749 69.7927 14.7073 67.7708 13.2854C67.7275 13.2545 67.6884 13.2158 67.6468 13.1819C66.9809 12.7657 66.3314 12.3137 65.6542 11.9217C63.079 10.4302 60.3815 9.37811 57.5762 8.70253C55.7305 8.25828 53.8669 7.98437 51.9894 7.85274C50.9295 7.77918 49.8671 7.73853 48.8055 7.76272C47.8158 7.78402 46.8244 7.8237 45.8363 7.91565C45.5947 7.93888 45.589 7.9292 45.6576 7.66497C45.7473 7.3175 45.8493 6.9739 45.9276 6.62256C45.9815 6.37866 46.1047 6.28961 46.303 6.29929C47.0447 6.3351 47.7864 6.3593 48.5265 6.40479C49.1645 6.44447 49.8018 6.50545 50.4399 6.56158C51.4288 6.64773 52.4112 6.80065 53.3953 6.94293C54.5874 7.11715 55.7779 7.30685 56.9602 7.56721C59.4309 8.11116 61.8347 8.92611 64.1651 10.0392C65.0847 10.4786 65.9944 10.9529 66.8585 11.5316C67.1539 11.7301 67.4738 11.8762 67.7496 12.1153C68.2644 12.4221 68.7467 12.7947 69.2289 13.1664C71.2492 14.7256 73.0753 16.5617 74.7309 18.6398C74.7611 18.6775 74.7839 18.724 74.81 18.7665C75.3388 19.3811 75.808 20.0606 76.2771 20.7391C76.9225 21.676 77.5353 22.6448 78.113 23.6427C78.131 23.6737 78.144 23.7076 78.1604 23.7405C78.6524 24.537 79.0922 25.3743 79.5173 26.2212C80.8106 28.7996 81.904 31.4913 82.7289 34.331C82.9215 34.9911 83.0398 35.6754 83.1809 36.3529C83.1989 36.4362 83.1948 36.5329 83.2568 36.5997Z" fill="white"/>
<path fill-rule="evenodd" clip-rule="evenodd" d="M27.2448 34.9986C27.1216 35.2048 27.0138 35.4235 26.8453 35.6007C26.5816 36.0159 26.2553 36.375 25.8818 36.6915C25.4804 37.0747 25.0308 37.3835 24.5226 37.6032C24.0374 37.8752 23.5022 38.0049 22.9718 38.1491C21.9245 38.4327 20.9272 38.8353 19.9858 39.3764C19.5141 39.6474 19.2109 40.0413 19.079 40.5707C19.028 40.7769 18.9567 40.9763 18.8634 41.1679C18.6121 41.6838 18.2011 41.9722 17.6399 42.0738C16.7658 42.2316 15.9255 42.0419 15.0822 41.857C14.6567 41.7631 14.3006 41.5696 13.98 41.2695C13.516 40.835 13.4169 40.3229 13.568 39.7345C13.6999 39.2186 14.0108 38.8276 14.4382 38.5256C14.6019 38.4104 14.7472 38.4559 14.8897 38.5769C15.2776 38.906 15.7272 39.0899 16.2354 39.0976C16.9218 39.1083 17.4993 38.845 17.971 38.3494C18.2328 38.0746 18.4783 37.7861 18.6997 37.4793C19.0568 36.9838 19.5449 36.6663 20.0888 36.4166C20.7337 36.1214 21.371 35.8078 22.0159 35.5135C22.9564 35.0828 23.7862 34.5089 24.4282 33.6823C24.4542 33.6368 24.4773 33.5884 24.5072 33.5468C24.718 33.2506 24.7103 32.9593 24.4937 32.6699C24.4532 32.6157 24.4176 32.5576 24.3801 32.5015C23.9354 31.9953 23.4608 31.522 22.9208 31.1155C21.7098 30.2047 20.3698 29.534 18.9654 28.9862C18.6487 28.8632 18.3387 28.7268 18.0702 28.5109C17.6004 28.1325 17.4406 27.5818 17.6755 27.0243C17.8228 26.6768 18.0037 26.3429 18.1809 26.009C18.2906 25.8018 18.4542 25.7012 18.7141 25.708C19.6902 25.7322 20.5807 26.0458 21.4249 26.4987C22.2758 26.9556 23.094 27.4656 23.8275 28.1054C24.0595 28.3067 24.3098 28.4877 24.5245 28.7094C25.0327 29.1604 25.4909 29.655 25.8866 30.2086C26.2389 30.6316 26.5421 31.0874 26.7934 31.5782C27.1399 32.1473 27.4614 32.7328 27.5856 33.3939C27.6934 33.9649 27.5413 34.5021 27.2448 34.9986Z" fill="white"/>
<path fill-rule="evenodd" clip-rule="evenodd" d="M37.4432 0.891013C36.9966 1.02845 36.5393 1.12621 36.1061 1.30817C35.4236 1.50174 34.7643 1.7563 34.1251 2.06215C33.459 2.38155 33.2838 3.25845 33.7631 3.81401C33.9691 4.05307 33.9711 4.1034 33.7853 4.36183C33.3001 5.03644 32.814 5.71105 32.3288 6.3847C31.9188 6.94703 31.5068 7.50744 31.0986 8.07074C29.7317 9.9552 28.3648 11.8397 26.9998 13.7251C26.8843 13.8848 26.7515 14.0174 26.5474 14.03C26.403 14.0387 26.2894 14.1006 26.1749 14.1761C22.928 16.3084 19.682 18.4396 16.4342 20.5699C16.2465 20.6929 16.1011 20.8506 15.9971 21.051C14.765 23.4049 13.5309 25.7578 12.2997 28.1126C12.268 28.1736 12.2025 28.2355 12.2545 28.3256C12.2815 28.3101 12.3094 28.2985 12.3315 28.281C13.2277 27.5348 14.1547 26.8302 15.0721 26.113C15.7161 25.6097 16.412 25.2148 17.1975 24.9796C18.1919 24.6815 19.1949 24.725 20.2009 24.8983C21.0008 25.0357 21.7863 25.2264 22.4803 25.6687C23.0791 26.0501 23.6769 26.4372 24.2419 26.866C25.2719 27.648 26.067 28.6488 26.7438 29.7474C26.7919 29.8248 26.8188 29.9235 26.917 29.9777C26.9353 29.9138 26.9565 29.8645 26.9642 29.8122C27.1644 28.463 27.3637 27.1118 27.562 25.7626C27.6688 25.0406 27.7853 24.3195 27.8748 23.5946C27.9172 23.2481 27.9923 22.9064 28.026 22.5609C28.0702 22.1118 28.1665 21.6714 28.2127 21.2223C28.257 20.7829 28.3773 20.3512 28.4303 19.9118C28.4842 19.4559 28.5602 19.0029 28.6199 18.549C28.6979 17.9605 28.6382 17.4176 28.3205 16.923C28.1704 16.6887 28.1675 16.4806 28.3013 16.2571C28.4726 15.9696 28.6546 15.6899 28.824 15.4024C29.4468 14.3465 30.0677 13.2886 30.6876 12.2297C31.294 11.1941 31.8966 10.1556 32.5012 9.11896C32.5406 9.06475 32.583 9.01249 32.6186 8.95442C33.3434 7.73102 34.0625 6.50278 34.7931 5.28228C35.2311 4.5496 35.6499 3.80239 36.2255 3.16263C36.4055 3.01357 36.5701 2.83935 36.7684 2.72031C37.0553 2.54705 37.2045 2.29153 37.3171 1.99536C37.4394 1.67403 37.5 1.33914 37.5558 1.00232C37.5712 0.89682 37.5587 0.855201 37.4432 0.891013ZM25.9275 21.4536C25.9101 21.5088 25.8986 21.5717 25.8052 21.5978C25.8168 21.4788 25.8274 21.3713 25.836 21.262C25.9053 20.3367 25.8206 19.4133 25.7966 18.489C25.7917 18.3216 25.6974 18.2586 25.5415 18.2857C25.3557 18.3186 25.1786 18.3748 25.0101 18.4687C23.0184 19.5846 21.0624 20.7567 19.2017 22.0856C19.117 22.1456 19.0342 22.2202 18.9254 22.2337C18.7704 22.255 18.4836 22.0982 18.4354 21.9608C18.3671 21.7653 18.4855 21.6336 18.6232 21.5388C20.454 20.2931 22.2955 19.062 24.3478 18.2006C24.6876 18.0573 25.0447 17.9547 25.398 17.8492C25.9178 17.6934 26.1758 17.8637 26.249 18.3999C26.3886 19.4453 26.2365 20.4577 25.9275 21.4536Z" fill="white"/>
<path fill-rule="evenodd" clip-rule="evenodd" d="M19.2124 29.9428C19.1719 30.0386 19.066 30.0202 18.9746 30.0028C18.6444 29.9428 18.3075 29.9167 17.9831 29.8218C17.3805 29.7628 16.8001 29.5963 16.21 29.4705C15.5304 29.3272 15.0231 29.5489 14.6775 30.148C14.4166 30.6 14.1692 31.0607 13.9113 31.5147C13.8805 31.5698 13.8573 31.6647 13.7852 31.6569C13.7053 31.6492 13.6831 31.5514 13.6571 31.4837C13.5252 31.1478 13.507 30.7878 13.4713 30.4355C13.4328 30.0541 13.3096 29.7473 12.9814 29.5121C12.4789 29.1511 12.4856 28.7562 12.965 28.3652C13.3895 28.0196 13.8756 27.7709 14.3396 27.4873C15.204 26.9598 16.0752 26.4449 16.9454 25.929C17.1784 25.7906 17.4142 25.6561 17.7174 25.659C17.6481 25.9387 17.5018 26.1681 17.394 26.413C17.3054 26.6143 17.2053 26.8098 17.1196 27.0121C16.9002 27.5309 17.0032 27.9925 17.393 28.3865C17.6 28.5955 17.8252 28.7862 18.0428 28.9846C18.3913 29.2314 18.7416 29.4773 19.0901 29.725C19.1662 29.7792 19.2518 29.847 19.2124 29.9428Z" fill="white"/>
<path fill-rule="evenodd" clip-rule="evenodd" d="M29.5685 9.20905C29.3606 9.47521 29.1488 9.73945 28.939 10.0046C28.8976 10.0569 28.8649 10.1208 28.7878 10.1285C28.7917 10.205 28.7388 10.2544 28.6974 10.3057C28.0659 11.0896 27.4325 11.8707 26.801 12.6547C26.6566 12.8338 26.4795 12.9751 26.3014 13.1144C26.1763 13.2122 26.029 13.2654 25.8788 13.1832C25.7412 13.1077 25.6911 12.9673 25.7017 12.8144C25.7412 12.2608 25.4534 11.9172 24.9923 11.682C24.1558 11.2551 23.2528 11.0529 22.3374 10.8932C22.2045 10.869 22.0717 10.8428 21.9379 10.8157C21.9177 10.8119 21.9003 10.7964 21.8638 10.777C24.1134 9.93012 26.3881 9.25067 28.7811 9.04354C29.0766 9.0116 29.3722 8.96708 29.6725 8.98934C29.6869 9.0929 29.6167 9.1471 29.5685 9.20905Z" fill="white"/>
<path fill-rule="evenodd" clip-rule="evenodd" d="M13.3825 36.3292C13.2872 36.3282 13.1842 36.3485 13.0995 36.2779C12.9686 36.2604 12.8482 36.2101 12.7375 36.1385C12.1571 35.911 11.6748 35.5384 11.2541 35.0874C10.7055 34.4979 10.1895 33.8824 9.99023 33.0703C9.90552 32.7228 9.94114 32.4083 10.2347 32.1634C10.331 32.0831 10.383 32.0705 10.4388 32.2176C10.5129 32.4151 10.5023 32.6193 10.5341 32.8206C10.6506 33.5397 11.0472 34.0885 11.5853 34.5473C11.798 34.7293 12.0233 34.8948 12.2466 35.0632C12.3169 35.1154 12.4016 35.1784 12.494 35.1183C12.5739 35.0661 12.5652 34.9712 12.5585 34.889C12.4921 34.1118 12.4035 33.3345 12.3583 32.5564C12.314 31.8005 12.1032 31.0823 11.9511 30.3486C11.8779 29.9973 11.9212 29.6382 12.0021 29.2878C12.0262 29.1833 12.0743 29.0575 12.1811 29.0555C12.2803 29.0546 12.3669 29.1543 12.3987 29.2636C12.5662 29.8357 12.7895 30.3951 12.854 30.9952C12.9416 31.4433 12.9358 31.8982 12.9204 32.3492C12.8925 33.139 12.9368 33.9182 13.1611 34.6799C13.3132 35.1377 13.5076 35.5829 13.6097 36.0562C13.6693 36.3282 13.6597 36.334 13.3825 36.3292Z" fill="white"/>
<path fill-rule="evenodd" clip-rule="evenodd" d="M23.9207 33.2922C23.8533 33.4093 23.7753 33.5168 23.6694 33.6029C23.19 34.1536 22.5769 34.5311 21.9666 34.9057C20.9183 35.5493 19.7891 36.011 18.6109 36.3527C18.4732 36.3923 18.3337 36.4282 18.1883 36.4204C18.0718 36.4146 17.9515 36.3953 17.9072 36.2714C17.8649 36.1504 17.9303 36.0507 18.0218 35.9723C18.195 35.8252 18.3789 35.6926 18.5849 35.5948C19.9287 34.958 20.9674 33.9601 21.8674 32.7976C21.9791 32.6544 22.083 32.5024 22.2101 32.3747C22.6452 31.9353 23.3681 32.0195 23.6656 32.5363C24.0198 32.7047 24.1084 32.9651 23.9207 33.2922Z" fill="white"/>
<path fill-rule="evenodd" clip-rule="evenodd" d="M17.9503 37.712C17.8531 37.7324 17.8146 37.6646 17.7674 37.6114C16.7037 36.9706 15.9721 36.0376 15.4514 34.852C15.2983 35.2585 15.2665 35.6001 15.2569 35.9476C15.2367 36.6493 15.3743 37.3375 15.4273 38.0314C15.4311 38.0769 15.436 38.1215 15.4398 38.1669C15.4437 38.2144 15.4456 38.2618 15.3907 38.2802C15.3358 38.2995 15.3099 38.256 15.2839 38.2182C15.1375 38.0082 15.0788 37.7662 15.0268 37.5204C14.766 36.2825 14.713 35.0436 14.9527 33.796C15.0105 33.4979 15.1529 33.2424 15.2925 32.984C15.3464 32.8843 15.4494 32.7913 15.538 32.8126C15.6448 32.8388 15.6776 32.9781 15.6756 33.0943C15.6641 33.5289 15.7074 33.9596 15.8306 34.3758C16.0953 35.2662 16.5853 36.0037 17.3236 36.5728C17.5056 36.7132 17.7077 36.8458 17.7732 37.0926C17.9474 37.2668 17.9349 37.4904 17.9503 37.712Z" fill="white"/>
<path fill-rule="evenodd" clip-rule="evenodd" d="M12.2147 28.3755L12.2119 28.3618L12.222 28.3636L12.2147 28.3755Z" fill="white"/>
<path d="M44.8675 27.785C45.1808 27.785 45.4099 27.8573 45.5548 28.003C45.6637 28.1125 45.7053 28.239 45.6817 28.3846C45.6693 28.5054 45.6424 28.6003 45.6008 28.6669C45.5582 28.7335 45.5132 28.7855 45.465 28.8216C45.4043 28.8577 45.3347 28.8973 45.2572 28.9402C45.1786 28.9831 45.091 29.0102 44.9944 29.0226C44.6811 29.0474 44.4273 29.0678 44.2341 29.0858C44.041 29.1039 43.8781 29.1163 43.7456 29.122C43.6131 29.1287 43.4896 29.1344 43.375 29.14C43.2605 29.1468 43.1313 29.1524 42.9865 29.1581C42.8416 29.1649 42.6664 29.1762 42.462 29.1942C42.2565 29.2123 41.9915 29.2337 41.6658 29.2575C41.6052 29.6459 41.5299 30.1551 41.4401 30.7852C41.3491 31.4164 41.2503 32.1978 41.1414 33.1316C40.8033 35.8122 40.5866 38.0547 40.49 39.8625C40.4777 40.1053 40.4833 40.3932 40.508 40.7263C40.5327 41.0594 40.5742 41.4388 40.6349 41.8634C40.6472 41.948 40.6225 42.0203 40.563 42.0813C40.5147 42.1298 40.4541 42.1535 40.3811 42.1535H40.344C40.1363 42.1174 39.9218 42.0384 39.7028 41.9176C39.6781 41.9051 39.6635 41.8961 39.6567 41.8905C39.65 41.8837 39.6354 41.8746 39.6107 41.8634C39.2929 41.4998 39.1345 40.8934 39.1345 40.0443C39.1345 38.7345 39.2446 36.8793 39.4647 34.4775C39.6848 32.1131 39.7949 30.6091 39.7949 29.9666C39.7949 29.8695 39.7915 29.7757 39.7859 29.6843C39.7791 29.5928 39.7769 29.5059 39.7769 29.4201C39.4591 29.4201 39.1312 29.4291 38.7931 29.4472C38.454 29.4652 38.116 29.4991 37.7791 29.5476C37.441 29.5962 37.1221 29.6662 36.82 29.7565C36.5179 29.848 36.2596 29.9654 36.0417 30.1111C35.9216 30.1958 35.8609 30.2624 35.8609 30.311C35.8609 30.3358 35.8733 30.3719 35.8969 30.4205C35.9205 30.469 36.0114 30.5232 36.1686 30.5842C36.3012 30.6452 36.4786 30.6937 36.7021 30.7299C36.9256 30.766 37.1872 30.7728 37.4893 30.7479C37.6342 30.7355 37.8206 30.7118 38.0497 30.6757C38.2788 30.6395 38.4955 30.6091 38.701 30.5842C38.9054 30.5605 39.0851 30.5537 39.2367 30.5661C39.3883 30.5786 39.4647 30.6271 39.4647 30.7118C39.4647 30.7604 39.4523 30.8089 39.4276 30.8575C39.2805 31.1002 39.1199 31.2877 38.9447 31.4209C38.7695 31.5542 38.5798 31.6569 38.3742 31.7303C38.2417 31.7789 38.1025 31.8218 37.9587 31.8579C37.8139 31.894 37.5668 31.9189 37.2175 31.9302C36.7829 31.9426 36.4123 31.9087 36.1046 31.8297C35.7969 31.7506 35.5409 31.6388 35.3354 31.4932C35.1299 31.3238 34.967 31.1172 34.8469 30.8744C34.7267 30.6316 34.6773 30.3347 34.702 29.9835C34.702 29.8988 34.72 29.787 34.7559 29.647C34.7918 29.5081 34.8558 29.3647 34.9457 29.2191C35.0367 29.0734 35.1658 28.9368 35.3343 28.8103C35.5027 28.6827 35.7206 28.5833 35.9856 28.51C36.263 28.4377 36.6605 28.3643 37.1794 28.292C37.6982 28.2198 38.3013 28.1531 38.9885 28.0922C39.2199 28.0797 39.3928 28.0685 39.5096 28.056C39.6253 28.0436 39.7264 28.0346 39.8117 28.0289C39.8971 28.0233 39.9824 28.0199 40.0689 28.0199C40.1542 28.0199 40.2789 28.0165 40.4428 28.0109C40.6068 28.0052 40.8336 27.9962 41.1234 27.9838C41.4131 27.9713 41.7983 27.9533 42.2812 27.9296C42.8719 27.9059 43.2975 27.8844 43.557 27.8663C43.8164 27.8483 44.0062 27.8336 44.1263 27.8212C44.2465 27.8087 44.3431 27.7997 44.4161 27.7941C44.4868 27.7873 44.6373 27.785 44.8675 27.785Z" fill="white"/>
<path d="M66.1876 38.3108C66.1146 37.9269 65.9877 37.4414 65.8057 36.8745C65.6418 36.3438 65.5149 35.8775 65.4329 35.4936C65.3509 35.1097 65.306 34.789 65.306 34.5236C65.306 34.396 65.3419 34.2029 65.4059 33.9478C65.461 33.7558 65.4879 33.6271 65.5059 33.5638C65.5149 33.4995 65.5239 33.4543 65.5239 33.4261C65.5239 33.3809 65.5149 33.3166 65.4879 33.2432C65.4699 33.1788 65.4329 33.1065 65.379 33.0331C65.324 32.9597 65.233 32.9055 65.1061 32.8502C64.9882 32.8051 64.8332 32.7768 64.6423 32.7768C64.3874 32.7768 64.1875 32.8502 64.0415 32.9959C63.9045 33.1427 63.8326 33.3437 63.8326 33.6C63.8326 34.0392 63.8146 34.4502 63.7776 34.8443C63.7416 35.2373 63.6686 35.6031 63.5687 35.9509C63.5417 36.0604 63.5137 36.1699 63.4867 36.2896C63.4227 36.5279 63.3598 36.765 63.2958 37.0123C63.2688 37.1128 63.2509 37.2133 63.2228 37.3047C63.1779 37.4425 63.1498 37.5701 63.1139 37.6706C63.0588 37.8716 63.0139 38.0184 62.9959 38.1008C62.969 38.1832 62.951 38.2386 62.9319 38.2476V38.2657C62.7961 38.6959 62.668 39.0244 62.5501 39.2627C62.4322 39.501 62.3412 39.6748 62.2503 39.7844C62.1683 39.8939 62.1043 39.9583 62.0594 39.9854C62.0133 40.0125 61.9864 40.0215 61.9774 40.0215C61.9414 39.9854 61.8954 39.912 61.8595 39.8115C61.8325 39.72 61.8145 39.5924 61.7954 39.4185C61.7775 39.2446 61.7685 39.0064 61.7685 38.7139C61.7685 37.6706 61.9325 36.345 62.2694 34.7438C62.3053 34.6253 62.2694 34.5248 62.1514 34.4514C61.7517 34.195 61.4417 34.0674 61.2148 34.0674C60.942 34.0674 60.76 34.1228 60.6781 34.2323C60.5871 34.3418 60.5231 34.4423 60.5051 34.5248V34.772C60.5051 34.8454 60.4871 34.973 60.4411 35.165C60.4052 35.3569 60.3501 35.6223 60.2681 35.943C60.1952 36.2727 60.0862 36.7018 59.9492 37.2234C59.7673 37.91 59.6123 38.4124 59.4944 38.7331C59.3765 39.0538 59.2765 39.2638 59.1945 39.3643C59.1945 39.3 59.1945 39.2277 59.1856 39.1453C59.1856 39.0628 59.1766 38.9533 59.1766 38.8065C59.1766 38.4587 59.1945 38.0568 59.2406 37.5814C59.2765 37.115 59.3226 36.5843 59.3866 35.9994V35.9723C59.3866 35.4597 59.3226 35.0758 59.1957 34.8195C59.0957 34.6004 58.9778 34.4627 58.8408 34.3983C58.7139 34.3339 58.5949 34.2978 58.4859 34.2978C58.322 34.2978 58.1771 34.343 58.0581 34.4356C57.9401 34.527 57.8301 34.6275 57.7492 34.7562C57.6673 34.8748 57.6032 34.9945 57.5493 35.1221C57.5044 35.2406 57.4584 35.3321 57.4404 35.3965C57.3135 35.7171 57.1765 36.1553 57.0496 36.7232C56.9227 37.281 56.7857 37.9856 56.6307 38.8268C56.6038 38.9183 56.5757 39.0098 56.5577 39.0922C56.5308 39.1746 56.5027 39.2571 56.4757 39.3485C56.4667 39.2209 56.4578 39.0922 56.4578 38.9556V38.5434C56.4578 37.9484 56.5027 37.4549 56.5948 37.0529C56.6947 36.5866 56.7497 36.074 56.7497 35.5342C56.7497 35.305 56.7228 35.1131 56.6588 34.9764C56.6038 34.8296 56.5409 34.7291 56.4589 34.6467C56.3859 34.5733 56.2949 34.5191 56.204 34.4909C56.104 34.4638 56.022 34.4548 55.9401 34.4548C55.7671 34.4548 55.6121 34.5191 55.4852 34.6467C55.2483 34.903 55.1663 35.4145 55.2123 36.1745C55.2123 36.2106 55.2213 36.2388 55.2303 36.2479V36.2569C55.2303 36.275 55.2213 36.284 55.2213 36.293C55.1573 36.5222 55.1034 36.6679 55.0753 36.7503C54.9395 37.0428 54.7935 37.2257 54.6475 37.2901C54.5015 37.3544 54.3746 37.3815 54.2567 37.3815C54.1657 37.3815 54.0927 37.3544 54.0287 37.3081C54.0287 36.7503 54.0197 36.3021 54.0017 35.9362C53.9928 35.5794 53.9838 35.296 53.9658 35.086C53.9568 34.8669 53.9388 34.7111 53.9209 34.6106C53.9029 34.5101 53.8849 34.4276 53.876 34.3814C53.73 33.9794 53.4391 33.6226 52.9933 33.3019C52.5474 32.9631 52.1285 32.7983 51.7377 32.7983C51.6647 32.7983 51.5828 32.8073 51.4918 32.8254C51.4008 32.8434 51.3099 32.8897 51.2189 32.953C51.1369 33.0173 51.046 33.1088 50.964 33.2183C50.882 33.3369 50.818 33.4927 50.7821 33.6847C50.718 33.941 50.6731 34.1239 50.645 34.2425C50.6271 34.361 50.6091 34.4435 50.59 34.4898C50.517 34.5722 50.4631 34.6998 50.435 34.8917V35.0837C50.435 35.139 50.444 35.2023 50.462 35.2847V35.3942C50.2891 35.7962 50.1981 36.4556 50.1711 37.3702C50.1532 37.4346 50.1352 37.4978 50.1161 37.5532C50.0072 37.9653 49.8881 38.3311 49.7523 38.6326C49.6254 38.9432 49.5063 39.1995 49.4064 39.4106C49.2884 39.6669 49.1975 39.8216 49.1245 39.895C49.0515 39.9594 49.0066 39.9955 48.9976 39.9955C48.8887 39.9955 48.7977 39.877 48.7337 39.6387C48.6697 39.4005 48.6337 39.0809 48.6337 38.6778C48.6337 37.4978 48.8067 35.961 49.1615 34.0946L49.1795 33.9478L49.0706 33.8563C48.7707 33.5909 48.5428 33.4261 48.4069 33.3719C48.2699 33.3075 48.1609 33.2804 48.07 33.2804C47.9521 33.2804 47.824 33.3256 47.7061 33.4171C47.5792 33.5085 47.4781 33.7005 47.4242 34.002C47.3973 34.1487 47.3243 34.4593 47.2064 34.9437C47.0885 35.4191 46.9245 36.0683 46.7156 36.9016C46.6247 37.2494 46.5337 37.569 46.4517 37.8625C46.3787 38.155 46.3057 38.4203 46.2428 38.6586V38.6225C46.2339 38.5581 46.2249 38.4949 46.2159 38.4395C46.2159 38.3842 46.2069 38.339 46.2069 38.3018C46.2069 38.2657 46.2069 38.2284 46.1979 38.2103C46.1979 37.2776 46.2709 36.1067 46.4158 34.7156C46.5708 33.3166 46.7976 31.6883 47.0986 29.8038C47.1345 29.5384 47.2075 29.2459 47.3164 28.9343C47.3984 28.6599 47.4433 28.4126 47.4433 28.1845C47.4433 27.8097 47.2345 27.6087 46.8066 27.5804H46.7516C46.5146 27.5804 46.3327 27.6358 46.2058 27.7272C46.0879 27.8277 46.0059 27.9282 45.9598 28.0197L45.9419 28.075V28.6791C45.9419 29.0269 45.8969 29.6028 45.8239 30.4169C45.742 31.222 45.633 32.2461 45.487 33.4995C45.3321 34.7709 45.2142 35.7951 45.1412 36.564C45.0682 37.3318 45.0322 37.8716 45.0322 38.1923C45.0322 39.3813 45.1142 40.2507 45.2871 40.7995C45.4601 41.3483 45.715 41.6317 46.0699 41.6317C46.2058 41.6317 46.3518 41.5854 46.4798 41.5041L46.5708 41.4488L46.5887 41.3392C46.8167 40.3331 47.0166 39.501 47.1704 38.8415C47.3254 38.1923 47.4613 37.6525 47.5702 37.2223V38.5208L47.5882 38.7862V38.8043C47.7342 40.4235 48.2339 41.2286 49.1076 41.2286C49.5625 41.2286 49.9263 40.8898 50.1902 40.2225C50.2172 40.1491 50.2632 40.0215 50.3171 39.8386C50.3811 40.0949 50.4631 40.323 50.5541 40.5251C50.8449 41.1382 51.2998 41.4488 51.9096 41.4488C52.4003 41.4488 52.8192 41.1744 53.1471 40.6346C53.2201 40.507 53.3111 40.3331 53.3931 40.113C53.484 39.9029 53.584 39.6195 53.7019 39.2898V39.2537C53.7378 39.0978 53.7749 38.9522 53.8018 38.8144C53.8378 38.6767 53.8659 38.5491 53.8928 38.4215C54.0747 38.4858 54.1926 38.531 54.2567 38.5491C54.3207 38.5671 54.3746 38.5762 54.4116 38.5762C54.7665 38.5762 55.0843 38.4395 55.3572 38.164C55.3482 38.347 55.3482 38.5028 55.3392 38.6394C55.3303 38.8686 55.3303 39.0515 55.3303 39.1882C55.3303 39.4445 55.3392 39.7098 55.3572 39.9842C55.3752 40.2496 55.4212 40.4969 55.4841 40.725C55.5481 40.944 55.6391 41.1371 55.748 41.2828C55.8659 41.4296 56.0209 41.5018 56.2298 41.5018C56.7666 41.5018 57.2034 40.9531 57.5493 39.8645C57.6672 39.4806 57.8683 38.5841 58.1501 37.1659C58.1861 36.9468 58.2231 36.7819 58.2591 36.6623C58.2501 36.8723 58.2411 37.0925 58.2321 37.3205C58.2231 37.5498 58.2142 37.7959 58.1872 38.0522C58.1052 38.9759 58.0693 39.5247 58.0693 39.6895C58.0693 40 58.1052 40.2564 58.1692 40.4483C58.2332 40.6493 58.3062 40.8051 58.4062 40.9237C58.5061 41.0423 58.6061 41.1156 58.7251 41.1529C58.8341 41.189 58.9531 41.2173 59.071 41.2173C59.5438 41.2173 59.9537 40.76 60.2906 39.8453C60.3355 39.7539 60.3816 39.6161 60.4366 39.4332C60.5006 39.2412 60.5736 39.012 60.6646 38.7286V39.1859C60.6646 39.204 60.6646 39.204 60.6825 39.204C60.8285 40.5488 61.2643 41.2161 61.983 41.2161C62.3929 41.2161 62.7567 40.9508 63.0835 40.4291C63.1386 40.612 63.2475 40.7859 63.4204 40.9598C63.8023 41.39 64.2391 41.6001 64.7209 41.6001C65.1847 41.6001 65.5755 41.3618 65.8944 40.8864C66.1763 40.4743 66.3133 39.9346 66.3133 39.2672C66.3055 39.0244 66.2695 38.7038 66.1876 38.3108ZM52.7417 38.6033C52.6867 38.8415 52.5598 39.1701 52.3689 39.6003C52.2599 39.8386 52.169 40.0023 52.1139 40.0847C52.0589 40.1672 52.014 40.2214 51.987 40.2496C51.8601 40.2405 51.7591 40.1672 51.6872 40.0305C51.6052 39.8928 51.5412 39.729 51.5053 39.5269C51.4604 39.3259 51.4233 39.1249 51.4143 38.9048C51.4053 38.6857 51.3963 38.4836 51.3963 38.3007C51.3963 38.0082 51.4233 37.6604 51.4693 37.2573C51.5244 36.8452 51.5962 36.3788 51.7063 35.8391C51.7703 35.4913 51.8242 35.2079 51.8882 34.9888C51.9433 34.7698 51.9972 34.6049 52.0432 34.4762C52.0791 34.3576 52.1252 34.2662 52.1521 34.2199C52.1881 34.1646 52.2072 34.1375 52.2251 34.1194C52.3251 34.1194 52.4071 34.1465 52.4711 34.2109C52.5351 34.2662 52.562 34.3847 52.562 34.5677V34.7325C52.562 34.7969 52.562 34.8883 52.5441 34.9888C52.5261 35.0893 52.5081 35.1808 52.5081 35.2632V35.4733C52.5081 35.5376 52.5171 35.6471 52.5351 35.803C52.553 35.9498 52.6081 36.2332 52.6811 36.6442C52.7361 36.9457 52.772 37.211 52.799 37.4583C52.8259 37.6966 52.8349 37.9156 52.8349 38.0895C52.8327 38.1911 52.8057 38.365 52.7417 38.6033ZM64.8321 40.2135C64.7501 40.3512 64.6771 40.4427 64.5861 40.4698C64.5042 40.5059 64.4312 40.5251 64.3683 40.5251C64.2133 40.5251 64.0493 40.3331 63.8674 39.9673C63.8584 39.711 63.8034 39.5461 63.6945 39.4919C63.6394 39.4648 63.6035 39.4366 63.5575 39.4276C63.7034 39.0346 63.8483 38.6225 63.9853 38.1923C63.9943 38.1652 64.0033 38.1471 64.0033 38.1189C64.0033 38.1098 64.0123 38.1098 64.0123 38.1008C64.0763 38.0184 64.1212 37.9179 64.1583 37.8264C64.1942 37.7259 64.2313 37.6435 64.2582 37.5882V37.5701C64.3031 37.4143 64.3492 37.2596 64.3851 37.1038C64.43 36.9389 64.4671 36.7831 64.521 36.6284C64.548 36.7108 64.5659 36.7842 64.585 36.8666C64.612 36.9581 64.6299 37.0315 64.658 37.0958V37.1139C64.9129 38.0014 65.0398 38.6959 65.0398 39.1904C65.041 39.6184 64.968 39.9571 64.8321 40.2135Z" fill="white"/>
<path d="M73.0103 34.5878C72.7553 34.5878 72.5914 34.7797 72.5195 35.1636C72.4016 35.6943 72.3106 36.0692 72.2376 36.2883C72.1646 36.5175 72.1197 36.6631 72.0916 36.7456C71.9546 37.038 71.8097 37.2209 71.6638 37.2853C71.5178 37.3497 71.3819 37.3768 71.2729 37.3768C71.182 37.3768 71.1 37.3497 71.036 37.3034C71.036 36.7456 71.036 36.2973 71.018 35.9314C71.009 35.5746 70.9911 35.2912 70.9821 35.0812C70.9731 34.8621 70.9551 34.7063 70.936 34.6058C70.9181 34.5053 70.9001 34.4229 70.8911 34.3766C70.7451 33.9746 70.4543 33.6178 70.0084 33.2971C69.5626 32.9584 69.1437 32.7935 68.7529 32.7935C68.6709 32.7935 68.5889 32.8026 68.507 32.8206C68.416 32.8387 68.325 32.885 68.2341 32.9482C68.1431 33.0126 68.0611 33.104 67.9791 33.2136C67.8972 33.3321 67.8332 33.488 67.7972 33.6799C67.7332 33.9362 67.6883 34.1191 67.6602 34.2377C67.6321 34.3563 67.6153 34.4387 67.6052 34.485C67.5322 34.5674 67.4783 34.695 67.4502 34.887V35.0789C67.4502 35.1343 67.4592 35.1975 67.4682 35.2799V35.3895C67.2683 35.8931 67.1683 36.7885 67.1683 38.0701C67.1683 39.1495 67.2952 39.9637 67.5681 40.5215C67.859 41.1346 68.3138 41.4451 68.9236 41.4451C69.4144 41.4451 69.8332 41.1707 70.1612 40.631C70.2342 40.5034 70.3161 40.3295 70.4071 40.1093C70.4981 39.8993 70.598 39.6159 70.7159 39.2862V39.25C70.7519 39.0942 70.7889 38.9486 70.8159 38.8108C70.8518 38.673 70.8799 38.5454 70.9068 38.4178C71.0798 38.4822 71.2067 38.5274 71.2707 38.5454C71.3347 38.5635 71.3796 38.5725 71.4257 38.5725C72.0445 38.5725 72.5442 38.1514 72.9182 37.3192C73.1091 36.898 73.2461 36.496 73.337 36.1121C73.428 35.7372 73.4741 35.3804 73.4741 35.0417C73.4741 34.7424 73.3191 34.5878 73.0103 34.5878ZM69.7625 38.603C69.7075 38.8413 69.5806 39.1699 69.3897 39.6001C69.2807 39.8383 69.1898 40.0021 69.1347 40.0845C69.0707 40.1669 69.0348 40.2211 69.0078 40.2493C68.8809 40.2403 68.7799 40.1669 68.699 40.0303C68.626 39.8925 68.562 39.7288 68.5171 39.5267C68.4722 39.3257 68.4441 39.1247 68.4351 38.9045C68.4171 38.6855 68.4171 38.4833 68.4171 38.3004C68.4171 38.008 68.4441 37.6602 68.4901 37.2571C68.5452 36.8449 68.617 36.3786 68.7181 35.8389C68.7821 35.4911 68.845 35.2077 68.9 34.9886C68.964 34.7695 69.009 34.6047 69.055 34.476C69.0999 34.3574 69.137 34.2659 69.1729 34.2196C69.1999 34.1643 69.2279 34.1372 69.2369 34.1192C69.3459 34.1192 69.4278 34.1463 69.4919 34.2106C69.5559 34.2659 69.5828 34.3845 69.5828 34.5674V34.7323C69.5828 34.7966 69.5828 34.8881 69.5648 34.9886C69.5379 35.0891 69.5289 35.1806 69.5289 35.263V35.473C69.5289 35.5374 69.5379 35.6469 69.5559 35.8027C69.5738 35.9495 69.6199 36.2329 69.7019 36.6439C69.7569 36.9454 69.7928 37.2108 69.8198 37.4581C69.8377 37.6963 69.8557 37.9154 69.8557 38.0893C69.8535 38.1909 69.8254 38.3648 69.7625 38.603Z" fill="white"/>
</svg>
