<svg width="20" height="21" viewBox="0 0 20 21" fill="none" xmlns="http://www.w3.org/2000/svg">
<path d="M0.000225296 0.00180795C0.0617312 0.00180795 0.102285 0.00180795 0.142613 0.00180795C2.03893 0.00180795 3.93502 0.00248384 5.83134 5.58484e-06C5.91831 5.58484e-06 5.97305 0.0229858 6.0233 0.0964324C6.81071 1.24815 7.60059 2.39783 8.39026 3.54775C9.28581 4.85221 10.1818 6.15645 11.0778 7.46069C11.0898 7.47826 11.1049 7.49358 11.1251 7.51792C11.343 7.26558 11.5557 7.01956 11.7677 6.77286C12.8951 5.46209 14.0222 4.15131 15.1494 2.84032C15.9393 1.92156 16.7294 1.0028 17.5172 0.0822387C17.565 0.0263653 17.6105 -0.000445008 17.6862 5.58484e-06C18.2006 0.00338503 18.7151 0.00180795 19.2295 0.00180795H19.352C19.1617 0.22395 18.9877 0.427618 18.8131 0.630835C17.4663 2.198 16.1193 3.76516 14.7722 5.33209C13.8381 6.4187 12.9038 7.50507 11.9671 8.58943C11.9137 8.65116 11.9182 8.68901 11.9614 8.75164C12.7254 9.8601 13.4869 10.9704 14.2489 12.0802C14.9534 13.1066 15.6576 14.1333 16.3624 15.1595C17.4048 16.6773 18.4477 18.1947 19.4902 19.7123C19.6573 19.9556 19.8238 20.1994 20 20.4565C19.9484 20.4589 19.9128 20.4621 19.8774 20.4621C17.9737 20.4623 16.0699 20.4614 14.1662 20.4648C14.0761 20.4648 14.024 20.4346 13.976 20.3643C13.358 19.4604 12.7385 18.5574 12.1185 17.6547C10.9785 15.9947 9.83824 14.3349 8.69801 12.6752C8.66467 12.6265 8.6311 12.5781 8.59122 12.5204C8.3639 12.7842 8.14401 13.0395 7.92412 13.295C7.00919 14.3584 6.09404 15.4218 5.17956 16.4856C4.3338 17.4697 3.48871 18.4545 2.64318 19.439C2.36471 19.7632 2.08647 20.0879 1.80597 20.4105C1.78435 20.4353 1.74627 20.4603 1.71563 20.4603C1.15262 20.4632 0.5896 20.4625 0 20.4625C0.113099 20.3289 0.212004 20.2104 0.312711 20.0933C1.09269 19.186 1.87311 18.2792 2.65354 17.3722C3.77619 16.067 4.89907 14.7621 6.02149 13.4567C6.59375 12.7912 7.16487 12.1245 7.7387 11.4604C7.79052 11.4002 7.79953 11.3603 7.75064 11.2894C6.61222 9.6375 5.47628 7.98383 4.34056 6.3297C3.24967 4.74069 2.15969 3.15077 1.06903 1.56153C0.74911 1.09495 0.427387 0.629033 0.106565 0.162444C0.0750237 0.116484 0.044834 0.0693968 0.000225296 0.00180795ZM2.40616 1.33196C2.42351 1.36305 2.42959 1.37634 2.43793 1.38828C3.01334 2.21219 3.58874 3.03587 4.16438 3.85956C5.29198 5.47313 6.41982 7.08647 7.54765 8.70005C8.58942 10.1906 9.63119 11.6812 10.6725 13.1717C12.0554 15.1512 13.4385 17.1304 14.8191 19.1114C14.8639 19.1756 14.9101 19.1957 14.9842 19.1955C15.8102 19.1934 16.6361 19.1943 17.4623 19.1941C17.4972 19.1941 17.5321 19.1903 17.5808 19.1876C17.5499 19.1419 17.5296 19.1108 17.5082 19.0803C16.3313 17.396 15.1537 15.7124 13.9774 14.0276C12.8462 12.4075 11.7168 10.7861 10.5853 9.16596C9.64088 7.81351 8.69441 6.46218 7.74929 5.11018C6.89654 3.8902 6.0438 2.66999 5.19421 1.44798C5.1345 1.36215 5.07345 1.32858 4.96666 1.32948C4.2608 1.33511 3.55495 1.33241 2.8491 1.33241C2.70716 1.33241 2.56522 1.33241 2.40616 1.33241V1.33196Z" fill="white"/>
</svg>
