<svg width="363" height="296" viewBox="0 0 363 296" fill="none" xmlns="http://www.w3.org/2000/svg">
<path fill-rule="evenodd" clip-rule="evenodd" d="M88.1913 0.575815C88.1913 0.960048 86.5475 2.84934 84.5395 4.77404C82.5306 6.69875 78.2106 11.8593 74.9389 16.2417C71.6682 20.6241 66.8315 26.5708 64.1917 29.457C59.3435 34.7566 45.5391 46.9635 45.0012 46.427C44.2985 45.724 48.7505 31.6048 51.4967 25.8307C55.4161 17.5883 61.8832 11.7009 72.6837 6.53939C82.5323 1.83387 88.1913 -0.34227 88.1913 0.575815ZM287.575 5.36101C295.737 8.68985 305.279 14.8579 308.721 19.0287C310.136 20.7445 312.481 24.6036 313.932 27.6058C316.81 33.5596 321.66 47.5549 321.055 48.1604C320.694 48.5199 316.387 45.099 306.565 36.6538C304.094 34.5282 298.719 27.9032 294.619 21.9308C290.521 15.9584 285.291 9.14668 282.997 6.79525C280.705 4.44293 279.301 2.54833 279.879 2.58463C280.457 2.62092 283.92 3.87012 287.575 5.36101ZM49.9113 19.9317C45.4797 24.5204 42.5359 31.3215 39.9758 42.8857C38.7972 48.2083 37.0391 54.6499 36.0697 57.1997C35.1002 59.7503 34.5172 61.8361 34.7741 61.8361C35.0311 61.8361 36.8761 59.9814 38.8735 57.714C40.8708 55.4467 46.3047 50.8147 50.9481 47.4212C60.7569 40.2527 65.4261 35.9969 67.9667 31.9094C68.9662 30.3016 69.9605 29.1622 70.1759 29.3773C70.8024 30.0024 67.8284 40.6228 66.0606 44.0764C63.3817 49.3096 57.604 55.1731 46.7061 63.7183C36.2505 71.9174 29.2631 78.6901 28.3247 81.5347C26.999 85.5541 26.6082 81.7029 26.6632 65.1543C26.7252 46.5359 27.3597 42.0349 30.751 36.1616C35.8987 27.2481 41.6985 21.713 49.6437 18.1345L53.1883 16.5383L49.9113 19.9317ZM318.052 20.8764C323.606 23.5766 330.782 31.0462 334.628 38.1323L337.643 43.6869V64.269C337.643 75.5888 337.343 84.852 336.978 84.8529C336.613 84.8538 336.314 84.489 336.314 84.0428C336.314 82.4395 322.789 68.909 317.212 64.9321C310.959 60.4754 301.914 50.5358 299.107 45.0379C297.08 41.069 294.473 30.8496 295.487 30.8496C295.853 30.8496 296.597 31.8244 297.14 33.0151C298.927 36.9336 304.654 42.4501 313.274 48.5562C317.943 51.8629 323.273 56.24 325.119 58.2815C326.966 60.3231 328.622 61.8476 328.801 61.6688C328.98 61.4908 328.579 58.965 327.912 56.0567C327.245 53.1493 326.106 47.4956 325.381 43.4939C323.783 34.6742 320.799 27.8909 316.353 22.9737C314.522 20.9499 313.181 19.1757 313.371 19.0314C313.561 18.8871 315.667 19.7175 318.052 20.8764ZM24.8067 42.1376C20.9395 51.2529 20.383 57.791 22.0437 74.5813C22.7606 81.8339 23.2134 88.2083 23.0495 88.7466C22.1022 91.8585 21.7247 102.561 22.5621 102.561C23.0796 102.561 23.5058 101.465 23.5111 100.127C23.5315 94.3073 27.5741 88.6058 41.212 75.1577C48.5298 67.9422 54.5175 62.0999 54.5175 62.1761C54.5175 62.2522 53.6961 65.2942 52.6912 68.9365C50.3482 77.4365 46.4615 84.4979 36.8654 97.6919C26.9946 111.263 25.6219 113.581 23.1877 120.791L21.1841 126.725L20.0693 121.747C19.4561 119.009 17.1787 111.74 15.0094 105.594C9.92999 91.2051 9.17499 87.7169 9.25299 79.0026C9.34869 68.2255 13.2894 57.0491 21.0016 45.6789C24.3955 40.6741 26.1005 39.0885 24.8067 42.1376ZM345.195 50.3623C347.244 53.8655 350.143 59.9725 351.639 63.9326C354.061 70.3477 354.36 72.1936 354.384 80.8707C354.41 90.6013 354.405 90.6226 348.464 107.969C345.193 117.517 342.517 126.248 342.517 127.373C342.517 129.998 341.412 128.936 341.101 126.011C340.665 121.927 336.467 114.133 327.62 100.982C316.209 84.0198 311.61 75.7978 311 71.2684C310.727 69.2454 310.312 66.5948 310.077 65.3774C309.711 63.4784 310.144 63.7298 313.119 67.1481C315.026 69.3393 320.76 75.3152 325.861 80.428C333.274 87.8577 335.772 91.0396 338.307 96.2754L341.479 102.828L341.023 96.2754C340.771 92.6721 341.037 85.3416 341.613 79.9854C343.477 62.6338 343.631 54.7128 342.206 49.4424C341.482 46.7652 341.021 44.4438 341.181 44.2836C341.341 44.1234 343.148 46.859 345.195 50.3623ZM6.04333 96.0912C6.60428 104.569 8.45187 111.149 13.4143 122.335C17.5039 131.553 20.8438 141.24 20.8438 143.884C20.8438 145.016 21.185 145.942 21.6015 145.942C22.018 145.942 22.5966 143.116 22.8864 139.662C23.4863 132.513 26.392 125.553 33.2145 114.927C35.569 111.26 38.5757 105.683 39.8961 102.533C41.2173 99.3838 42.5102 96.6074 42.7707 96.3639C43.5833 95.6034 42.1868 110.819 40.7291 118.6C39.9643 122.682 37.5806 131.504 35.4325 138.205C30.7776 152.721 29.4448 159.732 29.848 167.565C30.0137 170.77 29.949 173.389 29.7053 173.387C29.4616 173.386 28.0721 171.493 26.618 169.18C25.1638 166.869 21.4721 162.102 18.4149 158.588C10.802 149.839 8.9455 146.924 5.80408 138.786C0.135376 124.099 -0.999786 110.525 2.3277 97.1961C3.35388 93.0864 4.49347 89.4017 4.86032 89.0086C5.2272 88.6155 5.75977 91.8027 6.04333 96.0912ZM358.748 90.8306C358.96 91.1954 359.839 94.2834 360.7 97.6919C363.171 107.46 362.844 122.9 359.937 133.757C356.871 145.21 355.534 147.611 344.876 160.808C339.878 166.996 335.182 172.941 334.44 174.019C333.187 175.838 333.089 175.397 333.058 167.821C333.031 161.165 332.439 157.63 329.838 148.598C325.298 132.838 322.269 119.019 321.263 109.482C320.175 99.1598 320.175 99.0199 321.249 99.0199C321.736 99.0199 322.135 99.529 322.135 100.151C322.135 101.826 327.651 113.025 332.591 121.38C338.838 131.946 340.31 136.794 340.257 146.622C340.209 155.481 341.033 155.801 341.986 147.294C342.561 142.167 344.655 136.452 352.052 119.825C356.112 110.703 357.725 103.947 357.778 95.8407C357.815 90.2861 357.969 89.4885 358.748 90.8306ZM184.782 104.68C184.782 114.836 185.374 117.581 186.997 114.956C187.764 113.717 192.41 113.851 194.657 115.177C196.158 116.062 196.614 116.062 196.934 115.177C197.407 113.874 204.277 113.651 204.277 114.939C204.277 115.459 205.874 115.589 208.252 115.263C210.775 114.918 212.689 115.101 213.49 115.766C214.352 116.48 214.936 116.518 215.327 115.885C216.066 114.689 219.951 114.678 220.688 115.869C221.012 116.393 222.518 116.543 224.227 116.224C225.864 115.916 227.726 116.004 228.367 116.417C229.008 116.831 230.729 117.241 232.191 117.328C237.798 117.663 241.634 118.395 242.785 119.35C243.452 119.903 244.118 119.982 244.289 119.527C244.473 119.042 245.493 119.073 246.812 119.602C248.031 120.092 249.825 120.617 250.8 120.77C256.325 121.636 257.639 121.982 258.678 122.843C259.309 123.366 260.07 123.549 260.37 123.25C260.669 122.95 261.63 123.015 262.503 123.393C263.377 123.771 264.491 124.128 264.978 124.186C265.466 124.244 268.257 125.02 271.181 125.91C274.106 126.801 276.556 127.388 276.627 127.218C276.698 127.048 277.637 127.705 278.714 128.678C279.79 129.652 280.929 130.4 281.244 130.34C283.387 129.933 313.853 143.887 312.901 144.84C312.709 145.031 311.338 144.56 309.856 143.795C304.144 140.843 306.117 142.59 312.782 146.385C316.63 148.576 319.911 150.369 320.071 150.369C320.232 150.369 320.381 149.074 320.403 147.492C320.425 145.91 320.99 143.419 321.66 141.958L322.878 139.302L322.95 143.817C322.989 146.299 324.018 152.833 325.237 158.337C328.154 171.514 328.181 180.763 325.331 189.732C324.164 193.403 323.466 196.395 323.78 196.381C324.094 196.367 325.648 194.214 327.233 191.596C328.818 188.978 335.488 181.25 342.055 174.422C355.072 160.886 358.712 155.909 360.781 148.82C361.527 146.264 362.351 144.172 362.612 144.172C363.687 144.172 361.649 161.005 359.808 167.328C354.806 184.521 343.897 195.032 309.532 215.777L306.233 217.768L308.122 213.505C311.612 205.633 313.843 193.793 315.075 176.601C315.603 169.234 316.398 162.053 316.842 160.641C317.285 159.231 317.444 157.747 317.194 157.344C316.073 155.53 304.89 150.181 296.025 147.219C261.31 135.616 182.889 131.2 124.523 137.56C86.4199 141.712 66.1713 147.077 52.0186 156.771C49.9131 158.213 47.9902 159.194 47.7465 158.95C47.0801 158.284 54.1365 153.672 61.4198 150.015C84.2878 138.53 120.66 132.9 175.92 132.291C243.397 131.548 286.154 137.904 311.723 152.48C315.5 154.633 318.591 156.117 318.591 155.779C318.591 155.132 309.996 149.994 303.969 147.039C298.879 144.543 287.575 141.044 277.828 138.946C248.088 132.544 219.649 130.409 174.148 131.163C132.815 131.847 112.533 133.836 87.3051 139.68C72.7085 143.061 56.538 150.029 48.3633 156.458L46.1957 158.162L47.7261 175.355C49.3079 193.129 51.2654 203.443 54.475 210.918C55.4977 213.3 56.1986 215.385 56.032 215.55C55.549 216.033 38.9319 205.698 32.3416 200.816C23.2488 194.082 11.1741 181.003 7.38937 173.789C1.64093 162.833 -1.09995 151.027 0.41095 143.729C0.815033 141.781 1.19077 141.073 1.24661 142.154C1.39371 144.998 5.09958 152.814 8.55646 157.573C12.1277 162.488 36.9682 190.331 37.3989 189.901C37.5646 189.735 37.2243 186.543 36.643 182.806C35.7498 177.067 35.8278 174.195 37.1472 164.298C38.0068 157.854 38.994 148.997 39.3422 144.614L39.9758 136.646L41.3485 139.745C42.1035 141.449 43.2599 145.035 43.9174 147.713C44.5758 150.391 45.1802 152.692 45.2608 152.827C45.594 153.382 54.9447 146.559 54.7595 145.896C54.4476 144.785 59.1956 142.165 72.2406 136.251C78.8203 133.267 84.8957 130.443 85.742 129.974C86.5883 129.504 87.7845 129.118 88.4004 129.116C89.0163 129.112 90.5901 128.553 91.8981 127.871C93.2051 127.189 95.5977 126.349 97.215 126.004C98.8313 125.658 100.635 124.988 101.223 124.516C101.811 124.044 102.726 123.924 103.256 124.252C103.786 124.579 104.795 124.37 105.499 123.786C106.202 123.203 107.352 122.946 108.053 123.215C108.755 123.484 109.813 123.121 110.405 122.409C110.997 121.696 112.189 121.337 113.054 121.612C113.919 121.886 114.903 121.664 115.241 121.118C115.583 120.563 116.793 120.36 117.974 120.656C119.241 120.973 120.093 120.797 120.093 120.218C120.093 119.685 121.19 119.364 122.531 119.505C123.87 119.645 125.542 119.405 126.243 118.973C127.413 118.25 128.649 118.05 136.487 117.314C137.949 117.178 139.743 116.816 140.474 116.51C141.205 116.205 143 115.97 144.462 115.986C145.924 116.003 148.259 115.723 149.651 115.365C151.384 114.919 152.411 115.082 152.907 115.885C153.506 116.853 153.875 116.854 155.036 115.89C155.934 115.146 157.72 114.896 159.977 115.198C161.923 115.46 163.737 115.312 164.009 114.872C164.732 113.703 169.439 113.893 171.617 115.177C173.118 116.062 173.574 116.062 173.894 115.177C174.408 113.762 180.541 113.729 181.946 115.133C182.773 115.959 183.009 114.68 183.009 109.378V102.561H175.92H168.831V98.5772V94.5933H175.404C179.02 94.5933 182.609 94.3516 183.38 94.0559C184.612 93.5831 184.782 94.866 184.782 104.68ZM240.609 115.432C246.702 116.588 256.272 118.975 261.877 120.736C267.482 122.497 272.964 124.154 274.061 124.419C275.159 124.684 276.055 125.211 276.055 125.59C276.055 125.969 271.918 124.94 266.861 123.301C256.55 119.961 239.463 116.309 228.369 115.074C224.317 114.624 220.762 114.014 220.468 113.72C219.274 112.528 230.202 113.457 240.609 115.432ZM145.348 114.057C143.398 114.503 137.417 115.516 132.056 116.311C120.522 118.02 111.149 120.24 99.9319 123.922C95.4223 125.401 91.2999 126.468 90.7691 126.291C89.0136 125.706 112.689 118.571 123.928 116.298C134.454 114.168 153.65 112.16 145.348 114.057ZM185.725 118.85C185.975 119.099 191.746 119.536 198.551 119.822C222.959 120.849 249.421 123.728 262.985 126.832C265.787 127.473 268.08 127.661 268.08 127.249C268.08 126.836 267.183 126.297 266.086 126.049C261.916 125.109 242.475 122.107 234.406 121.157C221.91 119.685 184.802 117.927 185.725 118.85ZM143.133 120.354C131.305 121.267 103.527 125.577 98.382 127.298L95.7236 128.187L98.8251 127.849C100.531 127.663 107.709 126.484 114.776 125.228C129.882 122.545 152.164 120.3 164.764 120.19C169.682 120.147 175.699 119.776 178.136 119.364C183.856 118.396 159.592 119.082 143.133 120.354ZM205.606 122.038C205.305 122.525 205.481 122.924 205.997 122.924C206.513 122.924 206.936 122.525 206.936 122.038C206.936 121.552 206.76 121.153 206.545 121.153C206.329 121.153 205.908 121.552 205.606 122.038ZM194.77 121.688C195.064 121.982 195.828 122.014 196.467 121.758C197.175 121.475 196.965 121.266 195.932 121.223C194.998 121.185 194.475 121.394 194.77 121.688ZM161.299 122.038C160.997 122.525 161.174 122.924 161.69 122.924C162.205 122.924 162.628 122.525 162.628 122.038C162.628 121.552 162.452 121.153 162.237 121.153C162.022 121.153 161.6 121.552 161.299 122.038ZM222.886 122.924C222.886 123.411 223.309 123.809 223.825 123.809C224.34 123.809 224.517 123.411 224.215 122.924C223.914 122.437 223.492 122.038 223.277 122.038C223.062 122.038 222.886 122.437 222.886 122.924ZM144.462 122.924C144.161 123.411 144.337 123.809 144.853 123.809C145.368 123.809 145.791 123.411 145.791 122.924C145.791 122.437 145.616 122.038 145.4 122.038C145.185 122.038 144.763 122.437 144.462 122.924ZM229.975 123.314C229.975 123.529 230.374 123.951 230.862 124.252C231.349 124.553 231.748 124.377 231.748 123.861C231.748 123.346 231.349 122.924 230.862 122.924C230.374 122.924 229.975 123.099 229.975 123.314ZM136.93 123.809C136.93 124.296 137.105 124.694 137.32 124.694C137.536 124.694 137.958 124.296 138.259 123.809C138.56 123.322 138.384 122.924 137.868 122.924C137.352 122.924 136.93 123.322 136.93 123.809ZM207.176 125.229C207.47 125.523 208.235 125.555 208.874 125.299C209.581 125.017 209.371 124.807 208.338 124.764C207.404 124.726 206.881 124.935 207.176 125.229ZM157.552 125.341C159.391 125.532 162.182 125.529 163.755 125.334C165.329 125.138 163.824 124.981 160.413 124.985C157.001 124.989 155.714 125.149 157.552 125.341ZM143.133 125.58C142.058 126.274 142.185 126.44 143.797 126.452C144.894 126.459 145.791 126.067 145.791 125.58C145.791 124.47 144.851 124.47 143.133 125.58ZM269.206 127.885C269.5 128.179 270.265 128.211 270.904 127.955C271.611 127.673 271.401 127.463 270.369 127.42C269.435 127.382 268.912 127.591 269.206 127.885ZM271.188 130.882C270.878 131.383 271.233 131.532 272.022 131.23C273.556 130.641 273.837 130.006 272.563 130.006C272.104 130.006 271.485 130.4 271.188 130.882ZM203.519 137.267C205.05 137.785 205.757 138.582 205.559 139.566C205.261 141.054 204.349 152.896 204.302 155.902C204.281 157.203 203.424 157.452 198.96 157.452H193.643V147.713C193.643 138.666 193.521 137.974 191.925 137.974C190.337 137.974 190.185 138.768 189.931 148.377C189.524 163.729 189.897 167.19 191.957 167.19C193.39 167.19 193.643 166.525 193.643 162.764V158.337H198.914H204.184L204.453 162.904C204.661 166.455 205.065 167.521 206.271 167.696C207.567 167.883 207.822 167.207 207.822 163.571V159.222H213.139H218.455V163.649C218.455 167.485 218.692 168.076 220.228 168.076C221.734 168.076 222 167.485 222 164.144C222 161.981 222.3 160.052 222.665 159.855C223.03 159.659 225.024 159.677 227.095 159.896L230.862 160.293V164.184C230.862 167.485 231.13 168.076 232.634 168.076C234.144 168.076 234.406 167.485 234.406 164.092C234.406 159.821 234.639 159.668 239.612 160.661C242.208 161.18 242.382 161.458 242.382 165.088C242.382 168.37 242.652 168.961 244.154 168.961C245.67 168.961 245.926 168.37 245.926 164.873C245.926 161.067 246.064 160.823 247.92 161.32C249.017 161.614 250.39 161.86 250.971 161.866C251.573 161.873 252.144 163.461 252.3 165.561C252.5 168.266 252.984 169.303 254.123 169.466C255.364 169.645 255.674 169.026 255.674 166.374C255.674 162.308 255.88 162.085 259.213 162.574C261.66 162.933 261.877 163.25 261.877 166.47C261.877 169.336 262.16 169.92 263.428 169.667C264.523 169.45 264.976 168.52 264.97 166.504C264.962 164.127 265.297 163.649 266.963 163.649C268.877 163.649 269.367 164.456 269.017 167.034C268.836 168.372 270.569 170.732 271.733 170.732C272.161 170.732 272.511 169.337 272.511 167.633C272.511 164.918 272.785 164.534 274.726 164.534C276.667 164.534 276.941 164.918 276.941 167.633C276.941 170.141 277.279 170.732 278.714 170.732C280.093 170.732 280.486 170.141 280.486 168.076C280.486 164.335 282.945 164.521 283.31 168.29C283.697 172.283 286.689 172.934 286.689 169.025C286.689 165.232 289.144 165.361 289.513 169.175C289.904 173.222 292.892 173.807 292.892 169.837C292.892 166.142 295.009 166.771 295.385 170.578C295.753 174.297 298.209 174.43 298.209 170.732C298.209 167.958 299.933 166.92 300.047 169.625C300.083 170.477 300.284 172.098 300.494 173.227C300.798 174.867 300.559 175.179 299.305 174.782C298.442 174.508 295.35 174.088 292.434 173.847C289.518 173.607 285.338 173.214 283.145 172.975C280.951 172.736 277.362 172.342 275.169 172.101C272.976 171.86 266.596 171.446 260.991 171.18C255.386 170.915 248.009 170.494 244.597 170.245C223.351 168.695 146.029 168.419 140.917 169.875C140.43 170.014 139.274 169.799 138.35 169.399C137.425 168.999 135.631 169.035 134.362 169.48C133.093 169.925 128.467 170.289 124.08 170.289H116.105V166.305C116.105 162.342 116.122 162.321 119.207 162.321C122.1 162.321 122.314 162.515 122.397 165.213C122.5 168.609 123.061 169.371 124.928 168.655C125.848 168.303 126.296 166.962 126.296 164.562V160.993H130.283H134.271V164.534C134.271 167.485 134.566 168.076 136.043 168.076C137.556 168.076 137.816 167.485 137.816 164.043V160.01L141.972 160.28L146.128 160.55L146.181 164.092C146.225 167.071 146.551 167.678 148.228 167.916C150.073 168.177 150.222 167.86 150.222 163.667V159.134L155.317 159.399L160.413 159.665L160.48 163.649C160.535 166.901 160.847 167.633 162.176 167.633C163.529 167.633 163.817 166.884 163.881 163.206L163.957 158.78H169.274H174.591L174.861 162.985C175.082 166.425 175.436 167.19 176.809 167.19C178.81 167.19 179.178 163.534 178.746 147.934C178.493 138.762 178.335 137.974 176.752 137.974C175.156 137.974 175.034 138.666 175.034 147.713V157.452H169.329H163.625L163.348 147.492C163.196 142.014 163.189 137.348 163.333 137.122C163.832 136.343 201.184 136.478 203.519 137.267ZM231.748 138.463C250.563 139.919 254.788 140.488 254.788 141.57C254.788 142.027 254.289 142.302 253.68 142.18C252.861 142.016 252.507 144.438 252.321 151.476C252.058 161.421 252.005 161.529 247.92 160.435C246.007 159.923 245.926 159.509 245.926 150.265C245.926 141.221 245.817 140.63 244.154 140.63C242.488 140.63 242.382 141.221 242.382 150.473C242.382 160.247 242.368 160.31 240.388 159.78C239.291 159.487 237.497 159.241 236.4 159.235C234.454 159.222 234.406 158.989 234.406 149.484C234.406 140.336 234.299 139.745 232.634 139.745C230.968 139.745 230.862 140.336 230.862 149.594V159.444L228.092 158.89C226.569 158.586 224.575 158.337 223.662 158.337C222.137 158.337 222 157.53 222 148.598C222 139.45 221.893 138.86 220.228 138.86C218.562 138.86 218.455 139.45 218.455 148.711V158.562L213.93 158.128C211.442 157.889 209.047 157.141 208.61 156.466C208.173 155.791 207.916 151.254 208.041 146.385L208.265 137.532L212.252 137.398C214.446 137.325 223.219 137.804 231.748 138.463ZM160.067 137.679C160.121 138.085 160.137 142.799 160.102 148.156L160.039 157.894L155.13 158.186L150.222 158.479V148.608C150.222 138.877 150.193 138.74 148.228 139.019C146.308 139.292 146.23 139.662 146.103 149.041L145.972 158.78L141.894 159.05L137.816 159.32V150.49C137.816 145.633 137.587 141.066 137.309 140.34C136.998 139.531 137.426 138.846 138.417 138.569C141.514 137.705 159.97 136.946 160.067 137.679ZM135.379 139.826C134.633 140.606 134.271 144.104 134.271 150.546V160.108H130.283H126.296V150.307C126.296 140.848 126.231 140.517 124.432 140.79C122.678 141.056 122.561 141.643 122.438 150.812L122.308 160.55L119.039 160.822L115.771 161.093L115.495 150.9C115.174 139.037 113.943 140.215 127.625 139.276C134.912 138.776 136.29 138.874 135.379 139.826ZM260.237 141.058C260.514 141.334 262.292 141.606 264.188 141.661C266.085 141.717 268.036 142.071 268.523 142.449C269.432 143.154 269.596 161.544 268.701 162.438C268.433 162.706 267.485 162.695 266.596 162.414C265.169 161.962 264.978 160.835 264.978 152.829C264.978 144.894 264.784 143.72 263.428 143.457C262.034 143.187 261.877 144.055 261.877 152.023C261.877 156.899 261.497 161.123 261.031 161.411C260.566 161.698 259.158 161.675 257.902 161.359L255.618 160.787L255.867 150.93C256.099 141.778 256.246 141.054 257.926 140.814C258.921 140.672 259.961 140.782 260.237 141.058ZM112.591 141.719C112.854 142.404 112.955 147.12 112.815 152.2L112.56 161.436L109.68 161.713L106.8 161.991V152.733C106.8 145.608 106.514 143.366 105.558 142.999C104.875 142.737 104.077 142.761 103.786 143.053C103.494 143.343 103.256 147.897 103.256 153.173V162.764H101.04H98.8251V153.133C98.8251 143.045 99.371 141.495 102.854 141.701C103.806 141.757 106.279 141.504 108.349 141.139C111.225 140.632 112.226 140.768 112.591 141.719ZM58.9483 143.729C56.7551 144.902 55.3594 145.863 55.8468 145.863C56.3342 145.863 58.5274 144.902 60.7206 143.729C62.9138 142.556 64.3095 141.595 63.8221 141.595C63.3348 141.595 61.1415 142.556 58.9483 143.729ZM279.6 144.464C281.793 145.034 283.488 145.799 283.366 146.164C283.244 146.528 283.145 150.812 283.145 155.681C283.145 162.96 282.908 164.534 281.815 164.534C280.719 164.534 280.486 162.922 280.486 155.333C280.486 148.256 280.199 146.022 279.244 145.655C277.189 144.868 276.941 145.864 276.941 154.943C276.941 162.822 276.785 163.649 275.303 163.649C273.844 163.649 273.605 162.609 273.129 154.21C272.774 147.942 272.208 144.526 271.445 144.042C269.749 142.967 274.85 143.231 279.6 144.464ZM96.6168 144.734C95.4294 145.92 95.2176 147.756 95.4453 154.917C95.7174 163.469 95.6819 163.652 93.7297 163.651C91.7971 163.649 91.7359 163.381 91.7359 154.943C91.7359 145.864 91.4887 144.868 89.4337 145.655C88.4793 146.021 88.1913 148.242 88.1913 155.238C88.1913 162.234 87.9033 164.455 86.9489 164.821C84.8922 165.61 84.6467 164.612 84.6467 155.46C84.6467 148.83 84.3755 146.77 83.539 147.047C82.7734 147.3 82.3533 150.172 82.1797 156.333C81.9865 163.185 81.6267 165.369 80.6289 165.752C79.5407 166.169 79.3298 164.814 79.3298 157.424C79.3298 149.189 79.2111 148.598 77.5575 148.598C75.9039 148.598 75.7852 149.189 75.7852 157.399C75.7852 165.234 75.0036 168.623 73.6886 166.496C73.4422 166.099 73.1586 162.009 73.0567 157.408L72.8733 149.042L77.2092 147.606C82.7592 145.768 93.6331 143.286 96.1357 143.286C97.9221 143.286 97.9576 143.394 96.6168 144.734ZM290.234 146.994C296.433 149.6 296.019 148.771 295.71 157.976C295.509 163.961 295.123 166.31 294.381 166.065C293.698 165.839 293.248 162.749 293.082 157.159C292.85 149.327 292.679 148.598 291.088 148.598C289.48 148.598 289.348 149.24 289.348 157.009C289.348 163.895 289.107 165.42 288.018 165.42C286.935 165.42 286.689 163.938 286.689 157.393C286.689 152.979 286.276 148.597 285.772 147.655C285.021 146.255 285.143 145.953 286.437 146.003C287.307 146.035 289.015 146.481 290.234 146.994ZM299.836 150.26C300.762 150.847 300.881 152.784 300.382 159.158C300.031 163.64 299.426 166.982 299.037 166.585C298.271 165.802 297.48 149.469 298.209 149.495C298.453 149.504 299.185 149.848 299.836 150.26ZM70.6898 150.07C69.9065 150.386 69.5821 153.136 69.5821 159.473C69.5821 170.734 68.0438 170.013 67.6485 158.565C67.435 152.364 67.6521 150.275 68.5471 149.933C70.1315 149.33 72.2007 149.461 70.6898 150.07ZM305.298 160.16C305.298 165.281 304.978 167.983 304.412 167.633C303.925 167.332 303.526 163.723 303.526 159.613C303.526 155.221 303.891 152.14 304.412 152.14C304.938 152.14 305.298 155.403 305.298 160.16ZM65.1514 160.108C65.1514 164.829 64.7907 168.076 64.2652 168.076C63.7397 168.076 63.3791 164.829 63.3791 160.108C63.3791 155.386 63.7397 152.14 64.2652 152.14C64.7907 152.14 65.1514 155.386 65.1514 160.108ZM309.729 161.383C309.729 165.844 309.365 168.961 308.843 168.961C308.326 168.961 307.957 166.027 307.957 161.93C307.957 158.063 308.355 154.654 308.843 154.353C309.407 154.004 309.729 156.557 309.729 161.383ZM60.1544 154.525C61.0494 155.419 60.8128 168.961 59.9018 168.961C59.0006 168.961 58.1765 154.822 59.0467 154.29C59.3435 154.108 59.8424 154.213 60.1544 154.525ZM313.452 157.23C313.607 157.595 313.5 160.484 313.213 163.649L312.693 169.404L312.541 162.985C312.402 157.156 312.678 155.411 313.452 157.23ZM56.2899 162.764C56.2899 166.172 55.9514 168.961 55.5384 168.961C55.1246 168.961 54.7045 166.172 54.6053 162.764C54.4919 158.9 54.7754 156.566 55.3568 156.566C55.9212 156.566 56.2899 159.015 56.2899 162.764ZM52.5042 164.534C52.5042 166.725 52.3314 167.622 52.1196 166.526C51.9088 165.43 51.9088 163.638 52.1196 162.542C52.3314 161.446 52.5042 162.343 52.5042 164.534ZM113.004 166.301C113.004 168.328 113.37 169.724 113.829 169.442C114.282 169.161 114.903 169.337 115.21 169.832C115.521 170.335 114.864 170.773 113.72 170.825C108.151 171.08 96.3545 171.726 94.3943 171.882C92.4803 172.036 92.14 171.651 91.8918 169.054C91.7191 167.246 92.0717 165.752 92.778 165.304C94.7284 164.069 95.1556 164.407 95.4462 167.412C95.8282 171.37 98.2376 171.272 98.8251 167.275C99.1601 164.999 99.7565 164.188 101.262 163.961C103.007 163.698 103.256 164.046 103.256 166.753C103.256 169.224 103.601 169.846 104.975 169.846C106.321 169.846 106.753 169.127 106.969 166.526C107.22 163.495 107.494 163.182 110.124 162.929C112.952 162.656 113.004 162.717 113.004 166.301ZM88.1913 168.159C88.1913 169.855 88.6441 170.732 89.5205 170.732C91.3912 170.732 91.1856 172.477 89.299 172.616C88.4465 172.679 86.7513 172.835 85.5328 172.963C84.3144 173.092 80.7255 173.431 77.5575 173.717C74.3895 174.003 69.49 174.579 66.6685 174.997C63.1248 175.521 61.8239 175.472 62.4593 174.838C62.9652 174.332 63.3791 173.002 63.3791 171.882C63.3791 170.762 63.7778 169.846 64.2652 169.846C64.7526 169.846 65.1514 170.871 65.1514 172.124C65.1514 173.818 65.5493 174.326 66.7021 174.104C67.7602 173.899 68.221 173.036 68.1528 171.383C68.096 170.008 68.5223 168.961 69.1373 168.961C69.8285 168.961 70.0624 169.797 69.7824 171.262C69.4209 173.152 69.6406 173.507 71.0124 173.247C72.0722 173.046 72.7865 172.042 72.9637 170.502C73.327 167.364 75.7852 167.234 75.7852 170.353C75.7852 173.569 78.7857 172.915 79.1667 169.617C79.5247 166.524 81.9883 166.337 81.9883 169.404C81.9883 170.781 82.4907 171.617 83.3175 171.617C84.1921 171.617 84.6467 170.743 84.6467 169.064C84.6467 167.256 85.1633 166.377 86.419 166.048C87.8909 165.664 88.1913 166.022 88.1913 168.159ZM304.625 169.846C304.938 170.577 305.318 171.892 305.468 172.77C305.839 174.935 307.446 174.774 307.797 172.538C308.192 170.021 309.729 170.269 309.729 172.85C309.729 175.462 308.262 176.091 304.333 175.166C302.671 174.775 301.784 174.414 302.362 174.363C302.94 174.314 303.558 172.978 303.734 171.396C303.939 169.567 304.263 169.002 304.625 169.846ZM221.631 170.821C236.294 171.174 253.441 171.913 259.736 172.461C266.031 173.011 274.485 173.704 278.522 174C282.561 174.298 286.029 174.808 286.231 175.133C286.62 175.763 284.793 175.734 227.144 174.213C206.823 173.676 189.377 173.497 188.375 173.814C187.344 174.142 186.554 173.997 186.554 173.483C186.554 172.958 189.648 172.447 193.865 172.276C197.885 172.112 193.2 171.979 183.453 171.981C173.705 171.982 169.418 172.116 173.926 172.276C188.96 172.812 182.358 173.827 162.401 174.049C151.56 174.168 129.131 174.598 112.56 175.001C95.9894 175.405 82.2656 175.606 82.0618 175.447C81.1668 174.747 83.0029 174.449 91.7359 173.878C96.8534 173.542 101.838 173.102 102.813 172.898C104.687 172.507 117.196 171.913 139.145 171.174C164.694 170.315 195.182 170.184 221.631 170.821ZM60.7206 172.945C60.7206 174.162 60.3218 175.158 59.8345 175.158C59.3471 175.158 58.9483 174.162 58.9483 172.945C58.9483 171.727 59.3471 170.732 59.8345 170.732C60.3218 170.732 60.7206 171.727 60.7206 172.945ZM313.531 173.387C313.785 174.361 313.633 175.158 313.19 175.158C312.749 175.158 312.387 174.361 312.387 173.387C312.387 172.414 312.541 171.617 312.727 171.617C312.914 171.617 313.275 172.414 313.531 173.387ZM56.2899 173.335C56.2899 174.337 55.8911 175.158 55.4037 175.158C54.9163 175.158 54.5175 174.584 54.5175 173.882C54.5175 173.18 54.9163 172.361 55.4037 172.059C55.8911 171.758 56.2899 172.333 56.2899 173.335ZM52.732 173.026C52.739 173.558 55.5951 177.742 59.0786 182.322C66.2493 191.752 67.8568 195.004 73.047 210.571C77.7711 224.742 83.5124 236.523 88.1115 241.484C90.1045 243.635 91.6012 245.528 91.4364 245.693C91.2715 245.858 89.976 245.594 88.5564 245.107C87.1368 244.62 80.0777 243.035 72.8698 241.583C52.7302 237.527 44.3375 233.517 32.1582 222.133C24.4319 214.91 19.3675 208.063 15.5411 199.662C12.7657 193.569 11.1538 187.562 13.1024 190.573C19.7282 200.807 28.4098 208.023 42.0627 214.642C47.6942 217.372 56.1897 222.146 60.9422 225.25C65.6946 228.354 69.5715 230.604 69.5591 230.249C69.5467 229.895 68.1386 227.415 66.4292 224.737C62.7029 218.898 59.6466 209.597 57.7033 198.177C55.6855 186.319 53.1015 175.925 52.0018 175.246C51.4027 174.877 51.3637 174.199 51.8919 173.364C52.3465 172.646 52.724 172.495 52.732 173.026ZM194.528 174.937C194.526 175.302 193.33 175.643 191.869 175.695C190.408 175.747 189.212 175.449 189.212 175.031C189.212 174.614 190.409 174.273 191.871 174.273C193.333 174.273 194.529 174.572 194.528 174.937ZM179.465 175.158C179.465 175.695 175.642 176.043 169.769 176.043C164.262 176.043 159.837 175.661 159.526 175.158C159.174 174.587 162.619 174.273 169.222 174.273C175.459 174.273 179.465 174.619 179.465 175.158ZM311.305 176.043C311.033 176.774 310.191 178.965 309.434 180.913C308.678 182.861 307.041 190.116 305.797 197.036C302.902 213.143 297.957 226.217 293.295 230.082C292.586 230.67 292.006 231.686 292.006 232.341C292.006 233.044 294.411 231.851 297.887 229.423C301.121 227.165 309.473 222.416 316.446 218.871C323.42 215.327 330.811 211.363 332.873 210.063C338.234 206.682 345.043 200.146 347.973 195.568C350.933 190.944 351.249 192.639 348.658 199.251C341.876 216.561 323.925 233.631 306.609 239.239C304.162 240.031 296.071 241.87 288.627 243.325C281.184 244.779 274.014 246.239 272.695 246.569C270.496 247.119 270.674 246.755 274.816 242.223C279.794 236.776 281.376 233.809 286.273 220.73C293.11 202.475 298.071 191.927 303.108 184.938C308.278 177.764 312.289 173.412 311.305 176.043ZM85.2998 217.355C88.5954 220.112 96.2774 227.215 102.37 233.142C115.775 246.182 118.589 248.102 129.645 251.76L138.259 254.61L132.942 255.689C130.018 256.282 122.042 258.196 115.219 259.943C104.04 262.803 101.63 263.12 90.8498 263.145C80.7485 263.167 77.9217 262.857 72.6837 261.151C65.1399 258.694 55.0785 252.595 49.369 247.018C45.1403 242.888 38.8344 234.475 39.9678 234.475C40.2975 234.475 42.169 235.921 44.1266 237.688C51.7457 244.564 62.523 247.564 86.4917 249.476C92.6247 249.966 99.7299 250.814 102.282 251.36C107.818 252.546 108.921 251.98 105.01 249.959C101.104 247.941 94.7648 241.965 91.4222 237.152C87.6853 231.77 77.6089 212.342 78.5535 212.342C78.9673 212.342 82.0033 214.598 85.2998 217.355ZM284.917 213.712C284.917 214.026 284.183 215.34 283.285 216.632C282.388 217.925 279.537 223.324 276.949 228.633C271.144 240.539 265.033 247.184 256.954 250.376C248.95 253.539 248.2 255.132 255.674 253.099C257.38 252.635 265.953 251.629 274.726 250.863C301.886 248.493 309.712 246.466 318.897 239.421L323.191 236.128L321.556 238.958C317.657 245.702 305.07 256.345 296.236 260.368C287.703 264.254 274.131 265.561 261.877 263.678C258.709 263.191 250.534 261.426 243.711 259.757C236.887 258.088 229.71 256.435 227.76 256.083L224.215 255.444L228.107 254.723C230.247 254.326 234.435 252.842 237.412 251.425C246.235 247.225 249.771 244.393 268.523 226.516C275.986 219.401 284.917 212.426 284.917 213.712ZM213.626 256.073C217.062 256.729 221.05 257.866 222.487 258.599C227.849 261.333 247.864 269.043 254.094 270.772C267.43 274.474 278.03 273.963 287.825 269.142C290.643 267.756 292.836 266.953 292.699 267.358C292.215 268.787 281.751 276.156 276.498 278.767C259.426 287.255 237.631 284.651 220.501 272.077C206.075 261.487 198.599 258.272 192.37 259.977C189.79 260.684 189.823 260.721 195.914 264.057C203.708 268.324 218.38 279.021 224.449 284.861L229.113 289.349L225.52 292.592L221.927 295.836L214.374 287.749C206.352 279.161 195.979 270.908 186.613 265.663L180.911 262.471L176.422 264.951C168.141 269.525 157.975 277.346 149.002 286.046C144.105 290.794 139.883 294.661 139.622 294.64C139.359 294.62 137.635 293.271 135.79 291.642L132.434 288.679L137.562 284.108C143.42 278.887 155.611 270.109 163.741 265.26C166.784 263.445 169.872 261.576 170.603 261.107C171.538 260.507 170.279 260.238 166.365 260.202C159.893 260.141 155.98 261.841 144.019 269.909C130.408 279.089 122.711 282.092 110.788 282.872C101.724 283.467 94.8489 282.109 85.9759 277.975C80.7122 275.522 69.5821 267.034 69.5821 265.473C69.5821 265.028 72.6376 266.113 76.3718 267.885C82.0901 270.598 84.3472 271.168 90.6832 271.5C100.317 272.006 108.875 270.457 117.074 266.724C140.498 256.059 159.379 252.669 175.257 256.277C180.528 257.474 182.342 257.538 186.067 256.654C192.969 255.014 206.579 254.727 213.626 256.073Z" fill="white"/>
</svg>
