<svg width="363" height="236" viewBox="0 0 363 236" fill="none" xmlns="http://www.w3.org/2000/svg">
<path fill-rule="evenodd" clip-rule="evenodd" d="M238.281 2.33587C236.59 5.31098 222.279 31.1057 221.668 32.2797L221.285 33.015L224.214 34.2328C225.825 34.9023 230.35 36.8094 234.271 38.4702L241.399 41.4898L240.714 42.2303C239.618 43.414 229.364 54.9671 226.999 57.6819C225.813 59.0437 223.677 61.496 222.254 63.132C220.83 64.7676 218.436 67.4582 216.933 69.1107C215.431 70.7633 212.976 73.5276 211.478 75.2538C209.138 77.9504 206.015 81.4842 203.152 84.6761C202.729 85.1475 200.852 87.2684 198.981 89.3894C194.048 94.9829 194.375 94.6983 195.034 92.8173C195.337 91.9532 196.175 89.7679 196.896 87.9612C197.617 86.1544 199.912 80.3056 201.997 74.9638C204.082 69.6221 206.693 62.9377 207.8 60.1097C208.907 57.2817 209.829 54.7288 209.85 54.4366C209.881 53.9927 208.75 53.5071 202.991 51.4906C199.198 50.1629 196.041 49.0226 195.975 48.9566C195.844 48.8272 196.832 46.6365 199.832 40.3995C200.89 38.1999 203.41 32.9296 205.431 28.6876C207.453 24.4456 209.849 19.4324 210.756 17.547C211.662 15.6617 212.954 12.9623 213.627 11.5483C214.3 10.1343 215.578 7.45939 216.467 5.60434C217.356 3.74901 218.084 2.1102 218.084 1.96223C218.084 1.81426 218.375 1.69143 218.731 1.68944C219.086 1.68744 223.26 1.49662 228.005 1.26581C232.751 1.035 237.195 0.843894 237.883 0.841037L239.133 0.836182L238.281 2.33587ZM282.504 102.545C314.835 105.359 341.489 131.729 343.656 163.047C343.892 166.46 343.066 166.136 351.713 166.207C359.636 166.271 359.546 166.261 360.975 167.311C363.643 169.272 363.682 174.099 361.048 176.301C359.603 177.508 358.495 177.654 350.74 177.655L343.484 177.657L343.341 178.3C343.262 178.653 343.058 179.778 342.887 180.799C339.098 203.439 322.3 223.401 300.261 231.451C257.068 247.23 211.374 216.778 209.828 171.184L209.662 166.281L207.761 164.859C191.312 152.546 169.922 152.502 155.212 164.752L153.453 166.217L153.299 171.437C152.061 213.537 111.298 243.94 69.923 233.623C44.3488 227.246 24.4315 205.834 20.1882 180.157L19.8224 177.943H12.3002C1.9711 177.943 0.0908508 177.042 0.0908508 172.096C0.0908508 167.306 1.73096 166.516 11.6844 166.516H19.2745L19.4672 163.556C21.0049 139.934 37.2627 117.27 59.4781 107.779C93.3472 93.3089 133.149 108.711 147.766 141.943C149.034 144.824 151.363 151.605 151.363 152.413C151.363 153.018 151.79 152.892 153.562 151.766C169.84 141.423 193.032 141.653 209.821 152.322C211.74 153.541 211.757 153.546 211.757 152.852C211.757 151.998 213.735 146.05 214.997 143.108C226.401 116.536 253.836 100.05 282.504 102.545ZM79.1779 114.283C37.2397 119.415 16.4481 168.78 42.1177 202.274C67.1878 234.986 118.436 229.912 136.292 192.949C155.385 153.428 123.066 108.913 79.1779 114.283ZM269.232 114.403C231.84 119.583 210.451 159.513 227.005 193.235C241.682 223.134 279.611 233.358 307.524 214.939C334.129 197.383 340.35 161.2 321.137 135.764C309.229 120.001 288.98 111.667 269.232 114.403ZM317.131 144.386C319.829 145.783 323.161 156.226 323.951 165.754C325.502 184.473 315.719 203.194 300.766 210.121C295.426 212.595 290.988 205.397 295.984 202.366C304.847 196.991 309.22 192.069 312.286 184.022C315.912 174.506 315.52 162.186 311.259 151.788C309.088 146.489 312.613 142.045 317.131 144.386ZM125.312 144.656C127.386 145.396 128.742 147.786 130.518 153.833C137.284 176.87 129.602 199.02 111.11 209.788C106.436 212.509 102.434 210.711 102.822 206.065C102.984 204.122 103.424 203.629 106.737 201.682C122.511 192.407 128.072 171.542 120.009 151.889C118.059 147.134 121.003 143.118 125.312 144.656Z" fill="white"/>
</svg>
